%TF.GenerationSoftware,KiCad,Pcbnew,10.0.1*%
%TF.CreationDate,2026-09-22T21:37:01+02:00*%
%TF.ProjectId,kosmo-16-channel-sequencer-step-settings-board,6b6f736d-6f2d-4313-962d-6368616e6e65,rev?*%
%TF.SameCoordinates,Original*%
%TF.FileFunction,Copper,L2,Bot*%
%TF.FilePolarity,Positive*%
%FSLAX46Y46*%
G04 Gerber Fmt 4.6, Leading zero omitted, Abs format (unit mm)*
G04 Created by KiCad (PCBNEW 10.0.1) date 2026-09-22 21:37:01*
%MOMM*%
%LPD*%
G01*
G04 APERTURE LIST*
G04 Aperture macros list*
%AMRoundRect*
0 Rectangle with rounded corners*
0 $1 Rounding radius*
0 $2 $3 $4 $5 $6 $7 $8 $9 X,Y pos of 4 corners*
0 Add a 4 corners polygon primitive as box body*
4,1,4,$2,$3,$4,$5,$6,$7,$8,$9,$2,$3,0*
0 Add four circle primitives for the rounded corners*
1,1,$1+$1,$2,$3*
1,1,$1+$1,$4,$5*
1,1,$1+$1,$6,$7*
1,1,$1+$1,$8,$9*
0 Add four rect primitives between the rounded corners*
20,1,$1+$1,$2,$3,$4,$5,0*
20,1,$1+$1,$4,$5,$6,$7,0*
20,1,$1+$1,$6,$7,$8,$9,0*
20,1,$1+$1,$8,$9,$2,$3,0*%
G04 Aperture macros list end*
%TA.AperFunction,ComponentPad*%
%ADD10C,1.600000*%
%TD*%
%TA.AperFunction,ComponentPad*%
%ADD11RoundRect,0.250000X0.550000X-0.550000X0.550000X0.550000X-0.550000X0.550000X-0.550000X-0.550000X0*%
%TD*%
%TA.AperFunction,ComponentPad*%
%ADD12RoundRect,0.250000X-0.550000X-0.550000X0.550000X-0.550000X0.550000X0.550000X-0.550000X0.550000X0*%
%TD*%
%TA.AperFunction,ComponentPad*%
%ADD13RoundRect,0.250000X0.550000X0.550000X-0.550000X0.550000X-0.550000X-0.550000X0.550000X-0.550000X0*%
%TD*%
%TA.AperFunction,ComponentPad*%
%ADD14RoundRect,0.250000X-0.550000X0.550000X-0.550000X-0.550000X0.550000X-0.550000X0.550000X0.550000X0*%
%TD*%
%TA.AperFunction,ComponentPad*%
%ADD15R,1.700000X1.700000*%
%TD*%
%TA.AperFunction,ComponentPad*%
%ADD16C,1.700000*%
%TD*%
%TA.AperFunction,ComponentPad*%
%ADD17O,4.100000X3.000000*%
%TD*%
%TA.AperFunction,ViaPad*%
%ADD18C,0.600000*%
%TD*%
%TA.AperFunction,Conductor*%
%ADD19C,0.200000*%
%TD*%
G04 APERTURE END LIST*
D10*
%TO.P,R44,1*%
%TO.N,+3V3*%
X198455861Y-147538374D03*
%TO.P,R44,2*%
%TO.N,/VOLUME_A*%
X190835861Y-147538374D03*
%TD*%
%TO.P,R53,1*%
%TO.N,+3V3*%
X311145861Y-147538374D03*
%TO.P,R53,2*%
%TO.N,/CC3_A*%
X303525861Y-147538374D03*
%TD*%
%TO.P,R18,1*%
%TO.N,+5V*%
X37525861Y-105038374D03*
%TO.P,R18,2*%
%TO.N,Net-(U5-ISET)*%
X45145861Y-105038374D03*
%TD*%
%TO.P,C12,1*%
%TO.N,+3V3*%
X148645861Y-165038374D03*
%TO.P,C12,2*%
%TO.N,GND*%
X153645861Y-165038374D03*
%TD*%
%TO.P,C15,1*%
%TO.N,+5V*%
X242145861Y-169538374D03*
%TO.P,C15,2*%
%TO.N,GND*%
X237145861Y-169538374D03*
%TD*%
%TO.P,R40,1*%
%TO.N,+3V3*%
X198455861Y-103538374D03*
%TO.P,R40,2*%
%TO.N,/NOTE4_A*%
X190835861Y-103538374D03*
%TD*%
D11*
%TO.P,C16,1*%
%TO.N,+5V*%
X323645861Y-137538374D03*
D10*
%TO.P,C16,2*%
%TO.N,GND*%
X323645861Y-135038374D03*
%TD*%
%TO.P,R32,1*%
%TO.N,+3V3*%
X102955861Y-108538374D03*
%TO.P,R32,2*%
%TO.N,/NOTE1_B*%
X95335861Y-108538374D03*
%TD*%
%TO.P,R29,1*%
%TO.N,+5V*%
X347145861Y-157538374D03*
%TO.P,R29,2*%
%TO.N,Net-(U32-ISET)*%
X339525861Y-157538374D03*
%TD*%
%TO.P,C8,1*%
%TO.N,+5V*%
X34645861Y-101038374D03*
%TO.P,C8,2*%
%TO.N,GND*%
X29645861Y-101038374D03*
%TD*%
%TO.P,R47,1*%
%TO.N,/LENGTH_BTN*%
X190619524Y-121836554D03*
%TO.P,R47,2*%
%TO.N,GND*%
X198239524Y-121836554D03*
%TD*%
%TO.P,R57,1*%
%TO.N,/CC3_BTN*%
X303645861Y-143038374D03*
%TO.P,R57,2*%
%TO.N,GND*%
X311265861Y-143038374D03*
%TD*%
%TO.P,R58,1*%
%TO.N,+3V3*%
X374525861Y-100038374D03*
%TO.P,R58,2*%
%TO.N,/ENV_A*%
X382145861Y-100038374D03*
%TD*%
%TO.P,R49,1*%
%TO.N,+3V3*%
X311765861Y-103538374D03*
%TO.P,R49,2*%
%TO.N,/CC1_A*%
X304145861Y-103538374D03*
%TD*%
D11*
%TO.P,U9,1,~{PL}_1*%
%TO.N,/165_BTN_SH{slash}LD*%
X150405861Y-176038374D03*
D10*
%TO.P,U9,2,CP_2*%
%TO.N,/165_BTN_CLK*%
X152945861Y-176038374D03*
%TO.P,U9,3,D4_3*%
%TO.N,/LENGTH_BTN*%
X155485861Y-176038374D03*
%TO.P,U9,4,D5_4*%
%TO.N,/VOLUME_BTN*%
X158025861Y-176038374D03*
%TO.P,U9,5,D6_5*%
%TO.N,/CC1_BTN*%
X160565861Y-176038374D03*
%TO.P,U9,6,D7_6*%
%TO.N,/CC2_BTN*%
X163105861Y-176038374D03*
%TO.P,U9,7,~{Q7}_7*%
%TO.N,unconnected-(U9-~{Q7}-Pad7)*%
X165645861Y-176038374D03*
%TO.P,U9,8,GND_8*%
%TO.N,GND*%
X168185861Y-176038374D03*
%TO.P,U9,9,Q7_9*%
%TO.N,/165_BTN_QH*%
X168185861Y-168418374D03*
%TO.P,U9,10,DS_10*%
%TO.N,Net-(U10-Q7)*%
X165645861Y-168418374D03*
%TO.P,U9,11,D0_11*%
%TO.N,/NOTE1_BTN*%
X163105861Y-168418374D03*
%TO.P,U9,12,D1_12*%
%TO.N,/NOTE2_BTN*%
X160565861Y-168418374D03*
%TO.P,U9,13,D2_13*%
%TO.N,/NOTE3_BTN*%
X158025861Y-168418374D03*
%TO.P,U9,14,D3_14*%
%TO.N,/NOTE4_BTN*%
X155485861Y-168418374D03*
%TO.P,U9,15,~{CE}_15*%
%TO.N,GND*%
X152945861Y-168418374D03*
%TO.P,U9,16,VCC_16*%
%TO.N,+3V3*%
X150405861Y-168418374D03*
%TD*%
D12*
%TO.P,U8,1,~{PL}_1*%
%TO.N,/165_ENC_SH{slash}LD*%
X344025861Y-120038374D03*
D10*
%TO.P,U8,2,CP_2*%
%TO.N,/165_ENC_CLK*%
X344025861Y-122578374D03*
%TO.P,U8,3,D4_3*%
%TO.N,/PC_A*%
X344025861Y-125118374D03*
%TO.P,U8,4,D5_4*%
%TO.N,/PC_B*%
X344025861Y-127658374D03*
%TO.P,U8,5,D6_5*%
%TO.N,/TRIGGER_A*%
X344025861Y-130198374D03*
%TO.P,U8,6,D7_6*%
%TO.N,/TRIGGER_B*%
X344025861Y-132738374D03*
%TO.P,U8,7,~{Q7}_7*%
%TO.N,unconnected-(U8-~{Q7}-Pad7)*%
X344025861Y-135278374D03*
%TO.P,U8,8,GND_8*%
%TO.N,GND*%
X344025861Y-137818374D03*
%TO.P,U8,9,Q7_9*%
%TO.N,Net-(U7-DS)*%
X351645861Y-137818374D03*
%TO.P,U8,10,DS_10*%
%TO.N,GND*%
X351645861Y-135278374D03*
%TO.P,U8,11,D0_11*%
%TO.N,/CC3_A*%
X351645861Y-132738374D03*
%TO.P,U8,12,D1_12*%
%TO.N,/CC3_B*%
X351645861Y-130198374D03*
%TO.P,U8,13,D2_13*%
%TO.N,/ENV_A*%
X351645861Y-127658374D03*
%TO.P,U8,14,D3_14*%
%TO.N,/ENV_B*%
X351645861Y-125118374D03*
%TO.P,U8,15,~{CE}_15*%
%TO.N,GND*%
X351645861Y-122578374D03*
%TO.P,U8,16,VCC_16*%
%TO.N,+3V3*%
X351645861Y-120038374D03*
%TD*%
%TO.P,R55,1*%
%TO.N,/CC1_BTN*%
X304145861Y-99038374D03*
%TO.P,R55,2*%
%TO.N,GND*%
X311765861Y-99038374D03*
%TD*%
%TO.P,R38,1*%
%TO.N,+3V3*%
X102955861Y-152038374D03*
%TO.P,R38,2*%
%TO.N,/NOTE3_B*%
X95335861Y-152038374D03*
%TD*%
%TO.P,R34,1*%
%TO.N,+3V3*%
X102765861Y-126038374D03*
%TO.P,R34,2*%
%TO.N,/NOTE2_A*%
X95145861Y-126038374D03*
%TD*%
%TO.P,R26,1*%
%TO.N,+5V*%
X214645861Y-154538374D03*
%TO.P,R26,2*%
%TO.N,Net-(U29-ISET)*%
X222265861Y-154538374D03*
%TD*%
%TO.P,R42,1*%
%TO.N,+3V3*%
X198265861Y-126038374D03*
%TO.P,R42,2*%
%TO.N,/LENGTH_A*%
X190645861Y-126038374D03*
%TD*%
D13*
%TO.P,C7,1*%
%TO.N,+5V*%
X32145861Y-107538374D03*
D10*
%TO.P,C7,2*%
%TO.N,GND*%
X29645861Y-107538374D03*
%TD*%
%TO.P,C9,1*%
%TO.N,+3V3*%
X118145861Y-154538374D03*
%TO.P,C9,2*%
%TO.N,GND*%
X123145861Y-154538374D03*
%TD*%
%TO.P,R46,1*%
%TO.N,/NOTE4_BTN*%
X190835861Y-99538374D03*
%TO.P,R46,2*%
%TO.N,GND*%
X198455861Y-99538374D03*
%TD*%
%TO.P,R50,1*%
%TO.N,+3V3*%
X311265861Y-108538374D03*
%TO.P,R50,2*%
%TO.N,/CC1_B*%
X303645861Y-108538374D03*
%TD*%
%TO.P,C11,1*%
%TO.N,+3V3*%
X351645861Y-115538374D03*
%TO.P,C11,2*%
%TO.N,GND*%
X356645861Y-115538374D03*
%TD*%
%TO.P,R33,1*%
%TO.N,+3V3*%
X102955861Y-104538374D03*
%TO.P,R33,2*%
%TO.N,/NOTE1_A*%
X95335861Y-104538374D03*
%TD*%
D13*
%TO.P,C14,1*%
%TO.N,+5V*%
X241145861Y-163538374D03*
D10*
%TO.P,C14,2*%
%TO.N,GND*%
X238645861Y-163538374D03*
%TD*%
D11*
%TO.P,C22,1*%
%TO.N,+5V*%
X121645861Y-109720754D03*
D10*
%TO.P,C22,2*%
%TO.N,GND*%
X121645861Y-107220754D03*
%TD*%
%TO.P,R43,1*%
%TO.N,+3V3*%
X198265861Y-130038374D03*
%TO.P,R43,2*%
%TO.N,/LENGTH_B*%
X190645861Y-130038374D03*
%TD*%
%TO.P,R59,1*%
%TO.N,+3V3*%
X375835861Y-116038374D03*
%TO.P,R59,2*%
%TO.N,/ENV_B*%
X383455861Y-116038374D03*
%TD*%
%TO.P,R52,1*%
%TO.N,+3V3*%
X311145861Y-130538374D03*
%TO.P,R52,2*%
%TO.N,/CC2_B*%
X303525861Y-130538374D03*
%TD*%
%TO.P,R64,1*%
%TO.N,/ENV_BTN*%
X376145861Y-103918374D03*
%TO.P,R64,2*%
%TO.N,GND*%
X376145861Y-111538374D03*
%TD*%
%TO.P,R36,1*%
%TO.N,/NOTE2_BTN*%
X95207310Y-121653887D03*
%TO.P,R36,2*%
%TO.N,GND*%
X102827310Y-121653887D03*
%TD*%
D11*
%TO.P,U10,1,~{PL}_1*%
%TO.N,/165_BTN_SH{slash}LD*%
X306905861Y-184538374D03*
D10*
%TO.P,U10,2,CP_2*%
%TO.N,/165_BTN_CLK*%
X309445861Y-184538374D03*
%TO.P,U10,3,D4_3*%
%TO.N,GND*%
X311985861Y-184538374D03*
%TO.P,U10,4,D5_4*%
X314525861Y-184538374D03*
%TO.P,U10,5,D6_5*%
X317065861Y-184538374D03*
%TO.P,U10,6,D7_6*%
X319605861Y-184538374D03*
%TO.P,U10,7,~{Q7}_7*%
%TO.N,unconnected-(U10-~{Q7}-Pad7)*%
X322145861Y-184538374D03*
%TO.P,U10,8,GND_8*%
%TO.N,GND*%
X324685861Y-184538374D03*
%TO.P,U10,9,Q7_9*%
%TO.N,Net-(U10-Q7)*%
X324685861Y-176918374D03*
%TO.P,U10,10,DS_10*%
%TO.N,Net-(J14-Pin_13)*%
X322145861Y-176918374D03*
%TO.P,U10,11,D0_11*%
%TO.N,/CC3_BTN*%
X319605861Y-176918374D03*
%TO.P,U10,12,D1_12*%
%TO.N,/ENV_BTN*%
X317065861Y-176918374D03*
%TO.P,U10,13,D2_13*%
%TO.N,/PC_BTN*%
X314525861Y-176918374D03*
%TO.P,U10,14,D3_14*%
%TO.N,/TRIGGER_BTN*%
X311985861Y-176918374D03*
%TO.P,U10,15,~{CE}_15*%
%TO.N,GND*%
X309445861Y-176918374D03*
%TO.P,U10,16,VCC_16*%
%TO.N,+3V3*%
X306905861Y-176918374D03*
%TD*%
%TO.P,R61,1*%
%TO.N,+3V3*%
X388645861Y-117538374D03*
%TO.P,R61,2*%
%TO.N,/PC_B*%
X396265861Y-117538374D03*
%TD*%
%TO.P,R27,1*%
%TO.N,+5V*%
X242145861Y-174038374D03*
%TO.P,R27,2*%
%TO.N,Net-(U30-ISET)*%
X234525861Y-174038374D03*
%TD*%
%TO.P,R60,1*%
%TO.N,+3V3*%
X375835861Y-120038374D03*
%TO.P,R60,2*%
%TO.N,/PC_A*%
X383455861Y-120038374D03*
%TD*%
%TO.P,C19,1*%
%TO.N,+5V*%
X346645861Y-103038374D03*
%TO.P,C19,2*%
%TO.N,GND*%
X346645861Y-98038374D03*
%TD*%
%TO.P,C23,1*%
%TO.N,+5V*%
X128145861Y-111038374D03*
%TO.P,C23,2*%
%TO.N,GND*%
X128145861Y-106038374D03*
%TD*%
%TO.P,C21,1*%
%TO.N,+5V*%
X214645861Y-151038374D03*
%TO.P,C21,2*%
%TO.N,GND*%
X219645861Y-151038374D03*
%TD*%
%TO.P,R66,1*%
%TO.N,/TRIGGER_BTN*%
X379145861Y-146538374D03*
%TO.P,R66,2*%
%TO.N,GND*%
X379145861Y-154158374D03*
%TD*%
%TO.P,R62,1*%
%TO.N,+3V3*%
X375645861Y-140538374D03*
%TO.P,R62,2*%
%TO.N,/TRIGGER_A*%
X383265861Y-140538374D03*
%TD*%
%TO.P,R54,1*%
%TO.N,+3V3*%
X311145861Y-152038374D03*
%TO.P,R54,2*%
%TO.N,/CC3_B*%
X303525861Y-152038374D03*
%TD*%
%TO.P,R56,1*%
%TO.N,/CC2_BTN*%
X303645861Y-121038374D03*
%TO.P,R56,2*%
%TO.N,GND*%
X311265861Y-121038374D03*
%TD*%
%TO.P,R28,1*%
%TO.N,+5V*%
X338645861Y-109038374D03*
%TO.P,R28,2*%
%TO.N,Net-(U31-ISET)*%
X338645861Y-116658374D03*
%TD*%
%TO.P,C13,1*%
%TO.N,+3V3*%
X330145861Y-179538374D03*
%TO.P,C13,2*%
%TO.N,GND*%
X330145861Y-184538374D03*
%TD*%
%TO.P,R63,1*%
%TO.N,+3V3*%
X374335861Y-160038374D03*
%TO.P,R63,2*%
%TO.N,/TRIGGER_B*%
X381955861Y-160038374D03*
%TD*%
%TO.P,R51,1*%
%TO.N,+3V3*%
X311265861Y-125538374D03*
%TO.P,R51,2*%
%TO.N,/CC2_A*%
X303645861Y-125538374D03*
%TD*%
%TO.P,R41,1*%
%TO.N,+3V3*%
X198455861Y-108038374D03*
%TO.P,R41,2*%
%TO.N,/NOTE4_B*%
X190835861Y-108038374D03*
%TD*%
D11*
%TO.P,C18,1*%
%TO.N,+5V*%
X340645861Y-102038374D03*
D10*
%TO.P,C18,2*%
%TO.N,GND*%
X340645861Y-99538374D03*
%TD*%
%TO.P,R25,1*%
%TO.N,+5V*%
X133145861Y-111538374D03*
%TO.P,R25,2*%
%TO.N,Net-(U28-ISET)*%
X133145861Y-103918374D03*
%TD*%
%TO.P,R48,1*%
%TO.N,/VOLUME_BTN*%
X191012004Y-143187464D03*
%TO.P,R48,2*%
%TO.N,GND*%
X198632004Y-143187464D03*
%TD*%
%TO.P,C17,1*%
%TO.N,+5V*%
X330145861Y-138038374D03*
%TO.P,C17,2*%
%TO.N,GND*%
X330145861Y-133038374D03*
%TD*%
%TO.P,R45,1*%
%TO.N,+3V3*%
X198455861Y-152038374D03*
%TO.P,R45,2*%
%TO.N,/VOLUME_B*%
X190835861Y-152038374D03*
%TD*%
D11*
%TO.P,U7,1,~{PL}_1*%
%TO.N,/165_ENC_SH{slash}LD*%
X183905861Y-176038374D03*
D10*
%TO.P,U7,2,CP_2*%
%TO.N,/165_ENC_CLK*%
X186445861Y-176038374D03*
%TO.P,U7,3,D4_3*%
%TO.N,/CC1_A*%
X188985861Y-176038374D03*
%TO.P,U7,4,D5_4*%
%TO.N,/CC1_B*%
X191525861Y-176038374D03*
%TO.P,U7,5,D6_5*%
%TO.N,/CC2_A*%
X194065861Y-176038374D03*
%TO.P,U7,6,D7_6*%
%TO.N,/CC2_B*%
X196605861Y-176038374D03*
%TO.P,U7,7,~{Q7}_7*%
%TO.N,unconnected-(U7-~{Q7}-Pad7)*%
X199145861Y-176038374D03*
%TO.P,U7,8,GND_8*%
%TO.N,GND*%
X201685861Y-176038374D03*
%TO.P,U7,9,Q7_9*%
%TO.N,Net-(U6-DS)*%
X201685861Y-168418374D03*
%TO.P,U7,10,DS_10*%
%TO.N,Net-(U7-DS)*%
X199145861Y-168418374D03*
%TO.P,U7,11,D0_11*%
%TO.N,/LENGTH_A*%
X196605861Y-168418374D03*
%TO.P,U7,12,D1_12*%
%TO.N,/LENGTH_B*%
X194065861Y-168418374D03*
%TO.P,U7,13,D2_13*%
%TO.N,/VOLUME_A*%
X191525861Y-168418374D03*
%TO.P,U7,14,D3_14*%
%TO.N,/VOLUME_B*%
X188985861Y-168418374D03*
%TO.P,U7,15,~{CE}_15*%
%TO.N,GND*%
X186445861Y-168418374D03*
%TO.P,U7,16,VCC_16*%
%TO.N,+3V3*%
X183905861Y-168418374D03*
%TD*%
%TO.P,R35,1*%
%TO.N,+3V3*%
X102765861Y-130538374D03*
%TO.P,R35,2*%
%TO.N,/NOTE2_B*%
X95145861Y-130538374D03*
%TD*%
%TO.P,R39,1*%
%TO.N,/NOTE3_BTN*%
X95276079Y-143537063D03*
%TO.P,R39,2*%
%TO.N,GND*%
X102896079Y-143537063D03*
%TD*%
%TO.P,R37,1*%
%TO.N,+3V3*%
X102948410Y-147828177D03*
%TO.P,R37,2*%
%TO.N,/NOTE3_A*%
X95328410Y-147828177D03*
%TD*%
%TO.P,R31,1*%
%TO.N,/NOTE1_BTN*%
X95335861Y-100538374D03*
%TO.P,R31,2*%
%TO.N,GND*%
X102955861Y-100538374D03*
%TD*%
D14*
%TO.P,C20,1*%
%TO.N,+5V*%
X209645861Y-148038374D03*
D10*
%TO.P,C20,2*%
%TO.N,GND*%
X209645861Y-150538374D03*
%TD*%
%TO.P,R65,1*%
%TO.N,/PC_BTN*%
X379645861Y-127418374D03*
%TO.P,R65,2*%
%TO.N,GND*%
X379645861Y-135038374D03*
%TD*%
%TO.P,C10,1*%
%TO.N,+3V3*%
X182645861Y-165538374D03*
%TO.P,C10,2*%
%TO.N,GND*%
X187645861Y-165538374D03*
%TD*%
D11*
%TO.P,U6,1,~{PL}_1*%
%TO.N,/165_ENC_SH{slash}LD*%
X118405861Y-165658374D03*
D10*
%TO.P,U6,2,CP_2*%
%TO.N,/165_ENC_CLK*%
X120945861Y-165658374D03*
%TO.P,U6,3,D4_3*%
%TO.N,/NOTE3_A*%
X123485861Y-165658374D03*
%TO.P,U6,4,D5_4*%
%TO.N,/NOTE3_B*%
X126025861Y-165658374D03*
%TO.P,U6,5,D6_5*%
%TO.N,/NOTE4_A*%
X128565861Y-165658374D03*
%TO.P,U6,6,D7_6*%
%TO.N,/NOTE4_B*%
X131105861Y-165658374D03*
%TO.P,U6,7,~{Q7}_7*%
%TO.N,unconnected-(U6-~{Q7}-Pad7)*%
X133645861Y-165658374D03*
%TO.P,U6,8,GND_8*%
%TO.N,GND*%
X136185861Y-165658374D03*
%TO.P,U6,9,Q7_9*%
%TO.N,/165_ENC_QH*%
X136185861Y-158038374D03*
%TO.P,U6,10,DS_10*%
%TO.N,Net-(U6-DS)*%
X133645861Y-158038374D03*
%TO.P,U6,11,D0_11*%
%TO.N,/NOTE1_A*%
X131105861Y-158038374D03*
%TO.P,U6,12,D1_12*%
%TO.N,/NOTE1_B*%
X128565861Y-158038374D03*
%TO.P,U6,13,D2_13*%
%TO.N,/NOTE2_A*%
X126025861Y-158038374D03*
%TO.P,U6,14,D3_14*%
%TO.N,/NOTE2_B*%
X123485861Y-158038374D03*
%TO.P,U6,15,~{CE}_15*%
%TO.N,GND*%
X120945861Y-158038374D03*
%TO.P,U6,16,VCC_16*%
%TO.N,+3V3*%
X118405861Y-158038374D03*
%TD*%
D15*
%TO.P,J14,1,Pin_1_1*%
%TO.N,GND*%
X196445861Y-183578374D03*
D16*
%TO.P,J14,2,Pin_2_2*%
%TO.N,+5V*%
X196445861Y-181038374D03*
%TO.P,J14,3,Pin_3_3*%
%TO.N,GND*%
X198985861Y-183578374D03*
%TO.P,J14,4,Pin_4_4*%
%TO.N,+5V*%
X198985861Y-181038374D03*
%TO.P,J14,5,Pin_5_5*%
%TO.N,/MAX_DIN*%
X201525861Y-183578374D03*
%TO.P,J14,6,Pin_6_6*%
%TO.N,/MAX_DOUT*%
X201525861Y-181038374D03*
%TO.P,J14,7,Pin_7_7*%
%TO.N,/MAX_CLK*%
X204065861Y-183578374D03*
%TO.P,J14,8,Pin_8_8*%
%TO.N,/MAX_LOAD*%
X204065861Y-181038374D03*
%TO.P,J14,9,Pin_9_9*%
%TO.N,GND*%
X206605861Y-183578374D03*
%TO.P,J14,10,Pin_10_10*%
%TO.N,+5V*%
X206605861Y-181038374D03*
%TO.P,J14,11,Pin_11_11*%
%TO.N,GND*%
X209145861Y-183578374D03*
%TO.P,J14,12,Pin_12_12*%
%TO.N,+3V3*%
X209145861Y-181038374D03*
%TO.P,J14,13,Pin_13_13*%
%TO.N,Net-(J14-Pin_13)*%
X211685861Y-183578374D03*
%TO.P,J14,14,Pin_14_14*%
%TO.N,/165_BTN_QH*%
X211685861Y-181038374D03*
%TO.P,J14,15,Pin_15_15*%
%TO.N,/165_BTN_CLK*%
X214225861Y-183578374D03*
%TO.P,J14,16,Pin_16_16*%
%TO.N,/165_BTN_SH{slash}LD*%
X214225861Y-181038374D03*
%TO.P,J14,17,Pin_17_17*%
%TO.N,GND*%
X216765861Y-183578374D03*
%TO.P,J14,18,Pin_18_18*%
%TO.N,/165_ENC_QH*%
X216765861Y-181038374D03*
%TO.P,J14,19,Pin_19_19*%
%TO.N,/165_ENC_CLK*%
X219305861Y-183578374D03*
%TO.P,J14,20,Pin_20_20*%
%TO.N,/165_ENC_SH{slash}LD*%
X219305861Y-181038374D03*
%TD*%
D14*
%TO.P,U19,1,E_1*%
%TO.N,Net-(U14-E)*%
X152458498Y-145989305D03*
D10*
%TO.P,U19,2,D_2*%
%TO.N,Net-(U14-D)*%
X154998498Y-145989305D03*
%TO.P,U19,3,C_3*%
%TO.N,Net-(U14-C)*%
X157538498Y-145989305D03*
%TO.P,U19,4,G_4*%
%TO.N,Net-(U14-G)*%
X160078498Y-145989305D03*
%TO.P,U19,5,dp_5*%
%TO.N,Net-(U14-dp)*%
X162618498Y-145989305D03*
%TO.P,U19,6,en2_6*%
%TO.N,/2_DIG_4*%
X162618498Y-153609305D03*
%TO.P,U19,7,A_7*%
%TO.N,Net-(U14-A)*%
X160078498Y-153609305D03*
%TO.P,U19,8,B_8*%
%TO.N,Net-(U14-B)*%
X157538498Y-153609305D03*
%TO.P,U19,9,en1_9*%
%TO.N,/2_DIG_3*%
X154998498Y-153609305D03*
%TO.P,U19,10,F_10*%
%TO.N,Net-(U14-F)*%
X152458498Y-153609305D03*
%TD*%
D14*
%TO.P,U26,1,E_1*%
%TO.N,Net-(U26-E)*%
X356150898Y-145967661D03*
D10*
%TO.P,U26,2,D_2*%
%TO.N,Net-(U26-D)*%
X358690898Y-145967661D03*
%TO.P,U26,3,dp_3*%
%TO.N,Net-(U26-dp)*%
X361230898Y-145967661D03*
%TO.P,U26,4,C_4*%
%TO.N,Net-(U26-C)*%
X363770898Y-145967661D03*
%TO.P,U26,5,G_5*%
%TO.N,Net-(U26-G)*%
X366310898Y-145967661D03*
%TO.P,U26,6,en4_6*%
%TO.N,/6_DIG_6*%
X368850898Y-145967661D03*
%TO.P,U26,7,B_7*%
%TO.N,Net-(U26-B)*%
X368850898Y-153587661D03*
%TO.P,U26,8,en3_8*%
%TO.N,/6_DIG_5*%
X366310898Y-153587661D03*
%TO.P,U26,9,en2_9*%
%TO.N,/6_DIG_4*%
X363770898Y-153587661D03*
%TO.P,U26,10,F_10*%
%TO.N,Net-(U26-F)*%
X361230898Y-153587661D03*
%TO.P,U26,11,A_11*%
%TO.N,Net-(U26-A)*%
X358690898Y-153587661D03*
%TO.P,U26,12,en1_12*%
%TO.N,/6_DIG_3*%
X356150898Y-153587661D03*
%TD*%
D14*
%TO.P,U25,1,E_1*%
%TO.N,Net-(U15-E)*%
X261259331Y-145937135D03*
D10*
%TO.P,U25,2,D_2*%
%TO.N,Net-(U15-D)*%
X263799331Y-145937135D03*
%TO.P,U25,3,dp_3*%
%TO.N,Net-(U15-dp)*%
X266339331Y-145937135D03*
%TO.P,U25,4,C_4*%
%TO.N,Net-(U15-C)*%
X268879331Y-145937135D03*
%TO.P,U25,5,G_5*%
%TO.N,Net-(U15-G)*%
X271419331Y-145937135D03*
%TO.P,U25,6*%
%TO.N,N/C*%
X273959331Y-145937135D03*
%TO.P,U25,7,B_7*%
%TO.N,Net-(U15-B)*%
X273959331Y-153557135D03*
%TO.P,U25,8,en3_8*%
%TO.N,/5_DIG_2*%
X271419331Y-153557135D03*
%TO.P,U25,9,en2_9*%
%TO.N,/5_DIG_1*%
X268879331Y-153557135D03*
%TO.P,U25,10,F_10*%
%TO.N,Net-(U15-F)*%
X266339331Y-153557135D03*
%TO.P,U25,11,A_11*%
%TO.N,Net-(U15-A)*%
X263799331Y-153557135D03*
%TO.P,U25,12,en1_12*%
%TO.N,/5_DIG_0*%
X261259331Y-153557135D03*
%TD*%
D14*
%TO.P,U24,1,E_1*%
%TO.N,Net-(U22-E)*%
X232274066Y-146020367D03*
D10*
%TO.P,U24,2,D_2*%
%TO.N,Net-(U22-D)*%
X234814066Y-146020367D03*
%TO.P,U24,3,dp_3*%
%TO.N,Net-(U22-dp)*%
X237354066Y-146020367D03*
%TO.P,U24,4,C_4*%
%TO.N,Net-(U22-C)*%
X239894066Y-146020367D03*
%TO.P,U24,5,G_5*%
%TO.N,Net-(U22-G)*%
X242434066Y-146020367D03*
%TO.P,U24,6*%
%TO.N,N/C*%
X244974066Y-146020367D03*
%TO.P,U24,7,B_7*%
%TO.N,Net-(U22-B)*%
X244974066Y-153640367D03*
%TO.P,U24,8,en3_8*%
%TO.N,/3_DIG_5*%
X242434066Y-153640367D03*
%TO.P,U24,9,en2_9*%
%TO.N,/3_DIG_4*%
X239894066Y-153640367D03*
%TO.P,U24,10,F_10*%
%TO.N,Net-(U22-F)*%
X237354066Y-153640367D03*
%TO.P,U24,11,A_11*%
%TO.N,Net-(U22-A)*%
X234814066Y-153640367D03*
%TO.P,U24,12,en1_12*%
%TO.N,/3_DIG_3*%
X232274066Y-153640367D03*
%TD*%
D14*
%TO.P,U16,1,E_1*%
%TO.N,Net-(U13-E)*%
X57232404Y-124078359D03*
D10*
%TO.P,U16,2,D_2*%
%TO.N,Net-(U13-D)*%
X59772404Y-124078359D03*
%TO.P,U16,3,C_3*%
%TO.N,Net-(U13-C)*%
X62312404Y-124078359D03*
%TO.P,U16,4,G_4*%
%TO.N,Net-(U13-G)*%
X64852404Y-124078359D03*
%TO.P,U16,5,dp_5*%
%TO.N,Net-(U13-dp)*%
X67392404Y-124078359D03*
%TO.P,U16,6,en2_6*%
%TO.N,/1_DIG_3*%
X67392404Y-131698359D03*
%TO.P,U16,7,A_7*%
%TO.N,Net-(U13-A)*%
X64852404Y-131698359D03*
%TO.P,U16,8,B_8*%
%TO.N,Net-(U13-B)*%
X62312404Y-131698359D03*
%TO.P,U16,9,en1_9*%
%TO.N,/1_DIG_2*%
X59772404Y-131698359D03*
%TO.P,U16,10,F_10*%
%TO.N,Net-(U13-F)*%
X57232404Y-131698359D03*
%TD*%
D13*
%TO.P,SW32,A,A_A*%
%TO.N,/NOTE4_A*%
X186411422Y-103551491D03*
D10*
%TO.P,SW32,B,B_B*%
%TO.N,/NOTE4_B*%
X186411422Y-108551491D03*
%TO.P,SW32,C,C_C*%
%TO.N,GND*%
X186411422Y-106051491D03*
%TO.P,SW32,S1,S1_S1*%
%TO.N,/NOTE4_BTN*%
X171911422Y-103551491D03*
%TO.P,SW32,S2,S2_S2*%
%TO.N,+3V3*%
X171911422Y-108551491D03*
D17*
%TO.P,SW32,SH*%
%TO.N,N/C*%
X178911422Y-111651491D03*
X178911422Y-100451491D03*
%TD*%
D14*
%TO.P,U20,1,E_1*%
%TO.N,Net-(U14-E)*%
X232065038Y-102172847D03*
D10*
%TO.P,U20,2,D_2*%
%TO.N,Net-(U14-D)*%
X234605038Y-102172847D03*
%TO.P,U20,3,dp_3*%
%TO.N,Net-(U14-dp)*%
X237145038Y-102172847D03*
%TO.P,U20,4,C_4*%
%TO.N,Net-(U14-C)*%
X239685038Y-102172847D03*
%TO.P,U20,5,G_5*%
%TO.N,Net-(U14-G)*%
X242225038Y-102172847D03*
%TO.P,U20,6*%
%TO.N,N/C*%
X244765038Y-102172847D03*
%TO.P,U20,7,B_7*%
%TO.N,Net-(U14-B)*%
X244765038Y-109792847D03*
%TO.P,U20,8,en3_8*%
%TO.N,/2_DIG_7*%
X242225038Y-109792847D03*
%TO.P,U20,9,en2_9*%
%TO.N,/2_DIG_6*%
X239685038Y-109792847D03*
%TO.P,U20,10,F_10*%
%TO.N,Net-(U14-F)*%
X237145038Y-109792847D03*
%TO.P,U20,11,A_11*%
%TO.N,Net-(U14-A)*%
X234605038Y-109792847D03*
%TO.P,U20,12,en1_12*%
%TO.N,/2_DIG_5*%
X232065038Y-109792847D03*
%TD*%
D14*
%TO.P,U15,1,E_1*%
%TO.N,Net-(U15-E)*%
X356103027Y-102172686D03*
D10*
%TO.P,U15,2,D_2*%
%TO.N,Net-(U15-D)*%
X358643027Y-102172686D03*
%TO.P,U15,3,dp_3*%
%TO.N,Net-(U15-dp)*%
X361183027Y-102172686D03*
%TO.P,U15,4,C_4*%
%TO.N,Net-(U15-C)*%
X363723027Y-102172686D03*
%TO.P,U15,5,G_5*%
%TO.N,Net-(U15-G)*%
X366263027Y-102172686D03*
%TO.P,U15,6,en4_6*%
%TO.N,/5_DIG_6*%
X368803027Y-102172686D03*
%TO.P,U15,7,B_7*%
%TO.N,Net-(U15-B)*%
X368803027Y-109792686D03*
%TO.P,U15,8,en3_8*%
%TO.N,/5_DIG_5*%
X366263027Y-109792686D03*
%TO.P,U15,9,en2_9*%
%TO.N,/5_DIG_4*%
X363723027Y-109792686D03*
%TO.P,U15,10,F_10*%
%TO.N,Net-(U15-F)*%
X361183027Y-109792686D03*
%TO.P,U15,11,A_11*%
%TO.N,Net-(U15-A)*%
X358643027Y-109792686D03*
%TO.P,U15,12,en1_12*%
%TO.N,/5_DIG_3*%
X356103027Y-109792686D03*
%TD*%
D13*
%TO.P,SW30,A,A_A*%
%TO.N,/NOTE2_A*%
X91389481Y-125427713D03*
D10*
%TO.P,SW30,B,B_B*%
%TO.N,/NOTE2_B*%
X91389481Y-130427713D03*
%TO.P,SW30,C,C_C*%
%TO.N,GND*%
X91389481Y-127927713D03*
%TO.P,SW30,S1,S1_S1*%
%TO.N,/NOTE2_BTN*%
X76889481Y-125427713D03*
%TO.P,SW30,S2,S2_S2*%
%TO.N,+3V3*%
X76889481Y-130427713D03*
D17*
%TO.P,SW30,SH*%
%TO.N,N/C*%
X83889481Y-133527713D03*
X83889481Y-122327713D03*
%TD*%
D13*
%TO.P,SW38,A,A_A*%
%TO.N,/ENV_A*%
X400042712Y-103602886D03*
D10*
%TO.P,SW38,B,B_B*%
%TO.N,/ENV_B*%
X400042712Y-108602886D03*
%TO.P,SW38,C,C_C*%
%TO.N,GND*%
X400042712Y-106102886D03*
%TO.P,SW38,S1,S1_S1*%
%TO.N,/ENV_BTN*%
X385542712Y-103602886D03*
%TO.P,SW38,S2,S2_S2*%
%TO.N,+3V3*%
X385542712Y-108602886D03*
D17*
%TO.P,SW38,SH*%
%TO.N,N/C*%
X392542712Y-111702886D03*
X392542712Y-100502886D03*
%TD*%
D14*
%TO.P,U21,1,E_1*%
%TO.N,Net-(U21-E)*%
X261026997Y-102202816D03*
D10*
%TO.P,U21,2,D_2*%
%TO.N,Net-(U21-D)*%
X263566997Y-102202816D03*
%TO.P,U21,3,dp_3*%
%TO.N,Net-(U21-dp)*%
X266106997Y-102202816D03*
%TO.P,U21,4,C_4*%
%TO.N,Net-(U21-C)*%
X268646997Y-102202816D03*
%TO.P,U21,5,G_5*%
%TO.N,Net-(U21-G)*%
X271186997Y-102202816D03*
%TO.P,U21,6*%
%TO.N,N/C*%
X273726997Y-102202816D03*
%TO.P,U21,7,B_7*%
%TO.N,Net-(U21-B)*%
X273726997Y-109822816D03*
%TO.P,U21,8,en3_8*%
%TO.N,/4_DIG_2*%
X271186997Y-109822816D03*
%TO.P,U21,9,en2_9*%
%TO.N,/4_DIG_1*%
X268646997Y-109822816D03*
%TO.P,U21,10,F_10*%
%TO.N,Net-(U21-F)*%
X266106997Y-109822816D03*
%TO.P,U21,11,A_11*%
%TO.N,Net-(U21-A)*%
X263566997Y-109822816D03*
%TO.P,U21,12,en1_12*%
%TO.N,/4_DIG_0*%
X261026997Y-109822816D03*
%TD*%
D14*
%TO.P,U17,1,E_1*%
%TO.N,Net-(U13-E)*%
X57229972Y-146065886D03*
D10*
%TO.P,U17,2,D_2*%
%TO.N,Net-(U13-D)*%
X59769972Y-146065886D03*
%TO.P,U17,3,C_3*%
%TO.N,Net-(U13-C)*%
X62309972Y-146065886D03*
%TO.P,U17,4,G_4*%
%TO.N,Net-(U13-G)*%
X64849972Y-146065886D03*
%TO.P,U17,5,dp_5*%
%TO.N,Net-(U13-dp)*%
X67389972Y-146065886D03*
%TO.P,U17,6,en2_6*%
%TO.N,/1_DIG_5*%
X67389972Y-153685886D03*
%TO.P,U17,7,A_7*%
%TO.N,Net-(U13-A)*%
X64849972Y-153685886D03*
%TO.P,U17,8,B_8*%
%TO.N,Net-(U13-B)*%
X62309972Y-153685886D03*
%TO.P,U17,9,en1_9*%
%TO.N,/1_DIG_4*%
X59769972Y-153685886D03*
%TO.P,U17,10,F_10*%
%TO.N,Net-(U13-F)*%
X57229972Y-153685886D03*
%TD*%
D14*
%TO.P,U27,1,E_1*%
%TO.N,Net-(U26-E)*%
X361023741Y-124079633D03*
D10*
%TO.P,U27,2,D_2*%
%TO.N,Net-(U26-D)*%
X363563741Y-124079633D03*
%TO.P,U27,3,dp_3*%
%TO.N,Net-(U26-dp)*%
X366103741Y-124079633D03*
%TO.P,U27,4,C_4*%
%TO.N,Net-(U26-C)*%
X368643741Y-124079633D03*
%TO.P,U27,5,G_5*%
%TO.N,Net-(U26-G)*%
X371183741Y-124079633D03*
%TO.P,U27,6*%
%TO.N,N/C*%
X373723741Y-124079633D03*
%TO.P,U27,7,B_7*%
%TO.N,Net-(U26-B)*%
X373723741Y-131699633D03*
%TO.P,U27,8,en3_8*%
%TO.N,/6_DIG_2*%
X371183741Y-131699633D03*
%TO.P,U27,9,en2_9*%
%TO.N,/6_DIG_1*%
X368643741Y-131699633D03*
%TO.P,U27,10,F_10*%
%TO.N,Net-(U26-F)*%
X366103741Y-131699633D03*
%TO.P,U27,11,A_11*%
%TO.N,Net-(U26-A)*%
X363563741Y-131699633D03*
%TO.P,U27,12,en1_12*%
%TO.N,/6_DIG_0*%
X361023741Y-131699633D03*
%TD*%
D13*
%TO.P,SW31,A,A_A*%
%TO.N,/NOTE3_A*%
X91386857Y-147300000D03*
D10*
%TO.P,SW31,B,B_B*%
%TO.N,/NOTE3_B*%
X91386857Y-152300000D03*
%TO.P,SW31,C,C_C*%
%TO.N,GND*%
X91386857Y-149800000D03*
%TO.P,SW31,S1,S1_S1*%
%TO.N,/NOTE3_BTN*%
X76886857Y-147300000D03*
%TO.P,SW31,S2,S2_S2*%
%TO.N,+3V3*%
X76886857Y-152300000D03*
D17*
%TO.P,SW31,SH*%
%TO.N,N/C*%
X83886857Y-155400000D03*
X83886857Y-144200000D03*
%TD*%
D14*
%TO.P,U14,1,E_1*%
%TO.N,Net-(U14-E)*%
X147461725Y-124058111D03*
D10*
%TO.P,U14,2,D_2*%
%TO.N,Net-(U14-D)*%
X150001725Y-124058111D03*
%TO.P,U14,3,dp_3*%
%TO.N,Net-(U14-dp)*%
X152541725Y-124058111D03*
%TO.P,U14,4,C_4*%
%TO.N,Net-(U14-C)*%
X155081725Y-124058111D03*
%TO.P,U14,5,G_5*%
%TO.N,Net-(U14-G)*%
X157621725Y-124058111D03*
%TO.P,U14,6*%
%TO.N,N/C*%
X160161725Y-124058111D03*
%TO.P,U14,7,B_7*%
%TO.N,Net-(U14-B)*%
X160161725Y-131678111D03*
%TO.P,U14,8,en3_8*%
%TO.N,/2_DIG_2*%
X157621725Y-131678111D03*
%TO.P,U14,9,en2_9*%
%TO.N,/2_DIG_1*%
X155081725Y-131678111D03*
%TO.P,U14,10,F_10*%
%TO.N,Net-(U14-F)*%
X152541725Y-131678111D03*
%TO.P,U14,11,A_11*%
%TO.N,Net-(U14-A)*%
X150001725Y-131678111D03*
%TO.P,U14,12,en1_12*%
%TO.N,/2_DIG_0*%
X147461725Y-131678111D03*
%TD*%
D13*
%TO.P,SW39,A,A_A*%
%TO.N,/PC_A*%
X400028443Y-125494132D03*
D10*
%TO.P,SW39,B,B_B*%
%TO.N,/PC_B*%
X400028443Y-130494132D03*
%TO.P,SW39,C,C_C*%
%TO.N,GND*%
X400028443Y-127994132D03*
%TO.P,SW39,S1,S1_S1*%
%TO.N,/PC_BTN*%
X385528443Y-125494132D03*
%TO.P,SW39,S2,S2_S2*%
%TO.N,+3V3*%
X385528443Y-130494132D03*
D17*
%TO.P,SW39,SH*%
%TO.N,N/C*%
X392528443Y-133594132D03*
X392528443Y-122394132D03*
%TD*%
D14*
%TO.P,U13,1,E_1*%
%TO.N,Net-(U13-E)*%
X57245714Y-102107207D03*
D10*
%TO.P,U13,2,D_2*%
%TO.N,Net-(U13-D)*%
X59785714Y-102107207D03*
%TO.P,U13,3,C_3*%
%TO.N,Net-(U13-C)*%
X62325714Y-102107207D03*
%TO.P,U13,4,G_4*%
%TO.N,Net-(U13-G)*%
X64865714Y-102107207D03*
%TO.P,U13,5,dp_5*%
%TO.N,Net-(U13-dp)*%
X67405714Y-102107207D03*
%TO.P,U13,6,en2_6*%
%TO.N,/1_DIG_1*%
X67405714Y-109727207D03*
%TO.P,U13,7,A_7*%
%TO.N,Net-(U13-A)*%
X64865714Y-109727207D03*
%TO.P,U13,8,B_8*%
%TO.N,Net-(U13-B)*%
X62325714Y-109727207D03*
%TO.P,U13,9,en1_9*%
%TO.N,/1_DIG_0*%
X59785714Y-109727207D03*
%TO.P,U13,10,F_10*%
%TO.N,Net-(U13-F)*%
X57245714Y-109727207D03*
%TD*%
D13*
%TO.P,SW29,A,A_A*%
%TO.N,/NOTE1_A*%
X91414999Y-103517744D03*
D10*
%TO.P,SW29,B,B_B*%
%TO.N,/NOTE1_B*%
X91414999Y-108517744D03*
%TO.P,SW29,C,C_C*%
%TO.N,GND*%
X91414999Y-106017744D03*
%TO.P,SW29,S1,S1_S1*%
%TO.N,/NOTE1_BTN*%
X76914999Y-103517744D03*
%TO.P,SW29,S2,S2_S2*%
%TO.N,+3V3*%
X76914999Y-108517744D03*
D17*
%TO.P,SW29,SH*%
%TO.N,N/C*%
X83914999Y-111617744D03*
X83914999Y-100417744D03*
%TD*%
D13*
%TO.P,SW34,A,A_A*%
%TO.N,/VOLUME_A*%
X186446321Y-147328302D03*
D10*
%TO.P,SW34,B,B_B*%
%TO.N,/VOLUME_B*%
X186446321Y-152328302D03*
%TO.P,SW34,C,C_C*%
%TO.N,GND*%
X186446321Y-149828302D03*
%TO.P,SW34,S1,S1_S1*%
%TO.N,/VOLUME_BTN*%
X171946321Y-147328302D03*
%TO.P,SW34,S2,S2_S2*%
%TO.N,+3V3*%
X171946321Y-152328302D03*
D17*
%TO.P,SW34,SH*%
%TO.N,N/C*%
X178946321Y-155428302D03*
X178946321Y-144228302D03*
%TD*%
D13*
%TO.P,SW37,A,A_A*%
%TO.N,/CC3_A*%
X299946680Y-147386492D03*
D10*
%TO.P,SW37,B,B_B*%
%TO.N,/CC3_B*%
X299946680Y-152386492D03*
%TO.P,SW37,C,C_C*%
%TO.N,GND*%
X299946680Y-149886492D03*
%TO.P,SW37,S1,S1_S1*%
%TO.N,/CC3_BTN*%
X285446680Y-147386492D03*
%TO.P,SW37,S2,S2_S2*%
%TO.N,+3V3*%
X285446680Y-152386492D03*
D17*
%TO.P,SW37,SH*%
%TO.N,N/C*%
X292446680Y-155486492D03*
X292446680Y-144286492D03*
%TD*%
D13*
%TO.P,SW33,A,A_A*%
%TO.N,/LENGTH_A*%
X186435179Y-125487482D03*
D10*
%TO.P,SW33,B,B_B*%
%TO.N,/LENGTH_B*%
X186435179Y-130487482D03*
%TO.P,SW33,C,C_C*%
%TO.N,GND*%
X186435179Y-127987482D03*
%TO.P,SW33,S1,S1_S1*%
%TO.N,/LENGTH_BTN*%
X171935179Y-125487482D03*
%TO.P,SW33,S2,S2_S2*%
%TO.N,+3V3*%
X171935179Y-130487482D03*
D17*
%TO.P,SW33,SH*%
%TO.N,N/C*%
X178935179Y-133587482D03*
X178935179Y-122387482D03*
%TD*%
D14*
%TO.P,U23,1,E_1*%
%TO.N,Net-(U21-E)*%
X261083586Y-124054115D03*
D10*
%TO.P,U23,2,D_2*%
%TO.N,Net-(U21-D)*%
X263623586Y-124054115D03*
%TO.P,U23,3,dp_3*%
%TO.N,Net-(U21-dp)*%
X266163586Y-124054115D03*
%TO.P,U23,4,C_4*%
%TO.N,Net-(U21-C)*%
X268703586Y-124054115D03*
%TO.P,U23,5,G_5*%
%TO.N,Net-(U21-G)*%
X271243586Y-124054115D03*
%TO.P,U23,6*%
%TO.N,N/C*%
X273783586Y-124054115D03*
%TO.P,U23,7,B_7*%
%TO.N,Net-(U21-B)*%
X273783586Y-131674115D03*
%TO.P,U23,8,en3_8*%
%TO.N,/4_DIG_5*%
X271243586Y-131674115D03*
%TO.P,U23,9,en2_9*%
%TO.N,/4_DIG_4*%
X268703586Y-131674115D03*
%TO.P,U23,10,F_10*%
%TO.N,Net-(U21-F)*%
X266163586Y-131674115D03*
%TO.P,U23,11,A_11*%
%TO.N,Net-(U21-A)*%
X263623586Y-131674115D03*
%TO.P,U23,12,en1_12*%
%TO.N,/4_DIG_3*%
X261083586Y-131674115D03*
%TD*%
D14*
%TO.P,U22,1,E_1*%
%TO.N,Net-(U22-E)*%
X232298074Y-124117514D03*
D10*
%TO.P,U22,2,D_2*%
%TO.N,Net-(U22-D)*%
X234838074Y-124117514D03*
%TO.P,U22,3,dp_3*%
%TO.N,Net-(U22-dp)*%
X237378074Y-124117514D03*
%TO.P,U22,4,C_4*%
%TO.N,Net-(U22-C)*%
X239918074Y-124117514D03*
%TO.P,U22,5,G_5*%
%TO.N,Net-(U22-G)*%
X242458074Y-124117514D03*
%TO.P,U22,6*%
%TO.N,N/C*%
X244998074Y-124117514D03*
%TO.P,U22,7,B_7*%
%TO.N,Net-(U22-B)*%
X244998074Y-131737514D03*
%TO.P,U22,8,en3_8*%
%TO.N,/3_DIG_2*%
X242458074Y-131737514D03*
%TO.P,U22,9,en2_9*%
%TO.N,/3_DIG_1*%
X239918074Y-131737514D03*
%TO.P,U22,10,F_10*%
%TO.N,Net-(U22-F)*%
X237378074Y-131737514D03*
%TO.P,U22,11,A_11*%
%TO.N,Net-(U22-A)*%
X234838074Y-131737514D03*
%TO.P,U22,12,en1_12*%
%TO.N,/3_DIG_0*%
X232298074Y-131737514D03*
%TD*%
D14*
%TO.P,U18,1,E_1*%
%TO.N,Net-(U13-E)*%
X152361961Y-102176844D03*
D10*
%TO.P,U18,2,D_2*%
%TO.N,Net-(U13-D)*%
X154901961Y-102176844D03*
%TO.P,U18,3,C_3*%
%TO.N,Net-(U13-C)*%
X157441961Y-102176844D03*
%TO.P,U18,4,G_4*%
%TO.N,Net-(U13-G)*%
X159981961Y-102176844D03*
%TO.P,U18,5,dp_5*%
%TO.N,Net-(U13-dp)*%
X162521961Y-102176844D03*
%TO.P,U18,6,en2_6*%
%TO.N,/1_DIG_7*%
X162521961Y-109796844D03*
%TO.P,U18,7,A_7*%
%TO.N,Net-(U13-A)*%
X159981961Y-109796844D03*
%TO.P,U18,8,B_8*%
%TO.N,Net-(U13-B)*%
X157441961Y-109796844D03*
%TO.P,U18,9,en1_9*%
%TO.N,/1_DIG_6*%
X154901961Y-109796844D03*
%TO.P,U18,10,F_10*%
%TO.N,Net-(U13-F)*%
X152361961Y-109796844D03*
%TD*%
D13*
%TO.P,SW35,A,A_A*%
%TO.N,/CC1_A*%
X299934317Y-103577368D03*
D10*
%TO.P,SW35,B,B_B*%
%TO.N,/CC1_B*%
X299934317Y-108577368D03*
%TO.P,SW35,C,C_C*%
%TO.N,GND*%
X299934317Y-106077368D03*
%TO.P,SW35,S1,S1_S1*%
%TO.N,/CC1_BTN*%
X285434317Y-103577368D03*
%TO.P,SW35,S2,S2_S2*%
%TO.N,+3V3*%
X285434317Y-108577368D03*
D17*
%TO.P,SW35,SH*%
%TO.N,N/C*%
X292434317Y-111677368D03*
X292434317Y-100477368D03*
%TD*%
D13*
%TO.P,SW40,A,A_A*%
%TO.N,/TRIGGER_A*%
X400081707Y-147305483D03*
D10*
%TO.P,SW40,B,B_B*%
%TO.N,/TRIGGER_B*%
X400081707Y-152305483D03*
%TO.P,SW40,C,C_C*%
%TO.N,GND*%
X400081707Y-149805483D03*
%TO.P,SW40,S1,S1_S1*%
%TO.N,/TRIGGER_BTN*%
X385581707Y-147305483D03*
%TO.P,SW40,S2,S2_S2*%
%TO.N,+3V3*%
X385581707Y-152305483D03*
D17*
%TO.P,SW40,SH*%
%TO.N,N/C*%
X392581707Y-155405483D03*
X392581707Y-144205483D03*
%TD*%
D13*
%TO.P,SW36,A,A_A*%
%TO.N,/CC2_A*%
X299907685Y-125441982D03*
D10*
%TO.P,SW36,B,B_B*%
%TO.N,/CC2_B*%
X299907685Y-130441982D03*
%TO.P,SW36,C,C_C*%
%TO.N,GND*%
X299907685Y-127941982D03*
%TO.P,SW36,S1,S1_S1*%
%TO.N,/CC2_BTN*%
X285407685Y-125441982D03*
%TO.P,SW36,S2,S2_S2*%
%TO.N,+3V3*%
X285407685Y-130441982D03*
D17*
%TO.P,SW36,SH*%
%TO.N,N/C*%
X292407685Y-133541982D03*
X292407685Y-122341982D03*
%TD*%
D18*
%TO.N,+3V3*%
X125145861Y-162538374D03*
X255145861Y-149538374D03*
X174145861Y-169538374D03*
X206645861Y-153038374D03*
X280820126Y-145212639D03*
X168645861Y-170038374D03*
%TO.N,/CC3_A*%
X335645861Y-129538374D03*
%TO.N,+5V*%
X154145861Y-183038374D03*
X259145861Y-161038374D03*
X46645861Y-129038374D03*
X116145861Y-97038374D03*
X209145861Y-173538374D03*
X222645861Y-160038374D03*
X344645861Y-99538374D03*
X208645861Y-158038374D03*
X288645861Y-159538374D03*
X192145861Y-183538374D03*
X53645861Y-158538374D03*
X306645861Y-172538374D03*
X47645861Y-152538374D03*
X217645861Y-139538374D03*
X215645861Y-142038374D03*
%TO.N,Net-(U5-ISET)*%
X37145861Y-121038374D03*
X38145861Y-128538374D03*
%TO.N,GND*%
X250665861Y-181058374D03*
X137145861Y-154038374D03*
X205997745Y-139583112D03*
X71645861Y-101038374D03*
X309645861Y-180538374D03*
X145645861Y-159038374D03*
X107721597Y-121462638D03*
X280645861Y-182038374D03*
X93645861Y-132538374D03*
X345645861Y-95538374D03*
X201245861Y-121836554D03*
X266645861Y-180538374D03*
X168145861Y-183038374D03*
X347645861Y-137538374D03*
%TO.N,/NOTE4_A*%
X150145861Y-155309305D03*
%TO.N,/LENGTH_BTN*%
X169145861Y-138538374D03*
%TO.N,/CC1_A*%
X201845861Y-137954639D03*
%TO.N,/165_BTN_SH{slash}LD*%
X223645861Y-186538374D03*
%TO.N,/165_BTN_CLK*%
X276145861Y-185538374D03*
%TO.N,/VOLUME_BTN*%
X174395861Y-166788374D03*
%TO.N,/CC1_BTN*%
X200471596Y-137864109D03*
%TO.N,/CC2_BTN*%
X203645861Y-136038374D03*
X204145861Y-173038374D03*
X185145861Y-173038374D03*
%TO.N,/165_BTN_QH*%
X211145861Y-162038374D03*
X192645861Y-162038374D03*
X172145861Y-168038374D03*
%TO.N,/NOTE2_BTN*%
X138645861Y-138538374D03*
X136645861Y-137538374D03*
%TO.N,/NOTE4_BTN*%
X167045861Y-151038374D03*
%TO.N,/165_ENC_SH{slash}LD*%
X205260126Y-178152639D03*
X185145861Y-185038374D03*
X308145861Y-156538374D03*
%TO.N,/165_ENC_CLK*%
X308645861Y-157538374D03*
X206145861Y-177538374D03*
X185145861Y-186038374D03*
%TO.N,/PC_A*%
X363645861Y-118638374D03*
%TO.N,/PC_B*%
X362145861Y-118538374D03*
%TO.N,Net-(U7-DS)*%
X308080174Y-158138374D03*
X301045861Y-158538374D03*
X336145861Y-133538374D03*
%TO.N,/CC3_B*%
X336645861Y-130438374D03*
%TO.N,Net-(U29-ISET)*%
X217145861Y-143538374D03*
X219645861Y-133038374D03*
%TO.N,/LENGTH_A*%
X201245861Y-139438374D03*
%TO.N,/CC1_B*%
X202745861Y-137031121D03*
%TO.N,/LENGTH_B*%
X200773024Y-138605152D03*
%TO.N,Net-(U28-DOUT)*%
X249145861Y-105038374D03*
X139645861Y-114538374D03*
X246145861Y-175038374D03*
X207645861Y-97538374D03*
%TO.N,/4_DIG_0*%
X249145861Y-175038374D03*
%TO.N,/4_DIG_4*%
X254345861Y-166238374D03*
%TO.N,/4_DIG_2*%
X259145861Y-172538374D03*
%TO.N,/4_DIG_3*%
X261645861Y-171538374D03*
%TO.N,/4_DIG_5*%
X268645861Y-172538374D03*
%TO.N,/4_DIG_1*%
X270645861Y-173538374D03*
%TO.N,/MAX_LOAD*%
X310145861Y-169538374D03*
X327145861Y-151038374D03*
X278145861Y-181038374D03*
X114145861Y-142538374D03*
X110145861Y-154538374D03*
X208145861Y-155538374D03*
X330145861Y-128038374D03*
X281645861Y-180938374D03*
X212145861Y-175038374D03*
X328645861Y-149638374D03*
X313645861Y-169538374D03*
X124145861Y-181538374D03*
X104645861Y-160138374D03*
X207645861Y-146038374D03*
X207645861Y-175038374D03*
X326145861Y-123538374D03*
%TO.N,/MAX_CLK*%
X334385861Y-171298374D03*
X129645861Y-142538374D03*
X286645861Y-159538374D03*
X281145861Y-159538374D03*
X111645861Y-153538374D03*
X225145861Y-145538374D03*
X329645861Y-150038374D03*
X253145861Y-175038374D03*
X306645861Y-168538374D03*
X208645861Y-161038374D03*
X328145861Y-151038374D03*
%TO.N,Net-(U21-A)*%
X270645861Y-166038374D03*
%TO.N,Net-(U21-F)*%
X268145861Y-158538374D03*
X255145861Y-153038374D03*
%TO.N,Net-(U21-B)*%
X256145861Y-153038374D03*
X264145861Y-159038374D03*
%TO.N,Net-(U21-E)*%
X254645861Y-155538374D03*
X255145861Y-159538374D03*
%TO.N,Net-(U29-DIN)*%
X247645861Y-159538374D03*
X230645861Y-114038374D03*
%TO.N,/CC2_B*%
X205145861Y-135038374D03*
%TO.N,Net-(U31-DOUT)*%
X329145861Y-99538374D03*
X325145861Y-141538374D03*
X333645861Y-134538374D03*
X331145861Y-127538374D03*
%TO.N,/6_DIG_0*%
X323145861Y-143538374D03*
%TO.N,/6_DIG_4*%
X323145861Y-152538374D03*
%TO.N,/6_DIG_6*%
X322645861Y-151538374D03*
%TO.N,/6_DIG_2*%
X321145861Y-152538374D03*
%TO.N,/6_DIG_3*%
X322645861Y-156538374D03*
%TO.N,/6_DIG_5*%
X323645861Y-164038374D03*
%TO.N,/6_DIG_1*%
X325145861Y-144538374D03*
%TO.N,Net-(U26-A)*%
X340145861Y-162538374D03*
X340645861Y-160038374D03*
%TO.N,Net-(U26-F)*%
X340145861Y-163538374D03*
X341645861Y-161038374D03*
%TO.N,/MAX_DOUT*%
X309145861Y-159038374D03*
X331145861Y-142538374D03*
X280645861Y-164538374D03*
%TO.N,Net-(U28-DIN)*%
X56645861Y-113538374D03*
X102645861Y-118038374D03*
X105145861Y-118038374D03*
X44145861Y-115038374D03*
%TO.N,/2_DIG_0*%
X120145861Y-117538374D03*
%TO.N,/2_DIG_4*%
X115645861Y-121038374D03*
X115645861Y-123038374D03*
%TO.N,/2_DIG_6*%
X120150126Y-127142639D03*
%TO.N,/2_DIG_2*%
X119200126Y-127244109D03*
X127145861Y-127538374D03*
X122145861Y-126538374D03*
%TO.N,/2_DIG_7*%
X120113018Y-128071217D03*
%TO.N,/2_DIG_5*%
X125645861Y-132038374D03*
%TO.N,/2_DIG_1*%
X129645861Y-130038374D03*
%TO.N,Net-(U14-A)*%
X200145861Y-116538374D03*
X156645861Y-121038374D03*
X198145861Y-117538374D03*
X150645861Y-127538374D03*
%TO.N,Net-(U14-F)*%
X197145861Y-134038374D03*
X199245861Y-134038374D03*
X149645861Y-141038374D03*
X156145861Y-128038374D03*
X165645861Y-128038374D03*
%TO.N,Net-(U14-B)*%
X199245861Y-135038374D03*
X166145861Y-137662247D03*
X197145861Y-135038374D03*
X130145861Y-128038374D03*
%TO.N,Net-(U14-G)*%
X198145861Y-116538374D03*
X157645861Y-119038374D03*
X137145861Y-128038374D03*
X200145861Y-115538374D03*
%TO.N,Net-(U28-ISET)*%
X129645861Y-125538374D03*
%TO.N,Net-(U14-C)*%
X200145861Y-114538374D03*
X155161462Y-120538374D03*
X150145861Y-126538374D03*
X198145861Y-115538374D03*
X135645861Y-126538374D03*
%TO.N,Net-(U14-E)*%
X198145861Y-111538374D03*
X149145861Y-119038374D03*
X200145861Y-111538374D03*
%TO.N,Net-(U14-dp)*%
X198145861Y-114538374D03*
X200145861Y-113538374D03*
%TO.N,Net-(U14-D)*%
X200145861Y-112538374D03*
X150645861Y-120538374D03*
X198145861Y-113038374D03*
%TO.N,/MAX_DIN*%
X64645861Y-184538374D03*
X122645861Y-184538374D03*
%TO.N,/1_DIG_0*%
X23645861Y-116538374D03*
%TO.N,/1_DIG_4*%
X23645861Y-120038374D03*
%TO.N,/1_DIG_6*%
X56645861Y-112538374D03*
X28645861Y-125038374D03*
X105145861Y-116538374D03*
X102645861Y-117038374D03*
%TO.N,/1_DIG_7*%
X102645861Y-116038374D03*
X29145861Y-133038374D03*
X106145861Y-114038374D03*
X56145861Y-114938374D03*
%TO.N,/1_DIG_5*%
X22145861Y-139938374D03*
%TO.N,/1_DIG_1*%
X21545861Y-140552953D03*
%TO.N,Net-(U13-A)*%
X103145861Y-115038374D03*
X106645861Y-112038374D03*
%TO.N,Net-(U13-F)*%
X102145861Y-112038374D03*
X106145861Y-108038374D03*
%TO.N,Net-(U13-B)*%
X102645861Y-114038374D03*
X106645861Y-110538374D03*
%TO.N,Net-(U13-G)*%
X64895861Y-98438374D03*
%TO.N,Net-(U13-C)*%
X64645861Y-126038374D03*
X62145861Y-98838374D03*
%TO.N,Net-(U13-E)*%
X62145861Y-128038374D03*
%TO.N,Net-(U13-dp)*%
X63145861Y-120038374D03*
X54645861Y-120038374D03*
X67645861Y-97938374D03*
%TO.N,Net-(U13-D)*%
X59895861Y-99438374D03*
X63145861Y-127038374D03*
%TO.N,Net-(U31-ISET)*%
X337645861Y-113038374D03*
%TO.N,/5_DIG_0*%
X322645861Y-103038374D03*
%TO.N,/5_DIG_4*%
X326971596Y-102864109D03*
%TO.N,/5_DIG_6*%
X328645861Y-102038374D03*
%TO.N,/5_DIG_2*%
X323645861Y-112038374D03*
%TO.N,/5_DIG_3*%
X328145861Y-113538374D03*
%TO.N,/5_DIG_5*%
X328145861Y-118038374D03*
%TO.N,/5_DIG_1*%
X323645861Y-124538374D03*
%TO.N,Net-(U15-B)*%
X273759798Y-150272966D03*
%TO.N,Net-(U15-E)*%
X333145861Y-108038374D03*
X329145861Y-110038374D03*
%TO.N,Net-(U15-dp)*%
X352645861Y-104038374D03*
%TO.N,/CC2_A*%
X204645861Y-136038374D03*
%TO.N,/NOTE4_B*%
X150645861Y-155938374D03*
%TO.N,Net-(U6-DS)*%
X146645861Y-155038374D03*
%TO.N,/3_DIG_0*%
X218645861Y-126038374D03*
%TO.N,/3_DIG_4*%
X216395861Y-127788374D03*
%TO.N,/3_DIG_2*%
X215145861Y-130538374D03*
%TO.N,/3_DIG_1*%
X213645861Y-141038374D03*
%TO.N,Net-(U22-dp)*%
X237145861Y-120038374D03*
%TO.N,Net-(U22-D)*%
X234645861Y-120038374D03*
%TO.N,/165_ENC_QH*%
X143645861Y-161538374D03*
X204645861Y-179038374D03*
%TD*%
%TO.N,+3V3*%
D19*
X205645861Y-152038374D02*
X198455861Y-152038374D01*
X315145861Y-118038374D02*
X315145861Y-121658374D01*
X311265861Y-114158374D02*
X315145861Y-118038374D01*
X255145861Y-146038374D02*
X255145861Y-149538374D01*
X169145861Y-169538374D02*
X168645861Y-170038374D01*
X285549469Y-130441982D02*
X285645861Y-130538374D01*
X311265861Y-108538374D02*
X311265861Y-114158374D01*
X315145861Y-121658374D02*
X311265861Y-125538374D01*
X182645861Y-165538374D02*
X182645861Y-163027842D01*
X345145861Y-115538374D02*
X331645861Y-129038374D01*
X314145861Y-103538374D02*
X311765861Y-103538374D01*
X182645861Y-163027842D02*
X171946321Y-152328302D01*
X323645861Y-110038374D02*
X323645861Y-100538374D01*
X323645861Y-100538374D02*
X317145861Y-100538374D01*
X351645861Y-115538374D02*
X351645861Y-120038374D01*
X325545861Y-127438374D02*
X325545861Y-111938374D01*
X258145861Y-143038374D02*
X255145861Y-146038374D01*
X174145861Y-169538374D02*
X169145861Y-169538374D01*
X285645861Y-130538374D02*
X280645861Y-135538374D01*
X148645861Y-165038374D02*
X146145861Y-162538374D01*
X278645861Y-143038374D02*
X258145861Y-143038374D01*
X351645861Y-115538374D02*
X345145861Y-115538374D01*
X280645861Y-145038374D02*
X280820126Y-145212639D01*
X280645861Y-135538374D02*
X280645861Y-145038374D01*
X325545861Y-111938374D02*
X323645861Y-110038374D01*
X331645861Y-129038374D02*
X327145861Y-129038374D01*
X280820126Y-145212639D02*
X278645861Y-143038374D01*
X317145861Y-100538374D02*
X314145861Y-103538374D01*
X146145861Y-162538374D02*
X125145861Y-162538374D01*
X206645861Y-153038374D02*
X205645861Y-152038374D01*
X327145861Y-129038374D02*
X325545861Y-127438374D01*
X285407685Y-130441982D02*
X285549469Y-130441982D01*
%TO.N,/VOLUME_A*%
X193645861Y-152538374D02*
X190835861Y-149728374D01*
X191525861Y-154658374D02*
X193645861Y-152538374D01*
X191525861Y-168418374D02*
X191525861Y-154658374D01*
X190835861Y-149728374D02*
X190835861Y-147538374D01*
%TO.N,/CC3_A*%
X323211547Y-130038374D02*
X335145861Y-130038374D01*
X335145861Y-130038374D02*
X335645861Y-129538374D01*
X299946680Y-147386492D02*
X299946680Y-141237555D01*
X315211547Y-138038374D02*
X323211547Y-130038374D01*
X303145861Y-138038374D02*
X315211547Y-138038374D01*
X299946680Y-141237555D02*
X303145861Y-138038374D01*
%TO.N,+5V*%
X208645861Y-158038374D02*
X212145861Y-154538374D01*
X200245861Y-176494009D02*
X200245861Y-175922739D01*
X217645861Y-140038374D02*
X217645861Y-139538374D01*
X286645861Y-157538374D02*
X271994390Y-157538374D01*
X271994390Y-157538374D02*
X268994390Y-160538374D01*
X198985861Y-177754009D02*
X200245861Y-176494009D01*
X212145861Y-154538374D02*
X214645861Y-154538374D01*
X288645861Y-159538374D02*
X286645861Y-157538374D01*
X46645861Y-129038374D02*
X47645861Y-130038374D01*
X206545861Y-173638374D02*
X206645861Y-173538374D01*
X338645861Y-109038374D02*
X338645861Y-104038374D01*
X214645861Y-154538374D02*
X217145861Y-154538374D01*
X217145861Y-154538374D02*
X222645861Y-160038374D01*
X47645861Y-130038374D02*
X47645861Y-152538374D01*
X347145861Y-157538374D02*
X347145861Y-168538374D01*
X338645861Y-104038374D02*
X340645861Y-102038374D01*
X202530226Y-173638374D02*
X206545861Y-173638374D01*
X347145861Y-168538374D02*
X343145861Y-172538374D01*
X343145861Y-172538374D02*
X306645861Y-172538374D01*
X116145861Y-97038374D02*
X116145861Y-104220754D01*
X346645861Y-101538374D02*
X346645861Y-103038374D01*
X345645861Y-102038374D02*
X346645861Y-103038374D01*
X196445861Y-181038374D02*
X194145861Y-181038374D01*
X206645861Y-173538374D02*
X209145861Y-173538374D01*
X344645861Y-99538374D02*
X346645861Y-101538374D01*
X268994390Y-160538374D02*
X259645861Y-160538374D01*
X194145861Y-181538374D02*
X194145861Y-181038374D01*
X200245861Y-175922739D02*
X202530226Y-173638374D01*
X215645861Y-142038374D02*
X217645861Y-140038374D01*
X198985861Y-181038374D02*
X198985861Y-177754009D01*
X53645861Y-158538374D02*
X78145861Y-183038374D01*
X198985861Y-181038374D02*
X196445861Y-181038374D01*
X340645861Y-102038374D02*
X345645861Y-102038374D01*
X192145861Y-183538374D02*
X194145861Y-181538374D01*
X78145861Y-183038374D02*
X154145861Y-183038374D01*
X116145861Y-104220754D02*
X121645861Y-109720754D01*
X259645861Y-160538374D02*
X259145861Y-161038374D01*
%TO.N,Net-(U5-ISET)*%
X37145861Y-127538374D02*
X38145861Y-128538374D01*
X37145861Y-121038374D02*
X37145861Y-127538374D01*
%TO.N,GND*%
X119645861Y-159338374D02*
X120945861Y-158038374D01*
X320705861Y-183438374D02*
X319605861Y-184538374D01*
X153025861Y-168418374D02*
X153145861Y-168538374D01*
X168185861Y-176038374D02*
X162685861Y-170538374D01*
X140645861Y-154038374D02*
X137145861Y-154038374D01*
X342145861Y-98038374D02*
X340645861Y-99538374D01*
X205997745Y-139583112D02*
X204186477Y-139583112D01*
X168145861Y-182538374D02*
X168185861Y-182498374D01*
X184145861Y-152128762D02*
X186446321Y-149828302D01*
X93645861Y-130184093D02*
X93645861Y-132538374D01*
X311985861Y-184538374D02*
X319605861Y-184538374D01*
X201245861Y-121836554D02*
X198239524Y-121836554D01*
X71645861Y-101038374D02*
X71645861Y-98538374D01*
X136145861Y-170038374D02*
X136185861Y-169998374D01*
X136185861Y-169998374D02*
X136185861Y-165658374D01*
X137145861Y-171038374D02*
X136145861Y-170038374D01*
X153145861Y-168538374D02*
X150645861Y-171038374D01*
X205455861Y-182428374D02*
X206605861Y-183578374D01*
X168185861Y-182498374D02*
X168185861Y-176038374D01*
X334645861Y-133038374D02*
X330145861Y-133038374D01*
X108645861Y-149286845D02*
X108645861Y-154538374D01*
X168145861Y-183038374D02*
X168145861Y-182538374D01*
X324685861Y-184538374D02*
X323585861Y-183438374D01*
X102896079Y-143537063D02*
X108645861Y-149286845D01*
X268145861Y-182038374D02*
X266645861Y-180538374D01*
X309445861Y-176918374D02*
X309445861Y-180338374D01*
X107721597Y-121462638D02*
X107645861Y-121538374D01*
X200135861Y-182428374D02*
X205455861Y-182428374D01*
X190145861Y-109785930D02*
X186411422Y-106051491D01*
X202331214Y-141438374D02*
X202245861Y-141438374D01*
X162685861Y-170538374D02*
X154145861Y-170538374D01*
X70445861Y-97338374D02*
X33345861Y-97338374D01*
X250665861Y-181058374D02*
X246685861Y-185038374D01*
X347365861Y-137818374D02*
X347645861Y-137538374D01*
X152945861Y-168418374D02*
X153025861Y-168418374D01*
X154145861Y-170538374D02*
X154145861Y-169618374D01*
X311765861Y-99038374D02*
X313645861Y-99038374D01*
X91389481Y-127927713D02*
X93645861Y-130184093D01*
X200135861Y-182428374D02*
X198985861Y-183578374D01*
X215615861Y-182428374D02*
X216765861Y-183578374D01*
X102827310Y-121653887D02*
X107530348Y-121653887D01*
X201685861Y-176038374D02*
X200135861Y-177588374D01*
X187645861Y-165538374D02*
X187645861Y-157538374D01*
X356645861Y-117578374D02*
X351645861Y-122578374D01*
X210295861Y-182428374D02*
X215615861Y-182428374D01*
X313645861Y-99038374D02*
X317145861Y-95538374D01*
X200496771Y-143187464D02*
X198632004Y-143187464D01*
X309445861Y-180338374D02*
X309645861Y-180538374D01*
X187645861Y-157538374D02*
X184145861Y-154038374D01*
X317145861Y-95538374D02*
X345645861Y-95538374D01*
X349145861Y-125078374D02*
X351645861Y-122578374D01*
X114145861Y-160038374D02*
X119645861Y-160038374D01*
X150645861Y-171038374D02*
X137145861Y-171038374D01*
X154145861Y-169618374D02*
X152945861Y-168418374D01*
X71645861Y-98538374D02*
X70445861Y-97338374D01*
X351645861Y-135278374D02*
X349145861Y-132778374D01*
X349145861Y-132778374D02*
X349145861Y-125078374D01*
X356645861Y-115538374D02*
X356645861Y-117578374D01*
X344025861Y-137818374D02*
X339425861Y-137818374D01*
X339425861Y-137818374D02*
X334645861Y-133038374D01*
X184145861Y-154038374D02*
X184145861Y-152128762D01*
X346645861Y-98038374D02*
X342145861Y-98038374D01*
X209145861Y-183578374D02*
X210295861Y-182428374D01*
X344025861Y-137818374D02*
X347365861Y-137818374D01*
X119645861Y-160038374D02*
X119645861Y-159338374D01*
X200135861Y-177588374D02*
X200135861Y-182428374D01*
X198985861Y-183578374D02*
X196445861Y-183578374D01*
X107530348Y-121653887D02*
X107721597Y-121462638D01*
X280645861Y-182038374D02*
X268145861Y-182038374D01*
X202245861Y-141438374D02*
X200496771Y-143187464D01*
X204186477Y-139583112D02*
X202331214Y-141438374D01*
X218225861Y-185038374D02*
X246685861Y-185038374D01*
X108645861Y-154538374D02*
X114145861Y-160038374D01*
X190145861Y-113742891D02*
X190145861Y-109785930D01*
X33345861Y-97338374D02*
X29645861Y-101038374D01*
X216765861Y-183578374D02*
X218225861Y-185038374D01*
X145645861Y-159038374D02*
X140645861Y-154038374D01*
X323585861Y-183438374D02*
X320705861Y-183438374D01*
X206605861Y-183578374D02*
X209145861Y-183578374D01*
X198239524Y-121836554D02*
X190145861Y-113742891D01*
%TO.N,/NOTE4_A*%
X167645861Y-108538374D02*
X171532744Y-104651491D01*
X150416792Y-155038374D02*
X164645861Y-155038374D01*
X150145861Y-155309305D02*
X150416792Y-155038374D01*
X171532744Y-104651491D02*
X185311422Y-104651491D01*
X185311422Y-104651491D02*
X186411422Y-103551491D01*
X167645861Y-152038374D02*
X167645861Y-108538374D01*
X164645861Y-155038374D02*
X167645861Y-152038374D01*
%TO.N,/NOTE1_B*%
X137645861Y-150538374D02*
X132645861Y-155538374D01*
X126514489Y-136538374D02*
X137645861Y-136538374D01*
X95335861Y-108538374D02*
X98645861Y-108538374D01*
X101914491Y-119438374D02*
X109414489Y-119438374D01*
X137645861Y-136538374D02*
X137645861Y-150538374D01*
X98645861Y-108538374D02*
X100145861Y-110038374D01*
X100145861Y-117669744D02*
X101914491Y-119438374D01*
X109414489Y-119438374D02*
X126514489Y-136538374D01*
X132645861Y-155538374D02*
X131065861Y-155538374D01*
X100145861Y-110038374D02*
X100145861Y-117669744D01*
X131065861Y-155538374D02*
X128565861Y-158038374D01*
%TO.N,/LENGTH_BTN*%
X168645861Y-138038374D02*
X169145861Y-138538374D01*
X170696753Y-125487482D02*
X168645861Y-127538374D01*
X168645861Y-127538374D02*
X168645861Y-138038374D01*
X171935179Y-125487482D02*
X170696753Y-125487482D01*
%TO.N,/CC3_BTN*%
X308145861Y-182538374D02*
X315145861Y-182538374D01*
X304645861Y-179038374D02*
X308145861Y-182538374D01*
X304645861Y-164038374D02*
X304645861Y-179038374D01*
X315145861Y-182538374D02*
X319605861Y-178078374D01*
X303645861Y-143038374D02*
X301645861Y-145038374D01*
X301645861Y-161038374D02*
X304645861Y-164038374D01*
X301645861Y-145038374D02*
X301645861Y-161038374D01*
X319605861Y-178078374D02*
X319605861Y-176918374D01*
%TO.N,/ENV_A*%
X371145861Y-112038374D02*
X371145861Y-110538374D01*
X397607224Y-106038374D02*
X400042712Y-103602886D01*
X366765861Y-112538374D02*
X370645861Y-112538374D01*
X375645861Y-106038374D02*
X397607224Y-106038374D01*
X371145861Y-110538374D02*
X375645861Y-106038374D01*
X351645861Y-127658374D02*
X366765861Y-112538374D01*
X370645861Y-112538374D02*
X371145861Y-112038374D01*
%TO.N,/CC1_A*%
X283284855Y-104677368D02*
X298834317Y-104677368D01*
X201845861Y-137954639D02*
X201845861Y-137375238D01*
X201845861Y-137375238D02*
X202145861Y-137075238D01*
X277145861Y-98538374D02*
X283284855Y-104677368D01*
X202545861Y-106138374D02*
X210645861Y-98038374D01*
X202145861Y-136755530D02*
X202545861Y-136355529D01*
X298834317Y-104677368D02*
X299934317Y-103577368D01*
X277145861Y-98038374D02*
X277145861Y-98538374D01*
X202145861Y-137075238D02*
X202145861Y-136755530D01*
X202545861Y-136355529D02*
X202545861Y-106138374D01*
X210645861Y-98038374D02*
X277145861Y-98038374D01*
%TO.N,/165_BTN_SH{slash}LD*%
X273977231Y-186338374D02*
X273911547Y-186338374D01*
X273811546Y-186438374D02*
X273745861Y-186438374D01*
X160905861Y-186538374D02*
X150405861Y-176038374D01*
X185560075Y-187038374D02*
X184731646Y-187038374D01*
X213797332Y-186538374D02*
X186060075Y-186538374D01*
X184231646Y-186538374D02*
X160905861Y-186538374D01*
X273911547Y-186338374D02*
X273811546Y-186438374D01*
X275777233Y-184538374D02*
X273977231Y-186338374D01*
X214394390Y-186438374D02*
X213897332Y-186438374D01*
X213897332Y-186438374D02*
X213797332Y-186538374D01*
X214494390Y-186538374D02*
X214394390Y-186438374D01*
X273745861Y-186438374D02*
X273645861Y-186538374D01*
X184731646Y-187038374D02*
X184231646Y-186538374D01*
X273645861Y-186538374D02*
X223645861Y-186538374D01*
X186060075Y-186538374D02*
X185560075Y-187038374D01*
X223645861Y-186538374D02*
X214494390Y-186538374D01*
X306905861Y-184538374D02*
X275777233Y-184538374D01*
%TO.N,/165_BTN_CLK*%
X309445861Y-184538374D02*
X306945861Y-187038374D01*
X151645861Y-173538374D02*
X151645861Y-174738374D01*
X223297332Y-187038374D02*
X214145861Y-187038374D01*
X184165960Y-187038374D02*
X159145861Y-187038374D01*
X184565960Y-187438374D02*
X184165960Y-187038374D01*
X280145861Y-185538374D02*
X281645861Y-187038374D01*
X148645861Y-173538374D02*
X151645861Y-173538374D01*
X223994390Y-187038374D02*
X223894390Y-187138374D01*
X281645861Y-187038374D02*
X223994390Y-187038374D01*
X159145861Y-187038374D02*
X147145861Y-175038374D01*
X306945861Y-187038374D02*
X281645861Y-187038374D01*
X186125761Y-187038374D02*
X185725760Y-187438374D01*
X276145861Y-185538374D02*
X280145861Y-185538374D01*
X223397332Y-187138374D02*
X223297332Y-187038374D01*
X223894390Y-187138374D02*
X223397332Y-187138374D01*
X147145861Y-175038374D02*
X148645861Y-173538374D01*
X151645861Y-174738374D02*
X152945861Y-176038374D01*
X185725760Y-187438374D02*
X184565960Y-187438374D01*
X214145861Y-187038374D02*
X186125761Y-187038374D01*
%TO.N,/VOLUME_BTN*%
X174395861Y-166788374D02*
X170145861Y-162538374D01*
X170145861Y-162538374D02*
X170145861Y-148038374D01*
X170145861Y-148038374D02*
X170855933Y-147328302D01*
X170855933Y-147328302D02*
X171946321Y-147328302D01*
%TO.N,/CC1_BTN*%
X200471596Y-137864109D02*
X202145861Y-136189844D01*
X202145861Y-105972688D02*
X210480176Y-97638374D01*
X210480176Y-97638374D02*
X211045861Y-97638374D01*
X211145861Y-97538374D02*
X277645861Y-97538374D01*
X211045861Y-97638374D02*
X211145861Y-97538374D01*
X277645861Y-97538374D02*
X283684855Y-103577368D01*
X283684855Y-103577368D02*
X285434317Y-103577368D01*
X202145861Y-136189844D02*
X202145861Y-105972688D01*
%TO.N,/CC2_BTN*%
X185145861Y-173038374D02*
X204145861Y-173038374D01*
X203345861Y-133238374D02*
X203645861Y-133538374D01*
X210777233Y-99038374D02*
X203345861Y-106469746D01*
X285311293Y-125538374D02*
X285145861Y-125538374D01*
X282145861Y-105538374D02*
X275645861Y-99038374D01*
X275645861Y-99038374D02*
X210777233Y-99038374D01*
X285407685Y-125441982D02*
X285311293Y-125538374D01*
X203345861Y-106469746D02*
X203345861Y-133238374D01*
X285145861Y-125538374D02*
X282145861Y-122538374D01*
X282145861Y-122538374D02*
X282145861Y-105538374D01*
X203645861Y-133538374D02*
X203645861Y-136038374D01*
%TO.N,/165_BTN_QH*%
X211145861Y-162038374D02*
X192645861Y-162038374D01*
X171765861Y-168418374D02*
X168185861Y-168418374D01*
X172145861Y-168038374D02*
X171765861Y-168418374D01*
%TO.N,Net-(U10-Q7)*%
X316510225Y-183538374D02*
X315081493Y-183538373D01*
X273645861Y-186038374D02*
X223994390Y-186038374D01*
X223397332Y-185938374D02*
X223297332Y-186038374D01*
X311530226Y-183438374D02*
X311430223Y-183538374D01*
X307790602Y-183538373D02*
X307690605Y-183438374D01*
X305521116Y-184038374D02*
X275711547Y-184038374D01*
X184545861Y-186038374D02*
X177145861Y-186038374D01*
X171645861Y-180538374D02*
X171645861Y-173038374D01*
X273745861Y-185938374D02*
X273645861Y-186038374D01*
X185780175Y-186038374D02*
X185745861Y-186004060D01*
X324685861Y-176918374D02*
X318065860Y-183538374D01*
X184545861Y-186286903D02*
X184545861Y-186038374D01*
X185745861Y-186004060D02*
X185745861Y-186286903D01*
X308990226Y-183438374D02*
X308890225Y-183538374D01*
X275711547Y-184038374D02*
X273811546Y-185938374D01*
X223894390Y-185938374D02*
X223397332Y-185938374D01*
X185745861Y-186286903D02*
X185394390Y-186638374D01*
X318065860Y-183538374D02*
X317621493Y-183538373D01*
X310001496Y-183538374D02*
X309901496Y-183438374D01*
X171645861Y-173038374D02*
X170265861Y-173038374D01*
X312541493Y-183538373D02*
X312441496Y-183438374D01*
X314981496Y-183438374D02*
X314070226Y-183438374D01*
X316610226Y-183438374D02*
X316510225Y-183538374D01*
X317521496Y-183438374D02*
X316610226Y-183438374D01*
X312441496Y-183438374D02*
X311530226Y-183438374D01*
X306121117Y-183438374D02*
X305521116Y-184038374D01*
X184897332Y-186638374D02*
X184545861Y-186286903D01*
X308890225Y-183538374D02*
X307790602Y-183538373D01*
X223297332Y-186038374D02*
X185780175Y-186038374D01*
X315081493Y-183538373D02*
X314981496Y-183438374D01*
X313970225Y-183538374D02*
X312541493Y-183538373D01*
X170265861Y-173038374D02*
X165645861Y-168418374D01*
X273811546Y-185938374D02*
X273745861Y-185938374D01*
X177145861Y-186038374D02*
X171645861Y-180538374D01*
X307690605Y-183438374D02*
X306121117Y-183438374D01*
X185394390Y-186638374D02*
X184897332Y-186638374D01*
X309901496Y-183438374D02*
X308990226Y-183438374D01*
X223994390Y-186038374D02*
X223894390Y-185938374D01*
X314070226Y-183438374D02*
X313970225Y-183538374D01*
X317621493Y-183538373D02*
X317521496Y-183438374D01*
X311430223Y-183538374D02*
X310001496Y-183538374D01*
%TO.N,/NOTE1_BTN*%
X126645861Y-135538374D02*
X138145861Y-135538374D01*
X146045861Y-157438374D02*
X151145861Y-162538374D01*
X138145861Y-135538374D02*
X146045861Y-143438375D01*
X158145861Y-162538374D02*
X158145861Y-163458374D01*
X95335861Y-100538374D02*
X101045861Y-106248374D01*
X102245861Y-118638374D02*
X109545861Y-118638374D01*
X158145861Y-163458374D02*
X163105861Y-168418374D01*
X146045861Y-143438375D02*
X146045861Y-157438374D01*
X101045861Y-106248374D02*
X101045861Y-117438374D01*
X109545861Y-118638374D02*
X109645861Y-118538374D01*
X101045861Y-117438374D02*
X102245861Y-118638374D01*
X109645861Y-118538374D02*
X126645861Y-135538374D01*
X151145861Y-162538374D02*
X158145861Y-162538374D01*
%TO.N,/NOTE2_BTN*%
X145645861Y-157604060D02*
X151080175Y-163038374D01*
X95207310Y-121653887D02*
X96822823Y-120038374D01*
X140580175Y-138538374D02*
X145645861Y-143604060D01*
X96822823Y-120038374D02*
X109448803Y-120038374D01*
X157745861Y-163038374D02*
X157745861Y-163624060D01*
X145645861Y-143604060D02*
X145645861Y-157604060D01*
X158145861Y-165998374D02*
X160565861Y-168418374D01*
X136145861Y-137038374D02*
X136645861Y-137538374D01*
X126448803Y-137038374D02*
X136145861Y-137038374D01*
X138645861Y-138538374D02*
X140580175Y-138538374D01*
X157745861Y-163624060D02*
X158145861Y-164024060D01*
X158145861Y-164024060D02*
X158145861Y-165998374D01*
X109448803Y-120038374D02*
X126448803Y-137038374D01*
X151080175Y-163038374D02*
X157745861Y-163038374D01*
%TO.N,/NOTE3_BTN*%
X144245861Y-161786903D02*
X144245861Y-161538374D01*
X110594242Y-161538374D02*
X143045861Y-161538374D01*
X157145861Y-163538374D02*
X157345861Y-163738374D01*
X143397332Y-162138374D02*
X143894390Y-162138374D01*
X149014489Y-161538374D02*
X151014489Y-163538374D01*
X151014489Y-163538374D02*
X157145861Y-163538374D01*
X95276079Y-143537063D02*
X95276079Y-146220211D01*
X157745861Y-166164060D02*
X158025861Y-166444060D01*
X143045861Y-161786903D02*
X143397332Y-162138374D01*
X144245861Y-161538374D02*
X149014489Y-161538374D01*
X157745861Y-164189746D02*
X157745861Y-166164060D01*
X143894390Y-162138374D02*
X144245861Y-161786903D01*
X157345861Y-163738374D02*
X157345861Y-163789746D01*
X95276079Y-146220211D02*
X110594242Y-161538374D01*
X157345861Y-163789746D02*
X157745861Y-164189746D01*
X143045861Y-161538374D02*
X143045861Y-161786903D01*
X158025861Y-166444060D02*
X158025861Y-168418374D01*
%TO.N,/NOTE4_BTN*%
X167145861Y-149538374D02*
X167145861Y-108317052D01*
X167045861Y-149638374D02*
X167145861Y-149538374D01*
X167145861Y-108317052D02*
X171911422Y-103551491D01*
X167045861Y-151038374D02*
X167045861Y-149638374D01*
%TO.N,/165_ENC_SH{slash}LD*%
X337145861Y-132538374D02*
X339145861Y-130538374D01*
X327145861Y-138538374D02*
X327145861Y-132538374D01*
X205260126Y-178152639D02*
X216420126Y-178152639D01*
X339145861Y-124918374D02*
X344025861Y-120038374D01*
X316145861Y-139038374D02*
X326645861Y-139038374D01*
X326645861Y-139038374D02*
X327145861Y-138538374D01*
X311145861Y-156538374D02*
X316145861Y-151538374D01*
X335445861Y-130838374D02*
X337145861Y-132538374D01*
X327145861Y-132538374D02*
X328845861Y-130838374D01*
X183905861Y-183798374D02*
X183905861Y-176038374D01*
X328845861Y-130838374D02*
X335445861Y-130838374D01*
X316145861Y-151538374D02*
X316145861Y-139038374D01*
X339145861Y-130538374D02*
X339145861Y-124918374D01*
X308145861Y-156538374D02*
X311145861Y-156538374D01*
X216420126Y-178152639D02*
X219305861Y-181038374D01*
X185145861Y-185038374D02*
X183905861Y-183798374D01*
%TO.N,/165_ENC_CLK*%
X339545861Y-130704060D02*
X339545861Y-127058374D01*
X335280175Y-131238374D02*
X336980175Y-132938374D01*
X308645861Y-157538374D02*
X311145861Y-157538374D01*
X327545861Y-132838374D02*
X329145861Y-131238374D01*
X339545861Y-127058374D02*
X344025861Y-122578374D01*
X206145861Y-177538374D02*
X221145861Y-177538374D01*
X221145861Y-177538374D02*
X221145861Y-181738374D01*
X186445861Y-184738374D02*
X186445861Y-176038374D01*
X316645861Y-152038374D02*
X316645861Y-139538374D01*
X329145861Y-131238374D02*
X335280175Y-131238374D01*
X311145861Y-157538374D02*
X316645861Y-152038374D01*
X221145861Y-181738374D02*
X219305861Y-183578374D01*
X327145861Y-139538374D02*
X327545861Y-139138374D01*
X327545861Y-139138374D02*
X327545861Y-132838374D01*
X185145861Y-186038374D02*
X186445861Y-184738374D01*
X337311547Y-132938374D02*
X339545861Y-130704060D01*
X316645861Y-139538374D02*
X327145861Y-139538374D01*
X336980175Y-132938374D02*
X337311547Y-132938374D01*
%TO.N,/PC_A*%
X363645861Y-118638374D02*
X363745861Y-118538374D01*
X363745861Y-118538374D02*
X381955861Y-118538374D01*
X381955861Y-118538374D02*
X383455861Y-120038374D01*
%TO.N,/PC_B*%
X384555861Y-119582739D02*
X394221496Y-119582739D01*
X383011496Y-118038374D02*
X384555861Y-119582739D01*
X394221496Y-119582739D02*
X396265861Y-117538374D01*
X363397332Y-118038374D02*
X383011496Y-118038374D01*
X362294390Y-118389845D02*
X363045861Y-118389845D01*
X363045861Y-118389845D02*
X363397332Y-118038374D01*
X362145861Y-118538374D02*
X362294390Y-118389845D01*
%TO.N,/TRIGGER_A*%
X382145861Y-140538374D02*
X377145861Y-135538374D01*
X383265861Y-140538374D02*
X382145861Y-140538374D01*
X349145861Y-135318374D02*
X344025861Y-130198374D01*
X377145861Y-129038374D02*
X375145861Y-127038374D01*
X377145861Y-135538374D02*
X377145861Y-129038374D01*
X375145861Y-127038374D02*
X356145861Y-127038374D01*
X356145861Y-127038374D02*
X354145861Y-129038375D01*
X353645861Y-140372689D02*
X353645861Y-140538374D01*
X353645861Y-140538374D02*
X349145861Y-140538374D01*
X354145861Y-129038375D02*
X354145861Y-139872688D01*
X349145861Y-140538374D02*
X349145861Y-135318374D01*
X354145861Y-139872688D02*
X353645861Y-140372689D01*
%TO.N,/TRIGGER_B*%
X354095861Y-140538374D02*
X354045861Y-140588374D01*
X356211547Y-127538374D02*
X354545861Y-129204060D01*
X376645861Y-135604059D02*
X376645861Y-135538374D01*
X393347285Y-152305483D02*
X376645861Y-135604059D01*
X354045861Y-140588374D02*
X354045861Y-140704059D01*
X354545861Y-129204060D02*
X354545861Y-140038374D01*
X400081707Y-152305483D02*
X393347285Y-152305483D01*
X354095861Y-140488374D02*
X354095861Y-140538374D01*
X354045861Y-140704059D02*
X353811546Y-140938374D01*
X375080175Y-127538374D02*
X356211547Y-127538374D01*
X376745861Y-135438374D02*
X376745861Y-129204060D01*
X348980176Y-140938374D02*
X348645861Y-140604059D01*
X348745861Y-137458374D02*
X344025861Y-132738374D01*
X348645861Y-140604059D02*
X348645861Y-140538374D01*
X376745861Y-129204060D02*
X375080175Y-127538374D01*
X376645861Y-135538374D02*
X376745861Y-135438374D01*
X348645861Y-140538374D02*
X348745861Y-140438374D01*
X353811546Y-140938374D02*
X348980176Y-140938374D01*
X354545861Y-140038374D02*
X354095861Y-140488374D01*
X348745861Y-140438374D02*
X348745861Y-137458374D01*
%TO.N,Net-(U7-DS)*%
X289559569Y-159624666D02*
X289645861Y-159538374D01*
X288894390Y-160138374D02*
X289245861Y-159786903D01*
X301045861Y-159938374D02*
X301045861Y-158538374D01*
X288045861Y-159786903D02*
X288397332Y-160138374D01*
X300645861Y-159538374D02*
X301045861Y-159938374D01*
X289245861Y-159624666D02*
X289559569Y-159624666D01*
X277645861Y-164538374D02*
X281645861Y-160538374D01*
X327145861Y-140038374D02*
X327245861Y-139938374D01*
X336145861Y-132669746D02*
X336145861Y-133538374D01*
X335114489Y-131638374D02*
X336145861Y-132669746D01*
X288397332Y-160138374D02*
X288894390Y-160138374D01*
X281645861Y-160538374D02*
X286797333Y-160538374D01*
X199145861Y-168418374D02*
X200645861Y-166918374D01*
X222645861Y-166038374D02*
X236145861Y-179538374D01*
X289245861Y-159786903D02*
X289245861Y-159624666D01*
X287711041Y-159624666D02*
X288045861Y-159624666D01*
X327945861Y-133004060D02*
X329311547Y-131638374D01*
X277645861Y-179038374D02*
X277645861Y-164538374D01*
X277145861Y-179538374D02*
X277645861Y-179038374D01*
X327245861Y-139938374D02*
X327311546Y-139938374D01*
X317145861Y-140038374D02*
X327145861Y-140038374D01*
X288045861Y-159624666D02*
X288045861Y-159786903D01*
X289645861Y-159538374D02*
X300645861Y-159538374D01*
X200645861Y-166918374D02*
X200645861Y-166038374D01*
X329311547Y-131638374D02*
X335114489Y-131638374D01*
X327945861Y-139304060D02*
X327945861Y-133004060D01*
X308080174Y-158138374D02*
X311545861Y-158138374D01*
X200645861Y-166038374D02*
X222645861Y-166038374D01*
X311545861Y-158138374D02*
X317145861Y-152538374D01*
X236145861Y-179538374D02*
X277145861Y-179538374D01*
X317145861Y-152538374D02*
X317145861Y-140038374D01*
X327311546Y-139938374D02*
X327945861Y-139304060D01*
X286797333Y-160538374D02*
X287711041Y-159624666D01*
%TO.N,/CC3_B*%
X299946680Y-152386492D02*
X301046680Y-151286492D01*
X301046680Y-140703241D02*
X303178704Y-138571217D01*
X301046680Y-151286492D02*
X301046680Y-140703241D01*
X315244390Y-138571217D02*
X323377233Y-130438374D01*
X323377233Y-130438374D02*
X336645861Y-130438374D01*
X303178704Y-138571217D02*
X315244390Y-138571217D01*
%TO.N,/ENV_B*%
X401145861Y-107499737D02*
X401145861Y-102038374D01*
X395045861Y-105638374D02*
X375045861Y-105638374D01*
X353565861Y-125118374D02*
X351645861Y-125118374D01*
X375045861Y-105638374D02*
X370613018Y-110071217D01*
X370613018Y-112005531D02*
X366678704Y-112005531D01*
X398645861Y-102038374D02*
X395045861Y-105638374D01*
X366678704Y-112005531D02*
X353565861Y-125118374D01*
X370613018Y-110071217D02*
X370613018Y-112005531D01*
X401145861Y-102038374D02*
X398645861Y-102038374D01*
X400042712Y-108602886D02*
X401145861Y-107499737D01*
%TO.N,/NOTE3_B*%
X95335861Y-152038374D02*
X102335861Y-159038374D01*
X114045861Y-167938374D02*
X123745861Y-167938374D01*
X123745861Y-167938374D02*
X126025861Y-165658374D01*
X105145861Y-159038374D02*
X114045861Y-167938374D01*
X102335861Y-159038374D02*
X105145861Y-159038374D01*
%TO.N,/NOTE2_A*%
X131145861Y-152918374D02*
X126025861Y-158038374D01*
X95145861Y-126038374D02*
X106645861Y-137538374D01*
X106645861Y-137538374D02*
X131145861Y-137538374D01*
X131145861Y-137538374D02*
X131145861Y-152918374D01*
%TO.N,Net-(U29-ISET)*%
X218645861Y-142038374D02*
X217145861Y-143538374D01*
X219645861Y-133038374D02*
X218645861Y-134038374D01*
X218645861Y-134038374D02*
X218645861Y-142038374D01*
%TO.N,/LENGTH_A*%
X201245861Y-139438374D02*
X200745861Y-139438374D01*
X187645861Y-129038374D02*
X190645861Y-126038374D01*
X200645861Y-139538374D02*
X188645861Y-139538374D01*
X188645861Y-139538374D02*
X187645861Y-138538374D01*
X187645861Y-138538374D02*
X187645861Y-129038374D01*
X200745861Y-139438374D02*
X200645861Y-139538374D01*
%TO.N,/CC1_B*%
X202945861Y-106304060D02*
X210811547Y-98438374D01*
X210811547Y-98438374D02*
X235045861Y-98438374D01*
X235145861Y-98538374D02*
X276145861Y-98538374D01*
X235045861Y-98438374D02*
X235145861Y-98538374D01*
X202745861Y-136721214D02*
X202945861Y-136521214D01*
X202945861Y-136521214D02*
X202945861Y-106304060D01*
X276145861Y-98538374D02*
X282684855Y-105077368D01*
X282684855Y-105077368D02*
X296645861Y-105077368D01*
X296645861Y-105077368D02*
X296645861Y-105288912D01*
X202745861Y-137031121D02*
X202745861Y-136721214D01*
X296645861Y-105288912D02*
X299934317Y-108577368D01*
%TO.N,/NOTE1_A*%
X95335861Y-104538374D02*
X100645861Y-109848374D01*
X138045861Y-136372689D02*
X138045861Y-143438374D01*
X131245861Y-136138374D02*
X137811546Y-136138374D01*
X126580175Y-136038374D02*
X131145861Y-136038374D01*
X138145861Y-143538374D02*
X138145861Y-150998374D01*
X137811546Y-136138374D02*
X138045861Y-136372689D01*
X138145861Y-150998374D02*
X131105861Y-158038374D01*
X109580175Y-119038374D02*
X126580175Y-136038374D01*
X131145861Y-136038374D02*
X131245861Y-136138374D01*
X138045861Y-143438374D02*
X138145861Y-143538374D01*
X100645861Y-109848374D02*
X100645861Y-117604058D01*
X100645861Y-117604058D02*
X102080176Y-119038374D01*
X102080176Y-119038374D02*
X109580175Y-119038374D01*
%TO.N,/LENGTH_B*%
X190645861Y-138538374D02*
X190645861Y-130038374D01*
X200773024Y-138605152D02*
X200579083Y-138605152D01*
X200145861Y-139038374D02*
X191145861Y-139038374D01*
X200579083Y-138605152D02*
X200145861Y-139038374D01*
X191145861Y-139038374D02*
X190645861Y-138538374D01*
%TO.N,Net-(U28-DOUT)*%
X152145861Y-97538374D02*
X207645861Y-97538374D01*
X250645861Y-170538374D02*
X246145861Y-175038374D01*
X139645861Y-110038374D02*
X152145861Y-97538374D01*
X250645861Y-106538374D02*
X250645861Y-170538374D01*
X249145861Y-105038374D02*
X250645861Y-106538374D01*
X139645861Y-114538374D02*
X139645861Y-110038374D01*
%TO.N,/4_DIG_0*%
X251145861Y-173038374D02*
X249145861Y-175038374D01*
X251145861Y-119703952D02*
X251145861Y-173038374D01*
X261026997Y-109822816D02*
X251145861Y-119703952D01*
%TO.N,/4_DIG_4*%
X268010120Y-131674115D02*
X268703586Y-131674115D01*
X254345861Y-164738374D02*
X253345861Y-163738374D01*
X253345861Y-146338374D02*
X268010120Y-131674115D01*
X254345861Y-166238374D02*
X254345861Y-164738374D01*
X253345861Y-163738374D02*
X253345861Y-146338374D01*
%TO.N,/4_DIG_2*%
X271186997Y-109822816D02*
X268438596Y-112571217D01*
X268438596Y-112571217D02*
X259678704Y-112571217D01*
X252145861Y-120104060D02*
X252145861Y-172472688D01*
X259678704Y-112571217D02*
X252145861Y-120104060D01*
X258645861Y-173038374D02*
X259145861Y-172538374D01*
X252711547Y-173038374D02*
X258645861Y-173038374D01*
X252145861Y-172472688D02*
X252711547Y-173038374D01*
%TO.N,/4_DIG_3*%
X252545861Y-168438374D02*
X255145861Y-171038374D01*
X252545861Y-140211840D02*
X252545861Y-168438374D01*
X261145861Y-171038374D02*
X261645861Y-171538374D01*
X255145861Y-171038374D02*
X261145861Y-171038374D01*
X261083586Y-131674115D02*
X252545861Y-140211840D01*
%TO.N,/4_DIG_5*%
X271645861Y-169538374D02*
X271645861Y-165038374D01*
X271243586Y-131674115D02*
X271243586Y-131636099D01*
X253745861Y-146504060D02*
X267211547Y-133038374D01*
X271243586Y-131636099D02*
X271145861Y-131538374D01*
X271645861Y-165038374D02*
X255645861Y-165038374D01*
X268645861Y-172538374D02*
X271645861Y-169538374D01*
X267211547Y-133038374D02*
X269879327Y-133038374D01*
X253745861Y-163138374D02*
X253745861Y-146504060D01*
X255645861Y-165038374D02*
X253745861Y-163138374D01*
X269879327Y-133038374D02*
X271243586Y-131674115D01*
%TO.N,/4_DIG_1*%
X266431439Y-112038374D02*
X259645861Y-112038374D01*
X252645861Y-173538374D02*
X270645861Y-173538374D01*
X268646997Y-109822816D02*
X266431439Y-112038374D01*
X251645861Y-172538374D02*
X252645861Y-173538374D01*
X251645861Y-120038374D02*
X251645861Y-172538374D01*
X259645861Y-112038374D02*
X251645861Y-120038374D01*
%TO.N,/MAX_LOAD*%
X326145861Y-124538374D02*
X329645861Y-128038374D01*
X327245861Y-151038374D02*
X327145861Y-151038374D01*
X208145861Y-146538374D02*
X207645861Y-146038374D01*
X113178704Y-168071217D02*
X113613018Y-168071217D01*
X326145861Y-123538374D02*
X326145861Y-124538374D01*
X124145861Y-178604060D02*
X124145861Y-181538374D01*
X310145861Y-169538374D02*
X313645861Y-169538374D01*
X328645861Y-149638374D02*
X327245861Y-151038374D01*
X329645861Y-128038374D02*
X330145861Y-128038374D01*
X281545861Y-181038374D02*
X281645861Y-180938374D01*
X208145861Y-155538374D02*
X208145861Y-146538374D01*
X110145861Y-154538374D02*
X110145861Y-146538374D01*
X105545861Y-161038374D02*
X106145861Y-161038374D01*
X207645861Y-175038374D02*
X212145861Y-175038374D01*
X278145861Y-181038374D02*
X281545861Y-181038374D01*
X110145861Y-146538374D02*
X114145861Y-142538374D01*
X106145861Y-161038374D02*
X113178704Y-168071217D01*
X113613018Y-168071217D02*
X124145861Y-178604060D01*
X104645861Y-160138374D02*
X105545861Y-161038374D01*
%TO.N,/MAX_CLK*%
X244645861Y-148538374D02*
X228145861Y-148538374D01*
X247645861Y-151538374D02*
X244645861Y-148538374D01*
X329645861Y-150038374D02*
X328645861Y-151038374D01*
X306645861Y-168538374D02*
X309405861Y-171298374D01*
X208645861Y-161038374D02*
X224645861Y-161038374D01*
X228145861Y-148538374D02*
X225145861Y-145538374D01*
X247645861Y-155538374D02*
X247645861Y-151538374D01*
X227645861Y-155538374D02*
X247645861Y-155538374D01*
X224645861Y-161038374D02*
X224645861Y-158538374D01*
X252145861Y-176038374D02*
X239645861Y-176038374D01*
X253145861Y-175038374D02*
X252145861Y-176038374D01*
X239645861Y-176038374D02*
X224645861Y-161038374D01*
X224645861Y-158538374D02*
X227645861Y-155538374D01*
X328645861Y-151038374D02*
X328145861Y-151038374D01*
X111645861Y-153538374D02*
X122645861Y-142538374D01*
X281145861Y-159538374D02*
X286645861Y-159538374D01*
X309405861Y-171298374D02*
X334385861Y-171298374D01*
X122645861Y-142538374D02*
X129645861Y-142538374D01*
%TO.N,Net-(U21-A)*%
X269645861Y-167038374D02*
X270645861Y-166038374D01*
X254145861Y-167038374D02*
X269645861Y-167038374D01*
X252945861Y-142351840D02*
X252945861Y-165838374D01*
X252945861Y-165838374D02*
X254145861Y-167038374D01*
X263623586Y-131674115D02*
X252945861Y-142351840D01*
%TO.N,Net-(U21-F)*%
X260145861Y-160038374D02*
X255145861Y-155038374D01*
X266645861Y-160038374D02*
X260145861Y-160038374D01*
X268145861Y-158538374D02*
X266645861Y-160038374D01*
X255145861Y-155038374D02*
X255145861Y-153038374D01*
%TO.N,Net-(U21-B)*%
X264145861Y-159038374D02*
X262645861Y-157538374D01*
X262645861Y-157538374D02*
X260645861Y-157538374D01*
X260645861Y-157538374D02*
X256145861Y-153038374D01*
%TO.N,Net-(U21-E)*%
X255145861Y-156038374D02*
X254645861Y-155538374D01*
X255145861Y-159538374D02*
X255145861Y-156038374D01*
%TO.N,Net-(U29-DIN)*%
X249145861Y-114038374D02*
X230645861Y-114038374D01*
X247645861Y-159538374D02*
X250145861Y-157038374D01*
X250145861Y-157038374D02*
X250145861Y-115538374D01*
X249145861Y-114538374D02*
X249145861Y-114038374D01*
X250145861Y-115538374D02*
X249145861Y-114538374D01*
%TO.N,/CC2_B*%
X204645861Y-134538374D02*
X205145861Y-135038374D01*
X196605861Y-176038374D02*
X196645861Y-176038374D01*
X204645861Y-133038374D02*
X204645861Y-134538374D01*
X204145861Y-132538374D02*
X204645861Y-133038374D01*
X281145861Y-124038374D02*
X281145861Y-106038374D01*
X196645861Y-176038374D02*
X196605861Y-176078374D01*
X281145861Y-106038374D02*
X275145861Y-100038374D01*
X299907685Y-130441982D02*
X297004077Y-127538374D01*
X297004077Y-127538374D02*
X284645861Y-127538374D01*
X275145861Y-99838374D02*
X211311547Y-99838374D01*
X211311547Y-99838374D02*
X204145861Y-107004060D01*
X204145861Y-107004060D02*
X204145861Y-132538374D01*
X284645861Y-127538374D02*
X281145861Y-124038374D01*
X275145861Y-100038374D02*
X275145861Y-99838374D01*
%TO.N,Net-(U31-DOUT)*%
X330645861Y-141538374D02*
X333645861Y-138538374D01*
X333645861Y-138538374D02*
X333645861Y-134538374D01*
X326145861Y-102538374D02*
X329145861Y-99538374D01*
X327145861Y-123538374D02*
X327145861Y-114886903D01*
X326145861Y-113189845D02*
X326145861Y-102538374D01*
X325145861Y-141538374D02*
X330645861Y-141538374D01*
X331145861Y-127538374D02*
X327145861Y-123538374D01*
X327145861Y-114886903D02*
X326045861Y-113786903D01*
X326045861Y-113289845D02*
X326145861Y-113189845D01*
X326045861Y-113786903D02*
X326045861Y-113289845D01*
%TO.N,/6_DIG_0*%
X361023741Y-137160494D02*
X354645861Y-143538374D01*
X354645861Y-143538374D02*
X323145861Y-143538374D01*
X361023741Y-131699633D02*
X361023741Y-137160494D01*
%TO.N,/6_DIG_4*%
X363770898Y-153587661D02*
X362221611Y-152038374D01*
X323645861Y-152038374D02*
X323145861Y-152538374D01*
X362221611Y-152038374D02*
X323645861Y-152038374D01*
%TO.N,/6_DIG_6*%
X368850898Y-145967661D02*
X368716574Y-145967661D01*
X368716574Y-145967661D02*
X365645861Y-149038374D01*
X324645861Y-149038374D02*
X324645861Y-149538374D01*
X365645861Y-149038374D02*
X324645861Y-149038374D01*
X324645861Y-149538374D02*
X322645861Y-151538374D01*
%TO.N,/6_DIG_2*%
X321145861Y-149038374D02*
X321145861Y-152538374D01*
X358645861Y-144538374D02*
X325994390Y-144538374D01*
X325994390Y-144538374D02*
X324494390Y-146038374D01*
X324145861Y-146038374D02*
X321145861Y-149038374D01*
X371183741Y-131699633D02*
X371183741Y-132000494D01*
X371183741Y-132000494D02*
X358645861Y-144538374D01*
X324494390Y-146038374D02*
X324145861Y-146038374D01*
%TO.N,/6_DIG_3*%
X325596574Y-153587661D02*
X322645861Y-156538374D01*
X356150898Y-153587661D02*
X325596574Y-153587661D01*
%TO.N,/6_DIG_5*%
X326645861Y-155538374D02*
X323645861Y-158538374D01*
X323645861Y-158538374D02*
X323645861Y-164038374D01*
X364360185Y-155538374D02*
X326645861Y-155538374D01*
X366310898Y-153587661D02*
X364360185Y-155538374D01*
%TO.N,/6_DIG_1*%
X325745861Y-143938374D02*
X356405000Y-143938374D01*
X356405000Y-143938374D02*
X368643741Y-131699633D01*
X325145861Y-144538374D02*
X325745861Y-143938374D01*
%TO.N,Net-(U26-A)*%
X340145861Y-160538374D02*
X340645861Y-160038374D01*
X340145861Y-162538374D02*
X340145861Y-160538374D01*
%TO.N,Net-(U26-F)*%
X341145861Y-162538374D02*
X341145861Y-161538374D01*
X340145861Y-163538374D02*
X341145861Y-162538374D01*
X341145861Y-161538374D02*
X341645861Y-161038374D01*
%TO.N,/MAX_DOUT*%
X235980175Y-179938374D02*
X232080175Y-176038374D01*
X277311546Y-179938374D02*
X235980175Y-179938374D01*
X317645861Y-148189845D02*
X323297332Y-142538374D01*
X309145861Y-159038374D02*
X311645861Y-159038374D01*
X232080175Y-176038374D02*
X206145861Y-176038374D01*
X278045861Y-179204060D02*
X277311546Y-179938374D01*
X317645861Y-153038374D02*
X317645861Y-148189845D01*
X280645861Y-164538374D02*
X278145861Y-167038374D01*
X323297332Y-142538374D02*
X331145861Y-142538374D01*
X278045861Y-178004059D02*
X278045861Y-179204060D01*
X311645861Y-159038374D02*
X317645861Y-153038374D01*
X206145861Y-176418374D02*
X201525861Y-181038374D01*
X278145861Y-177938374D02*
X278045861Y-178038374D01*
X278145861Y-167038374D02*
X278145861Y-177938374D01*
X206145861Y-176038374D02*
X206145861Y-176418374D01*
%TO.N,/ENV_BTN*%
X388477231Y-161038374D02*
X388311546Y-160872689D01*
X334645861Y-174538374D02*
X319445861Y-174538374D01*
X369945861Y-180369746D02*
X367277233Y-183038374D01*
X388311546Y-160872689D02*
X384877232Y-160872689D01*
X376461349Y-103602886D02*
X376145861Y-103918374D01*
X400645861Y-161038374D02*
X388477231Y-161038374D01*
X384877232Y-160872689D02*
X369945861Y-175804060D01*
X343145861Y-183038374D02*
X334645861Y-174538374D01*
X385542712Y-103602886D02*
X396515663Y-103602886D01*
X396515663Y-103602886D02*
X398480176Y-101638374D01*
X369945861Y-175804060D02*
X369945861Y-180369746D01*
X401645861Y-160038374D02*
X400645861Y-161038374D01*
X401311546Y-101638374D02*
X401645861Y-101972689D01*
X367277233Y-183038374D02*
X343145861Y-183038374D01*
X401645861Y-101972689D02*
X401645861Y-160038374D01*
X385542712Y-103602886D02*
X376461349Y-103602886D01*
X319445861Y-174538374D02*
X317065861Y-176918374D01*
X398480176Y-101638374D02*
X401311546Y-101638374D01*
%TO.N,Net-(J14-Pin_13)*%
X312607182Y-183038374D02*
X312707181Y-183138374D01*
X310067182Y-183038374D02*
X310167182Y-183138374D01*
X318645861Y-180418374D02*
X322145861Y-176918374D01*
X308724540Y-183138374D02*
X308824541Y-183038374D01*
X313804540Y-183138374D02*
X313904541Y-183038374D01*
X305955432Y-183038374D02*
X307856291Y-183038374D01*
X310167182Y-183138374D02*
X311264540Y-183138374D01*
X308824541Y-183038374D02*
X310067182Y-183038374D01*
X315247181Y-183138374D02*
X316344540Y-183138374D01*
X307856291Y-183038374D02*
X307956290Y-183138374D01*
X305355431Y-183638374D02*
X305955432Y-183038374D01*
X312707181Y-183138374D02*
X313804540Y-183138374D01*
X211685861Y-183578374D02*
X213645861Y-185538374D01*
X307956290Y-183138374D02*
X308724540Y-183138374D01*
X316444541Y-183038374D02*
X317687182Y-183038374D01*
X277980176Y-183638374D02*
X305355431Y-183638374D01*
X317687182Y-183038374D02*
X317787181Y-183138374D01*
X275645861Y-183538374D02*
X277880176Y-183538374D01*
X315147182Y-183038374D02*
X315247181Y-183138374D01*
X277880176Y-183538374D02*
X277980176Y-183638374D01*
X311264540Y-183138374D02*
X311364541Y-183038374D01*
X318645861Y-182392688D02*
X318645861Y-180418374D01*
X316344540Y-183138374D02*
X316444541Y-183038374D01*
X311364541Y-183038374D02*
X312607182Y-183038374D01*
X317900175Y-183138374D02*
X318645861Y-182392688D01*
X213645861Y-185538374D02*
X273645861Y-185538374D01*
X313904541Y-183038374D02*
X315147182Y-183038374D01*
X273645861Y-185538374D02*
X275645861Y-183538374D01*
X317787181Y-183138374D02*
X317900175Y-183138374D01*
%TO.N,/PC_BTN*%
X400580175Y-160538374D02*
X388542917Y-160538374D01*
X401245861Y-139138374D02*
X401245861Y-159872688D01*
X369545861Y-180204060D02*
X367211547Y-182538374D01*
X335145861Y-174038374D02*
X317405861Y-174038374D01*
X367211547Y-182538374D02*
X343645861Y-182538374D01*
X369545861Y-175638375D02*
X369545861Y-180204060D01*
X385528443Y-125494132D02*
X387601619Y-125494132D01*
X343645861Y-182538374D02*
X335145861Y-174038374D01*
X388542917Y-160538374D02*
X388477231Y-160472689D01*
X387601619Y-125494132D02*
X401245861Y-139138374D01*
X401245861Y-159872688D02*
X400580175Y-160538374D01*
X317405861Y-174038374D02*
X314525861Y-176918374D01*
X388477231Y-160472689D02*
X384711546Y-160472689D01*
X384711546Y-160472689D02*
X369545861Y-175638375D01*
%TO.N,/TRIGGER_BTN*%
X369145861Y-180038374D02*
X367145861Y-182038374D01*
X367145861Y-182038374D02*
X344145861Y-182038374D01*
X335645861Y-173538374D02*
X315365861Y-173538374D01*
X344145861Y-182038374D02*
X335645861Y-173538374D01*
X379145861Y-146538374D02*
X369145861Y-156538374D01*
X369145861Y-156538374D02*
X369145861Y-180038374D01*
X315365861Y-173538374D02*
X311985861Y-176918374D01*
%TO.N,Net-(U28-DIN)*%
X56645861Y-113538374D02*
X45645861Y-113538374D01*
X105145861Y-118038374D02*
X102645861Y-118038374D01*
X45645861Y-113538374D02*
X44145861Y-115038374D01*
%TO.N,/2_DIG_0*%
X147461725Y-131678111D02*
X129785598Y-131678111D01*
X129785598Y-131678111D02*
X120145861Y-122038374D01*
X120145861Y-122038374D02*
X120145861Y-117538374D01*
%TO.N,/2_DIG_4*%
X115645861Y-123038374D02*
X115645861Y-121038374D01*
%TO.N,/2_DIG_6*%
X169178704Y-152571216D02*
X169178704Y-141071217D01*
X148145861Y-145038374D02*
X148113018Y-145071217D01*
X125397332Y-132638374D02*
X125645861Y-132638374D01*
X148145861Y-143604060D02*
X148145861Y-145038374D01*
X127545861Y-134538374D02*
X138880175Y-134538374D01*
X237319843Y-112158042D02*
X239685038Y-109792847D01*
X138980175Y-134438374D02*
X148145861Y-143604060D01*
X169711547Y-140538374D02*
X201885196Y-140538374D01*
X230265529Y-112158042D02*
X237319843Y-112158042D01*
X148580176Y-157038374D02*
X164711546Y-157038374D01*
X148113018Y-156571216D02*
X148580176Y-157038374D01*
X125645861Y-132638374D02*
X127545861Y-134538374D01*
X201885196Y-140538374D02*
X230265529Y-112158042D01*
X125045861Y-132038374D02*
X125045861Y-132286903D01*
X120150126Y-127142639D02*
X125045861Y-132038374D01*
X125045861Y-132286903D02*
X125397332Y-132638374D01*
X138880175Y-134538374D02*
X138980175Y-134438374D01*
X169178704Y-141071217D02*
X169711547Y-140538374D01*
X164711546Y-157038374D02*
X169178704Y-152571216D01*
X148113018Y-145071217D02*
X148113018Y-156571216D01*
%TO.N,/2_DIG_2*%
X155081988Y-129138374D02*
X128745861Y-129138374D01*
X122145861Y-126538374D02*
X119905861Y-126538374D01*
X157621725Y-131678111D02*
X155081988Y-129138374D01*
X119905861Y-126538374D02*
X119200126Y-127244109D01*
X128745861Y-129138374D02*
X127145861Y-127538374D01*
%TO.N,/2_DIG_7*%
X120428704Y-128755531D02*
X120428704Y-128386903D01*
X239459843Y-112558042D02*
X230645861Y-112558042D01*
X169645861Y-141169746D02*
X169645861Y-152669745D01*
X147645861Y-156669745D02*
X147645861Y-143669746D01*
X202165529Y-141038374D02*
X169777233Y-141038374D01*
X148414490Y-157438374D02*
X147645861Y-156669745D01*
X120428704Y-128386903D02*
X120113018Y-128071217D01*
X147645861Y-143669746D02*
X139014489Y-135038374D01*
X169777233Y-141038374D02*
X169645861Y-141169746D01*
X164877231Y-157438374D02*
X148414490Y-157438374D01*
X242225038Y-109792847D02*
X239459843Y-112558042D01*
X126711547Y-135038374D02*
X120428704Y-128755531D01*
X230645861Y-112558042D02*
X202165529Y-141038374D01*
X169645861Y-152669745D02*
X164877231Y-157438374D01*
X139014489Y-135038374D02*
X126711547Y-135038374D01*
%TO.N,/2_DIG_5*%
X127645861Y-134038374D02*
X125645861Y-132038374D01*
X139145861Y-134038374D02*
X127645861Y-134038374D01*
X148645861Y-156538374D02*
X148645861Y-143538374D01*
X232065038Y-109792847D02*
X201819511Y-140038374D01*
X164645861Y-156538374D02*
X148645861Y-156538374D01*
X169645861Y-140038374D02*
X168645861Y-141038374D01*
X148645861Y-143538374D02*
X139145861Y-134038374D01*
X168645861Y-141038374D02*
X168645861Y-152538374D01*
X201819511Y-140038374D02*
X169645861Y-140038374D01*
X168645861Y-152538374D02*
X164645861Y-156538374D01*
%TO.N,/2_DIG_1*%
X129645861Y-130038374D02*
X153441988Y-130038374D01*
X153441988Y-130038374D02*
X155081725Y-131678111D01*
%TO.N,Net-(U14-A)*%
X153292932Y-127538374D02*
X150645861Y-127538374D01*
X199145861Y-116538374D02*
X198145861Y-117538374D01*
X200145861Y-116538374D02*
X199145861Y-116538374D01*
X156645861Y-121038374D02*
X156521725Y-121162510D01*
X156521725Y-121162510D02*
X156521725Y-124309581D01*
X156521725Y-124309581D02*
X153292932Y-127538374D01*
%TO.N,Net-(U14-F)*%
X152541725Y-131678111D02*
X149645861Y-134573975D01*
X149645861Y-134573975D02*
X149645861Y-151538374D01*
X165645861Y-128038374D02*
X156145861Y-128038374D01*
X199245861Y-134038374D02*
X197145861Y-134038374D01*
X150387567Y-151538374D02*
X152458498Y-153609305D01*
X149645861Y-151538374D02*
X150387567Y-151538374D01*
%TO.N,Net-(U14-B)*%
X166145861Y-137662247D02*
X166145861Y-145001942D01*
X160161725Y-131678111D02*
X157121988Y-128638374D01*
X160161725Y-131678111D02*
X166145861Y-137662247D01*
X160161725Y-131678111D02*
X160161725Y-131554238D01*
X160161725Y-131554238D02*
X160145861Y-131538374D01*
X130745861Y-128638374D02*
X130145861Y-128038374D01*
X199245861Y-135038374D02*
X197145861Y-135038374D01*
X157121988Y-128638374D02*
X130745861Y-128638374D01*
X166145861Y-145001942D02*
X157538498Y-153609305D01*
%TO.N,Net-(U14-G)*%
X153641462Y-128038374D02*
X157621725Y-124058111D01*
X157645861Y-119038374D02*
X157645861Y-121038374D01*
X157645861Y-121038374D02*
X157621725Y-121062510D01*
X199145861Y-115538374D02*
X198145861Y-116538374D01*
X150397332Y-128138374D02*
X150894390Y-128138374D01*
X137145861Y-128038374D02*
X150297332Y-128038374D01*
X150297332Y-128038374D02*
X150397332Y-128138374D01*
X150894390Y-128138374D02*
X150994390Y-128038374D01*
X157621725Y-121062510D02*
X157621725Y-124058111D01*
X150994390Y-128038374D02*
X153641462Y-128038374D01*
X200145861Y-115538374D02*
X199145861Y-115538374D01*
%TO.N,Net-(U28-ISET)*%
X129645861Y-107418374D02*
X129645861Y-125538374D01*
X133145861Y-103918374D02*
X129645861Y-107418374D01*
%TO.N,Net-(U14-C)*%
X199145861Y-114538374D02*
X198145861Y-115538374D01*
X155161462Y-120538374D02*
X155081725Y-120618111D01*
X135645861Y-126538374D02*
X150145861Y-126538374D01*
X200145861Y-114538374D02*
X199145861Y-114538374D01*
X155081725Y-120618111D02*
X155081725Y-124058111D01*
%TO.N,Net-(U14-E)*%
X147461725Y-120722510D02*
X147461725Y-124058111D01*
X149145861Y-119038374D02*
X147461725Y-120722510D01*
X200145861Y-111538374D02*
X198145861Y-111538374D01*
%TO.N,Net-(U14-dp)*%
X199145861Y-113538374D02*
X198145861Y-114538374D01*
X200145861Y-113538374D02*
X199145861Y-113538374D01*
%TO.N,Net-(U14-D)*%
X150001725Y-121182510D02*
X150001725Y-124058111D01*
X200145861Y-112538374D02*
X198645861Y-112538374D01*
X150645861Y-120538374D02*
X150001725Y-121182510D01*
X198645861Y-112538374D02*
X198145861Y-113038374D01*
%TO.N,/MAX_DIN*%
X122645861Y-184538374D02*
X64645861Y-184538374D01*
%TO.N,/1_DIG_0*%
X58685714Y-108627207D02*
X38557028Y-108627207D01*
X38557028Y-108627207D02*
X34145861Y-113038374D01*
X59785714Y-109727207D02*
X58685714Y-108627207D01*
X34145861Y-113038374D02*
X23645861Y-113038374D01*
X23645861Y-113038374D02*
X23645861Y-116538374D01*
%TO.N,/1_DIG_4*%
X58669972Y-154785886D02*
X33893373Y-154785886D01*
X59769972Y-153685886D02*
X58669972Y-154785886D01*
X33893373Y-154785886D02*
X23045861Y-143938374D01*
X23045861Y-120638374D02*
X23645861Y-120038374D01*
X23045861Y-143938374D02*
X23045861Y-120638374D01*
%TO.N,/1_DIG_6*%
X105145861Y-116538374D02*
X103145861Y-116538374D01*
X56645861Y-112538374D02*
X41145861Y-112538374D01*
X41145861Y-112538374D02*
X28645861Y-125038374D01*
X103145861Y-116538374D02*
X102645861Y-117038374D01*
%TO.N,/1_DIG_7*%
X35145861Y-133038374D02*
X29145861Y-133038374D01*
X56145861Y-114938374D02*
X53245861Y-114938374D01*
X104145861Y-116038374D02*
X102645861Y-116038374D01*
X53245861Y-114938374D02*
X35145861Y-133038374D01*
X106145861Y-114038374D02*
X104145861Y-116038374D01*
%TO.N,/1_DIG_5*%
X22145861Y-143604060D02*
X22145861Y-139938374D01*
X33727687Y-155185886D02*
X22145861Y-143604060D01*
X65889972Y-155185886D02*
X33727687Y-155185886D01*
X67389972Y-153685886D02*
X65889972Y-155185886D01*
%TO.N,/1_DIG_1*%
X21545861Y-139138374D02*
X22645861Y-138038374D01*
X58851400Y-108227207D02*
X59162567Y-108538374D01*
X23145861Y-112538374D02*
X34080175Y-112538374D01*
X38391343Y-108227207D02*
X58851400Y-108227207D01*
X34080175Y-112538374D02*
X35455390Y-111163159D01*
X22645861Y-138038374D02*
X22645861Y-113038374D01*
X59162567Y-108538374D02*
X66216881Y-108538374D01*
X22645861Y-113038374D02*
X23145861Y-112538374D01*
X35455390Y-111163159D02*
X38391343Y-108227207D01*
X66216881Y-108538374D02*
X67405714Y-109727207D01*
X21545861Y-140552953D02*
X21545861Y-139138374D01*
%TO.N,Net-(U13-A)*%
X103645861Y-115038374D02*
X106645861Y-112038374D01*
X71645861Y-116507354D02*
X71645861Y-125538374D01*
X70145861Y-136991816D02*
X70145861Y-148389997D01*
X64852404Y-131698359D02*
X70145861Y-136991816D01*
X103145861Y-115038374D02*
X103645861Y-115038374D01*
X71645861Y-125538374D02*
X71012389Y-125538374D01*
X64865714Y-109727207D02*
X71645861Y-116507354D01*
X71012389Y-125538374D02*
X64852404Y-131698359D01*
X70145861Y-148389997D02*
X64849972Y-153685886D01*
%TO.N,Net-(U13-F)*%
X54145861Y-119689845D02*
X54045861Y-119789845D01*
X57229972Y-153685886D02*
X52645861Y-149101775D01*
X102145861Y-112038374D02*
X106145861Y-108038374D01*
X57245714Y-109727207D02*
X57245714Y-116438521D01*
X53392389Y-135538374D02*
X57232404Y-131698359D01*
X57245714Y-116438521D02*
X54145861Y-119538374D01*
X52645861Y-149101775D02*
X52645861Y-135538374D01*
X54045861Y-119789845D02*
X54045861Y-120286903D01*
X54145861Y-120386903D02*
X54145861Y-128611816D01*
X54145861Y-119538374D02*
X54145861Y-119689845D01*
X54045861Y-120286903D02*
X54145861Y-120386903D01*
X54145861Y-128611816D02*
X57232404Y-131698359D01*
X52645861Y-135538374D02*
X53392389Y-135538374D01*
%TO.N,Net-(U13-B)*%
X62325714Y-109727207D02*
X62325714Y-116218227D01*
X106645861Y-110538374D02*
X103145861Y-114038374D01*
X62325714Y-116218227D02*
X70645861Y-124538374D01*
X69472389Y-124538374D02*
X62312404Y-131698359D01*
X69645861Y-146349997D02*
X69645861Y-139031816D01*
X69645861Y-139031816D02*
X62312404Y-131698359D01*
X103145861Y-114038374D02*
X102645861Y-114038374D01*
X62309972Y-153685886D02*
X69645861Y-146349997D01*
X70645861Y-124538374D02*
X69472389Y-124538374D01*
%TO.N,Net-(U13-G)*%
X64865714Y-98818521D02*
X64865714Y-102107207D01*
X64895861Y-98788374D02*
X64865714Y-98818521D01*
X64895861Y-98438374D02*
X64895861Y-98788374D01*
%TO.N,Net-(U13-C)*%
X64272419Y-126038374D02*
X64645861Y-126038374D01*
X62145861Y-98838374D02*
X62145861Y-100078667D01*
X62325714Y-100258520D02*
X62325714Y-102107207D01*
X62145861Y-100078667D02*
X62325714Y-100258520D01*
X62312404Y-124078359D02*
X64272419Y-126038374D01*
%TO.N,Net-(U13-E)*%
X57232404Y-124078359D02*
X58185846Y-124078359D01*
X58185846Y-124078359D02*
X62145861Y-128038374D01*
%TO.N,Net-(U13-dp)*%
X67645861Y-97938374D02*
X67645861Y-101867060D01*
X67645861Y-101867060D02*
X67405714Y-102107207D01*
X63145861Y-120038374D02*
X54645861Y-120038374D01*
X162521961Y-102162274D02*
X162645861Y-102038374D01*
X162521961Y-102162274D02*
X162521961Y-102176844D01*
%TO.N,Net-(U13-D)*%
X59785714Y-99898521D02*
X59785714Y-102107207D01*
X62732419Y-127038374D02*
X63145861Y-127038374D01*
X59772404Y-124078359D02*
X62732419Y-127038374D01*
X59895861Y-99788374D02*
X59785714Y-99898521D01*
X59895861Y-99438374D02*
X59895861Y-99788374D01*
%TO.N,Net-(U31-ISET)*%
X338645861Y-116658374D02*
X338645861Y-114038374D01*
X338645861Y-114038374D02*
X337645861Y-113038374D01*
%TO.N,/5_DIG_0*%
X278514489Y-148538374D02*
X290314491Y-136738374D01*
X290314491Y-136738374D02*
X290380175Y-136738374D01*
X290380175Y-136738374D02*
X290447333Y-136671217D01*
X290447333Y-136671217D02*
X290513018Y-136671217D01*
X322645861Y-128538374D02*
X322645861Y-103038374D01*
X261259331Y-153557135D02*
X266278092Y-148538374D01*
X314645860Y-136538374D02*
X322645861Y-128538374D01*
X290645861Y-136538374D02*
X314645860Y-136538374D01*
X266278092Y-148538374D02*
X278514489Y-148538374D01*
X290513018Y-136671217D02*
X290645861Y-136538374D01*
%TO.N,/5_DIG_4*%
X343145861Y-106538374D02*
X360468715Y-106538374D01*
X360468715Y-106538374D02*
X363723027Y-109792686D01*
X327645861Y-104386904D02*
X327645861Y-111538374D01*
X326971596Y-103712639D02*
X327645861Y-104386904D01*
X327645861Y-111538374D02*
X328145861Y-112038374D01*
X337645861Y-112038374D02*
X343145861Y-106538374D01*
X328145861Y-112038374D02*
X337645861Y-112038374D01*
X326971596Y-102864109D02*
X326971596Y-103712639D01*
%TO.N,/5_DIG_6*%
X328645861Y-102038374D02*
X333745861Y-96938374D01*
X363568715Y-96938374D02*
X368803027Y-102172686D01*
X333745861Y-96938374D02*
X363568715Y-96938374D01*
%TO.N,/5_DIG_2*%
X324645861Y-128038374D02*
X315145861Y-137538374D01*
X324645861Y-121538374D02*
X324645861Y-128038374D01*
X271419331Y-151764904D02*
X271419331Y-153557135D01*
X273645861Y-149538374D02*
X271419331Y-151764904D01*
X323645861Y-120538374D02*
X324645861Y-121538374D01*
X278645861Y-149538374D02*
X273645861Y-149538374D01*
X290645861Y-137538374D02*
X278645861Y-149538374D01*
X315145861Y-137538374D02*
X290645861Y-137538374D01*
X323645861Y-112038374D02*
X323645861Y-120538374D01*
%TO.N,/5_DIG_3*%
X353457339Y-112438374D02*
X356103027Y-109792686D01*
X328145861Y-113538374D02*
X329245861Y-112438374D01*
X329245861Y-112438374D02*
X353457339Y-112438374D01*
%TO.N,/5_DIG_5*%
X341645861Y-118038374D02*
X346645861Y-113038374D01*
X328145861Y-118038374D02*
X341645861Y-118038374D01*
X363017339Y-113038374D02*
X366263027Y-109792686D01*
X346645861Y-113038374D02*
X363017339Y-113038374D01*
%TO.N,/5_DIG_1*%
X314678703Y-137071217D02*
X323145861Y-128604059D01*
X290480176Y-137138374D02*
X290545861Y-137138374D01*
X290545861Y-137138374D02*
X290613018Y-137071217D01*
X278580175Y-149038374D02*
X290480176Y-137138374D01*
X268879331Y-153557135D02*
X273398092Y-149038374D01*
X323145861Y-128604059D02*
X323145861Y-125038374D01*
X290613018Y-137071217D02*
X314678703Y-137071217D01*
X323145861Y-125038374D02*
X323645861Y-124538374D01*
X273398092Y-149038374D02*
X278580175Y-149038374D01*
%TO.N,Net-(U15-B)*%
X273759798Y-150838841D02*
X273959331Y-151038374D01*
X273759798Y-150272966D02*
X273759798Y-150838841D01*
X273959331Y-151038374D02*
X273959331Y-153557135D01*
%TO.N,Net-(U15-E)*%
X331145861Y-110038374D02*
X333145861Y-108038374D01*
X329145861Y-110038374D02*
X331145861Y-110038374D01*
%TO.N,Net-(U15-dp)*%
X359317339Y-104038374D02*
X352645861Y-104038374D01*
X361183027Y-102172686D02*
X359317339Y-104038374D01*
%TO.N,/CC2_A*%
X204645861Y-136038374D02*
X204645861Y-135538374D01*
X298311293Y-127038374D02*
X299907685Y-125441982D01*
X275480175Y-99438374D02*
X281645861Y-105604060D01*
X285145861Y-127038374D02*
X298311293Y-127038374D01*
X203745861Y-132738374D02*
X203745861Y-106635432D01*
X210942919Y-99438374D02*
X275480175Y-99438374D01*
X204645861Y-135538374D02*
X204145861Y-135038374D01*
X204145861Y-135038374D02*
X204145861Y-133138374D01*
X281645861Y-123538374D02*
X285145861Y-127038374D01*
X203745861Y-106635432D02*
X210942919Y-99438374D01*
X204145861Y-133138374D02*
X203745861Y-132738374D01*
X281645861Y-105604060D02*
X281645861Y-123538374D01*
%TO.N,/NOTE4_B*%
X171645861Y-105538374D02*
X168145861Y-109038374D01*
X150645861Y-156038374D02*
X150645861Y-155938374D01*
X151145861Y-155538374D02*
X150645861Y-156038374D01*
X164711546Y-155538374D02*
X151145861Y-155538374D01*
X168145861Y-109038374D02*
X168145861Y-152104059D01*
X168145861Y-152104059D02*
X164711546Y-155538374D01*
X186411422Y-108551491D02*
X183398305Y-105538374D01*
X183398305Y-105538374D02*
X171645861Y-105538374D01*
%TO.N,/VOLUME_B*%
X188985861Y-168418374D02*
X188985861Y-153888374D01*
X188985861Y-153888374D02*
X190835861Y-152038374D01*
%TO.N,Net-(U6-DS)*%
X164145861Y-158038374D02*
X148448805Y-158038374D01*
X146645861Y-156235430D02*
X146645861Y-155038374D01*
X177645861Y-171538374D02*
X164145861Y-158038374D01*
X148448805Y-158038374D02*
X146645861Y-156235430D01*
X198565861Y-171538374D02*
X177645861Y-171538374D01*
X201685861Y-168418374D02*
X198565861Y-171538374D01*
%TO.N,/NOTE2_B*%
X102645861Y-138038374D02*
X130745861Y-138038374D01*
X130553018Y-152945531D02*
X128578704Y-152945531D01*
X130745861Y-138038374D02*
X130745861Y-152752688D01*
X130745861Y-152752688D02*
X130553018Y-152945531D01*
X95145861Y-130538374D02*
X102645861Y-138038374D01*
X128578704Y-152945531D02*
X123485861Y-158038374D01*
%TO.N,/3_DIG_0*%
X214245861Y-141938374D02*
X214145861Y-142038374D01*
X232298074Y-131737514D02*
X219512407Y-131737514D01*
X218645861Y-126472688D02*
X218645861Y-126038374D01*
X214145861Y-142038374D02*
X211645861Y-142038374D01*
X210145861Y-134689845D02*
X214897332Y-129938374D01*
X214897332Y-129938374D02*
X215180175Y-129938374D01*
X214245861Y-137138374D02*
X214245861Y-141938374D01*
X219512407Y-131737514D02*
X214178704Y-137071217D01*
X215180175Y-129938374D02*
X218645861Y-126472688D01*
X211645861Y-142038374D02*
X210145861Y-140538374D01*
X214178704Y-137071217D02*
X214245861Y-137138374D01*
X210145861Y-140538374D02*
X210145861Y-134689845D01*
%TO.N,/3_DIG_4*%
X209145861Y-135038374D02*
X216395861Y-127788374D01*
X235292073Y-149038374D02*
X216797332Y-149038374D01*
X209045861Y-140638374D02*
X209145861Y-140538374D01*
X209145861Y-140538374D02*
X209145861Y-135038374D01*
X216797332Y-149038374D02*
X209045861Y-141286903D01*
X209045861Y-141286903D02*
X209045861Y-140638374D01*
X239894066Y-153640367D02*
X235292073Y-149038374D01*
%TO.N,/3_DIG_2*%
X242645861Y-131538374D02*
X239145861Y-128038374D01*
X217645861Y-128038374D02*
X215145861Y-130538374D01*
X242458074Y-131737514D02*
X242458074Y-131726161D01*
X239145861Y-128038374D02*
X217645861Y-128038374D01*
X242458074Y-131726161D02*
X242645861Y-131538374D01*
%TO.N,/3_DIG_1*%
X222145861Y-128538374D02*
X236718934Y-128538374D01*
X236718934Y-128538374D02*
X239918074Y-131737514D01*
X213645861Y-137038374D02*
X222145861Y-128538374D01*
X213645861Y-141038374D02*
X213645861Y-137038374D01*
%TO.N,Net-(U22-dp)*%
X237378074Y-120270587D02*
X237145861Y-120038374D01*
X237378074Y-124117514D02*
X237378074Y-120270587D01*
%TO.N,Net-(U22-D)*%
X234838074Y-124117514D02*
X234838074Y-120230587D01*
X234838074Y-120230587D02*
X234645861Y-120038374D01*
%TO.N,/NOTE3_A*%
X121605861Y-167538374D02*
X123485861Y-165658374D01*
X95328410Y-147828177D02*
X115038607Y-167538374D01*
X115038607Y-167538374D02*
X121605861Y-167538374D01*
%TO.N,/165_ENC_QH*%
X143645861Y-161538374D02*
X140145861Y-158038374D01*
X216765861Y-181038374D02*
X214765861Y-179038374D01*
X214765861Y-179038374D02*
X204645861Y-179038374D01*
X140145861Y-158038374D02*
X136185861Y-158038374D01*
%TD*%
M02*
