%TF.GenerationSoftware,KiCad,Pcbnew,10.0.1*%
%TF.CreationDate,2026-09-22T20:16:24+02:00*%
%TF.ProjectId,kosmo-16-channel-sequencer-step-settings-board,6b6f736d-6f2d-4313-962d-6368616e6e65,rev?*%
%TF.SameCoordinates,Original*%
%TF.FileFunction,Profile,NP*%
%FSLAX46Y46*%
G04 Gerber Fmt 4.6, Leading zero omitted, Abs format (unit mm)*
G04 Created by KiCad (PCBNEW 10.0.1) date 2026-09-22 20:16:24*
%MOMM*%
%LPD*%
G01*
G04 APERTURE LIST*
%TA.AperFunction,Profile*%
%ADD10C,0.100000*%
%TD*%
G04 APERTURE END LIST*
D10*
X18007206Y-96038374D02*
G75*
G02*
X20068759Y-94034926I2061555J-58950D01*
G01*
X18145874Y-158080261D02*
X18007206Y-96038392D01*
X20068759Y-94035766D02*
X400643574Y-93977045D01*
X20103536Y-160079813D02*
G75*
G02*
X18145874Y-158080261I42325J1999539D01*
G01*
X20103536Y-160079813D02*
X33360685Y-160079813D01*
X33360685Y-160079813D02*
G75*
G02*
X38137449Y-164872661I-15994J-4792731D01*
G01*
X38165321Y-186516446D02*
X38137544Y-164872661D01*
X40165201Y-188538334D02*
G75*
G02*
X38165321Y-186516446I-40J1999960D01*
G01*
X110996826Y-171386525D02*
G75*
G02*
X91787454Y-171386525I-9604686J0D01*
G01*
X91787454Y-171386525D02*
G75*
G02*
X110996826Y-171386525I9604686J0D01*
G01*
X303959569Y-171538374D02*
G75*
G02*
X281332153Y-171538374I-11313708J0D01*
G01*
X281332153Y-171538374D02*
G75*
G02*
X303959569Y-171538374I11313708J0D01*
G01*
X368365405Y-171538374D02*
G75*
G02*
X349926317Y-171538374I-9219544J0D01*
G01*
X349926317Y-171538374D02*
G75*
G02*
X368365405Y-171538374I9219544J0D01*
G01*
X398865405Y-171538374D02*
G75*
G02*
X380426317Y-171538374I-9219544J0D01*
G01*
X380426317Y-171538374D02*
G75*
G02*
X398865405Y-171538374I9219544J0D01*
G01*
X400643574Y-93977045D02*
G75*
G02*
X402643590Y-95977045I-13J-2000029D01*
G01*
X400643574Y-188547116D02*
X40165201Y-188538335D01*
X402643574Y-95977045D02*
X402643574Y-186547116D01*
X402643574Y-186547116D02*
G75*
G02*
X400643574Y-188547087I-2000013J42D01*
G01*
M02*
