M48
; DRILL file KiCad 10.0.1 date 2026-09-22T20:16:26
; FORMAT={-:-/ absolute / metric / decimal}
; #@! TF.CreationDate,2026-09-22T20:16:26+02:00
; #@! TF.GenerationSoftware,Kicad,Pcbnew,10.0.1
; #@! TF.FileFunction,MixedPlating,1,2
FMAT,2
METRIC
; #@! TA.AperFunction,Plated,PTH,ViaDrill
T1C0.300
; #@! TA.AperFunction,Plated,PTH,ComponentDrill
T2C0.800
; #@! TA.AperFunction,Plated,PTH,ComponentDrill
T3C1.000
; #@! TA.AperFunction,Plated,PTH,ComponentDrill
T4C2.000
%
G90
G05
T1
X21.546Y-140.553
X22.146Y-139.938
X23.646Y-116.538
X23.646Y-120.038
X28.646Y-125.038
X29.146Y-133.038
X37.146Y-121.038
X38.146Y-128.538
X44.146Y-115.038
X46.646Y-129.038
X47.646Y-152.538
X53.646Y-158.538
X54.646Y-120.038
X56.146Y-114.938
X56.646Y-112.538
X56.646Y-113.538
X59.896Y-99.438
X62.146Y-98.838
X62.146Y-128.038
X63.146Y-120.038
X63.146Y-127.038
X64.646Y-126.038
X64.646Y-184.538
X64.896Y-98.438
X67.646Y-97.938
X71.646Y-101.038
X93.646Y-132.538
X102.146Y-112.038
X102.646Y-114.038
X102.646Y-116.038
X102.646Y-117.038
X102.646Y-118.038
X103.146Y-115.038
X104.646Y-160.138
X105.146Y-116.538
X105.146Y-118.038
X106.146Y-108.038
X106.146Y-114.038
X106.646Y-110.538
X106.646Y-112.038
X107.722Y-121.463
X110.146Y-154.538
X111.646Y-153.538
X114.146Y-142.538
X115.646Y-121.038
X115.646Y-123.038
X116.146Y-97.038
X119.2Y-127.244
X120.113Y-128.071
X120.146Y-117.538
X120.15Y-127.143
X122.146Y-126.538
X122.646Y-184.538
X124.146Y-181.538
X125.146Y-162.538
X125.646Y-132.038
X127.146Y-127.538
X129.646Y-125.538
X129.646Y-130.038
X129.646Y-142.538
X130.146Y-128.038
X135.646Y-126.538
X136.646Y-137.538
X137.146Y-128.038
X137.146Y-154.038
X138.646Y-138.538
X139.646Y-114.538
X143.646Y-161.538
X145.646Y-159.038
X146.646Y-155.038
X149.146Y-119.038
X149.646Y-141.038
X150.146Y-126.538
X150.146Y-155.309
X150.646Y-120.538
X150.646Y-127.538
X150.646Y-155.938
X154.146Y-183.038
X155.161Y-120.538
X156.146Y-128.038
X156.646Y-121.038
X157.646Y-119.038
X165.646Y-128.038
X166.146Y-137.662
X167.046Y-151.038
X168.146Y-183.038
X168.646Y-170.038
X169.146Y-138.538
X172.146Y-168.038
X174.146Y-169.538
X174.396Y-166.788
X185.146Y-173.038
X185.146Y-185.038
X185.146Y-186.038
X192.146Y-183.538
X192.646Y-162.038
X197.146Y-134.038
X197.146Y-135.038
X198.146Y-111.538
X198.146Y-113.038
X198.146Y-114.538
X198.146Y-115.538
X198.146Y-116.538
X198.146Y-117.538
X199.246Y-134.038
X199.246Y-135.038
X200.146Y-111.538
X200.146Y-112.538
X200.146Y-113.538
X200.146Y-114.538
X200.146Y-115.538
X200.146Y-116.538
X200.472Y-137.864
X200.773Y-138.605
X201.246Y-121.837
X201.246Y-139.438
X201.846Y-137.955
X202.746Y-137.031
X203.646Y-136.038
X204.146Y-173.038
X204.646Y-136.038
X204.646Y-179.038
X205.146Y-135.038
X205.26Y-178.153
X205.998Y-139.583
X206.146Y-177.538
X206.646Y-153.038
X207.646Y-97.538
X207.646Y-146.038
X207.646Y-175.038
X208.146Y-155.538
X208.646Y-158.038
X208.646Y-161.038
X209.146Y-173.538
X211.146Y-162.038
X212.146Y-175.038
X213.646Y-141.038
X215.146Y-130.538
X215.646Y-142.038
X216.396Y-127.788
X217.146Y-143.538
X217.646Y-139.538
X218.646Y-126.038
X219.646Y-133.038
X222.646Y-160.038
X223.646Y-186.538
X225.146Y-145.538
X230.646Y-114.038
X234.646Y-120.038
X237.146Y-120.038
X246.146Y-175.038
X247.646Y-159.538
X249.146Y-105.038
X249.146Y-175.038
X250.666Y-181.058
X253.146Y-175.038
X254.346Y-166.238
X254.646Y-155.538
X255.146Y-149.538
X255.146Y-153.038
X255.146Y-159.538
X256.146Y-153.038
X259.146Y-161.038
X259.146Y-172.538
X261.646Y-171.538
X264.146Y-159.038
X266.646Y-180.538
X268.146Y-158.538
X268.646Y-172.538
X270.646Y-166.038
X270.646Y-173.538
X273.76Y-150.273
X276.146Y-185.538
X278.146Y-181.038
X280.646Y-164.538
X280.646Y-182.038
X280.82Y-145.213
X281.146Y-159.538
X281.646Y-180.938
X286.646Y-159.538
X288.646Y-159.538
X301.046Y-158.538
X306.646Y-168.538
X306.646Y-172.538
X308.08Y-158.138
X308.146Y-156.538
X308.646Y-157.538
X309.146Y-159.038
X309.646Y-180.538
X310.146Y-169.538
X313.646Y-169.538
X321.146Y-152.538
X322.646Y-103.038
X322.646Y-151.538
X322.646Y-156.538
X323.146Y-143.538
X323.146Y-152.538
X323.646Y-112.038
X323.646Y-124.538
X323.646Y-164.038
X325.146Y-141.538
X325.146Y-144.538
X326.146Y-123.538
X326.972Y-102.864
X327.146Y-151.038
X328.146Y-113.538
X328.146Y-118.038
X328.146Y-151.038
X328.646Y-102.038
X328.646Y-149.638
X329.146Y-99.538
X329.146Y-110.038
X329.646Y-150.038
X330.146Y-128.038
X331.146Y-127.538
X331.146Y-142.538
X333.146Y-108.038
X333.646Y-134.538
X334.386Y-171.298
X335.646Y-129.538
X336.146Y-133.538
X336.646Y-130.438
X337.646Y-113.038
X340.146Y-162.538
X340.146Y-163.538
X340.646Y-160.038
X341.646Y-161.038
X344.646Y-99.538
X345.646Y-95.538
X347.646Y-137.538
X352.646Y-104.038
X362.146Y-118.538
X363.646Y-118.638
T2
X29.646Y-101.038
X29.646Y-107.538
X32.146Y-107.538
X34.646Y-101.038
X37.526Y-105.038
X45.146Y-105.038
X57.23Y-146.066
X57.23Y-153.686
X57.232Y-124.078
X57.232Y-131.698
X57.246Y-102.107
X57.246Y-109.727
X59.77Y-146.066
X59.77Y-153.686
X59.772Y-124.078
X59.772Y-131.698
X59.786Y-102.107
X59.786Y-109.727
X62.31Y-146.066
X62.31Y-153.686
X62.312Y-124.078
X62.312Y-131.698
X62.326Y-102.107
X62.326Y-109.727
X64.85Y-146.066
X64.85Y-153.686
X64.852Y-124.078
X64.852Y-131.698
X64.866Y-102.107
X64.866Y-109.727
X67.39Y-146.066
X67.39Y-153.686
X67.392Y-124.078
X67.392Y-131.698
X67.406Y-102.107
X67.406Y-109.727
X95.146Y-126.038
X95.146Y-130.538
X95.207Y-121.654
X95.276Y-143.537
X95.328Y-147.828
X95.336Y-100.538
X95.336Y-104.538
X95.336Y-108.538
X95.336Y-152.038
X102.766Y-126.038
X102.766Y-130.538
X102.827Y-121.654
X102.896Y-143.537
X102.948Y-147.828
X102.956Y-100.538
X102.956Y-104.538
X102.956Y-108.538
X102.956Y-152.038
X118.146Y-154.538
X118.406Y-158.038
X118.406Y-165.658
X120.946Y-158.038
X120.946Y-165.658
X121.646Y-107.221
X121.646Y-109.721
X123.146Y-154.538
X123.486Y-158.038
X123.486Y-165.658
X126.026Y-158.038
X126.026Y-165.658
X128.146Y-106.038
X128.146Y-111.038
X128.566Y-158.038
X128.566Y-165.658
X131.106Y-158.038
X131.106Y-165.658
X133.146Y-103.918
X133.146Y-111.538
X133.646Y-158.038
X133.646Y-165.658
X136.186Y-158.038
X136.186Y-165.658
X147.462Y-124.058
X147.462Y-131.678
X148.646Y-165.038
X150.002Y-124.058
X150.002Y-131.678
X150.406Y-168.418
X150.406Y-176.038
X152.362Y-102.177
X152.362Y-109.797
X152.458Y-145.989
X152.458Y-153.609
X152.542Y-124.058
X152.542Y-131.678
X152.946Y-168.418
X152.946Y-176.038
X153.646Y-165.038
X154.902Y-102.177
X154.902Y-109.797
X154.998Y-145.989
X154.998Y-153.609
X155.082Y-124.058
X155.082Y-131.678
X155.486Y-168.418
X155.486Y-176.038
X157.442Y-102.177
X157.442Y-109.797
X157.538Y-145.989
X157.538Y-153.609
X157.622Y-124.058
X157.622Y-131.678
X158.026Y-168.418
X158.026Y-176.038
X159.982Y-102.177
X159.982Y-109.797
X160.078Y-145.989
X160.078Y-153.609
X160.162Y-124.058
X160.162Y-131.678
X160.566Y-168.418
X160.566Y-176.038
X162.522Y-102.177
X162.522Y-109.797
X162.618Y-145.989
X162.618Y-153.609
X163.106Y-168.418
X163.106Y-176.038
X165.646Y-168.418
X165.646Y-176.038
X168.186Y-168.418
X168.186Y-176.038
X182.646Y-165.538
X183.906Y-168.418
X183.906Y-176.038
X186.446Y-168.418
X186.446Y-176.038
X187.646Y-165.538
X188.986Y-168.418
X188.986Y-176.038
X190.62Y-121.837
X190.646Y-126.038
X190.646Y-130.038
X190.836Y-99.538
X190.836Y-103.538
X190.836Y-108.038
X190.836Y-147.538
X190.836Y-152.038
X191.012Y-143.187
X191.526Y-168.418
X191.526Y-176.038
X194.066Y-168.418
X194.066Y-176.038
X196.606Y-168.418
X196.606Y-176.038
X198.24Y-121.837
X198.266Y-126.038
X198.266Y-130.038
X198.456Y-99.538
X198.456Y-103.538
X198.456Y-108.038
X198.456Y-147.538
X198.456Y-152.038
X198.632Y-143.187
X199.146Y-168.418
X199.146Y-176.038
X201.686Y-168.418
X201.686Y-176.038
X209.646Y-148.038
X209.646Y-150.538
X214.646Y-151.038
X214.646Y-154.538
X219.646Y-151.038
X222.266Y-154.538
X232.065Y-102.173
X232.065Y-109.793
X232.274Y-146.02
X232.274Y-153.64
X232.298Y-124.118
X232.298Y-131.738
X234.526Y-174.038
X234.605Y-102.173
X234.605Y-109.793
X234.814Y-146.02
X234.814Y-153.64
X234.838Y-124.118
X234.838Y-131.738
X237.145Y-102.173
X237.145Y-109.793
X237.146Y-169.538
X237.354Y-146.02
X237.354Y-153.64
X237.378Y-124.118
X237.378Y-131.738
X238.646Y-163.538
X239.685Y-102.173
X239.685Y-109.793
X239.894Y-146.02
X239.894Y-153.64
X239.918Y-124.118
X239.918Y-131.738
X241.146Y-163.538
X242.146Y-169.538
X242.146Y-174.038
X242.225Y-102.173
X242.225Y-109.793
X242.434Y-146.02
X242.434Y-153.64
X242.458Y-124.118
X242.458Y-131.738
X244.765Y-102.173
X244.765Y-109.793
X244.974Y-146.02
X244.974Y-153.64
X244.998Y-124.118
X244.998Y-131.738
X261.027Y-102.203
X261.027Y-109.823
X261.084Y-124.054
X261.084Y-131.674
X261.259Y-145.937
X261.259Y-153.557
X263.567Y-102.203
X263.567Y-109.823
X263.624Y-124.054
X263.624Y-131.674
X263.799Y-145.937
X263.799Y-153.557
X266.107Y-102.203
X266.107Y-109.823
X266.164Y-124.054
X266.164Y-131.674
X266.339Y-145.937
X266.339Y-153.557
X268.647Y-102.203
X268.647Y-109.823
X268.704Y-124.054
X268.704Y-131.674
X268.879Y-145.937
X268.879Y-153.557
X271.187Y-102.203
X271.187Y-109.823
X271.244Y-124.054
X271.244Y-131.674
X271.419Y-145.937
X271.419Y-153.557
X273.727Y-102.203
X273.727Y-109.823
X273.784Y-124.054
X273.784Y-131.674
X273.959Y-145.937
X273.959Y-153.557
X303.526Y-130.538
X303.526Y-147.538
X303.526Y-152.038
X303.646Y-108.538
X303.646Y-121.038
X303.646Y-125.538
X303.646Y-143.038
X304.146Y-99.038
X304.146Y-103.538
X306.906Y-176.918
X306.906Y-184.538
X309.446Y-176.918
X309.446Y-184.538
X311.146Y-130.538
X311.146Y-147.538
X311.146Y-152.038
X311.266Y-108.538
X311.266Y-121.038
X311.266Y-125.538
X311.266Y-143.038
X311.766Y-99.038
X311.766Y-103.538
X311.986Y-176.918
X311.986Y-184.538
X314.526Y-176.918
X314.526Y-184.538
X317.066Y-176.918
X317.066Y-184.538
X319.606Y-176.918
X319.606Y-184.538
X322.146Y-176.918
X322.146Y-184.538
X323.646Y-135.038
X323.646Y-137.538
X324.686Y-176.918
X324.686Y-184.538
X330.146Y-133.038
X330.146Y-138.038
X330.146Y-179.538
X330.146Y-184.538
X338.646Y-109.038
X338.646Y-116.658
X339.526Y-157.538
X340.646Y-99.538
X340.646Y-102.038
X344.026Y-120.038
X344.026Y-122.578
X344.026Y-125.118
X344.026Y-127.658
X344.026Y-130.198
X344.026Y-132.738
X344.026Y-135.278
X344.026Y-137.818
X346.646Y-98.038
X346.646Y-103.038
X347.146Y-157.538
X351.646Y-115.538
X351.646Y-120.038
X351.646Y-122.578
X351.646Y-125.118
X351.646Y-127.658
X351.646Y-130.198
X351.646Y-132.738
X351.646Y-135.278
X351.646Y-137.818
X356.103Y-102.173
X356.103Y-109.793
X356.151Y-145.968
X356.151Y-153.588
X356.646Y-115.538
X358.643Y-102.173
X358.643Y-109.793
X358.691Y-145.968
X358.691Y-153.588
X361.024Y-124.08
X361.024Y-131.7
X361.183Y-102.173
X361.183Y-109.793
X361.231Y-145.968
X361.231Y-153.588
X363.564Y-124.08
X363.564Y-131.7
X363.723Y-102.173
X363.723Y-109.793
X363.771Y-145.968
X363.771Y-153.588
X366.104Y-124.08
X366.104Y-131.7
X366.263Y-102.173
X366.263Y-109.793
X366.311Y-145.968
X366.311Y-153.588
X368.644Y-124.08
X368.644Y-131.7
X368.803Y-102.173
X368.803Y-109.793
X368.851Y-145.968
X368.851Y-153.588
X371.184Y-124.08
X371.184Y-131.7
X373.724Y-124.08
X373.724Y-131.7
X374.336Y-160.038
X374.526Y-100.038
X375.646Y-140.538
X375.836Y-116.038
X375.836Y-120.038
X376.146Y-103.918
X376.146Y-111.538
X379.146Y-146.538
X379.146Y-154.158
X379.646Y-127.418
X379.646Y-135.038
X381.956Y-160.038
X382.146Y-100.038
X383.266Y-140.538
X383.456Y-116.038
X383.456Y-120.038
X388.646Y-117.538
X396.266Y-117.538
T3
X76.887Y-147.3
X76.887Y-152.3
X76.889Y-125.428
X76.889Y-130.428
X76.915Y-103.518
X76.915Y-108.518
X91.387Y-147.3
X91.387Y-149.8
X91.387Y-152.3
X91.389Y-125.428
X91.389Y-127.928
X91.389Y-130.428
X91.415Y-103.518
X91.415Y-106.018
X91.415Y-108.518
X171.911Y-103.551
X171.911Y-108.551
X171.935Y-125.487
X171.935Y-130.487
X171.946Y-147.328
X171.946Y-152.328
X186.411Y-103.551
X186.411Y-106.051
X186.411Y-108.551
X186.435Y-125.487
X186.435Y-127.987
X186.435Y-130.487
X186.446Y-147.328
X186.446Y-149.828
X186.446Y-152.328
X196.446Y-181.038
X196.446Y-183.578
X198.986Y-181.038
X198.986Y-183.578
X201.526Y-181.038
X201.526Y-183.578
X204.066Y-181.038
X204.066Y-183.578
X206.606Y-181.038
X206.606Y-183.578
X209.146Y-181.038
X209.146Y-183.578
X211.686Y-181.038
X211.686Y-183.578
X214.226Y-181.038
X214.226Y-183.578
X216.766Y-181.038
X216.766Y-183.578
X219.306Y-181.038
X219.306Y-183.578
X285.408Y-125.442
X285.408Y-130.442
X285.434Y-103.577
X285.434Y-108.577
X285.447Y-147.386
X285.447Y-152.386
X299.908Y-125.442
X299.908Y-127.942
X299.908Y-130.442
X299.934Y-103.577
X299.934Y-106.077
X299.934Y-108.577
X299.947Y-147.386
X299.947Y-149.886
X299.947Y-152.386
X385.528Y-125.494
X385.528Y-130.494
X385.543Y-103.603
X385.543Y-108.603
X385.582Y-147.305
X385.582Y-152.305
X400.028Y-125.494
X400.028Y-127.994
X400.028Y-130.494
X400.043Y-103.603
X400.043Y-106.103
X400.043Y-108.603
X400.082Y-147.305
X400.082Y-149.805
X400.082Y-152.305
T4
G00X84.437Y-144.2
M15
G01X83.337Y-144.2
M16
G05
G00X84.437Y-155.4
M15
G01X83.337Y-155.4
M16
G05
G00X84.439Y-122.328
M15
G01X83.339Y-122.328
M16
G05
G00X84.439Y-133.528
M15
G01X83.339Y-133.528
M16
G05
G00X84.465Y-100.418
M15
G01X83.365Y-100.418
M16
G05
G00X84.465Y-111.618
M15
G01X83.365Y-111.618
M16
G05
G00X179.461Y-100.451
M15
G01X178.361Y-100.451
M16
G05
G00X179.461Y-111.651
M15
G01X178.361Y-111.651
M16
G05
G00X179.485Y-122.387
M15
G01X178.385Y-122.387
M16
G05
G00X179.485Y-133.587
M15
G01X178.385Y-133.587
M16
G05
G00X179.496Y-144.228
M15
G01X178.396Y-144.228
M16
G05
G00X179.496Y-155.428
M15
G01X178.396Y-155.428
M16
G05
G00X292.958Y-122.342
M15
G01X291.858Y-122.342
M16
G05
G00X292.958Y-133.542
M15
G01X291.858Y-133.542
M16
G05
G00X292.984Y-100.477
M15
G01X291.884Y-100.477
M16
G05
G00X292.984Y-111.677
M15
G01X291.884Y-111.677
M16
G05
G00X292.997Y-144.286
M15
G01X291.897Y-144.286
M16
G05
G00X292.997Y-155.486
M15
G01X291.897Y-155.486
M16
G05
G00X393.078Y-122.394
M15
G01X391.978Y-122.394
M16
G05
G00X393.078Y-133.594
M15
G01X391.978Y-133.594
M16
G05
G00X393.093Y-100.503
M15
G01X391.993Y-100.503
M16
G05
G00X393.093Y-111.703
M15
G01X391.993Y-111.703
M16
G05
G00X393.132Y-144.205
M15
G01X392.032Y-144.205
M16
G05
G00X393.132Y-155.405
M15
G01X392.032Y-155.405
M16
G05
M30
