%TF.GenerationSoftware,KiCad,Pcbnew,10.0.1*%
%TF.CreationDate,2026-09-22T20:16:24+02:00*%
%TF.ProjectId,kosmo-16-channel-sequencer-step-settings-board,6b6f736d-6f2d-4313-962d-6368616e6e65,rev?*%
%TF.SameCoordinates,Original*%
%TF.FileFunction,Legend,Top*%
%TF.FilePolarity,Positive*%
%FSLAX46Y46*%
G04 Gerber Fmt 4.6, Leading zero omitted, Abs format (unit mm)*
G04 Created by KiCad (PCBNEW 10.0.1) date 2026-09-22 20:16:24*
%MOMM*%
%LPD*%
G01*
G04 APERTURE LIST*
%ADD10C,0.150000*%
%ADD11C,0.120000*%
G04 APERTURE END LIST*
D10*
X194003003Y-150363193D02*
X193669670Y-149887002D01*
X193431575Y-150363193D02*
X193431575Y-149363193D01*
X193431575Y-149363193D02*
X193812527Y-149363193D01*
X193812527Y-149363193D02*
X193907765Y-149410812D01*
X193907765Y-149410812D02*
X193955384Y-149458431D01*
X193955384Y-149458431D02*
X194003003Y-149553669D01*
X194003003Y-149553669D02*
X194003003Y-149696526D01*
X194003003Y-149696526D02*
X193955384Y-149791764D01*
X193955384Y-149791764D02*
X193907765Y-149839383D01*
X193907765Y-149839383D02*
X193812527Y-149887002D01*
X193812527Y-149887002D02*
X193431575Y-149887002D01*
X194860146Y-149696526D02*
X194860146Y-150363193D01*
X194622051Y-149315574D02*
X194383956Y-150029859D01*
X194383956Y-150029859D02*
X195003003Y-150029859D01*
X195812527Y-149696526D02*
X195812527Y-150363193D01*
X195574432Y-149315574D02*
X195336337Y-150029859D01*
X195336337Y-150029859D02*
X195955384Y-150029859D01*
X306693003Y-150363193D02*
X306359670Y-149887002D01*
X306121575Y-150363193D02*
X306121575Y-149363193D01*
X306121575Y-149363193D02*
X306502527Y-149363193D01*
X306502527Y-149363193D02*
X306597765Y-149410812D01*
X306597765Y-149410812D02*
X306645384Y-149458431D01*
X306645384Y-149458431D02*
X306693003Y-149553669D01*
X306693003Y-149553669D02*
X306693003Y-149696526D01*
X306693003Y-149696526D02*
X306645384Y-149791764D01*
X306645384Y-149791764D02*
X306597765Y-149839383D01*
X306597765Y-149839383D02*
X306502527Y-149887002D01*
X306502527Y-149887002D02*
X306121575Y-149887002D01*
X307597765Y-149363193D02*
X307121575Y-149363193D01*
X307121575Y-149363193D02*
X307073956Y-149839383D01*
X307073956Y-149839383D02*
X307121575Y-149791764D01*
X307121575Y-149791764D02*
X307216813Y-149744145D01*
X307216813Y-149744145D02*
X307454908Y-149744145D01*
X307454908Y-149744145D02*
X307550146Y-149791764D01*
X307550146Y-149791764D02*
X307597765Y-149839383D01*
X307597765Y-149839383D02*
X307645384Y-149934621D01*
X307645384Y-149934621D02*
X307645384Y-150172716D01*
X307645384Y-150172716D02*
X307597765Y-150267954D01*
X307597765Y-150267954D02*
X307550146Y-150315574D01*
X307550146Y-150315574D02*
X307454908Y-150363193D01*
X307454908Y-150363193D02*
X307216813Y-150363193D01*
X307216813Y-150363193D02*
X307121575Y-150315574D01*
X307121575Y-150315574D02*
X307073956Y-150267954D01*
X307978718Y-149363193D02*
X308597765Y-149363193D01*
X308597765Y-149363193D02*
X308264432Y-149744145D01*
X308264432Y-149744145D02*
X308407289Y-149744145D01*
X308407289Y-149744145D02*
X308502527Y-149791764D01*
X308502527Y-149791764D02*
X308550146Y-149839383D01*
X308550146Y-149839383D02*
X308597765Y-149934621D01*
X308597765Y-149934621D02*
X308597765Y-150172716D01*
X308597765Y-150172716D02*
X308550146Y-150267954D01*
X308550146Y-150267954D02*
X308502527Y-150315574D01*
X308502527Y-150315574D02*
X308407289Y-150363193D01*
X308407289Y-150363193D02*
X308121575Y-150363193D01*
X308121575Y-150363193D02*
X308026337Y-150315574D01*
X308026337Y-150315574D02*
X307978718Y-150267954D01*
X40693003Y-103123193D02*
X40359670Y-102647002D01*
X40121575Y-103123193D02*
X40121575Y-102123193D01*
X40121575Y-102123193D02*
X40502527Y-102123193D01*
X40502527Y-102123193D02*
X40597765Y-102170812D01*
X40597765Y-102170812D02*
X40645384Y-102218431D01*
X40645384Y-102218431D02*
X40693003Y-102313669D01*
X40693003Y-102313669D02*
X40693003Y-102456526D01*
X40693003Y-102456526D02*
X40645384Y-102551764D01*
X40645384Y-102551764D02*
X40597765Y-102599383D01*
X40597765Y-102599383D02*
X40502527Y-102647002D01*
X40502527Y-102647002D02*
X40121575Y-102647002D01*
X41645384Y-103123193D02*
X41073956Y-103123193D01*
X41359670Y-103123193D02*
X41359670Y-102123193D01*
X41359670Y-102123193D02*
X41264432Y-102266050D01*
X41264432Y-102266050D02*
X41169194Y-102361288D01*
X41169194Y-102361288D02*
X41073956Y-102408907D01*
X42216813Y-102551764D02*
X42121575Y-102504145D01*
X42121575Y-102504145D02*
X42073956Y-102456526D01*
X42073956Y-102456526D02*
X42026337Y-102361288D01*
X42026337Y-102361288D02*
X42026337Y-102313669D01*
X42026337Y-102313669D02*
X42073956Y-102218431D01*
X42073956Y-102218431D02*
X42121575Y-102170812D01*
X42121575Y-102170812D02*
X42216813Y-102123193D01*
X42216813Y-102123193D02*
X42407289Y-102123193D01*
X42407289Y-102123193D02*
X42502527Y-102170812D01*
X42502527Y-102170812D02*
X42550146Y-102218431D01*
X42550146Y-102218431D02*
X42597765Y-102313669D01*
X42597765Y-102313669D02*
X42597765Y-102361288D01*
X42597765Y-102361288D02*
X42550146Y-102456526D01*
X42550146Y-102456526D02*
X42502527Y-102504145D01*
X42502527Y-102504145D02*
X42407289Y-102551764D01*
X42407289Y-102551764D02*
X42216813Y-102551764D01*
X42216813Y-102551764D02*
X42121575Y-102599383D01*
X42121575Y-102599383D02*
X42073956Y-102647002D01*
X42073956Y-102647002D02*
X42026337Y-102742240D01*
X42026337Y-102742240D02*
X42026337Y-102932716D01*
X42026337Y-102932716D02*
X42073956Y-103027954D01*
X42073956Y-103027954D02*
X42121575Y-103075574D01*
X42121575Y-103075574D02*
X42216813Y-103123193D01*
X42216813Y-103123193D02*
X42407289Y-103123193D01*
X42407289Y-103123193D02*
X42502527Y-103075574D01*
X42502527Y-103075574D02*
X42550146Y-103027954D01*
X42550146Y-103027954D02*
X42597765Y-102932716D01*
X42597765Y-102932716D02*
X42597765Y-102742240D01*
X42597765Y-102742240D02*
X42550146Y-102647002D01*
X42550146Y-102647002D02*
X42502527Y-102599383D01*
X42502527Y-102599383D02*
X42407289Y-102551764D01*
X150503003Y-162897954D02*
X150455384Y-162945574D01*
X150455384Y-162945574D02*
X150312527Y-162993193D01*
X150312527Y-162993193D02*
X150217289Y-162993193D01*
X150217289Y-162993193D02*
X150074432Y-162945574D01*
X150074432Y-162945574D02*
X149979194Y-162850335D01*
X149979194Y-162850335D02*
X149931575Y-162755097D01*
X149931575Y-162755097D02*
X149883956Y-162564621D01*
X149883956Y-162564621D02*
X149883956Y-162421764D01*
X149883956Y-162421764D02*
X149931575Y-162231288D01*
X149931575Y-162231288D02*
X149979194Y-162136050D01*
X149979194Y-162136050D02*
X150074432Y-162040812D01*
X150074432Y-162040812D02*
X150217289Y-161993193D01*
X150217289Y-161993193D02*
X150312527Y-161993193D01*
X150312527Y-161993193D02*
X150455384Y-162040812D01*
X150455384Y-162040812D02*
X150503003Y-162088431D01*
X151455384Y-162993193D02*
X150883956Y-162993193D01*
X151169670Y-162993193D02*
X151169670Y-161993193D01*
X151169670Y-161993193D02*
X151074432Y-162136050D01*
X151074432Y-162136050D02*
X150979194Y-162231288D01*
X150979194Y-162231288D02*
X150883956Y-162278907D01*
X151836337Y-162088431D02*
X151883956Y-162040812D01*
X151883956Y-162040812D02*
X151979194Y-161993193D01*
X151979194Y-161993193D02*
X152217289Y-161993193D01*
X152217289Y-161993193D02*
X152312527Y-162040812D01*
X152312527Y-162040812D02*
X152360146Y-162088431D01*
X152360146Y-162088431D02*
X152407765Y-162183669D01*
X152407765Y-162183669D02*
X152407765Y-162278907D01*
X152407765Y-162278907D02*
X152360146Y-162421764D01*
X152360146Y-162421764D02*
X151788718Y-162993193D01*
X151788718Y-162993193D02*
X152407765Y-162993193D01*
X239003003Y-172397954D02*
X238955384Y-172445574D01*
X238955384Y-172445574D02*
X238812527Y-172493193D01*
X238812527Y-172493193D02*
X238717289Y-172493193D01*
X238717289Y-172493193D02*
X238574432Y-172445574D01*
X238574432Y-172445574D02*
X238479194Y-172350335D01*
X238479194Y-172350335D02*
X238431575Y-172255097D01*
X238431575Y-172255097D02*
X238383956Y-172064621D01*
X238383956Y-172064621D02*
X238383956Y-171921764D01*
X238383956Y-171921764D02*
X238431575Y-171731288D01*
X238431575Y-171731288D02*
X238479194Y-171636050D01*
X238479194Y-171636050D02*
X238574432Y-171540812D01*
X238574432Y-171540812D02*
X238717289Y-171493193D01*
X238717289Y-171493193D02*
X238812527Y-171493193D01*
X238812527Y-171493193D02*
X238955384Y-171540812D01*
X238955384Y-171540812D02*
X239003003Y-171588431D01*
X239955384Y-172493193D02*
X239383956Y-172493193D01*
X239669670Y-172493193D02*
X239669670Y-171493193D01*
X239669670Y-171493193D02*
X239574432Y-171636050D01*
X239574432Y-171636050D02*
X239479194Y-171731288D01*
X239479194Y-171731288D02*
X239383956Y-171778907D01*
X240860146Y-171493193D02*
X240383956Y-171493193D01*
X240383956Y-171493193D02*
X240336337Y-171969383D01*
X240336337Y-171969383D02*
X240383956Y-171921764D01*
X240383956Y-171921764D02*
X240479194Y-171874145D01*
X240479194Y-171874145D02*
X240717289Y-171874145D01*
X240717289Y-171874145D02*
X240812527Y-171921764D01*
X240812527Y-171921764D02*
X240860146Y-171969383D01*
X240860146Y-171969383D02*
X240907765Y-172064621D01*
X240907765Y-172064621D02*
X240907765Y-172302716D01*
X240907765Y-172302716D02*
X240860146Y-172397954D01*
X240860146Y-172397954D02*
X240812527Y-172445574D01*
X240812527Y-172445574D02*
X240717289Y-172493193D01*
X240717289Y-172493193D02*
X240479194Y-172493193D01*
X240479194Y-172493193D02*
X240383956Y-172445574D01*
X240383956Y-172445574D02*
X240336337Y-172397954D01*
X194003003Y-106363193D02*
X193669670Y-105887002D01*
X193431575Y-106363193D02*
X193431575Y-105363193D01*
X193431575Y-105363193D02*
X193812527Y-105363193D01*
X193812527Y-105363193D02*
X193907765Y-105410812D01*
X193907765Y-105410812D02*
X193955384Y-105458431D01*
X193955384Y-105458431D02*
X194003003Y-105553669D01*
X194003003Y-105553669D02*
X194003003Y-105696526D01*
X194003003Y-105696526D02*
X193955384Y-105791764D01*
X193955384Y-105791764D02*
X193907765Y-105839383D01*
X193907765Y-105839383D02*
X193812527Y-105887002D01*
X193812527Y-105887002D02*
X193431575Y-105887002D01*
X194860146Y-105696526D02*
X194860146Y-106363193D01*
X194622051Y-105315574D02*
X194383956Y-106029859D01*
X194383956Y-106029859D02*
X195003003Y-106029859D01*
X195574432Y-105363193D02*
X195669670Y-105363193D01*
X195669670Y-105363193D02*
X195764908Y-105410812D01*
X195764908Y-105410812D02*
X195812527Y-105458431D01*
X195812527Y-105458431D02*
X195860146Y-105553669D01*
X195860146Y-105553669D02*
X195907765Y-105744145D01*
X195907765Y-105744145D02*
X195907765Y-105982240D01*
X195907765Y-105982240D02*
X195860146Y-106172716D01*
X195860146Y-106172716D02*
X195812527Y-106267954D01*
X195812527Y-106267954D02*
X195764908Y-106315574D01*
X195764908Y-106315574D02*
X195669670Y-106363193D01*
X195669670Y-106363193D02*
X195574432Y-106363193D01*
X195574432Y-106363193D02*
X195479194Y-106315574D01*
X195479194Y-106315574D02*
X195431575Y-106267954D01*
X195431575Y-106267954D02*
X195383956Y-106172716D01*
X195383956Y-106172716D02*
X195336337Y-105982240D01*
X195336337Y-105982240D02*
X195336337Y-105744145D01*
X195336337Y-105744145D02*
X195383956Y-105553669D01*
X195383956Y-105553669D02*
X195431575Y-105458431D01*
X195431575Y-105458431D02*
X195479194Y-105410812D01*
X195479194Y-105410812D02*
X195574432Y-105363193D01*
X319605441Y-136931231D02*
X319653061Y-136978850D01*
X319653061Y-136978850D02*
X319700680Y-137121707D01*
X319700680Y-137121707D02*
X319700680Y-137216945D01*
X319700680Y-137216945D02*
X319653061Y-137359802D01*
X319653061Y-137359802D02*
X319557822Y-137455040D01*
X319557822Y-137455040D02*
X319462584Y-137502659D01*
X319462584Y-137502659D02*
X319272108Y-137550278D01*
X319272108Y-137550278D02*
X319129251Y-137550278D01*
X319129251Y-137550278D02*
X318938775Y-137502659D01*
X318938775Y-137502659D02*
X318843537Y-137455040D01*
X318843537Y-137455040D02*
X318748299Y-137359802D01*
X318748299Y-137359802D02*
X318700680Y-137216945D01*
X318700680Y-137216945D02*
X318700680Y-137121707D01*
X318700680Y-137121707D02*
X318748299Y-136978850D01*
X318748299Y-136978850D02*
X318795918Y-136931231D01*
X319700680Y-135978850D02*
X319700680Y-136550278D01*
X319700680Y-136264564D02*
X318700680Y-136264564D01*
X318700680Y-136264564D02*
X318843537Y-136359802D01*
X318843537Y-136359802D02*
X318938775Y-136455040D01*
X318938775Y-136455040D02*
X318986394Y-136550278D01*
X318700680Y-135121707D02*
X318700680Y-135312183D01*
X318700680Y-135312183D02*
X318748299Y-135407421D01*
X318748299Y-135407421D02*
X318795918Y-135455040D01*
X318795918Y-135455040D02*
X318938775Y-135550278D01*
X318938775Y-135550278D02*
X319129251Y-135597897D01*
X319129251Y-135597897D02*
X319510203Y-135597897D01*
X319510203Y-135597897D02*
X319605441Y-135550278D01*
X319605441Y-135550278D02*
X319653061Y-135502659D01*
X319653061Y-135502659D02*
X319700680Y-135407421D01*
X319700680Y-135407421D02*
X319700680Y-135216945D01*
X319700680Y-135216945D02*
X319653061Y-135121707D01*
X319653061Y-135121707D02*
X319605441Y-135074088D01*
X319605441Y-135074088D02*
X319510203Y-135026469D01*
X319510203Y-135026469D02*
X319272108Y-135026469D01*
X319272108Y-135026469D02*
X319176870Y-135074088D01*
X319176870Y-135074088D02*
X319129251Y-135121707D01*
X319129251Y-135121707D02*
X319081632Y-135216945D01*
X319081632Y-135216945D02*
X319081632Y-135407421D01*
X319081632Y-135407421D02*
X319129251Y-135502659D01*
X319129251Y-135502659D02*
X319176870Y-135550278D01*
X319176870Y-135550278D02*
X319272108Y-135597897D01*
X98503003Y-111363193D02*
X98169670Y-110887002D01*
X97931575Y-111363193D02*
X97931575Y-110363193D01*
X97931575Y-110363193D02*
X98312527Y-110363193D01*
X98312527Y-110363193D02*
X98407765Y-110410812D01*
X98407765Y-110410812D02*
X98455384Y-110458431D01*
X98455384Y-110458431D02*
X98503003Y-110553669D01*
X98503003Y-110553669D02*
X98503003Y-110696526D01*
X98503003Y-110696526D02*
X98455384Y-110791764D01*
X98455384Y-110791764D02*
X98407765Y-110839383D01*
X98407765Y-110839383D02*
X98312527Y-110887002D01*
X98312527Y-110887002D02*
X97931575Y-110887002D01*
X98836337Y-110363193D02*
X99455384Y-110363193D01*
X99455384Y-110363193D02*
X99122051Y-110744145D01*
X99122051Y-110744145D02*
X99264908Y-110744145D01*
X99264908Y-110744145D02*
X99360146Y-110791764D01*
X99360146Y-110791764D02*
X99407765Y-110839383D01*
X99407765Y-110839383D02*
X99455384Y-110934621D01*
X99455384Y-110934621D02*
X99455384Y-111172716D01*
X99455384Y-111172716D02*
X99407765Y-111267954D01*
X99407765Y-111267954D02*
X99360146Y-111315574D01*
X99360146Y-111315574D02*
X99264908Y-111363193D01*
X99264908Y-111363193D02*
X98979194Y-111363193D01*
X98979194Y-111363193D02*
X98883956Y-111315574D01*
X98883956Y-111315574D02*
X98836337Y-111267954D01*
X99836337Y-110458431D02*
X99883956Y-110410812D01*
X99883956Y-110410812D02*
X99979194Y-110363193D01*
X99979194Y-110363193D02*
X100217289Y-110363193D01*
X100217289Y-110363193D02*
X100312527Y-110410812D01*
X100312527Y-110410812D02*
X100360146Y-110458431D01*
X100360146Y-110458431D02*
X100407765Y-110553669D01*
X100407765Y-110553669D02*
X100407765Y-110648907D01*
X100407765Y-110648907D02*
X100360146Y-110791764D01*
X100360146Y-110791764D02*
X99788718Y-111363193D01*
X99788718Y-111363193D02*
X100407765Y-111363193D01*
X342693003Y-160363193D02*
X342359670Y-159887002D01*
X342121575Y-160363193D02*
X342121575Y-159363193D01*
X342121575Y-159363193D02*
X342502527Y-159363193D01*
X342502527Y-159363193D02*
X342597765Y-159410812D01*
X342597765Y-159410812D02*
X342645384Y-159458431D01*
X342645384Y-159458431D02*
X342693003Y-159553669D01*
X342693003Y-159553669D02*
X342693003Y-159696526D01*
X342693003Y-159696526D02*
X342645384Y-159791764D01*
X342645384Y-159791764D02*
X342597765Y-159839383D01*
X342597765Y-159839383D02*
X342502527Y-159887002D01*
X342502527Y-159887002D02*
X342121575Y-159887002D01*
X343073956Y-159458431D02*
X343121575Y-159410812D01*
X343121575Y-159410812D02*
X343216813Y-159363193D01*
X343216813Y-159363193D02*
X343454908Y-159363193D01*
X343454908Y-159363193D02*
X343550146Y-159410812D01*
X343550146Y-159410812D02*
X343597765Y-159458431D01*
X343597765Y-159458431D02*
X343645384Y-159553669D01*
X343645384Y-159553669D02*
X343645384Y-159648907D01*
X343645384Y-159648907D02*
X343597765Y-159791764D01*
X343597765Y-159791764D02*
X343026337Y-160363193D01*
X343026337Y-160363193D02*
X343645384Y-160363193D01*
X344121575Y-160363193D02*
X344312051Y-160363193D01*
X344312051Y-160363193D02*
X344407289Y-160315574D01*
X344407289Y-160315574D02*
X344454908Y-160267954D01*
X344454908Y-160267954D02*
X344550146Y-160125097D01*
X344550146Y-160125097D02*
X344597765Y-159934621D01*
X344597765Y-159934621D02*
X344597765Y-159553669D01*
X344597765Y-159553669D02*
X344550146Y-159458431D01*
X344550146Y-159458431D02*
X344502527Y-159410812D01*
X344502527Y-159410812D02*
X344407289Y-159363193D01*
X344407289Y-159363193D02*
X344216813Y-159363193D01*
X344216813Y-159363193D02*
X344121575Y-159410812D01*
X344121575Y-159410812D02*
X344073956Y-159458431D01*
X344073956Y-159458431D02*
X344026337Y-159553669D01*
X344026337Y-159553669D02*
X344026337Y-159791764D01*
X344026337Y-159791764D02*
X344073956Y-159887002D01*
X344073956Y-159887002D02*
X344121575Y-159934621D01*
X344121575Y-159934621D02*
X344216813Y-159982240D01*
X344216813Y-159982240D02*
X344407289Y-159982240D01*
X344407289Y-159982240D02*
X344502527Y-159934621D01*
X344502527Y-159934621D02*
X344550146Y-159887002D01*
X344550146Y-159887002D02*
X344597765Y-159791764D01*
X31979194Y-103897954D02*
X31931575Y-103945574D01*
X31931575Y-103945574D02*
X31788718Y-103993193D01*
X31788718Y-103993193D02*
X31693480Y-103993193D01*
X31693480Y-103993193D02*
X31550623Y-103945574D01*
X31550623Y-103945574D02*
X31455385Y-103850335D01*
X31455385Y-103850335D02*
X31407766Y-103755097D01*
X31407766Y-103755097D02*
X31360147Y-103564621D01*
X31360147Y-103564621D02*
X31360147Y-103421764D01*
X31360147Y-103421764D02*
X31407766Y-103231288D01*
X31407766Y-103231288D02*
X31455385Y-103136050D01*
X31455385Y-103136050D02*
X31550623Y-103040812D01*
X31550623Y-103040812D02*
X31693480Y-102993193D01*
X31693480Y-102993193D02*
X31788718Y-102993193D01*
X31788718Y-102993193D02*
X31931575Y-103040812D01*
X31931575Y-103040812D02*
X31979194Y-103088431D01*
X32550623Y-103421764D02*
X32455385Y-103374145D01*
X32455385Y-103374145D02*
X32407766Y-103326526D01*
X32407766Y-103326526D02*
X32360147Y-103231288D01*
X32360147Y-103231288D02*
X32360147Y-103183669D01*
X32360147Y-103183669D02*
X32407766Y-103088431D01*
X32407766Y-103088431D02*
X32455385Y-103040812D01*
X32455385Y-103040812D02*
X32550623Y-102993193D01*
X32550623Y-102993193D02*
X32741099Y-102993193D01*
X32741099Y-102993193D02*
X32836337Y-103040812D01*
X32836337Y-103040812D02*
X32883956Y-103088431D01*
X32883956Y-103088431D02*
X32931575Y-103183669D01*
X32931575Y-103183669D02*
X32931575Y-103231288D01*
X32931575Y-103231288D02*
X32883956Y-103326526D01*
X32883956Y-103326526D02*
X32836337Y-103374145D01*
X32836337Y-103374145D02*
X32741099Y-103421764D01*
X32741099Y-103421764D02*
X32550623Y-103421764D01*
X32550623Y-103421764D02*
X32455385Y-103469383D01*
X32455385Y-103469383D02*
X32407766Y-103517002D01*
X32407766Y-103517002D02*
X32360147Y-103612240D01*
X32360147Y-103612240D02*
X32360147Y-103802716D01*
X32360147Y-103802716D02*
X32407766Y-103897954D01*
X32407766Y-103897954D02*
X32455385Y-103945574D01*
X32455385Y-103945574D02*
X32550623Y-103993193D01*
X32550623Y-103993193D02*
X32741099Y-103993193D01*
X32741099Y-103993193D02*
X32836337Y-103945574D01*
X32836337Y-103945574D02*
X32883956Y-103897954D01*
X32883956Y-103897954D02*
X32931575Y-103802716D01*
X32931575Y-103802716D02*
X32931575Y-103612240D01*
X32931575Y-103612240D02*
X32883956Y-103517002D01*
X32883956Y-103517002D02*
X32836337Y-103469383D01*
X32836337Y-103469383D02*
X32741099Y-103421764D01*
X193786666Y-119921373D02*
X193453333Y-119445182D01*
X193215238Y-119921373D02*
X193215238Y-118921373D01*
X193215238Y-118921373D02*
X193596190Y-118921373D01*
X193596190Y-118921373D02*
X193691428Y-118968992D01*
X193691428Y-118968992D02*
X193739047Y-119016611D01*
X193739047Y-119016611D02*
X193786666Y-119111849D01*
X193786666Y-119111849D02*
X193786666Y-119254706D01*
X193786666Y-119254706D02*
X193739047Y-119349944D01*
X193739047Y-119349944D02*
X193691428Y-119397563D01*
X193691428Y-119397563D02*
X193596190Y-119445182D01*
X193596190Y-119445182D02*
X193215238Y-119445182D01*
X194643809Y-119254706D02*
X194643809Y-119921373D01*
X194405714Y-118873754D02*
X194167619Y-119588039D01*
X194167619Y-119588039D02*
X194786666Y-119588039D01*
X195072381Y-118921373D02*
X195739047Y-118921373D01*
X195739047Y-118921373D02*
X195310476Y-119921373D01*
X306813003Y-141123193D02*
X306479670Y-140647002D01*
X306241575Y-141123193D02*
X306241575Y-140123193D01*
X306241575Y-140123193D02*
X306622527Y-140123193D01*
X306622527Y-140123193D02*
X306717765Y-140170812D01*
X306717765Y-140170812D02*
X306765384Y-140218431D01*
X306765384Y-140218431D02*
X306813003Y-140313669D01*
X306813003Y-140313669D02*
X306813003Y-140456526D01*
X306813003Y-140456526D02*
X306765384Y-140551764D01*
X306765384Y-140551764D02*
X306717765Y-140599383D01*
X306717765Y-140599383D02*
X306622527Y-140647002D01*
X306622527Y-140647002D02*
X306241575Y-140647002D01*
X307717765Y-140123193D02*
X307241575Y-140123193D01*
X307241575Y-140123193D02*
X307193956Y-140599383D01*
X307193956Y-140599383D02*
X307241575Y-140551764D01*
X307241575Y-140551764D02*
X307336813Y-140504145D01*
X307336813Y-140504145D02*
X307574908Y-140504145D01*
X307574908Y-140504145D02*
X307670146Y-140551764D01*
X307670146Y-140551764D02*
X307717765Y-140599383D01*
X307717765Y-140599383D02*
X307765384Y-140694621D01*
X307765384Y-140694621D02*
X307765384Y-140932716D01*
X307765384Y-140932716D02*
X307717765Y-141027954D01*
X307717765Y-141027954D02*
X307670146Y-141075574D01*
X307670146Y-141075574D02*
X307574908Y-141123193D01*
X307574908Y-141123193D02*
X307336813Y-141123193D01*
X307336813Y-141123193D02*
X307241575Y-141075574D01*
X307241575Y-141075574D02*
X307193956Y-141027954D01*
X308098718Y-140123193D02*
X308765384Y-140123193D01*
X308765384Y-140123193D02*
X308336813Y-141123193D01*
X377693003Y-98123193D02*
X377359670Y-97647002D01*
X377121575Y-98123193D02*
X377121575Y-97123193D01*
X377121575Y-97123193D02*
X377502527Y-97123193D01*
X377502527Y-97123193D02*
X377597765Y-97170812D01*
X377597765Y-97170812D02*
X377645384Y-97218431D01*
X377645384Y-97218431D02*
X377693003Y-97313669D01*
X377693003Y-97313669D02*
X377693003Y-97456526D01*
X377693003Y-97456526D02*
X377645384Y-97551764D01*
X377645384Y-97551764D02*
X377597765Y-97599383D01*
X377597765Y-97599383D02*
X377502527Y-97647002D01*
X377502527Y-97647002D02*
X377121575Y-97647002D01*
X378597765Y-97123193D02*
X378121575Y-97123193D01*
X378121575Y-97123193D02*
X378073956Y-97599383D01*
X378073956Y-97599383D02*
X378121575Y-97551764D01*
X378121575Y-97551764D02*
X378216813Y-97504145D01*
X378216813Y-97504145D02*
X378454908Y-97504145D01*
X378454908Y-97504145D02*
X378550146Y-97551764D01*
X378550146Y-97551764D02*
X378597765Y-97599383D01*
X378597765Y-97599383D02*
X378645384Y-97694621D01*
X378645384Y-97694621D02*
X378645384Y-97932716D01*
X378645384Y-97932716D02*
X378597765Y-98027954D01*
X378597765Y-98027954D02*
X378550146Y-98075574D01*
X378550146Y-98075574D02*
X378454908Y-98123193D01*
X378454908Y-98123193D02*
X378216813Y-98123193D01*
X378216813Y-98123193D02*
X378121575Y-98075574D01*
X378121575Y-98075574D02*
X378073956Y-98027954D01*
X379216813Y-97551764D02*
X379121575Y-97504145D01*
X379121575Y-97504145D02*
X379073956Y-97456526D01*
X379073956Y-97456526D02*
X379026337Y-97361288D01*
X379026337Y-97361288D02*
X379026337Y-97313669D01*
X379026337Y-97313669D02*
X379073956Y-97218431D01*
X379073956Y-97218431D02*
X379121575Y-97170812D01*
X379121575Y-97170812D02*
X379216813Y-97123193D01*
X379216813Y-97123193D02*
X379407289Y-97123193D01*
X379407289Y-97123193D02*
X379502527Y-97170812D01*
X379502527Y-97170812D02*
X379550146Y-97218431D01*
X379550146Y-97218431D02*
X379597765Y-97313669D01*
X379597765Y-97313669D02*
X379597765Y-97361288D01*
X379597765Y-97361288D02*
X379550146Y-97456526D01*
X379550146Y-97456526D02*
X379502527Y-97504145D01*
X379502527Y-97504145D02*
X379407289Y-97551764D01*
X379407289Y-97551764D02*
X379216813Y-97551764D01*
X379216813Y-97551764D02*
X379121575Y-97599383D01*
X379121575Y-97599383D02*
X379073956Y-97647002D01*
X379073956Y-97647002D02*
X379026337Y-97742240D01*
X379026337Y-97742240D02*
X379026337Y-97932716D01*
X379026337Y-97932716D02*
X379073956Y-98027954D01*
X379073956Y-98027954D02*
X379121575Y-98075574D01*
X379121575Y-98075574D02*
X379216813Y-98123193D01*
X379216813Y-98123193D02*
X379407289Y-98123193D01*
X379407289Y-98123193D02*
X379502527Y-98075574D01*
X379502527Y-98075574D02*
X379550146Y-98027954D01*
X379550146Y-98027954D02*
X379597765Y-97932716D01*
X379597765Y-97932716D02*
X379597765Y-97742240D01*
X379597765Y-97742240D02*
X379550146Y-97647002D01*
X379550146Y-97647002D02*
X379502527Y-97599383D01*
X379502527Y-97599383D02*
X379407289Y-97551764D01*
X307313003Y-106363193D02*
X306979670Y-105887002D01*
X306741575Y-106363193D02*
X306741575Y-105363193D01*
X306741575Y-105363193D02*
X307122527Y-105363193D01*
X307122527Y-105363193D02*
X307217765Y-105410812D01*
X307217765Y-105410812D02*
X307265384Y-105458431D01*
X307265384Y-105458431D02*
X307313003Y-105553669D01*
X307313003Y-105553669D02*
X307313003Y-105696526D01*
X307313003Y-105696526D02*
X307265384Y-105791764D01*
X307265384Y-105791764D02*
X307217765Y-105839383D01*
X307217765Y-105839383D02*
X307122527Y-105887002D01*
X307122527Y-105887002D02*
X306741575Y-105887002D01*
X308170146Y-105696526D02*
X308170146Y-106363193D01*
X307932051Y-105315574D02*
X307693956Y-106029859D01*
X307693956Y-106029859D02*
X308313003Y-106029859D01*
X308741575Y-106363193D02*
X308932051Y-106363193D01*
X308932051Y-106363193D02*
X309027289Y-106315574D01*
X309027289Y-106315574D02*
X309074908Y-106267954D01*
X309074908Y-106267954D02*
X309170146Y-106125097D01*
X309170146Y-106125097D02*
X309217765Y-105934621D01*
X309217765Y-105934621D02*
X309217765Y-105553669D01*
X309217765Y-105553669D02*
X309170146Y-105458431D01*
X309170146Y-105458431D02*
X309122527Y-105410812D01*
X309122527Y-105410812D02*
X309027289Y-105363193D01*
X309027289Y-105363193D02*
X308836813Y-105363193D01*
X308836813Y-105363193D02*
X308741575Y-105410812D01*
X308741575Y-105410812D02*
X308693956Y-105458431D01*
X308693956Y-105458431D02*
X308646337Y-105553669D01*
X308646337Y-105553669D02*
X308646337Y-105791764D01*
X308646337Y-105791764D02*
X308693956Y-105887002D01*
X308693956Y-105887002D02*
X308741575Y-105934621D01*
X308741575Y-105934621D02*
X308836813Y-105982240D01*
X308836813Y-105982240D02*
X309027289Y-105982240D01*
X309027289Y-105982240D02*
X309122527Y-105934621D01*
X309122527Y-105934621D02*
X309170146Y-105887002D01*
X309170146Y-105887002D02*
X309217765Y-105791764D01*
X147530680Y-172990278D02*
X148340203Y-172990278D01*
X148340203Y-172990278D02*
X148435441Y-172942659D01*
X148435441Y-172942659D02*
X148483061Y-172895040D01*
X148483061Y-172895040D02*
X148530680Y-172799802D01*
X148530680Y-172799802D02*
X148530680Y-172609326D01*
X148530680Y-172609326D02*
X148483061Y-172514088D01*
X148483061Y-172514088D02*
X148435441Y-172466469D01*
X148435441Y-172466469D02*
X148340203Y-172418850D01*
X148340203Y-172418850D02*
X147530680Y-172418850D01*
X148530680Y-171895040D02*
X148530680Y-171704564D01*
X148530680Y-171704564D02*
X148483061Y-171609326D01*
X148483061Y-171609326D02*
X148435441Y-171561707D01*
X148435441Y-171561707D02*
X148292584Y-171466469D01*
X148292584Y-171466469D02*
X148102108Y-171418850D01*
X148102108Y-171418850D02*
X147721156Y-171418850D01*
X147721156Y-171418850D02*
X147625918Y-171466469D01*
X147625918Y-171466469D02*
X147578299Y-171514088D01*
X147578299Y-171514088D02*
X147530680Y-171609326D01*
X147530680Y-171609326D02*
X147530680Y-171799802D01*
X147530680Y-171799802D02*
X147578299Y-171895040D01*
X147578299Y-171895040D02*
X147625918Y-171942659D01*
X147625918Y-171942659D02*
X147721156Y-171990278D01*
X147721156Y-171990278D02*
X147959251Y-171990278D01*
X147959251Y-171990278D02*
X148054489Y-171942659D01*
X148054489Y-171942659D02*
X148102108Y-171895040D01*
X148102108Y-171895040D02*
X148149727Y-171799802D01*
X148149727Y-171799802D02*
X148149727Y-171609326D01*
X148149727Y-171609326D02*
X148102108Y-171514088D01*
X148102108Y-171514088D02*
X148054489Y-171466469D01*
X148054489Y-171466469D02*
X147959251Y-171418850D01*
X347073956Y-117163193D02*
X347073956Y-117972716D01*
X347073956Y-117972716D02*
X347121575Y-118067954D01*
X347121575Y-118067954D02*
X347169194Y-118115574D01*
X347169194Y-118115574D02*
X347264432Y-118163193D01*
X347264432Y-118163193D02*
X347454908Y-118163193D01*
X347454908Y-118163193D02*
X347550146Y-118115574D01*
X347550146Y-118115574D02*
X347597765Y-118067954D01*
X347597765Y-118067954D02*
X347645384Y-117972716D01*
X347645384Y-117972716D02*
X347645384Y-117163193D01*
X348264432Y-117591764D02*
X348169194Y-117544145D01*
X348169194Y-117544145D02*
X348121575Y-117496526D01*
X348121575Y-117496526D02*
X348073956Y-117401288D01*
X348073956Y-117401288D02*
X348073956Y-117353669D01*
X348073956Y-117353669D02*
X348121575Y-117258431D01*
X348121575Y-117258431D02*
X348169194Y-117210812D01*
X348169194Y-117210812D02*
X348264432Y-117163193D01*
X348264432Y-117163193D02*
X348454908Y-117163193D01*
X348454908Y-117163193D02*
X348550146Y-117210812D01*
X348550146Y-117210812D02*
X348597765Y-117258431D01*
X348597765Y-117258431D02*
X348645384Y-117353669D01*
X348645384Y-117353669D02*
X348645384Y-117401288D01*
X348645384Y-117401288D02*
X348597765Y-117496526D01*
X348597765Y-117496526D02*
X348550146Y-117544145D01*
X348550146Y-117544145D02*
X348454908Y-117591764D01*
X348454908Y-117591764D02*
X348264432Y-117591764D01*
X348264432Y-117591764D02*
X348169194Y-117639383D01*
X348169194Y-117639383D02*
X348121575Y-117687002D01*
X348121575Y-117687002D02*
X348073956Y-117782240D01*
X348073956Y-117782240D02*
X348073956Y-117972716D01*
X348073956Y-117972716D02*
X348121575Y-118067954D01*
X348121575Y-118067954D02*
X348169194Y-118115574D01*
X348169194Y-118115574D02*
X348264432Y-118163193D01*
X348264432Y-118163193D02*
X348454908Y-118163193D01*
X348454908Y-118163193D02*
X348550146Y-118115574D01*
X348550146Y-118115574D02*
X348597765Y-118067954D01*
X348597765Y-118067954D02*
X348645384Y-117972716D01*
X348645384Y-117972716D02*
X348645384Y-117782240D01*
X348645384Y-117782240D02*
X348597765Y-117687002D01*
X348597765Y-117687002D02*
X348550146Y-117639383D01*
X348550146Y-117639383D02*
X348454908Y-117591764D01*
X307313003Y-97123193D02*
X306979670Y-96647002D01*
X306741575Y-97123193D02*
X306741575Y-96123193D01*
X306741575Y-96123193D02*
X307122527Y-96123193D01*
X307122527Y-96123193D02*
X307217765Y-96170812D01*
X307217765Y-96170812D02*
X307265384Y-96218431D01*
X307265384Y-96218431D02*
X307313003Y-96313669D01*
X307313003Y-96313669D02*
X307313003Y-96456526D01*
X307313003Y-96456526D02*
X307265384Y-96551764D01*
X307265384Y-96551764D02*
X307217765Y-96599383D01*
X307217765Y-96599383D02*
X307122527Y-96647002D01*
X307122527Y-96647002D02*
X306741575Y-96647002D01*
X308217765Y-96123193D02*
X307741575Y-96123193D01*
X307741575Y-96123193D02*
X307693956Y-96599383D01*
X307693956Y-96599383D02*
X307741575Y-96551764D01*
X307741575Y-96551764D02*
X307836813Y-96504145D01*
X307836813Y-96504145D02*
X308074908Y-96504145D01*
X308074908Y-96504145D02*
X308170146Y-96551764D01*
X308170146Y-96551764D02*
X308217765Y-96599383D01*
X308217765Y-96599383D02*
X308265384Y-96694621D01*
X308265384Y-96694621D02*
X308265384Y-96932716D01*
X308265384Y-96932716D02*
X308217765Y-97027954D01*
X308217765Y-97027954D02*
X308170146Y-97075574D01*
X308170146Y-97075574D02*
X308074908Y-97123193D01*
X308074908Y-97123193D02*
X307836813Y-97123193D01*
X307836813Y-97123193D02*
X307741575Y-97075574D01*
X307741575Y-97075574D02*
X307693956Y-97027954D01*
X309170146Y-96123193D02*
X308693956Y-96123193D01*
X308693956Y-96123193D02*
X308646337Y-96599383D01*
X308646337Y-96599383D02*
X308693956Y-96551764D01*
X308693956Y-96551764D02*
X308789194Y-96504145D01*
X308789194Y-96504145D02*
X309027289Y-96504145D01*
X309027289Y-96504145D02*
X309122527Y-96551764D01*
X309122527Y-96551764D02*
X309170146Y-96599383D01*
X309170146Y-96599383D02*
X309217765Y-96694621D01*
X309217765Y-96694621D02*
X309217765Y-96932716D01*
X309217765Y-96932716D02*
X309170146Y-97027954D01*
X309170146Y-97027954D02*
X309122527Y-97075574D01*
X309122527Y-97075574D02*
X309027289Y-97123193D01*
X309027289Y-97123193D02*
X308789194Y-97123193D01*
X308789194Y-97123193D02*
X308693956Y-97075574D01*
X308693956Y-97075574D02*
X308646337Y-97027954D01*
X98503003Y-154863193D02*
X98169670Y-154387002D01*
X97931575Y-154863193D02*
X97931575Y-153863193D01*
X97931575Y-153863193D02*
X98312527Y-153863193D01*
X98312527Y-153863193D02*
X98407765Y-153910812D01*
X98407765Y-153910812D02*
X98455384Y-153958431D01*
X98455384Y-153958431D02*
X98503003Y-154053669D01*
X98503003Y-154053669D02*
X98503003Y-154196526D01*
X98503003Y-154196526D02*
X98455384Y-154291764D01*
X98455384Y-154291764D02*
X98407765Y-154339383D01*
X98407765Y-154339383D02*
X98312527Y-154387002D01*
X98312527Y-154387002D02*
X97931575Y-154387002D01*
X98836337Y-153863193D02*
X99455384Y-153863193D01*
X99455384Y-153863193D02*
X99122051Y-154244145D01*
X99122051Y-154244145D02*
X99264908Y-154244145D01*
X99264908Y-154244145D02*
X99360146Y-154291764D01*
X99360146Y-154291764D02*
X99407765Y-154339383D01*
X99407765Y-154339383D02*
X99455384Y-154434621D01*
X99455384Y-154434621D02*
X99455384Y-154672716D01*
X99455384Y-154672716D02*
X99407765Y-154767954D01*
X99407765Y-154767954D02*
X99360146Y-154815574D01*
X99360146Y-154815574D02*
X99264908Y-154863193D01*
X99264908Y-154863193D02*
X98979194Y-154863193D01*
X98979194Y-154863193D02*
X98883956Y-154815574D01*
X98883956Y-154815574D02*
X98836337Y-154767954D01*
X100026813Y-154291764D02*
X99931575Y-154244145D01*
X99931575Y-154244145D02*
X99883956Y-154196526D01*
X99883956Y-154196526D02*
X99836337Y-154101288D01*
X99836337Y-154101288D02*
X99836337Y-154053669D01*
X99836337Y-154053669D02*
X99883956Y-153958431D01*
X99883956Y-153958431D02*
X99931575Y-153910812D01*
X99931575Y-153910812D02*
X100026813Y-153863193D01*
X100026813Y-153863193D02*
X100217289Y-153863193D01*
X100217289Y-153863193D02*
X100312527Y-153910812D01*
X100312527Y-153910812D02*
X100360146Y-153958431D01*
X100360146Y-153958431D02*
X100407765Y-154053669D01*
X100407765Y-154053669D02*
X100407765Y-154101288D01*
X100407765Y-154101288D02*
X100360146Y-154196526D01*
X100360146Y-154196526D02*
X100312527Y-154244145D01*
X100312527Y-154244145D02*
X100217289Y-154291764D01*
X100217289Y-154291764D02*
X100026813Y-154291764D01*
X100026813Y-154291764D02*
X99931575Y-154339383D01*
X99931575Y-154339383D02*
X99883956Y-154387002D01*
X99883956Y-154387002D02*
X99836337Y-154482240D01*
X99836337Y-154482240D02*
X99836337Y-154672716D01*
X99836337Y-154672716D02*
X99883956Y-154767954D01*
X99883956Y-154767954D02*
X99931575Y-154815574D01*
X99931575Y-154815574D02*
X100026813Y-154863193D01*
X100026813Y-154863193D02*
X100217289Y-154863193D01*
X100217289Y-154863193D02*
X100312527Y-154815574D01*
X100312527Y-154815574D02*
X100360146Y-154767954D01*
X100360146Y-154767954D02*
X100407765Y-154672716D01*
X100407765Y-154672716D02*
X100407765Y-154482240D01*
X100407765Y-154482240D02*
X100360146Y-154387002D01*
X100360146Y-154387002D02*
X100312527Y-154339383D01*
X100312527Y-154339383D02*
X100217289Y-154291764D01*
X98313003Y-128863193D02*
X97979670Y-128387002D01*
X97741575Y-128863193D02*
X97741575Y-127863193D01*
X97741575Y-127863193D02*
X98122527Y-127863193D01*
X98122527Y-127863193D02*
X98217765Y-127910812D01*
X98217765Y-127910812D02*
X98265384Y-127958431D01*
X98265384Y-127958431D02*
X98313003Y-128053669D01*
X98313003Y-128053669D02*
X98313003Y-128196526D01*
X98313003Y-128196526D02*
X98265384Y-128291764D01*
X98265384Y-128291764D02*
X98217765Y-128339383D01*
X98217765Y-128339383D02*
X98122527Y-128387002D01*
X98122527Y-128387002D02*
X97741575Y-128387002D01*
X98646337Y-127863193D02*
X99265384Y-127863193D01*
X99265384Y-127863193D02*
X98932051Y-128244145D01*
X98932051Y-128244145D02*
X99074908Y-128244145D01*
X99074908Y-128244145D02*
X99170146Y-128291764D01*
X99170146Y-128291764D02*
X99217765Y-128339383D01*
X99217765Y-128339383D02*
X99265384Y-128434621D01*
X99265384Y-128434621D02*
X99265384Y-128672716D01*
X99265384Y-128672716D02*
X99217765Y-128767954D01*
X99217765Y-128767954D02*
X99170146Y-128815574D01*
X99170146Y-128815574D02*
X99074908Y-128863193D01*
X99074908Y-128863193D02*
X98789194Y-128863193D01*
X98789194Y-128863193D02*
X98693956Y-128815574D01*
X98693956Y-128815574D02*
X98646337Y-128767954D01*
X100122527Y-128196526D02*
X100122527Y-128863193D01*
X99884432Y-127815574D02*
X99646337Y-128529859D01*
X99646337Y-128529859D02*
X100265384Y-128529859D01*
X217813003Y-152623193D02*
X217479670Y-152147002D01*
X217241575Y-152623193D02*
X217241575Y-151623193D01*
X217241575Y-151623193D02*
X217622527Y-151623193D01*
X217622527Y-151623193D02*
X217717765Y-151670812D01*
X217717765Y-151670812D02*
X217765384Y-151718431D01*
X217765384Y-151718431D02*
X217813003Y-151813669D01*
X217813003Y-151813669D02*
X217813003Y-151956526D01*
X217813003Y-151956526D02*
X217765384Y-152051764D01*
X217765384Y-152051764D02*
X217717765Y-152099383D01*
X217717765Y-152099383D02*
X217622527Y-152147002D01*
X217622527Y-152147002D02*
X217241575Y-152147002D01*
X218193956Y-151718431D02*
X218241575Y-151670812D01*
X218241575Y-151670812D02*
X218336813Y-151623193D01*
X218336813Y-151623193D02*
X218574908Y-151623193D01*
X218574908Y-151623193D02*
X218670146Y-151670812D01*
X218670146Y-151670812D02*
X218717765Y-151718431D01*
X218717765Y-151718431D02*
X218765384Y-151813669D01*
X218765384Y-151813669D02*
X218765384Y-151908907D01*
X218765384Y-151908907D02*
X218717765Y-152051764D01*
X218717765Y-152051764D02*
X218146337Y-152623193D01*
X218146337Y-152623193D02*
X218765384Y-152623193D01*
X219622527Y-151623193D02*
X219432051Y-151623193D01*
X219432051Y-151623193D02*
X219336813Y-151670812D01*
X219336813Y-151670812D02*
X219289194Y-151718431D01*
X219289194Y-151718431D02*
X219193956Y-151861288D01*
X219193956Y-151861288D02*
X219146337Y-152051764D01*
X219146337Y-152051764D02*
X219146337Y-152432716D01*
X219146337Y-152432716D02*
X219193956Y-152527954D01*
X219193956Y-152527954D02*
X219241575Y-152575574D01*
X219241575Y-152575574D02*
X219336813Y-152623193D01*
X219336813Y-152623193D02*
X219527289Y-152623193D01*
X219527289Y-152623193D02*
X219622527Y-152575574D01*
X219622527Y-152575574D02*
X219670146Y-152527954D01*
X219670146Y-152527954D02*
X219717765Y-152432716D01*
X219717765Y-152432716D02*
X219717765Y-152194621D01*
X219717765Y-152194621D02*
X219670146Y-152099383D01*
X219670146Y-152099383D02*
X219622527Y-152051764D01*
X219622527Y-152051764D02*
X219527289Y-152004145D01*
X219527289Y-152004145D02*
X219336813Y-152004145D01*
X219336813Y-152004145D02*
X219241575Y-152051764D01*
X219241575Y-152051764D02*
X219193956Y-152099383D01*
X219193956Y-152099383D02*
X219146337Y-152194621D01*
X193813003Y-128863193D02*
X193479670Y-128387002D01*
X193241575Y-128863193D02*
X193241575Y-127863193D01*
X193241575Y-127863193D02*
X193622527Y-127863193D01*
X193622527Y-127863193D02*
X193717765Y-127910812D01*
X193717765Y-127910812D02*
X193765384Y-127958431D01*
X193765384Y-127958431D02*
X193813003Y-128053669D01*
X193813003Y-128053669D02*
X193813003Y-128196526D01*
X193813003Y-128196526D02*
X193765384Y-128291764D01*
X193765384Y-128291764D02*
X193717765Y-128339383D01*
X193717765Y-128339383D02*
X193622527Y-128387002D01*
X193622527Y-128387002D02*
X193241575Y-128387002D01*
X194670146Y-128196526D02*
X194670146Y-128863193D01*
X194432051Y-127815574D02*
X194193956Y-128529859D01*
X194193956Y-128529859D02*
X194813003Y-128529859D01*
X195146337Y-127958431D02*
X195193956Y-127910812D01*
X195193956Y-127910812D02*
X195289194Y-127863193D01*
X195289194Y-127863193D02*
X195527289Y-127863193D01*
X195527289Y-127863193D02*
X195622527Y-127910812D01*
X195622527Y-127910812D02*
X195670146Y-127958431D01*
X195670146Y-127958431D02*
X195717765Y-128053669D01*
X195717765Y-128053669D02*
X195717765Y-128148907D01*
X195717765Y-128148907D02*
X195670146Y-128291764D01*
X195670146Y-128291764D02*
X195098718Y-128863193D01*
X195098718Y-128863193D02*
X195717765Y-128863193D01*
X30729194Y-112297954D02*
X30681575Y-112345574D01*
X30681575Y-112345574D02*
X30538718Y-112393193D01*
X30538718Y-112393193D02*
X30443480Y-112393193D01*
X30443480Y-112393193D02*
X30300623Y-112345574D01*
X30300623Y-112345574D02*
X30205385Y-112250335D01*
X30205385Y-112250335D02*
X30157766Y-112155097D01*
X30157766Y-112155097D02*
X30110147Y-111964621D01*
X30110147Y-111964621D02*
X30110147Y-111821764D01*
X30110147Y-111821764D02*
X30157766Y-111631288D01*
X30157766Y-111631288D02*
X30205385Y-111536050D01*
X30205385Y-111536050D02*
X30300623Y-111440812D01*
X30300623Y-111440812D02*
X30443480Y-111393193D01*
X30443480Y-111393193D02*
X30538718Y-111393193D01*
X30538718Y-111393193D02*
X30681575Y-111440812D01*
X30681575Y-111440812D02*
X30729194Y-111488431D01*
X31062528Y-111393193D02*
X31729194Y-111393193D01*
X31729194Y-111393193D02*
X31300623Y-112393193D01*
X120479194Y-152397954D02*
X120431575Y-152445574D01*
X120431575Y-152445574D02*
X120288718Y-152493193D01*
X120288718Y-152493193D02*
X120193480Y-152493193D01*
X120193480Y-152493193D02*
X120050623Y-152445574D01*
X120050623Y-152445574D02*
X119955385Y-152350335D01*
X119955385Y-152350335D02*
X119907766Y-152255097D01*
X119907766Y-152255097D02*
X119860147Y-152064621D01*
X119860147Y-152064621D02*
X119860147Y-151921764D01*
X119860147Y-151921764D02*
X119907766Y-151731288D01*
X119907766Y-151731288D02*
X119955385Y-151636050D01*
X119955385Y-151636050D02*
X120050623Y-151540812D01*
X120050623Y-151540812D02*
X120193480Y-151493193D01*
X120193480Y-151493193D02*
X120288718Y-151493193D01*
X120288718Y-151493193D02*
X120431575Y-151540812D01*
X120431575Y-151540812D02*
X120479194Y-151588431D01*
X120955385Y-152493193D02*
X121145861Y-152493193D01*
X121145861Y-152493193D02*
X121241099Y-152445574D01*
X121241099Y-152445574D02*
X121288718Y-152397954D01*
X121288718Y-152397954D02*
X121383956Y-152255097D01*
X121383956Y-152255097D02*
X121431575Y-152064621D01*
X121431575Y-152064621D02*
X121431575Y-151683669D01*
X121431575Y-151683669D02*
X121383956Y-151588431D01*
X121383956Y-151588431D02*
X121336337Y-151540812D01*
X121336337Y-151540812D02*
X121241099Y-151493193D01*
X121241099Y-151493193D02*
X121050623Y-151493193D01*
X121050623Y-151493193D02*
X120955385Y-151540812D01*
X120955385Y-151540812D02*
X120907766Y-151588431D01*
X120907766Y-151588431D02*
X120860147Y-151683669D01*
X120860147Y-151683669D02*
X120860147Y-151921764D01*
X120860147Y-151921764D02*
X120907766Y-152017002D01*
X120907766Y-152017002D02*
X120955385Y-152064621D01*
X120955385Y-152064621D02*
X121050623Y-152112240D01*
X121050623Y-152112240D02*
X121241099Y-152112240D01*
X121241099Y-152112240D02*
X121336337Y-152064621D01*
X121336337Y-152064621D02*
X121383956Y-152017002D01*
X121383956Y-152017002D02*
X121431575Y-151921764D01*
X194003003Y-97623193D02*
X193669670Y-97147002D01*
X193431575Y-97623193D02*
X193431575Y-96623193D01*
X193431575Y-96623193D02*
X193812527Y-96623193D01*
X193812527Y-96623193D02*
X193907765Y-96670812D01*
X193907765Y-96670812D02*
X193955384Y-96718431D01*
X193955384Y-96718431D02*
X194003003Y-96813669D01*
X194003003Y-96813669D02*
X194003003Y-96956526D01*
X194003003Y-96956526D02*
X193955384Y-97051764D01*
X193955384Y-97051764D02*
X193907765Y-97099383D01*
X193907765Y-97099383D02*
X193812527Y-97147002D01*
X193812527Y-97147002D02*
X193431575Y-97147002D01*
X194860146Y-96956526D02*
X194860146Y-97623193D01*
X194622051Y-96575574D02*
X194383956Y-97289859D01*
X194383956Y-97289859D02*
X195003003Y-97289859D01*
X195812527Y-96623193D02*
X195622051Y-96623193D01*
X195622051Y-96623193D02*
X195526813Y-96670812D01*
X195526813Y-96670812D02*
X195479194Y-96718431D01*
X195479194Y-96718431D02*
X195383956Y-96861288D01*
X195383956Y-96861288D02*
X195336337Y-97051764D01*
X195336337Y-97051764D02*
X195336337Y-97432716D01*
X195336337Y-97432716D02*
X195383956Y-97527954D01*
X195383956Y-97527954D02*
X195431575Y-97575574D01*
X195431575Y-97575574D02*
X195526813Y-97623193D01*
X195526813Y-97623193D02*
X195717289Y-97623193D01*
X195717289Y-97623193D02*
X195812527Y-97575574D01*
X195812527Y-97575574D02*
X195860146Y-97527954D01*
X195860146Y-97527954D02*
X195907765Y-97432716D01*
X195907765Y-97432716D02*
X195907765Y-97194621D01*
X195907765Y-97194621D02*
X195860146Y-97099383D01*
X195860146Y-97099383D02*
X195812527Y-97051764D01*
X195812527Y-97051764D02*
X195717289Y-97004145D01*
X195717289Y-97004145D02*
X195526813Y-97004145D01*
X195526813Y-97004145D02*
X195431575Y-97051764D01*
X195431575Y-97051764D02*
X195383956Y-97099383D01*
X195383956Y-97099383D02*
X195336337Y-97194621D01*
X306813003Y-111363193D02*
X306479670Y-110887002D01*
X306241575Y-111363193D02*
X306241575Y-110363193D01*
X306241575Y-110363193D02*
X306622527Y-110363193D01*
X306622527Y-110363193D02*
X306717765Y-110410812D01*
X306717765Y-110410812D02*
X306765384Y-110458431D01*
X306765384Y-110458431D02*
X306813003Y-110553669D01*
X306813003Y-110553669D02*
X306813003Y-110696526D01*
X306813003Y-110696526D02*
X306765384Y-110791764D01*
X306765384Y-110791764D02*
X306717765Y-110839383D01*
X306717765Y-110839383D02*
X306622527Y-110887002D01*
X306622527Y-110887002D02*
X306241575Y-110887002D01*
X307717765Y-110363193D02*
X307241575Y-110363193D01*
X307241575Y-110363193D02*
X307193956Y-110839383D01*
X307193956Y-110839383D02*
X307241575Y-110791764D01*
X307241575Y-110791764D02*
X307336813Y-110744145D01*
X307336813Y-110744145D02*
X307574908Y-110744145D01*
X307574908Y-110744145D02*
X307670146Y-110791764D01*
X307670146Y-110791764D02*
X307717765Y-110839383D01*
X307717765Y-110839383D02*
X307765384Y-110934621D01*
X307765384Y-110934621D02*
X307765384Y-111172716D01*
X307765384Y-111172716D02*
X307717765Y-111267954D01*
X307717765Y-111267954D02*
X307670146Y-111315574D01*
X307670146Y-111315574D02*
X307574908Y-111363193D01*
X307574908Y-111363193D02*
X307336813Y-111363193D01*
X307336813Y-111363193D02*
X307241575Y-111315574D01*
X307241575Y-111315574D02*
X307193956Y-111267954D01*
X308384432Y-110363193D02*
X308479670Y-110363193D01*
X308479670Y-110363193D02*
X308574908Y-110410812D01*
X308574908Y-110410812D02*
X308622527Y-110458431D01*
X308622527Y-110458431D02*
X308670146Y-110553669D01*
X308670146Y-110553669D02*
X308717765Y-110744145D01*
X308717765Y-110744145D02*
X308717765Y-110982240D01*
X308717765Y-110982240D02*
X308670146Y-111172716D01*
X308670146Y-111172716D02*
X308622527Y-111267954D01*
X308622527Y-111267954D02*
X308574908Y-111315574D01*
X308574908Y-111315574D02*
X308479670Y-111363193D01*
X308479670Y-111363193D02*
X308384432Y-111363193D01*
X308384432Y-111363193D02*
X308289194Y-111315574D01*
X308289194Y-111315574D02*
X308241575Y-111267954D01*
X308241575Y-111267954D02*
X308193956Y-111172716D01*
X308193956Y-111172716D02*
X308146337Y-110982240D01*
X308146337Y-110982240D02*
X308146337Y-110744145D01*
X308146337Y-110744145D02*
X308193956Y-110553669D01*
X308193956Y-110553669D02*
X308241575Y-110458431D01*
X308241575Y-110458431D02*
X308289194Y-110410812D01*
X308289194Y-110410812D02*
X308384432Y-110363193D01*
X353503003Y-113397954D02*
X353455384Y-113445574D01*
X353455384Y-113445574D02*
X353312527Y-113493193D01*
X353312527Y-113493193D02*
X353217289Y-113493193D01*
X353217289Y-113493193D02*
X353074432Y-113445574D01*
X353074432Y-113445574D02*
X352979194Y-113350335D01*
X352979194Y-113350335D02*
X352931575Y-113255097D01*
X352931575Y-113255097D02*
X352883956Y-113064621D01*
X352883956Y-113064621D02*
X352883956Y-112921764D01*
X352883956Y-112921764D02*
X352931575Y-112731288D01*
X352931575Y-112731288D02*
X352979194Y-112636050D01*
X352979194Y-112636050D02*
X353074432Y-112540812D01*
X353074432Y-112540812D02*
X353217289Y-112493193D01*
X353217289Y-112493193D02*
X353312527Y-112493193D01*
X353312527Y-112493193D02*
X353455384Y-112540812D01*
X353455384Y-112540812D02*
X353503003Y-112588431D01*
X354455384Y-113493193D02*
X353883956Y-113493193D01*
X354169670Y-113493193D02*
X354169670Y-112493193D01*
X354169670Y-112493193D02*
X354074432Y-112636050D01*
X354074432Y-112636050D02*
X353979194Y-112731288D01*
X353979194Y-112731288D02*
X353883956Y-112778907D01*
X355407765Y-113493193D02*
X354836337Y-113493193D01*
X355122051Y-113493193D02*
X355122051Y-112493193D01*
X355122051Y-112493193D02*
X355026813Y-112636050D01*
X355026813Y-112636050D02*
X354931575Y-112731288D01*
X354931575Y-112731288D02*
X354836337Y-112778907D01*
X98503003Y-107363193D02*
X98169670Y-106887002D01*
X97931575Y-107363193D02*
X97931575Y-106363193D01*
X97931575Y-106363193D02*
X98312527Y-106363193D01*
X98312527Y-106363193D02*
X98407765Y-106410812D01*
X98407765Y-106410812D02*
X98455384Y-106458431D01*
X98455384Y-106458431D02*
X98503003Y-106553669D01*
X98503003Y-106553669D02*
X98503003Y-106696526D01*
X98503003Y-106696526D02*
X98455384Y-106791764D01*
X98455384Y-106791764D02*
X98407765Y-106839383D01*
X98407765Y-106839383D02*
X98312527Y-106887002D01*
X98312527Y-106887002D02*
X97931575Y-106887002D01*
X98836337Y-106363193D02*
X99455384Y-106363193D01*
X99455384Y-106363193D02*
X99122051Y-106744145D01*
X99122051Y-106744145D02*
X99264908Y-106744145D01*
X99264908Y-106744145D02*
X99360146Y-106791764D01*
X99360146Y-106791764D02*
X99407765Y-106839383D01*
X99407765Y-106839383D02*
X99455384Y-106934621D01*
X99455384Y-106934621D02*
X99455384Y-107172716D01*
X99455384Y-107172716D02*
X99407765Y-107267954D01*
X99407765Y-107267954D02*
X99360146Y-107315574D01*
X99360146Y-107315574D02*
X99264908Y-107363193D01*
X99264908Y-107363193D02*
X98979194Y-107363193D01*
X98979194Y-107363193D02*
X98883956Y-107315574D01*
X98883956Y-107315574D02*
X98836337Y-107267954D01*
X99788718Y-106363193D02*
X100407765Y-106363193D01*
X100407765Y-106363193D02*
X100074432Y-106744145D01*
X100074432Y-106744145D02*
X100217289Y-106744145D01*
X100217289Y-106744145D02*
X100312527Y-106791764D01*
X100312527Y-106791764D02*
X100360146Y-106839383D01*
X100360146Y-106839383D02*
X100407765Y-106934621D01*
X100407765Y-106934621D02*
X100407765Y-107172716D01*
X100407765Y-107172716D02*
X100360146Y-107267954D01*
X100360146Y-107267954D02*
X100312527Y-107315574D01*
X100312527Y-107315574D02*
X100217289Y-107363193D01*
X100217289Y-107363193D02*
X99931575Y-107363193D01*
X99931575Y-107363193D02*
X99836337Y-107315574D01*
X99836337Y-107315574D02*
X99788718Y-107267954D01*
X239253003Y-168297954D02*
X239205384Y-168345574D01*
X239205384Y-168345574D02*
X239062527Y-168393193D01*
X239062527Y-168393193D02*
X238967289Y-168393193D01*
X238967289Y-168393193D02*
X238824432Y-168345574D01*
X238824432Y-168345574D02*
X238729194Y-168250335D01*
X238729194Y-168250335D02*
X238681575Y-168155097D01*
X238681575Y-168155097D02*
X238633956Y-167964621D01*
X238633956Y-167964621D02*
X238633956Y-167821764D01*
X238633956Y-167821764D02*
X238681575Y-167631288D01*
X238681575Y-167631288D02*
X238729194Y-167536050D01*
X238729194Y-167536050D02*
X238824432Y-167440812D01*
X238824432Y-167440812D02*
X238967289Y-167393193D01*
X238967289Y-167393193D02*
X239062527Y-167393193D01*
X239062527Y-167393193D02*
X239205384Y-167440812D01*
X239205384Y-167440812D02*
X239253003Y-167488431D01*
X240205384Y-168393193D02*
X239633956Y-168393193D01*
X239919670Y-168393193D02*
X239919670Y-167393193D01*
X239919670Y-167393193D02*
X239824432Y-167536050D01*
X239824432Y-167536050D02*
X239729194Y-167631288D01*
X239729194Y-167631288D02*
X239633956Y-167678907D01*
X241062527Y-167726526D02*
X241062527Y-168393193D01*
X240824432Y-167345574D02*
X240586337Y-168059859D01*
X240586337Y-168059859D02*
X241205384Y-168059859D01*
X117605441Y-109113611D02*
X117653061Y-109161230D01*
X117653061Y-109161230D02*
X117700680Y-109304087D01*
X117700680Y-109304087D02*
X117700680Y-109399325D01*
X117700680Y-109399325D02*
X117653061Y-109542182D01*
X117653061Y-109542182D02*
X117557822Y-109637420D01*
X117557822Y-109637420D02*
X117462584Y-109685039D01*
X117462584Y-109685039D02*
X117272108Y-109732658D01*
X117272108Y-109732658D02*
X117129251Y-109732658D01*
X117129251Y-109732658D02*
X116938775Y-109685039D01*
X116938775Y-109685039D02*
X116843537Y-109637420D01*
X116843537Y-109637420D02*
X116748299Y-109542182D01*
X116748299Y-109542182D02*
X116700680Y-109399325D01*
X116700680Y-109399325D02*
X116700680Y-109304087D01*
X116700680Y-109304087D02*
X116748299Y-109161230D01*
X116748299Y-109161230D02*
X116795918Y-109113611D01*
X116795918Y-108732658D02*
X116748299Y-108685039D01*
X116748299Y-108685039D02*
X116700680Y-108589801D01*
X116700680Y-108589801D02*
X116700680Y-108351706D01*
X116700680Y-108351706D02*
X116748299Y-108256468D01*
X116748299Y-108256468D02*
X116795918Y-108208849D01*
X116795918Y-108208849D02*
X116891156Y-108161230D01*
X116891156Y-108161230D02*
X116986394Y-108161230D01*
X116986394Y-108161230D02*
X117129251Y-108208849D01*
X117129251Y-108208849D02*
X117700680Y-108780277D01*
X117700680Y-108780277D02*
X117700680Y-108161230D01*
X116795918Y-107780277D02*
X116748299Y-107732658D01*
X116748299Y-107732658D02*
X116700680Y-107637420D01*
X116700680Y-107637420D02*
X116700680Y-107399325D01*
X116700680Y-107399325D02*
X116748299Y-107304087D01*
X116748299Y-107304087D02*
X116795918Y-107256468D01*
X116795918Y-107256468D02*
X116891156Y-107208849D01*
X116891156Y-107208849D02*
X116986394Y-107208849D01*
X116986394Y-107208849D02*
X117129251Y-107256468D01*
X117129251Y-107256468D02*
X117700680Y-107827896D01*
X117700680Y-107827896D02*
X117700680Y-107208849D01*
X193813003Y-132863193D02*
X193479670Y-132387002D01*
X193241575Y-132863193D02*
X193241575Y-131863193D01*
X193241575Y-131863193D02*
X193622527Y-131863193D01*
X193622527Y-131863193D02*
X193717765Y-131910812D01*
X193717765Y-131910812D02*
X193765384Y-131958431D01*
X193765384Y-131958431D02*
X193813003Y-132053669D01*
X193813003Y-132053669D02*
X193813003Y-132196526D01*
X193813003Y-132196526D02*
X193765384Y-132291764D01*
X193765384Y-132291764D02*
X193717765Y-132339383D01*
X193717765Y-132339383D02*
X193622527Y-132387002D01*
X193622527Y-132387002D02*
X193241575Y-132387002D01*
X194670146Y-132196526D02*
X194670146Y-132863193D01*
X194432051Y-131815574D02*
X194193956Y-132529859D01*
X194193956Y-132529859D02*
X194813003Y-132529859D01*
X195098718Y-131863193D02*
X195717765Y-131863193D01*
X195717765Y-131863193D02*
X195384432Y-132244145D01*
X195384432Y-132244145D02*
X195527289Y-132244145D01*
X195527289Y-132244145D02*
X195622527Y-132291764D01*
X195622527Y-132291764D02*
X195670146Y-132339383D01*
X195670146Y-132339383D02*
X195717765Y-132434621D01*
X195717765Y-132434621D02*
X195717765Y-132672716D01*
X195717765Y-132672716D02*
X195670146Y-132767954D01*
X195670146Y-132767954D02*
X195622527Y-132815574D01*
X195622527Y-132815574D02*
X195527289Y-132863193D01*
X195527289Y-132863193D02*
X195241575Y-132863193D01*
X195241575Y-132863193D02*
X195146337Y-132815574D01*
X195146337Y-132815574D02*
X195098718Y-132767954D01*
X379003003Y-114123193D02*
X378669670Y-113647002D01*
X378431575Y-114123193D02*
X378431575Y-113123193D01*
X378431575Y-113123193D02*
X378812527Y-113123193D01*
X378812527Y-113123193D02*
X378907765Y-113170812D01*
X378907765Y-113170812D02*
X378955384Y-113218431D01*
X378955384Y-113218431D02*
X379003003Y-113313669D01*
X379003003Y-113313669D02*
X379003003Y-113456526D01*
X379003003Y-113456526D02*
X378955384Y-113551764D01*
X378955384Y-113551764D02*
X378907765Y-113599383D01*
X378907765Y-113599383D02*
X378812527Y-113647002D01*
X378812527Y-113647002D02*
X378431575Y-113647002D01*
X379907765Y-113123193D02*
X379431575Y-113123193D01*
X379431575Y-113123193D02*
X379383956Y-113599383D01*
X379383956Y-113599383D02*
X379431575Y-113551764D01*
X379431575Y-113551764D02*
X379526813Y-113504145D01*
X379526813Y-113504145D02*
X379764908Y-113504145D01*
X379764908Y-113504145D02*
X379860146Y-113551764D01*
X379860146Y-113551764D02*
X379907765Y-113599383D01*
X379907765Y-113599383D02*
X379955384Y-113694621D01*
X379955384Y-113694621D02*
X379955384Y-113932716D01*
X379955384Y-113932716D02*
X379907765Y-114027954D01*
X379907765Y-114027954D02*
X379860146Y-114075574D01*
X379860146Y-114075574D02*
X379764908Y-114123193D01*
X379764908Y-114123193D02*
X379526813Y-114123193D01*
X379526813Y-114123193D02*
X379431575Y-114075574D01*
X379431575Y-114075574D02*
X379383956Y-114027954D01*
X380431575Y-114123193D02*
X380622051Y-114123193D01*
X380622051Y-114123193D02*
X380717289Y-114075574D01*
X380717289Y-114075574D02*
X380764908Y-114027954D01*
X380764908Y-114027954D02*
X380860146Y-113885097D01*
X380860146Y-113885097D02*
X380907765Y-113694621D01*
X380907765Y-113694621D02*
X380907765Y-113313669D01*
X380907765Y-113313669D02*
X380860146Y-113218431D01*
X380860146Y-113218431D02*
X380812527Y-113170812D01*
X380812527Y-113170812D02*
X380717289Y-113123193D01*
X380717289Y-113123193D02*
X380526813Y-113123193D01*
X380526813Y-113123193D02*
X380431575Y-113170812D01*
X380431575Y-113170812D02*
X380383956Y-113218431D01*
X380383956Y-113218431D02*
X380336337Y-113313669D01*
X380336337Y-113313669D02*
X380336337Y-113551764D01*
X380336337Y-113551764D02*
X380383956Y-113647002D01*
X380383956Y-113647002D02*
X380431575Y-113694621D01*
X380431575Y-113694621D02*
X380526813Y-113742240D01*
X380526813Y-113742240D02*
X380717289Y-113742240D01*
X380717289Y-113742240D02*
X380812527Y-113694621D01*
X380812527Y-113694621D02*
X380860146Y-113647002D01*
X380860146Y-113647002D02*
X380907765Y-113551764D01*
X243450680Y-171396468D02*
X244260203Y-171396468D01*
X244260203Y-171396468D02*
X244355441Y-171348849D01*
X244355441Y-171348849D02*
X244403061Y-171301230D01*
X244403061Y-171301230D02*
X244450680Y-171205992D01*
X244450680Y-171205992D02*
X244450680Y-171015516D01*
X244450680Y-171015516D02*
X244403061Y-170920278D01*
X244403061Y-170920278D02*
X244355441Y-170872659D01*
X244355441Y-170872659D02*
X244260203Y-170825040D01*
X244260203Y-170825040D02*
X243450680Y-170825040D01*
X243450680Y-170444087D02*
X243450680Y-169825040D01*
X243450680Y-169825040D02*
X243831632Y-170158373D01*
X243831632Y-170158373D02*
X243831632Y-170015516D01*
X243831632Y-170015516D02*
X243879251Y-169920278D01*
X243879251Y-169920278D02*
X243926870Y-169872659D01*
X243926870Y-169872659D02*
X244022108Y-169825040D01*
X244022108Y-169825040D02*
X244260203Y-169825040D01*
X244260203Y-169825040D02*
X244355441Y-169872659D01*
X244355441Y-169872659D02*
X244403061Y-169920278D01*
X244403061Y-169920278D02*
X244450680Y-170015516D01*
X244450680Y-170015516D02*
X244450680Y-170301230D01*
X244450680Y-170301230D02*
X244403061Y-170396468D01*
X244403061Y-170396468D02*
X244355441Y-170444087D01*
X243450680Y-169205992D02*
X243450680Y-169110754D01*
X243450680Y-169110754D02*
X243498299Y-169015516D01*
X243498299Y-169015516D02*
X243545918Y-168967897D01*
X243545918Y-168967897D02*
X243641156Y-168920278D01*
X243641156Y-168920278D02*
X243831632Y-168872659D01*
X243831632Y-168872659D02*
X244069727Y-168872659D01*
X244069727Y-168872659D02*
X244260203Y-168920278D01*
X244260203Y-168920278D02*
X244355441Y-168967897D01*
X244355441Y-168967897D02*
X244403061Y-169015516D01*
X244403061Y-169015516D02*
X244450680Y-169110754D01*
X244450680Y-169110754D02*
X244450680Y-169205992D01*
X244450680Y-169205992D02*
X244403061Y-169301230D01*
X244403061Y-169301230D02*
X244355441Y-169348849D01*
X244355441Y-169348849D02*
X244260203Y-169396468D01*
X244260203Y-169396468D02*
X244069727Y-169444087D01*
X244069727Y-169444087D02*
X243831632Y-169444087D01*
X243831632Y-169444087D02*
X243641156Y-169396468D01*
X243641156Y-169396468D02*
X243545918Y-169348849D01*
X243545918Y-169348849D02*
X243498299Y-169301230D01*
X243498299Y-169301230D02*
X243450680Y-169205992D01*
X306693003Y-133363193D02*
X306359670Y-132887002D01*
X306121575Y-133363193D02*
X306121575Y-132363193D01*
X306121575Y-132363193D02*
X306502527Y-132363193D01*
X306502527Y-132363193D02*
X306597765Y-132410812D01*
X306597765Y-132410812D02*
X306645384Y-132458431D01*
X306645384Y-132458431D02*
X306693003Y-132553669D01*
X306693003Y-132553669D02*
X306693003Y-132696526D01*
X306693003Y-132696526D02*
X306645384Y-132791764D01*
X306645384Y-132791764D02*
X306597765Y-132839383D01*
X306597765Y-132839383D02*
X306502527Y-132887002D01*
X306502527Y-132887002D02*
X306121575Y-132887002D01*
X307597765Y-132363193D02*
X307121575Y-132363193D01*
X307121575Y-132363193D02*
X307073956Y-132839383D01*
X307073956Y-132839383D02*
X307121575Y-132791764D01*
X307121575Y-132791764D02*
X307216813Y-132744145D01*
X307216813Y-132744145D02*
X307454908Y-132744145D01*
X307454908Y-132744145D02*
X307550146Y-132791764D01*
X307550146Y-132791764D02*
X307597765Y-132839383D01*
X307597765Y-132839383D02*
X307645384Y-132934621D01*
X307645384Y-132934621D02*
X307645384Y-133172716D01*
X307645384Y-133172716D02*
X307597765Y-133267954D01*
X307597765Y-133267954D02*
X307550146Y-133315574D01*
X307550146Y-133315574D02*
X307454908Y-133363193D01*
X307454908Y-133363193D02*
X307216813Y-133363193D01*
X307216813Y-133363193D02*
X307121575Y-133315574D01*
X307121575Y-133315574D02*
X307073956Y-133267954D01*
X308026337Y-132458431D02*
X308073956Y-132410812D01*
X308073956Y-132410812D02*
X308169194Y-132363193D01*
X308169194Y-132363193D02*
X308407289Y-132363193D01*
X308407289Y-132363193D02*
X308502527Y-132410812D01*
X308502527Y-132410812D02*
X308550146Y-132458431D01*
X308550146Y-132458431D02*
X308597765Y-132553669D01*
X308597765Y-132553669D02*
X308597765Y-132648907D01*
X308597765Y-132648907D02*
X308550146Y-132791764D01*
X308550146Y-132791764D02*
X307978718Y-133363193D01*
X307978718Y-133363193D02*
X308597765Y-133363193D01*
X325527766Y-138623193D02*
X325527766Y-139432716D01*
X325527766Y-139432716D02*
X325575385Y-139527954D01*
X325575385Y-139527954D02*
X325623004Y-139575574D01*
X325623004Y-139575574D02*
X325718242Y-139623193D01*
X325718242Y-139623193D02*
X325908718Y-139623193D01*
X325908718Y-139623193D02*
X326003956Y-139575574D01*
X326003956Y-139575574D02*
X326051575Y-139527954D01*
X326051575Y-139527954D02*
X326099194Y-139432716D01*
X326099194Y-139432716D02*
X326099194Y-138623193D01*
X326480147Y-138623193D02*
X327099194Y-138623193D01*
X327099194Y-138623193D02*
X326765861Y-139004145D01*
X326765861Y-139004145D02*
X326908718Y-139004145D01*
X326908718Y-139004145D02*
X327003956Y-139051764D01*
X327003956Y-139051764D02*
X327051575Y-139099383D01*
X327051575Y-139099383D02*
X327099194Y-139194621D01*
X327099194Y-139194621D02*
X327099194Y-139432716D01*
X327099194Y-139432716D02*
X327051575Y-139527954D01*
X327051575Y-139527954D02*
X327003956Y-139575574D01*
X327003956Y-139575574D02*
X326908718Y-139623193D01*
X326908718Y-139623193D02*
X326623004Y-139623193D01*
X326623004Y-139623193D02*
X326527766Y-139575574D01*
X326527766Y-139575574D02*
X326480147Y-139527954D01*
X327480147Y-138718431D02*
X327527766Y-138670812D01*
X327527766Y-138670812D02*
X327623004Y-138623193D01*
X327623004Y-138623193D02*
X327861099Y-138623193D01*
X327861099Y-138623193D02*
X327956337Y-138670812D01*
X327956337Y-138670812D02*
X328003956Y-138718431D01*
X328003956Y-138718431D02*
X328051575Y-138813669D01*
X328051575Y-138813669D02*
X328051575Y-138908907D01*
X328051575Y-138908907D02*
X328003956Y-139051764D01*
X328003956Y-139051764D02*
X327432528Y-139623193D01*
X327432528Y-139623193D02*
X328051575Y-139623193D01*
X378970680Y-108371231D02*
X378494489Y-108704564D01*
X378970680Y-108942659D02*
X377970680Y-108942659D01*
X377970680Y-108942659D02*
X377970680Y-108561707D01*
X377970680Y-108561707D02*
X378018299Y-108466469D01*
X378018299Y-108466469D02*
X378065918Y-108418850D01*
X378065918Y-108418850D02*
X378161156Y-108371231D01*
X378161156Y-108371231D02*
X378304013Y-108371231D01*
X378304013Y-108371231D02*
X378399251Y-108418850D01*
X378399251Y-108418850D02*
X378446870Y-108466469D01*
X378446870Y-108466469D02*
X378494489Y-108561707D01*
X378494489Y-108561707D02*
X378494489Y-108942659D01*
X377970680Y-107514088D02*
X377970680Y-107704564D01*
X377970680Y-107704564D02*
X378018299Y-107799802D01*
X378018299Y-107799802D02*
X378065918Y-107847421D01*
X378065918Y-107847421D02*
X378208775Y-107942659D01*
X378208775Y-107942659D02*
X378399251Y-107990278D01*
X378399251Y-107990278D02*
X378780203Y-107990278D01*
X378780203Y-107990278D02*
X378875441Y-107942659D01*
X378875441Y-107942659D02*
X378923061Y-107895040D01*
X378923061Y-107895040D02*
X378970680Y-107799802D01*
X378970680Y-107799802D02*
X378970680Y-107609326D01*
X378970680Y-107609326D02*
X378923061Y-107514088D01*
X378923061Y-107514088D02*
X378875441Y-107466469D01*
X378875441Y-107466469D02*
X378780203Y-107418850D01*
X378780203Y-107418850D02*
X378542108Y-107418850D01*
X378542108Y-107418850D02*
X378446870Y-107466469D01*
X378446870Y-107466469D02*
X378399251Y-107514088D01*
X378399251Y-107514088D02*
X378351632Y-107609326D01*
X378351632Y-107609326D02*
X378351632Y-107799802D01*
X378351632Y-107799802D02*
X378399251Y-107895040D01*
X378399251Y-107895040D02*
X378446870Y-107942659D01*
X378446870Y-107942659D02*
X378542108Y-107990278D01*
X378304013Y-106561707D02*
X378970680Y-106561707D01*
X377923061Y-106799802D02*
X378637346Y-107037897D01*
X378637346Y-107037897D02*
X378637346Y-106418850D01*
X98374452Y-119738706D02*
X98041119Y-119262515D01*
X97803024Y-119738706D02*
X97803024Y-118738706D01*
X97803024Y-118738706D02*
X98183976Y-118738706D01*
X98183976Y-118738706D02*
X98279214Y-118786325D01*
X98279214Y-118786325D02*
X98326833Y-118833944D01*
X98326833Y-118833944D02*
X98374452Y-118929182D01*
X98374452Y-118929182D02*
X98374452Y-119072039D01*
X98374452Y-119072039D02*
X98326833Y-119167277D01*
X98326833Y-119167277D02*
X98279214Y-119214896D01*
X98279214Y-119214896D02*
X98183976Y-119262515D01*
X98183976Y-119262515D02*
X97803024Y-119262515D01*
X98707786Y-118738706D02*
X99326833Y-118738706D01*
X99326833Y-118738706D02*
X98993500Y-119119658D01*
X98993500Y-119119658D02*
X99136357Y-119119658D01*
X99136357Y-119119658D02*
X99231595Y-119167277D01*
X99231595Y-119167277D02*
X99279214Y-119214896D01*
X99279214Y-119214896D02*
X99326833Y-119310134D01*
X99326833Y-119310134D02*
X99326833Y-119548229D01*
X99326833Y-119548229D02*
X99279214Y-119643467D01*
X99279214Y-119643467D02*
X99231595Y-119691087D01*
X99231595Y-119691087D02*
X99136357Y-119738706D01*
X99136357Y-119738706D02*
X98850643Y-119738706D01*
X98850643Y-119738706D02*
X98755405Y-119691087D01*
X98755405Y-119691087D02*
X98707786Y-119643467D01*
X100183976Y-118738706D02*
X99993500Y-118738706D01*
X99993500Y-118738706D02*
X99898262Y-118786325D01*
X99898262Y-118786325D02*
X99850643Y-118833944D01*
X99850643Y-118833944D02*
X99755405Y-118976801D01*
X99755405Y-118976801D02*
X99707786Y-119167277D01*
X99707786Y-119167277D02*
X99707786Y-119548229D01*
X99707786Y-119548229D02*
X99755405Y-119643467D01*
X99755405Y-119643467D02*
X99803024Y-119691087D01*
X99803024Y-119691087D02*
X99898262Y-119738706D01*
X99898262Y-119738706D02*
X100088738Y-119738706D01*
X100088738Y-119738706D02*
X100183976Y-119691087D01*
X100183976Y-119691087D02*
X100231595Y-119643467D01*
X100231595Y-119643467D02*
X100279214Y-119548229D01*
X100279214Y-119548229D02*
X100279214Y-119310134D01*
X100279214Y-119310134D02*
X100231595Y-119214896D01*
X100231595Y-119214896D02*
X100183976Y-119167277D01*
X100183976Y-119167277D02*
X100088738Y-119119658D01*
X100088738Y-119119658D02*
X99898262Y-119119658D01*
X99898262Y-119119658D02*
X99803024Y-119167277D01*
X99803024Y-119167277D02*
X99755405Y-119214896D01*
X99755405Y-119214896D02*
X99707786Y-119310134D01*
X304030680Y-181966468D02*
X304840203Y-181966468D01*
X304840203Y-181966468D02*
X304935441Y-181918849D01*
X304935441Y-181918849D02*
X304983061Y-181871230D01*
X304983061Y-181871230D02*
X305030680Y-181775992D01*
X305030680Y-181775992D02*
X305030680Y-181585516D01*
X305030680Y-181585516D02*
X304983061Y-181490278D01*
X304983061Y-181490278D02*
X304935441Y-181442659D01*
X304935441Y-181442659D02*
X304840203Y-181395040D01*
X304840203Y-181395040D02*
X304030680Y-181395040D01*
X305030680Y-180395040D02*
X305030680Y-180966468D01*
X305030680Y-180680754D02*
X304030680Y-180680754D01*
X304030680Y-180680754D02*
X304173537Y-180775992D01*
X304173537Y-180775992D02*
X304268775Y-180871230D01*
X304268775Y-180871230D02*
X304316394Y-180966468D01*
X304030680Y-179775992D02*
X304030680Y-179680754D01*
X304030680Y-179680754D02*
X304078299Y-179585516D01*
X304078299Y-179585516D02*
X304125918Y-179537897D01*
X304125918Y-179537897D02*
X304221156Y-179490278D01*
X304221156Y-179490278D02*
X304411632Y-179442659D01*
X304411632Y-179442659D02*
X304649727Y-179442659D01*
X304649727Y-179442659D02*
X304840203Y-179490278D01*
X304840203Y-179490278D02*
X304935441Y-179537897D01*
X304935441Y-179537897D02*
X304983061Y-179585516D01*
X304983061Y-179585516D02*
X305030680Y-179680754D01*
X305030680Y-179680754D02*
X305030680Y-179775992D01*
X305030680Y-179775992D02*
X304983061Y-179871230D01*
X304983061Y-179871230D02*
X304935441Y-179918849D01*
X304935441Y-179918849D02*
X304840203Y-179966468D01*
X304840203Y-179966468D02*
X304649727Y-180014087D01*
X304649727Y-180014087D02*
X304411632Y-180014087D01*
X304411632Y-180014087D02*
X304221156Y-179966468D01*
X304221156Y-179966468D02*
X304125918Y-179918849D01*
X304125918Y-179918849D02*
X304078299Y-179871230D01*
X304078299Y-179871230D02*
X304030680Y-179775992D01*
X391813003Y-115623193D02*
X391479670Y-115147002D01*
X391241575Y-115623193D02*
X391241575Y-114623193D01*
X391241575Y-114623193D02*
X391622527Y-114623193D01*
X391622527Y-114623193D02*
X391717765Y-114670812D01*
X391717765Y-114670812D02*
X391765384Y-114718431D01*
X391765384Y-114718431D02*
X391813003Y-114813669D01*
X391813003Y-114813669D02*
X391813003Y-114956526D01*
X391813003Y-114956526D02*
X391765384Y-115051764D01*
X391765384Y-115051764D02*
X391717765Y-115099383D01*
X391717765Y-115099383D02*
X391622527Y-115147002D01*
X391622527Y-115147002D02*
X391241575Y-115147002D01*
X392670146Y-114623193D02*
X392479670Y-114623193D01*
X392479670Y-114623193D02*
X392384432Y-114670812D01*
X392384432Y-114670812D02*
X392336813Y-114718431D01*
X392336813Y-114718431D02*
X392241575Y-114861288D01*
X392241575Y-114861288D02*
X392193956Y-115051764D01*
X392193956Y-115051764D02*
X392193956Y-115432716D01*
X392193956Y-115432716D02*
X392241575Y-115527954D01*
X392241575Y-115527954D02*
X392289194Y-115575574D01*
X392289194Y-115575574D02*
X392384432Y-115623193D01*
X392384432Y-115623193D02*
X392574908Y-115623193D01*
X392574908Y-115623193D02*
X392670146Y-115575574D01*
X392670146Y-115575574D02*
X392717765Y-115527954D01*
X392717765Y-115527954D02*
X392765384Y-115432716D01*
X392765384Y-115432716D02*
X392765384Y-115194621D01*
X392765384Y-115194621D02*
X392717765Y-115099383D01*
X392717765Y-115099383D02*
X392670146Y-115051764D01*
X392670146Y-115051764D02*
X392574908Y-115004145D01*
X392574908Y-115004145D02*
X392384432Y-115004145D01*
X392384432Y-115004145D02*
X392289194Y-115051764D01*
X392289194Y-115051764D02*
X392241575Y-115099383D01*
X392241575Y-115099383D02*
X392193956Y-115194621D01*
X393717765Y-115623193D02*
X393146337Y-115623193D01*
X393432051Y-115623193D02*
X393432051Y-114623193D01*
X393432051Y-114623193D02*
X393336813Y-114766050D01*
X393336813Y-114766050D02*
X393241575Y-114861288D01*
X393241575Y-114861288D02*
X393146337Y-114908907D01*
X124027766Y-111723193D02*
X124027766Y-112532716D01*
X124027766Y-112532716D02*
X124075385Y-112627954D01*
X124075385Y-112627954D02*
X124123004Y-112675574D01*
X124123004Y-112675574D02*
X124218242Y-112723193D01*
X124218242Y-112723193D02*
X124408718Y-112723193D01*
X124408718Y-112723193D02*
X124503956Y-112675574D01*
X124503956Y-112675574D02*
X124551575Y-112627954D01*
X124551575Y-112627954D02*
X124599194Y-112532716D01*
X124599194Y-112532716D02*
X124599194Y-111723193D01*
X125027766Y-111818431D02*
X125075385Y-111770812D01*
X125075385Y-111770812D02*
X125170623Y-111723193D01*
X125170623Y-111723193D02*
X125408718Y-111723193D01*
X125408718Y-111723193D02*
X125503956Y-111770812D01*
X125503956Y-111770812D02*
X125551575Y-111818431D01*
X125551575Y-111818431D02*
X125599194Y-111913669D01*
X125599194Y-111913669D02*
X125599194Y-112008907D01*
X125599194Y-112008907D02*
X125551575Y-112151764D01*
X125551575Y-112151764D02*
X124980147Y-112723193D01*
X124980147Y-112723193D02*
X125599194Y-112723193D01*
X126170623Y-112151764D02*
X126075385Y-112104145D01*
X126075385Y-112104145D02*
X126027766Y-112056526D01*
X126027766Y-112056526D02*
X125980147Y-111961288D01*
X125980147Y-111961288D02*
X125980147Y-111913669D01*
X125980147Y-111913669D02*
X126027766Y-111818431D01*
X126027766Y-111818431D02*
X126075385Y-111770812D01*
X126075385Y-111770812D02*
X126170623Y-111723193D01*
X126170623Y-111723193D02*
X126361099Y-111723193D01*
X126361099Y-111723193D02*
X126456337Y-111770812D01*
X126456337Y-111770812D02*
X126503956Y-111818431D01*
X126503956Y-111818431D02*
X126551575Y-111913669D01*
X126551575Y-111913669D02*
X126551575Y-111961288D01*
X126551575Y-111961288D02*
X126503956Y-112056526D01*
X126503956Y-112056526D02*
X126456337Y-112104145D01*
X126456337Y-112104145D02*
X126361099Y-112151764D01*
X126361099Y-112151764D02*
X126170623Y-112151764D01*
X126170623Y-112151764D02*
X126075385Y-112199383D01*
X126075385Y-112199383D02*
X126027766Y-112247002D01*
X126027766Y-112247002D02*
X125980147Y-112342240D01*
X125980147Y-112342240D02*
X125980147Y-112532716D01*
X125980147Y-112532716D02*
X126027766Y-112627954D01*
X126027766Y-112627954D02*
X126075385Y-112675574D01*
X126075385Y-112675574D02*
X126170623Y-112723193D01*
X126170623Y-112723193D02*
X126361099Y-112723193D01*
X126361099Y-112723193D02*
X126456337Y-112675574D01*
X126456337Y-112675574D02*
X126503956Y-112627954D01*
X126503956Y-112627954D02*
X126551575Y-112532716D01*
X126551575Y-112532716D02*
X126551575Y-112342240D01*
X126551575Y-112342240D02*
X126503956Y-112247002D01*
X126503956Y-112247002D02*
X126456337Y-112199383D01*
X126456337Y-112199383D02*
X126361099Y-112151764D01*
X237693003Y-176863193D02*
X237359670Y-176387002D01*
X237121575Y-176863193D02*
X237121575Y-175863193D01*
X237121575Y-175863193D02*
X237502527Y-175863193D01*
X237502527Y-175863193D02*
X237597765Y-175910812D01*
X237597765Y-175910812D02*
X237645384Y-175958431D01*
X237645384Y-175958431D02*
X237693003Y-176053669D01*
X237693003Y-176053669D02*
X237693003Y-176196526D01*
X237693003Y-176196526D02*
X237645384Y-176291764D01*
X237645384Y-176291764D02*
X237597765Y-176339383D01*
X237597765Y-176339383D02*
X237502527Y-176387002D01*
X237502527Y-176387002D02*
X237121575Y-176387002D01*
X238073956Y-175958431D02*
X238121575Y-175910812D01*
X238121575Y-175910812D02*
X238216813Y-175863193D01*
X238216813Y-175863193D02*
X238454908Y-175863193D01*
X238454908Y-175863193D02*
X238550146Y-175910812D01*
X238550146Y-175910812D02*
X238597765Y-175958431D01*
X238597765Y-175958431D02*
X238645384Y-176053669D01*
X238645384Y-176053669D02*
X238645384Y-176148907D01*
X238645384Y-176148907D02*
X238597765Y-176291764D01*
X238597765Y-176291764D02*
X238026337Y-176863193D01*
X238026337Y-176863193D02*
X238645384Y-176863193D01*
X238978718Y-175863193D02*
X239645384Y-175863193D01*
X239645384Y-175863193D02*
X239216813Y-176863193D01*
X379003003Y-118123193D02*
X378669670Y-117647002D01*
X378431575Y-118123193D02*
X378431575Y-117123193D01*
X378431575Y-117123193D02*
X378812527Y-117123193D01*
X378812527Y-117123193D02*
X378907765Y-117170812D01*
X378907765Y-117170812D02*
X378955384Y-117218431D01*
X378955384Y-117218431D02*
X379003003Y-117313669D01*
X379003003Y-117313669D02*
X379003003Y-117456526D01*
X379003003Y-117456526D02*
X378955384Y-117551764D01*
X378955384Y-117551764D02*
X378907765Y-117599383D01*
X378907765Y-117599383D02*
X378812527Y-117647002D01*
X378812527Y-117647002D02*
X378431575Y-117647002D01*
X379860146Y-117123193D02*
X379669670Y-117123193D01*
X379669670Y-117123193D02*
X379574432Y-117170812D01*
X379574432Y-117170812D02*
X379526813Y-117218431D01*
X379526813Y-117218431D02*
X379431575Y-117361288D01*
X379431575Y-117361288D02*
X379383956Y-117551764D01*
X379383956Y-117551764D02*
X379383956Y-117932716D01*
X379383956Y-117932716D02*
X379431575Y-118027954D01*
X379431575Y-118027954D02*
X379479194Y-118075574D01*
X379479194Y-118075574D02*
X379574432Y-118123193D01*
X379574432Y-118123193D02*
X379764908Y-118123193D01*
X379764908Y-118123193D02*
X379860146Y-118075574D01*
X379860146Y-118075574D02*
X379907765Y-118027954D01*
X379907765Y-118027954D02*
X379955384Y-117932716D01*
X379955384Y-117932716D02*
X379955384Y-117694621D01*
X379955384Y-117694621D02*
X379907765Y-117599383D01*
X379907765Y-117599383D02*
X379860146Y-117551764D01*
X379860146Y-117551764D02*
X379764908Y-117504145D01*
X379764908Y-117504145D02*
X379574432Y-117504145D01*
X379574432Y-117504145D02*
X379479194Y-117551764D01*
X379479194Y-117551764D02*
X379431575Y-117599383D01*
X379431575Y-117599383D02*
X379383956Y-117694621D01*
X380574432Y-117123193D02*
X380669670Y-117123193D01*
X380669670Y-117123193D02*
X380764908Y-117170812D01*
X380764908Y-117170812D02*
X380812527Y-117218431D01*
X380812527Y-117218431D02*
X380860146Y-117313669D01*
X380860146Y-117313669D02*
X380907765Y-117504145D01*
X380907765Y-117504145D02*
X380907765Y-117742240D01*
X380907765Y-117742240D02*
X380860146Y-117932716D01*
X380860146Y-117932716D02*
X380812527Y-118027954D01*
X380812527Y-118027954D02*
X380764908Y-118075574D01*
X380764908Y-118075574D02*
X380669670Y-118123193D01*
X380669670Y-118123193D02*
X380574432Y-118123193D01*
X380574432Y-118123193D02*
X380479194Y-118075574D01*
X380479194Y-118075574D02*
X380431575Y-118027954D01*
X380431575Y-118027954D02*
X380383956Y-117932716D01*
X380383956Y-117932716D02*
X380336337Y-117742240D01*
X380336337Y-117742240D02*
X380336337Y-117504145D01*
X380336337Y-117504145D02*
X380383956Y-117313669D01*
X380383956Y-117313669D02*
X380431575Y-117218431D01*
X380431575Y-117218431D02*
X380479194Y-117170812D01*
X380479194Y-117170812D02*
X380574432Y-117123193D01*
X351505441Y-102181231D02*
X351553061Y-102228850D01*
X351553061Y-102228850D02*
X351600680Y-102371707D01*
X351600680Y-102371707D02*
X351600680Y-102466945D01*
X351600680Y-102466945D02*
X351553061Y-102609802D01*
X351553061Y-102609802D02*
X351457822Y-102705040D01*
X351457822Y-102705040D02*
X351362584Y-102752659D01*
X351362584Y-102752659D02*
X351172108Y-102800278D01*
X351172108Y-102800278D02*
X351029251Y-102800278D01*
X351029251Y-102800278D02*
X350838775Y-102752659D01*
X350838775Y-102752659D02*
X350743537Y-102705040D01*
X350743537Y-102705040D02*
X350648299Y-102609802D01*
X350648299Y-102609802D02*
X350600680Y-102466945D01*
X350600680Y-102466945D02*
X350600680Y-102371707D01*
X350600680Y-102371707D02*
X350648299Y-102228850D01*
X350648299Y-102228850D02*
X350695918Y-102181231D01*
X351600680Y-101228850D02*
X351600680Y-101800278D01*
X351600680Y-101514564D02*
X350600680Y-101514564D01*
X350600680Y-101514564D02*
X350743537Y-101609802D01*
X350743537Y-101609802D02*
X350838775Y-101705040D01*
X350838775Y-101705040D02*
X350886394Y-101800278D01*
X351600680Y-100752659D02*
X351600680Y-100562183D01*
X351600680Y-100562183D02*
X351553061Y-100466945D01*
X351553061Y-100466945D02*
X351505441Y-100419326D01*
X351505441Y-100419326D02*
X351362584Y-100324088D01*
X351362584Y-100324088D02*
X351172108Y-100276469D01*
X351172108Y-100276469D02*
X350791156Y-100276469D01*
X350791156Y-100276469D02*
X350695918Y-100324088D01*
X350695918Y-100324088D02*
X350648299Y-100371707D01*
X350648299Y-100371707D02*
X350600680Y-100466945D01*
X350600680Y-100466945D02*
X350600680Y-100657421D01*
X350600680Y-100657421D02*
X350648299Y-100752659D01*
X350648299Y-100752659D02*
X350695918Y-100800278D01*
X350695918Y-100800278D02*
X350791156Y-100847897D01*
X350791156Y-100847897D02*
X351029251Y-100847897D01*
X351029251Y-100847897D02*
X351124489Y-100800278D01*
X351124489Y-100800278D02*
X351172108Y-100752659D01*
X351172108Y-100752659D02*
X351219727Y-100657421D01*
X351219727Y-100657421D02*
X351219727Y-100466945D01*
X351219727Y-100466945D02*
X351172108Y-100371707D01*
X351172108Y-100371707D02*
X351124489Y-100324088D01*
X351124489Y-100324088D02*
X351029251Y-100276469D01*
X126005441Y-109181231D02*
X126053061Y-109228850D01*
X126053061Y-109228850D02*
X126100680Y-109371707D01*
X126100680Y-109371707D02*
X126100680Y-109466945D01*
X126100680Y-109466945D02*
X126053061Y-109609802D01*
X126053061Y-109609802D02*
X125957822Y-109705040D01*
X125957822Y-109705040D02*
X125862584Y-109752659D01*
X125862584Y-109752659D02*
X125672108Y-109800278D01*
X125672108Y-109800278D02*
X125529251Y-109800278D01*
X125529251Y-109800278D02*
X125338775Y-109752659D01*
X125338775Y-109752659D02*
X125243537Y-109705040D01*
X125243537Y-109705040D02*
X125148299Y-109609802D01*
X125148299Y-109609802D02*
X125100680Y-109466945D01*
X125100680Y-109466945D02*
X125100680Y-109371707D01*
X125100680Y-109371707D02*
X125148299Y-109228850D01*
X125148299Y-109228850D02*
X125195918Y-109181231D01*
X125195918Y-108800278D02*
X125148299Y-108752659D01*
X125148299Y-108752659D02*
X125100680Y-108657421D01*
X125100680Y-108657421D02*
X125100680Y-108419326D01*
X125100680Y-108419326D02*
X125148299Y-108324088D01*
X125148299Y-108324088D02*
X125195918Y-108276469D01*
X125195918Y-108276469D02*
X125291156Y-108228850D01*
X125291156Y-108228850D02*
X125386394Y-108228850D01*
X125386394Y-108228850D02*
X125529251Y-108276469D01*
X125529251Y-108276469D02*
X126100680Y-108847897D01*
X126100680Y-108847897D02*
X126100680Y-108228850D01*
X125100680Y-107895516D02*
X125100680Y-107276469D01*
X125100680Y-107276469D02*
X125481632Y-107609802D01*
X125481632Y-107609802D02*
X125481632Y-107466945D01*
X125481632Y-107466945D02*
X125529251Y-107371707D01*
X125529251Y-107371707D02*
X125576870Y-107324088D01*
X125576870Y-107324088D02*
X125672108Y-107276469D01*
X125672108Y-107276469D02*
X125910203Y-107276469D01*
X125910203Y-107276469D02*
X126005441Y-107324088D01*
X126005441Y-107324088D02*
X126053061Y-107371707D01*
X126053061Y-107371707D02*
X126100680Y-107466945D01*
X126100680Y-107466945D02*
X126100680Y-107752659D01*
X126100680Y-107752659D02*
X126053061Y-107847897D01*
X126053061Y-107847897D02*
X126005441Y-107895516D01*
X216503003Y-148897954D02*
X216455384Y-148945574D01*
X216455384Y-148945574D02*
X216312527Y-148993193D01*
X216312527Y-148993193D02*
X216217289Y-148993193D01*
X216217289Y-148993193D02*
X216074432Y-148945574D01*
X216074432Y-148945574D02*
X215979194Y-148850335D01*
X215979194Y-148850335D02*
X215931575Y-148755097D01*
X215931575Y-148755097D02*
X215883956Y-148564621D01*
X215883956Y-148564621D02*
X215883956Y-148421764D01*
X215883956Y-148421764D02*
X215931575Y-148231288D01*
X215931575Y-148231288D02*
X215979194Y-148136050D01*
X215979194Y-148136050D02*
X216074432Y-148040812D01*
X216074432Y-148040812D02*
X216217289Y-147993193D01*
X216217289Y-147993193D02*
X216312527Y-147993193D01*
X216312527Y-147993193D02*
X216455384Y-148040812D01*
X216455384Y-148040812D02*
X216503003Y-148088431D01*
X216883956Y-148088431D02*
X216931575Y-148040812D01*
X216931575Y-148040812D02*
X217026813Y-147993193D01*
X217026813Y-147993193D02*
X217264908Y-147993193D01*
X217264908Y-147993193D02*
X217360146Y-148040812D01*
X217360146Y-148040812D02*
X217407765Y-148088431D01*
X217407765Y-148088431D02*
X217455384Y-148183669D01*
X217455384Y-148183669D02*
X217455384Y-148278907D01*
X217455384Y-148278907D02*
X217407765Y-148421764D01*
X217407765Y-148421764D02*
X216836337Y-148993193D01*
X216836337Y-148993193D02*
X217455384Y-148993193D01*
X218407765Y-148993193D02*
X217836337Y-148993193D01*
X218122051Y-148993193D02*
X218122051Y-147993193D01*
X218122051Y-147993193D02*
X218026813Y-148136050D01*
X218026813Y-148136050D02*
X217931575Y-148231288D01*
X217931575Y-148231288D02*
X217836337Y-148278907D01*
X381970680Y-150991231D02*
X381494489Y-151324564D01*
X381970680Y-151562659D02*
X380970680Y-151562659D01*
X380970680Y-151562659D02*
X380970680Y-151181707D01*
X380970680Y-151181707D02*
X381018299Y-151086469D01*
X381018299Y-151086469D02*
X381065918Y-151038850D01*
X381065918Y-151038850D02*
X381161156Y-150991231D01*
X381161156Y-150991231D02*
X381304013Y-150991231D01*
X381304013Y-150991231D02*
X381399251Y-151038850D01*
X381399251Y-151038850D02*
X381446870Y-151086469D01*
X381446870Y-151086469D02*
X381494489Y-151181707D01*
X381494489Y-151181707D02*
X381494489Y-151562659D01*
X380970680Y-150134088D02*
X380970680Y-150324564D01*
X380970680Y-150324564D02*
X381018299Y-150419802D01*
X381018299Y-150419802D02*
X381065918Y-150467421D01*
X381065918Y-150467421D02*
X381208775Y-150562659D01*
X381208775Y-150562659D02*
X381399251Y-150610278D01*
X381399251Y-150610278D02*
X381780203Y-150610278D01*
X381780203Y-150610278D02*
X381875441Y-150562659D01*
X381875441Y-150562659D02*
X381923061Y-150515040D01*
X381923061Y-150515040D02*
X381970680Y-150419802D01*
X381970680Y-150419802D02*
X381970680Y-150229326D01*
X381970680Y-150229326D02*
X381923061Y-150134088D01*
X381923061Y-150134088D02*
X381875441Y-150086469D01*
X381875441Y-150086469D02*
X381780203Y-150038850D01*
X381780203Y-150038850D02*
X381542108Y-150038850D01*
X381542108Y-150038850D02*
X381446870Y-150086469D01*
X381446870Y-150086469D02*
X381399251Y-150134088D01*
X381399251Y-150134088D02*
X381351632Y-150229326D01*
X381351632Y-150229326D02*
X381351632Y-150419802D01*
X381351632Y-150419802D02*
X381399251Y-150515040D01*
X381399251Y-150515040D02*
X381446870Y-150562659D01*
X381446870Y-150562659D02*
X381542108Y-150610278D01*
X380970680Y-149181707D02*
X380970680Y-149372183D01*
X380970680Y-149372183D02*
X381018299Y-149467421D01*
X381018299Y-149467421D02*
X381065918Y-149515040D01*
X381065918Y-149515040D02*
X381208775Y-149610278D01*
X381208775Y-149610278D02*
X381399251Y-149657897D01*
X381399251Y-149657897D02*
X381780203Y-149657897D01*
X381780203Y-149657897D02*
X381875441Y-149610278D01*
X381875441Y-149610278D02*
X381923061Y-149562659D01*
X381923061Y-149562659D02*
X381970680Y-149467421D01*
X381970680Y-149467421D02*
X381970680Y-149276945D01*
X381970680Y-149276945D02*
X381923061Y-149181707D01*
X381923061Y-149181707D02*
X381875441Y-149134088D01*
X381875441Y-149134088D02*
X381780203Y-149086469D01*
X381780203Y-149086469D02*
X381542108Y-149086469D01*
X381542108Y-149086469D02*
X381446870Y-149134088D01*
X381446870Y-149134088D02*
X381399251Y-149181707D01*
X381399251Y-149181707D02*
X381351632Y-149276945D01*
X381351632Y-149276945D02*
X381351632Y-149467421D01*
X381351632Y-149467421D02*
X381399251Y-149562659D01*
X381399251Y-149562659D02*
X381446870Y-149610278D01*
X381446870Y-149610278D02*
X381542108Y-149657897D01*
X378813003Y-138623193D02*
X378479670Y-138147002D01*
X378241575Y-138623193D02*
X378241575Y-137623193D01*
X378241575Y-137623193D02*
X378622527Y-137623193D01*
X378622527Y-137623193D02*
X378717765Y-137670812D01*
X378717765Y-137670812D02*
X378765384Y-137718431D01*
X378765384Y-137718431D02*
X378813003Y-137813669D01*
X378813003Y-137813669D02*
X378813003Y-137956526D01*
X378813003Y-137956526D02*
X378765384Y-138051764D01*
X378765384Y-138051764D02*
X378717765Y-138099383D01*
X378717765Y-138099383D02*
X378622527Y-138147002D01*
X378622527Y-138147002D02*
X378241575Y-138147002D01*
X379670146Y-137623193D02*
X379479670Y-137623193D01*
X379479670Y-137623193D02*
X379384432Y-137670812D01*
X379384432Y-137670812D02*
X379336813Y-137718431D01*
X379336813Y-137718431D02*
X379241575Y-137861288D01*
X379241575Y-137861288D02*
X379193956Y-138051764D01*
X379193956Y-138051764D02*
X379193956Y-138432716D01*
X379193956Y-138432716D02*
X379241575Y-138527954D01*
X379241575Y-138527954D02*
X379289194Y-138575574D01*
X379289194Y-138575574D02*
X379384432Y-138623193D01*
X379384432Y-138623193D02*
X379574908Y-138623193D01*
X379574908Y-138623193D02*
X379670146Y-138575574D01*
X379670146Y-138575574D02*
X379717765Y-138527954D01*
X379717765Y-138527954D02*
X379765384Y-138432716D01*
X379765384Y-138432716D02*
X379765384Y-138194621D01*
X379765384Y-138194621D02*
X379717765Y-138099383D01*
X379717765Y-138099383D02*
X379670146Y-138051764D01*
X379670146Y-138051764D02*
X379574908Y-138004145D01*
X379574908Y-138004145D02*
X379384432Y-138004145D01*
X379384432Y-138004145D02*
X379289194Y-138051764D01*
X379289194Y-138051764D02*
X379241575Y-138099383D01*
X379241575Y-138099383D02*
X379193956Y-138194621D01*
X380146337Y-137718431D02*
X380193956Y-137670812D01*
X380193956Y-137670812D02*
X380289194Y-137623193D01*
X380289194Y-137623193D02*
X380527289Y-137623193D01*
X380527289Y-137623193D02*
X380622527Y-137670812D01*
X380622527Y-137670812D02*
X380670146Y-137718431D01*
X380670146Y-137718431D02*
X380717765Y-137813669D01*
X380717765Y-137813669D02*
X380717765Y-137908907D01*
X380717765Y-137908907D02*
X380670146Y-138051764D01*
X380670146Y-138051764D02*
X380098718Y-138623193D01*
X380098718Y-138623193D02*
X380717765Y-138623193D01*
X306693003Y-154863193D02*
X306359670Y-154387002D01*
X306121575Y-154863193D02*
X306121575Y-153863193D01*
X306121575Y-153863193D02*
X306502527Y-153863193D01*
X306502527Y-153863193D02*
X306597765Y-153910812D01*
X306597765Y-153910812D02*
X306645384Y-153958431D01*
X306645384Y-153958431D02*
X306693003Y-154053669D01*
X306693003Y-154053669D02*
X306693003Y-154196526D01*
X306693003Y-154196526D02*
X306645384Y-154291764D01*
X306645384Y-154291764D02*
X306597765Y-154339383D01*
X306597765Y-154339383D02*
X306502527Y-154387002D01*
X306502527Y-154387002D02*
X306121575Y-154387002D01*
X307597765Y-153863193D02*
X307121575Y-153863193D01*
X307121575Y-153863193D02*
X307073956Y-154339383D01*
X307073956Y-154339383D02*
X307121575Y-154291764D01*
X307121575Y-154291764D02*
X307216813Y-154244145D01*
X307216813Y-154244145D02*
X307454908Y-154244145D01*
X307454908Y-154244145D02*
X307550146Y-154291764D01*
X307550146Y-154291764D02*
X307597765Y-154339383D01*
X307597765Y-154339383D02*
X307645384Y-154434621D01*
X307645384Y-154434621D02*
X307645384Y-154672716D01*
X307645384Y-154672716D02*
X307597765Y-154767954D01*
X307597765Y-154767954D02*
X307550146Y-154815574D01*
X307550146Y-154815574D02*
X307454908Y-154863193D01*
X307454908Y-154863193D02*
X307216813Y-154863193D01*
X307216813Y-154863193D02*
X307121575Y-154815574D01*
X307121575Y-154815574D02*
X307073956Y-154767954D01*
X308502527Y-154196526D02*
X308502527Y-154863193D01*
X308264432Y-153815574D02*
X308026337Y-154529859D01*
X308026337Y-154529859D02*
X308645384Y-154529859D01*
X33383956Y-112193193D02*
X33383956Y-113002716D01*
X33383956Y-113002716D02*
X33431575Y-113097954D01*
X33431575Y-113097954D02*
X33479194Y-113145574D01*
X33479194Y-113145574D02*
X33574432Y-113193193D01*
X33574432Y-113193193D02*
X33764908Y-113193193D01*
X33764908Y-113193193D02*
X33860146Y-113145574D01*
X33860146Y-113145574D02*
X33907765Y-113097954D01*
X33907765Y-113097954D02*
X33955384Y-113002716D01*
X33955384Y-113002716D02*
X33955384Y-112193193D01*
X34907765Y-112193193D02*
X34431575Y-112193193D01*
X34431575Y-112193193D02*
X34383956Y-112669383D01*
X34383956Y-112669383D02*
X34431575Y-112621764D01*
X34431575Y-112621764D02*
X34526813Y-112574145D01*
X34526813Y-112574145D02*
X34764908Y-112574145D01*
X34764908Y-112574145D02*
X34860146Y-112621764D01*
X34860146Y-112621764D02*
X34907765Y-112669383D01*
X34907765Y-112669383D02*
X34955384Y-112764621D01*
X34955384Y-112764621D02*
X34955384Y-113002716D01*
X34955384Y-113002716D02*
X34907765Y-113097954D01*
X34907765Y-113097954D02*
X34860146Y-113145574D01*
X34860146Y-113145574D02*
X34764908Y-113193193D01*
X34764908Y-113193193D02*
X34526813Y-113193193D01*
X34526813Y-113193193D02*
X34431575Y-113145574D01*
X34431575Y-113145574D02*
X34383956Y-113097954D01*
X306813003Y-119123193D02*
X306479670Y-118647002D01*
X306241575Y-119123193D02*
X306241575Y-118123193D01*
X306241575Y-118123193D02*
X306622527Y-118123193D01*
X306622527Y-118123193D02*
X306717765Y-118170812D01*
X306717765Y-118170812D02*
X306765384Y-118218431D01*
X306765384Y-118218431D02*
X306813003Y-118313669D01*
X306813003Y-118313669D02*
X306813003Y-118456526D01*
X306813003Y-118456526D02*
X306765384Y-118551764D01*
X306765384Y-118551764D02*
X306717765Y-118599383D01*
X306717765Y-118599383D02*
X306622527Y-118647002D01*
X306622527Y-118647002D02*
X306241575Y-118647002D01*
X307717765Y-118123193D02*
X307241575Y-118123193D01*
X307241575Y-118123193D02*
X307193956Y-118599383D01*
X307193956Y-118599383D02*
X307241575Y-118551764D01*
X307241575Y-118551764D02*
X307336813Y-118504145D01*
X307336813Y-118504145D02*
X307574908Y-118504145D01*
X307574908Y-118504145D02*
X307670146Y-118551764D01*
X307670146Y-118551764D02*
X307717765Y-118599383D01*
X307717765Y-118599383D02*
X307765384Y-118694621D01*
X307765384Y-118694621D02*
X307765384Y-118932716D01*
X307765384Y-118932716D02*
X307717765Y-119027954D01*
X307717765Y-119027954D02*
X307670146Y-119075574D01*
X307670146Y-119075574D02*
X307574908Y-119123193D01*
X307574908Y-119123193D02*
X307336813Y-119123193D01*
X307336813Y-119123193D02*
X307241575Y-119075574D01*
X307241575Y-119075574D02*
X307193956Y-119027954D01*
X308622527Y-118123193D02*
X308432051Y-118123193D01*
X308432051Y-118123193D02*
X308336813Y-118170812D01*
X308336813Y-118170812D02*
X308289194Y-118218431D01*
X308289194Y-118218431D02*
X308193956Y-118361288D01*
X308193956Y-118361288D02*
X308146337Y-118551764D01*
X308146337Y-118551764D02*
X308146337Y-118932716D01*
X308146337Y-118932716D02*
X308193956Y-119027954D01*
X308193956Y-119027954D02*
X308241575Y-119075574D01*
X308241575Y-119075574D02*
X308336813Y-119123193D01*
X308336813Y-119123193D02*
X308527289Y-119123193D01*
X308527289Y-119123193D02*
X308622527Y-119075574D01*
X308622527Y-119075574D02*
X308670146Y-119027954D01*
X308670146Y-119027954D02*
X308717765Y-118932716D01*
X308717765Y-118932716D02*
X308717765Y-118694621D01*
X308717765Y-118694621D02*
X308670146Y-118599383D01*
X308670146Y-118599383D02*
X308622527Y-118551764D01*
X308622527Y-118551764D02*
X308527289Y-118504145D01*
X308527289Y-118504145D02*
X308336813Y-118504145D01*
X308336813Y-118504145D02*
X308241575Y-118551764D01*
X308241575Y-118551764D02*
X308193956Y-118599383D01*
X308193956Y-118599383D02*
X308146337Y-118694621D01*
X341470680Y-113491231D02*
X340994489Y-113824564D01*
X341470680Y-114062659D02*
X340470680Y-114062659D01*
X340470680Y-114062659D02*
X340470680Y-113681707D01*
X340470680Y-113681707D02*
X340518299Y-113586469D01*
X340518299Y-113586469D02*
X340565918Y-113538850D01*
X340565918Y-113538850D02*
X340661156Y-113491231D01*
X340661156Y-113491231D02*
X340804013Y-113491231D01*
X340804013Y-113491231D02*
X340899251Y-113538850D01*
X340899251Y-113538850D02*
X340946870Y-113586469D01*
X340946870Y-113586469D02*
X340994489Y-113681707D01*
X340994489Y-113681707D02*
X340994489Y-114062659D01*
X340565918Y-113110278D02*
X340518299Y-113062659D01*
X340518299Y-113062659D02*
X340470680Y-112967421D01*
X340470680Y-112967421D02*
X340470680Y-112729326D01*
X340470680Y-112729326D02*
X340518299Y-112634088D01*
X340518299Y-112634088D02*
X340565918Y-112586469D01*
X340565918Y-112586469D02*
X340661156Y-112538850D01*
X340661156Y-112538850D02*
X340756394Y-112538850D01*
X340756394Y-112538850D02*
X340899251Y-112586469D01*
X340899251Y-112586469D02*
X341470680Y-113157897D01*
X341470680Y-113157897D02*
X341470680Y-112538850D01*
X340899251Y-111967421D02*
X340851632Y-112062659D01*
X340851632Y-112062659D02*
X340804013Y-112110278D01*
X340804013Y-112110278D02*
X340708775Y-112157897D01*
X340708775Y-112157897D02*
X340661156Y-112157897D01*
X340661156Y-112157897D02*
X340565918Y-112110278D01*
X340565918Y-112110278D02*
X340518299Y-112062659D01*
X340518299Y-112062659D02*
X340470680Y-111967421D01*
X340470680Y-111967421D02*
X340470680Y-111776945D01*
X340470680Y-111776945D02*
X340518299Y-111681707D01*
X340518299Y-111681707D02*
X340565918Y-111634088D01*
X340565918Y-111634088D02*
X340661156Y-111586469D01*
X340661156Y-111586469D02*
X340708775Y-111586469D01*
X340708775Y-111586469D02*
X340804013Y-111634088D01*
X340804013Y-111634088D02*
X340851632Y-111681707D01*
X340851632Y-111681707D02*
X340899251Y-111776945D01*
X340899251Y-111776945D02*
X340899251Y-111967421D01*
X340899251Y-111967421D02*
X340946870Y-112062659D01*
X340946870Y-112062659D02*
X340994489Y-112110278D01*
X340994489Y-112110278D02*
X341089727Y-112157897D01*
X341089727Y-112157897D02*
X341280203Y-112157897D01*
X341280203Y-112157897D02*
X341375441Y-112110278D01*
X341375441Y-112110278D02*
X341423061Y-112062659D01*
X341423061Y-112062659D02*
X341470680Y-111967421D01*
X341470680Y-111967421D02*
X341470680Y-111776945D01*
X341470680Y-111776945D02*
X341423061Y-111681707D01*
X341423061Y-111681707D02*
X341375441Y-111634088D01*
X341375441Y-111634088D02*
X341280203Y-111586469D01*
X341280203Y-111586469D02*
X341089727Y-111586469D01*
X341089727Y-111586469D02*
X340994489Y-111634088D01*
X340994489Y-111634088D02*
X340946870Y-111681707D01*
X340946870Y-111681707D02*
X340899251Y-111776945D01*
X333005441Y-182681231D02*
X333053061Y-182728850D01*
X333053061Y-182728850D02*
X333100680Y-182871707D01*
X333100680Y-182871707D02*
X333100680Y-182966945D01*
X333100680Y-182966945D02*
X333053061Y-183109802D01*
X333053061Y-183109802D02*
X332957822Y-183205040D01*
X332957822Y-183205040D02*
X332862584Y-183252659D01*
X332862584Y-183252659D02*
X332672108Y-183300278D01*
X332672108Y-183300278D02*
X332529251Y-183300278D01*
X332529251Y-183300278D02*
X332338775Y-183252659D01*
X332338775Y-183252659D02*
X332243537Y-183205040D01*
X332243537Y-183205040D02*
X332148299Y-183109802D01*
X332148299Y-183109802D02*
X332100680Y-182966945D01*
X332100680Y-182966945D02*
X332100680Y-182871707D01*
X332100680Y-182871707D02*
X332148299Y-182728850D01*
X332148299Y-182728850D02*
X332195918Y-182681231D01*
X333100680Y-181728850D02*
X333100680Y-182300278D01*
X333100680Y-182014564D02*
X332100680Y-182014564D01*
X332100680Y-182014564D02*
X332243537Y-182109802D01*
X332243537Y-182109802D02*
X332338775Y-182205040D01*
X332338775Y-182205040D02*
X332386394Y-182300278D01*
X332100680Y-181395516D02*
X332100680Y-180776469D01*
X332100680Y-180776469D02*
X332481632Y-181109802D01*
X332481632Y-181109802D02*
X332481632Y-180966945D01*
X332481632Y-180966945D02*
X332529251Y-180871707D01*
X332529251Y-180871707D02*
X332576870Y-180824088D01*
X332576870Y-180824088D02*
X332672108Y-180776469D01*
X332672108Y-180776469D02*
X332910203Y-180776469D01*
X332910203Y-180776469D02*
X333005441Y-180824088D01*
X333005441Y-180824088D02*
X333053061Y-180871707D01*
X333053061Y-180871707D02*
X333100680Y-180966945D01*
X333100680Y-180966945D02*
X333100680Y-181252659D01*
X333100680Y-181252659D02*
X333053061Y-181347897D01*
X333053061Y-181347897D02*
X333005441Y-181395516D01*
X326287766Y-96623193D02*
X326287766Y-97432716D01*
X326287766Y-97432716D02*
X326335385Y-97527954D01*
X326335385Y-97527954D02*
X326383004Y-97575574D01*
X326383004Y-97575574D02*
X326478242Y-97623193D01*
X326478242Y-97623193D02*
X326668718Y-97623193D01*
X326668718Y-97623193D02*
X326763956Y-97575574D01*
X326763956Y-97575574D02*
X326811575Y-97527954D01*
X326811575Y-97527954D02*
X326859194Y-97432716D01*
X326859194Y-97432716D02*
X326859194Y-96623193D01*
X327240147Y-96623193D02*
X327859194Y-96623193D01*
X327859194Y-96623193D02*
X327525861Y-97004145D01*
X327525861Y-97004145D02*
X327668718Y-97004145D01*
X327668718Y-97004145D02*
X327763956Y-97051764D01*
X327763956Y-97051764D02*
X327811575Y-97099383D01*
X327811575Y-97099383D02*
X327859194Y-97194621D01*
X327859194Y-97194621D02*
X327859194Y-97432716D01*
X327859194Y-97432716D02*
X327811575Y-97527954D01*
X327811575Y-97527954D02*
X327763956Y-97575574D01*
X327763956Y-97575574D02*
X327668718Y-97623193D01*
X327668718Y-97623193D02*
X327383004Y-97623193D01*
X327383004Y-97623193D02*
X327287766Y-97575574D01*
X327287766Y-97575574D02*
X327240147Y-97527954D01*
X328811575Y-97623193D02*
X328240147Y-97623193D01*
X328525861Y-97623193D02*
X328525861Y-96623193D01*
X328525861Y-96623193D02*
X328430623Y-96766050D01*
X328430623Y-96766050D02*
X328335385Y-96861288D01*
X328335385Y-96861288D02*
X328240147Y-96908907D01*
X377503003Y-158123193D02*
X377169670Y-157647002D01*
X376931575Y-158123193D02*
X376931575Y-157123193D01*
X376931575Y-157123193D02*
X377312527Y-157123193D01*
X377312527Y-157123193D02*
X377407765Y-157170812D01*
X377407765Y-157170812D02*
X377455384Y-157218431D01*
X377455384Y-157218431D02*
X377503003Y-157313669D01*
X377503003Y-157313669D02*
X377503003Y-157456526D01*
X377503003Y-157456526D02*
X377455384Y-157551764D01*
X377455384Y-157551764D02*
X377407765Y-157599383D01*
X377407765Y-157599383D02*
X377312527Y-157647002D01*
X377312527Y-157647002D02*
X376931575Y-157647002D01*
X378360146Y-157123193D02*
X378169670Y-157123193D01*
X378169670Y-157123193D02*
X378074432Y-157170812D01*
X378074432Y-157170812D02*
X378026813Y-157218431D01*
X378026813Y-157218431D02*
X377931575Y-157361288D01*
X377931575Y-157361288D02*
X377883956Y-157551764D01*
X377883956Y-157551764D02*
X377883956Y-157932716D01*
X377883956Y-157932716D02*
X377931575Y-158027954D01*
X377931575Y-158027954D02*
X377979194Y-158075574D01*
X377979194Y-158075574D02*
X378074432Y-158123193D01*
X378074432Y-158123193D02*
X378264908Y-158123193D01*
X378264908Y-158123193D02*
X378360146Y-158075574D01*
X378360146Y-158075574D02*
X378407765Y-158027954D01*
X378407765Y-158027954D02*
X378455384Y-157932716D01*
X378455384Y-157932716D02*
X378455384Y-157694621D01*
X378455384Y-157694621D02*
X378407765Y-157599383D01*
X378407765Y-157599383D02*
X378360146Y-157551764D01*
X378360146Y-157551764D02*
X378264908Y-157504145D01*
X378264908Y-157504145D02*
X378074432Y-157504145D01*
X378074432Y-157504145D02*
X377979194Y-157551764D01*
X377979194Y-157551764D02*
X377931575Y-157599383D01*
X377931575Y-157599383D02*
X377883956Y-157694621D01*
X378788718Y-157123193D02*
X379407765Y-157123193D01*
X379407765Y-157123193D02*
X379074432Y-157504145D01*
X379074432Y-157504145D02*
X379217289Y-157504145D01*
X379217289Y-157504145D02*
X379312527Y-157551764D01*
X379312527Y-157551764D02*
X379360146Y-157599383D01*
X379360146Y-157599383D02*
X379407765Y-157694621D01*
X379407765Y-157694621D02*
X379407765Y-157932716D01*
X379407765Y-157932716D02*
X379360146Y-158027954D01*
X379360146Y-158027954D02*
X379312527Y-158075574D01*
X379312527Y-158075574D02*
X379217289Y-158123193D01*
X379217289Y-158123193D02*
X378931575Y-158123193D01*
X378931575Y-158123193D02*
X378836337Y-158075574D01*
X378836337Y-158075574D02*
X378788718Y-158027954D01*
X306813003Y-128363193D02*
X306479670Y-127887002D01*
X306241575Y-128363193D02*
X306241575Y-127363193D01*
X306241575Y-127363193D02*
X306622527Y-127363193D01*
X306622527Y-127363193D02*
X306717765Y-127410812D01*
X306717765Y-127410812D02*
X306765384Y-127458431D01*
X306765384Y-127458431D02*
X306813003Y-127553669D01*
X306813003Y-127553669D02*
X306813003Y-127696526D01*
X306813003Y-127696526D02*
X306765384Y-127791764D01*
X306765384Y-127791764D02*
X306717765Y-127839383D01*
X306717765Y-127839383D02*
X306622527Y-127887002D01*
X306622527Y-127887002D02*
X306241575Y-127887002D01*
X307717765Y-127363193D02*
X307241575Y-127363193D01*
X307241575Y-127363193D02*
X307193956Y-127839383D01*
X307193956Y-127839383D02*
X307241575Y-127791764D01*
X307241575Y-127791764D02*
X307336813Y-127744145D01*
X307336813Y-127744145D02*
X307574908Y-127744145D01*
X307574908Y-127744145D02*
X307670146Y-127791764D01*
X307670146Y-127791764D02*
X307717765Y-127839383D01*
X307717765Y-127839383D02*
X307765384Y-127934621D01*
X307765384Y-127934621D02*
X307765384Y-128172716D01*
X307765384Y-128172716D02*
X307717765Y-128267954D01*
X307717765Y-128267954D02*
X307670146Y-128315574D01*
X307670146Y-128315574D02*
X307574908Y-128363193D01*
X307574908Y-128363193D02*
X307336813Y-128363193D01*
X307336813Y-128363193D02*
X307241575Y-128315574D01*
X307241575Y-128315574D02*
X307193956Y-128267954D01*
X308717765Y-128363193D02*
X308146337Y-128363193D01*
X308432051Y-128363193D02*
X308432051Y-127363193D01*
X308432051Y-127363193D02*
X308336813Y-127506050D01*
X308336813Y-127506050D02*
X308241575Y-127601288D01*
X308241575Y-127601288D02*
X308146337Y-127648907D01*
X194003003Y-110863193D02*
X193669670Y-110387002D01*
X193431575Y-110863193D02*
X193431575Y-109863193D01*
X193431575Y-109863193D02*
X193812527Y-109863193D01*
X193812527Y-109863193D02*
X193907765Y-109910812D01*
X193907765Y-109910812D02*
X193955384Y-109958431D01*
X193955384Y-109958431D02*
X194003003Y-110053669D01*
X194003003Y-110053669D02*
X194003003Y-110196526D01*
X194003003Y-110196526D02*
X193955384Y-110291764D01*
X193955384Y-110291764D02*
X193907765Y-110339383D01*
X193907765Y-110339383D02*
X193812527Y-110387002D01*
X193812527Y-110387002D02*
X193431575Y-110387002D01*
X194860146Y-110196526D02*
X194860146Y-110863193D01*
X194622051Y-109815574D02*
X194383956Y-110529859D01*
X194383956Y-110529859D02*
X195003003Y-110529859D01*
X195907765Y-110863193D02*
X195336337Y-110863193D01*
X195622051Y-110863193D02*
X195622051Y-109863193D01*
X195622051Y-109863193D02*
X195526813Y-110006050D01*
X195526813Y-110006050D02*
X195431575Y-110101288D01*
X195431575Y-110101288D02*
X195336337Y-110148907D01*
X344005441Y-105681231D02*
X344053061Y-105728850D01*
X344053061Y-105728850D02*
X344100680Y-105871707D01*
X344100680Y-105871707D02*
X344100680Y-105966945D01*
X344100680Y-105966945D02*
X344053061Y-106109802D01*
X344053061Y-106109802D02*
X343957822Y-106205040D01*
X343957822Y-106205040D02*
X343862584Y-106252659D01*
X343862584Y-106252659D02*
X343672108Y-106300278D01*
X343672108Y-106300278D02*
X343529251Y-106300278D01*
X343529251Y-106300278D02*
X343338775Y-106252659D01*
X343338775Y-106252659D02*
X343243537Y-106205040D01*
X343243537Y-106205040D02*
X343148299Y-106109802D01*
X343148299Y-106109802D02*
X343100680Y-105966945D01*
X343100680Y-105966945D02*
X343100680Y-105871707D01*
X343100680Y-105871707D02*
X343148299Y-105728850D01*
X343148299Y-105728850D02*
X343195918Y-105681231D01*
X344100680Y-104728850D02*
X344100680Y-105300278D01*
X344100680Y-105014564D02*
X343100680Y-105014564D01*
X343100680Y-105014564D02*
X343243537Y-105109802D01*
X343243537Y-105109802D02*
X343338775Y-105205040D01*
X343338775Y-105205040D02*
X343386394Y-105300278D01*
X343529251Y-104157421D02*
X343481632Y-104252659D01*
X343481632Y-104252659D02*
X343434013Y-104300278D01*
X343434013Y-104300278D02*
X343338775Y-104347897D01*
X343338775Y-104347897D02*
X343291156Y-104347897D01*
X343291156Y-104347897D02*
X343195918Y-104300278D01*
X343195918Y-104300278D02*
X343148299Y-104252659D01*
X343148299Y-104252659D02*
X343100680Y-104157421D01*
X343100680Y-104157421D02*
X343100680Y-103966945D01*
X343100680Y-103966945D02*
X343148299Y-103871707D01*
X343148299Y-103871707D02*
X343195918Y-103824088D01*
X343195918Y-103824088D02*
X343291156Y-103776469D01*
X343291156Y-103776469D02*
X343338775Y-103776469D01*
X343338775Y-103776469D02*
X343434013Y-103824088D01*
X343434013Y-103824088D02*
X343481632Y-103871707D01*
X343481632Y-103871707D02*
X343529251Y-103966945D01*
X343529251Y-103966945D02*
X343529251Y-104157421D01*
X343529251Y-104157421D02*
X343576870Y-104252659D01*
X343576870Y-104252659D02*
X343624489Y-104300278D01*
X343624489Y-104300278D02*
X343719727Y-104347897D01*
X343719727Y-104347897D02*
X343910203Y-104347897D01*
X343910203Y-104347897D02*
X344005441Y-104300278D01*
X344005441Y-104300278D02*
X344053061Y-104252659D01*
X344053061Y-104252659D02*
X344100680Y-104157421D01*
X344100680Y-104157421D02*
X344100680Y-103966945D01*
X344100680Y-103966945D02*
X344053061Y-103871707D01*
X344053061Y-103871707D02*
X344005441Y-103824088D01*
X344005441Y-103824088D02*
X343910203Y-103776469D01*
X343910203Y-103776469D02*
X343719727Y-103776469D01*
X343719727Y-103776469D02*
X343624489Y-103824088D01*
X343624489Y-103824088D02*
X343576870Y-103871707D01*
X343576870Y-103871707D02*
X343529251Y-103966945D01*
X131230680Y-108371231D02*
X130754489Y-108704564D01*
X131230680Y-108942659D02*
X130230680Y-108942659D01*
X130230680Y-108942659D02*
X130230680Y-108561707D01*
X130230680Y-108561707D02*
X130278299Y-108466469D01*
X130278299Y-108466469D02*
X130325918Y-108418850D01*
X130325918Y-108418850D02*
X130421156Y-108371231D01*
X130421156Y-108371231D02*
X130564013Y-108371231D01*
X130564013Y-108371231D02*
X130659251Y-108418850D01*
X130659251Y-108418850D02*
X130706870Y-108466469D01*
X130706870Y-108466469D02*
X130754489Y-108561707D01*
X130754489Y-108561707D02*
X130754489Y-108942659D01*
X130325918Y-107990278D02*
X130278299Y-107942659D01*
X130278299Y-107942659D02*
X130230680Y-107847421D01*
X130230680Y-107847421D02*
X130230680Y-107609326D01*
X130230680Y-107609326D02*
X130278299Y-107514088D01*
X130278299Y-107514088D02*
X130325918Y-107466469D01*
X130325918Y-107466469D02*
X130421156Y-107418850D01*
X130421156Y-107418850D02*
X130516394Y-107418850D01*
X130516394Y-107418850D02*
X130659251Y-107466469D01*
X130659251Y-107466469D02*
X131230680Y-108037897D01*
X131230680Y-108037897D02*
X131230680Y-107418850D01*
X130230680Y-106514088D02*
X130230680Y-106990278D01*
X130230680Y-106990278D02*
X130706870Y-107037897D01*
X130706870Y-107037897D02*
X130659251Y-106990278D01*
X130659251Y-106990278D02*
X130611632Y-106895040D01*
X130611632Y-106895040D02*
X130611632Y-106656945D01*
X130611632Y-106656945D02*
X130659251Y-106561707D01*
X130659251Y-106561707D02*
X130706870Y-106514088D01*
X130706870Y-106514088D02*
X130802108Y-106466469D01*
X130802108Y-106466469D02*
X131040203Y-106466469D01*
X131040203Y-106466469D02*
X131135441Y-106514088D01*
X131135441Y-106514088D02*
X131183061Y-106561707D01*
X131183061Y-106561707D02*
X131230680Y-106656945D01*
X131230680Y-106656945D02*
X131230680Y-106895040D01*
X131230680Y-106895040D02*
X131183061Y-106990278D01*
X131183061Y-106990278D02*
X131135441Y-107037897D01*
X194179146Y-141272283D02*
X193845813Y-140796092D01*
X193607718Y-141272283D02*
X193607718Y-140272283D01*
X193607718Y-140272283D02*
X193988670Y-140272283D01*
X193988670Y-140272283D02*
X194083908Y-140319902D01*
X194083908Y-140319902D02*
X194131527Y-140367521D01*
X194131527Y-140367521D02*
X194179146Y-140462759D01*
X194179146Y-140462759D02*
X194179146Y-140605616D01*
X194179146Y-140605616D02*
X194131527Y-140700854D01*
X194131527Y-140700854D02*
X194083908Y-140748473D01*
X194083908Y-140748473D02*
X193988670Y-140796092D01*
X193988670Y-140796092D02*
X193607718Y-140796092D01*
X195036289Y-140605616D02*
X195036289Y-141272283D01*
X194798194Y-140224664D02*
X194560099Y-140938949D01*
X194560099Y-140938949D02*
X195179146Y-140938949D01*
X195702956Y-140700854D02*
X195607718Y-140653235D01*
X195607718Y-140653235D02*
X195560099Y-140605616D01*
X195560099Y-140605616D02*
X195512480Y-140510378D01*
X195512480Y-140510378D02*
X195512480Y-140462759D01*
X195512480Y-140462759D02*
X195560099Y-140367521D01*
X195560099Y-140367521D02*
X195607718Y-140319902D01*
X195607718Y-140319902D02*
X195702956Y-140272283D01*
X195702956Y-140272283D02*
X195893432Y-140272283D01*
X195893432Y-140272283D02*
X195988670Y-140319902D01*
X195988670Y-140319902D02*
X196036289Y-140367521D01*
X196036289Y-140367521D02*
X196083908Y-140462759D01*
X196083908Y-140462759D02*
X196083908Y-140510378D01*
X196083908Y-140510378D02*
X196036289Y-140605616D01*
X196036289Y-140605616D02*
X195988670Y-140653235D01*
X195988670Y-140653235D02*
X195893432Y-140700854D01*
X195893432Y-140700854D02*
X195702956Y-140700854D01*
X195702956Y-140700854D02*
X195607718Y-140748473D01*
X195607718Y-140748473D02*
X195560099Y-140796092D01*
X195560099Y-140796092D02*
X195512480Y-140891330D01*
X195512480Y-140891330D02*
X195512480Y-141081806D01*
X195512480Y-141081806D02*
X195560099Y-141177044D01*
X195560099Y-141177044D02*
X195607718Y-141224664D01*
X195607718Y-141224664D02*
X195702956Y-141272283D01*
X195702956Y-141272283D02*
X195893432Y-141272283D01*
X195893432Y-141272283D02*
X195988670Y-141224664D01*
X195988670Y-141224664D02*
X196036289Y-141177044D01*
X196036289Y-141177044D02*
X196083908Y-141081806D01*
X196083908Y-141081806D02*
X196083908Y-140891330D01*
X196083908Y-140891330D02*
X196036289Y-140796092D01*
X196036289Y-140796092D02*
X195988670Y-140748473D01*
X195988670Y-140748473D02*
X195893432Y-140700854D01*
X328005441Y-136181231D02*
X328053061Y-136228850D01*
X328053061Y-136228850D02*
X328100680Y-136371707D01*
X328100680Y-136371707D02*
X328100680Y-136466945D01*
X328100680Y-136466945D02*
X328053061Y-136609802D01*
X328053061Y-136609802D02*
X327957822Y-136705040D01*
X327957822Y-136705040D02*
X327862584Y-136752659D01*
X327862584Y-136752659D02*
X327672108Y-136800278D01*
X327672108Y-136800278D02*
X327529251Y-136800278D01*
X327529251Y-136800278D02*
X327338775Y-136752659D01*
X327338775Y-136752659D02*
X327243537Y-136705040D01*
X327243537Y-136705040D02*
X327148299Y-136609802D01*
X327148299Y-136609802D02*
X327100680Y-136466945D01*
X327100680Y-136466945D02*
X327100680Y-136371707D01*
X327100680Y-136371707D02*
X327148299Y-136228850D01*
X327148299Y-136228850D02*
X327195918Y-136181231D01*
X328100680Y-135228850D02*
X328100680Y-135800278D01*
X328100680Y-135514564D02*
X327100680Y-135514564D01*
X327100680Y-135514564D02*
X327243537Y-135609802D01*
X327243537Y-135609802D02*
X327338775Y-135705040D01*
X327338775Y-135705040D02*
X327386394Y-135800278D01*
X327100680Y-134895516D02*
X327100680Y-134228850D01*
X327100680Y-134228850D02*
X328100680Y-134657421D01*
X194003003Y-154863193D02*
X193669670Y-154387002D01*
X193431575Y-154863193D02*
X193431575Y-153863193D01*
X193431575Y-153863193D02*
X193812527Y-153863193D01*
X193812527Y-153863193D02*
X193907765Y-153910812D01*
X193907765Y-153910812D02*
X193955384Y-153958431D01*
X193955384Y-153958431D02*
X194003003Y-154053669D01*
X194003003Y-154053669D02*
X194003003Y-154196526D01*
X194003003Y-154196526D02*
X193955384Y-154291764D01*
X193955384Y-154291764D02*
X193907765Y-154339383D01*
X193907765Y-154339383D02*
X193812527Y-154387002D01*
X193812527Y-154387002D02*
X193431575Y-154387002D01*
X194860146Y-154196526D02*
X194860146Y-154863193D01*
X194622051Y-153815574D02*
X194383956Y-154529859D01*
X194383956Y-154529859D02*
X195003003Y-154529859D01*
X195860146Y-153863193D02*
X195383956Y-153863193D01*
X195383956Y-153863193D02*
X195336337Y-154339383D01*
X195336337Y-154339383D02*
X195383956Y-154291764D01*
X195383956Y-154291764D02*
X195479194Y-154244145D01*
X195479194Y-154244145D02*
X195717289Y-154244145D01*
X195717289Y-154244145D02*
X195812527Y-154291764D01*
X195812527Y-154291764D02*
X195860146Y-154339383D01*
X195860146Y-154339383D02*
X195907765Y-154434621D01*
X195907765Y-154434621D02*
X195907765Y-154672716D01*
X195907765Y-154672716D02*
X195860146Y-154767954D01*
X195860146Y-154767954D02*
X195812527Y-154815574D01*
X195812527Y-154815574D02*
X195717289Y-154863193D01*
X195717289Y-154863193D02*
X195479194Y-154863193D01*
X195479194Y-154863193D02*
X195383956Y-154815574D01*
X195383956Y-154815574D02*
X195336337Y-154767954D01*
X181030680Y-172990278D02*
X181840203Y-172990278D01*
X181840203Y-172990278D02*
X181935441Y-172942659D01*
X181935441Y-172942659D02*
X181983061Y-172895040D01*
X181983061Y-172895040D02*
X182030680Y-172799802D01*
X182030680Y-172799802D02*
X182030680Y-172609326D01*
X182030680Y-172609326D02*
X181983061Y-172514088D01*
X181983061Y-172514088D02*
X181935441Y-172466469D01*
X181935441Y-172466469D02*
X181840203Y-172418850D01*
X181840203Y-172418850D02*
X181030680Y-172418850D01*
X181030680Y-172037897D02*
X181030680Y-171371231D01*
X181030680Y-171371231D02*
X182030680Y-171799802D01*
X98313003Y-133363193D02*
X97979670Y-132887002D01*
X97741575Y-133363193D02*
X97741575Y-132363193D01*
X97741575Y-132363193D02*
X98122527Y-132363193D01*
X98122527Y-132363193D02*
X98217765Y-132410812D01*
X98217765Y-132410812D02*
X98265384Y-132458431D01*
X98265384Y-132458431D02*
X98313003Y-132553669D01*
X98313003Y-132553669D02*
X98313003Y-132696526D01*
X98313003Y-132696526D02*
X98265384Y-132791764D01*
X98265384Y-132791764D02*
X98217765Y-132839383D01*
X98217765Y-132839383D02*
X98122527Y-132887002D01*
X98122527Y-132887002D02*
X97741575Y-132887002D01*
X98646337Y-132363193D02*
X99265384Y-132363193D01*
X99265384Y-132363193D02*
X98932051Y-132744145D01*
X98932051Y-132744145D02*
X99074908Y-132744145D01*
X99074908Y-132744145D02*
X99170146Y-132791764D01*
X99170146Y-132791764D02*
X99217765Y-132839383D01*
X99217765Y-132839383D02*
X99265384Y-132934621D01*
X99265384Y-132934621D02*
X99265384Y-133172716D01*
X99265384Y-133172716D02*
X99217765Y-133267954D01*
X99217765Y-133267954D02*
X99170146Y-133315574D01*
X99170146Y-133315574D02*
X99074908Y-133363193D01*
X99074908Y-133363193D02*
X98789194Y-133363193D01*
X98789194Y-133363193D02*
X98693956Y-133315574D01*
X98693956Y-133315574D02*
X98646337Y-133267954D01*
X100170146Y-132363193D02*
X99693956Y-132363193D01*
X99693956Y-132363193D02*
X99646337Y-132839383D01*
X99646337Y-132839383D02*
X99693956Y-132791764D01*
X99693956Y-132791764D02*
X99789194Y-132744145D01*
X99789194Y-132744145D02*
X100027289Y-132744145D01*
X100027289Y-132744145D02*
X100122527Y-132791764D01*
X100122527Y-132791764D02*
X100170146Y-132839383D01*
X100170146Y-132839383D02*
X100217765Y-132934621D01*
X100217765Y-132934621D02*
X100217765Y-133172716D01*
X100217765Y-133172716D02*
X100170146Y-133267954D01*
X100170146Y-133267954D02*
X100122527Y-133315574D01*
X100122527Y-133315574D02*
X100027289Y-133363193D01*
X100027289Y-133363193D02*
X99789194Y-133363193D01*
X99789194Y-133363193D02*
X99693956Y-133315574D01*
X99693956Y-133315574D02*
X99646337Y-133267954D01*
X98443221Y-141621882D02*
X98109888Y-141145691D01*
X97871793Y-141621882D02*
X97871793Y-140621882D01*
X97871793Y-140621882D02*
X98252745Y-140621882D01*
X98252745Y-140621882D02*
X98347983Y-140669501D01*
X98347983Y-140669501D02*
X98395602Y-140717120D01*
X98395602Y-140717120D02*
X98443221Y-140812358D01*
X98443221Y-140812358D02*
X98443221Y-140955215D01*
X98443221Y-140955215D02*
X98395602Y-141050453D01*
X98395602Y-141050453D02*
X98347983Y-141098072D01*
X98347983Y-141098072D02*
X98252745Y-141145691D01*
X98252745Y-141145691D02*
X97871793Y-141145691D01*
X98776555Y-140621882D02*
X99395602Y-140621882D01*
X99395602Y-140621882D02*
X99062269Y-141002834D01*
X99062269Y-141002834D02*
X99205126Y-141002834D01*
X99205126Y-141002834D02*
X99300364Y-141050453D01*
X99300364Y-141050453D02*
X99347983Y-141098072D01*
X99347983Y-141098072D02*
X99395602Y-141193310D01*
X99395602Y-141193310D02*
X99395602Y-141431405D01*
X99395602Y-141431405D02*
X99347983Y-141526643D01*
X99347983Y-141526643D02*
X99300364Y-141574263D01*
X99300364Y-141574263D02*
X99205126Y-141621882D01*
X99205126Y-141621882D02*
X98919412Y-141621882D01*
X98919412Y-141621882D02*
X98824174Y-141574263D01*
X98824174Y-141574263D02*
X98776555Y-141526643D01*
X99871793Y-141621882D02*
X100062269Y-141621882D01*
X100062269Y-141621882D02*
X100157507Y-141574263D01*
X100157507Y-141574263D02*
X100205126Y-141526643D01*
X100205126Y-141526643D02*
X100300364Y-141383786D01*
X100300364Y-141383786D02*
X100347983Y-141193310D01*
X100347983Y-141193310D02*
X100347983Y-140812358D01*
X100347983Y-140812358D02*
X100300364Y-140717120D01*
X100300364Y-140717120D02*
X100252745Y-140669501D01*
X100252745Y-140669501D02*
X100157507Y-140621882D01*
X100157507Y-140621882D02*
X99967031Y-140621882D01*
X99967031Y-140621882D02*
X99871793Y-140669501D01*
X99871793Y-140669501D02*
X99824174Y-140717120D01*
X99824174Y-140717120D02*
X99776555Y-140812358D01*
X99776555Y-140812358D02*
X99776555Y-141050453D01*
X99776555Y-141050453D02*
X99824174Y-141145691D01*
X99824174Y-141145691D02*
X99871793Y-141193310D01*
X99871793Y-141193310D02*
X99967031Y-141240929D01*
X99967031Y-141240929D02*
X100157507Y-141240929D01*
X100157507Y-141240929D02*
X100252745Y-141193310D01*
X100252745Y-141193310D02*
X100300364Y-141145691D01*
X100300364Y-141145691D02*
X100347983Y-141050453D01*
X213787766Y-112843193D02*
X213787766Y-113652716D01*
X213787766Y-113652716D02*
X213835385Y-113747954D01*
X213835385Y-113747954D02*
X213883004Y-113795574D01*
X213883004Y-113795574D02*
X213978242Y-113843193D01*
X213978242Y-113843193D02*
X214168718Y-113843193D01*
X214168718Y-113843193D02*
X214263956Y-113795574D01*
X214263956Y-113795574D02*
X214311575Y-113747954D01*
X214311575Y-113747954D02*
X214359194Y-113652716D01*
X214359194Y-113652716D02*
X214359194Y-112843193D01*
X214787766Y-112938431D02*
X214835385Y-112890812D01*
X214835385Y-112890812D02*
X214930623Y-112843193D01*
X214930623Y-112843193D02*
X215168718Y-112843193D01*
X215168718Y-112843193D02*
X215263956Y-112890812D01*
X215263956Y-112890812D02*
X215311575Y-112938431D01*
X215311575Y-112938431D02*
X215359194Y-113033669D01*
X215359194Y-113033669D02*
X215359194Y-113128907D01*
X215359194Y-113128907D02*
X215311575Y-113271764D01*
X215311575Y-113271764D02*
X214740147Y-113843193D01*
X214740147Y-113843193D02*
X215359194Y-113843193D01*
X215835385Y-113843193D02*
X216025861Y-113843193D01*
X216025861Y-113843193D02*
X216121099Y-113795574D01*
X216121099Y-113795574D02*
X216168718Y-113747954D01*
X216168718Y-113747954D02*
X216263956Y-113605097D01*
X216263956Y-113605097D02*
X216311575Y-113414621D01*
X216311575Y-113414621D02*
X216311575Y-113033669D01*
X216311575Y-113033669D02*
X216263956Y-112938431D01*
X216263956Y-112938431D02*
X216216337Y-112890812D01*
X216216337Y-112890812D02*
X216121099Y-112843193D01*
X216121099Y-112843193D02*
X215930623Y-112843193D01*
X215930623Y-112843193D02*
X215835385Y-112890812D01*
X215835385Y-112890812D02*
X215787766Y-112938431D01*
X215787766Y-112938431D02*
X215740147Y-113033669D01*
X215740147Y-113033669D02*
X215740147Y-113271764D01*
X215740147Y-113271764D02*
X215787766Y-113367002D01*
X215787766Y-113367002D02*
X215835385Y-113414621D01*
X215835385Y-113414621D02*
X215930623Y-113462240D01*
X215930623Y-113462240D02*
X216121099Y-113462240D01*
X216121099Y-113462240D02*
X216216337Y-113414621D01*
X216216337Y-113414621D02*
X216263956Y-113367002D01*
X216263956Y-113367002D02*
X216311575Y-113271764D01*
X98495552Y-150652996D02*
X98162219Y-150176805D01*
X97924124Y-150652996D02*
X97924124Y-149652996D01*
X97924124Y-149652996D02*
X98305076Y-149652996D01*
X98305076Y-149652996D02*
X98400314Y-149700615D01*
X98400314Y-149700615D02*
X98447933Y-149748234D01*
X98447933Y-149748234D02*
X98495552Y-149843472D01*
X98495552Y-149843472D02*
X98495552Y-149986329D01*
X98495552Y-149986329D02*
X98447933Y-150081567D01*
X98447933Y-150081567D02*
X98400314Y-150129186D01*
X98400314Y-150129186D02*
X98305076Y-150176805D01*
X98305076Y-150176805D02*
X97924124Y-150176805D01*
X98828886Y-149652996D02*
X99447933Y-149652996D01*
X99447933Y-149652996D02*
X99114600Y-150033948D01*
X99114600Y-150033948D02*
X99257457Y-150033948D01*
X99257457Y-150033948D02*
X99352695Y-150081567D01*
X99352695Y-150081567D02*
X99400314Y-150129186D01*
X99400314Y-150129186D02*
X99447933Y-150224424D01*
X99447933Y-150224424D02*
X99447933Y-150462519D01*
X99447933Y-150462519D02*
X99400314Y-150557757D01*
X99400314Y-150557757D02*
X99352695Y-150605377D01*
X99352695Y-150605377D02*
X99257457Y-150652996D01*
X99257457Y-150652996D02*
X98971743Y-150652996D01*
X98971743Y-150652996D02*
X98876505Y-150605377D01*
X98876505Y-150605377D02*
X98828886Y-150557757D01*
X99781267Y-149652996D02*
X100447933Y-149652996D01*
X100447933Y-149652996D02*
X100019362Y-150652996D01*
X98503003Y-98623193D02*
X98169670Y-98147002D01*
X97931575Y-98623193D02*
X97931575Y-97623193D01*
X97931575Y-97623193D02*
X98312527Y-97623193D01*
X98312527Y-97623193D02*
X98407765Y-97670812D01*
X98407765Y-97670812D02*
X98455384Y-97718431D01*
X98455384Y-97718431D02*
X98503003Y-97813669D01*
X98503003Y-97813669D02*
X98503003Y-97956526D01*
X98503003Y-97956526D02*
X98455384Y-98051764D01*
X98455384Y-98051764D02*
X98407765Y-98099383D01*
X98407765Y-98099383D02*
X98312527Y-98147002D01*
X98312527Y-98147002D02*
X97931575Y-98147002D01*
X98836337Y-97623193D02*
X99455384Y-97623193D01*
X99455384Y-97623193D02*
X99122051Y-98004145D01*
X99122051Y-98004145D02*
X99264908Y-98004145D01*
X99264908Y-98004145D02*
X99360146Y-98051764D01*
X99360146Y-98051764D02*
X99407765Y-98099383D01*
X99407765Y-98099383D02*
X99455384Y-98194621D01*
X99455384Y-98194621D02*
X99455384Y-98432716D01*
X99455384Y-98432716D02*
X99407765Y-98527954D01*
X99407765Y-98527954D02*
X99360146Y-98575574D01*
X99360146Y-98575574D02*
X99264908Y-98623193D01*
X99264908Y-98623193D02*
X98979194Y-98623193D01*
X98979194Y-98623193D02*
X98883956Y-98575574D01*
X98883956Y-98575574D02*
X98836337Y-98527954D01*
X100407765Y-98623193D02*
X99836337Y-98623193D01*
X100122051Y-98623193D02*
X100122051Y-97623193D01*
X100122051Y-97623193D02*
X100026813Y-97766050D01*
X100026813Y-97766050D02*
X99931575Y-97861288D01*
X99931575Y-97861288D02*
X99836337Y-97908907D01*
X214405441Y-149931231D02*
X214453061Y-149978850D01*
X214453061Y-149978850D02*
X214500680Y-150121707D01*
X214500680Y-150121707D02*
X214500680Y-150216945D01*
X214500680Y-150216945D02*
X214453061Y-150359802D01*
X214453061Y-150359802D02*
X214357822Y-150455040D01*
X214357822Y-150455040D02*
X214262584Y-150502659D01*
X214262584Y-150502659D02*
X214072108Y-150550278D01*
X214072108Y-150550278D02*
X213929251Y-150550278D01*
X213929251Y-150550278D02*
X213738775Y-150502659D01*
X213738775Y-150502659D02*
X213643537Y-150455040D01*
X213643537Y-150455040D02*
X213548299Y-150359802D01*
X213548299Y-150359802D02*
X213500680Y-150216945D01*
X213500680Y-150216945D02*
X213500680Y-150121707D01*
X213500680Y-150121707D02*
X213548299Y-149978850D01*
X213548299Y-149978850D02*
X213595918Y-149931231D01*
X213595918Y-149550278D02*
X213548299Y-149502659D01*
X213548299Y-149502659D02*
X213500680Y-149407421D01*
X213500680Y-149407421D02*
X213500680Y-149169326D01*
X213500680Y-149169326D02*
X213548299Y-149074088D01*
X213548299Y-149074088D02*
X213595918Y-149026469D01*
X213595918Y-149026469D02*
X213691156Y-148978850D01*
X213691156Y-148978850D02*
X213786394Y-148978850D01*
X213786394Y-148978850D02*
X213929251Y-149026469D01*
X213929251Y-149026469D02*
X214500680Y-149597897D01*
X214500680Y-149597897D02*
X214500680Y-148978850D01*
X213500680Y-148359802D02*
X213500680Y-148264564D01*
X213500680Y-148264564D02*
X213548299Y-148169326D01*
X213548299Y-148169326D02*
X213595918Y-148121707D01*
X213595918Y-148121707D02*
X213691156Y-148074088D01*
X213691156Y-148074088D02*
X213881632Y-148026469D01*
X213881632Y-148026469D02*
X214119727Y-148026469D01*
X214119727Y-148026469D02*
X214310203Y-148074088D01*
X214310203Y-148074088D02*
X214405441Y-148121707D01*
X214405441Y-148121707D02*
X214453061Y-148169326D01*
X214453061Y-148169326D02*
X214500680Y-148264564D01*
X214500680Y-148264564D02*
X214500680Y-148359802D01*
X214500680Y-148359802D02*
X214453061Y-148455040D01*
X214453061Y-148455040D02*
X214405441Y-148502659D01*
X214405441Y-148502659D02*
X214310203Y-148550278D01*
X214310203Y-148550278D02*
X214119727Y-148597897D01*
X214119727Y-148597897D02*
X213881632Y-148597897D01*
X213881632Y-148597897D02*
X213691156Y-148550278D01*
X213691156Y-148550278D02*
X213595918Y-148502659D01*
X213595918Y-148502659D02*
X213548299Y-148455040D01*
X213548299Y-148455040D02*
X213500680Y-148359802D01*
X382470680Y-131871231D02*
X381994489Y-132204564D01*
X382470680Y-132442659D02*
X381470680Y-132442659D01*
X381470680Y-132442659D02*
X381470680Y-132061707D01*
X381470680Y-132061707D02*
X381518299Y-131966469D01*
X381518299Y-131966469D02*
X381565918Y-131918850D01*
X381565918Y-131918850D02*
X381661156Y-131871231D01*
X381661156Y-131871231D02*
X381804013Y-131871231D01*
X381804013Y-131871231D02*
X381899251Y-131918850D01*
X381899251Y-131918850D02*
X381946870Y-131966469D01*
X381946870Y-131966469D02*
X381994489Y-132061707D01*
X381994489Y-132061707D02*
X381994489Y-132442659D01*
X381470680Y-131014088D02*
X381470680Y-131204564D01*
X381470680Y-131204564D02*
X381518299Y-131299802D01*
X381518299Y-131299802D02*
X381565918Y-131347421D01*
X381565918Y-131347421D02*
X381708775Y-131442659D01*
X381708775Y-131442659D02*
X381899251Y-131490278D01*
X381899251Y-131490278D02*
X382280203Y-131490278D01*
X382280203Y-131490278D02*
X382375441Y-131442659D01*
X382375441Y-131442659D02*
X382423061Y-131395040D01*
X382423061Y-131395040D02*
X382470680Y-131299802D01*
X382470680Y-131299802D02*
X382470680Y-131109326D01*
X382470680Y-131109326D02*
X382423061Y-131014088D01*
X382423061Y-131014088D02*
X382375441Y-130966469D01*
X382375441Y-130966469D02*
X382280203Y-130918850D01*
X382280203Y-130918850D02*
X382042108Y-130918850D01*
X382042108Y-130918850D02*
X381946870Y-130966469D01*
X381946870Y-130966469D02*
X381899251Y-131014088D01*
X381899251Y-131014088D02*
X381851632Y-131109326D01*
X381851632Y-131109326D02*
X381851632Y-131299802D01*
X381851632Y-131299802D02*
X381899251Y-131395040D01*
X381899251Y-131395040D02*
X381946870Y-131442659D01*
X381946870Y-131442659D02*
X382042108Y-131490278D01*
X381470680Y-130014088D02*
X381470680Y-130490278D01*
X381470680Y-130490278D02*
X381946870Y-130537897D01*
X381946870Y-130537897D02*
X381899251Y-130490278D01*
X381899251Y-130490278D02*
X381851632Y-130395040D01*
X381851632Y-130395040D02*
X381851632Y-130156945D01*
X381851632Y-130156945D02*
X381899251Y-130061707D01*
X381899251Y-130061707D02*
X381946870Y-130014088D01*
X381946870Y-130014088D02*
X382042108Y-129966469D01*
X382042108Y-129966469D02*
X382280203Y-129966469D01*
X382280203Y-129966469D02*
X382375441Y-130014088D01*
X382375441Y-130014088D02*
X382423061Y-130061707D01*
X382423061Y-130061707D02*
X382470680Y-130156945D01*
X382470680Y-130156945D02*
X382470680Y-130395040D01*
X382470680Y-130395040D02*
X382423061Y-130490278D01*
X382423061Y-130490278D02*
X382375441Y-130537897D01*
X184503003Y-163397954D02*
X184455384Y-163445574D01*
X184455384Y-163445574D02*
X184312527Y-163493193D01*
X184312527Y-163493193D02*
X184217289Y-163493193D01*
X184217289Y-163493193D02*
X184074432Y-163445574D01*
X184074432Y-163445574D02*
X183979194Y-163350335D01*
X183979194Y-163350335D02*
X183931575Y-163255097D01*
X183931575Y-163255097D02*
X183883956Y-163064621D01*
X183883956Y-163064621D02*
X183883956Y-162921764D01*
X183883956Y-162921764D02*
X183931575Y-162731288D01*
X183931575Y-162731288D02*
X183979194Y-162636050D01*
X183979194Y-162636050D02*
X184074432Y-162540812D01*
X184074432Y-162540812D02*
X184217289Y-162493193D01*
X184217289Y-162493193D02*
X184312527Y-162493193D01*
X184312527Y-162493193D02*
X184455384Y-162540812D01*
X184455384Y-162540812D02*
X184503003Y-162588431D01*
X185455384Y-163493193D02*
X184883956Y-163493193D01*
X185169670Y-163493193D02*
X185169670Y-162493193D01*
X185169670Y-162493193D02*
X185074432Y-162636050D01*
X185074432Y-162636050D02*
X184979194Y-162731288D01*
X184979194Y-162731288D02*
X184883956Y-162778907D01*
X186074432Y-162493193D02*
X186169670Y-162493193D01*
X186169670Y-162493193D02*
X186264908Y-162540812D01*
X186264908Y-162540812D02*
X186312527Y-162588431D01*
X186312527Y-162588431D02*
X186360146Y-162683669D01*
X186360146Y-162683669D02*
X186407765Y-162874145D01*
X186407765Y-162874145D02*
X186407765Y-163112240D01*
X186407765Y-163112240D02*
X186360146Y-163302716D01*
X186360146Y-163302716D02*
X186312527Y-163397954D01*
X186312527Y-163397954D02*
X186264908Y-163445574D01*
X186264908Y-163445574D02*
X186169670Y-163493193D01*
X186169670Y-163493193D02*
X186074432Y-163493193D01*
X186074432Y-163493193D02*
X185979194Y-163445574D01*
X185979194Y-163445574D02*
X185931575Y-163397954D01*
X185931575Y-163397954D02*
X185883956Y-163302716D01*
X185883956Y-163302716D02*
X185836337Y-163112240D01*
X185836337Y-163112240D02*
X185836337Y-162874145D01*
X185836337Y-162874145D02*
X185883956Y-162683669D01*
X185883956Y-162683669D02*
X185931575Y-162588431D01*
X185931575Y-162588431D02*
X185979194Y-162540812D01*
X185979194Y-162540812D02*
X186074432Y-162493193D01*
X115530680Y-162610278D02*
X116340203Y-162610278D01*
X116340203Y-162610278D02*
X116435441Y-162562659D01*
X116435441Y-162562659D02*
X116483061Y-162515040D01*
X116483061Y-162515040D02*
X116530680Y-162419802D01*
X116530680Y-162419802D02*
X116530680Y-162229326D01*
X116530680Y-162229326D02*
X116483061Y-162134088D01*
X116483061Y-162134088D02*
X116435441Y-162086469D01*
X116435441Y-162086469D02*
X116340203Y-162038850D01*
X116340203Y-162038850D02*
X115530680Y-162038850D01*
X115530680Y-161134088D02*
X115530680Y-161324564D01*
X115530680Y-161324564D02*
X115578299Y-161419802D01*
X115578299Y-161419802D02*
X115625918Y-161467421D01*
X115625918Y-161467421D02*
X115768775Y-161562659D01*
X115768775Y-161562659D02*
X115959251Y-161610278D01*
X115959251Y-161610278D02*
X116340203Y-161610278D01*
X116340203Y-161610278D02*
X116435441Y-161562659D01*
X116435441Y-161562659D02*
X116483061Y-161515040D01*
X116483061Y-161515040D02*
X116530680Y-161419802D01*
X116530680Y-161419802D02*
X116530680Y-161229326D01*
X116530680Y-161229326D02*
X116483061Y-161134088D01*
X116483061Y-161134088D02*
X116435441Y-161086469D01*
X116435441Y-161086469D02*
X116340203Y-161038850D01*
X116340203Y-161038850D02*
X116102108Y-161038850D01*
X116102108Y-161038850D02*
X116006870Y-161086469D01*
X116006870Y-161086469D02*
X115959251Y-161134088D01*
X115959251Y-161134088D02*
X115911632Y-161229326D01*
X115911632Y-161229326D02*
X115911632Y-161419802D01*
X115911632Y-161419802D02*
X115959251Y-161515040D01*
X115959251Y-161515040D02*
X116006870Y-161562659D01*
X116006870Y-161562659D02*
X116102108Y-161610278D01*
X193520680Y-183117897D02*
X194234965Y-183117897D01*
X194234965Y-183117897D02*
X194377822Y-183165516D01*
X194377822Y-183165516D02*
X194473061Y-183260754D01*
X194473061Y-183260754D02*
X194520680Y-183403611D01*
X194520680Y-183403611D02*
X194520680Y-183498849D01*
X194520680Y-182117897D02*
X194520680Y-182689325D01*
X194520680Y-182403611D02*
X193520680Y-182403611D01*
X193520680Y-182403611D02*
X193663537Y-182498849D01*
X193663537Y-182498849D02*
X193758775Y-182594087D01*
X193758775Y-182594087D02*
X193806394Y-182689325D01*
X193854013Y-181260754D02*
X194520680Y-181260754D01*
X193473061Y-181498849D02*
X194187346Y-181736944D01*
X194187346Y-181736944D02*
X194187346Y-181117897D01*
%TO.C,R44*%
D11*
X191375861Y-146168374D02*
X191375861Y-146498374D01*
X191375861Y-148908374D02*
X191375861Y-148578374D01*
X197915861Y-146168374D02*
X191375861Y-146168374D01*
X197915861Y-146498374D02*
X197915861Y-146168374D01*
X197915861Y-148578374D02*
X197915861Y-148908374D01*
X197915861Y-148908374D02*
X191375861Y-148908374D01*
%TO.C,R53*%
X304065861Y-146168374D02*
X304065861Y-146498374D01*
X304065861Y-148908374D02*
X304065861Y-148578374D01*
X310605861Y-146168374D02*
X304065861Y-146168374D01*
X310605861Y-146498374D02*
X310605861Y-146168374D01*
X310605861Y-148578374D02*
X310605861Y-148908374D01*
X310605861Y-148908374D02*
X304065861Y-148908374D01*
%TO.C,R18*%
X38065861Y-103668374D02*
X44605861Y-103668374D01*
X38065861Y-103998374D02*
X38065861Y-103668374D01*
X38065861Y-106078374D02*
X38065861Y-106408374D01*
X38065861Y-106408374D02*
X44605861Y-106408374D01*
X44605861Y-103668374D02*
X44605861Y-103998374D01*
X44605861Y-106408374D02*
X44605861Y-106078374D01*
%TO.C,C12*%
X148525861Y-163668374D02*
X153765861Y-163668374D01*
X148525861Y-164005374D02*
X148525861Y-163668374D01*
X148525861Y-166408374D02*
X148525861Y-166071374D01*
X153765861Y-163668374D02*
X153765861Y-164005374D01*
X153765861Y-166071374D02*
X153765861Y-166408374D01*
X153765861Y-166408374D02*
X148525861Y-166408374D01*
%TO.C,C15*%
X237025861Y-168168374D02*
X242265861Y-168168374D01*
X237025861Y-168505374D02*
X237025861Y-168168374D01*
X237025861Y-170908374D02*
X237025861Y-170571374D01*
X242265861Y-168168374D02*
X242265861Y-168505374D01*
X242265861Y-170571374D02*
X242265861Y-170908374D01*
X242265861Y-170908374D02*
X237025861Y-170908374D01*
%TO.C,R40*%
X191375861Y-102168374D02*
X191375861Y-102498374D01*
X191375861Y-104908374D02*
X191375861Y-104578374D01*
X197915861Y-102168374D02*
X191375861Y-102168374D01*
X197915861Y-102498374D02*
X197915861Y-102168374D01*
X197915861Y-104578374D02*
X197915861Y-104908374D01*
X197915861Y-104908374D02*
X191375861Y-104908374D01*
%TO.C,C16*%
X320415861Y-136248374D02*
X326875861Y-136248374D01*
X320415861Y-136288374D02*
X326875861Y-136288374D01*
X320416861Y-136208374D02*
X326874861Y-136208374D01*
X320417861Y-136168374D02*
X326873861Y-136168374D01*
X320419861Y-136128374D02*
X326871861Y-136128374D01*
X320421861Y-136088374D02*
X326869861Y-136088374D01*
X320424861Y-136048374D02*
X322605861Y-136048374D01*
X320427861Y-136008374D02*
X322605861Y-136008374D01*
X320431861Y-135968374D02*
X322605861Y-135968374D01*
X320435861Y-135928374D02*
X322605861Y-135928374D01*
X320440861Y-135888374D02*
X322605861Y-135888374D01*
X320445861Y-135848374D02*
X322605861Y-135848374D01*
X320450861Y-135808374D02*
X322605861Y-135808374D01*
X320457861Y-135768374D02*
X322605861Y-135768374D01*
X320463861Y-135728374D02*
X322605861Y-135728374D01*
X320471861Y-135688374D02*
X322605861Y-135688374D01*
X320478861Y-135648374D02*
X322605861Y-135648374D01*
X320486861Y-135608374D02*
X322605861Y-135608374D01*
X320495861Y-135568374D02*
X322605861Y-135568374D01*
X320505861Y-135528374D02*
X322605861Y-135528374D01*
X320514861Y-135488374D02*
X322605861Y-135488374D01*
X320525861Y-135448374D02*
X322605861Y-135448374D01*
X320536861Y-135408374D02*
X322605861Y-135408374D01*
X320547861Y-135368374D02*
X322605861Y-135368374D01*
X320559861Y-135328374D02*
X322605861Y-135328374D01*
X320572861Y-135288374D02*
X322605861Y-135288374D01*
X320585861Y-135248374D02*
X322605861Y-135248374D01*
X320598861Y-135208374D02*
X322605861Y-135208374D01*
X320613861Y-135168374D02*
X322605861Y-135168374D01*
X320628861Y-135128374D02*
X322605861Y-135128374D01*
X320643861Y-135088374D02*
X322605861Y-135088374D01*
X320659861Y-135048374D02*
X322605861Y-135048374D01*
X320676861Y-135008374D02*
X322605861Y-135008374D01*
X320693861Y-134968374D02*
X322605861Y-134968374D01*
X320711861Y-134928374D02*
X322605861Y-134928374D01*
X320730861Y-134888374D02*
X322605861Y-134888374D01*
X320749861Y-134848374D02*
X322605861Y-134848374D01*
X320769861Y-134808374D02*
X322605861Y-134808374D01*
X320790861Y-134768374D02*
X322605861Y-134768374D01*
X320811861Y-134728374D02*
X322605861Y-134728374D01*
X320833861Y-134688374D02*
X322605861Y-134688374D01*
X320856861Y-134648374D02*
X322605861Y-134648374D01*
X320880861Y-134608374D02*
X322605861Y-134608374D01*
X320904861Y-134568374D02*
X322605861Y-134568374D01*
X320929861Y-134528374D02*
X322605861Y-134528374D01*
X320955861Y-134488374D02*
X322605861Y-134488374D01*
X320982861Y-134448374D02*
X322605861Y-134448374D01*
X321009861Y-134408374D02*
X322605861Y-134408374D01*
X321038861Y-134368374D02*
X322605861Y-134368374D01*
X321068861Y-134328374D02*
X322605861Y-134328374D01*
X321098861Y-134288374D02*
X322605861Y-134288374D01*
X321129861Y-134248374D02*
X322605861Y-134248374D01*
X321162861Y-134208374D02*
X322605861Y-134208374D01*
X321195861Y-134168374D02*
X322605861Y-134168374D01*
X321230861Y-134128374D02*
X322605861Y-134128374D01*
X321266861Y-134088374D02*
X322605861Y-134088374D01*
X321303861Y-134048374D02*
X322605861Y-134048374D01*
X321341861Y-134008374D02*
X322605861Y-134008374D01*
X321381861Y-133968374D02*
X325909861Y-133968374D01*
X321422861Y-133928374D02*
X325868861Y-133928374D01*
X321464861Y-133888374D02*
X325826861Y-133888374D01*
X321491861Y-139473615D02*
X322121861Y-139473615D01*
X321508861Y-133848374D02*
X325782861Y-133848374D01*
X321554861Y-133808374D02*
X325736861Y-133808374D01*
X321601861Y-133768374D02*
X325689861Y-133768374D01*
X321650861Y-133728374D02*
X325640861Y-133728374D01*
X321702861Y-133688374D02*
X325588861Y-133688374D01*
X321755861Y-133648374D02*
X325535861Y-133648374D01*
X321806861Y-139788615D02*
X321806861Y-139158615D01*
X321811861Y-133608374D02*
X325479861Y-133608374D01*
X321870861Y-133568374D02*
X325420861Y-133568374D01*
X321931861Y-133528374D02*
X325359861Y-133528374D01*
X321996861Y-133488374D02*
X325294861Y-133488374D01*
X322064861Y-133448374D02*
X325226861Y-133448374D01*
X322136861Y-133408374D02*
X325154861Y-133408374D01*
X322213861Y-133368374D02*
X325077861Y-133368374D01*
X322295861Y-133328374D02*
X324995861Y-133328374D01*
X322384861Y-133288374D02*
X324906861Y-133288374D01*
X322480861Y-133248374D02*
X324810861Y-133248374D01*
X322587861Y-133208374D02*
X324703861Y-133208374D01*
X322706861Y-133168374D02*
X324584861Y-133168374D01*
X322844861Y-133128374D02*
X324446861Y-133128374D01*
X323012861Y-133088374D02*
X324278861Y-133088374D01*
X323243861Y-133048374D02*
X324047861Y-133048374D01*
X324685861Y-134008374D02*
X325949861Y-134008374D01*
X324685861Y-134048374D02*
X325987861Y-134048374D01*
X324685861Y-134088374D02*
X326024861Y-134088374D01*
X324685861Y-134128374D02*
X326060861Y-134128374D01*
X324685861Y-134168374D02*
X326095861Y-134168374D01*
X324685861Y-134208374D02*
X326128861Y-134208374D01*
X324685861Y-134248374D02*
X326161861Y-134248374D01*
X324685861Y-134288374D02*
X326192861Y-134288374D01*
X324685861Y-134328374D02*
X326222861Y-134328374D01*
X324685861Y-134368374D02*
X326252861Y-134368374D01*
X324685861Y-134408374D02*
X326281861Y-134408374D01*
X324685861Y-134448374D02*
X326308861Y-134448374D01*
X324685861Y-134488374D02*
X326335861Y-134488374D01*
X324685861Y-134528374D02*
X326361861Y-134528374D01*
X324685861Y-134568374D02*
X326386861Y-134568374D01*
X324685861Y-134608374D02*
X326410861Y-134608374D01*
X324685861Y-134648374D02*
X326434861Y-134648374D01*
X324685861Y-134688374D02*
X326457861Y-134688374D01*
X324685861Y-134728374D02*
X326479861Y-134728374D01*
X324685861Y-134768374D02*
X326500861Y-134768374D01*
X324685861Y-134808374D02*
X326521861Y-134808374D01*
X324685861Y-134848374D02*
X326541861Y-134848374D01*
X324685861Y-134888374D02*
X326560861Y-134888374D01*
X324685861Y-134928374D02*
X326579861Y-134928374D01*
X324685861Y-134968374D02*
X326597861Y-134968374D01*
X324685861Y-135008374D02*
X326614861Y-135008374D01*
X324685861Y-135048374D02*
X326631861Y-135048374D01*
X324685861Y-135088374D02*
X326647861Y-135088374D01*
X324685861Y-135128374D02*
X326662861Y-135128374D01*
X324685861Y-135168374D02*
X326677861Y-135168374D01*
X324685861Y-135208374D02*
X326692861Y-135208374D01*
X324685861Y-135248374D02*
X326705861Y-135248374D01*
X324685861Y-135288374D02*
X326718861Y-135288374D01*
X324685861Y-135328374D02*
X326731861Y-135328374D01*
X324685861Y-135368374D02*
X326743861Y-135368374D01*
X324685861Y-135408374D02*
X326754861Y-135408374D01*
X324685861Y-135448374D02*
X326765861Y-135448374D01*
X324685861Y-135488374D02*
X326776861Y-135488374D01*
X324685861Y-135528374D02*
X326785861Y-135528374D01*
X324685861Y-135568374D02*
X326795861Y-135568374D01*
X324685861Y-135608374D02*
X326804861Y-135608374D01*
X324685861Y-135648374D02*
X326812861Y-135648374D01*
X324685861Y-135688374D02*
X326819861Y-135688374D01*
X324685861Y-135728374D02*
X326827861Y-135728374D01*
X324685861Y-135768374D02*
X326833861Y-135768374D01*
X324685861Y-135808374D02*
X326840861Y-135808374D01*
X324685861Y-135848374D02*
X326845861Y-135848374D01*
X324685861Y-135888374D02*
X326850861Y-135888374D01*
X324685861Y-135928374D02*
X326855861Y-135928374D01*
X324685861Y-135968374D02*
X326859861Y-135968374D01*
X324685861Y-136008374D02*
X326863861Y-136008374D01*
X324685861Y-136048374D02*
X326866861Y-136048374D01*
X326915861Y-136288374D02*
G75*
G02*
X320375861Y-136288374I-3270000J0D01*
G01*
X320375861Y-136288374D02*
G75*
G02*
X326915861Y-136288374I3270000J0D01*
G01*
%TO.C,R32*%
X95875861Y-107168374D02*
X95875861Y-107498374D01*
X95875861Y-109908374D02*
X95875861Y-109578374D01*
X102415861Y-107168374D02*
X95875861Y-107168374D01*
X102415861Y-107498374D02*
X102415861Y-107168374D01*
X102415861Y-109578374D02*
X102415861Y-109908374D01*
X102415861Y-109908374D02*
X95875861Y-109908374D01*
%TO.C,R29*%
X340065861Y-156168374D02*
X340065861Y-156498374D01*
X340065861Y-158908374D02*
X340065861Y-158578374D01*
X346605861Y-156168374D02*
X340065861Y-156168374D01*
X346605861Y-156498374D02*
X346605861Y-156168374D01*
X346605861Y-158578374D02*
X346605861Y-158908374D01*
X346605861Y-158908374D02*
X340065861Y-158908374D01*
%TO.C,C8*%
X29525861Y-99668374D02*
X34765861Y-99668374D01*
X29525861Y-100005374D02*
X29525861Y-99668374D01*
X29525861Y-102408374D02*
X29525861Y-102071374D01*
X34765861Y-99668374D02*
X34765861Y-100005374D01*
X34765861Y-102071374D02*
X34765861Y-102408374D01*
X34765861Y-102408374D02*
X29525861Y-102408374D01*
%TO.C,R47*%
X191159524Y-120466554D02*
X197699524Y-120466554D01*
X191159524Y-120796554D02*
X191159524Y-120466554D01*
X191159524Y-122876554D02*
X191159524Y-123206554D01*
X191159524Y-123206554D02*
X197699524Y-123206554D01*
X197699524Y-120466554D02*
X197699524Y-120796554D01*
X197699524Y-123206554D02*
X197699524Y-122876554D01*
%TO.C,R57*%
X304185861Y-141668374D02*
X310725861Y-141668374D01*
X304185861Y-141998374D02*
X304185861Y-141668374D01*
X304185861Y-144078374D02*
X304185861Y-144408374D01*
X304185861Y-144408374D02*
X310725861Y-144408374D01*
X310725861Y-141668374D02*
X310725861Y-141998374D01*
X310725861Y-144408374D02*
X310725861Y-144078374D01*
%TO.C,R58*%
X375065861Y-98668374D02*
X381605861Y-98668374D01*
X375065861Y-98998374D02*
X375065861Y-98668374D01*
X375065861Y-101078374D02*
X375065861Y-101408374D01*
X375065861Y-101408374D02*
X381605861Y-101408374D01*
X381605861Y-98668374D02*
X381605861Y-98998374D01*
X381605861Y-101408374D02*
X381605861Y-101078374D01*
%TO.C,R49*%
X304685861Y-102168374D02*
X304685861Y-102498374D01*
X304685861Y-104908374D02*
X304685861Y-104578374D01*
X311225861Y-102168374D02*
X304685861Y-102168374D01*
X311225861Y-102498374D02*
X311225861Y-102168374D01*
X311225861Y-104578374D02*
X311225861Y-104908374D01*
X311225861Y-104908374D02*
X304685861Y-104908374D01*
%TO.C,U9*%
X149075861Y-169578374D02*
X149075861Y-171228374D01*
X149075861Y-173228374D02*
X149075861Y-174878374D01*
X149075861Y-174878374D02*
X169515861Y-174878374D01*
X169515861Y-169578374D02*
X149075861Y-169578374D01*
X169515861Y-174878374D02*
X169515861Y-169578374D01*
X149075861Y-171228374D02*
G75*
G02*
X149075861Y-173228374I0J-1000000D01*
G01*
%TO.C,U8*%
X345185861Y-118708374D02*
X345185861Y-139148374D01*
X345185861Y-139148374D02*
X350485861Y-139148374D01*
X346835861Y-118708374D02*
X345185861Y-118708374D01*
X350485861Y-118708374D02*
X348835861Y-118708374D01*
X350485861Y-139148374D02*
X350485861Y-118708374D01*
X348835861Y-118708374D02*
G75*
G02*
X346835861Y-118708374I-1000000J0D01*
G01*
%TO.C,R55*%
X304685861Y-97668374D02*
X311225861Y-97668374D01*
X304685861Y-97998374D02*
X304685861Y-97668374D01*
X304685861Y-100078374D02*
X304685861Y-100408374D01*
X304685861Y-100408374D02*
X311225861Y-100408374D01*
X311225861Y-97668374D02*
X311225861Y-97998374D01*
X311225861Y-100408374D02*
X311225861Y-100078374D01*
%TO.C,R38*%
X95875861Y-150668374D02*
X95875861Y-150998374D01*
X95875861Y-153408374D02*
X95875861Y-153078374D01*
X102415861Y-150668374D02*
X95875861Y-150668374D01*
X102415861Y-150998374D02*
X102415861Y-150668374D01*
X102415861Y-153078374D02*
X102415861Y-153408374D01*
X102415861Y-153408374D02*
X95875861Y-153408374D01*
%TO.C,R34*%
X95685861Y-124668374D02*
X95685861Y-124998374D01*
X95685861Y-127408374D02*
X95685861Y-127078374D01*
X102225861Y-124668374D02*
X95685861Y-124668374D01*
X102225861Y-124998374D02*
X102225861Y-124668374D01*
X102225861Y-127078374D02*
X102225861Y-127408374D01*
X102225861Y-127408374D02*
X95685861Y-127408374D01*
%TO.C,R26*%
X215185861Y-153168374D02*
X221725861Y-153168374D01*
X215185861Y-153498374D02*
X215185861Y-153168374D01*
X215185861Y-155578374D02*
X215185861Y-155908374D01*
X215185861Y-155908374D02*
X221725861Y-155908374D01*
X221725861Y-153168374D02*
X221725861Y-153498374D01*
X221725861Y-155908374D02*
X221725861Y-155578374D01*
%TO.C,R42*%
X191185861Y-124668374D02*
X191185861Y-124998374D01*
X191185861Y-127408374D02*
X191185861Y-127078374D01*
X197725861Y-124668374D02*
X191185861Y-124668374D01*
X197725861Y-124998374D02*
X197725861Y-124668374D01*
X197725861Y-127078374D02*
X197725861Y-127408374D01*
X197725861Y-127408374D02*
X191185861Y-127408374D01*
%TO.C,C7*%
X27655861Y-107940374D02*
X27655861Y-107136374D01*
X27695861Y-108171374D02*
X27695861Y-106905374D01*
X27735861Y-108339374D02*
X27735861Y-106737374D01*
X27775861Y-108477374D02*
X27775861Y-106599374D01*
X27815861Y-108596374D02*
X27815861Y-106480374D01*
X27855861Y-108703374D02*
X27855861Y-106373374D01*
X27895861Y-108799374D02*
X27895861Y-106277374D01*
X27935861Y-108888374D02*
X27935861Y-106188374D01*
X27975861Y-108970374D02*
X27975861Y-106106374D01*
X28015861Y-109047374D02*
X28015861Y-106029374D01*
X28055861Y-109119374D02*
X28055861Y-105957374D01*
X28095861Y-109187374D02*
X28095861Y-105889374D01*
X28135861Y-109252374D02*
X28135861Y-105824374D01*
X28175861Y-109313374D02*
X28175861Y-105763374D01*
X28215861Y-109372374D02*
X28215861Y-105704374D01*
X28255861Y-109428374D02*
X28255861Y-105648374D01*
X28295861Y-109481374D02*
X28295861Y-105595374D01*
X28335861Y-109533374D02*
X28335861Y-105543374D01*
X28375861Y-109582374D02*
X28375861Y-105494374D01*
X28415861Y-109629374D02*
X28415861Y-105447374D01*
X28455861Y-109675374D02*
X28455861Y-105401374D01*
X28495861Y-109719374D02*
X28495861Y-105357374D01*
X28535861Y-109761374D02*
X28535861Y-105315374D01*
X28575861Y-109802374D02*
X28575861Y-105274374D01*
X28615861Y-106498374D02*
X28615861Y-105234374D01*
X28615861Y-109842374D02*
X28615861Y-108578374D01*
X28655861Y-106498374D02*
X28655861Y-105196374D01*
X28655861Y-109880374D02*
X28655861Y-108578374D01*
X28695861Y-106498374D02*
X28695861Y-105159374D01*
X28695861Y-109917374D02*
X28695861Y-108578374D01*
X28735861Y-106498374D02*
X28735861Y-105123374D01*
X28735861Y-109953374D02*
X28735861Y-108578374D01*
X28775861Y-106498374D02*
X28775861Y-105088374D01*
X28775861Y-109988374D02*
X28775861Y-108578374D01*
X28815861Y-106498374D02*
X28815861Y-105055374D01*
X28815861Y-110021374D02*
X28815861Y-108578374D01*
X28855861Y-106498374D02*
X28855861Y-105022374D01*
X28855861Y-110054374D02*
X28855861Y-108578374D01*
X28895861Y-106498374D02*
X28895861Y-104991374D01*
X28895861Y-110085374D02*
X28895861Y-108578374D01*
X28935861Y-106498374D02*
X28935861Y-104961374D01*
X28935861Y-110115374D02*
X28935861Y-108578374D01*
X28975861Y-106498374D02*
X28975861Y-104931374D01*
X28975861Y-110145374D02*
X28975861Y-108578374D01*
X29015861Y-106498374D02*
X29015861Y-104902374D01*
X29015861Y-110174374D02*
X29015861Y-108578374D01*
X29055861Y-106498374D02*
X29055861Y-104875374D01*
X29055861Y-110201374D02*
X29055861Y-108578374D01*
X29095861Y-106498374D02*
X29095861Y-104848374D01*
X29095861Y-110228374D02*
X29095861Y-108578374D01*
X29135861Y-106498374D02*
X29135861Y-104822374D01*
X29135861Y-110254374D02*
X29135861Y-108578374D01*
X29175861Y-106498374D02*
X29175861Y-104797374D01*
X29175861Y-110279374D02*
X29175861Y-108578374D01*
X29215861Y-106498374D02*
X29215861Y-104773374D01*
X29215861Y-110303374D02*
X29215861Y-108578374D01*
X29255861Y-106498374D02*
X29255861Y-104749374D01*
X29255861Y-110327374D02*
X29255861Y-108578374D01*
X29295861Y-106498374D02*
X29295861Y-104726374D01*
X29295861Y-110350374D02*
X29295861Y-108578374D01*
X29335861Y-106498374D02*
X29335861Y-104704374D01*
X29335861Y-110372374D02*
X29335861Y-108578374D01*
X29375861Y-106498374D02*
X29375861Y-104683374D01*
X29375861Y-110393374D02*
X29375861Y-108578374D01*
X29415861Y-106498374D02*
X29415861Y-104662374D01*
X29415861Y-110414374D02*
X29415861Y-108578374D01*
X29455861Y-106498374D02*
X29455861Y-104642374D01*
X29455861Y-110434374D02*
X29455861Y-108578374D01*
X29495861Y-106498374D02*
X29495861Y-104623374D01*
X29495861Y-110453374D02*
X29495861Y-108578374D01*
X29535861Y-106498374D02*
X29535861Y-104604374D01*
X29535861Y-110472374D02*
X29535861Y-108578374D01*
X29575861Y-106498374D02*
X29575861Y-104586374D01*
X29575861Y-110490374D02*
X29575861Y-108578374D01*
X29615861Y-106498374D02*
X29615861Y-104569374D01*
X29615861Y-110507374D02*
X29615861Y-108578374D01*
X29655861Y-106498374D02*
X29655861Y-104552374D01*
X29655861Y-110524374D02*
X29655861Y-108578374D01*
X29695861Y-106498374D02*
X29695861Y-104536374D01*
X29695861Y-110540374D02*
X29695861Y-108578374D01*
X29735861Y-106498374D02*
X29735861Y-104521374D01*
X29735861Y-110555374D02*
X29735861Y-108578374D01*
X29775861Y-106498374D02*
X29775861Y-104506374D01*
X29775861Y-110570374D02*
X29775861Y-108578374D01*
X29815861Y-106498374D02*
X29815861Y-104491374D01*
X29815861Y-110585374D02*
X29815861Y-108578374D01*
X29855861Y-106498374D02*
X29855861Y-104478374D01*
X29855861Y-110598374D02*
X29855861Y-108578374D01*
X29895861Y-106498374D02*
X29895861Y-104465374D01*
X29895861Y-110611374D02*
X29895861Y-108578374D01*
X29935861Y-106498374D02*
X29935861Y-104452374D01*
X29935861Y-110624374D02*
X29935861Y-108578374D01*
X29975861Y-106498374D02*
X29975861Y-104440374D01*
X29975861Y-110636374D02*
X29975861Y-108578374D01*
X30015861Y-106498374D02*
X30015861Y-104429374D01*
X30015861Y-110647374D02*
X30015861Y-108578374D01*
X30055861Y-106498374D02*
X30055861Y-104418374D01*
X30055861Y-110658374D02*
X30055861Y-108578374D01*
X30095861Y-106498374D02*
X30095861Y-104407374D01*
X30095861Y-110669374D02*
X30095861Y-108578374D01*
X30135861Y-106498374D02*
X30135861Y-104398374D01*
X30135861Y-110678374D02*
X30135861Y-108578374D01*
X30175861Y-106498374D02*
X30175861Y-104388374D01*
X30175861Y-110688374D02*
X30175861Y-108578374D01*
X30215861Y-106498374D02*
X30215861Y-104379374D01*
X30215861Y-110697374D02*
X30215861Y-108578374D01*
X30255861Y-106498374D02*
X30255861Y-104371374D01*
X30255861Y-110705374D02*
X30255861Y-108578374D01*
X30295861Y-106498374D02*
X30295861Y-104364374D01*
X30295861Y-110712374D02*
X30295861Y-108578374D01*
X30335861Y-106498374D02*
X30335861Y-104356374D01*
X30335861Y-110720374D02*
X30335861Y-108578374D01*
X30375861Y-106498374D02*
X30375861Y-104350374D01*
X30375861Y-110726374D02*
X30375861Y-108578374D01*
X30415861Y-106498374D02*
X30415861Y-104343374D01*
X30415861Y-110733374D02*
X30415861Y-108578374D01*
X30455861Y-106498374D02*
X30455861Y-104338374D01*
X30455861Y-110738374D02*
X30455861Y-108578374D01*
X30495861Y-106498374D02*
X30495861Y-104333374D01*
X30495861Y-110743374D02*
X30495861Y-108578374D01*
X30535861Y-106498374D02*
X30535861Y-104328374D01*
X30535861Y-110748374D02*
X30535861Y-108578374D01*
X30575861Y-106498374D02*
X30575861Y-104324374D01*
X30575861Y-110752374D02*
X30575861Y-108578374D01*
X30615861Y-106498374D02*
X30615861Y-104320374D01*
X30615861Y-110756374D02*
X30615861Y-108578374D01*
X30655861Y-106498374D02*
X30655861Y-104317374D01*
X30655861Y-110759374D02*
X30655861Y-108578374D01*
X30695861Y-110762374D02*
X30695861Y-104314374D01*
X30735861Y-110764374D02*
X30735861Y-104312374D01*
X30775861Y-110766374D02*
X30775861Y-104310374D01*
X30815861Y-110767374D02*
X30815861Y-104309374D01*
X30855861Y-110768374D02*
X30855861Y-104308374D01*
X30895861Y-110768374D02*
X30895861Y-104308374D01*
X34081102Y-109692374D02*
X34081102Y-109062374D01*
X34396102Y-109377374D02*
X33766102Y-109377374D01*
X34165861Y-107538374D02*
G75*
G02*
X27625861Y-107538374I-3270000J0D01*
G01*
X27625861Y-107538374D02*
G75*
G02*
X34165861Y-107538374I3270000J0D01*
G01*
%TO.C,C9*%
X118025861Y-153168374D02*
X123265861Y-153168374D01*
X118025861Y-153505374D02*
X118025861Y-153168374D01*
X118025861Y-155908374D02*
X118025861Y-155571374D01*
X123265861Y-153168374D02*
X123265861Y-153505374D01*
X123265861Y-155571374D02*
X123265861Y-155908374D01*
X123265861Y-155908374D02*
X118025861Y-155908374D01*
%TO.C,R46*%
X191375861Y-98168374D02*
X197915861Y-98168374D01*
X191375861Y-98498374D02*
X191375861Y-98168374D01*
X191375861Y-100578374D02*
X191375861Y-100908374D01*
X191375861Y-100908374D02*
X197915861Y-100908374D01*
X197915861Y-98168374D02*
X197915861Y-98498374D01*
X197915861Y-100908374D02*
X197915861Y-100578374D01*
%TO.C,R50*%
X304185861Y-107168374D02*
X304185861Y-107498374D01*
X304185861Y-109908374D02*
X304185861Y-109578374D01*
X310725861Y-107168374D02*
X304185861Y-107168374D01*
X310725861Y-107498374D02*
X310725861Y-107168374D01*
X310725861Y-109578374D02*
X310725861Y-109908374D01*
X310725861Y-109908374D02*
X304185861Y-109908374D01*
%TO.C,C11*%
X351525861Y-114168374D02*
X356765861Y-114168374D01*
X351525861Y-114505374D02*
X351525861Y-114168374D01*
X351525861Y-116908374D02*
X351525861Y-116571374D01*
X356765861Y-114168374D02*
X356765861Y-114505374D01*
X356765861Y-116571374D02*
X356765861Y-116908374D01*
X356765861Y-116908374D02*
X351525861Y-116908374D01*
%TO.C,R33*%
X95875861Y-103168374D02*
X95875861Y-103498374D01*
X95875861Y-105908374D02*
X95875861Y-105578374D01*
X102415861Y-103168374D02*
X95875861Y-103168374D01*
X102415861Y-103498374D02*
X102415861Y-103168374D01*
X102415861Y-105578374D02*
X102415861Y-105908374D01*
X102415861Y-105908374D02*
X95875861Y-105908374D01*
%TO.C,C14*%
X236655861Y-163940374D02*
X236655861Y-163136374D01*
X236695861Y-164171374D02*
X236695861Y-162905374D01*
X236735861Y-164339374D02*
X236735861Y-162737374D01*
X236775861Y-164477374D02*
X236775861Y-162599374D01*
X236815861Y-164596374D02*
X236815861Y-162480374D01*
X236855861Y-164703374D02*
X236855861Y-162373374D01*
X236895861Y-164799374D02*
X236895861Y-162277374D01*
X236935861Y-164888374D02*
X236935861Y-162188374D01*
X236975861Y-164970374D02*
X236975861Y-162106374D01*
X237015861Y-165047374D02*
X237015861Y-162029374D01*
X237055861Y-165119374D02*
X237055861Y-161957374D01*
X237095861Y-165187374D02*
X237095861Y-161889374D01*
X237135861Y-165252374D02*
X237135861Y-161824374D01*
X237175861Y-165313374D02*
X237175861Y-161763374D01*
X237215861Y-165372374D02*
X237215861Y-161704374D01*
X237255861Y-165428374D02*
X237255861Y-161648374D01*
X237295861Y-165481374D02*
X237295861Y-161595374D01*
X237335861Y-165533374D02*
X237335861Y-161543374D01*
X237375861Y-165582374D02*
X237375861Y-161494374D01*
X237415861Y-165629374D02*
X237415861Y-161447374D01*
X237455861Y-165675374D02*
X237455861Y-161401374D01*
X237495861Y-165719374D02*
X237495861Y-161357374D01*
X237535861Y-165761374D02*
X237535861Y-161315374D01*
X237575861Y-165802374D02*
X237575861Y-161274374D01*
X237615861Y-162498374D02*
X237615861Y-161234374D01*
X237615861Y-165842374D02*
X237615861Y-164578374D01*
X237655861Y-162498374D02*
X237655861Y-161196374D01*
X237655861Y-165880374D02*
X237655861Y-164578374D01*
X237695861Y-162498374D02*
X237695861Y-161159374D01*
X237695861Y-165917374D02*
X237695861Y-164578374D01*
X237735861Y-162498374D02*
X237735861Y-161123374D01*
X237735861Y-165953374D02*
X237735861Y-164578374D01*
X237775861Y-162498374D02*
X237775861Y-161088374D01*
X237775861Y-165988374D02*
X237775861Y-164578374D01*
X237815861Y-162498374D02*
X237815861Y-161055374D01*
X237815861Y-166021374D02*
X237815861Y-164578374D01*
X237855861Y-162498374D02*
X237855861Y-161022374D01*
X237855861Y-166054374D02*
X237855861Y-164578374D01*
X237895861Y-162498374D02*
X237895861Y-160991374D01*
X237895861Y-166085374D02*
X237895861Y-164578374D01*
X237935861Y-162498374D02*
X237935861Y-160961374D01*
X237935861Y-166115374D02*
X237935861Y-164578374D01*
X237975861Y-162498374D02*
X237975861Y-160931374D01*
X237975861Y-166145374D02*
X237975861Y-164578374D01*
X238015861Y-162498374D02*
X238015861Y-160902374D01*
X238015861Y-166174374D02*
X238015861Y-164578374D01*
X238055861Y-162498374D02*
X238055861Y-160875374D01*
X238055861Y-166201374D02*
X238055861Y-164578374D01*
X238095861Y-162498374D02*
X238095861Y-160848374D01*
X238095861Y-166228374D02*
X238095861Y-164578374D01*
X238135861Y-162498374D02*
X238135861Y-160822374D01*
X238135861Y-166254374D02*
X238135861Y-164578374D01*
X238175861Y-162498374D02*
X238175861Y-160797374D01*
X238175861Y-166279374D02*
X238175861Y-164578374D01*
X238215861Y-162498374D02*
X238215861Y-160773374D01*
X238215861Y-166303374D02*
X238215861Y-164578374D01*
X238255861Y-162498374D02*
X238255861Y-160749374D01*
X238255861Y-166327374D02*
X238255861Y-164578374D01*
X238295861Y-162498374D02*
X238295861Y-160726374D01*
X238295861Y-166350374D02*
X238295861Y-164578374D01*
X238335861Y-162498374D02*
X238335861Y-160704374D01*
X238335861Y-166372374D02*
X238335861Y-164578374D01*
X238375861Y-162498374D02*
X238375861Y-160683374D01*
X238375861Y-166393374D02*
X238375861Y-164578374D01*
X238415861Y-162498374D02*
X238415861Y-160662374D01*
X238415861Y-166414374D02*
X238415861Y-164578374D01*
X238455861Y-162498374D02*
X238455861Y-160642374D01*
X238455861Y-166434374D02*
X238455861Y-164578374D01*
X238495861Y-162498374D02*
X238495861Y-160623374D01*
X238495861Y-166453374D02*
X238495861Y-164578374D01*
X238535861Y-162498374D02*
X238535861Y-160604374D01*
X238535861Y-166472374D02*
X238535861Y-164578374D01*
X238575861Y-162498374D02*
X238575861Y-160586374D01*
X238575861Y-166490374D02*
X238575861Y-164578374D01*
X238615861Y-162498374D02*
X238615861Y-160569374D01*
X238615861Y-166507374D02*
X238615861Y-164578374D01*
X238655861Y-162498374D02*
X238655861Y-160552374D01*
X238655861Y-166524374D02*
X238655861Y-164578374D01*
X238695861Y-162498374D02*
X238695861Y-160536374D01*
X238695861Y-166540374D02*
X238695861Y-164578374D01*
X238735861Y-162498374D02*
X238735861Y-160521374D01*
X238735861Y-166555374D02*
X238735861Y-164578374D01*
X238775861Y-162498374D02*
X238775861Y-160506374D01*
X238775861Y-166570374D02*
X238775861Y-164578374D01*
X238815861Y-162498374D02*
X238815861Y-160491374D01*
X238815861Y-166585374D02*
X238815861Y-164578374D01*
X238855861Y-162498374D02*
X238855861Y-160478374D01*
X238855861Y-166598374D02*
X238855861Y-164578374D01*
X238895861Y-162498374D02*
X238895861Y-160465374D01*
X238895861Y-166611374D02*
X238895861Y-164578374D01*
X238935861Y-162498374D02*
X238935861Y-160452374D01*
X238935861Y-166624374D02*
X238935861Y-164578374D01*
X238975861Y-162498374D02*
X238975861Y-160440374D01*
X238975861Y-166636374D02*
X238975861Y-164578374D01*
X239015861Y-162498374D02*
X239015861Y-160429374D01*
X239015861Y-166647374D02*
X239015861Y-164578374D01*
X239055861Y-162498374D02*
X239055861Y-160418374D01*
X239055861Y-166658374D02*
X239055861Y-164578374D01*
X239095861Y-162498374D02*
X239095861Y-160407374D01*
X239095861Y-166669374D02*
X239095861Y-164578374D01*
X239135861Y-162498374D02*
X239135861Y-160398374D01*
X239135861Y-166678374D02*
X239135861Y-164578374D01*
X239175861Y-162498374D02*
X239175861Y-160388374D01*
X239175861Y-166688374D02*
X239175861Y-164578374D01*
X239215861Y-162498374D02*
X239215861Y-160379374D01*
X239215861Y-166697374D02*
X239215861Y-164578374D01*
X239255861Y-162498374D02*
X239255861Y-160371374D01*
X239255861Y-166705374D02*
X239255861Y-164578374D01*
X239295861Y-162498374D02*
X239295861Y-160364374D01*
X239295861Y-166712374D02*
X239295861Y-164578374D01*
X239335861Y-162498374D02*
X239335861Y-160356374D01*
X239335861Y-166720374D02*
X239335861Y-164578374D01*
X239375861Y-162498374D02*
X239375861Y-160350374D01*
X239375861Y-166726374D02*
X239375861Y-164578374D01*
X239415861Y-162498374D02*
X239415861Y-160343374D01*
X239415861Y-166733374D02*
X239415861Y-164578374D01*
X239455861Y-162498374D02*
X239455861Y-160338374D01*
X239455861Y-166738374D02*
X239455861Y-164578374D01*
X239495861Y-162498374D02*
X239495861Y-160333374D01*
X239495861Y-166743374D02*
X239495861Y-164578374D01*
X239535861Y-162498374D02*
X239535861Y-160328374D01*
X239535861Y-166748374D02*
X239535861Y-164578374D01*
X239575861Y-162498374D02*
X239575861Y-160324374D01*
X239575861Y-166752374D02*
X239575861Y-164578374D01*
X239615861Y-162498374D02*
X239615861Y-160320374D01*
X239615861Y-166756374D02*
X239615861Y-164578374D01*
X239655861Y-162498374D02*
X239655861Y-160317374D01*
X239655861Y-166759374D02*
X239655861Y-164578374D01*
X239695861Y-166762374D02*
X239695861Y-160314374D01*
X239735861Y-166764374D02*
X239735861Y-160312374D01*
X239775861Y-166766374D02*
X239775861Y-160310374D01*
X239815861Y-166767374D02*
X239815861Y-160309374D01*
X239855861Y-166768374D02*
X239855861Y-160308374D01*
X239895861Y-166768374D02*
X239895861Y-160308374D01*
X243081102Y-165692374D02*
X243081102Y-165062374D01*
X243396102Y-165377374D02*
X242766102Y-165377374D01*
X243165861Y-163538374D02*
G75*
G02*
X236625861Y-163538374I-3270000J0D01*
G01*
X236625861Y-163538374D02*
G75*
G02*
X243165861Y-163538374I3270000J0D01*
G01*
%TO.C,C22*%
X118415861Y-108430754D02*
X124875861Y-108430754D01*
X118415861Y-108470754D02*
X124875861Y-108470754D01*
X118416861Y-108390754D02*
X124874861Y-108390754D01*
X118417861Y-108350754D02*
X124873861Y-108350754D01*
X118419861Y-108310754D02*
X124871861Y-108310754D01*
X118421861Y-108270754D02*
X124869861Y-108270754D01*
X118424861Y-108230754D02*
X120605861Y-108230754D01*
X118427861Y-108190754D02*
X120605861Y-108190754D01*
X118431861Y-108150754D02*
X120605861Y-108150754D01*
X118435861Y-108110754D02*
X120605861Y-108110754D01*
X118440861Y-108070754D02*
X120605861Y-108070754D01*
X118445861Y-108030754D02*
X120605861Y-108030754D01*
X118450861Y-107990754D02*
X120605861Y-107990754D01*
X118457861Y-107950754D02*
X120605861Y-107950754D01*
X118463861Y-107910754D02*
X120605861Y-107910754D01*
X118471861Y-107870754D02*
X120605861Y-107870754D01*
X118478861Y-107830754D02*
X120605861Y-107830754D01*
X118486861Y-107790754D02*
X120605861Y-107790754D01*
X118495861Y-107750754D02*
X120605861Y-107750754D01*
X118505861Y-107710754D02*
X120605861Y-107710754D01*
X118514861Y-107670754D02*
X120605861Y-107670754D01*
X118525861Y-107630754D02*
X120605861Y-107630754D01*
X118536861Y-107590754D02*
X120605861Y-107590754D01*
X118547861Y-107550754D02*
X120605861Y-107550754D01*
X118559861Y-107510754D02*
X120605861Y-107510754D01*
X118572861Y-107470754D02*
X120605861Y-107470754D01*
X118585861Y-107430754D02*
X120605861Y-107430754D01*
X118598861Y-107390754D02*
X120605861Y-107390754D01*
X118613861Y-107350754D02*
X120605861Y-107350754D01*
X118628861Y-107310754D02*
X120605861Y-107310754D01*
X118643861Y-107270754D02*
X120605861Y-107270754D01*
X118659861Y-107230754D02*
X120605861Y-107230754D01*
X118676861Y-107190754D02*
X120605861Y-107190754D01*
X118693861Y-107150754D02*
X120605861Y-107150754D01*
X118711861Y-107110754D02*
X120605861Y-107110754D01*
X118730861Y-107070754D02*
X120605861Y-107070754D01*
X118749861Y-107030754D02*
X120605861Y-107030754D01*
X118769861Y-106990754D02*
X120605861Y-106990754D01*
X118790861Y-106950754D02*
X120605861Y-106950754D01*
X118811861Y-106910754D02*
X120605861Y-106910754D01*
X118833861Y-106870754D02*
X120605861Y-106870754D01*
X118856861Y-106830754D02*
X120605861Y-106830754D01*
X118880861Y-106790754D02*
X120605861Y-106790754D01*
X118904861Y-106750754D02*
X120605861Y-106750754D01*
X118929861Y-106710754D02*
X120605861Y-106710754D01*
X118955861Y-106670754D02*
X120605861Y-106670754D01*
X118982861Y-106630754D02*
X120605861Y-106630754D01*
X119009861Y-106590754D02*
X120605861Y-106590754D01*
X119038861Y-106550754D02*
X120605861Y-106550754D01*
X119068861Y-106510754D02*
X120605861Y-106510754D01*
X119098861Y-106470754D02*
X120605861Y-106470754D01*
X119129861Y-106430754D02*
X120605861Y-106430754D01*
X119162861Y-106390754D02*
X120605861Y-106390754D01*
X119195861Y-106350754D02*
X120605861Y-106350754D01*
X119230861Y-106310754D02*
X120605861Y-106310754D01*
X119266861Y-106270754D02*
X120605861Y-106270754D01*
X119303861Y-106230754D02*
X120605861Y-106230754D01*
X119341861Y-106190754D02*
X120605861Y-106190754D01*
X119381861Y-106150754D02*
X123909861Y-106150754D01*
X119422861Y-106110754D02*
X123868861Y-106110754D01*
X119464861Y-106070754D02*
X123826861Y-106070754D01*
X119491861Y-111655995D02*
X120121861Y-111655995D01*
X119508861Y-106030754D02*
X123782861Y-106030754D01*
X119554861Y-105990754D02*
X123736861Y-105990754D01*
X119601861Y-105950754D02*
X123689861Y-105950754D01*
X119650861Y-105910754D02*
X123640861Y-105910754D01*
X119702861Y-105870754D02*
X123588861Y-105870754D01*
X119755861Y-105830754D02*
X123535861Y-105830754D01*
X119806861Y-111970995D02*
X119806861Y-111340995D01*
X119811861Y-105790754D02*
X123479861Y-105790754D01*
X119870861Y-105750754D02*
X123420861Y-105750754D01*
X119931861Y-105710754D02*
X123359861Y-105710754D01*
X119996861Y-105670754D02*
X123294861Y-105670754D01*
X120064861Y-105630754D02*
X123226861Y-105630754D01*
X120136861Y-105590754D02*
X123154861Y-105590754D01*
X120213861Y-105550754D02*
X123077861Y-105550754D01*
X120295861Y-105510754D02*
X122995861Y-105510754D01*
X120384861Y-105470754D02*
X122906861Y-105470754D01*
X120480861Y-105430754D02*
X122810861Y-105430754D01*
X120587861Y-105390754D02*
X122703861Y-105390754D01*
X120706861Y-105350754D02*
X122584861Y-105350754D01*
X120844861Y-105310754D02*
X122446861Y-105310754D01*
X121012861Y-105270754D02*
X122278861Y-105270754D01*
X121243861Y-105230754D02*
X122047861Y-105230754D01*
X122685861Y-106190754D02*
X123949861Y-106190754D01*
X122685861Y-106230754D02*
X123987861Y-106230754D01*
X122685861Y-106270754D02*
X124024861Y-106270754D01*
X122685861Y-106310754D02*
X124060861Y-106310754D01*
X122685861Y-106350754D02*
X124095861Y-106350754D01*
X122685861Y-106390754D02*
X124128861Y-106390754D01*
X122685861Y-106430754D02*
X124161861Y-106430754D01*
X122685861Y-106470754D02*
X124192861Y-106470754D01*
X122685861Y-106510754D02*
X124222861Y-106510754D01*
X122685861Y-106550754D02*
X124252861Y-106550754D01*
X122685861Y-106590754D02*
X124281861Y-106590754D01*
X122685861Y-106630754D02*
X124308861Y-106630754D01*
X122685861Y-106670754D02*
X124335861Y-106670754D01*
X122685861Y-106710754D02*
X124361861Y-106710754D01*
X122685861Y-106750754D02*
X124386861Y-106750754D01*
X122685861Y-106790754D02*
X124410861Y-106790754D01*
X122685861Y-106830754D02*
X124434861Y-106830754D01*
X122685861Y-106870754D02*
X124457861Y-106870754D01*
X122685861Y-106910754D02*
X124479861Y-106910754D01*
X122685861Y-106950754D02*
X124500861Y-106950754D01*
X122685861Y-106990754D02*
X124521861Y-106990754D01*
X122685861Y-107030754D02*
X124541861Y-107030754D01*
X122685861Y-107070754D02*
X124560861Y-107070754D01*
X122685861Y-107110754D02*
X124579861Y-107110754D01*
X122685861Y-107150754D02*
X124597861Y-107150754D01*
X122685861Y-107190754D02*
X124614861Y-107190754D01*
X122685861Y-107230754D02*
X124631861Y-107230754D01*
X122685861Y-107270754D02*
X124647861Y-107270754D01*
X122685861Y-107310754D02*
X124662861Y-107310754D01*
X122685861Y-107350754D02*
X124677861Y-107350754D01*
X122685861Y-107390754D02*
X124692861Y-107390754D01*
X122685861Y-107430754D02*
X124705861Y-107430754D01*
X122685861Y-107470754D02*
X124718861Y-107470754D01*
X122685861Y-107510754D02*
X124731861Y-107510754D01*
X122685861Y-107550754D02*
X124743861Y-107550754D01*
X122685861Y-107590754D02*
X124754861Y-107590754D01*
X122685861Y-107630754D02*
X124765861Y-107630754D01*
X122685861Y-107670754D02*
X124776861Y-107670754D01*
X122685861Y-107710754D02*
X124785861Y-107710754D01*
X122685861Y-107750754D02*
X124795861Y-107750754D01*
X122685861Y-107790754D02*
X124804861Y-107790754D01*
X122685861Y-107830754D02*
X124812861Y-107830754D01*
X122685861Y-107870754D02*
X124819861Y-107870754D01*
X122685861Y-107910754D02*
X124827861Y-107910754D01*
X122685861Y-107950754D02*
X124833861Y-107950754D01*
X122685861Y-107990754D02*
X124840861Y-107990754D01*
X122685861Y-108030754D02*
X124845861Y-108030754D01*
X122685861Y-108070754D02*
X124850861Y-108070754D01*
X122685861Y-108110754D02*
X124855861Y-108110754D01*
X122685861Y-108150754D02*
X124859861Y-108150754D01*
X122685861Y-108190754D02*
X124863861Y-108190754D01*
X122685861Y-108230754D02*
X124866861Y-108230754D01*
X124915861Y-108470754D02*
G75*
G02*
X118375861Y-108470754I-3270000J0D01*
G01*
X118375861Y-108470754D02*
G75*
G02*
X124915861Y-108470754I3270000J0D01*
G01*
%TO.C,R43*%
X191185861Y-128668374D02*
X191185861Y-128998374D01*
X191185861Y-131408374D02*
X191185861Y-131078374D01*
X197725861Y-128668374D02*
X191185861Y-128668374D01*
X197725861Y-128998374D02*
X197725861Y-128668374D01*
X197725861Y-131078374D02*
X197725861Y-131408374D01*
X197725861Y-131408374D02*
X191185861Y-131408374D01*
%TO.C,R59*%
X376375861Y-114668374D02*
X382915861Y-114668374D01*
X376375861Y-114998374D02*
X376375861Y-114668374D01*
X376375861Y-117078374D02*
X376375861Y-117408374D01*
X376375861Y-117408374D02*
X382915861Y-117408374D01*
X382915861Y-114668374D02*
X382915861Y-114998374D01*
X382915861Y-117408374D02*
X382915861Y-117078374D01*
%TO.C,U30*%
X244995861Y-163898374D02*
X244995861Y-169158374D01*
X244995861Y-171158374D02*
X244995861Y-176418374D01*
X244995861Y-176418374D02*
X275595861Y-176418374D01*
X275595861Y-163898374D02*
X244995861Y-163898374D01*
X275595861Y-176418374D02*
X275595861Y-163898374D01*
X244995861Y-169158374D02*
G75*
G02*
X244995861Y-171158374I0J-1000000D01*
G01*
%TO.C,R52*%
X304065861Y-129168374D02*
X304065861Y-129498374D01*
X304065861Y-131908374D02*
X304065861Y-131578374D01*
X310605861Y-129168374D02*
X304065861Y-129168374D01*
X310605861Y-129498374D02*
X310605861Y-129168374D01*
X310605861Y-131578374D02*
X310605861Y-131908374D01*
X310605861Y-131908374D02*
X304065861Y-131908374D01*
%TO.C,U32*%
X320505861Y-140168374D02*
X320505861Y-170768374D01*
X320505861Y-170768374D02*
X333025861Y-170768374D01*
X325765861Y-140168374D02*
X320505861Y-140168374D01*
X333025861Y-140168374D02*
X327765861Y-140168374D01*
X333025861Y-170768374D02*
X333025861Y-140168374D01*
X327765861Y-140168374D02*
G75*
G02*
X325765861Y-140168374I-1000000J0D01*
G01*
%TO.C,R64*%
X374775861Y-104458374D02*
X374775861Y-110998374D01*
X374775861Y-110998374D02*
X375105861Y-110998374D01*
X375105861Y-104458374D02*
X374775861Y-104458374D01*
X377185861Y-104458374D02*
X377515861Y-104458374D01*
X377515861Y-104458374D02*
X377515861Y-110998374D01*
X377515861Y-110998374D02*
X377185861Y-110998374D01*
%TO.C,R36*%
X95747310Y-120283887D02*
X102287310Y-120283887D01*
X95747310Y-120613887D02*
X95747310Y-120283887D01*
X95747310Y-122693887D02*
X95747310Y-123023887D01*
X95747310Y-123023887D02*
X102287310Y-123023887D01*
X102287310Y-120283887D02*
X102287310Y-120613887D01*
X102287310Y-123023887D02*
X102287310Y-122693887D01*
%TO.C,U10*%
X305575861Y-178078374D02*
X305575861Y-179728374D01*
X305575861Y-181728374D02*
X305575861Y-183378374D01*
X305575861Y-183378374D02*
X326015861Y-183378374D01*
X326015861Y-178078374D02*
X305575861Y-178078374D01*
X326015861Y-183378374D02*
X326015861Y-178078374D01*
X305575861Y-179728374D02*
G75*
G02*
X305575861Y-181728374I0J-1000000D01*
G01*
%TO.C,R61*%
X389185861Y-116168374D02*
X395725861Y-116168374D01*
X389185861Y-116498374D02*
X389185861Y-116168374D01*
X389185861Y-118578374D02*
X389185861Y-118908374D01*
X389185861Y-118908374D02*
X395725861Y-118908374D01*
X395725861Y-116168374D02*
X395725861Y-116498374D01*
X395725861Y-118908374D02*
X395725861Y-118578374D01*
%TO.C,U28*%
X119005861Y-113268374D02*
X119005861Y-143868374D01*
X119005861Y-143868374D02*
X131525861Y-143868374D01*
X124265861Y-113268374D02*
X119005861Y-113268374D01*
X131525861Y-113268374D02*
X126265861Y-113268374D01*
X131525861Y-143868374D02*
X131525861Y-113268374D01*
X126265861Y-113268374D02*
G75*
G02*
X124265861Y-113268374I-1000000J0D01*
G01*
%TO.C,R27*%
X235065861Y-172668374D02*
X235065861Y-172998374D01*
X235065861Y-175408374D02*
X235065861Y-175078374D01*
X241605861Y-172668374D02*
X235065861Y-172668374D01*
X241605861Y-172998374D02*
X241605861Y-172668374D01*
X241605861Y-175078374D02*
X241605861Y-175408374D01*
X241605861Y-175408374D02*
X235065861Y-175408374D01*
%TO.C,R60*%
X376375861Y-118668374D02*
X382915861Y-118668374D01*
X376375861Y-118998374D02*
X376375861Y-118668374D01*
X376375861Y-121078374D02*
X376375861Y-121408374D01*
X376375861Y-121408374D02*
X382915861Y-121408374D01*
X382915861Y-118668374D02*
X382915861Y-118998374D01*
X382915861Y-121408374D02*
X382915861Y-121078374D01*
%TO.C,C19*%
X345275861Y-97918374D02*
X345612861Y-97918374D01*
X345275861Y-103158374D02*
X345275861Y-97918374D01*
X345612861Y-103158374D02*
X345275861Y-103158374D01*
X347678861Y-97918374D02*
X348015861Y-97918374D01*
X348015861Y-97918374D02*
X348015861Y-103158374D01*
X348015861Y-103158374D02*
X347678861Y-103158374D01*
%TO.C,C23*%
X126775861Y-105918374D02*
X127112861Y-105918374D01*
X126775861Y-111158374D02*
X126775861Y-105918374D01*
X127112861Y-111158374D02*
X126775861Y-111158374D01*
X129178861Y-105918374D02*
X129515861Y-105918374D01*
X129515861Y-105918374D02*
X129515861Y-111158374D01*
X129515861Y-111158374D02*
X129178861Y-111158374D01*
%TO.C,C21*%
X214525861Y-149668374D02*
X219765861Y-149668374D01*
X214525861Y-150005374D02*
X214525861Y-149668374D01*
X214525861Y-152408374D02*
X214525861Y-152071374D01*
X219765861Y-149668374D02*
X219765861Y-150005374D01*
X219765861Y-152071374D02*
X219765861Y-152408374D01*
X219765861Y-152408374D02*
X214525861Y-152408374D01*
%TO.C,R66*%
X377775861Y-147078374D02*
X377775861Y-153618374D01*
X377775861Y-153618374D02*
X378105861Y-153618374D01*
X378105861Y-147078374D02*
X377775861Y-147078374D01*
X380185861Y-147078374D02*
X380515861Y-147078374D01*
X380515861Y-147078374D02*
X380515861Y-153618374D01*
X380515861Y-153618374D02*
X380185861Y-153618374D01*
%TO.C,R62*%
X376185861Y-139168374D02*
X382725861Y-139168374D01*
X376185861Y-139498374D02*
X376185861Y-139168374D01*
X376185861Y-141578374D02*
X376185861Y-141908374D01*
X376185861Y-141908374D02*
X382725861Y-141908374D01*
X382725861Y-139168374D02*
X382725861Y-139498374D01*
X382725861Y-141908374D02*
X382725861Y-141578374D01*
%TO.C,R54*%
X304065861Y-150668374D02*
X304065861Y-150998374D01*
X304065861Y-153408374D02*
X304065861Y-153078374D01*
X310605861Y-150668374D02*
X304065861Y-150668374D01*
X310605861Y-150998374D02*
X310605861Y-150668374D01*
X310605861Y-153078374D02*
X310605861Y-153408374D01*
X310605861Y-153408374D02*
X304065861Y-153408374D01*
%TO.C,U5*%
X27885861Y-113738374D02*
X27885861Y-144338374D01*
X27885861Y-144338374D02*
X40405861Y-144338374D01*
X33145861Y-113738374D02*
X27885861Y-113738374D01*
X40405861Y-113738374D02*
X35145861Y-113738374D01*
X40405861Y-144338374D02*
X40405861Y-113738374D01*
X35145861Y-113738374D02*
G75*
G02*
X33145861Y-113738374I-1000000J0D01*
G01*
%TO.C,R56*%
X304185861Y-119668374D02*
X310725861Y-119668374D01*
X304185861Y-119998374D02*
X304185861Y-119668374D01*
X304185861Y-122078374D02*
X304185861Y-122408374D01*
X304185861Y-122408374D02*
X310725861Y-122408374D01*
X310725861Y-119668374D02*
X310725861Y-119998374D01*
X310725861Y-122408374D02*
X310725861Y-122078374D01*
%TO.C,R28*%
X337275861Y-109578374D02*
X337275861Y-116118374D01*
X337275861Y-116118374D02*
X337605861Y-116118374D01*
X337605861Y-109578374D02*
X337275861Y-109578374D01*
X339685861Y-109578374D02*
X340015861Y-109578374D01*
X340015861Y-109578374D02*
X340015861Y-116118374D01*
X340015861Y-116118374D02*
X339685861Y-116118374D01*
%TO.C,C13*%
X328775861Y-179418374D02*
X329112861Y-179418374D01*
X328775861Y-184658374D02*
X328775861Y-179418374D01*
X329112861Y-184658374D02*
X328775861Y-184658374D01*
X331178861Y-179418374D02*
X331515861Y-179418374D01*
X331515861Y-179418374D02*
X331515861Y-184658374D01*
X331515861Y-184658374D02*
X331178861Y-184658374D01*
%TO.C,U31*%
X321265861Y-98168374D02*
X321265861Y-128768374D01*
X321265861Y-128768374D02*
X333785861Y-128768374D01*
X326525861Y-98168374D02*
X321265861Y-98168374D01*
X333785861Y-98168374D02*
X328525861Y-98168374D01*
X333785861Y-128768374D02*
X333785861Y-98168374D01*
X328525861Y-98168374D02*
G75*
G02*
X326525861Y-98168374I-1000000J0D01*
G01*
%TO.C,R63*%
X374875861Y-158668374D02*
X381415861Y-158668374D01*
X374875861Y-158998374D02*
X374875861Y-158668374D01*
X374875861Y-161078374D02*
X374875861Y-161408374D01*
X374875861Y-161408374D02*
X381415861Y-161408374D01*
X381415861Y-158668374D02*
X381415861Y-158998374D01*
X381415861Y-161408374D02*
X381415861Y-161078374D01*
%TO.C,R51*%
X304185861Y-124168374D02*
X304185861Y-124498374D01*
X304185861Y-126908374D02*
X304185861Y-126578374D01*
X310725861Y-124168374D02*
X304185861Y-124168374D01*
X310725861Y-124498374D02*
X310725861Y-124168374D01*
X310725861Y-126578374D02*
X310725861Y-126908374D01*
X310725861Y-126908374D02*
X304185861Y-126908374D01*
%TO.C,R41*%
X191375861Y-106668374D02*
X191375861Y-106998374D01*
X191375861Y-109408374D02*
X191375861Y-109078374D01*
X197915861Y-106668374D02*
X191375861Y-106668374D01*
X197915861Y-106998374D02*
X197915861Y-106668374D01*
X197915861Y-109078374D02*
X197915861Y-109408374D01*
X197915861Y-109408374D02*
X191375861Y-109408374D01*
%TO.C,C18*%
X337415861Y-100748374D02*
X343875861Y-100748374D01*
X337415861Y-100788374D02*
X343875861Y-100788374D01*
X337416861Y-100708374D02*
X343874861Y-100708374D01*
X337417861Y-100668374D02*
X343873861Y-100668374D01*
X337419861Y-100628374D02*
X343871861Y-100628374D01*
X337421861Y-100588374D02*
X343869861Y-100588374D01*
X337424861Y-100548374D02*
X339605861Y-100548374D01*
X337427861Y-100508374D02*
X339605861Y-100508374D01*
X337431861Y-100468374D02*
X339605861Y-100468374D01*
X337435861Y-100428374D02*
X339605861Y-100428374D01*
X337440861Y-100388374D02*
X339605861Y-100388374D01*
X337445861Y-100348374D02*
X339605861Y-100348374D01*
X337450861Y-100308374D02*
X339605861Y-100308374D01*
X337457861Y-100268374D02*
X339605861Y-100268374D01*
X337463861Y-100228374D02*
X339605861Y-100228374D01*
X337471861Y-100188374D02*
X339605861Y-100188374D01*
X337478861Y-100148374D02*
X339605861Y-100148374D01*
X337486861Y-100108374D02*
X339605861Y-100108374D01*
X337495861Y-100068374D02*
X339605861Y-100068374D01*
X337505861Y-100028374D02*
X339605861Y-100028374D01*
X337514861Y-99988374D02*
X339605861Y-99988374D01*
X337525861Y-99948374D02*
X339605861Y-99948374D01*
X337536861Y-99908374D02*
X339605861Y-99908374D01*
X337547861Y-99868374D02*
X339605861Y-99868374D01*
X337559861Y-99828374D02*
X339605861Y-99828374D01*
X337572861Y-99788374D02*
X339605861Y-99788374D01*
X337585861Y-99748374D02*
X339605861Y-99748374D01*
X337598861Y-99708374D02*
X339605861Y-99708374D01*
X337613861Y-99668374D02*
X339605861Y-99668374D01*
X337628861Y-99628374D02*
X339605861Y-99628374D01*
X337643861Y-99588374D02*
X339605861Y-99588374D01*
X337659861Y-99548374D02*
X339605861Y-99548374D01*
X337676861Y-99508374D02*
X339605861Y-99508374D01*
X337693861Y-99468374D02*
X339605861Y-99468374D01*
X337711861Y-99428374D02*
X339605861Y-99428374D01*
X337730861Y-99388374D02*
X339605861Y-99388374D01*
X337749861Y-99348374D02*
X339605861Y-99348374D01*
X337769861Y-99308374D02*
X339605861Y-99308374D01*
X337790861Y-99268374D02*
X339605861Y-99268374D01*
X337811861Y-99228374D02*
X339605861Y-99228374D01*
X337833861Y-99188374D02*
X339605861Y-99188374D01*
X337856861Y-99148374D02*
X339605861Y-99148374D01*
X337880861Y-99108374D02*
X339605861Y-99108374D01*
X337904861Y-99068374D02*
X339605861Y-99068374D01*
X337929861Y-99028374D02*
X339605861Y-99028374D01*
X337955861Y-98988374D02*
X339605861Y-98988374D01*
X337982861Y-98948374D02*
X339605861Y-98948374D01*
X338009861Y-98908374D02*
X339605861Y-98908374D01*
X338038861Y-98868374D02*
X339605861Y-98868374D01*
X338068861Y-98828374D02*
X339605861Y-98828374D01*
X338098861Y-98788374D02*
X339605861Y-98788374D01*
X338129861Y-98748374D02*
X339605861Y-98748374D01*
X338162861Y-98708374D02*
X339605861Y-98708374D01*
X338195861Y-98668374D02*
X339605861Y-98668374D01*
X338230861Y-98628374D02*
X339605861Y-98628374D01*
X338266861Y-98588374D02*
X339605861Y-98588374D01*
X338303861Y-98548374D02*
X339605861Y-98548374D01*
X338341861Y-98508374D02*
X339605861Y-98508374D01*
X338381861Y-98468374D02*
X342909861Y-98468374D01*
X338422861Y-98428374D02*
X342868861Y-98428374D01*
X338464861Y-98388374D02*
X342826861Y-98388374D01*
X338491861Y-103973615D02*
X339121861Y-103973615D01*
X338508861Y-98348374D02*
X342782861Y-98348374D01*
X338554861Y-98308374D02*
X342736861Y-98308374D01*
X338601861Y-98268374D02*
X342689861Y-98268374D01*
X338650861Y-98228374D02*
X342640861Y-98228374D01*
X338702861Y-98188374D02*
X342588861Y-98188374D01*
X338755861Y-98148374D02*
X342535861Y-98148374D01*
X338806861Y-104288615D02*
X338806861Y-103658615D01*
X338811861Y-98108374D02*
X342479861Y-98108374D01*
X338870861Y-98068374D02*
X342420861Y-98068374D01*
X338931861Y-98028374D02*
X342359861Y-98028374D01*
X338996861Y-97988374D02*
X342294861Y-97988374D01*
X339064861Y-97948374D02*
X342226861Y-97948374D01*
X339136861Y-97908374D02*
X342154861Y-97908374D01*
X339213861Y-97868374D02*
X342077861Y-97868374D01*
X339295861Y-97828374D02*
X341995861Y-97828374D01*
X339384861Y-97788374D02*
X341906861Y-97788374D01*
X339480861Y-97748374D02*
X341810861Y-97748374D01*
X339587861Y-97708374D02*
X341703861Y-97708374D01*
X339706861Y-97668374D02*
X341584861Y-97668374D01*
X339844861Y-97628374D02*
X341446861Y-97628374D01*
X340012861Y-97588374D02*
X341278861Y-97588374D01*
X340243861Y-97548374D02*
X341047861Y-97548374D01*
X341685861Y-98508374D02*
X342949861Y-98508374D01*
X341685861Y-98548374D02*
X342987861Y-98548374D01*
X341685861Y-98588374D02*
X343024861Y-98588374D01*
X341685861Y-98628374D02*
X343060861Y-98628374D01*
X341685861Y-98668374D02*
X343095861Y-98668374D01*
X341685861Y-98708374D02*
X343128861Y-98708374D01*
X341685861Y-98748374D02*
X343161861Y-98748374D01*
X341685861Y-98788374D02*
X343192861Y-98788374D01*
X341685861Y-98828374D02*
X343222861Y-98828374D01*
X341685861Y-98868374D02*
X343252861Y-98868374D01*
X341685861Y-98908374D02*
X343281861Y-98908374D01*
X341685861Y-98948374D02*
X343308861Y-98948374D01*
X341685861Y-98988374D02*
X343335861Y-98988374D01*
X341685861Y-99028374D02*
X343361861Y-99028374D01*
X341685861Y-99068374D02*
X343386861Y-99068374D01*
X341685861Y-99108374D02*
X343410861Y-99108374D01*
X341685861Y-99148374D02*
X343434861Y-99148374D01*
X341685861Y-99188374D02*
X343457861Y-99188374D01*
X341685861Y-99228374D02*
X343479861Y-99228374D01*
X341685861Y-99268374D02*
X343500861Y-99268374D01*
X341685861Y-99308374D02*
X343521861Y-99308374D01*
X341685861Y-99348374D02*
X343541861Y-99348374D01*
X341685861Y-99388374D02*
X343560861Y-99388374D01*
X341685861Y-99428374D02*
X343579861Y-99428374D01*
X341685861Y-99468374D02*
X343597861Y-99468374D01*
X341685861Y-99508374D02*
X343614861Y-99508374D01*
X341685861Y-99548374D02*
X343631861Y-99548374D01*
X341685861Y-99588374D02*
X343647861Y-99588374D01*
X341685861Y-99628374D02*
X343662861Y-99628374D01*
X341685861Y-99668374D02*
X343677861Y-99668374D01*
X341685861Y-99708374D02*
X343692861Y-99708374D01*
X341685861Y-99748374D02*
X343705861Y-99748374D01*
X341685861Y-99788374D02*
X343718861Y-99788374D01*
X341685861Y-99828374D02*
X343731861Y-99828374D01*
X341685861Y-99868374D02*
X343743861Y-99868374D01*
X341685861Y-99908374D02*
X343754861Y-99908374D01*
X341685861Y-99948374D02*
X343765861Y-99948374D01*
X341685861Y-99988374D02*
X343776861Y-99988374D01*
X341685861Y-100028374D02*
X343785861Y-100028374D01*
X341685861Y-100068374D02*
X343795861Y-100068374D01*
X341685861Y-100108374D02*
X343804861Y-100108374D01*
X341685861Y-100148374D02*
X343812861Y-100148374D01*
X341685861Y-100188374D02*
X343819861Y-100188374D01*
X341685861Y-100228374D02*
X343827861Y-100228374D01*
X341685861Y-100268374D02*
X343833861Y-100268374D01*
X341685861Y-100308374D02*
X343840861Y-100308374D01*
X341685861Y-100348374D02*
X343845861Y-100348374D01*
X341685861Y-100388374D02*
X343850861Y-100388374D01*
X341685861Y-100428374D02*
X343855861Y-100428374D01*
X341685861Y-100468374D02*
X343859861Y-100468374D01*
X341685861Y-100508374D02*
X343863861Y-100508374D01*
X341685861Y-100548374D02*
X343866861Y-100548374D01*
X343915861Y-100788374D02*
G75*
G02*
X337375861Y-100788374I-3270000J0D01*
G01*
X337375861Y-100788374D02*
G75*
G02*
X343915861Y-100788374I3270000J0D01*
G01*
%TO.C,R25*%
X131775861Y-104458374D02*
X132105861Y-104458374D01*
X131775861Y-110998374D02*
X131775861Y-104458374D01*
X132105861Y-110998374D02*
X131775861Y-110998374D01*
X134185861Y-110998374D02*
X134515861Y-110998374D01*
X134515861Y-104458374D02*
X134185861Y-104458374D01*
X134515861Y-110998374D02*
X134515861Y-104458374D01*
%TO.C,R48*%
X191552004Y-141817464D02*
X198092004Y-141817464D01*
X191552004Y-142147464D02*
X191552004Y-141817464D01*
X191552004Y-144227464D02*
X191552004Y-144557464D01*
X191552004Y-144557464D02*
X198092004Y-144557464D01*
X198092004Y-141817464D02*
X198092004Y-142147464D01*
X198092004Y-144557464D02*
X198092004Y-144227464D01*
%TO.C,C17*%
X328775861Y-132918374D02*
X329112861Y-132918374D01*
X328775861Y-138158374D02*
X328775861Y-132918374D01*
X329112861Y-138158374D02*
X328775861Y-138158374D01*
X331178861Y-132918374D02*
X331515861Y-132918374D01*
X331515861Y-132918374D02*
X331515861Y-138158374D01*
X331515861Y-138158374D02*
X331178861Y-138158374D01*
%TO.C,R45*%
X191375861Y-150668374D02*
X191375861Y-150998374D01*
X191375861Y-153408374D02*
X191375861Y-153078374D01*
X197915861Y-150668374D02*
X191375861Y-150668374D01*
X197915861Y-150998374D02*
X197915861Y-150668374D01*
X197915861Y-153078374D02*
X197915861Y-153408374D01*
X197915861Y-153408374D02*
X191375861Y-153408374D01*
%TO.C,U7*%
X182575861Y-169578374D02*
X182575861Y-171228374D01*
X182575861Y-173228374D02*
X182575861Y-174878374D01*
X182575861Y-174878374D02*
X203015861Y-174878374D01*
X203015861Y-169578374D02*
X182575861Y-169578374D01*
X203015861Y-174878374D02*
X203015861Y-169578374D01*
X182575861Y-171228374D02*
G75*
G02*
X182575861Y-173228374I0J-1000000D01*
G01*
%TO.C,R35*%
X95685861Y-129168374D02*
X95685861Y-129498374D01*
X95685861Y-131908374D02*
X95685861Y-131578374D01*
X102225861Y-129168374D02*
X95685861Y-129168374D01*
X102225861Y-129498374D02*
X102225861Y-129168374D01*
X102225861Y-131578374D02*
X102225861Y-131908374D01*
X102225861Y-131908374D02*
X95685861Y-131908374D01*
%TO.C,R39*%
X95816079Y-142167063D02*
X102356079Y-142167063D01*
X95816079Y-142497063D02*
X95816079Y-142167063D01*
X95816079Y-144577063D02*
X95816079Y-144907063D01*
X95816079Y-144907063D02*
X102356079Y-144907063D01*
X102356079Y-142167063D02*
X102356079Y-142497063D01*
X102356079Y-144907063D02*
X102356079Y-144577063D01*
%TO.C,U29*%
X208765861Y-114388374D02*
X208765861Y-144988374D01*
X208765861Y-144988374D02*
X221285861Y-144988374D01*
X214025861Y-114388374D02*
X208765861Y-114388374D01*
X221285861Y-114388374D02*
X216025861Y-114388374D01*
X221285861Y-144988374D02*
X221285861Y-114388374D01*
X216025861Y-114388374D02*
G75*
G02*
X214025861Y-114388374I-1000000J0D01*
G01*
%TO.C,R37*%
X95868410Y-146458177D02*
X95868410Y-146788177D01*
X95868410Y-149198177D02*
X95868410Y-148868177D01*
X102408410Y-146458177D02*
X95868410Y-146458177D01*
X102408410Y-146788177D02*
X102408410Y-146458177D01*
X102408410Y-148868177D02*
X102408410Y-149198177D01*
X102408410Y-149198177D02*
X95868410Y-149198177D01*
%TO.C,R31*%
X95875861Y-99168374D02*
X102415861Y-99168374D01*
X95875861Y-99498374D02*
X95875861Y-99168374D01*
X95875861Y-101578374D02*
X95875861Y-101908374D01*
X95875861Y-101908374D02*
X102415861Y-101908374D01*
X102415861Y-99168374D02*
X102415861Y-99498374D01*
X102415861Y-101908374D02*
X102415861Y-101578374D01*
%TO.C,C20*%
X208605861Y-149528374D02*
X206424861Y-149528374D01*
X208605861Y-149568374D02*
X206427861Y-149568374D01*
X208605861Y-149608374D02*
X206431861Y-149608374D01*
X208605861Y-149648374D02*
X206435861Y-149648374D01*
X208605861Y-149688374D02*
X206440861Y-149688374D01*
X208605861Y-149728374D02*
X206445861Y-149728374D01*
X208605861Y-149768374D02*
X206450861Y-149768374D01*
X208605861Y-149808374D02*
X206457861Y-149808374D01*
X208605861Y-149848374D02*
X206463861Y-149848374D01*
X208605861Y-149888374D02*
X206471861Y-149888374D01*
X208605861Y-149928374D02*
X206478861Y-149928374D01*
X208605861Y-149968374D02*
X206486861Y-149968374D01*
X208605861Y-150008374D02*
X206495861Y-150008374D01*
X208605861Y-150048374D02*
X206505861Y-150048374D01*
X208605861Y-150088374D02*
X206514861Y-150088374D01*
X208605861Y-150128374D02*
X206525861Y-150128374D01*
X208605861Y-150168374D02*
X206536861Y-150168374D01*
X208605861Y-150208374D02*
X206547861Y-150208374D01*
X208605861Y-150248374D02*
X206559861Y-150248374D01*
X208605861Y-150288374D02*
X206572861Y-150288374D01*
X208605861Y-150328374D02*
X206585861Y-150328374D01*
X208605861Y-150368374D02*
X206598861Y-150368374D01*
X208605861Y-150408374D02*
X206613861Y-150408374D01*
X208605861Y-150448374D02*
X206628861Y-150448374D01*
X208605861Y-150488374D02*
X206643861Y-150488374D01*
X208605861Y-150528374D02*
X206659861Y-150528374D01*
X208605861Y-150568374D02*
X206676861Y-150568374D01*
X208605861Y-150608374D02*
X206693861Y-150608374D01*
X208605861Y-150648374D02*
X206711861Y-150648374D01*
X208605861Y-150688374D02*
X206730861Y-150688374D01*
X208605861Y-150728374D02*
X206749861Y-150728374D01*
X208605861Y-150768374D02*
X206769861Y-150768374D01*
X208605861Y-150808374D02*
X206790861Y-150808374D01*
X208605861Y-150848374D02*
X206811861Y-150848374D01*
X208605861Y-150888374D02*
X206833861Y-150888374D01*
X208605861Y-150928374D02*
X206856861Y-150928374D01*
X208605861Y-150968374D02*
X206880861Y-150968374D01*
X208605861Y-151008374D02*
X206904861Y-151008374D01*
X208605861Y-151048374D02*
X206929861Y-151048374D01*
X208605861Y-151088374D02*
X206955861Y-151088374D01*
X208605861Y-151128374D02*
X206982861Y-151128374D01*
X208605861Y-151168374D02*
X207009861Y-151168374D01*
X208605861Y-151208374D02*
X207038861Y-151208374D01*
X208605861Y-151248374D02*
X207068861Y-151248374D01*
X208605861Y-151288374D02*
X207098861Y-151288374D01*
X208605861Y-151328374D02*
X207129861Y-151328374D01*
X208605861Y-151368374D02*
X207162861Y-151368374D01*
X208605861Y-151408374D02*
X207195861Y-151408374D01*
X208605861Y-151448374D02*
X207230861Y-151448374D01*
X208605861Y-151488374D02*
X207266861Y-151488374D01*
X208605861Y-151528374D02*
X207303861Y-151528374D01*
X208605861Y-151568374D02*
X207341861Y-151568374D01*
X210047861Y-152528374D02*
X209243861Y-152528374D01*
X210278861Y-152488374D02*
X209012861Y-152488374D01*
X210446861Y-152448374D02*
X208844861Y-152448374D01*
X210584861Y-152408374D02*
X208706861Y-152408374D01*
X210703861Y-152368374D02*
X208587861Y-152368374D01*
X210810861Y-152328374D02*
X208480861Y-152328374D01*
X210906861Y-152288374D02*
X208384861Y-152288374D01*
X210995861Y-152248374D02*
X208295861Y-152248374D01*
X211077861Y-152208374D02*
X208213861Y-152208374D01*
X211154861Y-152168374D02*
X208136861Y-152168374D01*
X211226861Y-152128374D02*
X208064861Y-152128374D01*
X211294861Y-152088374D02*
X207996861Y-152088374D01*
X211359861Y-152048374D02*
X207931861Y-152048374D01*
X211420861Y-152008374D02*
X207870861Y-152008374D01*
X211479861Y-151968374D02*
X207811861Y-151968374D01*
X211484861Y-145788133D02*
X211484861Y-146418133D01*
X211535861Y-151928374D02*
X207755861Y-151928374D01*
X211588861Y-151888374D02*
X207702861Y-151888374D01*
X211640861Y-151848374D02*
X207650861Y-151848374D01*
X211689861Y-151808374D02*
X207601861Y-151808374D01*
X211736861Y-151768374D02*
X207554861Y-151768374D01*
X211782861Y-151728374D02*
X207508861Y-151728374D01*
X211799861Y-146103133D02*
X211169861Y-146103133D01*
X211826861Y-151688374D02*
X207464861Y-151688374D01*
X211868861Y-151648374D02*
X207422861Y-151648374D01*
X211909861Y-151608374D02*
X207381861Y-151608374D01*
X211949861Y-151568374D02*
X210685861Y-151568374D01*
X211987861Y-151528374D02*
X210685861Y-151528374D01*
X212024861Y-151488374D02*
X210685861Y-151488374D01*
X212060861Y-151448374D02*
X210685861Y-151448374D01*
X212095861Y-151408374D02*
X210685861Y-151408374D01*
X212128861Y-151368374D02*
X210685861Y-151368374D01*
X212161861Y-151328374D02*
X210685861Y-151328374D01*
X212192861Y-151288374D02*
X210685861Y-151288374D01*
X212222861Y-151248374D02*
X210685861Y-151248374D01*
X212252861Y-151208374D02*
X210685861Y-151208374D01*
X212281861Y-151168374D02*
X210685861Y-151168374D01*
X212308861Y-151128374D02*
X210685861Y-151128374D01*
X212335861Y-151088374D02*
X210685861Y-151088374D01*
X212361861Y-151048374D02*
X210685861Y-151048374D01*
X212386861Y-151008374D02*
X210685861Y-151008374D01*
X212410861Y-150968374D02*
X210685861Y-150968374D01*
X212434861Y-150928374D02*
X210685861Y-150928374D01*
X212457861Y-150888374D02*
X210685861Y-150888374D01*
X212479861Y-150848374D02*
X210685861Y-150848374D01*
X212500861Y-150808374D02*
X210685861Y-150808374D01*
X212521861Y-150768374D02*
X210685861Y-150768374D01*
X212541861Y-150728374D02*
X210685861Y-150728374D01*
X212560861Y-150688374D02*
X210685861Y-150688374D01*
X212579861Y-150648374D02*
X210685861Y-150648374D01*
X212597861Y-150608374D02*
X210685861Y-150608374D01*
X212614861Y-150568374D02*
X210685861Y-150568374D01*
X212631861Y-150528374D02*
X210685861Y-150528374D01*
X212647861Y-150488374D02*
X210685861Y-150488374D01*
X212662861Y-150448374D02*
X210685861Y-150448374D01*
X212677861Y-150408374D02*
X210685861Y-150408374D01*
X212692861Y-150368374D02*
X210685861Y-150368374D01*
X212705861Y-150328374D02*
X210685861Y-150328374D01*
X212718861Y-150288374D02*
X210685861Y-150288374D01*
X212731861Y-150248374D02*
X210685861Y-150248374D01*
X212743861Y-150208374D02*
X210685861Y-150208374D01*
X212754861Y-150168374D02*
X210685861Y-150168374D01*
X212765861Y-150128374D02*
X210685861Y-150128374D01*
X212776861Y-150088374D02*
X210685861Y-150088374D01*
X212785861Y-150048374D02*
X210685861Y-150048374D01*
X212795861Y-150008374D02*
X210685861Y-150008374D01*
X212804861Y-149968374D02*
X210685861Y-149968374D01*
X212812861Y-149928374D02*
X210685861Y-149928374D01*
X212819861Y-149888374D02*
X210685861Y-149888374D01*
X212827861Y-149848374D02*
X210685861Y-149848374D01*
X212833861Y-149808374D02*
X210685861Y-149808374D01*
X212840861Y-149768374D02*
X210685861Y-149768374D01*
X212845861Y-149728374D02*
X210685861Y-149728374D01*
X212850861Y-149688374D02*
X210685861Y-149688374D01*
X212855861Y-149648374D02*
X210685861Y-149648374D01*
X212859861Y-149608374D02*
X210685861Y-149608374D01*
X212863861Y-149568374D02*
X210685861Y-149568374D01*
X212866861Y-149528374D02*
X210685861Y-149528374D01*
X212869861Y-149488374D02*
X206421861Y-149488374D01*
X212871861Y-149448374D02*
X206419861Y-149448374D01*
X212873861Y-149408374D02*
X206417861Y-149408374D01*
X212874861Y-149368374D02*
X206416861Y-149368374D01*
X212875861Y-149288374D02*
X206415861Y-149288374D01*
X212875861Y-149328374D02*
X206415861Y-149328374D01*
X212915861Y-149288374D02*
G75*
G02*
X206375861Y-149288374I-3270000J0D01*
G01*
X206375861Y-149288374D02*
G75*
G02*
X212915861Y-149288374I3270000J0D01*
G01*
%TO.C,R65*%
X378275861Y-127958374D02*
X378275861Y-134498374D01*
X378275861Y-134498374D02*
X378605861Y-134498374D01*
X378605861Y-127958374D02*
X378275861Y-127958374D01*
X380685861Y-127958374D02*
X381015861Y-127958374D01*
X381015861Y-127958374D02*
X381015861Y-134498374D01*
X381015861Y-134498374D02*
X380685861Y-134498374D01*
%TO.C,C10*%
X182525861Y-164168374D02*
X187765861Y-164168374D01*
X182525861Y-164505374D02*
X182525861Y-164168374D01*
X182525861Y-166908374D02*
X182525861Y-166571374D01*
X187765861Y-164168374D02*
X187765861Y-164505374D01*
X187765861Y-166571374D02*
X187765861Y-166908374D01*
X187765861Y-166908374D02*
X182525861Y-166908374D01*
%TO.C,U6*%
X117075861Y-159198374D02*
X117075861Y-160848374D01*
X117075861Y-162848374D02*
X117075861Y-164498374D01*
X117075861Y-164498374D02*
X137515861Y-164498374D01*
X137515861Y-159198374D02*
X117075861Y-159198374D01*
X137515861Y-164498374D02*
X137515861Y-159198374D01*
X117075861Y-160848374D02*
G75*
G02*
X117075861Y-162848374I0J-1000000D01*
G01*
%TO.C,J14*%
X195065861Y-179658374D02*
X220685861Y-179658374D01*
X195065861Y-182308374D02*
X195065861Y-179658374D01*
X195065861Y-184958374D02*
X195065861Y-183578374D01*
X196445861Y-184958374D02*
X195065861Y-184958374D01*
X197715861Y-182308374D02*
X195065861Y-182308374D01*
X197715861Y-184958374D02*
X197715861Y-182308374D01*
X197715861Y-184958374D02*
X220685861Y-184958374D01*
X220685861Y-184958374D02*
X220685861Y-179658374D01*
%TD*%
M02*
