%TF.GenerationSoftware,KiCad,Pcbnew,10.0.1*%
%TF.CreationDate,2026-09-22T21:07:33+02:00*%
%TF.ProjectId,kosmo-16-channel-sequencer-main-board,6b6f736d-6f2d-4313-962d-6368616e6e65,rev?*%
%TF.SameCoordinates,Original*%
%TF.FileFunction,Copper,L2,Bot*%
%TF.FilePolarity,Positive*%
%FSLAX46Y46*%
G04 Gerber Fmt 4.6, Leading zero omitted, Abs format (unit mm)*
G04 Created by KiCad (PCBNEW 10.0.1) date 2026-09-22 21:07:33*
%MOMM*%
%LPD*%
G01*
G04 APERTURE LIST*
G04 Aperture macros list*
%AMRoundRect*
0 Rectangle with rounded corners*
0 $1 Rounding radius*
0 $2 $3 $4 $5 $6 $7 $8 $9 X,Y pos of 4 corners*
0 Add a 4 corners polygon primitive as box body*
4,1,4,$2,$3,$4,$5,$6,$7,$8,$9,$2,$3,0*
0 Add four circle primitives for the rounded corners*
1,1,$1+$1,$2,$3*
1,1,$1+$1,$4,$5*
1,1,$1+$1,$6,$7*
1,1,$1+$1,$8,$9*
0 Add four rect primitives between the rounded corners*
20,1,$1+$1,$2,$3,$4,$5,0*
20,1,$1+$1,$4,$5,$6,$7,0*
20,1,$1+$1,$6,$7,$8,$9,0*
20,1,$1+$1,$8,$9,$2,$3,0*%
G04 Aperture macros list end*
%TA.AperFunction,ComponentPad*%
%ADD10C,1.600000*%
%TD*%
%TA.AperFunction,ComponentPad*%
%ADD11RoundRect,0.250000X-0.550000X-0.550000X0.550000X-0.550000X0.550000X0.550000X-0.550000X0.550000X0*%
%TD*%
%TA.AperFunction,ComponentPad*%
%ADD12R,1.700000X1.700000*%
%TD*%
%TA.AperFunction,ComponentPad*%
%ADD13C,1.700000*%
%TD*%
%TA.AperFunction,ComponentPad*%
%ADD14RoundRect,0.250000X-0.550000X0.550000X-0.550000X-0.550000X0.550000X-0.550000X0.550000X0.550000X0*%
%TD*%
%TA.AperFunction,ComponentPad*%
%ADD15C,1.710000*%
%TD*%
%TA.AperFunction,ComponentPad*%
%ADD16RoundRect,0.250000X0.550000X-0.550000X0.550000X0.550000X-0.550000X0.550000X-0.550000X-0.550000X0*%
%TD*%
%TA.AperFunction,ComponentPad*%
%ADD17R,1.600000X1.600000*%
%TD*%
%TA.AperFunction,ComponentPad*%
%ADD18R,1.300000X1.300000*%
%TD*%
%TA.AperFunction,ComponentPad*%
%ADD19C,1.300000*%
%TD*%
%TA.AperFunction,ComponentPad*%
%ADD20RoundRect,0.250000X0.750000X-0.750000X0.750000X0.750000X-0.750000X0.750000X-0.750000X-0.750000X0*%
%TD*%
%TA.AperFunction,ComponentPad*%
%ADD21C,2.000000*%
%TD*%
%TA.AperFunction,ViaPad*%
%ADD22C,0.600000*%
%TD*%
%TA.AperFunction,Conductor*%
%ADD23C,0.200000*%
%TD*%
G04 APERTURE END LIST*
D10*
%TO.P,R21,1*%
%TO.N,GND*%
X304676111Y-319596111D03*
%TO.P,R21,2*%
%TO.N,Net-(U11-VO1)*%
X297056111Y-319596111D03*
%TD*%
D11*
%TO.P,U33,1*%
%TO.N,GND*%
X290936111Y-190056111D03*
D10*
%TO.P,U33,2*%
%TO.N,Net-(U2-10_CS_MQSR)*%
X290936111Y-192596111D03*
%TO.P,U33,3*%
%TO.N,/MAX_LOAD*%
X290936111Y-195136111D03*
%TO.P,U33,4*%
%TO.N,GND*%
X290936111Y-197676111D03*
%TO.P,U33,5*%
%TO.N,Net-(U2-11_MOSI_CTX1)*%
X290936111Y-200216111D03*
%TO.P,U33,6*%
%TO.N,/MAX_DIN*%
X290936111Y-202756111D03*
%TO.P,U33,7,GND_7*%
%TO.N,GND*%
X298556111Y-202756111D03*
%TO.P,U33,8*%
%TO.N,/MAX_LOAD_STEP_SETTINGS*%
X298556111Y-200216111D03*
%TO.P,U33,9*%
%TO.N,Net-(U2-9_OUT1C)*%
X298556111Y-197676111D03*
%TO.P,U33,10*%
%TO.N,GND*%
X298556111Y-195136111D03*
%TO.P,U33,11*%
%TO.N,/MAX_CLK*%
X298556111Y-192596111D03*
%TO.P,U33,12*%
%TO.N,Net-(U2-13_SCK_LED)*%
X298556111Y-190056111D03*
%TD*%
D12*
%TO.P,J10,1,Pin_1_1*%
%TO.N,GND*%
X244776111Y-330711481D03*
D13*
%TO.P,J10,2,Pin_2_2*%
%TO.N,/+5V*%
X244776111Y-328171481D03*
%TO.P,J10,3,Pin_3_3*%
%TO.N,GND*%
X247316111Y-330711481D03*
%TO.P,J10,4,Pin_4_4*%
%TO.N,/+5V*%
X247316111Y-328171481D03*
%TO.P,J10,5,Pin_5_5*%
%TO.N,Net-(J10-Pin_5)*%
X249856111Y-330711481D03*
%TO.P,J10,6,Pin_6_6*%
%TO.N,unconnected-(J10-Pin_6-Pad6)*%
X249856111Y-328171481D03*
%TO.P,J10,7,Pin_7_7*%
%TO.N,/MAX_CLK*%
X252396111Y-330711481D03*
%TO.P,J10,8,Pin_8_8*%
%TO.N,/MAX_LOAD*%
X252396111Y-328171481D03*
%TO.P,J10,9,Pin_9_9*%
%TO.N,GND*%
X254936111Y-330711481D03*
%TO.P,J10,10,Pin_10_10*%
%TO.N,/+5V*%
X254936111Y-328171481D03*
%TO.P,J10,11,Pin_11_11*%
%TO.N,GND*%
X257476111Y-330711481D03*
%TO.P,J10,12,Pin_12_12*%
%TO.N,/+3V3*%
X257476111Y-328171481D03*
%TO.P,J10,13,Pin_13_13*%
%TO.N,Net-(J10-Pin_13)*%
X260016111Y-330711481D03*
%TO.P,J10,14,Pin_14_14*%
%TO.N,Net-(J10-Pin_14)*%
X260016111Y-328171481D03*
%TO.P,J10,15,Pin_15_15*%
%TO.N,/165_CLK*%
X262556111Y-330711481D03*
%TO.P,J10,16,Pin_16_16*%
%TO.N,/165_SH{slash}LD*%
X262556111Y-328171481D03*
%TO.P,J10,17,Pin_17_17*%
%TO.N,GND*%
X265096111Y-330711481D03*
%TO.P,J10,18,Pin_18_18*%
%TO.N,/+5V*%
X265096111Y-328171481D03*
%TO.P,J10,19,Pin_19_19*%
%TO.N,GND*%
X267636111Y-330711481D03*
%TO.P,J10,20,Pin_20_20*%
%TO.N,/+5V*%
X267636111Y-328171481D03*
%TD*%
D10*
%TO.P,R23,1*%
%TO.N,/+5V*%
X310056111Y-332976111D03*
%TO.P,R23,2*%
%TO.N,Net-(J17-Pin_3)*%
X310056111Y-340596111D03*
%TD*%
D12*
%TO.P,J4,1,Pin_1_1*%
%TO.N,GND*%
X244776111Y-152920012D03*
D13*
%TO.P,J4,2,Pin_2_2*%
%TO.N,/+5V*%
X244776111Y-150380012D03*
%TO.P,J4,3,Pin_3_3*%
%TO.N,GND*%
X247316111Y-152920012D03*
%TO.P,J4,4,Pin_4_4*%
%TO.N,/+5V*%
X247316111Y-150380012D03*
%TO.P,J4,5,Pin_5_5*%
%TO.N,Net-(J3-Pin_6)*%
X249856111Y-152920012D03*
%TO.P,J4,6,Pin_6_6*%
%TO.N,Net-(J4-Pin_6)*%
X249856111Y-150380012D03*
%TO.P,J4,7,Pin_7_7*%
%TO.N,/MAX_CLK*%
X252396111Y-152920012D03*
%TO.P,J4,8,Pin_8_8*%
%TO.N,/MAX_LOAD*%
X252396111Y-150380012D03*
%TO.P,J4,9,Pin_9_9*%
%TO.N,GND*%
X254936111Y-152920012D03*
%TO.P,J4,10,Pin_10_10*%
%TO.N,/+5V*%
X254936111Y-150380012D03*
%TO.P,J4,11,Pin_11_11*%
%TO.N,GND*%
X257476111Y-152920012D03*
%TO.P,J4,12,Pin_12_12*%
%TO.N,/+3V3*%
X257476111Y-150380012D03*
%TO.P,J4,13,Pin_13_13*%
%TO.N,Net-(J4-Pin_13)*%
X260016111Y-152920012D03*
%TO.P,J4,14,Pin_14_14*%
%TO.N,Net-(J3-Pin_13)*%
X260016111Y-150380012D03*
%TO.P,J4,15,Pin_15_15*%
%TO.N,/165_CLK*%
X262556111Y-152920012D03*
%TO.P,J4,16,Pin_16_16*%
%TO.N,/165_SH{slash}LD*%
X262556111Y-150380012D03*
%TO.P,J4,17,Pin_17_17*%
%TO.N,GND*%
X265096111Y-152920012D03*
%TO.P,J4,18,Pin_18_18*%
%TO.N,/+5V*%
X265096111Y-150380012D03*
%TO.P,J4,19,Pin_19_19*%
%TO.N,GND*%
X267636111Y-152920012D03*
%TO.P,J4,20,Pin_20_20*%
%TO.N,/+5V*%
X267636111Y-150380012D03*
%TD*%
D12*
%TO.P,J18,1,Pin_1_1*%
%TO.N,GND*%
X310056111Y-307596111D03*
D13*
%TO.P,J18,2,Pin_2_2*%
%TO.N,Net-(D18-K)*%
X307516111Y-307596111D03*
%TD*%
D12*
%TO.P,J9,1,Pin_1_1*%
%TO.N,GND*%
X244776111Y-301096111D03*
D13*
%TO.P,J9,2,Pin_2_2*%
%TO.N,/+5V*%
X244776111Y-298556111D03*
%TO.P,J9,3,Pin_3_3*%
%TO.N,GND*%
X247316111Y-301096111D03*
%TO.P,J9,4,Pin_4_4*%
%TO.N,/+5V*%
X247316111Y-298556111D03*
%TO.P,J9,5,Pin_5_5*%
%TO.N,Net-(J8-Pin_6)*%
X249856111Y-301096111D03*
%TO.P,J9,6,Pin_6_6*%
%TO.N,Net-(J10-Pin_5)*%
X249856111Y-298556111D03*
%TO.P,J9,7,Pin_7_7*%
%TO.N,/MAX_CLK*%
X252396111Y-301096111D03*
%TO.P,J9,8,Pin_8_8*%
%TO.N,/MAX_LOAD*%
X252396111Y-298556111D03*
%TO.P,J9,9,Pin_9_9*%
%TO.N,GND*%
X254936111Y-301096111D03*
%TO.P,J9,10,Pin_10_10*%
%TO.N,/+5V*%
X254936111Y-298556111D03*
%TO.P,J9,11,Pin_11_11*%
%TO.N,GND*%
X257476111Y-301096111D03*
%TO.P,J9,12,Pin_12_12*%
%TO.N,/+3V3*%
X257476111Y-298556111D03*
%TO.P,J9,13,Pin_13_13*%
%TO.N,Net-(J10-Pin_14)*%
X260016111Y-301096111D03*
%TO.P,J9,14,Pin_14_14*%
%TO.N,Net-(J8-Pin_13)*%
X260016111Y-298556111D03*
%TO.P,J9,15,Pin_15_15*%
%TO.N,/165_CLK*%
X262556111Y-301096111D03*
%TO.P,J9,16,Pin_16_16*%
%TO.N,/165_SH{slash}LD*%
X262556111Y-298556111D03*
%TO.P,J9,17,Pin_17_17*%
%TO.N,GND*%
X265096111Y-301096111D03*
%TO.P,J9,18,Pin_18_18*%
%TO.N,/+5V*%
X265096111Y-298556111D03*
%TO.P,J9,19,Pin_19_19*%
%TO.N,GND*%
X267636111Y-301096111D03*
%TO.P,J9,20,Pin_20_20*%
%TO.N,/+5V*%
X267636111Y-298556111D03*
%TD*%
D12*
%TO.P,J19,1,Pin_1_1*%
%TO.N,GND*%
X310056111Y-262596111D03*
D13*
%TO.P,J19,2,Pin_2_2*%
%TO.N,/RESET*%
X307516111Y-262596111D03*
%TD*%
D14*
%TO.P,C24,1*%
%TO.N,/+5V*%
X312556111Y-95413732D03*
D10*
%TO.P,C24,2*%
%TO.N,GND*%
X312556111Y-97913732D03*
%TD*%
%TO.P,R19,1*%
%TO.N,Net-(D17-K)*%
X276556111Y-333096111D03*
%TO.P,R19,2*%
%TO.N,Net-(J13-Pin_1)*%
X276556111Y-340716111D03*
%TD*%
D12*
%TO.P,J6,1,Pin_1_1*%
%TO.N,GND*%
X244776111Y-212190452D03*
D13*
%TO.P,J6,2,Pin_2_2*%
%TO.N,/+5V*%
X244776111Y-209650452D03*
%TO.P,J6,3,Pin_3_3*%
%TO.N,GND*%
X247316111Y-212190452D03*
%TO.P,J6,4,Pin_4_4*%
%TO.N,/+5V*%
X247316111Y-209650452D03*
%TO.P,J6,5,Pin_5_5*%
%TO.N,Net-(J5-Pin_6)*%
X249856111Y-212190452D03*
%TO.P,J6,6,Pin_6_6*%
%TO.N,Net-(J6-Pin_6)*%
X249856111Y-209650452D03*
%TO.P,J6,7,Pin_7_7*%
%TO.N,/MAX_CLK*%
X252396111Y-212190452D03*
%TO.P,J6,8,Pin_8_8*%
%TO.N,/MAX_LOAD*%
X252396111Y-209650452D03*
%TO.P,J6,9,Pin_9_9*%
%TO.N,GND*%
X254936111Y-212190452D03*
%TO.P,J6,10,Pin_10_10*%
%TO.N,/+5V*%
X254936111Y-209650452D03*
%TO.P,J6,11,Pin_11_11*%
%TO.N,GND*%
X257476111Y-212190452D03*
%TO.P,J6,12,Pin_12_12*%
%TO.N,/+3V3*%
X257476111Y-209650452D03*
%TO.P,J6,13,Pin_13_13*%
%TO.N,Net-(J6-Pin_13)*%
X260016111Y-212190452D03*
%TO.P,J6,14,Pin_14_14*%
%TO.N,Net-(J5-Pin_13)*%
X260016111Y-209650452D03*
%TO.P,J6,15,Pin_15_15*%
%TO.N,/165_CLK*%
X262556111Y-212190452D03*
%TO.P,J6,16,Pin_16_16*%
%TO.N,/165_SH{slash}LD*%
X262556111Y-209650452D03*
%TO.P,J6,17,Pin_17_17*%
%TO.N,GND*%
X265096111Y-212190452D03*
%TO.P,J6,18,Pin_18_18*%
%TO.N,/+5V*%
X265096111Y-209650452D03*
%TO.P,J6,19,Pin_19_19*%
%TO.N,GND*%
X267636111Y-212190452D03*
%TO.P,J6,20,Pin_20_20*%
%TO.N,/+5V*%
X267636111Y-209650452D03*
%TD*%
D12*
%TO.P,J21,1,Pin_1_1*%
%TO.N,GND*%
X310056111Y-281596111D03*
D13*
%TO.P,J21,2,Pin_2_2*%
%TO.N,Net-(D20-A)*%
X307516111Y-281596111D03*
%TD*%
D12*
%TO.P,J1,1,Pin_1_1*%
%TO.N,GND*%
X244776111Y-64351794D03*
D13*
%TO.P,J1,2,Pin_2_2*%
%TO.N,/+5V*%
X244776111Y-61811794D03*
%TO.P,J1,3,Pin_3_3*%
%TO.N,GND*%
X247316111Y-64351794D03*
%TO.P,J1,4,Pin_4_4*%
%TO.N,/+5V*%
X247316111Y-61811794D03*
%TO.P,J1,5,Pin_5_5*%
%TO.N,/MAX_DIN*%
X249856111Y-64351794D03*
%TO.P,J1,6,Pin_6_6*%
%TO.N,Net-(J1-Pin_6)*%
X249856111Y-61811794D03*
%TO.P,J1,7,Pin_7_7*%
%TO.N,/MAX_CLK*%
X252396111Y-64351794D03*
%TO.P,J1,8,Pin_8_8*%
%TO.N,/MAX_LOAD*%
X252396111Y-61811794D03*
%TO.P,J1,9,Pin_9_9*%
%TO.N,GND*%
X254936111Y-64351794D03*
%TO.P,J1,10,Pin_10_10*%
%TO.N,/+5V*%
X254936111Y-61811794D03*
%TO.P,J1,11,Pin_11_11*%
%TO.N,GND*%
X257476111Y-64351794D03*
%TO.P,J1,12,Pin_12_12*%
%TO.N,/+3V3*%
X257476111Y-61811794D03*
%TO.P,J1,13,Pin_13_13*%
%TO.N,Net-(J1-Pin_13)*%
X260016111Y-64351794D03*
%TO.P,J1,14,Pin_14_14*%
%TO.N,/165_QH*%
X260016111Y-61811794D03*
%TO.P,J1,15,Pin_15_15*%
%TO.N,/165_CLK*%
X262556111Y-64351794D03*
%TO.P,J1,16,Pin_16_16*%
%TO.N,/165_SH{slash}LD*%
X262556111Y-61811794D03*
%TO.P,J1,17,Pin_17_17*%
%TO.N,GND*%
X265096111Y-64351794D03*
%TO.P,J1,18,Pin_18_18*%
%TO.N,/+5V*%
X265096111Y-61811794D03*
%TO.P,J1,19,Pin_19_19*%
%TO.N,GND*%
X267636111Y-64351794D03*
%TO.P,J1,20,Pin_20_20*%
%TO.N,/+5V*%
X267636111Y-61811794D03*
%TD*%
D10*
%TO.P,C26,1*%
%TO.N,/+5V*%
X306056111Y-95096111D03*
%TO.P,C26,2*%
%TO.N,GND*%
X306056111Y-100096111D03*
%TD*%
%TO.P,R24,1*%
%TO.N,/RESET*%
X299056111Y-266096111D03*
%TO.P,R24,2*%
%TO.N,/TEENSY_3V3*%
X299056111Y-258476111D03*
%TD*%
D15*
%TO.P,F1,1*%
%TO.N,/+5V*%
X314256111Y-106996111D03*
%TO.P,F1,2*%
%TO.N,Net-(J20-Pin_1)*%
X313056111Y-112096111D03*
%TD*%
D12*
%TO.P,J5,1,Pin_1_1*%
%TO.N,GND*%
X244776111Y-182654479D03*
D13*
%TO.P,J5,2,Pin_2_2*%
%TO.N,/+5V*%
X244776111Y-180114479D03*
%TO.P,J5,3,Pin_3_3*%
%TO.N,GND*%
X247316111Y-182654479D03*
%TO.P,J5,4,Pin_4_4*%
%TO.N,/+5V*%
X247316111Y-180114479D03*
%TO.P,J5,5,Pin_5_5*%
%TO.N,Net-(J4-Pin_6)*%
X249856111Y-182654479D03*
%TO.P,J5,6,Pin_6_6*%
%TO.N,Net-(J5-Pin_6)*%
X249856111Y-180114479D03*
%TO.P,J5,7,Pin_7_7*%
%TO.N,/MAX_CLK*%
X252396111Y-182654479D03*
%TO.P,J5,8,Pin_8_8*%
%TO.N,/MAX_LOAD*%
X252396111Y-180114479D03*
%TO.P,J5,9,Pin_9_9*%
%TO.N,GND*%
X254936111Y-182654479D03*
%TO.P,J5,10,Pin_10_10*%
%TO.N,/+5V*%
X254936111Y-180114479D03*
%TO.P,J5,11,Pin_11_11*%
%TO.N,GND*%
X257476111Y-182654479D03*
%TO.P,J5,12,Pin_12_12*%
%TO.N,/+3V3*%
X257476111Y-180114479D03*
%TO.P,J5,13,Pin_13_13*%
%TO.N,Net-(J5-Pin_13)*%
X260016111Y-182654479D03*
%TO.P,J5,14,Pin_14_14*%
%TO.N,Net-(J4-Pin_13)*%
X260016111Y-180114479D03*
%TO.P,J5,15,Pin_15_15*%
%TO.N,/165_CLK*%
X262556111Y-182654479D03*
%TO.P,J5,16,Pin_16_16*%
%TO.N,/165_SH{slash}LD*%
X262556111Y-180114479D03*
%TO.P,J5,17,Pin_17_17*%
%TO.N,GND*%
X265096111Y-182654479D03*
%TO.P,J5,18,Pin_18_18*%
%TO.N,/+5V*%
X265096111Y-180114479D03*
%TO.P,J5,19,Pin_19_19*%
%TO.N,GND*%
X267636111Y-182654479D03*
%TO.P,J5,20,Pin_20_20*%
%TO.N,/+5V*%
X267636111Y-180114479D03*
%TD*%
D14*
%TO.P,D20,1,K_1*%
%TO.N,Net-(D20-K)*%
X299056111Y-277976111D03*
D10*
%TO.P,D20,2,A_2*%
%TO.N,Net-(D20-A)*%
X299056111Y-285596111D03*
%TD*%
D12*
%TO.P,J2,1,Pin_1_1*%
%TO.N,GND*%
X244776111Y-93828218D03*
D13*
%TO.P,J2,2,Pin_2_2*%
%TO.N,/+5V*%
X244776111Y-91288218D03*
%TO.P,J2,3,Pin_3_3*%
%TO.N,GND*%
X247316111Y-93828218D03*
%TO.P,J2,4,Pin_4_4*%
%TO.N,/+5V*%
X247316111Y-91288218D03*
%TO.P,J2,5,Pin_5_5*%
%TO.N,Net-(J1-Pin_6)*%
X249856111Y-93828218D03*
%TO.P,J2,6,Pin_6_6*%
%TO.N,Net-(J2-Pin_6)*%
X249856111Y-91288218D03*
%TO.P,J2,7,Pin_7_7*%
%TO.N,/MAX_CLK*%
X252396111Y-93828218D03*
%TO.P,J2,8,Pin_8_8*%
%TO.N,/MAX_LOAD*%
X252396111Y-91288218D03*
%TO.P,J2,9,Pin_9_9*%
%TO.N,GND*%
X254936111Y-93828218D03*
%TO.P,J2,10,Pin_10_10*%
%TO.N,/+5V*%
X254936111Y-91288218D03*
%TO.P,J2,11,Pin_11_11*%
%TO.N,GND*%
X257476111Y-93828218D03*
%TO.P,J2,12,Pin_12_12*%
%TO.N,/+3V3*%
X257476111Y-91288218D03*
%TO.P,J2,13,Pin_13_13*%
%TO.N,Net-(J2-Pin_13)*%
X260016111Y-93828218D03*
%TO.P,J2,14,Pin_14_14*%
%TO.N,Net-(J1-Pin_13)*%
X260016111Y-91288218D03*
%TO.P,J2,15,Pin_15_15*%
%TO.N,/165_CLK*%
X262556111Y-93828218D03*
%TO.P,J2,16,Pin_16_16*%
%TO.N,/165_SH{slash}LD*%
X262556111Y-91288218D03*
%TO.P,J2,17,Pin_17_17*%
%TO.N,GND*%
X265096111Y-93828218D03*
%TO.P,J2,18,Pin_18_18*%
%TO.N,/+5V*%
X265096111Y-91288218D03*
%TO.P,J2,19,Pin_19_19*%
%TO.N,GND*%
X267636111Y-93828218D03*
%TO.P,J2,20,Pin_20_20*%
%TO.N,/+5V*%
X267636111Y-91288218D03*
%TD*%
D10*
%TO.P,R68,1*%
%TO.N,Net-(D20-K)*%
X293556111Y-277976111D03*
%TO.P,R68,2*%
%TO.N,Net-(R68-Pad2)*%
X293556111Y-285596111D03*
%TD*%
%TO.P,R71,1*%
%TO.N,GND*%
X283556111Y-285596111D03*
%TO.P,R71,2*%
%TO.N,/CLOCK_IN*%
X283556111Y-277976111D03*
%TD*%
%TO.P,R20,1*%
%TO.N,/TEENSY_3V3*%
X304676111Y-323096111D03*
%TO.P,R20,2*%
%TO.N,/MIDI_IN_POST_OPTO*%
X297056111Y-323096111D03*
%TD*%
D12*
%TO.P,J7,1,Pin_1_1*%
%TO.N,GND*%
X244776111Y-241845521D03*
D13*
%TO.P,J7,2,Pin_2_2*%
%TO.N,/+5V*%
X244776111Y-239305521D03*
%TO.P,J7,3,Pin_3_3*%
%TO.N,GND*%
X247316111Y-241845521D03*
%TO.P,J7,4,Pin_4_4*%
%TO.N,/+5V*%
X247316111Y-239305521D03*
%TO.P,J7,5,Pin_5_5*%
%TO.N,Net-(J6-Pin_6)*%
X249856111Y-241845521D03*
%TO.P,J7,6,Pin_6_6*%
%TO.N,Net-(J7-Pin_6)*%
X249856111Y-239305521D03*
%TO.P,J7,7,Pin_7_7*%
%TO.N,/MAX_CLK*%
X252396111Y-241845521D03*
%TO.P,J7,8,Pin_8_8*%
%TO.N,/MAX_LOAD*%
X252396111Y-239305521D03*
%TO.P,J7,9,Pin_9_9*%
%TO.N,GND*%
X254936111Y-241845521D03*
%TO.P,J7,10,Pin_10_10*%
%TO.N,/+5V*%
X254936111Y-239305521D03*
%TO.P,J7,11,Pin_11_11*%
%TO.N,GND*%
X257476111Y-241845521D03*
%TO.P,J7,12,Pin_12_12*%
%TO.N,/+3V3*%
X257476111Y-239305521D03*
%TO.P,J7,13,Pin_13_13*%
%TO.N,Net-(J7-Pin_13)*%
X260016111Y-241845521D03*
%TO.P,J7,14,Pin_14_14*%
%TO.N,Net-(J6-Pin_13)*%
X260016111Y-239305521D03*
%TO.P,J7,15,Pin_15_15*%
%TO.N,/165_CLK*%
X262556111Y-241845521D03*
%TO.P,J7,16,Pin_16_16*%
%TO.N,/165_SH{slash}LD*%
X262556111Y-239305521D03*
%TO.P,J7,17,Pin_17_17*%
%TO.N,GND*%
X265096111Y-241845521D03*
%TO.P,J7,18,Pin_18_18*%
%TO.N,/+5V*%
X265096111Y-239305521D03*
%TO.P,J7,19,Pin_19_19*%
%TO.N,GND*%
X267636111Y-241845521D03*
%TO.P,J7,20,Pin_20_20*%
%TO.N,/+5V*%
X267636111Y-239305521D03*
%TD*%
D10*
%TO.P,R67,1*%
%TO.N,Net-(R67-Pad1)*%
X306556111Y-332976111D03*
%TO.P,R67,2*%
%TO.N,Net-(J17-Pin_2)*%
X306556111Y-340596111D03*
%TD*%
D11*
%TO.P,U11,1,NC_1*%
%TO.N,unconnected-(U11-NC-Pad1)*%
X281751111Y-318286111D03*
D10*
%TO.P,U11,2,C1_2*%
%TO.N,Net-(D17-K)*%
X281751111Y-320826111D03*
%TO.P,U11,3,C2_3*%
%TO.N,Net-(D17-A)*%
X281751111Y-323366111D03*
%TO.P,U11,4,NC_4*%
%TO.N,unconnected-(U11-NC-Pad4)*%
X281751111Y-325906111D03*
%TO.P,U11,5,GND_5*%
%TO.N,GND*%
X289371111Y-325906111D03*
%TO.P,U11,6,VO2_6*%
%TO.N,/MIDI_IN_POST_OPTO*%
X289371111Y-323366111D03*
%TO.P,U11,7,VO1_7*%
%TO.N,Net-(U11-VO1)*%
X289371111Y-320826111D03*
%TO.P,U11,8,VCC_8*%
%TO.N,/+5V*%
X289371111Y-318286111D03*
%TD*%
D16*
%TO.P,U12,1*%
%TO.N,/MIDI_OUT_PRE_BUF*%
X282016111Y-303596111D03*
D10*
%TO.P,U12,2*%
%TO.N,Net-(U12-Pad11)*%
X284556111Y-303596111D03*
%TO.P,U12,3*%
X287096111Y-303596111D03*
%TO.P,U12,4*%
%TO.N,Net-(R30-Pad1)*%
X289636111Y-303596111D03*
%TO.P,U12,5*%
%TO.N,Net-(R68-Pad2)*%
X292176111Y-303596111D03*
%TO.P,U12,6*%
%TO.N,Net-(U12-Pad6)*%
X294716111Y-303596111D03*
%TO.P,U12,7,GND_7*%
%TO.N,GND*%
X297256111Y-303596111D03*
%TO.P,U12,8*%
%TO.N,/CLOCK_IN_5V*%
X297256111Y-295976111D03*
%TO.P,U12,9*%
%TO.N,Net-(U12-Pad6)*%
X294716111Y-295976111D03*
%TO.P,U12,10*%
%TO.N,Net-(R67-Pad1)*%
X292176111Y-295976111D03*
%TO.P,U12,11*%
%TO.N,Net-(U12-Pad11)*%
X289636111Y-295976111D03*
%TO.P,U12,12*%
%TO.N,unconnected-(U12-Pad12)*%
X287096111Y-295976111D03*
%TO.P,U12,13*%
%TO.N,GND*%
X284556111Y-295976111D03*
%TO.P,U12,14,VCC_14*%
%TO.N,/+5V*%
X282016111Y-295976111D03*
%TD*%
D12*
%TO.P,J20,1,Pin_1_1*%
%TO.N,Net-(J20-Pin_1)*%
X313556111Y-119096111D03*
D13*
%TO.P,J20,2,Pin_2_2*%
%TO.N,Net-(J20-Pin_2)*%
X313556111Y-121636111D03*
%TO.P,J20,3,Pin_3_3*%
%TO.N,Net-(J20-Pin_3)*%
X313556111Y-124176111D03*
%TO.P,J20,4,Pin_4_4*%
%TO.N,GND*%
X313556111Y-126716111D03*
%TD*%
D10*
%TO.P,R69,1*%
%TO.N,GND*%
X289556111Y-285596111D03*
%TO.P,R69,2*%
%TO.N,Net-(D20-K)*%
X289556111Y-277976111D03*
%TD*%
D17*
%TO.P,U2,1,GND_1*%
%TO.N,GND*%
X287316111Y-101976111D03*
D10*
%TO.P,U2,2,0_RX1_CRX2_CS1_2*%
%TO.N,unconnected-(U2-0_RX1_CRX2_CS1-Pad2)*%
X287316111Y-104516111D03*
%TO.P,U2,3,1_TX1_CTX2_MISO1_3*%
%TO.N,/165_ENC_QH*%
X287316111Y-107056111D03*
%TO.P,U2,4,2_OUT2_4*%
%TO.N,/165_ENC_SH{slash}LD*%
X287316111Y-109596111D03*
%TO.P,U2,5,3_LRCLK2_5*%
%TO.N,/165_QH*%
X287316111Y-112136111D03*
%TO.P,U2,6,4_BCLK2_6*%
%TO.N,/165_CLK*%
X287316111Y-114676111D03*
%TO.P,U2,7,5_IN2_7*%
%TO.N,/165_SH{slash}LD*%
X287316111Y-117216111D03*
%TO.P,U2,8,6_OUT1D_8*%
%TO.N,unconnected-(U2-6_OUT1D-Pad8)*%
X287316111Y-119756111D03*
%TO.P,U2,9,7_RX2_OUT1A_9*%
%TO.N,/MIDI_IN_POST_OPTO*%
X287316111Y-122296111D03*
%TO.P,U2,10,8_TX2_IN1_10*%
%TO.N,/MIDI_OUT_PRE_BUF*%
X287316111Y-124836111D03*
%TO.P,U2,11,9_OUT1C_11*%
%TO.N,Net-(U2-9_OUT1C)*%
X287316111Y-127376111D03*
%TO.P,U2,12,10_CS_MQSR_12*%
%TO.N,Net-(U2-10_CS_MQSR)*%
X287316111Y-129916111D03*
%TO.P,U2,13,11_MOSI_CTX1_13*%
%TO.N,Net-(U2-11_MOSI_CTX1)*%
X287316111Y-132456111D03*
%TO.P,U2,14,12_MISO_MQSL_14*%
%TO.N,unconnected-(U2-12_MISO_MQSL-Pad14)*%
X287316111Y-134996111D03*
%TO.P,U2,15,3V3_15*%
%TO.N,unconnected-(U2-3V3-Pad15)*%
X287316111Y-137536111D03*
%TO.P,U2,16,24_A10_TX6_SCL2_16*%
%TO.N,unconnected-(U2-24_A10_TX6_SCL2-Pad16)*%
X287316111Y-140076111D03*
%TO.P,U2,17,25_A11_RX6_SDA2_17*%
%TO.N,unconnected-(U2-25_A11_RX6_SDA2-Pad17)*%
X287316111Y-142616111D03*
%TO.P,U2,18,26_A12_MOSI1_18*%
%TO.N,unconnected-(U2-26_A12_MOSI1-Pad18)*%
X287316111Y-145156111D03*
%TO.P,U2,19,27_A13_SCK1_19*%
%TO.N,/165_ENC_CLK*%
X287316111Y-147696111D03*
%TO.P,U2,20,28_RX7_20*%
%TO.N,unconnected-(U2-28_RX7-Pad20)*%
X287316111Y-150236111D03*
%TO.P,U2,21,29_TX7_21*%
%TO.N,unconnected-(U2-29_TX7-Pad21)*%
X287316111Y-152776111D03*
%TO.P,U2,22,30_CRX3_22*%
%TO.N,unconnected-(U2-30_CRX3-Pad22)*%
X287316111Y-155316111D03*
%TO.P,U2,23,31_CTX3_23*%
%TO.N,unconnected-(U2-31_CTX3-Pad23)*%
X287316111Y-157856111D03*
%TO.P,U2,24,32_OUT1B_24*%
%TO.N,unconnected-(U2-32_OUT1B-Pad24)*%
X287316111Y-160396111D03*
%TO.P,U2,25,33_MCLK2_25*%
%TO.N,unconnected-(U2-33_MCLK2-Pad25)*%
X302556111Y-160396111D03*
%TO.P,U2,26,34_RX8_26*%
%TO.N,unconnected-(U2-34_RX8-Pad26)*%
X302556111Y-157856111D03*
%TO.P,U2,27,35_TX8_27*%
%TO.N,unconnected-(U2-35_TX8-Pad27)*%
X302556111Y-155316111D03*
%TO.P,U2,28,36_CS_28*%
%TO.N,unconnected-(U2-36_CS-Pad28)*%
X302556111Y-152776111D03*
%TO.P,U2,29,37_CS_29*%
%TO.N,unconnected-(U2-37_CS-Pad29)*%
X302556111Y-150236111D03*
%TO.P,U2,30,38_CS1_IN1_30*%
%TO.N,unconnected-(U2-38_CS1_IN1-Pad30)*%
X302556111Y-147696111D03*
%TO.P,U2,31,39_MISO1_OUT1A_31*%
%TO.N,unconnected-(U2-39_MISO1_OUT1A-Pad31)*%
X302556111Y-145156111D03*
%TO.P,U2,32,40_A16_32*%
%TO.N,unconnected-(U2-40_A16-Pad32)*%
X302556111Y-142616111D03*
%TO.P,U2,33,41_A17_33*%
%TO.N,unconnected-(U2-41_A17-Pad33)*%
X302556111Y-140076111D03*
%TO.P,U2,34,GND_34*%
%TO.N,GND*%
X302556111Y-137536111D03*
%TO.P,U2,35,13_SCK_LED_35*%
%TO.N,Net-(U2-13_SCK_LED)*%
X302556111Y-134996111D03*
%TO.P,U2,36,14_A0_TX3_SPDIF_OUT_36*%
%TO.N,/RESET*%
X302556111Y-132456111D03*
%TO.P,U2,37,15_A1_RX3_SPDIF_IN_37*%
%TO.N,/CLOCK_IN*%
X302556111Y-129916111D03*
%TO.P,U2,38,16_A2_RX4_SCL1_38*%
%TO.N,/I2C_CLK{slash}RX*%
X302556111Y-127376111D03*
%TO.P,U2,39,17_A3_TX4_SDA1_39*%
%TO.N,/I2C_DATA{slash}TX*%
X302556111Y-124836111D03*
%TO.P,U2,40,18_A4_SDA_40*%
%TO.N,unconnected-(U2-18_A4_SDA-Pad40)*%
X302556111Y-122296111D03*
%TO.P,U2,41,19_A5_SCL_41*%
%TO.N,unconnected-(U2-19_A5_SCL-Pad41)*%
X302556111Y-119756111D03*
%TO.P,U2,42,20_A6_TX5_LRCLK1_42*%
%TO.N,unconnected-(U2-20_A6_TX5_LRCLK1-Pad42)*%
X302556111Y-117216111D03*
%TO.P,U2,43,21_A7_RX5_BCLK1_43*%
%TO.N,unconnected-(U2-21_A7_RX5_BCLK1-Pad43)*%
X302556111Y-114676111D03*
%TO.P,U2,44,22_A8_CTX1_44*%
%TO.N,unconnected-(U2-22_A8_CTX1-Pad44)*%
X302556111Y-112136111D03*
%TO.P,U2,45,23_A9_CRX1_MCLK1_45*%
%TO.N,unconnected-(U2-23_A9_CRX1_MCLK1-Pad45)*%
X302556111Y-109596111D03*
%TO.P,U2,46,3V3_46*%
%TO.N,/TEENSY_3V3*%
X302556111Y-107056111D03*
%TO.P,U2,47,GND_47*%
%TO.N,GND*%
X302556111Y-104516111D03*
%TO.P,U2,48,VIN_48*%
%TO.N,/+5V*%
X302556111Y-101976111D03*
%TO.P,U2,49,VUSB_49*%
%TO.N,unconnected-(U2-VUSB-Pad49)*%
X300016111Y-104516111D03*
%TO.P,U2,50,VBAT_50*%
%TO.N,unconnected-(U2-VBAT-Pad50)*%
X289856111Y-147696111D03*
%TO.P,U2,51,3V3_51*%
%TO.N,unconnected-(U2-3V3-Pad51)*%
X292396111Y-147696111D03*
%TO.P,U2,52,GND_52*%
%TO.N,GND*%
X294936111Y-147696111D03*
%TO.P,U2,53,PROGRAM_53*%
%TO.N,unconnected-(U2-PROGRAM-Pad53)*%
X297476111Y-147696111D03*
%TO.P,U2,54,ON_OFF_54*%
%TO.N,unconnected-(U2-ON_OFF-Pad54)*%
X300016111Y-147696111D03*
D17*
%TO.P,U2,55,5V_55*%
%TO.N,unconnected-(U2-5V-Pad55)*%
X290366911Y-108275311D03*
D10*
%TO.P,U2,56,D-_56*%
%TO.N,Net-(J20-Pin_2)*%
X290366911Y-110815311D03*
%TO.P,U2,57,D+_57*%
%TO.N,Net-(J20-Pin_3)*%
X290366911Y-113355311D03*
%TO.P,U2,58,GND_58*%
%TO.N,GND*%
X290366911Y-115895311D03*
%TO.P,U2,59,GND_59*%
X290366911Y-118435311D03*
D18*
%TO.P,U2,60,R+_60*%
%TO.N,unconnected-(U2-R+-Pad60)*%
X300117711Y-114946111D03*
D19*
%TO.P,U2,61,LED_61*%
%TO.N,unconnected-(U2-LED-Pad61)*%
X298117711Y-114946111D03*
%TO.P,U2,62,T-_62*%
%TO.N,unconnected-(U2-T--Pad62)*%
X296117711Y-114946111D03*
%TO.P,U2,63,T+_63*%
%TO.N,unconnected-(U2-T+-Pad63)*%
X296117711Y-116946111D03*
%TO.P,U2,64,GND_64*%
%TO.N,GND*%
X298117711Y-116946111D03*
%TO.P,U2,65,R-_65*%
%TO.N,unconnected-(U2-R--Pad65)*%
X300117711Y-116946111D03*
%TO.P,U2,66,D-_66*%
%TO.N,unconnected-(U2-D--Pad66)*%
X296206111Y-102706111D03*
%TO.P,U2,67,D+_67*%
%TO.N,unconnected-(U2-D+-Pad67)*%
X293666111Y-102706111D03*
%TD*%
D12*
%TO.P,J17,1,Pin_1_1*%
%TO.N,GND*%
X305516111Y-347096111D03*
D13*
%TO.P,J17,2,Pin_2_2*%
%TO.N,Net-(J17-Pin_2)*%
X308056111Y-347096111D03*
%TO.P,J17,3,Pin_3_3*%
%TO.N,Net-(J17-Pin_3)*%
X310596111Y-347096111D03*
%TD*%
D10*
%TO.P,R70,1*%
%TO.N,/CLOCK_IN*%
X279056111Y-277976111D03*
%TO.P,R70,2*%
%TO.N,/CLOCK_IN_5V*%
X279056111Y-285596111D03*
%TD*%
D12*
%TO.P,J3,1,Pin_1_1*%
%TO.N,GND*%
X244776111Y-123403889D03*
D13*
%TO.P,J3,2,Pin_2_2*%
%TO.N,/+5V*%
X244776111Y-120863889D03*
%TO.P,J3,3,Pin_3_3*%
%TO.N,GND*%
X247316111Y-123403889D03*
%TO.P,J3,4,Pin_4_4*%
%TO.N,/+5V*%
X247316111Y-120863889D03*
%TO.P,J3,5,Pin_5_5*%
%TO.N,Net-(J2-Pin_6)*%
X249856111Y-123403889D03*
%TO.P,J3,6,Pin_6_6*%
%TO.N,Net-(J3-Pin_6)*%
X249856111Y-120863889D03*
%TO.P,J3,7,Pin_7_7*%
%TO.N,/MAX_CLK*%
X252396111Y-123403889D03*
%TO.P,J3,8,Pin_8_8*%
%TO.N,/MAX_LOAD*%
X252396111Y-120863889D03*
%TO.P,J3,9,Pin_9_9*%
%TO.N,GND*%
X254936111Y-123403889D03*
%TO.P,J3,10,Pin_10_10*%
%TO.N,/+5V*%
X254936111Y-120863889D03*
%TO.P,J3,11,Pin_11_11*%
%TO.N,GND*%
X257476111Y-123403889D03*
%TO.P,J3,12,Pin_12_12*%
%TO.N,/+3V3*%
X257476111Y-120863889D03*
%TO.P,J3,13,Pin_13_13*%
%TO.N,Net-(J3-Pin_13)*%
X260016111Y-123403889D03*
%TO.P,J3,14,Pin_14_14*%
%TO.N,Net-(J2-Pin_13)*%
X260016111Y-120863889D03*
%TO.P,J3,15,Pin_15_15*%
%TO.N,/165_CLK*%
X262556111Y-123403889D03*
%TO.P,J3,16,Pin_16_16*%
%TO.N,/165_SH{slash}LD*%
X262556111Y-120863889D03*
%TO.P,J3,17,Pin_17_17*%
%TO.N,GND*%
X265096111Y-123403889D03*
%TO.P,J3,18,Pin_18_18*%
%TO.N,/+5V*%
X265096111Y-120863889D03*
%TO.P,J3,19,Pin_19_19*%
%TO.N,GND*%
X267636111Y-123403889D03*
%TO.P,J3,20,Pin_20_20*%
%TO.N,/+5V*%
X267636111Y-120863889D03*
%TD*%
D10*
%TO.P,R22,1*%
%TO.N,/+5V*%
X294556111Y-332976111D03*
%TO.P,R22,2*%
%TO.N,Net-(J31-Pin_3)*%
X294556111Y-340596111D03*
%TD*%
D20*
%TO.P,J11,1,Pin_1_1*%
%TO.N,/+5V*%
X312556111Y-90096111D03*
D21*
%TO.P,J11,2,Pin_2_2*%
%TO.N,GND*%
X312556111Y-87556111D03*
%TD*%
D12*
%TO.P,J30,1,Pin_1_1*%
%TO.N,GND*%
X309071721Y-65680039D03*
D13*
%TO.P,J30,2,Pin_2_2*%
%TO.N,/+3V3*%
X309071721Y-68220039D03*
%TO.P,J30,3,Pin_3_3*%
%TO.N,/I2C_CLK{slash}RX*%
X309071721Y-70760039D03*
%TO.P,J30,4,Pin_4_4*%
%TO.N,/I2C_DATA{slash}TX*%
X309071721Y-73300039D03*
%TO.P,J30,5,Pin_5_5*%
%TO.N,GND*%
X309071721Y-75840039D03*
%TD*%
D16*
%TO.P,D18,1,K_1*%
%TO.N,Net-(D18-K)*%
X307556111Y-303096111D03*
D10*
%TO.P,D18,2,A_2*%
%TO.N,/CLOCK_IN_5V*%
X307556111Y-295476111D03*
%TD*%
D12*
%TO.P,J13,1,Pin_1_1*%
%TO.N,Net-(J13-Pin_1)*%
X277281111Y-347096111D03*
D13*
%TO.P,J13,2,Pin_2_2*%
%TO.N,Net-(D17-A)*%
X279821111Y-347096111D03*
%TD*%
D14*
%TO.P,D17,1,K_1*%
%TO.N,Net-(D17-K)*%
X280056111Y-333096111D03*
D10*
%TO.P,D17,2,A_2*%
%TO.N,Net-(D17-A)*%
X280056111Y-340716111D03*
%TD*%
D12*
%TO.P,J8,1,Pin_1_1*%
%TO.N,GND*%
X244776111Y-271441041D03*
D13*
%TO.P,J8,2,Pin_2_2*%
%TO.N,/+5V*%
X244776111Y-268901041D03*
%TO.P,J8,3,Pin_3_3*%
%TO.N,GND*%
X247316111Y-271441041D03*
%TO.P,J8,4,Pin_4_4*%
%TO.N,/+5V*%
X247316111Y-268901041D03*
%TO.P,J8,5,Pin_5_5*%
%TO.N,Net-(J7-Pin_6)*%
X249856111Y-271441041D03*
%TO.P,J8,6,Pin_6_6*%
%TO.N,Net-(J8-Pin_6)*%
X249856111Y-268901041D03*
%TO.P,J8,7,Pin_7_7*%
%TO.N,/MAX_CLK*%
X252396111Y-271441041D03*
%TO.P,J8,8,Pin_8_8*%
%TO.N,/MAX_LOAD*%
X252396111Y-268901041D03*
%TO.P,J8,9,Pin_9_9*%
%TO.N,GND*%
X254936111Y-271441041D03*
%TO.P,J8,10,Pin_10_10*%
%TO.N,/+5V*%
X254936111Y-268901041D03*
%TO.P,J8,11,Pin_11_11*%
%TO.N,GND*%
X257476111Y-271441041D03*
%TO.P,J8,12,Pin_12_12*%
%TO.N,/+3V3*%
X257476111Y-268901041D03*
%TO.P,J8,13,Pin_13_13*%
%TO.N,Net-(J8-Pin_13)*%
X260016111Y-271441041D03*
%TO.P,J8,14,Pin_14_14*%
%TO.N,Net-(J7-Pin_13)*%
X260016111Y-268901041D03*
%TO.P,J8,15,Pin_15_15*%
%TO.N,/165_CLK*%
X262556111Y-271441041D03*
%TO.P,J8,16,Pin_16_16*%
%TO.N,/165_SH{slash}LD*%
X262556111Y-268901041D03*
%TO.P,J8,17,Pin_17_17*%
%TO.N,GND*%
X265096111Y-271441041D03*
%TO.P,J8,18,Pin_18_18*%
%TO.N,/+5V*%
X265096111Y-268901041D03*
%TO.P,J8,19,Pin_19_19*%
%TO.N,GND*%
X267636111Y-271441041D03*
%TO.P,J8,20,Pin_20_20*%
%TO.N,/+5V*%
X267636111Y-268901041D03*
%TD*%
D12*
%TO.P,J12,1,Pin_1_1*%
%TO.N,GND*%
X244801476Y-346729515D03*
D13*
%TO.P,J12,2,Pin_2_2*%
%TO.N,/+5V*%
X244801476Y-344189515D03*
%TO.P,J12,3,Pin_3_3*%
%TO.N,GND*%
X247341476Y-346729515D03*
%TO.P,J12,4,Pin_4_4*%
%TO.N,/+5V*%
X247341476Y-344189515D03*
%TO.P,J12,5,Pin_5_5*%
%TO.N,/MAX_DIN*%
X249881476Y-346729515D03*
%TO.P,J12,6,Pin_6_6*%
%TO.N,unconnected-(J12-Pin_6-Pad6)*%
X249881476Y-344189515D03*
%TO.P,J12,7,Pin_7_7*%
%TO.N,/MAX_CLK*%
X252421476Y-346729515D03*
%TO.P,J12,8,Pin_8_8*%
%TO.N,/MAX_LOAD_STEP_SETTINGS*%
X252421476Y-344189515D03*
%TO.P,J12,9,Pin_9_9*%
%TO.N,GND*%
X254961476Y-346729515D03*
%TO.P,J12,10,Pin_10_10*%
%TO.N,/+5V*%
X254961476Y-344189515D03*
%TO.P,J12,11,Pin_11_11*%
%TO.N,GND*%
X257501476Y-346729515D03*
%TO.P,J12,12,Pin_12_12*%
%TO.N,/+3V3*%
X257501476Y-344189515D03*
%TO.P,J12,13,Pin_13_13*%
%TO.N,GND*%
X260041476Y-346729515D03*
%TO.P,J12,14,Pin_14_14*%
%TO.N,Net-(J10-Pin_13)*%
X260041476Y-344189515D03*
%TO.P,J12,15,Pin_15_15*%
%TO.N,/165_CLK*%
X262581476Y-346729515D03*
%TO.P,J12,16,Pin_16_16*%
%TO.N,/165_SH{slash}LD*%
X262581476Y-344189515D03*
%TO.P,J12,17,Pin_17_17*%
%TO.N,GND*%
X265121476Y-346729515D03*
%TO.P,J12,18,Pin_18_18*%
%TO.N,/165_ENC_QH*%
X265121476Y-344189515D03*
%TO.P,J12,19,Pin_19_19*%
%TO.N,/165_ENC_CLK*%
X267661476Y-346729515D03*
%TO.P,J12,20,Pin_20_20*%
%TO.N,/165_ENC_SH{slash}LD*%
X267661476Y-344189515D03*
%TD*%
D12*
%TO.P,J31,1,Pin_1_1*%
%TO.N,GND*%
X289976111Y-347096111D03*
D13*
%TO.P,J31,2,Pin_2_2*%
%TO.N,Net-(J31-Pin_2)*%
X292516111Y-347096111D03*
%TO.P,J31,3,Pin_3_3*%
%TO.N,Net-(J31-Pin_3)*%
X295056111Y-347096111D03*
%TD*%
D10*
%TO.P,R30,1*%
%TO.N,Net-(R30-Pad1)*%
X291056111Y-332976111D03*
%TO.P,R30,2*%
%TO.N,Net-(J31-Pin_2)*%
X291056111Y-340596111D03*
%TD*%
D22*
%TO.N,GND*%
X304556111Y-65596111D03*
%TO.N,Net-(U2-10_CS_MQSR)*%
X277556111Y-129596111D03*
%TO.N,Net-(U2-11_MOSI_CTX1)*%
X276556111Y-132096111D03*
%TO.N,/MAX_DIN*%
X269056111Y-81096111D03*
X250056111Y-69596111D03*
%TO.N,/MAX_LOAD_STEP_SETTINGS*%
X271556111Y-206596111D03*
X270056111Y-336596111D03*
%TO.N,Net-(U2-9_OUT1C)*%
X279056111Y-127596111D03*
%TO.N,/MAX_CLK*%
X251056111Y-189096111D03*
%TO.N,Net-(U2-13_SCK_LED)*%
X306556111Y-137596111D03*
%TO.N,/+5V*%
X268786111Y-313596111D03*
X286056111Y-313596111D03*
%TO.N,/165_CLK*%
X261556111Y-115596111D03*
%TO.N,/RESET*%
X308556111Y-128096111D03*
%TO.N,/165_QH*%
X272950428Y-63201794D03*
%TO.N,/TEENSY_3V3*%
X306056111Y-118596111D03*
%TO.N,/165_ENC_QH*%
X272556111Y-108096111D03*
%TO.N,/165_ENC_SH{slash}LD*%
X273556111Y-110096111D03*
%TO.N,/165_ENC_CLK*%
X274056111Y-147596111D03*
%TD*%
%TO.N,GND*%
D23*
X236556111Y-183096111D02*
X236556111Y-153596111D01*
X297256111Y-303596111D02*
X293256111Y-299596111D01*
X252556111Y-155300012D02*
X254936111Y-152920012D01*
X260041476Y-346729515D02*
X254961476Y-346729515D01*
X301056111Y-200256111D02*
X301056111Y-197636111D01*
X312556111Y-98096111D02*
X315556111Y-95096111D01*
X310056111Y-305096111D02*
X310056111Y-307596111D01*
X236824004Y-93828218D02*
X236556111Y-94096111D01*
X251994479Y-185596111D02*
X250257743Y-185596111D01*
X254936111Y-64351794D02*
X257476111Y-64351794D01*
X298556111Y-195136111D02*
X298096111Y-195136111D01*
X252668218Y-96096111D02*
X249556111Y-96096111D01*
X236556111Y-94096111D02*
X236556111Y-72596111D01*
X267636111Y-182654479D02*
X265096111Y-182654479D01*
X244776111Y-241845521D02*
X237306701Y-241845521D01*
X294936111Y-147696111D02*
X294936111Y-145156111D01*
X249056111Y-154660012D02*
X249056111Y-156096111D01*
X247316111Y-123403889D02*
X250508333Y-126596111D01*
X247316111Y-241845521D02*
X250566701Y-245096111D01*
X247316111Y-212190452D02*
X250721770Y-215596111D01*
X261131181Y-275096111D02*
X263556111Y-275096111D01*
X250721770Y-215596111D02*
X252556111Y-215596111D01*
X244776111Y-330711481D02*
X247316111Y-330711481D01*
X250471181Y-274596111D02*
X253056111Y-274596111D01*
X252556111Y-156096111D02*
X252556111Y-155300012D01*
X289556111Y-285596111D02*
X295556111Y-279596111D01*
X296628511Y-118435311D02*
X290366911Y-118435311D01*
X244776111Y-212190452D02*
X247316111Y-212190452D01*
X252594880Y-349096111D02*
X254961476Y-346729515D01*
X265556111Y-271901041D02*
X265096111Y-271441041D01*
X267636111Y-271441041D02*
X265096111Y-271441041D01*
X249816111Y-303596111D02*
X252556111Y-303596111D01*
X249556111Y-96096111D02*
X249556111Y-96068218D01*
X236863889Y-123403889D02*
X236556111Y-123096111D01*
X254936111Y-64351794D02*
X251691794Y-67596111D01*
X262754880Y-349096111D02*
X265121476Y-346729515D01*
X312556111Y-97913732D02*
X312556111Y-98096111D01*
X302556111Y-104516111D02*
X297067711Y-110004511D01*
X259056111Y-216096111D02*
X259056111Y-213770452D01*
X265096111Y-64351794D02*
X261851794Y-67596111D01*
X267636111Y-330711481D02*
X265096111Y-330711481D01*
X297067711Y-115896111D02*
X298117711Y-116946111D01*
X287316111Y-101976111D02*
X289039311Y-101976111D01*
X267636111Y-123403889D02*
X265096111Y-123403889D01*
X244776111Y-301096111D02*
X247316111Y-301096111D01*
X265096111Y-93828218D02*
X262328218Y-96596111D01*
X267636111Y-152920012D02*
X265096111Y-152920012D01*
X260360741Y-333596111D02*
X264556111Y-333596111D01*
X253056111Y-274596111D02*
X253056111Y-273321041D01*
X312056111Y-76096111D02*
X311556111Y-76096111D01*
X252556111Y-303596111D02*
X252556111Y-303476111D01*
X297256111Y-303596111D02*
X298756111Y-305096111D01*
X260476111Y-304096111D02*
X262556111Y-304096111D01*
X247341476Y-346729515D02*
X249708072Y-349096111D01*
X250566701Y-245096111D02*
X252056111Y-245096111D01*
X259056111Y-65931794D02*
X257476111Y-64351794D01*
X298117711Y-133097711D02*
X298117711Y-116946111D01*
X244776111Y-93828218D02*
X236824004Y-93828218D01*
X236556111Y-242596111D02*
X236556111Y-212096111D01*
X257476111Y-241845521D02*
X261226701Y-245596111D01*
X289556111Y-285596111D02*
X283556111Y-285596111D01*
X263556111Y-243385521D02*
X265096111Y-241845521D01*
X253056111Y-332591481D02*
X254936111Y-330711481D01*
X249056111Y-156096111D02*
X252556111Y-156096111D01*
X309071721Y-65680039D02*
X311972183Y-65680039D01*
X254936111Y-301096111D02*
X257476111Y-301096111D01*
X295556111Y-279596111D02*
X310056111Y-279596111D01*
X267636111Y-64351794D02*
X303311794Y-64351794D01*
X259056111Y-184234479D02*
X257476111Y-182654479D01*
X315556111Y-90556111D02*
X312556111Y-87556111D01*
X267636111Y-301096111D02*
X282556111Y-301096111D01*
X244776111Y-182654479D02*
X236997743Y-182654479D01*
X236556111Y-271596111D02*
X236556111Y-242596111D01*
X244776111Y-152920012D02*
X247316111Y-152920012D01*
X297067711Y-110004511D02*
X297067711Y-115896111D01*
X264556111Y-333596111D02*
X265096111Y-333056111D01*
X293016111Y-190056111D02*
X290936111Y-190056111D01*
X253056111Y-126596111D02*
X253056111Y-125283889D01*
X253056111Y-333596111D02*
X253056111Y-332591481D01*
X262328218Y-96596111D02*
X260244004Y-96596111D01*
X244776111Y-271441041D02*
X236711181Y-271441041D01*
X259056111Y-213770452D02*
X257476111Y-212190452D01*
X263556111Y-245596111D02*
X263556111Y-243385521D01*
X236556111Y-72596111D02*
X237056111Y-72096111D01*
X257476111Y-271441041D02*
X261131181Y-275096111D01*
X254936111Y-241845521D02*
X257476111Y-241845521D01*
X252556111Y-303476111D02*
X254936111Y-301096111D01*
X267636111Y-212190452D02*
X289121770Y-212190452D01*
X261226701Y-245596111D02*
X263556111Y-245596111D01*
X247316111Y-152920012D02*
X249056111Y-154660012D01*
X247316111Y-271441041D02*
X250471181Y-274596111D01*
X309071721Y-84071721D02*
X309071721Y-75840039D01*
X298556111Y-202756111D02*
X301056111Y-200256111D01*
X285056111Y-299596111D02*
X284556111Y-299096111D01*
X265096111Y-123403889D02*
X261903889Y-126596111D01*
X265096111Y-333056111D02*
X265096111Y-330711481D01*
X244776111Y-241845521D02*
X247316111Y-241845521D01*
X265096111Y-64351794D02*
X267636111Y-64351794D01*
X254936111Y-182654479D02*
X251994479Y-185596111D01*
X250508333Y-126596111D02*
X253056111Y-126596111D01*
X247316111Y-301096111D02*
X249816111Y-303596111D01*
X236556111Y-338484150D02*
X236556111Y-331596111D01*
X298117711Y-116946111D02*
X296628511Y-118435311D01*
X289121770Y-212190452D02*
X298556111Y-202756111D01*
X237056111Y-72071794D02*
X244776111Y-64351794D01*
X264232210Y-152920012D02*
X260556111Y-156596111D01*
X253056111Y-125283889D02*
X254936111Y-123403889D01*
X252056111Y-244725521D02*
X254936111Y-241845521D01*
X248556111Y-67096111D02*
X248556111Y-65591794D01*
X254936111Y-123403889D02*
X257476111Y-123403889D01*
X244801476Y-346729515D02*
X247341476Y-346729515D01*
X260056111Y-186596111D02*
X259056111Y-185596111D01*
X310056111Y-262596111D02*
X310056111Y-281596111D01*
X254936111Y-330711481D02*
X257476111Y-330711481D01*
X261903889Y-126596111D02*
X260056111Y-126596111D01*
X313556111Y-126716111D02*
X302736111Y-137536111D01*
X244776111Y-182654479D02*
X247316111Y-182654479D01*
X253056111Y-273321041D02*
X254936111Y-271441041D01*
X298756111Y-305096111D02*
X310056111Y-305096111D01*
X244776111Y-123403889D02*
X236863889Y-123403889D01*
X261851794Y-67596111D02*
X259056111Y-67596111D01*
X236556111Y-153596111D02*
X236556111Y-123096111D01*
X260056111Y-125983889D02*
X257476111Y-123403889D01*
X293256111Y-299596111D02*
X285056111Y-299596111D01*
X290936111Y-197676111D02*
X296016111Y-197676111D01*
X244776111Y-93828218D02*
X247316111Y-93828218D01*
X267636111Y-93828218D02*
X265096111Y-93828218D01*
X247316111Y-330711481D02*
X250200741Y-333596111D01*
X263556111Y-275096111D02*
X265556111Y-273096111D01*
X252556111Y-214570452D02*
X254936111Y-212190452D01*
X244776111Y-330711481D02*
X237440741Y-330711481D01*
X310056111Y-279596111D02*
X310056111Y-281596111D01*
X311556111Y-76096111D02*
X311300039Y-75840039D01*
X252556111Y-215596111D02*
X252556111Y-214570452D01*
X301056111Y-197636111D02*
X298556111Y-195136111D01*
X244776111Y-271441041D02*
X247316111Y-271441041D01*
X261154479Y-186596111D02*
X260056111Y-186596111D01*
X249708072Y-349096111D02*
X252594880Y-349096111D01*
X311300039Y-75840039D02*
X309071721Y-75840039D01*
X265556111Y-273096111D02*
X265556111Y-271901041D01*
X265096111Y-152920012D02*
X264232210Y-152920012D01*
X260556111Y-156596111D02*
X260556111Y-156000012D01*
X257476111Y-271441041D02*
X254936111Y-271441041D01*
X254936111Y-152920012D02*
X257476111Y-152920012D01*
X294936111Y-145156111D02*
X302556111Y-137536111D01*
X244776111Y-123403889D02*
X247316111Y-123403889D01*
X237440741Y-330711481D02*
X236556111Y-331596111D01*
X244776111Y-212190452D02*
X236650452Y-212190452D01*
X251691794Y-67596111D02*
X249056111Y-67596111D01*
X302556111Y-137536111D02*
X298117711Y-133097711D01*
X236556111Y-300596111D02*
X236556111Y-271596111D01*
X262556111Y-304096111D02*
X262556111Y-303636111D01*
X236711181Y-271441041D02*
X236556111Y-271596111D01*
X260244004Y-96596111D02*
X257476111Y-93828218D01*
X244776111Y-152920012D02*
X237232210Y-152920012D01*
X265096111Y-301096111D02*
X267636111Y-301096111D01*
X265096111Y-241845521D02*
X267636111Y-241845521D01*
X312056111Y-65596111D02*
X312056111Y-76096111D01*
X290366911Y-118435311D02*
X290366911Y-115895311D01*
X244776111Y-301096111D02*
X237056111Y-301096111D01*
X237056111Y-72096111D02*
X237056111Y-72071794D01*
X262556111Y-303636111D02*
X265096111Y-301096111D01*
X298096111Y-195136111D02*
X293016111Y-190056111D01*
X250257743Y-185596111D02*
X247316111Y-182654479D01*
X311972183Y-65680039D02*
X312056111Y-65596111D01*
X237232210Y-152920012D02*
X236556111Y-153596111D01*
X249056111Y-67596111D02*
X248556111Y-67096111D01*
X257476111Y-330711481D02*
X260360741Y-333596111D01*
X260556111Y-156000012D02*
X257476111Y-152920012D01*
X259056111Y-67596111D02*
X259056111Y-65931794D01*
X296016111Y-197676111D02*
X298556111Y-195136111D01*
X267636111Y-212190452D02*
X265096111Y-212190452D01*
X298366111Y-325906111D02*
X304676111Y-319596111D01*
X260056111Y-126596111D02*
X260056111Y-125983889D01*
X282556111Y-301096111D02*
X284556111Y-299096111D01*
X254936111Y-212190452D02*
X257476111Y-212190452D01*
X289039311Y-101976111D02*
X297067711Y-110004511D01*
X261190452Y-216096111D02*
X259056111Y-216096111D01*
X262408072Y-349096111D02*
X262754880Y-349096111D01*
X302736111Y-137536111D02*
X302556111Y-137536111D01*
X303311794Y-64351794D02*
X304556111Y-65596111D01*
X250200741Y-333596111D02*
X253056111Y-333596111D01*
X315556111Y-95096111D02*
X315556111Y-90556111D01*
X312556111Y-87556111D02*
X309071721Y-84071721D01*
X259056111Y-185596111D02*
X259056111Y-184234479D01*
X236997743Y-182654479D02*
X236556111Y-183096111D01*
X252056111Y-245096111D02*
X252056111Y-244725521D01*
X244776111Y-64351794D02*
X247316111Y-64351794D01*
X257476111Y-301096111D02*
X260476111Y-304096111D01*
X265096111Y-182654479D02*
X261154479Y-186596111D01*
X284556111Y-299096111D02*
X284556111Y-295976111D01*
X237306701Y-241845521D02*
X236556111Y-242596111D01*
X248556111Y-65591794D02*
X247316111Y-64351794D01*
X237056111Y-301096111D02*
X236556111Y-300596111D01*
X265096111Y-212190452D02*
X261190452Y-216096111D01*
X244801476Y-346729515D02*
X236556111Y-338484150D01*
X236556111Y-212096111D02*
X236556111Y-183096111D01*
X254936111Y-182654479D02*
X257476111Y-182654479D01*
X260041476Y-346729515D02*
X262408072Y-349096111D01*
X236556111Y-331596111D02*
X236556111Y-300596111D01*
X236650452Y-212190452D02*
X236556111Y-212096111D01*
X254936111Y-93828218D02*
X252668218Y-96096111D01*
X289371111Y-325906111D02*
X298366111Y-325906111D01*
X254936111Y-93828218D02*
X257476111Y-93828218D01*
X249556111Y-96068218D02*
X247316111Y-93828218D01*
X236556111Y-123096111D02*
X236556111Y-94096111D01*
%TO.N,Net-(U11-VO1)*%
X289371111Y-320826111D02*
X295826111Y-320826111D01*
X295826111Y-320826111D02*
X297056111Y-319596111D01*
%TO.N,Net-(U2-10_CS_MQSR)*%
X277556111Y-129596111D02*
X277876111Y-129916111D01*
X277876111Y-129916111D02*
X287316111Y-129916111D01*
%TO.N,/MAX_LOAD*%
X266910452Y-195136111D02*
X252396111Y-209650452D01*
X290936111Y-195136111D02*
X266910452Y-195136111D01*
X252396111Y-91436111D02*
X252556111Y-91596111D01*
%TO.N,Net-(U2-11_MOSI_CTX1)*%
X277056111Y-132096111D02*
X277416111Y-132456111D01*
X277416111Y-132456111D02*
X287316111Y-132456111D01*
X276556111Y-132096111D02*
X277056111Y-132096111D01*
%TO.N,/MAX_DIN*%
X250056111Y-69596111D02*
X261556111Y-81096111D01*
X261556111Y-81096111D02*
X269056111Y-81096111D01*
%TO.N,/MAX_LOAD_STEP_SETTINGS*%
X260014880Y-336596111D02*
X270056111Y-336596111D01*
X271556111Y-206596111D02*
X293056111Y-206596111D01*
X295056111Y-203716111D02*
X298556111Y-200216111D01*
X293056111Y-206596111D02*
X295056111Y-204596111D01*
X295056111Y-204596111D02*
X295056111Y-203716111D01*
X252421476Y-344189515D02*
X260014880Y-336596111D01*
%TO.N,Net-(U2-9_OUT1C)*%
X279556111Y-127596111D02*
X279776111Y-127376111D01*
X279776111Y-127376111D02*
X287316111Y-127376111D01*
X279056111Y-127596111D02*
X279556111Y-127596111D01*
%TO.N,/MAX_CLK*%
X298556111Y-192596111D02*
X294916111Y-188956111D01*
X294916111Y-188956111D02*
X251196111Y-188956111D01*
%TO.N,Net-(U2-13_SCK_LED)*%
X306556111Y-182056111D02*
X306556111Y-137596111D01*
X298556111Y-190056111D02*
X306556111Y-182056111D01*
%TO.N,/+5V*%
X286056111Y-313596111D02*
X268786111Y-313596111D01*
X282016111Y-295976111D02*
X270216111Y-295976111D01*
X270216111Y-295976111D02*
X267636111Y-298556111D01*
%TO.N,/+3V3*%
X300447793Y-59596111D02*
X259556111Y-59596111D01*
X309071721Y-68220039D02*
X300447793Y-59596111D01*
X259556111Y-59596111D02*
X259556111Y-59731794D01*
X259556111Y-59731794D02*
X257476111Y-61811794D01*
%TO.N,/165_CLK*%
X286396111Y-115596111D02*
X287316111Y-114676111D01*
X261556111Y-115596111D02*
X286396111Y-115596111D01*
%TO.N,/165_SH{slash}LD*%
X266203889Y-117216111D02*
X262556111Y-120863889D01*
X287316111Y-117216111D02*
X266203889Y-117216111D01*
%TO.N,/RESET*%
X304196111Y-132456111D02*
X302556111Y-132456111D01*
X299056111Y-266096111D02*
X304016111Y-266096111D01*
X308556111Y-128096111D02*
X304196111Y-132456111D01*
X304016111Y-266096111D02*
X307516111Y-262596111D01*
%TO.N,/165_QH*%
X261406111Y-63201794D02*
X272950428Y-63201794D01*
X260016111Y-61811794D02*
X261406111Y-63201794D01*
%TO.N,/TEENSY_3V3*%
X306056111Y-110556111D02*
X302556111Y-107056111D01*
X306056111Y-118596111D02*
X306056111Y-110556111D01*
%TO.N,/MIDI_IN_POST_OPTO*%
X296286111Y-323366111D02*
X289371111Y-323366111D01*
X296556111Y-323096111D02*
X296286111Y-323366111D01*
X297056111Y-323096111D02*
X296556111Y-323096111D01*
%TO.N,Net-(R30-Pad1)*%
X288271111Y-330191111D02*
X288271111Y-304961111D01*
X291056111Y-332976111D02*
X288271111Y-330191111D01*
X288271111Y-304961111D02*
X289636111Y-303596111D01*
%TO.N,/CLOCK_IN_5V*%
X305676111Y-295976111D02*
X297256111Y-295976111D01*
X281056111Y-287596111D02*
X279056111Y-285596111D01*
X297256111Y-295976111D02*
X289876111Y-288596111D01*
X281056111Y-288596111D02*
X281056111Y-287596111D01*
X306176111Y-295476111D02*
X305676111Y-295976111D01*
X307556111Y-295476111D02*
X306176111Y-295476111D01*
X289876111Y-288596111D02*
X281056111Y-288596111D01*
%TO.N,/165_ENC_QH*%
X272556111Y-108096111D02*
X273596111Y-107056111D01*
X273596111Y-107056111D02*
X287316111Y-107056111D01*
%TO.N,/165_ENC_SH{slash}LD*%
X274056111Y-110096111D02*
X274556111Y-109596111D01*
X274556111Y-109596111D02*
X287316111Y-109596111D01*
X273556111Y-110096111D02*
X274056111Y-110096111D01*
%TO.N,/165_ENC_CLK*%
X274156111Y-147696111D02*
X287316111Y-147696111D01*
X274056111Y-147596111D02*
X274156111Y-147696111D01*
%TO.N,/I2C_CLK{slash}RX*%
X306056111Y-123596111D02*
X302056111Y-123596111D01*
X309556111Y-94096111D02*
X309556111Y-120096111D01*
X302056111Y-123596111D02*
X301456111Y-124196111D01*
X307056111Y-91596111D02*
X309556111Y-94096111D01*
X307056111Y-72775649D02*
X307056111Y-91596111D01*
X301456111Y-124196111D02*
X301456111Y-126276111D01*
X301456111Y-126276111D02*
X302556111Y-127376111D01*
X309071721Y-70760039D02*
X307056111Y-72775649D01*
X309556111Y-120096111D02*
X306056111Y-123596111D01*
%TO.N,/I2C_DATA{slash}TX*%
X306816111Y-124836111D02*
X302556111Y-124836111D01*
X310556111Y-121096111D02*
X306816111Y-124836111D01*
X310556111Y-94596111D02*
X310556111Y-121096111D01*
X311056111Y-94096111D02*
X310556111Y-94596111D01*
X309071721Y-73300039D02*
X307921721Y-74450039D01*
X307921721Y-90961721D02*
X311056111Y-94096111D01*
X307921721Y-74450039D02*
X307921721Y-90961721D01*
%TD*%
M02*
