%TF.GenerationSoftware,KiCad,Pcbnew,10.0.1*%
%TF.CreationDate,2026-09-22T21:29:43+02:00*%
%TF.ProjectId,kosmo-16-channel-sequencer-main-board,6b6f736d-6f2d-4313-962d-6368616e6e65,rev?*%
%TF.SameCoordinates,Original*%
%TF.FileFunction,Legend,Top*%
%TF.FilePolarity,Positive*%
%FSLAX46Y46*%
G04 Gerber Fmt 4.6, Leading zero omitted, Abs format (unit mm)*
G04 Created by KiCad (PCBNEW 10.0.1) date 2026-09-22 21:29:43*
%MOMM*%
%LPD*%
G01*
G04 APERTURE LIST*
%ADD10C,0.100000*%
%ADD11C,0.200000*%
%ADD12C,0.150000*%
%ADD13C,0.120000*%
G04 APERTURE END LIST*
D10*
X280303884Y-234372419D02*
X280303884Y-233372419D01*
X280303884Y-233372419D02*
X280637217Y-234086704D01*
X280637217Y-234086704D02*
X280970550Y-233372419D01*
X280970550Y-233372419D02*
X280970550Y-234372419D01*
X281399122Y-234086704D02*
X281875312Y-234086704D01*
X281303884Y-234372419D02*
X281637217Y-233372419D01*
X281637217Y-233372419D02*
X281970550Y-234372419D01*
X282303884Y-234372419D02*
X282303884Y-233372419D01*
X282780074Y-234372419D02*
X282780074Y-233372419D01*
X282780074Y-233372419D02*
X283351502Y-234372419D01*
X283351502Y-234372419D02*
X283351502Y-233372419D01*
X284922931Y-233848609D02*
X285065788Y-233896228D01*
X285065788Y-233896228D02*
X285113407Y-233943847D01*
X285113407Y-233943847D02*
X285161026Y-234039085D01*
X285161026Y-234039085D02*
X285161026Y-234181942D01*
X285161026Y-234181942D02*
X285113407Y-234277180D01*
X285113407Y-234277180D02*
X285065788Y-234324800D01*
X285065788Y-234324800D02*
X284970550Y-234372419D01*
X284970550Y-234372419D02*
X284589598Y-234372419D01*
X284589598Y-234372419D02*
X284589598Y-233372419D01*
X284589598Y-233372419D02*
X284922931Y-233372419D01*
X284922931Y-233372419D02*
X285018169Y-233420038D01*
X285018169Y-233420038D02*
X285065788Y-233467657D01*
X285065788Y-233467657D02*
X285113407Y-233562895D01*
X285113407Y-233562895D02*
X285113407Y-233658133D01*
X285113407Y-233658133D02*
X285065788Y-233753371D01*
X285065788Y-233753371D02*
X285018169Y-233800990D01*
X285018169Y-233800990D02*
X284922931Y-233848609D01*
X284922931Y-233848609D02*
X284589598Y-233848609D01*
X285780074Y-233372419D02*
X285970550Y-233372419D01*
X285970550Y-233372419D02*
X286065788Y-233420038D01*
X286065788Y-233420038D02*
X286161026Y-233515276D01*
X286161026Y-233515276D02*
X286208645Y-233705752D01*
X286208645Y-233705752D02*
X286208645Y-234039085D01*
X286208645Y-234039085D02*
X286161026Y-234229561D01*
X286161026Y-234229561D02*
X286065788Y-234324800D01*
X286065788Y-234324800D02*
X285970550Y-234372419D01*
X285970550Y-234372419D02*
X285780074Y-234372419D01*
X285780074Y-234372419D02*
X285684836Y-234324800D01*
X285684836Y-234324800D02*
X285589598Y-234229561D01*
X285589598Y-234229561D02*
X285541979Y-234039085D01*
X285541979Y-234039085D02*
X285541979Y-233705752D01*
X285541979Y-233705752D02*
X285589598Y-233515276D01*
X285589598Y-233515276D02*
X285684836Y-233420038D01*
X285684836Y-233420038D02*
X285780074Y-233372419D01*
X286589598Y-234086704D02*
X287065788Y-234086704D01*
X286494360Y-234372419D02*
X286827693Y-233372419D01*
X286827693Y-233372419D02*
X287161026Y-234372419D01*
X288065788Y-234372419D02*
X287732455Y-233896228D01*
X287494360Y-234372419D02*
X287494360Y-233372419D01*
X287494360Y-233372419D02*
X287875312Y-233372419D01*
X287875312Y-233372419D02*
X287970550Y-233420038D01*
X287970550Y-233420038D02*
X288018169Y-233467657D01*
X288018169Y-233467657D02*
X288065788Y-233562895D01*
X288065788Y-233562895D02*
X288065788Y-233705752D01*
X288065788Y-233705752D02*
X288018169Y-233800990D01*
X288018169Y-233800990D02*
X287970550Y-233848609D01*
X287970550Y-233848609D02*
X287875312Y-233896228D01*
X287875312Y-233896228D02*
X287494360Y-233896228D01*
X288494360Y-234372419D02*
X288494360Y-233372419D01*
X288494360Y-233372419D02*
X288732455Y-233372419D01*
X288732455Y-233372419D02*
X288875312Y-233420038D01*
X288875312Y-233420038D02*
X288970550Y-233515276D01*
X288970550Y-233515276D02*
X289018169Y-233610514D01*
X289018169Y-233610514D02*
X289065788Y-233800990D01*
X289065788Y-233800990D02*
X289065788Y-233943847D01*
X289065788Y-233943847D02*
X289018169Y-234134323D01*
X289018169Y-234134323D02*
X288970550Y-234229561D01*
X288970550Y-234229561D02*
X288875312Y-234324800D01*
X288875312Y-234324800D02*
X288732455Y-234372419D01*
X288732455Y-234372419D02*
X288494360Y-234372419D01*
X290827693Y-234372419D02*
X290494360Y-233896228D01*
X290256265Y-234372419D02*
X290256265Y-233372419D01*
X290256265Y-233372419D02*
X290637217Y-233372419D01*
X290637217Y-233372419D02*
X290732455Y-233420038D01*
X290732455Y-233420038D02*
X290780074Y-233467657D01*
X290780074Y-233467657D02*
X290827693Y-233562895D01*
X290827693Y-233562895D02*
X290827693Y-233705752D01*
X290827693Y-233705752D02*
X290780074Y-233800990D01*
X290780074Y-233800990D02*
X290732455Y-233848609D01*
X290732455Y-233848609D02*
X290637217Y-233896228D01*
X290637217Y-233896228D02*
X290256265Y-233896228D01*
X291256265Y-233848609D02*
X291589598Y-233848609D01*
X291732455Y-234372419D02*
X291256265Y-234372419D01*
X291256265Y-234372419D02*
X291256265Y-233372419D01*
X291256265Y-233372419D02*
X291732455Y-233372419D01*
X292018170Y-233372419D02*
X292351503Y-234372419D01*
X292351503Y-234372419D02*
X292684836Y-233372419D01*
X294303884Y-234372419D02*
X293732456Y-234372419D01*
X294018170Y-234372419D02*
X294018170Y-233372419D01*
X294018170Y-233372419D02*
X293922932Y-233515276D01*
X293922932Y-233515276D02*
X293827694Y-233610514D01*
X293827694Y-233610514D02*
X293732456Y-233658133D01*
X294732456Y-234277180D02*
X294780075Y-234324800D01*
X294780075Y-234324800D02*
X294732456Y-234372419D01*
X294732456Y-234372419D02*
X294684837Y-234324800D01*
X294684837Y-234324800D02*
X294732456Y-234277180D01*
X294732456Y-234277180D02*
X294732456Y-234372419D01*
X295399122Y-233372419D02*
X295494360Y-233372419D01*
X295494360Y-233372419D02*
X295589598Y-233420038D01*
X295589598Y-233420038D02*
X295637217Y-233467657D01*
X295637217Y-233467657D02*
X295684836Y-233562895D01*
X295684836Y-233562895D02*
X295732455Y-233753371D01*
X295732455Y-233753371D02*
X295732455Y-233991466D01*
X295732455Y-233991466D02*
X295684836Y-234181942D01*
X295684836Y-234181942D02*
X295637217Y-234277180D01*
X295637217Y-234277180D02*
X295589598Y-234324800D01*
X295589598Y-234324800D02*
X295494360Y-234372419D01*
X295494360Y-234372419D02*
X295399122Y-234372419D01*
X295399122Y-234372419D02*
X295303884Y-234324800D01*
X295303884Y-234324800D02*
X295256265Y-234277180D01*
X295256265Y-234277180D02*
X295208646Y-234181942D01*
X295208646Y-234181942D02*
X295161027Y-233991466D01*
X295161027Y-233991466D02*
X295161027Y-233753371D01*
X295161027Y-233753371D02*
X295208646Y-233562895D01*
X295208646Y-233562895D02*
X295256265Y-233467657D01*
X295256265Y-233467657D02*
X295303884Y-233420038D01*
X295303884Y-233420038D02*
X295399122Y-233372419D01*
D11*
G36*
X302453295Y-232758928D02*
G01*
X302461586Y-232767219D01*
X302393280Y-232767219D01*
X302333670Y-232737414D01*
X302325379Y-232729123D01*
X302393685Y-232729123D01*
X302453295Y-232758928D01*
G37*
G36*
X302596150Y-231997023D02*
G01*
X302660329Y-232061202D01*
X302698244Y-232212861D01*
X302698244Y-232521575D01*
X302660328Y-232673235D01*
X302655386Y-232678178D01*
X302583241Y-232606032D01*
X302575571Y-232599736D01*
X302573841Y-232597742D01*
X302570835Y-232595850D01*
X302568088Y-232593595D01*
X302565646Y-232592583D01*
X302557251Y-232587299D01*
X302462013Y-232539680D01*
X302443705Y-232532674D01*
X302440121Y-232532419D01*
X302436801Y-232531044D01*
X302417292Y-232529123D01*
X302322054Y-232529123D01*
X302302545Y-232531044D01*
X302266497Y-232545976D01*
X302243442Y-232569031D01*
X302231578Y-232521575D01*
X302231578Y-232212862D01*
X302269493Y-232061202D01*
X302333672Y-231997023D01*
X302393280Y-231967219D01*
X302536542Y-231967219D01*
X302596150Y-231997023D01*
G37*
G36*
X281786626Y-231997023D02*
G01*
X281850805Y-232061202D01*
X281888720Y-232212861D01*
X281888720Y-232521575D01*
X281850804Y-232673235D01*
X281786628Y-232737413D01*
X281727018Y-232767219D01*
X281583756Y-232767219D01*
X281524146Y-232737414D01*
X281459969Y-232673236D01*
X281422054Y-232521575D01*
X281422054Y-232212862D01*
X281459969Y-232061202D01*
X281524148Y-231997023D01*
X281583756Y-231967219D01*
X281727018Y-231967219D01*
X281786626Y-231997023D01*
G37*
G36*
X284929483Y-231997023D02*
G01*
X284993662Y-232061202D01*
X285031577Y-232212861D01*
X285031577Y-232521575D01*
X284993661Y-232673235D01*
X284929485Y-232737413D01*
X284869875Y-232767219D01*
X284726613Y-232767219D01*
X284667003Y-232737414D01*
X284602826Y-232673236D01*
X284564911Y-232521575D01*
X284564911Y-232212862D01*
X284602826Y-232061202D01*
X284667005Y-231997023D01*
X284726613Y-231967219D01*
X284869875Y-231967219D01*
X284929483Y-231997023D01*
G37*
G36*
X287643770Y-232377976D02*
G01*
X287668439Y-232402644D01*
X287698244Y-232462254D01*
X287698244Y-232653135D01*
X287668439Y-232712743D01*
X287643770Y-232737413D01*
X287584161Y-232767219D01*
X287440899Y-232767219D01*
X287381289Y-232737414D01*
X287356622Y-232712746D01*
X287326816Y-232653134D01*
X287326816Y-232462254D01*
X287356621Y-232402644D01*
X287381289Y-232377975D01*
X287440899Y-232348171D01*
X287584161Y-232348171D01*
X287643770Y-232377976D01*
G37*
G36*
X298410891Y-232002240D02*
G01*
X298477964Y-232069313D01*
X298513416Y-232140218D01*
X298555387Y-232308099D01*
X298555387Y-232426337D01*
X298513416Y-232594218D01*
X298477963Y-232665124D01*
X298410892Y-232732197D01*
X298305827Y-232767219D01*
X298183959Y-232767219D01*
X298183959Y-231967219D01*
X298305827Y-231967219D01*
X298410891Y-232002240D01*
G37*
G36*
X308548532Y-231997024D02*
G01*
X308573201Y-232021692D01*
X308603006Y-232081302D01*
X308603006Y-232176945D01*
X308573201Y-232236554D01*
X308548532Y-232261222D01*
X308488923Y-232291028D01*
X308231578Y-232291028D01*
X308231578Y-231967219D01*
X308488923Y-231967219D01*
X308548532Y-231997024D01*
G37*
G36*
X291326169Y-232481504D02*
G01*
X291127464Y-232481504D01*
X291226816Y-232183446D01*
X291326169Y-232481504D01*
G37*
G36*
X308914117Y-233172783D02*
G01*
X280158562Y-233172783D01*
X280158562Y-231867219D01*
X280269673Y-231867219D01*
X280269673Y-232867219D01*
X280271594Y-232886728D01*
X280286526Y-232922776D01*
X280314116Y-232950366D01*
X280350164Y-232965298D01*
X280389182Y-232965298D01*
X280425230Y-232950366D01*
X280452820Y-232922776D01*
X280467752Y-232886728D01*
X280469673Y-232867219D01*
X280469673Y-232480069D01*
X280501710Y-232448031D01*
X280861101Y-232927219D01*
X280874343Y-232941674D01*
X280907918Y-232961553D01*
X280946544Y-232967071D01*
X280984341Y-232957388D01*
X281015556Y-232933977D01*
X281035435Y-232900403D01*
X281040953Y-232861777D01*
X281031270Y-232823979D01*
X281021101Y-232807219D01*
X280644567Y-232305174D01*
X280749189Y-232200552D01*
X281222054Y-232200552D01*
X281222054Y-232533885D01*
X281222389Y-232537287D01*
X281222172Y-232538746D01*
X281223251Y-232546043D01*
X281223975Y-232553394D01*
X281224539Y-232554757D01*
X281225040Y-232558139D01*
X281272659Y-232748614D01*
X281279254Y-232767075D01*
X281283679Y-232773047D01*
X281286525Y-232779918D01*
X281298962Y-232795071D01*
X281394200Y-232890311D01*
X281401868Y-232896604D01*
X281403599Y-232898600D01*
X281406606Y-232900493D01*
X281409353Y-232902747D01*
X281411793Y-232903757D01*
X281420190Y-232909043D01*
X281515427Y-232956662D01*
X281533736Y-232963668D01*
X281537319Y-232963922D01*
X281540640Y-232965298D01*
X281560149Y-232967219D01*
X281750625Y-232967219D01*
X281770134Y-232965298D01*
X281773454Y-232963922D01*
X281777038Y-232963668D01*
X281795346Y-232956662D01*
X281890584Y-232909043D01*
X281898979Y-232903758D01*
X281901421Y-232902747D01*
X281904168Y-232900491D01*
X281907174Y-232898600D01*
X281908904Y-232896605D01*
X281916574Y-232890310D01*
X282011812Y-232795071D01*
X282024249Y-232779918D01*
X282027094Y-232773047D01*
X282031520Y-232767075D01*
X282038115Y-232748615D01*
X282085734Y-232558139D01*
X282086234Y-232554757D01*
X282086799Y-232553394D01*
X282087522Y-232546043D01*
X282088602Y-232538746D01*
X282088384Y-232537287D01*
X282088720Y-232533885D01*
X282088720Y-232200552D01*
X282088384Y-232197149D01*
X282088602Y-232195691D01*
X282087522Y-232188393D01*
X282086799Y-232181043D01*
X282086234Y-232179679D01*
X282085734Y-232176298D01*
X282056083Y-232057695D01*
X282269673Y-232057695D01*
X282269673Y-232152933D01*
X282271594Y-232172442D01*
X282272969Y-232175762D01*
X282273224Y-232179346D01*
X282280230Y-232197654D01*
X282327849Y-232292892D01*
X282333134Y-232301288D01*
X282334145Y-232303728D01*
X282336398Y-232306474D01*
X282338292Y-232309482D01*
X282340286Y-232311211D01*
X282346581Y-232318882D01*
X282394200Y-232366500D01*
X282401866Y-232372792D01*
X282403599Y-232374790D01*
X282406607Y-232376683D01*
X282409353Y-232378937D01*
X282411793Y-232379947D01*
X282420190Y-232385233D01*
X282515427Y-232432852D01*
X282516855Y-232433398D01*
X282517435Y-232433828D01*
X282525611Y-232436749D01*
X282533736Y-232439858D01*
X282534456Y-232439909D01*
X282535895Y-232440423D01*
X282715720Y-232485379D01*
X282786627Y-232520833D01*
X282811296Y-232545501D01*
X282841101Y-232605111D01*
X282841101Y-232653135D01*
X282811296Y-232712743D01*
X282786627Y-232737413D01*
X282727018Y-232767219D01*
X282528756Y-232767219D01*
X282401296Y-232724732D01*
X282382180Y-232720385D01*
X282343260Y-232723151D01*
X282308361Y-232740601D01*
X282282796Y-232770077D01*
X282270458Y-232807093D01*
X282273224Y-232846013D01*
X282290674Y-232880912D01*
X282320150Y-232906477D01*
X282338050Y-232914468D01*
X282480907Y-232962087D01*
X282490579Y-232964286D01*
X282493021Y-232965298D01*
X282496558Y-232965646D01*
X282500022Y-232966434D01*
X282502656Y-232966246D01*
X282512530Y-232967219D01*
X282750625Y-232967219D01*
X282770134Y-232965298D01*
X282773454Y-232963922D01*
X282777038Y-232963668D01*
X282795346Y-232956662D01*
X282890584Y-232909043D01*
X282898979Y-232903758D01*
X282901421Y-232902747D01*
X282904168Y-232900491D01*
X282907174Y-232898600D01*
X282908904Y-232896605D01*
X282916574Y-232890310D01*
X282964193Y-232842690D01*
X282970485Y-232835023D01*
X282972482Y-232833292D01*
X282974375Y-232830284D01*
X282976630Y-232827537D01*
X282977641Y-232825095D01*
X282982925Y-232816701D01*
X283030544Y-232721464D01*
X283037550Y-232703155D01*
X283037804Y-232699571D01*
X283039180Y-232696251D01*
X283041101Y-232676742D01*
X283041101Y-232581504D01*
X283039180Y-232561995D01*
X283037804Y-232558674D01*
X283037550Y-232555091D01*
X283030544Y-232536782D01*
X282982925Y-232441545D01*
X282977639Y-232433148D01*
X282976629Y-232430708D01*
X282974375Y-232427962D01*
X282972482Y-232424954D01*
X282970484Y-232423221D01*
X282964192Y-232415555D01*
X282916574Y-232367936D01*
X282908903Y-232361641D01*
X282907174Y-232359647D01*
X282904166Y-232357753D01*
X282901420Y-232355500D01*
X282898980Y-232354489D01*
X282890584Y-232349204D01*
X282795346Y-232301585D01*
X282793919Y-232301039D01*
X282793339Y-232300609D01*
X282785162Y-232297687D01*
X282777038Y-232294579D01*
X282776315Y-232294527D01*
X282774878Y-232294014D01*
X282595053Y-232249057D01*
X282524146Y-232213604D01*
X282499478Y-232188935D01*
X282469673Y-232129325D01*
X282469673Y-232081302D01*
X282499478Y-232021692D01*
X282524146Y-231997023D01*
X282583756Y-231967219D01*
X282782017Y-231967219D01*
X282909478Y-232009706D01*
X282928593Y-232014053D01*
X282967513Y-232011287D01*
X283002412Y-231993837D01*
X283027977Y-231964361D01*
X283040316Y-231927345D01*
X283037549Y-231888425D01*
X283026946Y-231867219D01*
X283269673Y-231867219D01*
X283269673Y-232867219D01*
X283271594Y-232886728D01*
X283286526Y-232922776D01*
X283314116Y-232950366D01*
X283350164Y-232965298D01*
X283389182Y-232965298D01*
X283425230Y-232950366D01*
X283452820Y-232922776D01*
X283467752Y-232886728D01*
X283469673Y-232867219D01*
X283469673Y-232317975D01*
X283612388Y-232623793D01*
X283616620Y-232630938D01*
X283617500Y-232633356D01*
X283619065Y-232635065D01*
X283622379Y-232640659D01*
X283633589Y-232650925D01*
X283643851Y-232662131D01*
X283647876Y-232664009D01*
X283651154Y-232667011D01*
X283665436Y-232672204D01*
X283679209Y-232678632D01*
X283683648Y-232678827D01*
X283687823Y-232680345D01*
X283703006Y-232679677D01*
X283718189Y-232680345D01*
X283722362Y-232678827D01*
X283726804Y-232678632D01*
X283740588Y-232672199D01*
X283754858Y-232667010D01*
X283758131Y-232664012D01*
X283762161Y-232662132D01*
X283772430Y-232650917D01*
X283783633Y-232640659D01*
X283786944Y-232635068D01*
X283788513Y-232633356D01*
X283789393Y-232630934D01*
X283793624Y-232623793D01*
X283936339Y-232317974D01*
X283936339Y-232867219D01*
X283938260Y-232886728D01*
X283953192Y-232922776D01*
X283980782Y-232950366D01*
X284016830Y-232965298D01*
X284055848Y-232965298D01*
X284091896Y-232950366D01*
X284119486Y-232922776D01*
X284134418Y-232886728D01*
X284136339Y-232867219D01*
X284136339Y-232200552D01*
X284364911Y-232200552D01*
X284364911Y-232533885D01*
X284365246Y-232537287D01*
X284365029Y-232538746D01*
X284366108Y-232546043D01*
X284366832Y-232553394D01*
X284367396Y-232554757D01*
X284367897Y-232558139D01*
X284415516Y-232748614D01*
X284422111Y-232767075D01*
X284426536Y-232773047D01*
X284429382Y-232779918D01*
X284441819Y-232795071D01*
X284537057Y-232890311D01*
X284544725Y-232896604D01*
X284546456Y-232898600D01*
X284549463Y-232900493D01*
X284552210Y-232902747D01*
X284554650Y-232903757D01*
X284563047Y-232909043D01*
X284658284Y-232956662D01*
X284676593Y-232963668D01*
X284680176Y-232963922D01*
X284683497Y-232965298D01*
X284703006Y-232967219D01*
X284893482Y-232967219D01*
X284912991Y-232965298D01*
X284916311Y-232963922D01*
X284919895Y-232963668D01*
X284938203Y-232956662D01*
X285033441Y-232909043D01*
X285041836Y-232903758D01*
X285044278Y-232902747D01*
X285047025Y-232900491D01*
X285050031Y-232898600D01*
X285051761Y-232896605D01*
X285059431Y-232890310D01*
X285154669Y-232795071D01*
X285167106Y-232779918D01*
X285169951Y-232773047D01*
X285174377Y-232767075D01*
X285180972Y-232748615D01*
X285228591Y-232558139D01*
X285229091Y-232554757D01*
X285229656Y-232553394D01*
X285230379Y-232546043D01*
X285231459Y-232538746D01*
X285231241Y-232537287D01*
X285231577Y-232533885D01*
X285231577Y-232200552D01*
X285231241Y-232197149D01*
X285231459Y-232195691D01*
X285230379Y-232188393D01*
X285229656Y-232181043D01*
X285229091Y-232179679D01*
X285228591Y-232176298D01*
X285219623Y-232140426D01*
X286175220Y-232140426D01*
X286177986Y-232179346D01*
X286195435Y-232214245D01*
X286224912Y-232239809D01*
X286261928Y-232252148D01*
X286300848Y-232249382D01*
X286319156Y-232242376D01*
X286414394Y-232194757D01*
X286422790Y-232189471D01*
X286425230Y-232188461D01*
X286427976Y-232186207D01*
X286430984Y-232184314D01*
X286432713Y-232182319D01*
X286440384Y-232176025D01*
X286460149Y-232156260D01*
X286460149Y-232767219D01*
X286274435Y-232767219D01*
X286254926Y-232769140D01*
X286218878Y-232784072D01*
X286191288Y-232811662D01*
X286176356Y-232847710D01*
X286176356Y-232886728D01*
X286191288Y-232922776D01*
X286218878Y-232950366D01*
X286254926Y-232965298D01*
X286274435Y-232967219D01*
X286845863Y-232967219D01*
X286865372Y-232965298D01*
X286901420Y-232950366D01*
X286929010Y-232922776D01*
X286943942Y-232886728D01*
X286943942Y-232847710D01*
X286929010Y-232811662D01*
X286901420Y-232784072D01*
X286865372Y-232769140D01*
X286845863Y-232767219D01*
X286660149Y-232767219D01*
X286660149Y-232295790D01*
X287126816Y-232295790D01*
X287126816Y-232676742D01*
X287128737Y-232696251D01*
X287130112Y-232699571D01*
X287130367Y-232703155D01*
X287137373Y-232721463D01*
X287184992Y-232816701D01*
X287190275Y-232825093D01*
X287191287Y-232827537D01*
X287193543Y-232830286D01*
X287195435Y-232833291D01*
X287197429Y-232835020D01*
X287203724Y-232842690D01*
X287251342Y-232890310D01*
X287259010Y-232896603D01*
X287260742Y-232898600D01*
X287263750Y-232900493D01*
X287266496Y-232902747D01*
X287268936Y-232903757D01*
X287277333Y-232909043D01*
X287372570Y-232956662D01*
X287390879Y-232963668D01*
X287394462Y-232963922D01*
X287397783Y-232965298D01*
X287417292Y-232967219D01*
X287607768Y-232967219D01*
X287627277Y-232965298D01*
X287630597Y-232963922D01*
X287634181Y-232963668D01*
X287652489Y-232956662D01*
X287747727Y-232909043D01*
X287756122Y-232903758D01*
X287758564Y-232902747D01*
X287761311Y-232900491D01*
X287764317Y-232898600D01*
X287766047Y-232896605D01*
X287773717Y-232890310D01*
X287821336Y-232842690D01*
X287827628Y-232835023D01*
X287829625Y-232833292D01*
X287831518Y-232830284D01*
X287833773Y-232827537D01*
X287834784Y-232825095D01*
X287840068Y-232816701D01*
X287887687Y-232721464D01*
X287894693Y-232703155D01*
X287894947Y-232699571D01*
X287896323Y-232696251D01*
X287898244Y-232676742D01*
X287898244Y-232438647D01*
X287896323Y-232419138D01*
X287894947Y-232415817D01*
X287894693Y-232412234D01*
X287887687Y-232393925D01*
X287840068Y-232298688D01*
X287838244Y-232295790D01*
X288841102Y-232295790D01*
X288841102Y-232438647D01*
X288841437Y-232442049D01*
X288841220Y-232443508D01*
X288842299Y-232450805D01*
X288843023Y-232458156D01*
X288843587Y-232459519D01*
X288844088Y-232462901D01*
X288891707Y-232653376D01*
X288892220Y-232654813D01*
X288892272Y-232655536D01*
X288895380Y-232663660D01*
X288898302Y-232671837D01*
X288898732Y-232672417D01*
X288899278Y-232673844D01*
X288946897Y-232769082D01*
X288952179Y-232777474D01*
X288953192Y-232779918D01*
X288955448Y-232782667D01*
X288957340Y-232785672D01*
X288959334Y-232787401D01*
X288965629Y-232795071D01*
X289060867Y-232890311D01*
X289076020Y-232902747D01*
X289079339Y-232904122D01*
X289082055Y-232906477D01*
X289099955Y-232914468D01*
X289242812Y-232962087D01*
X289252484Y-232964286D01*
X289254926Y-232965298D01*
X289258463Y-232965646D01*
X289261927Y-232966434D01*
X289264561Y-232966246D01*
X289274435Y-232967219D01*
X289369673Y-232967219D01*
X289379546Y-232966246D01*
X289382180Y-232966434D01*
X289385643Y-232965646D01*
X289389182Y-232965298D01*
X289391624Y-232964286D01*
X289401296Y-232962087D01*
X289544152Y-232914468D01*
X289562053Y-232906477D01*
X289564768Y-232904122D01*
X289568088Y-232902747D01*
X289583241Y-232890310D01*
X289630860Y-232842690D01*
X289643297Y-232827537D01*
X289658228Y-232791488D01*
X289658227Y-232752470D01*
X289643296Y-232716422D01*
X289615705Y-232688832D01*
X289579657Y-232673901D01*
X289540639Y-232673902D01*
X289504591Y-232688833D01*
X289489437Y-232701270D01*
X289458510Y-232732197D01*
X289353446Y-232767219D01*
X289290661Y-232767219D01*
X289185596Y-232732197D01*
X289118526Y-232665127D01*
X289083072Y-232594218D01*
X289041102Y-232426337D01*
X289041102Y-232308100D01*
X289083072Y-232140218D01*
X289118525Y-232069312D01*
X289185597Y-232002240D01*
X289290661Y-231967219D01*
X289353446Y-231967219D01*
X289458511Y-232002240D01*
X289489438Y-232033167D01*
X289504591Y-232045604D01*
X289540640Y-232060535D01*
X289579658Y-232060535D01*
X289615706Y-232045604D01*
X289643296Y-232018014D01*
X289658227Y-231981966D01*
X289658227Y-231942948D01*
X289643296Y-231906899D01*
X289630859Y-231891746D01*
X289606333Y-231867219D01*
X289888721Y-231867219D01*
X289888721Y-232867219D01*
X289890642Y-232886728D01*
X289905574Y-232922776D01*
X289933164Y-232950366D01*
X289969212Y-232965298D01*
X290008230Y-232965298D01*
X290044278Y-232950366D01*
X290071868Y-232922776D01*
X290086800Y-232886728D01*
X290088721Y-232867219D01*
X290088721Y-232443409D01*
X290460149Y-232443409D01*
X290460149Y-232867219D01*
X290462070Y-232886728D01*
X290477002Y-232922776D01*
X290504592Y-232950366D01*
X290540640Y-232965298D01*
X290579658Y-232965298D01*
X290615706Y-232950366D01*
X290643296Y-232922776D01*
X290658228Y-232886728D01*
X290660149Y-232867219D01*
X290660149Y-232854712D01*
X290794268Y-232854712D01*
X290797034Y-232893632D01*
X290814484Y-232928531D01*
X290843960Y-232954096D01*
X290880976Y-232966434D01*
X290919896Y-232963668D01*
X290954795Y-232946218D01*
X290980360Y-232916742D01*
X290988351Y-232898842D01*
X291060797Y-232681504D01*
X291392835Y-232681504D01*
X291465281Y-232898841D01*
X291473272Y-232916742D01*
X291498837Y-232946218D01*
X291533736Y-232963667D01*
X291572656Y-232966434D01*
X291609672Y-232954095D01*
X291639148Y-232928530D01*
X291656598Y-232893631D01*
X291659364Y-232854711D01*
X291655017Y-232835596D01*
X291332225Y-231867219D01*
X291793483Y-231867219D01*
X291793483Y-232867219D01*
X291795404Y-232886728D01*
X291810336Y-232922776D01*
X291837926Y-232950366D01*
X291873974Y-232965298D01*
X291912992Y-232965298D01*
X291949040Y-232950366D01*
X291976630Y-232922776D01*
X291991562Y-232886728D01*
X291993483Y-232867219D01*
X291993483Y-232243775D01*
X292378087Y-232916833D01*
X292381005Y-232920943D01*
X292381764Y-232922776D01*
X292383630Y-232924642D01*
X292389434Y-232932818D01*
X292399950Y-232940962D01*
X292409354Y-232950366D01*
X292415241Y-232952804D01*
X292420283Y-232956709D01*
X292433115Y-232960208D01*
X292445402Y-232965298D01*
X292451778Y-232965298D01*
X292457927Y-232966975D01*
X292471120Y-232965298D01*
X292484420Y-232965298D01*
X292490308Y-232962858D01*
X292496633Y-232962055D01*
X292508182Y-232955454D01*
X292520468Y-232950366D01*
X292524975Y-232945858D01*
X292530510Y-232942696D01*
X292538654Y-232932179D01*
X292548058Y-232922776D01*
X292550496Y-232916888D01*
X292554401Y-232911847D01*
X292557900Y-232899014D01*
X292562990Y-232886728D01*
X292563972Y-232876750D01*
X292564667Y-232874204D01*
X292564416Y-232872236D01*
X292564911Y-232867219D01*
X292564911Y-231867219D01*
X292841102Y-231867219D01*
X292841102Y-232867219D01*
X292843023Y-232886728D01*
X292857955Y-232922776D01*
X292885545Y-232950366D01*
X292921593Y-232965298D01*
X292960611Y-232965298D01*
X292996659Y-232950366D01*
X293024249Y-232922776D01*
X293039181Y-232886728D01*
X293041102Y-232867219D01*
X293041102Y-232243775D01*
X293425706Y-232916833D01*
X293428624Y-232920943D01*
X293429383Y-232922776D01*
X293431249Y-232924642D01*
X293437053Y-232932818D01*
X293447569Y-232940962D01*
X293456973Y-232950366D01*
X293462860Y-232952804D01*
X293467902Y-232956709D01*
X293480734Y-232960208D01*
X293493021Y-232965298D01*
X293499397Y-232965298D01*
X293505546Y-232966975D01*
X293518739Y-232965298D01*
X293532039Y-232965298D01*
X293537927Y-232962858D01*
X293544252Y-232962055D01*
X293555801Y-232955454D01*
X293568087Y-232950366D01*
X293572594Y-232945858D01*
X293578129Y-232942696D01*
X293586273Y-232932179D01*
X293595677Y-232922776D01*
X293598115Y-232916888D01*
X293602020Y-232911847D01*
X293605519Y-232899014D01*
X293610609Y-232886728D01*
X293611591Y-232876750D01*
X293612286Y-232874204D01*
X293612035Y-232872236D01*
X293612530Y-232867219D01*
X293612530Y-231867219D01*
X293888721Y-231867219D01*
X293888721Y-232867219D01*
X293890642Y-232886728D01*
X293905574Y-232922776D01*
X293933164Y-232950366D01*
X293969212Y-232965298D01*
X293988721Y-232967219D01*
X294464911Y-232967219D01*
X294484420Y-232965298D01*
X294520468Y-232950366D01*
X294548058Y-232922776D01*
X294562990Y-232886728D01*
X294562990Y-232847710D01*
X294548058Y-232811662D01*
X294520468Y-232784072D01*
X294484420Y-232769140D01*
X294464911Y-232767219D01*
X294088721Y-232767219D01*
X294088721Y-232443409D01*
X294322054Y-232443409D01*
X294341563Y-232441488D01*
X294377611Y-232426556D01*
X294405201Y-232398966D01*
X294420133Y-232362918D01*
X294420133Y-232323900D01*
X294405201Y-232287852D01*
X294377611Y-232260262D01*
X294341563Y-232245330D01*
X294322054Y-232243409D01*
X294088721Y-232243409D01*
X294088721Y-231967219D01*
X294464911Y-231967219D01*
X294484420Y-231965298D01*
X294520468Y-231950366D01*
X294548058Y-231922776D01*
X294562990Y-231886728D01*
X294562990Y-231867219D01*
X294793483Y-231867219D01*
X294793483Y-232867219D01*
X294795404Y-232886728D01*
X294810336Y-232922776D01*
X294837926Y-232950366D01*
X294873974Y-232965298D01*
X294893483Y-232967219D01*
X295369673Y-232967219D01*
X295389182Y-232965298D01*
X295425230Y-232950366D01*
X295452820Y-232922776D01*
X295467752Y-232886728D01*
X295467752Y-232847710D01*
X295452820Y-232811662D01*
X295425230Y-232784072D01*
X295389182Y-232769140D01*
X295369673Y-232767219D01*
X294993483Y-232767219D01*
X294993483Y-231867219D01*
X296364912Y-231867219D01*
X296364912Y-232867219D01*
X296366833Y-232886728D01*
X296381765Y-232922776D01*
X296409355Y-232950366D01*
X296445403Y-232965298D01*
X296484421Y-232965298D01*
X296520469Y-232950366D01*
X296548059Y-232922776D01*
X296562991Y-232886728D01*
X296564912Y-232867219D01*
X296564912Y-232317975D01*
X296707627Y-232623793D01*
X296711859Y-232630938D01*
X296712739Y-232633356D01*
X296714304Y-232635065D01*
X296717618Y-232640659D01*
X296728828Y-232650925D01*
X296739090Y-232662131D01*
X296743115Y-232664009D01*
X296746393Y-232667011D01*
X296760675Y-232672204D01*
X296774448Y-232678632D01*
X296778887Y-232678827D01*
X296783062Y-232680345D01*
X296798245Y-232679677D01*
X296813428Y-232680345D01*
X296817601Y-232678827D01*
X296822043Y-232678632D01*
X296835827Y-232672199D01*
X296850097Y-232667010D01*
X296853370Y-232664012D01*
X296857400Y-232662132D01*
X296867669Y-232650917D01*
X296878872Y-232640659D01*
X296882183Y-232635068D01*
X296883752Y-232633356D01*
X296884632Y-232630934D01*
X296888863Y-232623793D01*
X297031578Y-232317974D01*
X297031578Y-232867219D01*
X297033499Y-232886728D01*
X297048431Y-232922776D01*
X297076021Y-232950366D01*
X297112069Y-232965298D01*
X297151087Y-232965298D01*
X297187135Y-232950366D01*
X297214725Y-232922776D01*
X297229657Y-232886728D01*
X297231578Y-232867219D01*
X297231578Y-231867219D01*
X297507769Y-231867219D01*
X297507769Y-232867219D01*
X297509690Y-232886728D01*
X297524622Y-232922776D01*
X297552212Y-232950366D01*
X297588260Y-232965298D01*
X297627278Y-232965298D01*
X297663326Y-232950366D01*
X297690916Y-232922776D01*
X297705848Y-232886728D01*
X297707769Y-232867219D01*
X297707769Y-231867219D01*
X297983959Y-231867219D01*
X297983959Y-232867219D01*
X297985880Y-232886728D01*
X298000812Y-232922776D01*
X298028402Y-232950366D01*
X298064450Y-232965298D01*
X298083959Y-232967219D01*
X298322054Y-232967219D01*
X298331927Y-232966246D01*
X298334561Y-232966434D01*
X298338024Y-232965646D01*
X298341563Y-232965298D01*
X298344005Y-232964286D01*
X298353677Y-232962087D01*
X298496533Y-232914468D01*
X298514434Y-232906477D01*
X298517149Y-232904122D01*
X298520469Y-232902747D01*
X298535622Y-232890310D01*
X298630860Y-232795071D01*
X298637152Y-232787404D01*
X298639149Y-232785673D01*
X298641042Y-232782665D01*
X298643297Y-232779918D01*
X298644308Y-232777476D01*
X298649592Y-232769082D01*
X298697211Y-232673845D01*
X298697757Y-232672416D01*
X298698187Y-232671837D01*
X298701108Y-232663660D01*
X298704217Y-232655536D01*
X298704268Y-232654815D01*
X298704782Y-232653377D01*
X298752401Y-232462901D01*
X298752901Y-232459519D01*
X298753466Y-232458156D01*
X298754189Y-232450805D01*
X298755269Y-232443508D01*
X298755051Y-232442049D01*
X298755387Y-232438647D01*
X298755387Y-232295790D01*
X298755051Y-232292387D01*
X298755269Y-232290929D01*
X298754189Y-232283631D01*
X298753466Y-232276281D01*
X298752901Y-232274917D01*
X298752401Y-232271536D01*
X298704782Y-232081060D01*
X298704268Y-232079621D01*
X298704217Y-232078901D01*
X298701108Y-232070776D01*
X298698187Y-232062600D01*
X298697757Y-232062020D01*
X298697211Y-232060592D01*
X298649592Y-231965355D01*
X298644305Y-231956956D01*
X298643296Y-231954519D01*
X298641044Y-231951775D01*
X298639149Y-231948764D01*
X298637151Y-231947031D01*
X298630860Y-231939365D01*
X298558714Y-231867219D01*
X298983959Y-231867219D01*
X298983959Y-232867219D01*
X298985880Y-232886728D01*
X299000812Y-232922776D01*
X299028402Y-232950366D01*
X299064450Y-232965298D01*
X299103468Y-232965298D01*
X299139516Y-232950366D01*
X299167106Y-232922776D01*
X299182038Y-232886728D01*
X299183959Y-232867219D01*
X299183959Y-232057695D01*
X300174435Y-232057695D01*
X300174435Y-232152933D01*
X300176356Y-232172442D01*
X300177731Y-232175762D01*
X300177986Y-232179346D01*
X300184992Y-232197654D01*
X300232611Y-232292892D01*
X300237896Y-232301288D01*
X300238907Y-232303728D01*
X300241160Y-232306474D01*
X300243054Y-232309482D01*
X300245048Y-232311211D01*
X300251343Y-232318882D01*
X300298962Y-232366500D01*
X300306628Y-232372792D01*
X300308361Y-232374790D01*
X300311369Y-232376683D01*
X300314115Y-232378937D01*
X300316555Y-232379947D01*
X300324952Y-232385233D01*
X300420189Y-232432852D01*
X300421617Y-232433398D01*
X300422197Y-232433828D01*
X300430373Y-232436749D01*
X300438498Y-232439858D01*
X300439218Y-232439909D01*
X300440657Y-232440423D01*
X300620482Y-232485379D01*
X300691389Y-232520833D01*
X300716058Y-232545501D01*
X300745863Y-232605111D01*
X300745863Y-232653135D01*
X300716058Y-232712743D01*
X300691389Y-232737413D01*
X300631780Y-232767219D01*
X300433518Y-232767219D01*
X300306058Y-232724732D01*
X300286942Y-232720385D01*
X300248022Y-232723151D01*
X300213123Y-232740601D01*
X300187558Y-232770077D01*
X300175220Y-232807093D01*
X300177986Y-232846013D01*
X300195436Y-232880912D01*
X300224912Y-232906477D01*
X300242812Y-232914468D01*
X300385669Y-232962087D01*
X300395341Y-232964286D01*
X300397783Y-232965298D01*
X300401320Y-232965646D01*
X300404784Y-232966434D01*
X300407418Y-232966246D01*
X300417292Y-232967219D01*
X300655387Y-232967219D01*
X300674896Y-232965298D01*
X300678216Y-232963922D01*
X300681800Y-232963668D01*
X300700108Y-232956662D01*
X300795346Y-232909043D01*
X300803741Y-232903758D01*
X300806183Y-232902747D01*
X300808930Y-232900491D01*
X300811936Y-232898600D01*
X300813666Y-232896605D01*
X300821336Y-232890310D01*
X300868955Y-232842690D01*
X300875247Y-232835023D01*
X300877244Y-232833292D01*
X300879137Y-232830284D01*
X300881392Y-232827537D01*
X300882403Y-232825095D01*
X300887687Y-232816701D01*
X300935306Y-232721464D01*
X300942312Y-232703155D01*
X300942566Y-232699571D01*
X300943942Y-232696251D01*
X300945863Y-232676742D01*
X300945863Y-232581504D01*
X300943942Y-232561995D01*
X300942566Y-232558674D01*
X300942312Y-232555091D01*
X300935306Y-232536782D01*
X300887687Y-232441545D01*
X300882401Y-232433148D01*
X300881391Y-232430708D01*
X300879137Y-232427962D01*
X300877244Y-232424954D01*
X300875246Y-232423221D01*
X300868954Y-232415555D01*
X300821336Y-232367936D01*
X300813665Y-232361641D01*
X300811936Y-232359647D01*
X300808928Y-232357753D01*
X300806182Y-232355500D01*
X300803742Y-232354489D01*
X300795346Y-232349204D01*
X300700108Y-232301585D01*
X300698681Y-232301039D01*
X300698101Y-232300609D01*
X300689924Y-232297687D01*
X300681800Y-232294579D01*
X300681077Y-232294527D01*
X300679640Y-232294014D01*
X300499815Y-232249057D01*
X300428908Y-232213604D01*
X300404240Y-232188935D01*
X300374435Y-232129325D01*
X300374435Y-232081302D01*
X300404240Y-232021692D01*
X300428908Y-231997023D01*
X300488518Y-231967219D01*
X300686779Y-231967219D01*
X300814240Y-232009706D01*
X300833355Y-232014053D01*
X300872275Y-232011287D01*
X300907174Y-231993837D01*
X300932739Y-231964361D01*
X300945078Y-231927345D01*
X300942311Y-231888425D01*
X300931708Y-231867219D01*
X301174435Y-231867219D01*
X301174435Y-232867219D01*
X301176356Y-232886728D01*
X301191288Y-232922776D01*
X301218878Y-232950366D01*
X301254926Y-232965298D01*
X301274435Y-232967219D01*
X301750625Y-232967219D01*
X301770134Y-232965298D01*
X301806182Y-232950366D01*
X301833772Y-232922776D01*
X301848704Y-232886728D01*
X301848704Y-232847710D01*
X301833772Y-232811662D01*
X301806182Y-232784072D01*
X301770134Y-232769140D01*
X301750625Y-232767219D01*
X301374435Y-232767219D01*
X301374435Y-232443409D01*
X301607768Y-232443409D01*
X301627277Y-232441488D01*
X301663325Y-232426556D01*
X301690915Y-232398966D01*
X301705847Y-232362918D01*
X301705847Y-232323900D01*
X301690915Y-232287852D01*
X301663325Y-232260262D01*
X301627277Y-232245330D01*
X301607768Y-232243409D01*
X301374435Y-232243409D01*
X301374435Y-232200552D01*
X302031578Y-232200552D01*
X302031578Y-232533885D01*
X302031913Y-232537287D01*
X302031696Y-232538746D01*
X302032775Y-232546043D01*
X302033499Y-232553394D01*
X302034063Y-232554757D01*
X302034564Y-232558139D01*
X302082183Y-232748614D01*
X302088778Y-232767075D01*
X302093203Y-232773047D01*
X302096049Y-232779918D01*
X302108486Y-232795071D01*
X302203724Y-232890311D01*
X302211392Y-232896604D01*
X302213123Y-232898600D01*
X302216130Y-232900493D01*
X302218877Y-232902747D01*
X302221317Y-232903757D01*
X302229714Y-232909043D01*
X302324951Y-232956662D01*
X302343260Y-232963668D01*
X302346843Y-232963922D01*
X302350164Y-232965298D01*
X302369673Y-232967219D01*
X302560149Y-232967219D01*
X302579658Y-232965298D01*
X302582978Y-232963922D01*
X302586562Y-232963668D01*
X302604870Y-232956662D01*
X302635641Y-232941276D01*
X302679914Y-232985549D01*
X302687580Y-232991840D01*
X302689313Y-232993838D01*
X302692324Y-232995733D01*
X302695068Y-232997985D01*
X302697505Y-232998994D01*
X302705904Y-233004281D01*
X302801141Y-233051900D01*
X302819450Y-233058906D01*
X302858370Y-233061672D01*
X302895386Y-233049333D01*
X302924863Y-233023768D01*
X302942312Y-232988870D01*
X302945077Y-232949950D01*
X302932739Y-232912934D01*
X302907174Y-232883457D01*
X302890584Y-232873014D01*
X302809862Y-232832653D01*
X302796808Y-232819599D01*
X302821336Y-232795071D01*
X302833773Y-232779918D01*
X302836618Y-232773047D01*
X302841044Y-232767075D01*
X302847639Y-232748615D01*
X302895258Y-232558139D01*
X302895758Y-232554757D01*
X302896323Y-232553394D01*
X302897046Y-232546043D01*
X302898126Y-232538746D01*
X302897908Y-232537287D01*
X302898244Y-232533885D01*
X302898244Y-232200552D01*
X302897908Y-232197149D01*
X302898126Y-232195691D01*
X302897046Y-232188393D01*
X302896323Y-232181043D01*
X302895758Y-232179679D01*
X302895258Y-232176298D01*
X302847639Y-231985822D01*
X302841044Y-231967362D01*
X302836617Y-231961387D01*
X302833772Y-231954519D01*
X302821336Y-231939365D01*
X302749190Y-231867219D01*
X303126816Y-231867219D01*
X303126816Y-232676742D01*
X303128737Y-232696251D01*
X303130112Y-232699571D01*
X303130367Y-232703155D01*
X303137373Y-232721463D01*
X303184992Y-232816701D01*
X303190275Y-232825093D01*
X303191287Y-232827537D01*
X303193543Y-232830286D01*
X303195435Y-232833291D01*
X303197429Y-232835020D01*
X303203724Y-232842690D01*
X303251342Y-232890310D01*
X303259010Y-232896603D01*
X303260742Y-232898600D01*
X303263750Y-232900493D01*
X303266496Y-232902747D01*
X303268936Y-232903757D01*
X303277333Y-232909043D01*
X303372570Y-232956662D01*
X303390879Y-232963668D01*
X303394462Y-232963922D01*
X303397783Y-232965298D01*
X303417292Y-232967219D01*
X303607768Y-232967219D01*
X303627277Y-232965298D01*
X303630597Y-232963922D01*
X303634181Y-232963668D01*
X303652489Y-232956662D01*
X303747727Y-232909043D01*
X303756122Y-232903758D01*
X303758564Y-232902747D01*
X303761311Y-232900491D01*
X303764317Y-232898600D01*
X303766047Y-232896605D01*
X303773717Y-232890310D01*
X303821336Y-232842690D01*
X303827628Y-232835023D01*
X303829625Y-232833292D01*
X303831518Y-232830284D01*
X303833773Y-232827537D01*
X303834784Y-232825095D01*
X303840068Y-232816701D01*
X303887687Y-232721464D01*
X303894693Y-232703155D01*
X303894947Y-232699571D01*
X303896323Y-232696251D01*
X303898244Y-232676742D01*
X303898244Y-231867219D01*
X304174435Y-231867219D01*
X304174435Y-232867219D01*
X304176356Y-232886728D01*
X304191288Y-232922776D01*
X304218878Y-232950366D01*
X304254926Y-232965298D01*
X304274435Y-232967219D01*
X304750625Y-232967219D01*
X304770134Y-232965298D01*
X304806182Y-232950366D01*
X304833772Y-232922776D01*
X304848704Y-232886728D01*
X304848704Y-232847710D01*
X304833772Y-232811662D01*
X304806182Y-232784072D01*
X304770134Y-232769140D01*
X304750625Y-232767219D01*
X304374435Y-232767219D01*
X304374435Y-232443409D01*
X304607768Y-232443409D01*
X304627277Y-232441488D01*
X304663325Y-232426556D01*
X304690915Y-232398966D01*
X304705847Y-232362918D01*
X304705847Y-232323900D01*
X304690915Y-232287852D01*
X304663325Y-232260262D01*
X304627277Y-232245330D01*
X304607768Y-232243409D01*
X304374435Y-232243409D01*
X304374435Y-231967219D01*
X304750625Y-231967219D01*
X304770134Y-231965298D01*
X304806182Y-231950366D01*
X304833772Y-231922776D01*
X304848704Y-231886728D01*
X304848704Y-231867219D01*
X305079197Y-231867219D01*
X305079197Y-232867219D01*
X305081118Y-232886728D01*
X305096050Y-232922776D01*
X305123640Y-232950366D01*
X305159688Y-232965298D01*
X305198706Y-232965298D01*
X305234754Y-232950366D01*
X305262344Y-232922776D01*
X305277276Y-232886728D01*
X305279197Y-232867219D01*
X305279197Y-232243775D01*
X305663801Y-232916833D01*
X305666719Y-232920943D01*
X305667478Y-232922776D01*
X305669344Y-232924642D01*
X305675148Y-232932818D01*
X305685664Y-232940962D01*
X305695068Y-232950366D01*
X305700955Y-232952804D01*
X305705997Y-232956709D01*
X305718829Y-232960208D01*
X305731116Y-232965298D01*
X305737492Y-232965298D01*
X305743641Y-232966975D01*
X305756834Y-232965298D01*
X305770134Y-232965298D01*
X305776022Y-232962858D01*
X305782347Y-232962055D01*
X305793896Y-232955454D01*
X305806182Y-232950366D01*
X305810689Y-232945858D01*
X305816224Y-232942696D01*
X305824368Y-232932179D01*
X305833772Y-232922776D01*
X305836210Y-232916888D01*
X305840115Y-232911847D01*
X305843614Y-232899014D01*
X305848704Y-232886728D01*
X305849686Y-232876750D01*
X305850381Y-232874204D01*
X305850130Y-232872236D01*
X305850625Y-232867219D01*
X305850625Y-232295790D01*
X306079197Y-232295790D01*
X306079197Y-232438647D01*
X306079532Y-232442049D01*
X306079315Y-232443508D01*
X306080394Y-232450805D01*
X306081118Y-232458156D01*
X306081682Y-232459519D01*
X306082183Y-232462901D01*
X306129802Y-232653376D01*
X306130315Y-232654813D01*
X306130367Y-232655536D01*
X306133475Y-232663660D01*
X306136397Y-232671837D01*
X306136827Y-232672417D01*
X306137373Y-232673844D01*
X306184992Y-232769082D01*
X306190274Y-232777474D01*
X306191287Y-232779918D01*
X306193543Y-232782667D01*
X306195435Y-232785672D01*
X306197429Y-232787401D01*
X306203724Y-232795071D01*
X306298962Y-232890311D01*
X306314115Y-232902747D01*
X306317434Y-232904122D01*
X306320150Y-232906477D01*
X306338050Y-232914468D01*
X306480907Y-232962087D01*
X306490579Y-232964286D01*
X306493021Y-232965298D01*
X306496558Y-232965646D01*
X306500022Y-232966434D01*
X306502656Y-232966246D01*
X306512530Y-232967219D01*
X306607768Y-232967219D01*
X306617641Y-232966246D01*
X306620275Y-232966434D01*
X306623738Y-232965646D01*
X306627277Y-232965298D01*
X306629719Y-232964286D01*
X306639391Y-232962087D01*
X306782247Y-232914468D01*
X306800148Y-232906477D01*
X306802863Y-232904122D01*
X306806183Y-232902747D01*
X306821336Y-232890310D01*
X306868955Y-232842690D01*
X306881392Y-232827537D01*
X306896323Y-232791488D01*
X306896322Y-232752470D01*
X306881391Y-232716422D01*
X306853800Y-232688832D01*
X306817752Y-232673901D01*
X306778734Y-232673902D01*
X306742686Y-232688833D01*
X306727532Y-232701270D01*
X306696605Y-232732197D01*
X306591541Y-232767219D01*
X306528756Y-232767219D01*
X306423691Y-232732197D01*
X306356621Y-232665127D01*
X306321167Y-232594218D01*
X306279197Y-232426337D01*
X306279197Y-232308100D01*
X306321167Y-232140218D01*
X306356620Y-232069312D01*
X306423692Y-232002240D01*
X306528756Y-231967219D01*
X306591541Y-231967219D01*
X306696606Y-232002240D01*
X306727533Y-232033167D01*
X306742686Y-232045604D01*
X306778735Y-232060535D01*
X306817753Y-232060535D01*
X306853801Y-232045604D01*
X306881391Y-232018014D01*
X306896322Y-231981966D01*
X306896322Y-231942948D01*
X306881391Y-231906899D01*
X306868954Y-231891746D01*
X306844428Y-231867219D01*
X307126816Y-231867219D01*
X307126816Y-232867219D01*
X307128737Y-232886728D01*
X307143669Y-232922776D01*
X307171259Y-232950366D01*
X307207307Y-232965298D01*
X307226816Y-232967219D01*
X307703006Y-232967219D01*
X307722515Y-232965298D01*
X307758563Y-232950366D01*
X307786153Y-232922776D01*
X307801085Y-232886728D01*
X307801085Y-232847710D01*
X307786153Y-232811662D01*
X307758563Y-232784072D01*
X307722515Y-232769140D01*
X307703006Y-232767219D01*
X307326816Y-232767219D01*
X307326816Y-232443409D01*
X307560149Y-232443409D01*
X307579658Y-232441488D01*
X307615706Y-232426556D01*
X307643296Y-232398966D01*
X307658228Y-232362918D01*
X307658228Y-232323900D01*
X307643296Y-232287852D01*
X307615706Y-232260262D01*
X307579658Y-232245330D01*
X307560149Y-232243409D01*
X307326816Y-232243409D01*
X307326816Y-231967219D01*
X307703006Y-231967219D01*
X307722515Y-231965298D01*
X307758563Y-231950366D01*
X307786153Y-231922776D01*
X307801085Y-231886728D01*
X307801085Y-231867219D01*
X308031578Y-231867219D01*
X308031578Y-232867219D01*
X308033499Y-232886728D01*
X308048431Y-232922776D01*
X308076021Y-232950366D01*
X308112069Y-232965298D01*
X308151087Y-232965298D01*
X308187135Y-232950366D01*
X308214725Y-232922776D01*
X308229657Y-232886728D01*
X308231578Y-232867219D01*
X308231578Y-232491028D01*
X308317608Y-232491028D01*
X308621083Y-232924565D01*
X308633844Y-232939446D01*
X308666749Y-232960415D01*
X308705174Y-232967196D01*
X308743268Y-232958756D01*
X308775233Y-232936381D01*
X308796202Y-232903476D01*
X308802983Y-232865052D01*
X308794543Y-232826957D01*
X308784929Y-232809873D01*
X308554961Y-232481347D01*
X308557251Y-232480471D01*
X308652489Y-232432852D01*
X308660885Y-232427566D01*
X308663325Y-232426556D01*
X308666071Y-232424302D01*
X308669079Y-232422409D01*
X308670808Y-232420414D01*
X308678479Y-232414120D01*
X308726097Y-232366501D01*
X308732389Y-232358834D01*
X308734387Y-232357102D01*
X308736280Y-232354093D01*
X308738534Y-232351348D01*
X308739544Y-232348907D01*
X308744830Y-232340511D01*
X308792449Y-232245274D01*
X308799455Y-232226965D01*
X308799709Y-232223381D01*
X308801085Y-232220061D01*
X308803006Y-232200552D01*
X308803006Y-232057695D01*
X308801085Y-232038186D01*
X308799709Y-232034865D01*
X308799455Y-232031282D01*
X308792449Y-232012973D01*
X308744830Y-231917736D01*
X308739544Y-231909339D01*
X308738534Y-231906899D01*
X308736280Y-231904153D01*
X308734387Y-231901145D01*
X308732389Y-231899412D01*
X308726097Y-231891746D01*
X308678479Y-231844127D01*
X308670808Y-231837832D01*
X308669079Y-231835838D01*
X308666071Y-231833944D01*
X308663325Y-231831691D01*
X308660885Y-231830680D01*
X308652489Y-231825395D01*
X308557251Y-231777776D01*
X308538943Y-231770770D01*
X308535359Y-231770515D01*
X308532039Y-231769140D01*
X308512530Y-231767219D01*
X308131578Y-231767219D01*
X308112069Y-231769140D01*
X308076021Y-231784072D01*
X308048431Y-231811662D01*
X308033499Y-231847710D01*
X308031578Y-231867219D01*
X307801085Y-231867219D01*
X307801085Y-231847710D01*
X307786153Y-231811662D01*
X307758563Y-231784072D01*
X307722515Y-231769140D01*
X307703006Y-231767219D01*
X307226816Y-231767219D01*
X307207307Y-231769140D01*
X307171259Y-231784072D01*
X307143669Y-231811662D01*
X307128737Y-231847710D01*
X307126816Y-231867219D01*
X306844428Y-231867219D01*
X306821336Y-231844127D01*
X306806182Y-231831691D01*
X306802863Y-231830316D01*
X306800148Y-231827961D01*
X306782247Y-231819970D01*
X306639391Y-231772351D01*
X306629719Y-231770151D01*
X306627277Y-231769140D01*
X306623738Y-231768791D01*
X306620275Y-231768004D01*
X306617641Y-231768191D01*
X306607768Y-231767219D01*
X306512530Y-231767219D01*
X306502656Y-231768191D01*
X306500022Y-231768004D01*
X306496558Y-231768791D01*
X306493021Y-231769140D01*
X306490579Y-231770151D01*
X306480907Y-231772351D01*
X306338050Y-231819970D01*
X306320150Y-231827961D01*
X306317434Y-231830316D01*
X306314116Y-231831691D01*
X306298962Y-231844127D01*
X306203724Y-231939365D01*
X306197429Y-231947035D01*
X306195435Y-231948765D01*
X306193541Y-231951772D01*
X306191288Y-231954519D01*
X306190277Y-231956958D01*
X306184992Y-231965355D01*
X306137373Y-232060593D01*
X306136827Y-232062019D01*
X306136397Y-232062600D01*
X306133475Y-232070776D01*
X306130367Y-232078901D01*
X306130315Y-232079623D01*
X306129802Y-232081061D01*
X306082183Y-232271536D01*
X306081682Y-232274917D01*
X306081118Y-232276281D01*
X306080394Y-232283631D01*
X306079315Y-232290929D01*
X306079532Y-232292387D01*
X306079197Y-232295790D01*
X305850625Y-232295790D01*
X305850625Y-231867219D01*
X305848704Y-231847710D01*
X305833772Y-231811662D01*
X305806182Y-231784072D01*
X305770134Y-231769140D01*
X305731116Y-231769140D01*
X305695068Y-231784072D01*
X305667478Y-231811662D01*
X305652546Y-231847710D01*
X305650625Y-231867219D01*
X305650625Y-232490662D01*
X305266021Y-231817605D01*
X305263102Y-231813494D01*
X305262344Y-231811662D01*
X305260477Y-231809795D01*
X305254674Y-231801620D01*
X305244159Y-231793477D01*
X305234754Y-231784072D01*
X305228863Y-231781632D01*
X305223825Y-231777730D01*
X305210996Y-231774231D01*
X305198706Y-231769140D01*
X305192331Y-231769140D01*
X305186182Y-231767463D01*
X305172989Y-231769140D01*
X305159688Y-231769140D01*
X305153799Y-231771579D01*
X305147475Y-231772383D01*
X305135925Y-231778983D01*
X305123640Y-231784072D01*
X305119132Y-231788579D01*
X305113598Y-231791742D01*
X305105455Y-231802256D01*
X305096050Y-231811662D01*
X305093610Y-231817552D01*
X305089708Y-231822591D01*
X305086209Y-231835419D01*
X305081118Y-231847710D01*
X305080135Y-231857687D01*
X305079441Y-231860234D01*
X305079691Y-231862201D01*
X305079197Y-231867219D01*
X304848704Y-231867219D01*
X304848704Y-231847710D01*
X304833772Y-231811662D01*
X304806182Y-231784072D01*
X304770134Y-231769140D01*
X304750625Y-231767219D01*
X304274435Y-231767219D01*
X304254926Y-231769140D01*
X304218878Y-231784072D01*
X304191288Y-231811662D01*
X304176356Y-231847710D01*
X304174435Y-231867219D01*
X303898244Y-231867219D01*
X303896323Y-231847710D01*
X303881391Y-231811662D01*
X303853801Y-231784072D01*
X303817753Y-231769140D01*
X303778735Y-231769140D01*
X303742687Y-231784072D01*
X303715097Y-231811662D01*
X303700165Y-231847710D01*
X303698244Y-231867219D01*
X303698244Y-232653135D01*
X303668439Y-232712743D01*
X303643770Y-232737413D01*
X303584161Y-232767219D01*
X303440899Y-232767219D01*
X303381289Y-232737414D01*
X303356622Y-232712746D01*
X303326816Y-232653134D01*
X303326816Y-231867219D01*
X303324895Y-231847710D01*
X303309963Y-231811662D01*
X303282373Y-231784072D01*
X303246325Y-231769140D01*
X303207307Y-231769140D01*
X303171259Y-231784072D01*
X303143669Y-231811662D01*
X303128737Y-231847710D01*
X303126816Y-231867219D01*
X302749190Y-231867219D01*
X302726098Y-231844127D01*
X302718427Y-231837832D01*
X302716698Y-231835838D01*
X302713690Y-231833944D01*
X302710944Y-231831691D01*
X302708504Y-231830680D01*
X302700108Y-231825395D01*
X302604870Y-231777776D01*
X302586562Y-231770770D01*
X302582978Y-231770515D01*
X302579658Y-231769140D01*
X302560149Y-231767219D01*
X302369673Y-231767219D01*
X302350164Y-231769140D01*
X302346843Y-231770515D01*
X302343260Y-231770770D01*
X302324951Y-231777776D01*
X302229714Y-231825395D01*
X302221315Y-231830681D01*
X302218878Y-231831691D01*
X302216134Y-231833942D01*
X302213123Y-231835838D01*
X302211390Y-231837835D01*
X302203724Y-231844127D01*
X302108486Y-231939365D01*
X302096050Y-231954519D01*
X302093204Y-231961387D01*
X302088778Y-231967362D01*
X302082183Y-231985823D01*
X302034564Y-232176298D01*
X302034063Y-232179679D01*
X302033499Y-232181043D01*
X302032775Y-232188393D01*
X302031696Y-232195691D01*
X302031913Y-232197149D01*
X302031578Y-232200552D01*
X301374435Y-232200552D01*
X301374435Y-231967219D01*
X301750625Y-231967219D01*
X301770134Y-231965298D01*
X301806182Y-231950366D01*
X301833772Y-231922776D01*
X301848704Y-231886728D01*
X301848704Y-231847710D01*
X301833772Y-231811662D01*
X301806182Y-231784072D01*
X301770134Y-231769140D01*
X301750625Y-231767219D01*
X301274435Y-231767219D01*
X301254926Y-231769140D01*
X301218878Y-231784072D01*
X301191288Y-231811662D01*
X301176356Y-231847710D01*
X301174435Y-231867219D01*
X300931708Y-231867219D01*
X300924862Y-231853526D01*
X300895386Y-231827961D01*
X300877485Y-231819970D01*
X300734629Y-231772351D01*
X300724957Y-231770151D01*
X300722515Y-231769140D01*
X300718976Y-231768791D01*
X300715513Y-231768004D01*
X300712879Y-231768191D01*
X300703006Y-231767219D01*
X300464911Y-231767219D01*
X300445402Y-231769140D01*
X300442081Y-231770515D01*
X300438498Y-231770770D01*
X300420189Y-231777776D01*
X300324952Y-231825395D01*
X300316555Y-231830680D01*
X300314115Y-231831691D01*
X300311369Y-231833944D01*
X300308361Y-231835838D01*
X300306628Y-231837835D01*
X300298962Y-231844128D01*
X300251343Y-231891746D01*
X300245048Y-231899416D01*
X300243054Y-231901146D01*
X300241160Y-231904153D01*
X300238907Y-231906900D01*
X300237896Y-231909339D01*
X300232611Y-231917736D01*
X300184992Y-232012974D01*
X300177986Y-232031282D01*
X300177731Y-232034865D01*
X300176356Y-232038186D01*
X300174435Y-232057695D01*
X299183959Y-232057695D01*
X299183959Y-231867219D01*
X299182038Y-231847710D01*
X299167106Y-231811662D01*
X299139516Y-231784072D01*
X299103468Y-231769140D01*
X299064450Y-231769140D01*
X299028402Y-231784072D01*
X299000812Y-231811662D01*
X298985880Y-231847710D01*
X298983959Y-231867219D01*
X298558714Y-231867219D01*
X298535622Y-231844127D01*
X298520468Y-231831691D01*
X298517149Y-231830316D01*
X298514434Y-231827961D01*
X298496533Y-231819970D01*
X298353677Y-231772351D01*
X298344005Y-231770151D01*
X298341563Y-231769140D01*
X298338024Y-231768791D01*
X298334561Y-231768004D01*
X298331927Y-231768191D01*
X298322054Y-231767219D01*
X298083959Y-231767219D01*
X298064450Y-231769140D01*
X298028402Y-231784072D01*
X298000812Y-231811662D01*
X297985880Y-231847710D01*
X297983959Y-231867219D01*
X297707769Y-231867219D01*
X297705848Y-231847710D01*
X297690916Y-231811662D01*
X297663326Y-231784072D01*
X297627278Y-231769140D01*
X297588260Y-231769140D01*
X297552212Y-231784072D01*
X297524622Y-231811662D01*
X297509690Y-231847710D01*
X297507769Y-231867219D01*
X297231578Y-231867219D01*
X297230315Y-231854395D01*
X297230419Y-231852036D01*
X297229958Y-231850768D01*
X297229657Y-231847710D01*
X297223016Y-231831679D01*
X297217085Y-231815367D01*
X297215578Y-231813721D01*
X297214725Y-231811662D01*
X297202463Y-231799400D01*
X297190733Y-231786591D01*
X297188709Y-231785646D01*
X297187135Y-231784072D01*
X297171119Y-231777437D01*
X297155376Y-231770091D01*
X297153146Y-231769993D01*
X297151087Y-231769140D01*
X297133735Y-231769140D01*
X297116395Y-231768378D01*
X297114299Y-231769140D01*
X297112069Y-231769140D01*
X297096038Y-231775780D01*
X297079726Y-231781712D01*
X297078080Y-231783218D01*
X297076021Y-231784072D01*
X297063753Y-231796339D01*
X297050951Y-231808064D01*
X297049384Y-231810708D01*
X297048431Y-231811662D01*
X297047527Y-231813843D01*
X297040960Y-231824930D01*
X296798244Y-232345033D01*
X296555530Y-231824930D01*
X296548962Y-231813843D01*
X296548059Y-231811662D01*
X296547105Y-231810708D01*
X296545539Y-231808064D01*
X296532742Y-231796345D01*
X296520469Y-231784072D01*
X296518407Y-231783218D01*
X296516764Y-231781713D01*
X296500462Y-231775784D01*
X296484421Y-231769140D01*
X296482190Y-231769140D01*
X296480095Y-231768378D01*
X296462755Y-231769140D01*
X296445403Y-231769140D01*
X296443343Y-231769993D01*
X296441115Y-231770091D01*
X296425384Y-231777432D01*
X296409355Y-231784072D01*
X296407778Y-231785648D01*
X296405757Y-231786592D01*
X296394038Y-231799388D01*
X296381765Y-231811662D01*
X296380911Y-231813723D01*
X296379406Y-231815367D01*
X296373477Y-231831668D01*
X296366833Y-231847710D01*
X296366531Y-231850768D01*
X296366071Y-231852036D01*
X296366174Y-231854395D01*
X296364912Y-231867219D01*
X294993483Y-231867219D01*
X294991562Y-231847710D01*
X294976630Y-231811662D01*
X294949040Y-231784072D01*
X294912992Y-231769140D01*
X294873974Y-231769140D01*
X294837926Y-231784072D01*
X294810336Y-231811662D01*
X294795404Y-231847710D01*
X294793483Y-231867219D01*
X294562990Y-231867219D01*
X294562990Y-231847710D01*
X294548058Y-231811662D01*
X294520468Y-231784072D01*
X294484420Y-231769140D01*
X294464911Y-231767219D01*
X293988721Y-231767219D01*
X293969212Y-231769140D01*
X293933164Y-231784072D01*
X293905574Y-231811662D01*
X293890642Y-231847710D01*
X293888721Y-231867219D01*
X293612530Y-231867219D01*
X293610609Y-231847710D01*
X293595677Y-231811662D01*
X293568087Y-231784072D01*
X293532039Y-231769140D01*
X293493021Y-231769140D01*
X293456973Y-231784072D01*
X293429383Y-231811662D01*
X293414451Y-231847710D01*
X293412530Y-231867219D01*
X293412530Y-232490662D01*
X293027926Y-231817605D01*
X293025007Y-231813494D01*
X293024249Y-231811662D01*
X293022382Y-231809795D01*
X293016579Y-231801620D01*
X293006064Y-231793477D01*
X292996659Y-231784072D01*
X292990768Y-231781632D01*
X292985730Y-231777730D01*
X292972901Y-231774231D01*
X292960611Y-231769140D01*
X292954236Y-231769140D01*
X292948087Y-231767463D01*
X292934894Y-231769140D01*
X292921593Y-231769140D01*
X292915704Y-231771579D01*
X292909380Y-231772383D01*
X292897830Y-231778983D01*
X292885545Y-231784072D01*
X292881037Y-231788579D01*
X292875503Y-231791742D01*
X292867360Y-231802256D01*
X292857955Y-231811662D01*
X292855515Y-231817552D01*
X292851613Y-231822591D01*
X292848114Y-231835419D01*
X292843023Y-231847710D01*
X292842040Y-231857687D01*
X292841346Y-231860234D01*
X292841596Y-231862201D01*
X292841102Y-231867219D01*
X292564911Y-231867219D01*
X292562990Y-231847710D01*
X292548058Y-231811662D01*
X292520468Y-231784072D01*
X292484420Y-231769140D01*
X292445402Y-231769140D01*
X292409354Y-231784072D01*
X292381764Y-231811662D01*
X292366832Y-231847710D01*
X292364911Y-231867219D01*
X292364911Y-232490662D01*
X291980307Y-231817605D01*
X291977388Y-231813494D01*
X291976630Y-231811662D01*
X291974763Y-231809795D01*
X291968960Y-231801620D01*
X291958445Y-231793477D01*
X291949040Y-231784072D01*
X291943149Y-231781632D01*
X291938111Y-231777730D01*
X291925282Y-231774231D01*
X291912992Y-231769140D01*
X291906617Y-231769140D01*
X291900468Y-231767463D01*
X291887275Y-231769140D01*
X291873974Y-231769140D01*
X291868085Y-231771579D01*
X291861761Y-231772383D01*
X291850211Y-231778983D01*
X291837926Y-231784072D01*
X291833418Y-231788579D01*
X291827884Y-231791742D01*
X291819741Y-231802256D01*
X291810336Y-231811662D01*
X291807896Y-231817552D01*
X291803994Y-231822591D01*
X291800495Y-231835419D01*
X291795404Y-231847710D01*
X291794421Y-231857687D01*
X291793727Y-231860234D01*
X291793977Y-231862201D01*
X291793483Y-231867219D01*
X291332225Y-231867219D01*
X291321684Y-231835596D01*
X291313693Y-231817696D01*
X291309008Y-231812294D01*
X291305815Y-231805908D01*
X291296346Y-231797695D01*
X291288128Y-231788220D01*
X291281736Y-231785023D01*
X291276339Y-231780343D01*
X291264445Y-231776378D01*
X291253229Y-231770770D01*
X291246101Y-231770263D01*
X291239323Y-231768004D01*
X291226818Y-231768893D01*
X291214309Y-231768004D01*
X291207527Y-231770264D01*
X291200403Y-231770771D01*
X291189194Y-231776374D01*
X291177293Y-231780342D01*
X291171892Y-231785025D01*
X291165504Y-231788220D01*
X291157288Y-231797691D01*
X291147817Y-231805907D01*
X291144622Y-231812296D01*
X291139939Y-231817696D01*
X291131948Y-231835597D01*
X290798615Y-232835596D01*
X290794268Y-232854712D01*
X290660149Y-232854712D01*
X290660149Y-231867219D01*
X290658228Y-231847710D01*
X290643296Y-231811662D01*
X290615706Y-231784072D01*
X290579658Y-231769140D01*
X290540640Y-231769140D01*
X290504592Y-231784072D01*
X290477002Y-231811662D01*
X290462070Y-231847710D01*
X290460149Y-231867219D01*
X290460149Y-232243409D01*
X290088721Y-232243409D01*
X290088721Y-231867219D01*
X290086800Y-231847710D01*
X290071868Y-231811662D01*
X290044278Y-231784072D01*
X290008230Y-231769140D01*
X289969212Y-231769140D01*
X289933164Y-231784072D01*
X289905574Y-231811662D01*
X289890642Y-231847710D01*
X289888721Y-231867219D01*
X289606333Y-231867219D01*
X289583241Y-231844127D01*
X289568087Y-231831691D01*
X289564768Y-231830316D01*
X289562053Y-231827961D01*
X289544152Y-231819970D01*
X289401296Y-231772351D01*
X289391624Y-231770151D01*
X289389182Y-231769140D01*
X289385643Y-231768791D01*
X289382180Y-231768004D01*
X289379546Y-231768191D01*
X289369673Y-231767219D01*
X289274435Y-231767219D01*
X289264561Y-231768191D01*
X289261927Y-231768004D01*
X289258463Y-231768791D01*
X289254926Y-231769140D01*
X289252484Y-231770151D01*
X289242812Y-231772351D01*
X289099955Y-231819970D01*
X289082055Y-231827961D01*
X289079339Y-231830316D01*
X289076021Y-231831691D01*
X289060867Y-231844127D01*
X288965629Y-231939365D01*
X288959334Y-231947035D01*
X288957340Y-231948765D01*
X288955446Y-231951772D01*
X288953193Y-231954519D01*
X288952182Y-231956958D01*
X288946897Y-231965355D01*
X288899278Y-232060593D01*
X288898732Y-232062019D01*
X288898302Y-232062600D01*
X288895380Y-232070776D01*
X288892272Y-232078901D01*
X288892220Y-232079623D01*
X288891707Y-232081061D01*
X288844088Y-232271536D01*
X288843587Y-232274917D01*
X288843023Y-232276281D01*
X288842299Y-232283631D01*
X288841220Y-232290929D01*
X288841437Y-232292387D01*
X288841102Y-232295790D01*
X287838244Y-232295790D01*
X287834782Y-232290291D01*
X287833772Y-232287851D01*
X287831518Y-232285105D01*
X287829625Y-232282097D01*
X287827627Y-232280364D01*
X287821335Y-232272698D01*
X287773717Y-232225079D01*
X287766046Y-232218784D01*
X287764317Y-232216790D01*
X287761309Y-232214896D01*
X287758563Y-232212643D01*
X287756123Y-232211632D01*
X287747727Y-232206347D01*
X287652489Y-232158728D01*
X287634181Y-232151722D01*
X287630597Y-232151467D01*
X287627277Y-232150092D01*
X287607768Y-232148171D01*
X287417292Y-232148171D01*
X287397783Y-232150092D01*
X287394462Y-232151467D01*
X287390879Y-232151722D01*
X287372570Y-232158728D01*
X287362957Y-232163534D01*
X287367248Y-232146372D01*
X287447384Y-232026167D01*
X287476527Y-231997023D01*
X287536137Y-231967219D01*
X287703006Y-231967219D01*
X287722515Y-231965298D01*
X287758563Y-231950366D01*
X287786153Y-231922776D01*
X287801085Y-231886728D01*
X287801085Y-231847710D01*
X287786153Y-231811662D01*
X287758563Y-231784072D01*
X287722515Y-231769140D01*
X287703006Y-231767219D01*
X287512530Y-231767219D01*
X287493021Y-231769140D01*
X287489700Y-231770515D01*
X287486117Y-231770770D01*
X287467808Y-231777776D01*
X287372571Y-231825395D01*
X287364174Y-231830680D01*
X287361734Y-231831691D01*
X287358988Y-231833944D01*
X287355980Y-231835838D01*
X287354247Y-231837835D01*
X287346581Y-231844128D01*
X287298962Y-231891746D01*
X287298917Y-231891800D01*
X287298888Y-231891820D01*
X287293057Y-231898941D01*
X287286526Y-231906900D01*
X287286512Y-231906932D01*
X287286468Y-231906987D01*
X287191230Y-232049844D01*
X287185487Y-232060613D01*
X287184016Y-232062600D01*
X287183178Y-232064945D01*
X287182007Y-232067142D01*
X287181527Y-232069565D01*
X287177421Y-232081061D01*
X287129802Y-232271536D01*
X287129301Y-232274917D01*
X287128737Y-232276281D01*
X287128013Y-232283631D01*
X287126934Y-232290929D01*
X287127151Y-232292387D01*
X287126816Y-232295790D01*
X286660149Y-232295790D01*
X286660149Y-231867219D01*
X286660142Y-231867148D01*
X286660149Y-231867114D01*
X286660128Y-231867012D01*
X286658228Y-231847710D01*
X286654438Y-231838561D01*
X286652497Y-231828854D01*
X286647045Y-231820713D01*
X286643296Y-231811662D01*
X286636296Y-231804662D01*
X286630786Y-231796434D01*
X286622631Y-231790997D01*
X286615706Y-231784072D01*
X286606562Y-231780284D01*
X286598321Y-231774790D01*
X286588707Y-231772888D01*
X286579658Y-231769140D01*
X286569757Y-231769140D01*
X286560045Y-231767219D01*
X286550440Y-231769140D01*
X286540640Y-231769140D01*
X286531491Y-231772929D01*
X286521784Y-231774871D01*
X286513643Y-231780322D01*
X286504592Y-231784072D01*
X286497592Y-231791071D01*
X286489364Y-231796582D01*
X286477075Y-231811588D01*
X286477002Y-231811662D01*
X286476988Y-231811694D01*
X286476944Y-231811749D01*
X286387200Y-231946365D01*
X286310436Y-232023128D01*
X286229714Y-232063490D01*
X286213123Y-232073933D01*
X286187559Y-232103410D01*
X286175220Y-232140426D01*
X285219623Y-232140426D01*
X285180972Y-231985822D01*
X285174377Y-231967362D01*
X285169950Y-231961387D01*
X285167105Y-231954519D01*
X285154669Y-231939365D01*
X285059431Y-231844127D01*
X285051760Y-231837832D01*
X285050031Y-231835838D01*
X285047023Y-231833944D01*
X285044277Y-231831691D01*
X285041837Y-231830680D01*
X285033441Y-231825395D01*
X284938203Y-231777776D01*
X284919895Y-231770770D01*
X284916311Y-231770515D01*
X284912991Y-231769140D01*
X284893482Y-231767219D01*
X284703006Y-231767219D01*
X284683497Y-231769140D01*
X284680176Y-231770515D01*
X284676593Y-231770770D01*
X284658284Y-231777776D01*
X284563047Y-231825395D01*
X284554648Y-231830681D01*
X284552211Y-231831691D01*
X284549467Y-231833942D01*
X284546456Y-231835838D01*
X284544723Y-231837835D01*
X284537057Y-231844127D01*
X284441819Y-231939365D01*
X284429383Y-231954519D01*
X284426537Y-231961387D01*
X284422111Y-231967362D01*
X284415516Y-231985823D01*
X284367897Y-232176298D01*
X284367396Y-232179679D01*
X284366832Y-232181043D01*
X284366108Y-232188393D01*
X284365029Y-232195691D01*
X284365246Y-232197149D01*
X284364911Y-232200552D01*
X284136339Y-232200552D01*
X284136339Y-231867219D01*
X284135076Y-231854395D01*
X284135180Y-231852036D01*
X284134719Y-231850768D01*
X284134418Y-231847710D01*
X284127777Y-231831679D01*
X284121846Y-231815367D01*
X284120339Y-231813721D01*
X284119486Y-231811662D01*
X284107224Y-231799400D01*
X284095494Y-231786591D01*
X284093470Y-231785646D01*
X284091896Y-231784072D01*
X284075880Y-231777437D01*
X284060137Y-231770091D01*
X284057907Y-231769993D01*
X284055848Y-231769140D01*
X284038496Y-231769140D01*
X284021156Y-231768378D01*
X284019060Y-231769140D01*
X284016830Y-231769140D01*
X284000799Y-231775780D01*
X283984487Y-231781712D01*
X283982841Y-231783218D01*
X283980782Y-231784072D01*
X283968514Y-231796339D01*
X283955712Y-231808064D01*
X283954145Y-231810708D01*
X283953192Y-231811662D01*
X283952288Y-231813843D01*
X283945721Y-231824930D01*
X283703005Y-232345033D01*
X283460291Y-231824930D01*
X283453723Y-231813843D01*
X283452820Y-231811662D01*
X283451866Y-231810708D01*
X283450300Y-231808064D01*
X283437503Y-231796345D01*
X283425230Y-231784072D01*
X283423168Y-231783218D01*
X283421525Y-231781713D01*
X283405223Y-231775784D01*
X283389182Y-231769140D01*
X283386951Y-231769140D01*
X283384856Y-231768378D01*
X283367516Y-231769140D01*
X283350164Y-231769140D01*
X283348104Y-231769993D01*
X283345876Y-231770091D01*
X283330145Y-231777432D01*
X283314116Y-231784072D01*
X283312539Y-231785648D01*
X283310518Y-231786592D01*
X283298799Y-231799388D01*
X283286526Y-231811662D01*
X283285672Y-231813723D01*
X283284167Y-231815367D01*
X283278238Y-231831668D01*
X283271594Y-231847710D01*
X283271292Y-231850768D01*
X283270832Y-231852036D01*
X283270935Y-231854395D01*
X283269673Y-231867219D01*
X283026946Y-231867219D01*
X283020100Y-231853526D01*
X282990624Y-231827961D01*
X282972723Y-231819970D01*
X282829867Y-231772351D01*
X282820195Y-231770151D01*
X282817753Y-231769140D01*
X282814214Y-231768791D01*
X282810751Y-231768004D01*
X282808117Y-231768191D01*
X282798244Y-231767219D01*
X282560149Y-231767219D01*
X282540640Y-231769140D01*
X282537319Y-231770515D01*
X282533736Y-231770770D01*
X282515427Y-231777776D01*
X282420190Y-231825395D01*
X282411793Y-231830680D01*
X282409353Y-231831691D01*
X282406607Y-231833944D01*
X282403599Y-231835838D01*
X282401866Y-231837835D01*
X282394200Y-231844128D01*
X282346581Y-231891746D01*
X282340286Y-231899416D01*
X282338292Y-231901146D01*
X282336398Y-231904153D01*
X282334145Y-231906900D01*
X282333134Y-231909339D01*
X282327849Y-231917736D01*
X282280230Y-232012974D01*
X282273224Y-232031282D01*
X282272969Y-232034865D01*
X282271594Y-232038186D01*
X282269673Y-232057695D01*
X282056083Y-232057695D01*
X282038115Y-231985822D01*
X282031520Y-231967362D01*
X282027093Y-231961387D01*
X282024248Y-231954519D01*
X282011812Y-231939365D01*
X281916574Y-231844127D01*
X281908903Y-231837832D01*
X281907174Y-231835838D01*
X281904166Y-231833944D01*
X281901420Y-231831691D01*
X281898980Y-231830680D01*
X281890584Y-231825395D01*
X281795346Y-231777776D01*
X281777038Y-231770770D01*
X281773454Y-231770515D01*
X281770134Y-231769140D01*
X281750625Y-231767219D01*
X281560149Y-231767219D01*
X281540640Y-231769140D01*
X281537319Y-231770515D01*
X281533736Y-231770770D01*
X281515427Y-231777776D01*
X281420190Y-231825395D01*
X281411791Y-231830681D01*
X281409354Y-231831691D01*
X281406610Y-231833942D01*
X281403599Y-231835838D01*
X281401866Y-231837835D01*
X281394200Y-231844127D01*
X281298962Y-231939365D01*
X281286526Y-231954519D01*
X281283680Y-231961387D01*
X281279254Y-231967362D01*
X281272659Y-231985823D01*
X281225040Y-232176298D01*
X281224539Y-232179679D01*
X281223975Y-232181043D01*
X281223251Y-232188393D01*
X281222172Y-232195691D01*
X281222389Y-232197149D01*
X281222054Y-232200552D01*
X280749189Y-232200552D01*
X281011812Y-231937930D01*
X281024248Y-231922777D01*
X281039179Y-231886728D01*
X281039179Y-231847710D01*
X281024248Y-231811662D01*
X280996658Y-231784072D01*
X280960610Y-231769141D01*
X280921592Y-231769141D01*
X280885543Y-231784072D01*
X280870390Y-231796508D01*
X280469673Y-232197225D01*
X280469673Y-231867219D01*
X280467752Y-231847710D01*
X280452820Y-231811662D01*
X280425230Y-231784072D01*
X280389182Y-231769140D01*
X280350164Y-231769140D01*
X280314116Y-231784072D01*
X280286526Y-231811662D01*
X280271594Y-231847710D01*
X280269673Y-231867219D01*
X280158562Y-231867219D01*
X280158562Y-231656108D01*
X308914117Y-231656108D01*
X308914117Y-233172783D01*
G37*
D12*
X303857142Y-317454819D02*
X303523809Y-316978628D01*
X303285714Y-317454819D02*
X303285714Y-316454819D01*
X303285714Y-316454819D02*
X303666666Y-316454819D01*
X303666666Y-316454819D02*
X303761904Y-316502438D01*
X303761904Y-316502438D02*
X303809523Y-316550057D01*
X303809523Y-316550057D02*
X303857142Y-316645295D01*
X303857142Y-316645295D02*
X303857142Y-316788152D01*
X303857142Y-316788152D02*
X303809523Y-316883390D01*
X303809523Y-316883390D02*
X303761904Y-316931009D01*
X303761904Y-316931009D02*
X303666666Y-316978628D01*
X303666666Y-316978628D02*
X303285714Y-316978628D01*
X304238095Y-316550057D02*
X304285714Y-316502438D01*
X304285714Y-316502438D02*
X304380952Y-316454819D01*
X304380952Y-316454819D02*
X304619047Y-316454819D01*
X304619047Y-316454819D02*
X304714285Y-316502438D01*
X304714285Y-316502438D02*
X304761904Y-316550057D01*
X304761904Y-316550057D02*
X304809523Y-316645295D01*
X304809523Y-316645295D02*
X304809523Y-316740533D01*
X304809523Y-316740533D02*
X304761904Y-316883390D01*
X304761904Y-316883390D02*
X304190476Y-317454819D01*
X304190476Y-317454819D02*
X304809523Y-317454819D01*
X305761904Y-317454819D02*
X305190476Y-317454819D01*
X305476190Y-317454819D02*
X305476190Y-316454819D01*
X305476190Y-316454819D02*
X305380952Y-316597676D01*
X305380952Y-316597676D02*
X305285714Y-316692914D01*
X305285714Y-316692914D02*
X305190476Y-316740533D01*
X293508016Y-187180930D02*
X293508016Y-187990453D01*
X293508016Y-187990453D02*
X293555635Y-188085691D01*
X293555635Y-188085691D02*
X293603254Y-188133311D01*
X293603254Y-188133311D02*
X293698492Y-188180930D01*
X293698492Y-188180930D02*
X293888968Y-188180930D01*
X293888968Y-188180930D02*
X293984206Y-188133311D01*
X293984206Y-188133311D02*
X294031825Y-188085691D01*
X294031825Y-188085691D02*
X294079444Y-187990453D01*
X294079444Y-187990453D02*
X294079444Y-187180930D01*
X294460397Y-187180930D02*
X295079444Y-187180930D01*
X295079444Y-187180930D02*
X294746111Y-187561882D01*
X294746111Y-187561882D02*
X294888968Y-187561882D01*
X294888968Y-187561882D02*
X294984206Y-187609501D01*
X294984206Y-187609501D02*
X295031825Y-187657120D01*
X295031825Y-187657120D02*
X295079444Y-187752358D01*
X295079444Y-187752358D02*
X295079444Y-187990453D01*
X295079444Y-187990453D02*
X295031825Y-188085691D01*
X295031825Y-188085691D02*
X294984206Y-188133311D01*
X294984206Y-188133311D02*
X294888968Y-188180930D01*
X294888968Y-188180930D02*
X294603254Y-188180930D01*
X294603254Y-188180930D02*
X294508016Y-188133311D01*
X294508016Y-188133311D02*
X294460397Y-188085691D01*
X295412778Y-187180930D02*
X296031825Y-187180930D01*
X296031825Y-187180930D02*
X295698492Y-187561882D01*
X295698492Y-187561882D02*
X295841349Y-187561882D01*
X295841349Y-187561882D02*
X295936587Y-187609501D01*
X295936587Y-187609501D02*
X295984206Y-187657120D01*
X295984206Y-187657120D02*
X296031825Y-187752358D01*
X296031825Y-187752358D02*
X296031825Y-187990453D01*
X296031825Y-187990453D02*
X295984206Y-188085691D01*
X295984206Y-188085691D02*
X295936587Y-188133311D01*
X295936587Y-188133311D02*
X295841349Y-188180930D01*
X295841349Y-188180930D02*
X295555635Y-188180930D01*
X295555635Y-188180930D02*
X295460397Y-188133311D01*
X295460397Y-188133311D02*
X295412778Y-188085691D01*
X241850930Y-330251004D02*
X242565215Y-330251004D01*
X242565215Y-330251004D02*
X242708072Y-330298623D01*
X242708072Y-330298623D02*
X242803311Y-330393861D01*
X242803311Y-330393861D02*
X242850930Y-330536718D01*
X242850930Y-330536718D02*
X242850930Y-330631956D01*
X242850930Y-329251004D02*
X242850930Y-329822432D01*
X242850930Y-329536718D02*
X241850930Y-329536718D01*
X241850930Y-329536718D02*
X241993787Y-329631956D01*
X241993787Y-329631956D02*
X242089025Y-329727194D01*
X242089025Y-329727194D02*
X242136644Y-329822432D01*
X241850930Y-328631956D02*
X241850930Y-328536718D01*
X241850930Y-328536718D02*
X241898549Y-328441480D01*
X241898549Y-328441480D02*
X241946168Y-328393861D01*
X241946168Y-328393861D02*
X242041406Y-328346242D01*
X242041406Y-328346242D02*
X242231882Y-328298623D01*
X242231882Y-328298623D02*
X242469977Y-328298623D01*
X242469977Y-328298623D02*
X242660453Y-328346242D01*
X242660453Y-328346242D02*
X242755691Y-328393861D01*
X242755691Y-328393861D02*
X242803311Y-328441480D01*
X242803311Y-328441480D02*
X242850930Y-328536718D01*
X242850930Y-328536718D02*
X242850930Y-328631956D01*
X242850930Y-328631956D02*
X242803311Y-328727194D01*
X242803311Y-328727194D02*
X242755691Y-328774813D01*
X242755691Y-328774813D02*
X242660453Y-328822432D01*
X242660453Y-328822432D02*
X242469977Y-328870051D01*
X242469977Y-328870051D02*
X242231882Y-328870051D01*
X242231882Y-328870051D02*
X242041406Y-328822432D01*
X242041406Y-328822432D02*
X241946168Y-328774813D01*
X241946168Y-328774813D02*
X241898549Y-328727194D01*
X241898549Y-328727194D02*
X241850930Y-328631956D01*
X312880930Y-337428968D02*
X312404739Y-337762301D01*
X312880930Y-338000396D02*
X311880930Y-338000396D01*
X311880930Y-338000396D02*
X311880930Y-337619444D01*
X311880930Y-337619444D02*
X311928549Y-337524206D01*
X311928549Y-337524206D02*
X311976168Y-337476587D01*
X311976168Y-337476587D02*
X312071406Y-337428968D01*
X312071406Y-337428968D02*
X312214263Y-337428968D01*
X312214263Y-337428968D02*
X312309501Y-337476587D01*
X312309501Y-337476587D02*
X312357120Y-337524206D01*
X312357120Y-337524206D02*
X312404739Y-337619444D01*
X312404739Y-337619444D02*
X312404739Y-338000396D01*
X311976168Y-337048015D02*
X311928549Y-337000396D01*
X311928549Y-337000396D02*
X311880930Y-336905158D01*
X311880930Y-336905158D02*
X311880930Y-336667063D01*
X311880930Y-336667063D02*
X311928549Y-336571825D01*
X311928549Y-336571825D02*
X311976168Y-336524206D01*
X311976168Y-336524206D02*
X312071406Y-336476587D01*
X312071406Y-336476587D02*
X312166644Y-336476587D01*
X312166644Y-336476587D02*
X312309501Y-336524206D01*
X312309501Y-336524206D02*
X312880930Y-337095634D01*
X312880930Y-337095634D02*
X312880930Y-336476587D01*
X311880930Y-336143253D02*
X311880930Y-335524206D01*
X311880930Y-335524206D02*
X312261882Y-335857539D01*
X312261882Y-335857539D02*
X312261882Y-335714682D01*
X312261882Y-335714682D02*
X312309501Y-335619444D01*
X312309501Y-335619444D02*
X312357120Y-335571825D01*
X312357120Y-335571825D02*
X312452358Y-335524206D01*
X312452358Y-335524206D02*
X312690453Y-335524206D01*
X312690453Y-335524206D02*
X312785691Y-335571825D01*
X312785691Y-335571825D02*
X312833311Y-335619444D01*
X312833311Y-335619444D02*
X312880930Y-335714682D01*
X312880930Y-335714682D02*
X312880930Y-336000396D01*
X312880930Y-336000396D02*
X312833311Y-336095634D01*
X312833311Y-336095634D02*
X312785691Y-336143253D01*
X241850930Y-151983345D02*
X242565215Y-151983345D01*
X242565215Y-151983345D02*
X242708072Y-152030964D01*
X242708072Y-152030964D02*
X242803311Y-152126202D01*
X242803311Y-152126202D02*
X242850930Y-152269059D01*
X242850930Y-152269059D02*
X242850930Y-152364297D01*
X242184263Y-151078583D02*
X242850930Y-151078583D01*
X241803311Y-151316678D02*
X242517596Y-151554773D01*
X242517596Y-151554773D02*
X242517596Y-150935726D01*
X311890930Y-308405634D02*
X312605215Y-308405634D01*
X312605215Y-308405634D02*
X312748072Y-308453253D01*
X312748072Y-308453253D02*
X312843311Y-308548491D01*
X312843311Y-308548491D02*
X312890930Y-308691348D01*
X312890930Y-308691348D02*
X312890930Y-308786586D01*
X312890930Y-307405634D02*
X312890930Y-307977062D01*
X312890930Y-307691348D02*
X311890930Y-307691348D01*
X311890930Y-307691348D02*
X312033787Y-307786586D01*
X312033787Y-307786586D02*
X312129025Y-307881824D01*
X312129025Y-307881824D02*
X312176644Y-307977062D01*
X312319501Y-306834205D02*
X312271882Y-306929443D01*
X312271882Y-306929443D02*
X312224263Y-306977062D01*
X312224263Y-306977062D02*
X312129025Y-307024681D01*
X312129025Y-307024681D02*
X312081406Y-307024681D01*
X312081406Y-307024681D02*
X311986168Y-306977062D01*
X311986168Y-306977062D02*
X311938549Y-306929443D01*
X311938549Y-306929443D02*
X311890930Y-306834205D01*
X311890930Y-306834205D02*
X311890930Y-306643729D01*
X311890930Y-306643729D02*
X311938549Y-306548491D01*
X311938549Y-306548491D02*
X311986168Y-306500872D01*
X311986168Y-306500872D02*
X312081406Y-306453253D01*
X312081406Y-306453253D02*
X312129025Y-306453253D01*
X312129025Y-306453253D02*
X312224263Y-306500872D01*
X312224263Y-306500872D02*
X312271882Y-306548491D01*
X312271882Y-306548491D02*
X312319501Y-306643729D01*
X312319501Y-306643729D02*
X312319501Y-306834205D01*
X312319501Y-306834205D02*
X312367120Y-306929443D01*
X312367120Y-306929443D02*
X312414739Y-306977062D01*
X312414739Y-306977062D02*
X312509977Y-307024681D01*
X312509977Y-307024681D02*
X312700453Y-307024681D01*
X312700453Y-307024681D02*
X312795691Y-306977062D01*
X312795691Y-306977062D02*
X312843311Y-306929443D01*
X312843311Y-306929443D02*
X312890930Y-306834205D01*
X312890930Y-306834205D02*
X312890930Y-306643729D01*
X312890930Y-306643729D02*
X312843311Y-306548491D01*
X312843311Y-306548491D02*
X312795691Y-306500872D01*
X312795691Y-306500872D02*
X312700453Y-306453253D01*
X312700453Y-306453253D02*
X312509977Y-306453253D01*
X312509977Y-306453253D02*
X312414739Y-306500872D01*
X312414739Y-306500872D02*
X312367120Y-306548491D01*
X312367120Y-306548491D02*
X312319501Y-306643729D01*
X241850930Y-300159444D02*
X242565215Y-300159444D01*
X242565215Y-300159444D02*
X242708072Y-300207063D01*
X242708072Y-300207063D02*
X242803311Y-300302301D01*
X242803311Y-300302301D02*
X242850930Y-300445158D01*
X242850930Y-300445158D02*
X242850930Y-300540396D01*
X242850930Y-299635634D02*
X242850930Y-299445158D01*
X242850930Y-299445158D02*
X242803311Y-299349920D01*
X242803311Y-299349920D02*
X242755691Y-299302301D01*
X242755691Y-299302301D02*
X242612834Y-299207063D01*
X242612834Y-299207063D02*
X242422358Y-299159444D01*
X242422358Y-299159444D02*
X242041406Y-299159444D01*
X242041406Y-299159444D02*
X241946168Y-299207063D01*
X241946168Y-299207063D02*
X241898549Y-299254682D01*
X241898549Y-299254682D02*
X241850930Y-299349920D01*
X241850930Y-299349920D02*
X241850930Y-299540396D01*
X241850930Y-299540396D02*
X241898549Y-299635634D01*
X241898549Y-299635634D02*
X241946168Y-299683253D01*
X241946168Y-299683253D02*
X242041406Y-299730872D01*
X242041406Y-299730872D02*
X242279501Y-299730872D01*
X242279501Y-299730872D02*
X242374739Y-299683253D01*
X242374739Y-299683253D02*
X242422358Y-299635634D01*
X242422358Y-299635634D02*
X242469977Y-299540396D01*
X242469977Y-299540396D02*
X242469977Y-299349920D01*
X242469977Y-299349920D02*
X242422358Y-299254682D01*
X242422358Y-299254682D02*
X242374739Y-299207063D01*
X242374739Y-299207063D02*
X242279501Y-299159444D01*
X311890930Y-263405634D02*
X312605215Y-263405634D01*
X312605215Y-263405634D02*
X312748072Y-263453253D01*
X312748072Y-263453253D02*
X312843311Y-263548491D01*
X312843311Y-263548491D02*
X312890930Y-263691348D01*
X312890930Y-263691348D02*
X312890930Y-263786586D01*
X312890930Y-262405634D02*
X312890930Y-262977062D01*
X312890930Y-262691348D02*
X311890930Y-262691348D01*
X311890930Y-262691348D02*
X312033787Y-262786586D01*
X312033787Y-262786586D02*
X312129025Y-262881824D01*
X312129025Y-262881824D02*
X312176644Y-262977062D01*
X312890930Y-261929443D02*
X312890930Y-261738967D01*
X312890930Y-261738967D02*
X312843311Y-261643729D01*
X312843311Y-261643729D02*
X312795691Y-261596110D01*
X312795691Y-261596110D02*
X312652834Y-261500872D01*
X312652834Y-261500872D02*
X312462358Y-261453253D01*
X312462358Y-261453253D02*
X312081406Y-261453253D01*
X312081406Y-261453253D02*
X311986168Y-261500872D01*
X311986168Y-261500872D02*
X311938549Y-261548491D01*
X311938549Y-261548491D02*
X311890930Y-261643729D01*
X311890930Y-261643729D02*
X311890930Y-261834205D01*
X311890930Y-261834205D02*
X311938549Y-261929443D01*
X311938549Y-261929443D02*
X311986168Y-261977062D01*
X311986168Y-261977062D02*
X312081406Y-262024681D01*
X312081406Y-262024681D02*
X312319501Y-262024681D01*
X312319501Y-262024681D02*
X312414739Y-261977062D01*
X312414739Y-261977062D02*
X312462358Y-261929443D01*
X312462358Y-261929443D02*
X312509977Y-261834205D01*
X312509977Y-261834205D02*
X312509977Y-261643729D01*
X312509977Y-261643729D02*
X312462358Y-261548491D01*
X312462358Y-261548491D02*
X312414739Y-261500872D01*
X312414739Y-261500872D02*
X312319501Y-261453253D01*
X314415691Y-101738968D02*
X314463311Y-101786587D01*
X314463311Y-101786587D02*
X314510930Y-101929444D01*
X314510930Y-101929444D02*
X314510930Y-102024682D01*
X314510930Y-102024682D02*
X314463311Y-102167539D01*
X314463311Y-102167539D02*
X314368072Y-102262777D01*
X314368072Y-102262777D02*
X314272834Y-102310396D01*
X314272834Y-102310396D02*
X314082358Y-102358015D01*
X314082358Y-102358015D02*
X313939501Y-102358015D01*
X313939501Y-102358015D02*
X313749025Y-102310396D01*
X313749025Y-102310396D02*
X313653787Y-102262777D01*
X313653787Y-102262777D02*
X313558549Y-102167539D01*
X313558549Y-102167539D02*
X313510930Y-102024682D01*
X313510930Y-102024682D02*
X313510930Y-101929444D01*
X313510930Y-101929444D02*
X313558549Y-101786587D01*
X313558549Y-101786587D02*
X313606168Y-101738968D01*
X313606168Y-101358015D02*
X313558549Y-101310396D01*
X313558549Y-101310396D02*
X313510930Y-101215158D01*
X313510930Y-101215158D02*
X313510930Y-100977063D01*
X313510930Y-100977063D02*
X313558549Y-100881825D01*
X313558549Y-100881825D02*
X313606168Y-100834206D01*
X313606168Y-100834206D02*
X313701406Y-100786587D01*
X313701406Y-100786587D02*
X313796644Y-100786587D01*
X313796644Y-100786587D02*
X313939501Y-100834206D01*
X313939501Y-100834206D02*
X314510930Y-101405634D01*
X314510930Y-101405634D02*
X314510930Y-100786587D01*
X313844263Y-99929444D02*
X314510930Y-99929444D01*
X313463311Y-100167539D02*
X314177596Y-100405634D01*
X314177596Y-100405634D02*
X314177596Y-99786587D01*
X276454819Y-331142857D02*
X275978628Y-331476190D01*
X276454819Y-331714285D02*
X275454819Y-331714285D01*
X275454819Y-331714285D02*
X275454819Y-331333333D01*
X275454819Y-331333333D02*
X275502438Y-331238095D01*
X275502438Y-331238095D02*
X275550057Y-331190476D01*
X275550057Y-331190476D02*
X275645295Y-331142857D01*
X275645295Y-331142857D02*
X275788152Y-331142857D01*
X275788152Y-331142857D02*
X275883390Y-331190476D01*
X275883390Y-331190476D02*
X275931009Y-331238095D01*
X275931009Y-331238095D02*
X275978628Y-331333333D01*
X275978628Y-331333333D02*
X275978628Y-331714285D01*
X276454819Y-330190476D02*
X276454819Y-330761904D01*
X276454819Y-330476190D02*
X275454819Y-330476190D01*
X275454819Y-330476190D02*
X275597676Y-330571428D01*
X275597676Y-330571428D02*
X275692914Y-330666666D01*
X275692914Y-330666666D02*
X275740533Y-330761904D01*
X276454819Y-329714285D02*
X276454819Y-329523809D01*
X276454819Y-329523809D02*
X276407200Y-329428571D01*
X276407200Y-329428571D02*
X276359580Y-329380952D01*
X276359580Y-329380952D02*
X276216723Y-329285714D01*
X276216723Y-329285714D02*
X276026247Y-329238095D01*
X276026247Y-329238095D02*
X275645295Y-329238095D01*
X275645295Y-329238095D02*
X275550057Y-329285714D01*
X275550057Y-329285714D02*
X275502438Y-329333333D01*
X275502438Y-329333333D02*
X275454819Y-329428571D01*
X275454819Y-329428571D02*
X275454819Y-329619047D01*
X275454819Y-329619047D02*
X275502438Y-329714285D01*
X275502438Y-329714285D02*
X275550057Y-329761904D01*
X275550057Y-329761904D02*
X275645295Y-329809523D01*
X275645295Y-329809523D02*
X275883390Y-329809523D01*
X275883390Y-329809523D02*
X275978628Y-329761904D01*
X275978628Y-329761904D02*
X276026247Y-329714285D01*
X276026247Y-329714285D02*
X276073866Y-329619047D01*
X276073866Y-329619047D02*
X276073866Y-329428571D01*
X276073866Y-329428571D02*
X276026247Y-329333333D01*
X276026247Y-329333333D02*
X275978628Y-329285714D01*
X275978628Y-329285714D02*
X275883390Y-329238095D01*
X241850930Y-211253785D02*
X242565215Y-211253785D01*
X242565215Y-211253785D02*
X242708072Y-211301404D01*
X242708072Y-211301404D02*
X242803311Y-211396642D01*
X242803311Y-211396642D02*
X242850930Y-211539499D01*
X242850930Y-211539499D02*
X242850930Y-211634737D01*
X241850930Y-210349023D02*
X241850930Y-210539499D01*
X241850930Y-210539499D02*
X241898549Y-210634737D01*
X241898549Y-210634737D02*
X241946168Y-210682356D01*
X241946168Y-210682356D02*
X242089025Y-210777594D01*
X242089025Y-210777594D02*
X242279501Y-210825213D01*
X242279501Y-210825213D02*
X242660453Y-210825213D01*
X242660453Y-210825213D02*
X242755691Y-210777594D01*
X242755691Y-210777594D02*
X242803311Y-210729975D01*
X242803311Y-210729975D02*
X242850930Y-210634737D01*
X242850930Y-210634737D02*
X242850930Y-210444261D01*
X242850930Y-210444261D02*
X242803311Y-210349023D01*
X242803311Y-210349023D02*
X242755691Y-210301404D01*
X242755691Y-210301404D02*
X242660453Y-210253785D01*
X242660453Y-210253785D02*
X242422358Y-210253785D01*
X242422358Y-210253785D02*
X242327120Y-210301404D01*
X242327120Y-210301404D02*
X242279501Y-210349023D01*
X242279501Y-210349023D02*
X242231882Y-210444261D01*
X242231882Y-210444261D02*
X242231882Y-210634737D01*
X242231882Y-210634737D02*
X242279501Y-210729975D01*
X242279501Y-210729975D02*
X242327120Y-210777594D01*
X242327120Y-210777594D02*
X242422358Y-210825213D01*
X311890930Y-282405634D02*
X312605215Y-282405634D01*
X312605215Y-282405634D02*
X312748072Y-282453253D01*
X312748072Y-282453253D02*
X312843311Y-282548491D01*
X312843311Y-282548491D02*
X312890930Y-282691348D01*
X312890930Y-282691348D02*
X312890930Y-282786586D01*
X311986168Y-281977062D02*
X311938549Y-281929443D01*
X311938549Y-281929443D02*
X311890930Y-281834205D01*
X311890930Y-281834205D02*
X311890930Y-281596110D01*
X311890930Y-281596110D02*
X311938549Y-281500872D01*
X311938549Y-281500872D02*
X311986168Y-281453253D01*
X311986168Y-281453253D02*
X312081406Y-281405634D01*
X312081406Y-281405634D02*
X312176644Y-281405634D01*
X312176644Y-281405634D02*
X312319501Y-281453253D01*
X312319501Y-281453253D02*
X312890930Y-282024681D01*
X312890930Y-282024681D02*
X312890930Y-281405634D01*
X312890930Y-280453253D02*
X312890930Y-281024681D01*
X312890930Y-280738967D02*
X311890930Y-280738967D01*
X311890930Y-280738967D02*
X312033787Y-280834205D01*
X312033787Y-280834205D02*
X312129025Y-280929443D01*
X312129025Y-280929443D02*
X312176644Y-281024681D01*
X241850930Y-63415127D02*
X242565215Y-63415127D01*
X242565215Y-63415127D02*
X242708072Y-63462746D01*
X242708072Y-63462746D02*
X242803311Y-63557984D01*
X242803311Y-63557984D02*
X242850930Y-63700841D01*
X242850930Y-63700841D02*
X242850930Y-63796079D01*
X242850930Y-62415127D02*
X242850930Y-62986555D01*
X242850930Y-62700841D02*
X241850930Y-62700841D01*
X241850930Y-62700841D02*
X241993787Y-62796079D01*
X241993787Y-62796079D02*
X242089025Y-62891317D01*
X242089025Y-62891317D02*
X242136644Y-62986555D01*
X308915691Y-98238968D02*
X308963311Y-98286587D01*
X308963311Y-98286587D02*
X309010930Y-98429444D01*
X309010930Y-98429444D02*
X309010930Y-98524682D01*
X309010930Y-98524682D02*
X308963311Y-98667539D01*
X308963311Y-98667539D02*
X308868072Y-98762777D01*
X308868072Y-98762777D02*
X308772834Y-98810396D01*
X308772834Y-98810396D02*
X308582358Y-98858015D01*
X308582358Y-98858015D02*
X308439501Y-98858015D01*
X308439501Y-98858015D02*
X308249025Y-98810396D01*
X308249025Y-98810396D02*
X308153787Y-98762777D01*
X308153787Y-98762777D02*
X308058549Y-98667539D01*
X308058549Y-98667539D02*
X308010930Y-98524682D01*
X308010930Y-98524682D02*
X308010930Y-98429444D01*
X308010930Y-98429444D02*
X308058549Y-98286587D01*
X308058549Y-98286587D02*
X308106168Y-98238968D01*
X308106168Y-97858015D02*
X308058549Y-97810396D01*
X308058549Y-97810396D02*
X308010930Y-97715158D01*
X308010930Y-97715158D02*
X308010930Y-97477063D01*
X308010930Y-97477063D02*
X308058549Y-97381825D01*
X308058549Y-97381825D02*
X308106168Y-97334206D01*
X308106168Y-97334206D02*
X308201406Y-97286587D01*
X308201406Y-97286587D02*
X308296644Y-97286587D01*
X308296644Y-97286587D02*
X308439501Y-97334206D01*
X308439501Y-97334206D02*
X309010930Y-97905634D01*
X309010930Y-97905634D02*
X309010930Y-97286587D01*
X308010930Y-96429444D02*
X308010930Y-96619920D01*
X308010930Y-96619920D02*
X308058549Y-96715158D01*
X308058549Y-96715158D02*
X308106168Y-96762777D01*
X308106168Y-96762777D02*
X308249025Y-96858015D01*
X308249025Y-96858015D02*
X308439501Y-96905634D01*
X308439501Y-96905634D02*
X308820453Y-96905634D01*
X308820453Y-96905634D02*
X308915691Y-96858015D01*
X308915691Y-96858015D02*
X308963311Y-96810396D01*
X308963311Y-96810396D02*
X309010930Y-96715158D01*
X309010930Y-96715158D02*
X309010930Y-96524682D01*
X309010930Y-96524682D02*
X308963311Y-96429444D01*
X308963311Y-96429444D02*
X308915691Y-96381825D01*
X308915691Y-96381825D02*
X308820453Y-96334206D01*
X308820453Y-96334206D02*
X308582358Y-96334206D01*
X308582358Y-96334206D02*
X308487120Y-96381825D01*
X308487120Y-96381825D02*
X308439501Y-96429444D01*
X308439501Y-96429444D02*
X308391882Y-96524682D01*
X308391882Y-96524682D02*
X308391882Y-96715158D01*
X308391882Y-96715158D02*
X308439501Y-96810396D01*
X308439501Y-96810396D02*
X308487120Y-96858015D01*
X308487120Y-96858015D02*
X308582358Y-96905634D01*
X297140930Y-262928968D02*
X296664739Y-263262301D01*
X297140930Y-263500396D02*
X296140930Y-263500396D01*
X296140930Y-263500396D02*
X296140930Y-263119444D01*
X296140930Y-263119444D02*
X296188549Y-263024206D01*
X296188549Y-263024206D02*
X296236168Y-262976587D01*
X296236168Y-262976587D02*
X296331406Y-262928968D01*
X296331406Y-262928968D02*
X296474263Y-262928968D01*
X296474263Y-262928968D02*
X296569501Y-262976587D01*
X296569501Y-262976587D02*
X296617120Y-263024206D01*
X296617120Y-263024206D02*
X296664739Y-263119444D01*
X296664739Y-263119444D02*
X296664739Y-263500396D01*
X296236168Y-262548015D02*
X296188549Y-262500396D01*
X296188549Y-262500396D02*
X296140930Y-262405158D01*
X296140930Y-262405158D02*
X296140930Y-262167063D01*
X296140930Y-262167063D02*
X296188549Y-262071825D01*
X296188549Y-262071825D02*
X296236168Y-262024206D01*
X296236168Y-262024206D02*
X296331406Y-261976587D01*
X296331406Y-261976587D02*
X296426644Y-261976587D01*
X296426644Y-261976587D02*
X296569501Y-262024206D01*
X296569501Y-262024206D02*
X297140930Y-262595634D01*
X297140930Y-262595634D02*
X297140930Y-261976587D01*
X296474263Y-261119444D02*
X297140930Y-261119444D01*
X296093311Y-261357539D02*
X296807596Y-261595634D01*
X296807596Y-261595634D02*
X296807596Y-260976587D01*
X316087120Y-109879444D02*
X316087120Y-110212777D01*
X316610930Y-110212777D02*
X315610930Y-110212777D01*
X315610930Y-110212777D02*
X315610930Y-109736587D01*
X316610930Y-108831825D02*
X316610930Y-109403253D01*
X316610930Y-109117539D02*
X315610930Y-109117539D01*
X315610930Y-109117539D02*
X315753787Y-109212777D01*
X315753787Y-109212777D02*
X315849025Y-109308015D01*
X315849025Y-109308015D02*
X315896644Y-109403253D01*
X241850930Y-181717812D02*
X242565215Y-181717812D01*
X242565215Y-181717812D02*
X242708072Y-181765431D01*
X242708072Y-181765431D02*
X242803311Y-181860669D01*
X242803311Y-181860669D02*
X242850930Y-182003526D01*
X242850930Y-182003526D02*
X242850930Y-182098764D01*
X241850930Y-180765431D02*
X241850930Y-181241621D01*
X241850930Y-181241621D02*
X242327120Y-181289240D01*
X242327120Y-181289240D02*
X242279501Y-181241621D01*
X242279501Y-181241621D02*
X242231882Y-181146383D01*
X242231882Y-181146383D02*
X242231882Y-180908288D01*
X242231882Y-180908288D02*
X242279501Y-180813050D01*
X242279501Y-180813050D02*
X242327120Y-180765431D01*
X242327120Y-180765431D02*
X242422358Y-180717812D01*
X242422358Y-180717812D02*
X242660453Y-180717812D01*
X242660453Y-180717812D02*
X242755691Y-180765431D01*
X242755691Y-180765431D02*
X242803311Y-180813050D01*
X242803311Y-180813050D02*
X242850930Y-180908288D01*
X242850930Y-180908288D02*
X242850930Y-181146383D01*
X242850930Y-181146383D02*
X242803311Y-181241621D01*
X242803311Y-181241621D02*
X242755691Y-181289240D01*
X301630930Y-283000396D02*
X300630930Y-283000396D01*
X300630930Y-283000396D02*
X300630930Y-282762301D01*
X300630930Y-282762301D02*
X300678549Y-282619444D01*
X300678549Y-282619444D02*
X300773787Y-282524206D01*
X300773787Y-282524206D02*
X300869025Y-282476587D01*
X300869025Y-282476587D02*
X301059501Y-282428968D01*
X301059501Y-282428968D02*
X301202358Y-282428968D01*
X301202358Y-282428968D02*
X301392834Y-282476587D01*
X301392834Y-282476587D02*
X301488072Y-282524206D01*
X301488072Y-282524206D02*
X301583311Y-282619444D01*
X301583311Y-282619444D02*
X301630930Y-282762301D01*
X301630930Y-282762301D02*
X301630930Y-283000396D01*
X300726168Y-282048015D02*
X300678549Y-282000396D01*
X300678549Y-282000396D02*
X300630930Y-281905158D01*
X300630930Y-281905158D02*
X300630930Y-281667063D01*
X300630930Y-281667063D02*
X300678549Y-281571825D01*
X300678549Y-281571825D02*
X300726168Y-281524206D01*
X300726168Y-281524206D02*
X300821406Y-281476587D01*
X300821406Y-281476587D02*
X300916644Y-281476587D01*
X300916644Y-281476587D02*
X301059501Y-281524206D01*
X301059501Y-281524206D02*
X301630930Y-282095634D01*
X301630930Y-282095634D02*
X301630930Y-281476587D01*
X300630930Y-280857539D02*
X300630930Y-280762301D01*
X300630930Y-280762301D02*
X300678549Y-280667063D01*
X300678549Y-280667063D02*
X300726168Y-280619444D01*
X300726168Y-280619444D02*
X300821406Y-280571825D01*
X300821406Y-280571825D02*
X301011882Y-280524206D01*
X301011882Y-280524206D02*
X301249977Y-280524206D01*
X301249977Y-280524206D02*
X301440453Y-280571825D01*
X301440453Y-280571825D02*
X301535691Y-280619444D01*
X301535691Y-280619444D02*
X301583311Y-280667063D01*
X301583311Y-280667063D02*
X301630930Y-280762301D01*
X301630930Y-280762301D02*
X301630930Y-280857539D01*
X301630930Y-280857539D02*
X301583311Y-280952777D01*
X301583311Y-280952777D02*
X301535691Y-281000396D01*
X301535691Y-281000396D02*
X301440453Y-281048015D01*
X301440453Y-281048015D02*
X301249977Y-281095634D01*
X301249977Y-281095634D02*
X301011882Y-281095634D01*
X301011882Y-281095634D02*
X300821406Y-281048015D01*
X300821406Y-281048015D02*
X300726168Y-281000396D01*
X300726168Y-281000396D02*
X300678549Y-280952777D01*
X300678549Y-280952777D02*
X300630930Y-280857539D01*
X301310930Y-278238015D02*
X300310930Y-278238015D01*
X301310930Y-277666587D02*
X300739501Y-278095158D01*
X300310930Y-277666587D02*
X300882358Y-278238015D01*
X241850930Y-92891551D02*
X242565215Y-92891551D01*
X242565215Y-92891551D02*
X242708072Y-92939170D01*
X242708072Y-92939170D02*
X242803311Y-93034408D01*
X242803311Y-93034408D02*
X242850930Y-93177265D01*
X242850930Y-93177265D02*
X242850930Y-93272503D01*
X241946168Y-92462979D02*
X241898549Y-92415360D01*
X241898549Y-92415360D02*
X241850930Y-92320122D01*
X241850930Y-92320122D02*
X241850930Y-92082027D01*
X241850930Y-92082027D02*
X241898549Y-91986789D01*
X241898549Y-91986789D02*
X241946168Y-91939170D01*
X241946168Y-91939170D02*
X242041406Y-91891551D01*
X242041406Y-91891551D02*
X242136644Y-91891551D01*
X242136644Y-91891551D02*
X242279501Y-91939170D01*
X242279501Y-91939170D02*
X242850930Y-92510598D01*
X242850930Y-92510598D02*
X242850930Y-91891551D01*
X296380930Y-282428968D02*
X295904739Y-282762301D01*
X296380930Y-283000396D02*
X295380930Y-283000396D01*
X295380930Y-283000396D02*
X295380930Y-282619444D01*
X295380930Y-282619444D02*
X295428549Y-282524206D01*
X295428549Y-282524206D02*
X295476168Y-282476587D01*
X295476168Y-282476587D02*
X295571406Y-282428968D01*
X295571406Y-282428968D02*
X295714263Y-282428968D01*
X295714263Y-282428968D02*
X295809501Y-282476587D01*
X295809501Y-282476587D02*
X295857120Y-282524206D01*
X295857120Y-282524206D02*
X295904739Y-282619444D01*
X295904739Y-282619444D02*
X295904739Y-283000396D01*
X295380930Y-281571825D02*
X295380930Y-281762301D01*
X295380930Y-281762301D02*
X295428549Y-281857539D01*
X295428549Y-281857539D02*
X295476168Y-281905158D01*
X295476168Y-281905158D02*
X295619025Y-282000396D01*
X295619025Y-282000396D02*
X295809501Y-282048015D01*
X295809501Y-282048015D02*
X296190453Y-282048015D01*
X296190453Y-282048015D02*
X296285691Y-282000396D01*
X296285691Y-282000396D02*
X296333311Y-281952777D01*
X296333311Y-281952777D02*
X296380930Y-281857539D01*
X296380930Y-281857539D02*
X296380930Y-281667063D01*
X296380930Y-281667063D02*
X296333311Y-281571825D01*
X296333311Y-281571825D02*
X296285691Y-281524206D01*
X296285691Y-281524206D02*
X296190453Y-281476587D01*
X296190453Y-281476587D02*
X295952358Y-281476587D01*
X295952358Y-281476587D02*
X295857120Y-281524206D01*
X295857120Y-281524206D02*
X295809501Y-281571825D01*
X295809501Y-281571825D02*
X295761882Y-281667063D01*
X295761882Y-281667063D02*
X295761882Y-281857539D01*
X295761882Y-281857539D02*
X295809501Y-281952777D01*
X295809501Y-281952777D02*
X295857120Y-282000396D01*
X295857120Y-282000396D02*
X295952358Y-282048015D01*
X295809501Y-280905158D02*
X295761882Y-281000396D01*
X295761882Y-281000396D02*
X295714263Y-281048015D01*
X295714263Y-281048015D02*
X295619025Y-281095634D01*
X295619025Y-281095634D02*
X295571406Y-281095634D01*
X295571406Y-281095634D02*
X295476168Y-281048015D01*
X295476168Y-281048015D02*
X295428549Y-281000396D01*
X295428549Y-281000396D02*
X295380930Y-280905158D01*
X295380930Y-280905158D02*
X295380930Y-280714682D01*
X295380930Y-280714682D02*
X295428549Y-280619444D01*
X295428549Y-280619444D02*
X295476168Y-280571825D01*
X295476168Y-280571825D02*
X295571406Y-280524206D01*
X295571406Y-280524206D02*
X295619025Y-280524206D01*
X295619025Y-280524206D02*
X295714263Y-280571825D01*
X295714263Y-280571825D02*
X295761882Y-280619444D01*
X295761882Y-280619444D02*
X295809501Y-280714682D01*
X295809501Y-280714682D02*
X295809501Y-280905158D01*
X295809501Y-280905158D02*
X295857120Y-281000396D01*
X295857120Y-281000396D02*
X295904739Y-281048015D01*
X295904739Y-281048015D02*
X295999977Y-281095634D01*
X295999977Y-281095634D02*
X296190453Y-281095634D01*
X296190453Y-281095634D02*
X296285691Y-281048015D01*
X296285691Y-281048015D02*
X296333311Y-281000396D01*
X296333311Y-281000396D02*
X296380930Y-280905158D01*
X296380930Y-280905158D02*
X296380930Y-280714682D01*
X296380930Y-280714682D02*
X296333311Y-280619444D01*
X296333311Y-280619444D02*
X296285691Y-280571825D01*
X296285691Y-280571825D02*
X296190453Y-280524206D01*
X296190453Y-280524206D02*
X295999977Y-280524206D01*
X295999977Y-280524206D02*
X295904739Y-280571825D01*
X295904739Y-280571825D02*
X295857120Y-280619444D01*
X295857120Y-280619444D02*
X295809501Y-280714682D01*
X283954819Y-282428968D02*
X283478628Y-282762301D01*
X283954819Y-283000396D02*
X282954819Y-283000396D01*
X282954819Y-283000396D02*
X282954819Y-282619444D01*
X282954819Y-282619444D02*
X283002438Y-282524206D01*
X283002438Y-282524206D02*
X283050057Y-282476587D01*
X283050057Y-282476587D02*
X283145295Y-282428968D01*
X283145295Y-282428968D02*
X283288152Y-282428968D01*
X283288152Y-282428968D02*
X283383390Y-282476587D01*
X283383390Y-282476587D02*
X283431009Y-282524206D01*
X283431009Y-282524206D02*
X283478628Y-282619444D01*
X283478628Y-282619444D02*
X283478628Y-283000396D01*
X282954819Y-282095634D02*
X282954819Y-281428968D01*
X282954819Y-281428968D02*
X283954819Y-281857539D01*
X283954819Y-280524206D02*
X283954819Y-281095634D01*
X283954819Y-280809920D02*
X282954819Y-280809920D01*
X282954819Y-280809920D02*
X283097676Y-280905158D01*
X283097676Y-280905158D02*
X283192914Y-281000396D01*
X283192914Y-281000396D02*
X283240533Y-281095634D01*
X300223253Y-325920930D02*
X299889920Y-325444739D01*
X299651825Y-325920930D02*
X299651825Y-324920930D01*
X299651825Y-324920930D02*
X300032777Y-324920930D01*
X300032777Y-324920930D02*
X300128015Y-324968549D01*
X300128015Y-324968549D02*
X300175634Y-325016168D01*
X300175634Y-325016168D02*
X300223253Y-325111406D01*
X300223253Y-325111406D02*
X300223253Y-325254263D01*
X300223253Y-325254263D02*
X300175634Y-325349501D01*
X300175634Y-325349501D02*
X300128015Y-325397120D01*
X300128015Y-325397120D02*
X300032777Y-325444739D01*
X300032777Y-325444739D02*
X299651825Y-325444739D01*
X300604206Y-325016168D02*
X300651825Y-324968549D01*
X300651825Y-324968549D02*
X300747063Y-324920930D01*
X300747063Y-324920930D02*
X300985158Y-324920930D01*
X300985158Y-324920930D02*
X301080396Y-324968549D01*
X301080396Y-324968549D02*
X301128015Y-325016168D01*
X301128015Y-325016168D02*
X301175634Y-325111406D01*
X301175634Y-325111406D02*
X301175634Y-325206644D01*
X301175634Y-325206644D02*
X301128015Y-325349501D01*
X301128015Y-325349501D02*
X300556587Y-325920930D01*
X300556587Y-325920930D02*
X301175634Y-325920930D01*
X301794682Y-324920930D02*
X301889920Y-324920930D01*
X301889920Y-324920930D02*
X301985158Y-324968549D01*
X301985158Y-324968549D02*
X302032777Y-325016168D01*
X302032777Y-325016168D02*
X302080396Y-325111406D01*
X302080396Y-325111406D02*
X302128015Y-325301882D01*
X302128015Y-325301882D02*
X302128015Y-325539977D01*
X302128015Y-325539977D02*
X302080396Y-325730453D01*
X302080396Y-325730453D02*
X302032777Y-325825691D01*
X302032777Y-325825691D02*
X301985158Y-325873311D01*
X301985158Y-325873311D02*
X301889920Y-325920930D01*
X301889920Y-325920930D02*
X301794682Y-325920930D01*
X301794682Y-325920930D02*
X301699444Y-325873311D01*
X301699444Y-325873311D02*
X301651825Y-325825691D01*
X301651825Y-325825691D02*
X301604206Y-325730453D01*
X301604206Y-325730453D02*
X301556587Y-325539977D01*
X301556587Y-325539977D02*
X301556587Y-325301882D01*
X301556587Y-325301882D02*
X301604206Y-325111406D01*
X301604206Y-325111406D02*
X301651825Y-325016168D01*
X301651825Y-325016168D02*
X301699444Y-324968549D01*
X301699444Y-324968549D02*
X301794682Y-324920930D01*
X241850930Y-240908854D02*
X242565215Y-240908854D01*
X242565215Y-240908854D02*
X242708072Y-240956473D01*
X242708072Y-240956473D02*
X242803311Y-241051711D01*
X242803311Y-241051711D02*
X242850930Y-241194568D01*
X242850930Y-241194568D02*
X242850930Y-241289806D01*
X241850930Y-240527901D02*
X241850930Y-239861235D01*
X241850930Y-239861235D02*
X242850930Y-240289806D01*
X304454819Y-334142857D02*
X303978628Y-334476190D01*
X304454819Y-334714285D02*
X303454819Y-334714285D01*
X303454819Y-334714285D02*
X303454819Y-334333333D01*
X303454819Y-334333333D02*
X303502438Y-334238095D01*
X303502438Y-334238095D02*
X303550057Y-334190476D01*
X303550057Y-334190476D02*
X303645295Y-334142857D01*
X303645295Y-334142857D02*
X303788152Y-334142857D01*
X303788152Y-334142857D02*
X303883390Y-334190476D01*
X303883390Y-334190476D02*
X303931009Y-334238095D01*
X303931009Y-334238095D02*
X303978628Y-334333333D01*
X303978628Y-334333333D02*
X303978628Y-334714285D01*
X303454819Y-333285714D02*
X303454819Y-333476190D01*
X303454819Y-333476190D02*
X303502438Y-333571428D01*
X303502438Y-333571428D02*
X303550057Y-333619047D01*
X303550057Y-333619047D02*
X303692914Y-333714285D01*
X303692914Y-333714285D02*
X303883390Y-333761904D01*
X303883390Y-333761904D02*
X304264342Y-333761904D01*
X304264342Y-333761904D02*
X304359580Y-333714285D01*
X304359580Y-333714285D02*
X304407200Y-333666666D01*
X304407200Y-333666666D02*
X304454819Y-333571428D01*
X304454819Y-333571428D02*
X304454819Y-333380952D01*
X304454819Y-333380952D02*
X304407200Y-333285714D01*
X304407200Y-333285714D02*
X304359580Y-333238095D01*
X304359580Y-333238095D02*
X304264342Y-333190476D01*
X304264342Y-333190476D02*
X304026247Y-333190476D01*
X304026247Y-333190476D02*
X303931009Y-333238095D01*
X303931009Y-333238095D02*
X303883390Y-333285714D01*
X303883390Y-333285714D02*
X303835771Y-333380952D01*
X303835771Y-333380952D02*
X303835771Y-333571428D01*
X303835771Y-333571428D02*
X303883390Y-333666666D01*
X303883390Y-333666666D02*
X303931009Y-333714285D01*
X303931009Y-333714285D02*
X304026247Y-333761904D01*
X303454819Y-332857142D02*
X303454819Y-332190476D01*
X303454819Y-332190476D02*
X304454819Y-332619047D01*
X284323016Y-315410930D02*
X284323016Y-316220453D01*
X284323016Y-316220453D02*
X284370635Y-316315691D01*
X284370635Y-316315691D02*
X284418254Y-316363311D01*
X284418254Y-316363311D02*
X284513492Y-316410930D01*
X284513492Y-316410930D02*
X284703968Y-316410930D01*
X284703968Y-316410930D02*
X284799206Y-316363311D01*
X284799206Y-316363311D02*
X284846825Y-316315691D01*
X284846825Y-316315691D02*
X284894444Y-316220453D01*
X284894444Y-316220453D02*
X284894444Y-315410930D01*
X285894444Y-316410930D02*
X285323016Y-316410930D01*
X285608730Y-316410930D02*
X285608730Y-315410930D01*
X285608730Y-315410930D02*
X285513492Y-315553787D01*
X285513492Y-315553787D02*
X285418254Y-315649025D01*
X285418254Y-315649025D02*
X285323016Y-315696644D01*
X286846825Y-316410930D02*
X286275397Y-316410930D01*
X286561111Y-316410930D02*
X286561111Y-315410930D01*
X286561111Y-315410930D02*
X286465873Y-315553787D01*
X286465873Y-315553787D02*
X286370635Y-315649025D01*
X286370635Y-315649025D02*
X286275397Y-315696644D01*
X278590930Y-301029205D02*
X279400453Y-301029205D01*
X279400453Y-301029205D02*
X279495691Y-300981586D01*
X279495691Y-300981586D02*
X279543311Y-300933967D01*
X279543311Y-300933967D02*
X279590930Y-300838729D01*
X279590930Y-300838729D02*
X279590930Y-300648253D01*
X279590930Y-300648253D02*
X279543311Y-300553015D01*
X279543311Y-300553015D02*
X279495691Y-300505396D01*
X279495691Y-300505396D02*
X279400453Y-300457777D01*
X279400453Y-300457777D02*
X278590930Y-300457777D01*
X279590930Y-299457777D02*
X279590930Y-300029205D01*
X279590930Y-299743491D02*
X278590930Y-299743491D01*
X278590930Y-299743491D02*
X278733787Y-299838729D01*
X278733787Y-299838729D02*
X278829025Y-299933967D01*
X278829025Y-299933967D02*
X278876644Y-300029205D01*
X278686168Y-299076824D02*
X278638549Y-299029205D01*
X278638549Y-299029205D02*
X278590930Y-298933967D01*
X278590930Y-298933967D02*
X278590930Y-298695872D01*
X278590930Y-298695872D02*
X278638549Y-298600634D01*
X278638549Y-298600634D02*
X278686168Y-298553015D01*
X278686168Y-298553015D02*
X278781406Y-298505396D01*
X278781406Y-298505396D02*
X278876644Y-298505396D01*
X278876644Y-298505396D02*
X279019501Y-298553015D01*
X279019501Y-298553015D02*
X279590930Y-299124443D01*
X279590930Y-299124443D02*
X279590930Y-298505396D01*
X312746587Y-116170930D02*
X312746587Y-116885215D01*
X312746587Y-116885215D02*
X312698968Y-117028072D01*
X312698968Y-117028072D02*
X312603730Y-117123311D01*
X312603730Y-117123311D02*
X312460873Y-117170930D01*
X312460873Y-117170930D02*
X312365635Y-117170930D01*
X313175159Y-116266168D02*
X313222778Y-116218549D01*
X313222778Y-116218549D02*
X313318016Y-116170930D01*
X313318016Y-116170930D02*
X313556111Y-116170930D01*
X313556111Y-116170930D02*
X313651349Y-116218549D01*
X313651349Y-116218549D02*
X313698968Y-116266168D01*
X313698968Y-116266168D02*
X313746587Y-116361406D01*
X313746587Y-116361406D02*
X313746587Y-116456644D01*
X313746587Y-116456644D02*
X313698968Y-116599501D01*
X313698968Y-116599501D02*
X313127540Y-117170930D01*
X313127540Y-117170930D02*
X313746587Y-117170930D01*
X314365635Y-116170930D02*
X314460873Y-116170930D01*
X314460873Y-116170930D02*
X314556111Y-116218549D01*
X314556111Y-116218549D02*
X314603730Y-116266168D01*
X314603730Y-116266168D02*
X314651349Y-116361406D01*
X314651349Y-116361406D02*
X314698968Y-116551882D01*
X314698968Y-116551882D02*
X314698968Y-116789977D01*
X314698968Y-116789977D02*
X314651349Y-116980453D01*
X314651349Y-116980453D02*
X314603730Y-117075691D01*
X314603730Y-117075691D02*
X314556111Y-117123311D01*
X314556111Y-117123311D02*
X314460873Y-117170930D01*
X314460873Y-117170930D02*
X314365635Y-117170930D01*
X314365635Y-117170930D02*
X314270397Y-117123311D01*
X314270397Y-117123311D02*
X314222778Y-117075691D01*
X314222778Y-117075691D02*
X314175159Y-116980453D01*
X314175159Y-116980453D02*
X314127540Y-116789977D01*
X314127540Y-116789977D02*
X314127540Y-116551882D01*
X314127540Y-116551882D02*
X314175159Y-116361406D01*
X314175159Y-116361406D02*
X314222778Y-116266168D01*
X314222778Y-116266168D02*
X314270397Y-116218549D01*
X314270397Y-116218549D02*
X314365635Y-116170930D01*
X287640930Y-282428968D02*
X287164739Y-282762301D01*
X287640930Y-283000396D02*
X286640930Y-283000396D01*
X286640930Y-283000396D02*
X286640930Y-282619444D01*
X286640930Y-282619444D02*
X286688549Y-282524206D01*
X286688549Y-282524206D02*
X286736168Y-282476587D01*
X286736168Y-282476587D02*
X286831406Y-282428968D01*
X286831406Y-282428968D02*
X286974263Y-282428968D01*
X286974263Y-282428968D02*
X287069501Y-282476587D01*
X287069501Y-282476587D02*
X287117120Y-282524206D01*
X287117120Y-282524206D02*
X287164739Y-282619444D01*
X287164739Y-282619444D02*
X287164739Y-283000396D01*
X286640930Y-281571825D02*
X286640930Y-281762301D01*
X286640930Y-281762301D02*
X286688549Y-281857539D01*
X286688549Y-281857539D02*
X286736168Y-281905158D01*
X286736168Y-281905158D02*
X286879025Y-282000396D01*
X286879025Y-282000396D02*
X287069501Y-282048015D01*
X287069501Y-282048015D02*
X287450453Y-282048015D01*
X287450453Y-282048015D02*
X287545691Y-282000396D01*
X287545691Y-282000396D02*
X287593311Y-281952777D01*
X287593311Y-281952777D02*
X287640930Y-281857539D01*
X287640930Y-281857539D02*
X287640930Y-281667063D01*
X287640930Y-281667063D02*
X287593311Y-281571825D01*
X287593311Y-281571825D02*
X287545691Y-281524206D01*
X287545691Y-281524206D02*
X287450453Y-281476587D01*
X287450453Y-281476587D02*
X287212358Y-281476587D01*
X287212358Y-281476587D02*
X287117120Y-281524206D01*
X287117120Y-281524206D02*
X287069501Y-281571825D01*
X287069501Y-281571825D02*
X287021882Y-281667063D01*
X287021882Y-281667063D02*
X287021882Y-281857539D01*
X287021882Y-281857539D02*
X287069501Y-281952777D01*
X287069501Y-281952777D02*
X287117120Y-282000396D01*
X287117120Y-282000396D02*
X287212358Y-282048015D01*
X287640930Y-281000396D02*
X287640930Y-280809920D01*
X287640930Y-280809920D02*
X287593311Y-280714682D01*
X287593311Y-280714682D02*
X287545691Y-280667063D01*
X287545691Y-280667063D02*
X287402834Y-280571825D01*
X287402834Y-280571825D02*
X287212358Y-280524206D01*
X287212358Y-280524206D02*
X286831406Y-280524206D01*
X286831406Y-280524206D02*
X286736168Y-280571825D01*
X286736168Y-280571825D02*
X286688549Y-280619444D01*
X286688549Y-280619444D02*
X286640930Y-280714682D01*
X286640930Y-280714682D02*
X286640930Y-280905158D01*
X286640930Y-280905158D02*
X286688549Y-281000396D01*
X286688549Y-281000396D02*
X286736168Y-281048015D01*
X286736168Y-281048015D02*
X286831406Y-281095634D01*
X286831406Y-281095634D02*
X287069501Y-281095634D01*
X287069501Y-281095634D02*
X287164739Y-281048015D01*
X287164739Y-281048015D02*
X287212358Y-281000396D01*
X287212358Y-281000396D02*
X287259977Y-280905158D01*
X287259977Y-280905158D02*
X287259977Y-280714682D01*
X287259977Y-280714682D02*
X287212358Y-280619444D01*
X287212358Y-280619444D02*
X287164739Y-280571825D01*
X287164739Y-280571825D02*
X287069501Y-280524206D01*
X294294206Y-95810930D02*
X294294206Y-96620453D01*
X294294206Y-96620453D02*
X294341825Y-96715691D01*
X294341825Y-96715691D02*
X294389444Y-96763311D01*
X294389444Y-96763311D02*
X294484682Y-96810930D01*
X294484682Y-96810930D02*
X294675158Y-96810930D01*
X294675158Y-96810930D02*
X294770396Y-96763311D01*
X294770396Y-96763311D02*
X294818015Y-96715691D01*
X294818015Y-96715691D02*
X294865634Y-96620453D01*
X294865634Y-96620453D02*
X294865634Y-95810930D01*
X295294206Y-95906168D02*
X295341825Y-95858549D01*
X295341825Y-95858549D02*
X295437063Y-95810930D01*
X295437063Y-95810930D02*
X295675158Y-95810930D01*
X295675158Y-95810930D02*
X295770396Y-95858549D01*
X295770396Y-95858549D02*
X295818015Y-95906168D01*
X295818015Y-95906168D02*
X295865634Y-96001406D01*
X295865634Y-96001406D02*
X295865634Y-96096644D01*
X295865634Y-96096644D02*
X295818015Y-96239501D01*
X295818015Y-96239501D02*
X295246587Y-96810930D01*
X295246587Y-96810930D02*
X295865634Y-96810930D01*
X291901730Y-116029834D02*
X292711253Y-116029834D01*
X292711253Y-116029834D02*
X292806491Y-115982215D01*
X292806491Y-115982215D02*
X292854111Y-115934596D01*
X292854111Y-115934596D02*
X292901730Y-115839358D01*
X292901730Y-115839358D02*
X292901730Y-115648882D01*
X292901730Y-115648882D02*
X292854111Y-115553644D01*
X292854111Y-115553644D02*
X292806491Y-115506025D01*
X292806491Y-115506025D02*
X292711253Y-115458406D01*
X292711253Y-115458406D02*
X291901730Y-115458406D01*
X292854111Y-115029834D02*
X292901730Y-114886977D01*
X292901730Y-114886977D02*
X292901730Y-114648882D01*
X292901730Y-114648882D02*
X292854111Y-114553644D01*
X292854111Y-114553644D02*
X292806491Y-114506025D01*
X292806491Y-114506025D02*
X292711253Y-114458406D01*
X292711253Y-114458406D02*
X292616015Y-114458406D01*
X292616015Y-114458406D02*
X292520777Y-114506025D01*
X292520777Y-114506025D02*
X292473158Y-114553644D01*
X292473158Y-114553644D02*
X292425539Y-114648882D01*
X292425539Y-114648882D02*
X292377920Y-114839358D01*
X292377920Y-114839358D02*
X292330301Y-114934596D01*
X292330301Y-114934596D02*
X292282682Y-114982215D01*
X292282682Y-114982215D02*
X292187444Y-115029834D01*
X292187444Y-115029834D02*
X292092206Y-115029834D01*
X292092206Y-115029834D02*
X291996968Y-114982215D01*
X291996968Y-114982215D02*
X291949349Y-114934596D01*
X291949349Y-114934596D02*
X291901730Y-114839358D01*
X291901730Y-114839358D02*
X291901730Y-114601263D01*
X291901730Y-114601263D02*
X291949349Y-114458406D01*
X292377920Y-113696501D02*
X292425539Y-113553644D01*
X292425539Y-113553644D02*
X292473158Y-113506025D01*
X292473158Y-113506025D02*
X292568396Y-113458406D01*
X292568396Y-113458406D02*
X292711253Y-113458406D01*
X292711253Y-113458406D02*
X292806491Y-113506025D01*
X292806491Y-113506025D02*
X292854111Y-113553644D01*
X292854111Y-113553644D02*
X292901730Y-113648882D01*
X292901730Y-113648882D02*
X292901730Y-114029834D01*
X292901730Y-114029834D02*
X291901730Y-114029834D01*
X291901730Y-114029834D02*
X291901730Y-113696501D01*
X291901730Y-113696501D02*
X291949349Y-113601263D01*
X291949349Y-113601263D02*
X291996968Y-113553644D01*
X291996968Y-113553644D02*
X292092206Y-113506025D01*
X292092206Y-113506025D02*
X292187444Y-113506025D01*
X292187444Y-113506025D02*
X292282682Y-113553644D01*
X292282682Y-113553644D02*
X292330301Y-113601263D01*
X292330301Y-113601263D02*
X292377920Y-113696501D01*
X292377920Y-113696501D02*
X292377920Y-114029834D01*
X292901730Y-112267929D02*
X291901730Y-112267929D01*
X292377920Y-112267929D02*
X292377920Y-111696501D01*
X292901730Y-111696501D02*
X291901730Y-111696501D01*
X292901730Y-111077453D02*
X292854111Y-111172691D01*
X292854111Y-111172691D02*
X292806491Y-111220310D01*
X292806491Y-111220310D02*
X292711253Y-111267929D01*
X292711253Y-111267929D02*
X292425539Y-111267929D01*
X292425539Y-111267929D02*
X292330301Y-111220310D01*
X292330301Y-111220310D02*
X292282682Y-111172691D01*
X292282682Y-111172691D02*
X292235063Y-111077453D01*
X292235063Y-111077453D02*
X292235063Y-110934596D01*
X292235063Y-110934596D02*
X292282682Y-110839358D01*
X292282682Y-110839358D02*
X292330301Y-110791739D01*
X292330301Y-110791739D02*
X292425539Y-110744120D01*
X292425539Y-110744120D02*
X292711253Y-110744120D01*
X292711253Y-110744120D02*
X292806491Y-110791739D01*
X292806491Y-110791739D02*
X292854111Y-110839358D01*
X292854111Y-110839358D02*
X292901730Y-110934596D01*
X292901730Y-110934596D02*
X292901730Y-111077453D01*
X292854111Y-110363167D02*
X292901730Y-110267929D01*
X292901730Y-110267929D02*
X292901730Y-110077453D01*
X292901730Y-110077453D02*
X292854111Y-109982215D01*
X292854111Y-109982215D02*
X292758872Y-109934596D01*
X292758872Y-109934596D02*
X292711253Y-109934596D01*
X292711253Y-109934596D02*
X292616015Y-109982215D01*
X292616015Y-109982215D02*
X292568396Y-110077453D01*
X292568396Y-110077453D02*
X292568396Y-110220310D01*
X292568396Y-110220310D02*
X292520777Y-110315548D01*
X292520777Y-110315548D02*
X292425539Y-110363167D01*
X292425539Y-110363167D02*
X292377920Y-110363167D01*
X292377920Y-110363167D02*
X292282682Y-110315548D01*
X292282682Y-110315548D02*
X292235063Y-110220310D01*
X292235063Y-110220310D02*
X292235063Y-110077453D01*
X292235063Y-110077453D02*
X292282682Y-109982215D01*
X292235063Y-109648881D02*
X292235063Y-109267929D01*
X291901730Y-109506024D02*
X292758872Y-109506024D01*
X292758872Y-109506024D02*
X292854111Y-109458405D01*
X292854111Y-109458405D02*
X292901730Y-109363167D01*
X292901730Y-109363167D02*
X292901730Y-109267929D01*
X293674206Y-103970930D02*
X293674206Y-104780453D01*
X293674206Y-104780453D02*
X293721825Y-104875691D01*
X293721825Y-104875691D02*
X293769444Y-104923311D01*
X293769444Y-104923311D02*
X293864682Y-104970930D01*
X293864682Y-104970930D02*
X294055158Y-104970930D01*
X294055158Y-104970930D02*
X294150396Y-104923311D01*
X294150396Y-104923311D02*
X294198015Y-104875691D01*
X294198015Y-104875691D02*
X294245634Y-104780453D01*
X294245634Y-104780453D02*
X294245634Y-103970930D01*
X294674206Y-104923311D02*
X294817063Y-104970930D01*
X294817063Y-104970930D02*
X295055158Y-104970930D01*
X295055158Y-104970930D02*
X295150396Y-104923311D01*
X295150396Y-104923311D02*
X295198015Y-104875691D01*
X295198015Y-104875691D02*
X295245634Y-104780453D01*
X295245634Y-104780453D02*
X295245634Y-104685215D01*
X295245634Y-104685215D02*
X295198015Y-104589977D01*
X295198015Y-104589977D02*
X295150396Y-104542358D01*
X295150396Y-104542358D02*
X295055158Y-104494739D01*
X295055158Y-104494739D02*
X294864682Y-104447120D01*
X294864682Y-104447120D02*
X294769444Y-104399501D01*
X294769444Y-104399501D02*
X294721825Y-104351882D01*
X294721825Y-104351882D02*
X294674206Y-104256644D01*
X294674206Y-104256644D02*
X294674206Y-104161406D01*
X294674206Y-104161406D02*
X294721825Y-104066168D01*
X294721825Y-104066168D02*
X294769444Y-104018549D01*
X294769444Y-104018549D02*
X294864682Y-103970930D01*
X294864682Y-103970930D02*
X295102777Y-103970930D01*
X295102777Y-103970930D02*
X295245634Y-104018549D01*
X296007539Y-104447120D02*
X296150396Y-104494739D01*
X296150396Y-104494739D02*
X296198015Y-104542358D01*
X296198015Y-104542358D02*
X296245634Y-104637596D01*
X296245634Y-104637596D02*
X296245634Y-104780453D01*
X296245634Y-104780453D02*
X296198015Y-104875691D01*
X296198015Y-104875691D02*
X296150396Y-104923311D01*
X296150396Y-104923311D02*
X296055158Y-104970930D01*
X296055158Y-104970930D02*
X295674206Y-104970930D01*
X295674206Y-104970930D02*
X295674206Y-103970930D01*
X295674206Y-103970930D02*
X296007539Y-103970930D01*
X296007539Y-103970930D02*
X296102777Y-104018549D01*
X296102777Y-104018549D02*
X296150396Y-104066168D01*
X296150396Y-104066168D02*
X296198015Y-104161406D01*
X296198015Y-104161406D02*
X296198015Y-104256644D01*
X296198015Y-104256644D02*
X296150396Y-104351882D01*
X296150396Y-104351882D02*
X296102777Y-104399501D01*
X296102777Y-104399501D02*
X296007539Y-104447120D01*
X296007539Y-104447120D02*
X295674206Y-104447120D01*
X291412301Y-130278406D02*
X291412301Y-129478406D01*
X291412301Y-129478406D02*
X291678967Y-130049834D01*
X291678967Y-130049834D02*
X291945634Y-129478406D01*
X291945634Y-129478406D02*
X291945634Y-130278406D01*
X292326587Y-130278406D02*
X292326587Y-129478406D01*
X292707539Y-130278406D02*
X292707539Y-129478406D01*
X292707539Y-129478406D02*
X292974205Y-130049834D01*
X292974205Y-130049834D02*
X293240872Y-129478406D01*
X293240872Y-129478406D02*
X293240872Y-130278406D01*
X293545634Y-129478406D02*
X294078968Y-130278406D01*
X294078968Y-129478406D02*
X293545634Y-130278406D01*
X294840873Y-130278406D02*
X294574206Y-129897453D01*
X294383730Y-130278406D02*
X294383730Y-129478406D01*
X294383730Y-129478406D02*
X294688492Y-129478406D01*
X294688492Y-129478406D02*
X294764682Y-129516501D01*
X294764682Y-129516501D02*
X294802777Y-129554596D01*
X294802777Y-129554596D02*
X294840873Y-129630787D01*
X294840873Y-129630787D02*
X294840873Y-129745072D01*
X294840873Y-129745072D02*
X294802777Y-129821263D01*
X294802777Y-129821263D02*
X294764682Y-129859358D01*
X294764682Y-129859358D02*
X294688492Y-129897453D01*
X294688492Y-129897453D02*
X294383730Y-129897453D01*
X295069444Y-129478406D02*
X295526587Y-129478406D01*
X295298015Y-130278406D02*
X295298015Y-129478406D01*
X296212301Y-130278406D02*
X295755158Y-130278406D01*
X295983730Y-130278406D02*
X295983730Y-129478406D01*
X295983730Y-129478406D02*
X295907539Y-129592691D01*
X295907539Y-129592691D02*
X295831349Y-129668882D01*
X295831349Y-129668882D02*
X295755158Y-129706977D01*
X296707540Y-129478406D02*
X296783730Y-129478406D01*
X296783730Y-129478406D02*
X296859921Y-129516501D01*
X296859921Y-129516501D02*
X296898016Y-129554596D01*
X296898016Y-129554596D02*
X296936111Y-129630787D01*
X296936111Y-129630787D02*
X296974206Y-129783168D01*
X296974206Y-129783168D02*
X296974206Y-129973644D01*
X296974206Y-129973644D02*
X296936111Y-130126025D01*
X296936111Y-130126025D02*
X296898016Y-130202215D01*
X296898016Y-130202215D02*
X296859921Y-130240311D01*
X296859921Y-130240311D02*
X296783730Y-130278406D01*
X296783730Y-130278406D02*
X296707540Y-130278406D01*
X296707540Y-130278406D02*
X296631349Y-130240311D01*
X296631349Y-130240311D02*
X296593254Y-130202215D01*
X296593254Y-130202215D02*
X296555159Y-130126025D01*
X296555159Y-130126025D02*
X296517063Y-129973644D01*
X296517063Y-129973644D02*
X296517063Y-129783168D01*
X296517063Y-129783168D02*
X296555159Y-129630787D01*
X296555159Y-129630787D02*
X296593254Y-129554596D01*
X296593254Y-129554596D02*
X296631349Y-129516501D01*
X296631349Y-129516501D02*
X296707540Y-129478406D01*
X297659921Y-129478406D02*
X297507540Y-129478406D01*
X297507540Y-129478406D02*
X297431349Y-129516501D01*
X297431349Y-129516501D02*
X297393254Y-129554596D01*
X297393254Y-129554596D02*
X297317064Y-129668882D01*
X297317064Y-129668882D02*
X297278968Y-129821263D01*
X297278968Y-129821263D02*
X297278968Y-130126025D01*
X297278968Y-130126025D02*
X297317064Y-130202215D01*
X297317064Y-130202215D02*
X297355159Y-130240311D01*
X297355159Y-130240311D02*
X297431349Y-130278406D01*
X297431349Y-130278406D02*
X297583730Y-130278406D01*
X297583730Y-130278406D02*
X297659921Y-130240311D01*
X297659921Y-130240311D02*
X297698016Y-130202215D01*
X297698016Y-130202215D02*
X297736111Y-130126025D01*
X297736111Y-130126025D02*
X297736111Y-129935549D01*
X297736111Y-129935549D02*
X297698016Y-129859358D01*
X297698016Y-129859358D02*
X297659921Y-129821263D01*
X297659921Y-129821263D02*
X297583730Y-129783168D01*
X297583730Y-129783168D02*
X297431349Y-129783168D01*
X297431349Y-129783168D02*
X297355159Y-129821263D01*
X297355159Y-129821263D02*
X297317064Y-129859358D01*
X297317064Y-129859358D02*
X297278968Y-129935549D01*
X298040873Y-129554596D02*
X298078969Y-129516501D01*
X298078969Y-129516501D02*
X298155159Y-129478406D01*
X298155159Y-129478406D02*
X298345635Y-129478406D01*
X298345635Y-129478406D02*
X298421826Y-129516501D01*
X298421826Y-129516501D02*
X298459921Y-129554596D01*
X298459921Y-129554596D02*
X298498016Y-129630787D01*
X298498016Y-129630787D02*
X298498016Y-129706977D01*
X298498016Y-129706977D02*
X298459921Y-129821263D01*
X298459921Y-129821263D02*
X298002778Y-130278406D01*
X298002778Y-130278406D02*
X298498016Y-130278406D01*
X295390930Y-158435158D02*
X294390930Y-158435158D01*
X294390930Y-158435158D02*
X295105215Y-158101825D01*
X295105215Y-158101825D02*
X294390930Y-157768492D01*
X294390930Y-157768492D02*
X295390930Y-157768492D01*
X295390930Y-157292301D02*
X294724263Y-157292301D01*
X294390930Y-157292301D02*
X294438549Y-157339920D01*
X294438549Y-157339920D02*
X294486168Y-157292301D01*
X294486168Y-157292301D02*
X294438549Y-157244682D01*
X294438549Y-157244682D02*
X294390930Y-157292301D01*
X294390930Y-157292301D02*
X294486168Y-157292301D01*
X295343311Y-156387540D02*
X295390930Y-156482778D01*
X295390930Y-156482778D02*
X295390930Y-156673254D01*
X295390930Y-156673254D02*
X295343311Y-156768492D01*
X295343311Y-156768492D02*
X295295691Y-156816111D01*
X295295691Y-156816111D02*
X295200453Y-156863730D01*
X295200453Y-156863730D02*
X294914739Y-156863730D01*
X294914739Y-156863730D02*
X294819501Y-156816111D01*
X294819501Y-156816111D02*
X294771882Y-156768492D01*
X294771882Y-156768492D02*
X294724263Y-156673254D01*
X294724263Y-156673254D02*
X294724263Y-156482778D01*
X294724263Y-156482778D02*
X294771882Y-156387540D01*
X295390930Y-155958968D02*
X294724263Y-155958968D01*
X294914739Y-155958968D02*
X294819501Y-155911349D01*
X294819501Y-155911349D02*
X294771882Y-155863730D01*
X294771882Y-155863730D02*
X294724263Y-155768492D01*
X294724263Y-155768492D02*
X294724263Y-155673254D01*
X295390930Y-155197063D02*
X295343311Y-155292301D01*
X295343311Y-155292301D02*
X295295691Y-155339920D01*
X295295691Y-155339920D02*
X295200453Y-155387539D01*
X295200453Y-155387539D02*
X294914739Y-155387539D01*
X294914739Y-155387539D02*
X294819501Y-155339920D01*
X294819501Y-155339920D02*
X294771882Y-155292301D01*
X294771882Y-155292301D02*
X294724263Y-155197063D01*
X294724263Y-155197063D02*
X294724263Y-155054206D01*
X294724263Y-155054206D02*
X294771882Y-154958968D01*
X294771882Y-154958968D02*
X294819501Y-154911349D01*
X294819501Y-154911349D02*
X294914739Y-154863730D01*
X294914739Y-154863730D02*
X295200453Y-154863730D01*
X295200453Y-154863730D02*
X295295691Y-154911349D01*
X295295691Y-154911349D02*
X295343311Y-154958968D01*
X295343311Y-154958968D02*
X295390930Y-155054206D01*
X295390930Y-155054206D02*
X295390930Y-155197063D01*
X295343311Y-153720872D02*
X295390930Y-153578015D01*
X295390930Y-153578015D02*
X295390930Y-153339920D01*
X295390930Y-153339920D02*
X295343311Y-153244682D01*
X295343311Y-153244682D02*
X295295691Y-153197063D01*
X295295691Y-153197063D02*
X295200453Y-153149444D01*
X295200453Y-153149444D02*
X295105215Y-153149444D01*
X295105215Y-153149444D02*
X295009977Y-153197063D01*
X295009977Y-153197063D02*
X294962358Y-153244682D01*
X294962358Y-153244682D02*
X294914739Y-153339920D01*
X294914739Y-153339920D02*
X294867120Y-153530396D01*
X294867120Y-153530396D02*
X294819501Y-153625634D01*
X294819501Y-153625634D02*
X294771882Y-153673253D01*
X294771882Y-153673253D02*
X294676644Y-153720872D01*
X294676644Y-153720872D02*
X294581406Y-153720872D01*
X294581406Y-153720872D02*
X294486168Y-153673253D01*
X294486168Y-153673253D02*
X294438549Y-153625634D01*
X294438549Y-153625634D02*
X294390930Y-153530396D01*
X294390930Y-153530396D02*
X294390930Y-153292301D01*
X294390930Y-153292301D02*
X294438549Y-153149444D01*
X295390930Y-152720872D02*
X294390930Y-152720872D01*
X294390930Y-152720872D02*
X294390930Y-152482777D01*
X294390930Y-152482777D02*
X294438549Y-152339920D01*
X294438549Y-152339920D02*
X294533787Y-152244682D01*
X294533787Y-152244682D02*
X294629025Y-152197063D01*
X294629025Y-152197063D02*
X294819501Y-152149444D01*
X294819501Y-152149444D02*
X294962358Y-152149444D01*
X294962358Y-152149444D02*
X295152834Y-152197063D01*
X295152834Y-152197063D02*
X295248072Y-152244682D01*
X295248072Y-152244682D02*
X295343311Y-152339920D01*
X295343311Y-152339920D02*
X295390930Y-152482777D01*
X295390930Y-152482777D02*
X295390930Y-152720872D01*
X293535159Y-129008406D02*
X293535159Y-128208406D01*
X293535159Y-128208406D02*
X293725635Y-128208406D01*
X293725635Y-128208406D02*
X293839921Y-128246501D01*
X293839921Y-128246501D02*
X293916111Y-128322691D01*
X293916111Y-128322691D02*
X293954206Y-128398882D01*
X293954206Y-128398882D02*
X293992302Y-128551263D01*
X293992302Y-128551263D02*
X293992302Y-128665549D01*
X293992302Y-128665549D02*
X293954206Y-128817930D01*
X293954206Y-128817930D02*
X293916111Y-128894120D01*
X293916111Y-128894120D02*
X293839921Y-128970311D01*
X293839921Y-128970311D02*
X293725635Y-129008406D01*
X293725635Y-129008406D02*
X293535159Y-129008406D01*
X294220873Y-128208406D02*
X294487540Y-129008406D01*
X294487540Y-129008406D02*
X294754206Y-128208406D01*
X295249444Y-128208406D02*
X295249444Y-128779834D01*
X295249444Y-128779834D02*
X295211349Y-128894120D01*
X295211349Y-128894120D02*
X295135158Y-128970311D01*
X295135158Y-128970311D02*
X295020873Y-129008406D01*
X295020873Y-129008406D02*
X294944682Y-129008406D01*
X295973254Y-128208406D02*
X295820873Y-128208406D01*
X295820873Y-128208406D02*
X295744682Y-128246501D01*
X295744682Y-128246501D02*
X295706587Y-128284596D01*
X295706587Y-128284596D02*
X295630397Y-128398882D01*
X295630397Y-128398882D02*
X295592301Y-128551263D01*
X295592301Y-128551263D02*
X295592301Y-128856025D01*
X295592301Y-128856025D02*
X295630397Y-128932215D01*
X295630397Y-128932215D02*
X295668492Y-128970311D01*
X295668492Y-128970311D02*
X295744682Y-129008406D01*
X295744682Y-129008406D02*
X295897063Y-129008406D01*
X295897063Y-129008406D02*
X295973254Y-128970311D01*
X295973254Y-128970311D02*
X296011349Y-128932215D01*
X296011349Y-128932215D02*
X296049444Y-128856025D01*
X296049444Y-128856025D02*
X296049444Y-128665549D01*
X296049444Y-128665549D02*
X296011349Y-128589358D01*
X296011349Y-128589358D02*
X295973254Y-128551263D01*
X295973254Y-128551263D02*
X295897063Y-128513168D01*
X295897063Y-128513168D02*
X295744682Y-128513168D01*
X295744682Y-128513168D02*
X295668492Y-128551263D01*
X295668492Y-128551263D02*
X295630397Y-128589358D01*
X295630397Y-128589358D02*
X295592301Y-128665549D01*
X296354206Y-128779834D02*
X296735159Y-128779834D01*
X296278016Y-129008406D02*
X296544683Y-128208406D01*
X296544683Y-128208406D02*
X296811349Y-129008406D01*
X295355567Y-119052120D02*
X295688900Y-119052120D01*
X295831757Y-119575930D02*
X295355567Y-119575930D01*
X295355567Y-119575930D02*
X295355567Y-118575930D01*
X295355567Y-118575930D02*
X295831757Y-118575930D01*
X296117472Y-118909263D02*
X296498424Y-118909263D01*
X296260329Y-118575930D02*
X296260329Y-119433072D01*
X296260329Y-119433072D02*
X296307948Y-119528311D01*
X296307948Y-119528311D02*
X296403186Y-119575930D01*
X296403186Y-119575930D02*
X296498424Y-119575930D01*
X296831758Y-119575930D02*
X296831758Y-118575930D01*
X297260329Y-119575930D02*
X297260329Y-119052120D01*
X297260329Y-119052120D02*
X297212710Y-118956882D01*
X297212710Y-118956882D02*
X297117472Y-118909263D01*
X297117472Y-118909263D02*
X296974615Y-118909263D01*
X296974615Y-118909263D02*
X296879377Y-118956882D01*
X296879377Y-118956882D02*
X296831758Y-119004501D01*
X298117472Y-119528311D02*
X298022234Y-119575930D01*
X298022234Y-119575930D02*
X297831758Y-119575930D01*
X297831758Y-119575930D02*
X297736520Y-119528311D01*
X297736520Y-119528311D02*
X297688901Y-119433072D01*
X297688901Y-119433072D02*
X297688901Y-119052120D01*
X297688901Y-119052120D02*
X297736520Y-118956882D01*
X297736520Y-118956882D02*
X297831758Y-118909263D01*
X297831758Y-118909263D02*
X298022234Y-118909263D01*
X298022234Y-118909263D02*
X298117472Y-118956882D01*
X298117472Y-118956882D02*
X298165091Y-119052120D01*
X298165091Y-119052120D02*
X298165091Y-119147358D01*
X298165091Y-119147358D02*
X297688901Y-119242596D01*
X298593663Y-119575930D02*
X298593663Y-118909263D01*
X298593663Y-119099739D02*
X298641282Y-119004501D01*
X298641282Y-119004501D02*
X298688901Y-118956882D01*
X298688901Y-118956882D02*
X298784139Y-118909263D01*
X298784139Y-118909263D02*
X298879377Y-118909263D01*
X299212711Y-118909263D02*
X299212711Y-119575930D01*
X299212711Y-119004501D02*
X299260330Y-118956882D01*
X299260330Y-118956882D02*
X299355568Y-118909263D01*
X299355568Y-118909263D02*
X299498425Y-118909263D01*
X299498425Y-118909263D02*
X299593663Y-118956882D01*
X299593663Y-118956882D02*
X299641282Y-119052120D01*
X299641282Y-119052120D02*
X299641282Y-119575930D01*
X300498425Y-119528311D02*
X300403187Y-119575930D01*
X300403187Y-119575930D02*
X300212711Y-119575930D01*
X300212711Y-119575930D02*
X300117473Y-119528311D01*
X300117473Y-119528311D02*
X300069854Y-119433072D01*
X300069854Y-119433072D02*
X300069854Y-119052120D01*
X300069854Y-119052120D02*
X300117473Y-118956882D01*
X300117473Y-118956882D02*
X300212711Y-118909263D01*
X300212711Y-118909263D02*
X300403187Y-118909263D01*
X300403187Y-118909263D02*
X300498425Y-118956882D01*
X300498425Y-118956882D02*
X300546044Y-119052120D01*
X300546044Y-119052120D02*
X300546044Y-119147358D01*
X300546044Y-119147358D02*
X300069854Y-119242596D01*
X300831759Y-118909263D02*
X301212711Y-118909263D01*
X300974616Y-118575930D02*
X300974616Y-119433072D01*
X300974616Y-119433072D02*
X301022235Y-119528311D01*
X301022235Y-119528311D02*
X301117473Y-119575930D01*
X301117473Y-119575930D02*
X301212711Y-119575930D01*
X302590930Y-347905634D02*
X303305215Y-347905634D01*
X303305215Y-347905634D02*
X303448072Y-347953253D01*
X303448072Y-347953253D02*
X303543311Y-348048491D01*
X303543311Y-348048491D02*
X303590930Y-348191348D01*
X303590930Y-348191348D02*
X303590930Y-348286586D01*
X303590930Y-346905634D02*
X303590930Y-347477062D01*
X303590930Y-347191348D02*
X302590930Y-347191348D01*
X302590930Y-347191348D02*
X302733787Y-347286586D01*
X302733787Y-347286586D02*
X302829025Y-347381824D01*
X302829025Y-347381824D02*
X302876644Y-347477062D01*
X302590930Y-346572300D02*
X302590930Y-345905634D01*
X302590930Y-345905634D02*
X303590930Y-346334205D01*
X281880930Y-282428968D02*
X281404739Y-282762301D01*
X281880930Y-283000396D02*
X280880930Y-283000396D01*
X280880930Y-283000396D02*
X280880930Y-282619444D01*
X280880930Y-282619444D02*
X280928549Y-282524206D01*
X280928549Y-282524206D02*
X280976168Y-282476587D01*
X280976168Y-282476587D02*
X281071406Y-282428968D01*
X281071406Y-282428968D02*
X281214263Y-282428968D01*
X281214263Y-282428968D02*
X281309501Y-282476587D01*
X281309501Y-282476587D02*
X281357120Y-282524206D01*
X281357120Y-282524206D02*
X281404739Y-282619444D01*
X281404739Y-282619444D02*
X281404739Y-283000396D01*
X280880930Y-282095634D02*
X280880930Y-281428968D01*
X280880930Y-281428968D02*
X281880930Y-281857539D01*
X280880930Y-280857539D02*
X280880930Y-280762301D01*
X280880930Y-280762301D02*
X280928549Y-280667063D01*
X280928549Y-280667063D02*
X280976168Y-280619444D01*
X280976168Y-280619444D02*
X281071406Y-280571825D01*
X281071406Y-280571825D02*
X281261882Y-280524206D01*
X281261882Y-280524206D02*
X281499977Y-280524206D01*
X281499977Y-280524206D02*
X281690453Y-280571825D01*
X281690453Y-280571825D02*
X281785691Y-280619444D01*
X281785691Y-280619444D02*
X281833311Y-280667063D01*
X281833311Y-280667063D02*
X281880930Y-280762301D01*
X281880930Y-280762301D02*
X281880930Y-280857539D01*
X281880930Y-280857539D02*
X281833311Y-280952777D01*
X281833311Y-280952777D02*
X281785691Y-281000396D01*
X281785691Y-281000396D02*
X281690453Y-281048015D01*
X281690453Y-281048015D02*
X281499977Y-281095634D01*
X281499977Y-281095634D02*
X281261882Y-281095634D01*
X281261882Y-281095634D02*
X281071406Y-281048015D01*
X281071406Y-281048015D02*
X280976168Y-281000396D01*
X280976168Y-281000396D02*
X280928549Y-280952777D01*
X280928549Y-280952777D02*
X280880930Y-280857539D01*
X241850930Y-122467222D02*
X242565215Y-122467222D01*
X242565215Y-122467222D02*
X242708072Y-122514841D01*
X242708072Y-122514841D02*
X242803311Y-122610079D01*
X242803311Y-122610079D02*
X242850930Y-122752936D01*
X242850930Y-122752936D02*
X242850930Y-122848174D01*
X241850930Y-122086269D02*
X241850930Y-121467222D01*
X241850930Y-121467222D02*
X242231882Y-121800555D01*
X242231882Y-121800555D02*
X242231882Y-121657698D01*
X242231882Y-121657698D02*
X242279501Y-121562460D01*
X242279501Y-121562460D02*
X242327120Y-121514841D01*
X242327120Y-121514841D02*
X242422358Y-121467222D01*
X242422358Y-121467222D02*
X242660453Y-121467222D01*
X242660453Y-121467222D02*
X242755691Y-121514841D01*
X242755691Y-121514841D02*
X242803311Y-121562460D01*
X242803311Y-121562460D02*
X242850930Y-121657698D01*
X242850930Y-121657698D02*
X242850930Y-121943412D01*
X242850930Y-121943412D02*
X242803311Y-122038650D01*
X242803311Y-122038650D02*
X242755691Y-122086269D01*
X297380930Y-337428968D02*
X296904739Y-337762301D01*
X297380930Y-338000396D02*
X296380930Y-338000396D01*
X296380930Y-338000396D02*
X296380930Y-337619444D01*
X296380930Y-337619444D02*
X296428549Y-337524206D01*
X296428549Y-337524206D02*
X296476168Y-337476587D01*
X296476168Y-337476587D02*
X296571406Y-337428968D01*
X296571406Y-337428968D02*
X296714263Y-337428968D01*
X296714263Y-337428968D02*
X296809501Y-337476587D01*
X296809501Y-337476587D02*
X296857120Y-337524206D01*
X296857120Y-337524206D02*
X296904739Y-337619444D01*
X296904739Y-337619444D02*
X296904739Y-338000396D01*
X296476168Y-337048015D02*
X296428549Y-337000396D01*
X296428549Y-337000396D02*
X296380930Y-336905158D01*
X296380930Y-336905158D02*
X296380930Y-336667063D01*
X296380930Y-336667063D02*
X296428549Y-336571825D01*
X296428549Y-336571825D02*
X296476168Y-336524206D01*
X296476168Y-336524206D02*
X296571406Y-336476587D01*
X296571406Y-336476587D02*
X296666644Y-336476587D01*
X296666644Y-336476587D02*
X296809501Y-336524206D01*
X296809501Y-336524206D02*
X297380930Y-337095634D01*
X297380930Y-337095634D02*
X297380930Y-336476587D01*
X296476168Y-336095634D02*
X296428549Y-336048015D01*
X296428549Y-336048015D02*
X296380930Y-335952777D01*
X296380930Y-335952777D02*
X296380930Y-335714682D01*
X296380930Y-335714682D02*
X296428549Y-335619444D01*
X296428549Y-335619444D02*
X296476168Y-335571825D01*
X296476168Y-335571825D02*
X296571406Y-335524206D01*
X296571406Y-335524206D02*
X296666644Y-335524206D01*
X296666644Y-335524206D02*
X296809501Y-335571825D01*
X296809501Y-335571825D02*
X297380930Y-336143253D01*
X297380930Y-336143253D02*
X297380930Y-335524206D01*
X307790930Y-89635634D02*
X308505215Y-89635634D01*
X308505215Y-89635634D02*
X308648072Y-89683253D01*
X308648072Y-89683253D02*
X308743311Y-89778491D01*
X308743311Y-89778491D02*
X308790930Y-89921348D01*
X308790930Y-89921348D02*
X308790930Y-90016586D01*
X308790930Y-88635634D02*
X308790930Y-89207062D01*
X308790930Y-88921348D02*
X307790930Y-88921348D01*
X307790930Y-88921348D02*
X307933787Y-89016586D01*
X307933787Y-89016586D02*
X308029025Y-89111824D01*
X308029025Y-89111824D02*
X308076644Y-89207062D01*
X308790930Y-87683253D02*
X308790930Y-88254681D01*
X308790930Y-87968967D02*
X307790930Y-87968967D01*
X307790930Y-87968967D02*
X307933787Y-88064205D01*
X307933787Y-88064205D02*
X308029025Y-88159443D01*
X308029025Y-88159443D02*
X308076644Y-88254681D01*
X308262197Y-62754858D02*
X308262197Y-63469143D01*
X308262197Y-63469143D02*
X308214578Y-63612000D01*
X308214578Y-63612000D02*
X308119340Y-63707239D01*
X308119340Y-63707239D02*
X307976483Y-63754858D01*
X307976483Y-63754858D02*
X307881245Y-63754858D01*
X308643150Y-62754858D02*
X309262197Y-62754858D01*
X309262197Y-62754858D02*
X308928864Y-63135810D01*
X308928864Y-63135810D02*
X309071721Y-63135810D01*
X309071721Y-63135810D02*
X309166959Y-63183429D01*
X309166959Y-63183429D02*
X309214578Y-63231048D01*
X309214578Y-63231048D02*
X309262197Y-63326286D01*
X309262197Y-63326286D02*
X309262197Y-63564381D01*
X309262197Y-63564381D02*
X309214578Y-63659619D01*
X309214578Y-63659619D02*
X309166959Y-63707239D01*
X309166959Y-63707239D02*
X309071721Y-63754858D01*
X309071721Y-63754858D02*
X308786007Y-63754858D01*
X308786007Y-63754858D02*
X308690769Y-63707239D01*
X308690769Y-63707239D02*
X308643150Y-63659619D01*
X309881245Y-62754858D02*
X309976483Y-62754858D01*
X309976483Y-62754858D02*
X310071721Y-62802477D01*
X310071721Y-62802477D02*
X310119340Y-62850096D01*
X310119340Y-62850096D02*
X310166959Y-62945334D01*
X310166959Y-62945334D02*
X310214578Y-63135810D01*
X310214578Y-63135810D02*
X310214578Y-63373905D01*
X310214578Y-63373905D02*
X310166959Y-63564381D01*
X310166959Y-63564381D02*
X310119340Y-63659619D01*
X310119340Y-63659619D02*
X310071721Y-63707239D01*
X310071721Y-63707239D02*
X309976483Y-63754858D01*
X309976483Y-63754858D02*
X309881245Y-63754858D01*
X309881245Y-63754858D02*
X309786007Y-63707239D01*
X309786007Y-63707239D02*
X309738388Y-63659619D01*
X309738388Y-63659619D02*
X309690769Y-63564381D01*
X309690769Y-63564381D02*
X309643150Y-63373905D01*
X309643150Y-63373905D02*
X309643150Y-63135810D01*
X309643150Y-63135810D02*
X309690769Y-62945334D01*
X309690769Y-62945334D02*
X309738388Y-62850096D01*
X309738388Y-62850096D02*
X309786007Y-62802477D01*
X309786007Y-62802477D02*
X309881245Y-62754858D01*
X305890930Y-300500396D02*
X304890930Y-300500396D01*
X304890930Y-300500396D02*
X304890930Y-300262301D01*
X304890930Y-300262301D02*
X304938549Y-300119444D01*
X304938549Y-300119444D02*
X305033787Y-300024206D01*
X305033787Y-300024206D02*
X305129025Y-299976587D01*
X305129025Y-299976587D02*
X305319501Y-299928968D01*
X305319501Y-299928968D02*
X305462358Y-299928968D01*
X305462358Y-299928968D02*
X305652834Y-299976587D01*
X305652834Y-299976587D02*
X305748072Y-300024206D01*
X305748072Y-300024206D02*
X305843311Y-300119444D01*
X305843311Y-300119444D02*
X305890930Y-300262301D01*
X305890930Y-300262301D02*
X305890930Y-300500396D01*
X305890930Y-298976587D02*
X305890930Y-299548015D01*
X305890930Y-299262301D02*
X304890930Y-299262301D01*
X304890930Y-299262301D02*
X305033787Y-299357539D01*
X305033787Y-299357539D02*
X305129025Y-299452777D01*
X305129025Y-299452777D02*
X305176644Y-299548015D01*
X305319501Y-298405158D02*
X305271882Y-298500396D01*
X305271882Y-298500396D02*
X305224263Y-298548015D01*
X305224263Y-298548015D02*
X305129025Y-298595634D01*
X305129025Y-298595634D02*
X305081406Y-298595634D01*
X305081406Y-298595634D02*
X304986168Y-298548015D01*
X304986168Y-298548015D02*
X304938549Y-298500396D01*
X304938549Y-298500396D02*
X304890930Y-298405158D01*
X304890930Y-298405158D02*
X304890930Y-298214682D01*
X304890930Y-298214682D02*
X304938549Y-298119444D01*
X304938549Y-298119444D02*
X304986168Y-298071825D01*
X304986168Y-298071825D02*
X305081406Y-298024206D01*
X305081406Y-298024206D02*
X305129025Y-298024206D01*
X305129025Y-298024206D02*
X305224263Y-298071825D01*
X305224263Y-298071825D02*
X305271882Y-298119444D01*
X305271882Y-298119444D02*
X305319501Y-298214682D01*
X305319501Y-298214682D02*
X305319501Y-298405158D01*
X305319501Y-298405158D02*
X305367120Y-298500396D01*
X305367120Y-298500396D02*
X305414739Y-298548015D01*
X305414739Y-298548015D02*
X305509977Y-298595634D01*
X305509977Y-298595634D02*
X305700453Y-298595634D01*
X305700453Y-298595634D02*
X305795691Y-298548015D01*
X305795691Y-298548015D02*
X305843311Y-298500396D01*
X305843311Y-298500396D02*
X305890930Y-298405158D01*
X305890930Y-298405158D02*
X305890930Y-298214682D01*
X305890930Y-298214682D02*
X305843311Y-298119444D01*
X305843311Y-298119444D02*
X305795691Y-298071825D01*
X305795691Y-298071825D02*
X305700453Y-298024206D01*
X305700453Y-298024206D02*
X305509977Y-298024206D01*
X305509977Y-298024206D02*
X305414739Y-298071825D01*
X305414739Y-298071825D02*
X305367120Y-298119444D01*
X305367120Y-298119444D02*
X305319501Y-298214682D01*
X306210930Y-303358015D02*
X305210930Y-303358015D01*
X306210930Y-302786587D02*
X305639501Y-303215158D01*
X305210930Y-302786587D02*
X305782358Y-303358015D01*
X274355930Y-347905634D02*
X275070215Y-347905634D01*
X275070215Y-347905634D02*
X275213072Y-347953253D01*
X275213072Y-347953253D02*
X275308311Y-348048491D01*
X275308311Y-348048491D02*
X275355930Y-348191348D01*
X275355930Y-348191348D02*
X275355930Y-348286586D01*
X275355930Y-346905634D02*
X275355930Y-347477062D01*
X275355930Y-347191348D02*
X274355930Y-347191348D01*
X274355930Y-347191348D02*
X274498787Y-347286586D01*
X274498787Y-347286586D02*
X274594025Y-347381824D01*
X274594025Y-347381824D02*
X274641644Y-347477062D01*
X274355930Y-346572300D02*
X274355930Y-345953253D01*
X274355930Y-345953253D02*
X274736882Y-346286586D01*
X274736882Y-346286586D02*
X274736882Y-346143729D01*
X274736882Y-346143729D02*
X274784501Y-346048491D01*
X274784501Y-346048491D02*
X274832120Y-346000872D01*
X274832120Y-346000872D02*
X274927358Y-345953253D01*
X274927358Y-345953253D02*
X275165453Y-345953253D01*
X275165453Y-345953253D02*
X275260691Y-346000872D01*
X275260691Y-346000872D02*
X275308311Y-346048491D01*
X275308311Y-346048491D02*
X275355930Y-346143729D01*
X275355930Y-346143729D02*
X275355930Y-346429443D01*
X275355930Y-346429443D02*
X275308311Y-346524681D01*
X275308311Y-346524681D02*
X275260691Y-346572300D01*
X283510930Y-337930396D02*
X282510930Y-337930396D01*
X282510930Y-337930396D02*
X282510930Y-337692301D01*
X282510930Y-337692301D02*
X282558549Y-337549444D01*
X282558549Y-337549444D02*
X282653787Y-337454206D01*
X282653787Y-337454206D02*
X282749025Y-337406587D01*
X282749025Y-337406587D02*
X282939501Y-337358968D01*
X282939501Y-337358968D02*
X283082358Y-337358968D01*
X283082358Y-337358968D02*
X283272834Y-337406587D01*
X283272834Y-337406587D02*
X283368072Y-337454206D01*
X283368072Y-337454206D02*
X283463311Y-337549444D01*
X283463311Y-337549444D02*
X283510930Y-337692301D01*
X283510930Y-337692301D02*
X283510930Y-337930396D01*
X283510930Y-336406587D02*
X283510930Y-336978015D01*
X283510930Y-336692301D02*
X282510930Y-336692301D01*
X282510930Y-336692301D02*
X282653787Y-336787539D01*
X282653787Y-336787539D02*
X282749025Y-336882777D01*
X282749025Y-336882777D02*
X282796644Y-336978015D01*
X282510930Y-336073253D02*
X282510930Y-335406587D01*
X282510930Y-335406587D02*
X283510930Y-335835158D01*
X283510930Y-331478015D02*
X282510930Y-331478015D01*
X283510930Y-330906587D02*
X282939501Y-331335158D01*
X282510930Y-330906587D02*
X283082358Y-331478015D01*
X241850930Y-270504374D02*
X242565215Y-270504374D01*
X242565215Y-270504374D02*
X242708072Y-270551993D01*
X242708072Y-270551993D02*
X242803311Y-270647231D01*
X242803311Y-270647231D02*
X242850930Y-270790088D01*
X242850930Y-270790088D02*
X242850930Y-270885326D01*
X242279501Y-269885326D02*
X242231882Y-269980564D01*
X242231882Y-269980564D02*
X242184263Y-270028183D01*
X242184263Y-270028183D02*
X242089025Y-270075802D01*
X242089025Y-270075802D02*
X242041406Y-270075802D01*
X242041406Y-270075802D02*
X241946168Y-270028183D01*
X241946168Y-270028183D02*
X241898549Y-269980564D01*
X241898549Y-269980564D02*
X241850930Y-269885326D01*
X241850930Y-269885326D02*
X241850930Y-269694850D01*
X241850930Y-269694850D02*
X241898549Y-269599612D01*
X241898549Y-269599612D02*
X241946168Y-269551993D01*
X241946168Y-269551993D02*
X242041406Y-269504374D01*
X242041406Y-269504374D02*
X242089025Y-269504374D01*
X242089025Y-269504374D02*
X242184263Y-269551993D01*
X242184263Y-269551993D02*
X242231882Y-269599612D01*
X242231882Y-269599612D02*
X242279501Y-269694850D01*
X242279501Y-269694850D02*
X242279501Y-269885326D01*
X242279501Y-269885326D02*
X242327120Y-269980564D01*
X242327120Y-269980564D02*
X242374739Y-270028183D01*
X242374739Y-270028183D02*
X242469977Y-270075802D01*
X242469977Y-270075802D02*
X242660453Y-270075802D01*
X242660453Y-270075802D02*
X242755691Y-270028183D01*
X242755691Y-270028183D02*
X242803311Y-269980564D01*
X242803311Y-269980564D02*
X242850930Y-269885326D01*
X242850930Y-269885326D02*
X242850930Y-269694850D01*
X242850930Y-269694850D02*
X242803311Y-269599612D01*
X242803311Y-269599612D02*
X242755691Y-269551993D01*
X242755691Y-269551993D02*
X242660453Y-269504374D01*
X242660453Y-269504374D02*
X242469977Y-269504374D01*
X242469977Y-269504374D02*
X242374739Y-269551993D01*
X242374739Y-269551993D02*
X242327120Y-269599612D01*
X242327120Y-269599612D02*
X242279501Y-269694850D01*
X241876295Y-346269038D02*
X242590580Y-346269038D01*
X242590580Y-346269038D02*
X242733437Y-346316657D01*
X242733437Y-346316657D02*
X242828676Y-346411895D01*
X242828676Y-346411895D02*
X242876295Y-346554752D01*
X242876295Y-346554752D02*
X242876295Y-346649990D01*
X242876295Y-345269038D02*
X242876295Y-345840466D01*
X242876295Y-345554752D02*
X241876295Y-345554752D01*
X241876295Y-345554752D02*
X242019152Y-345649990D01*
X242019152Y-345649990D02*
X242114390Y-345745228D01*
X242114390Y-345745228D02*
X242162009Y-345840466D01*
X241971533Y-344888085D02*
X241923914Y-344840466D01*
X241923914Y-344840466D02*
X241876295Y-344745228D01*
X241876295Y-344745228D02*
X241876295Y-344507133D01*
X241876295Y-344507133D02*
X241923914Y-344411895D01*
X241923914Y-344411895D02*
X241971533Y-344364276D01*
X241971533Y-344364276D02*
X242066771Y-344316657D01*
X242066771Y-344316657D02*
X242162009Y-344316657D01*
X242162009Y-344316657D02*
X242304866Y-344364276D01*
X242304866Y-344364276D02*
X242876295Y-344935704D01*
X242876295Y-344935704D02*
X242876295Y-344316657D01*
X287050930Y-347905634D02*
X287765215Y-347905634D01*
X287765215Y-347905634D02*
X287908072Y-347953253D01*
X287908072Y-347953253D02*
X288003311Y-348048491D01*
X288003311Y-348048491D02*
X288050930Y-348191348D01*
X288050930Y-348191348D02*
X288050930Y-348286586D01*
X287050930Y-347524681D02*
X287050930Y-346905634D01*
X287050930Y-346905634D02*
X287431882Y-347238967D01*
X287431882Y-347238967D02*
X287431882Y-347096110D01*
X287431882Y-347096110D02*
X287479501Y-347000872D01*
X287479501Y-347000872D02*
X287527120Y-346953253D01*
X287527120Y-346953253D02*
X287622358Y-346905634D01*
X287622358Y-346905634D02*
X287860453Y-346905634D01*
X287860453Y-346905634D02*
X287955691Y-346953253D01*
X287955691Y-346953253D02*
X288003311Y-347000872D01*
X288003311Y-347000872D02*
X288050930Y-347096110D01*
X288050930Y-347096110D02*
X288050930Y-347381824D01*
X288050930Y-347381824D02*
X288003311Y-347477062D01*
X288003311Y-347477062D02*
X287955691Y-347524681D01*
X288050930Y-345953253D02*
X288050930Y-346524681D01*
X288050930Y-346238967D02*
X287050930Y-346238967D01*
X287050930Y-346238967D02*
X287193787Y-346334205D01*
X287193787Y-346334205D02*
X287289025Y-346429443D01*
X287289025Y-346429443D02*
X287336644Y-346524681D01*
X288954819Y-333642857D02*
X288478628Y-333976190D01*
X288954819Y-334214285D02*
X287954819Y-334214285D01*
X287954819Y-334214285D02*
X287954819Y-333833333D01*
X287954819Y-333833333D02*
X288002438Y-333738095D01*
X288002438Y-333738095D02*
X288050057Y-333690476D01*
X288050057Y-333690476D02*
X288145295Y-333642857D01*
X288145295Y-333642857D02*
X288288152Y-333642857D01*
X288288152Y-333642857D02*
X288383390Y-333690476D01*
X288383390Y-333690476D02*
X288431009Y-333738095D01*
X288431009Y-333738095D02*
X288478628Y-333833333D01*
X288478628Y-333833333D02*
X288478628Y-334214285D01*
X287954819Y-333309523D02*
X287954819Y-332690476D01*
X287954819Y-332690476D02*
X288335771Y-333023809D01*
X288335771Y-333023809D02*
X288335771Y-332880952D01*
X288335771Y-332880952D02*
X288383390Y-332785714D01*
X288383390Y-332785714D02*
X288431009Y-332738095D01*
X288431009Y-332738095D02*
X288526247Y-332690476D01*
X288526247Y-332690476D02*
X288764342Y-332690476D01*
X288764342Y-332690476D02*
X288859580Y-332738095D01*
X288859580Y-332738095D02*
X288907200Y-332785714D01*
X288907200Y-332785714D02*
X288954819Y-332880952D01*
X288954819Y-332880952D02*
X288954819Y-333166666D01*
X288954819Y-333166666D02*
X288907200Y-333261904D01*
X288907200Y-333261904D02*
X288859580Y-333309523D01*
X287954819Y-332071428D02*
X287954819Y-331976190D01*
X287954819Y-331976190D02*
X288002438Y-331880952D01*
X288002438Y-331880952D02*
X288050057Y-331833333D01*
X288050057Y-331833333D02*
X288145295Y-331785714D01*
X288145295Y-331785714D02*
X288335771Y-331738095D01*
X288335771Y-331738095D02*
X288573866Y-331738095D01*
X288573866Y-331738095D02*
X288764342Y-331785714D01*
X288764342Y-331785714D02*
X288859580Y-331833333D01*
X288859580Y-331833333D02*
X288907200Y-331880952D01*
X288907200Y-331880952D02*
X288954819Y-331976190D01*
X288954819Y-331976190D02*
X288954819Y-332071428D01*
X288954819Y-332071428D02*
X288907200Y-332166666D01*
X288907200Y-332166666D02*
X288859580Y-332214285D01*
X288859580Y-332214285D02*
X288764342Y-332261904D01*
X288764342Y-332261904D02*
X288573866Y-332309523D01*
X288573866Y-332309523D02*
X288335771Y-332309523D01*
X288335771Y-332309523D02*
X288145295Y-332261904D01*
X288145295Y-332261904D02*
X288050057Y-332214285D01*
X288050057Y-332214285D02*
X288002438Y-332166666D01*
X288002438Y-332166666D02*
X287954819Y-332071428D01*
%TO.C,R21*%
D13*
X297596111Y-318226111D02*
X297596111Y-318556111D01*
X297596111Y-320966111D02*
X297596111Y-320636111D01*
X304136111Y-318226111D02*
X297596111Y-318226111D01*
X304136111Y-318556111D02*
X304136111Y-318226111D01*
X304136111Y-320636111D02*
X304136111Y-320966111D01*
X304136111Y-320966111D02*
X297596111Y-320966111D01*
%TO.C,U33*%
X292096111Y-188726111D02*
X292096111Y-206626111D01*
X292096111Y-206626111D02*
X297396111Y-206626111D01*
X293746111Y-188726111D02*
X292096111Y-188726111D01*
X297396111Y-188726111D02*
X295746111Y-188726111D01*
X297396111Y-206626111D02*
X297396111Y-188726111D01*
X295746111Y-188726111D02*
G75*
G02*
X293746111Y-188726111I-1000000J0D01*
G01*
%TO.C,J10*%
X243396111Y-326791481D02*
X269016111Y-326791481D01*
X243396111Y-329441481D02*
X243396111Y-326791481D01*
X243396111Y-332091481D02*
X243396111Y-330711481D01*
X244776111Y-332091481D02*
X243396111Y-332091481D01*
X246046111Y-329441481D02*
X243396111Y-329441481D01*
X246046111Y-332091481D02*
X246046111Y-329441481D01*
X246046111Y-332091481D02*
X269016111Y-332091481D01*
X269016111Y-332091481D02*
X269016111Y-326791481D01*
%TO.C,R23*%
X308686111Y-333516111D02*
X308686111Y-340056111D01*
X308686111Y-340056111D02*
X309016111Y-340056111D01*
X309016111Y-333516111D02*
X308686111Y-333516111D01*
X311096111Y-333516111D02*
X311426111Y-333516111D01*
X311426111Y-333516111D02*
X311426111Y-340056111D01*
X311426111Y-340056111D02*
X311096111Y-340056111D01*
%TO.C,J4*%
X243396111Y-149000012D02*
X269016111Y-149000012D01*
X243396111Y-151650012D02*
X243396111Y-149000012D01*
X243396111Y-154300012D02*
X243396111Y-152920012D01*
X244776111Y-154300012D02*
X243396111Y-154300012D01*
X246046111Y-151650012D02*
X243396111Y-151650012D01*
X246046111Y-154300012D02*
X246046111Y-151650012D01*
X246046111Y-154300012D02*
X269016111Y-154300012D01*
X269016111Y-154300012D02*
X269016111Y-149000012D01*
%TO.C,J18*%
X306136111Y-306216111D02*
X306136111Y-308976111D01*
X308786111Y-306216111D02*
X306136111Y-306216111D01*
X308786111Y-306216111D02*
X308786111Y-308976111D01*
X308786111Y-308976111D02*
X306136111Y-308976111D01*
X310056111Y-306216111D02*
X311436111Y-306216111D01*
X311436111Y-306216111D02*
X311436111Y-307596111D01*
%TO.C,J9*%
X243396111Y-297176111D02*
X269016111Y-297176111D01*
X243396111Y-299826111D02*
X243396111Y-297176111D01*
X243396111Y-302476111D02*
X243396111Y-301096111D01*
X244776111Y-302476111D02*
X243396111Y-302476111D01*
X246046111Y-299826111D02*
X243396111Y-299826111D01*
X246046111Y-302476111D02*
X246046111Y-299826111D01*
X246046111Y-302476111D02*
X269016111Y-302476111D01*
X269016111Y-302476111D02*
X269016111Y-297176111D01*
%TO.C,J19*%
X306136111Y-261216111D02*
X306136111Y-263976111D01*
X308786111Y-261216111D02*
X306136111Y-261216111D01*
X308786111Y-261216111D02*
X308786111Y-263976111D01*
X308786111Y-263976111D02*
X306136111Y-263976111D01*
X310056111Y-261216111D02*
X311436111Y-261216111D01*
X311436111Y-261216111D02*
X311436111Y-262596111D01*
%TO.C,C24*%
X311516111Y-96903732D02*
X309335111Y-96903732D01*
X311516111Y-96943732D02*
X309338111Y-96943732D01*
X311516111Y-96983732D02*
X309342111Y-96983732D01*
X311516111Y-97023732D02*
X309346111Y-97023732D01*
X311516111Y-97063732D02*
X309351111Y-97063732D01*
X311516111Y-97103732D02*
X309356111Y-97103732D01*
X311516111Y-97143732D02*
X309361111Y-97143732D01*
X311516111Y-97183732D02*
X309368111Y-97183732D01*
X311516111Y-97223732D02*
X309374111Y-97223732D01*
X311516111Y-97263732D02*
X309382111Y-97263732D01*
X311516111Y-97303732D02*
X309389111Y-97303732D01*
X311516111Y-97343732D02*
X309397111Y-97343732D01*
X311516111Y-97383732D02*
X309406111Y-97383732D01*
X311516111Y-97423732D02*
X309416111Y-97423732D01*
X311516111Y-97463732D02*
X309425111Y-97463732D01*
X311516111Y-97503732D02*
X309436111Y-97503732D01*
X311516111Y-97543732D02*
X309447111Y-97543732D01*
X311516111Y-97583732D02*
X309458111Y-97583732D01*
X311516111Y-97623732D02*
X309470111Y-97623732D01*
X311516111Y-97663732D02*
X309483111Y-97663732D01*
X311516111Y-97703732D02*
X309496111Y-97703732D01*
X311516111Y-97743732D02*
X309509111Y-97743732D01*
X311516111Y-97783732D02*
X309524111Y-97783732D01*
X311516111Y-97823732D02*
X309539111Y-97823732D01*
X311516111Y-97863732D02*
X309554111Y-97863732D01*
X311516111Y-97903732D02*
X309570111Y-97903732D01*
X311516111Y-97943732D02*
X309587111Y-97943732D01*
X311516111Y-97983732D02*
X309604111Y-97983732D01*
X311516111Y-98023732D02*
X309622111Y-98023732D01*
X311516111Y-98063732D02*
X309641111Y-98063732D01*
X311516111Y-98103732D02*
X309660111Y-98103732D01*
X311516111Y-98143732D02*
X309680111Y-98143732D01*
X311516111Y-98183732D02*
X309701111Y-98183732D01*
X311516111Y-98223732D02*
X309722111Y-98223732D01*
X311516111Y-98263732D02*
X309744111Y-98263732D01*
X311516111Y-98303732D02*
X309767111Y-98303732D01*
X311516111Y-98343732D02*
X309791111Y-98343732D01*
X311516111Y-98383732D02*
X309815111Y-98383732D01*
X311516111Y-98423732D02*
X309840111Y-98423732D01*
X311516111Y-98463732D02*
X309866111Y-98463732D01*
X311516111Y-98503732D02*
X309893111Y-98503732D01*
X311516111Y-98543732D02*
X309920111Y-98543732D01*
X311516111Y-98583732D02*
X309949111Y-98583732D01*
X311516111Y-98623732D02*
X309979111Y-98623732D01*
X311516111Y-98663732D02*
X310009111Y-98663732D01*
X311516111Y-98703732D02*
X310040111Y-98703732D01*
X311516111Y-98743732D02*
X310073111Y-98743732D01*
X311516111Y-98783732D02*
X310106111Y-98783732D01*
X311516111Y-98823732D02*
X310141111Y-98823732D01*
X311516111Y-98863732D02*
X310177111Y-98863732D01*
X311516111Y-98903732D02*
X310214111Y-98903732D01*
X311516111Y-98943732D02*
X310252111Y-98943732D01*
X312958111Y-99903732D02*
X312154111Y-99903732D01*
X313189111Y-99863732D02*
X311923111Y-99863732D01*
X313357111Y-99823732D02*
X311755111Y-99823732D01*
X313495111Y-99783732D02*
X311617111Y-99783732D01*
X313614111Y-99743732D02*
X311498111Y-99743732D01*
X313721111Y-99703732D02*
X311391111Y-99703732D01*
X313817111Y-99663732D02*
X311295111Y-99663732D01*
X313906111Y-99623732D02*
X311206111Y-99623732D01*
X313988111Y-99583732D02*
X311124111Y-99583732D01*
X314065111Y-99543732D02*
X311047111Y-99543732D01*
X314137111Y-99503732D02*
X310975111Y-99503732D01*
X314205111Y-99463732D02*
X310907111Y-99463732D01*
X314270111Y-99423732D02*
X310842111Y-99423732D01*
X314331111Y-99383732D02*
X310781111Y-99383732D01*
X314390111Y-99343732D02*
X310722111Y-99343732D01*
X314395111Y-93163491D02*
X314395111Y-93793491D01*
X314446111Y-99303732D02*
X310666111Y-99303732D01*
X314499111Y-99263732D02*
X310613111Y-99263732D01*
X314551111Y-99223732D02*
X310561111Y-99223732D01*
X314600111Y-99183732D02*
X310512111Y-99183732D01*
X314647111Y-99143732D02*
X310465111Y-99143732D01*
X314693111Y-99103732D02*
X310419111Y-99103732D01*
X314710111Y-93478491D02*
X314080111Y-93478491D01*
X314737111Y-99063732D02*
X310375111Y-99063732D01*
X314779111Y-99023732D02*
X310333111Y-99023732D01*
X314820111Y-98983732D02*
X310292111Y-98983732D01*
X314860111Y-98943732D02*
X313596111Y-98943732D01*
X314898111Y-98903732D02*
X313596111Y-98903732D01*
X314935111Y-98863732D02*
X313596111Y-98863732D01*
X314971111Y-98823732D02*
X313596111Y-98823732D01*
X315006111Y-98783732D02*
X313596111Y-98783732D01*
X315039111Y-98743732D02*
X313596111Y-98743732D01*
X315072111Y-98703732D02*
X313596111Y-98703732D01*
X315103111Y-98663732D02*
X313596111Y-98663732D01*
X315133111Y-98623732D02*
X313596111Y-98623732D01*
X315163111Y-98583732D02*
X313596111Y-98583732D01*
X315192111Y-98543732D02*
X313596111Y-98543732D01*
X315219111Y-98503732D02*
X313596111Y-98503732D01*
X315246111Y-98463732D02*
X313596111Y-98463732D01*
X315272111Y-98423732D02*
X313596111Y-98423732D01*
X315297111Y-98383732D02*
X313596111Y-98383732D01*
X315321111Y-98343732D02*
X313596111Y-98343732D01*
X315345111Y-98303732D02*
X313596111Y-98303732D01*
X315368111Y-98263732D02*
X313596111Y-98263732D01*
X315390111Y-98223732D02*
X313596111Y-98223732D01*
X315411111Y-98183732D02*
X313596111Y-98183732D01*
X315432111Y-98143732D02*
X313596111Y-98143732D01*
X315452111Y-98103732D02*
X313596111Y-98103732D01*
X315471111Y-98063732D02*
X313596111Y-98063732D01*
X315490111Y-98023732D02*
X313596111Y-98023732D01*
X315508111Y-97983732D02*
X313596111Y-97983732D01*
X315525111Y-97943732D02*
X313596111Y-97943732D01*
X315542111Y-97903732D02*
X313596111Y-97903732D01*
X315558111Y-97863732D02*
X313596111Y-97863732D01*
X315573111Y-97823732D02*
X313596111Y-97823732D01*
X315588111Y-97783732D02*
X313596111Y-97783732D01*
X315603111Y-97743732D02*
X313596111Y-97743732D01*
X315616111Y-97703732D02*
X313596111Y-97703732D01*
X315629111Y-97663732D02*
X313596111Y-97663732D01*
X315642111Y-97623732D02*
X313596111Y-97623732D01*
X315654111Y-97583732D02*
X313596111Y-97583732D01*
X315665111Y-97543732D02*
X313596111Y-97543732D01*
X315676111Y-97503732D02*
X313596111Y-97503732D01*
X315687111Y-97463732D02*
X313596111Y-97463732D01*
X315696111Y-97423732D02*
X313596111Y-97423732D01*
X315706111Y-97383732D02*
X313596111Y-97383732D01*
X315715111Y-97343732D02*
X313596111Y-97343732D01*
X315723111Y-97303732D02*
X313596111Y-97303732D01*
X315730111Y-97263732D02*
X313596111Y-97263732D01*
X315738111Y-97223732D02*
X313596111Y-97223732D01*
X315744111Y-97183732D02*
X313596111Y-97183732D01*
X315751111Y-97143732D02*
X313596111Y-97143732D01*
X315756111Y-97103732D02*
X313596111Y-97103732D01*
X315761111Y-97063732D02*
X313596111Y-97063732D01*
X315766111Y-97023732D02*
X313596111Y-97023732D01*
X315770111Y-96983732D02*
X313596111Y-96983732D01*
X315774111Y-96943732D02*
X313596111Y-96943732D01*
X315777111Y-96903732D02*
X313596111Y-96903732D01*
X315780111Y-96863732D02*
X309332111Y-96863732D01*
X315782111Y-96823732D02*
X309330111Y-96823732D01*
X315784111Y-96783732D02*
X309328111Y-96783732D01*
X315785111Y-96743732D02*
X309327111Y-96743732D01*
X315786111Y-96663732D02*
X309326111Y-96663732D01*
X315786111Y-96703732D02*
X309326111Y-96703732D01*
X315826111Y-96663732D02*
G75*
G02*
X309286111Y-96663732I-3270000J0D01*
G01*
X309286111Y-96663732D02*
G75*
G02*
X315826111Y-96663732I3270000J0D01*
G01*
%TO.C,R19*%
X275186111Y-333636111D02*
X275186111Y-340176111D01*
X275186111Y-340176111D02*
X275516111Y-340176111D01*
X275516111Y-333636111D02*
X275186111Y-333636111D01*
X277596111Y-333636111D02*
X277926111Y-333636111D01*
X277926111Y-333636111D02*
X277926111Y-340176111D01*
X277926111Y-340176111D02*
X277596111Y-340176111D01*
%TO.C,J6*%
X243396111Y-208270452D02*
X269016111Y-208270452D01*
X243396111Y-210920452D02*
X243396111Y-208270452D01*
X243396111Y-213570452D02*
X243396111Y-212190452D01*
X244776111Y-213570452D02*
X243396111Y-213570452D01*
X246046111Y-210920452D02*
X243396111Y-210920452D01*
X246046111Y-213570452D02*
X246046111Y-210920452D01*
X246046111Y-213570452D02*
X269016111Y-213570452D01*
X269016111Y-213570452D02*
X269016111Y-208270452D01*
%TO.C,J21*%
X306136111Y-280216111D02*
X306136111Y-282976111D01*
X308786111Y-280216111D02*
X306136111Y-280216111D01*
X308786111Y-280216111D02*
X308786111Y-282976111D01*
X308786111Y-282976111D02*
X306136111Y-282976111D01*
X310056111Y-280216111D02*
X311436111Y-280216111D01*
X311436111Y-280216111D02*
X311436111Y-281596111D01*
%TO.C,J1*%
X243396111Y-60431794D02*
X269016111Y-60431794D01*
X243396111Y-63081794D02*
X243396111Y-60431794D01*
X243396111Y-65731794D02*
X243396111Y-64351794D01*
X244776111Y-65731794D02*
X243396111Y-65731794D01*
X246046111Y-63081794D02*
X243396111Y-63081794D01*
X246046111Y-65731794D02*
X246046111Y-63081794D01*
X246046111Y-65731794D02*
X269016111Y-65731794D01*
X269016111Y-65731794D02*
X269016111Y-60431794D01*
%TO.C,C26*%
X304686111Y-94976111D02*
X305023111Y-94976111D01*
X304686111Y-100216111D02*
X304686111Y-94976111D01*
X305023111Y-100216111D02*
X304686111Y-100216111D01*
X307089111Y-94976111D02*
X307426111Y-94976111D01*
X307426111Y-94976111D02*
X307426111Y-100216111D01*
X307426111Y-100216111D02*
X307089111Y-100216111D01*
%TO.C,R24*%
X297686111Y-259016111D02*
X298016111Y-259016111D01*
X297686111Y-265556111D02*
X297686111Y-259016111D01*
X298016111Y-265556111D02*
X297686111Y-265556111D01*
X300096111Y-265556111D02*
X300426111Y-265556111D01*
X300426111Y-259016111D02*
X300096111Y-259016111D01*
X300426111Y-265556111D02*
X300426111Y-259016111D01*
%TO.C,F1*%
X312056111Y-105746111D02*
X315256111Y-105746111D01*
X312056111Y-111518111D02*
X312056111Y-105746111D01*
X312056111Y-113346111D02*
X312056111Y-112674111D01*
X315256111Y-105746111D02*
X315256111Y-106418111D01*
X315256111Y-107574111D02*
X315256111Y-113346111D01*
X315256111Y-113346111D02*
X312056111Y-113346111D01*
%TO.C,J5*%
X243396111Y-178734479D02*
X269016111Y-178734479D01*
X243396111Y-181384479D02*
X243396111Y-178734479D01*
X243396111Y-184034479D02*
X243396111Y-182654479D01*
X244776111Y-184034479D02*
X243396111Y-184034479D01*
X246046111Y-181384479D02*
X243396111Y-181384479D01*
X246046111Y-184034479D02*
X246046111Y-181384479D01*
X246046111Y-184034479D02*
X269016111Y-184034479D01*
X269016111Y-184034479D02*
X269016111Y-178734479D01*
%TO.C,D20*%
X299056111Y-279016111D02*
X299056111Y-279666111D01*
X299056111Y-284556111D02*
X299056111Y-283906111D01*
X300176111Y-280266111D02*
X297936111Y-280266111D01*
X300176111Y-280386111D02*
X297936111Y-280386111D01*
X300176111Y-280506111D02*
X297936111Y-280506111D01*
X297936111Y-279666111D02*
X300176111Y-279666111D01*
X300176111Y-283906111D01*
X297936111Y-283906111D01*
X297936111Y-279666111D01*
%TO.C,J2*%
X243396111Y-89908218D02*
X269016111Y-89908218D01*
X243396111Y-92558218D02*
X243396111Y-89908218D01*
X243396111Y-95208218D02*
X243396111Y-93828218D01*
X244776111Y-95208218D02*
X243396111Y-95208218D01*
X246046111Y-92558218D02*
X243396111Y-92558218D01*
X246046111Y-95208218D02*
X246046111Y-92558218D01*
X246046111Y-95208218D02*
X269016111Y-95208218D01*
X269016111Y-95208218D02*
X269016111Y-89908218D01*
%TO.C,R68*%
X292186111Y-278516111D02*
X292186111Y-285056111D01*
X292186111Y-285056111D02*
X292516111Y-285056111D01*
X292516111Y-278516111D02*
X292186111Y-278516111D01*
X294596111Y-278516111D02*
X294926111Y-278516111D01*
X294926111Y-278516111D02*
X294926111Y-285056111D01*
X294926111Y-285056111D02*
X294596111Y-285056111D01*
%TO.C,R71*%
X282186111Y-278516111D02*
X282516111Y-278516111D01*
X282186111Y-285056111D02*
X282186111Y-278516111D01*
X282516111Y-285056111D02*
X282186111Y-285056111D01*
X284596111Y-285056111D02*
X284926111Y-285056111D01*
X284926111Y-278516111D02*
X284596111Y-278516111D01*
X284926111Y-285056111D02*
X284926111Y-278516111D01*
%TO.C,R20*%
X297596111Y-321726111D02*
X297596111Y-322056111D01*
X297596111Y-324466111D02*
X297596111Y-324136111D01*
X304136111Y-321726111D02*
X297596111Y-321726111D01*
X304136111Y-322056111D02*
X304136111Y-321726111D01*
X304136111Y-324136111D02*
X304136111Y-324466111D01*
X304136111Y-324466111D02*
X297596111Y-324466111D01*
%TO.C,J7*%
X243396111Y-237925521D02*
X269016111Y-237925521D01*
X243396111Y-240575521D02*
X243396111Y-237925521D01*
X243396111Y-243225521D02*
X243396111Y-241845521D01*
X244776111Y-243225521D02*
X243396111Y-243225521D01*
X246046111Y-240575521D02*
X243396111Y-240575521D01*
X246046111Y-243225521D02*
X246046111Y-240575521D01*
X246046111Y-243225521D02*
X269016111Y-243225521D01*
X269016111Y-243225521D02*
X269016111Y-237925521D01*
%TO.C,R67*%
X305186111Y-333516111D02*
X305186111Y-340056111D01*
X305186111Y-340056111D02*
X305516111Y-340056111D01*
X305516111Y-333516111D02*
X305186111Y-333516111D01*
X307596111Y-333516111D02*
X307926111Y-333516111D01*
X307926111Y-333516111D02*
X307926111Y-340056111D01*
X307926111Y-340056111D02*
X307596111Y-340056111D01*
%TO.C,U11*%
X282911111Y-316956111D02*
X282911111Y-327236111D01*
X282911111Y-327236111D02*
X288211111Y-327236111D01*
X284561111Y-316956111D02*
X282911111Y-316956111D01*
X288211111Y-316956111D02*
X286561111Y-316956111D01*
X288211111Y-327236111D02*
X288211111Y-316956111D01*
X286561111Y-316956111D02*
G75*
G02*
X284561111Y-316956111I-1000000J0D01*
G01*
%TO.C,U12*%
X280686111Y-297136111D02*
X280686111Y-298786111D01*
X280686111Y-300786111D02*
X280686111Y-302436111D01*
X280686111Y-302436111D02*
X298586111Y-302436111D01*
X298586111Y-297136111D02*
X280686111Y-297136111D01*
X298586111Y-302436111D02*
X298586111Y-297136111D01*
X280686111Y-298786111D02*
G75*
G02*
X280686111Y-300786111I0J-1000000D01*
G01*
%TO.C,J20*%
X312176111Y-117716111D02*
X313556111Y-117716111D01*
X312176111Y-119096111D02*
X312176111Y-117716111D01*
X312176111Y-120366111D02*
X312176111Y-128096111D01*
X312176111Y-120366111D02*
X314936111Y-120366111D01*
X312176111Y-128096111D02*
X314936111Y-128096111D01*
X314936111Y-120366111D02*
X314936111Y-128096111D01*
%TO.C,R69*%
X288186111Y-278516111D02*
X288516111Y-278516111D01*
X288186111Y-285056111D02*
X288186111Y-278516111D01*
X288516111Y-285056111D02*
X288186111Y-285056111D01*
X290596111Y-285056111D02*
X290926111Y-285056111D01*
X290926111Y-278516111D02*
X290596111Y-278516111D01*
X290926111Y-285056111D02*
X290926111Y-278516111D01*
%TO.C,U2*%
D12*
X286046111Y-100706111D02*
X303826111Y-100706111D01*
X286046111Y-161666111D02*
X286046111Y-100706111D01*
X288586111Y-123566111D02*
X288586111Y-136266111D01*
X288586111Y-136266111D02*
X301286111Y-136266111D01*
X288586111Y-148966111D02*
X288586111Y-161666111D01*
X289096911Y-107005311D02*
X291636911Y-107005311D01*
X289096911Y-119705311D02*
X289096911Y-107005311D01*
X289856111Y-160396111D02*
X289856111Y-161666111D01*
X291126111Y-99436111D02*
X298746111Y-99436111D01*
X291126111Y-100706111D02*
X291126111Y-99436111D01*
X291126111Y-105786111D02*
X291126111Y-100706111D01*
X291126111Y-105786111D02*
X298746111Y-105786111D01*
X291636911Y-107005311D02*
X291636911Y-109545311D01*
X291636911Y-107005311D02*
X291636911Y-119705311D01*
X291636911Y-109545311D02*
X289096911Y-109545311D01*
X291636911Y-119705311D02*
X289096911Y-119705311D01*
X293666111Y-141346111D02*
X296206111Y-141346111D01*
X293666111Y-145156111D02*
X293666111Y-141346111D01*
X295037711Y-113936111D02*
X295037711Y-117936111D01*
X295037711Y-117936111D02*
X301287711Y-117936111D01*
X296206111Y-141346111D02*
X296206111Y-145156111D01*
X296206111Y-145156111D02*
X293666111Y-145156111D01*
X298746111Y-99436111D02*
X298746111Y-100706111D01*
X298746111Y-105786111D02*
X298746111Y-100706111D01*
X300016111Y-160396111D02*
X289856111Y-160396111D01*
X300016111Y-161666111D02*
X300016111Y-160396111D01*
X301037711Y-113936111D02*
X295037711Y-113936111D01*
X301286111Y-123566111D02*
X288586111Y-123566111D01*
X301286111Y-136266111D02*
X301286111Y-123566111D01*
X301286111Y-148966111D02*
X288586111Y-148966111D01*
X301286111Y-161666111D02*
X301286111Y-148966111D01*
X301287711Y-113936111D02*
X301037711Y-113936111D01*
X301287711Y-117936111D02*
X301287711Y-113936111D01*
X303826111Y-100706111D02*
X303826111Y-161666111D01*
X303826111Y-161666111D02*
X286046111Y-161666111D01*
X295834137Y-143251111D02*
G75*
G02*
X294038085Y-143251111I-898026J0D01*
G01*
X294038085Y-143251111D02*
G75*
G02*
X295834137Y-143251111I898026J0D01*
G01*
D10*
X294862111Y-133367111D02*
X294481111Y-133621111D01*
X294227111Y-133367111D01*
X294608111Y-133113111D01*
X294862111Y-133367111D01*
G36*
X294862111Y-133367111D02*
G01*
X294481111Y-133621111D01*
X294227111Y-133367111D01*
X294608111Y-133113111D01*
X294862111Y-133367111D01*
G37*
X294989111Y-132605111D02*
X294608111Y-132859111D01*
X294354111Y-132605111D01*
X294735111Y-132351111D01*
X294989111Y-132605111D01*
G36*
X294989111Y-132605111D02*
G01*
X294608111Y-132859111D01*
X294354111Y-132605111D01*
X294735111Y-132351111D01*
X294989111Y-132605111D01*
G37*
X295243111Y-133748111D02*
X294862111Y-134002111D01*
X294608111Y-133748111D01*
X294989111Y-133494111D01*
X295243111Y-133748111D01*
G36*
X295243111Y-133748111D02*
G01*
X294862111Y-134002111D01*
X294608111Y-133748111D01*
X294989111Y-133494111D01*
X295243111Y-133748111D01*
G37*
X295370111Y-132986111D02*
X294989111Y-133240111D01*
X294735111Y-132986111D01*
X295116111Y-132732111D01*
X295370111Y-132986111D01*
G36*
X295370111Y-132986111D02*
G01*
X294989111Y-133240111D01*
X294735111Y-132986111D01*
X295116111Y-132732111D01*
X295370111Y-132986111D01*
G37*
X295497111Y-132224111D02*
X295116111Y-132478111D01*
X294862111Y-132224111D01*
X295243111Y-131970111D01*
X295497111Y-132224111D01*
G36*
X295497111Y-132224111D02*
G01*
X295116111Y-132478111D01*
X294862111Y-132224111D01*
X295243111Y-131970111D01*
X295497111Y-132224111D01*
G37*
X295624111Y-134129111D02*
X295243111Y-134383111D01*
X294989111Y-134129111D01*
X295370111Y-133875111D01*
X295624111Y-134129111D01*
G36*
X295624111Y-134129111D02*
G01*
X295243111Y-134383111D01*
X294989111Y-134129111D01*
X295370111Y-133875111D01*
X295624111Y-134129111D01*
G37*
X295878111Y-132605111D02*
X295497111Y-132859111D01*
X295243111Y-132605111D01*
X295624111Y-132351111D01*
X295878111Y-132605111D01*
G36*
X295878111Y-132605111D02*
G01*
X295497111Y-132859111D01*
X295243111Y-132605111D01*
X295624111Y-132351111D01*
X295878111Y-132605111D01*
G37*
X296005111Y-131843111D02*
X295624111Y-132097111D01*
X295370111Y-131843111D01*
X295751111Y-131589111D01*
X296005111Y-131843111D01*
G36*
X296005111Y-131843111D02*
G01*
X295624111Y-132097111D01*
X295370111Y-131843111D01*
X295751111Y-131589111D01*
X296005111Y-131843111D01*
G37*
%TO.C,J17*%
D13*
X304136111Y-348476111D02*
X304136111Y-347096111D01*
X305516111Y-348476111D02*
X304136111Y-348476111D01*
X306786111Y-345716111D02*
X311976111Y-345716111D01*
X306786111Y-348476111D02*
X306786111Y-345716111D01*
X306786111Y-348476111D02*
X311976111Y-348476111D01*
X311976111Y-348476111D02*
X311976111Y-345716111D01*
%TO.C,R70*%
X277686111Y-278516111D02*
X277686111Y-285056111D01*
X277686111Y-285056111D02*
X278016111Y-285056111D01*
X278016111Y-278516111D02*
X277686111Y-278516111D01*
X280096111Y-278516111D02*
X280426111Y-278516111D01*
X280426111Y-278516111D02*
X280426111Y-285056111D01*
X280426111Y-285056111D02*
X280096111Y-285056111D01*
%TO.C,J3*%
X243396111Y-119483889D02*
X269016111Y-119483889D01*
X243396111Y-122133889D02*
X243396111Y-119483889D01*
X243396111Y-124783889D02*
X243396111Y-123403889D01*
X244776111Y-124783889D02*
X243396111Y-124783889D01*
X246046111Y-122133889D02*
X243396111Y-122133889D01*
X246046111Y-124783889D02*
X246046111Y-122133889D01*
X246046111Y-124783889D02*
X269016111Y-124783889D01*
X269016111Y-124783889D02*
X269016111Y-119483889D01*
%TO.C,R22*%
X293186111Y-333516111D02*
X293186111Y-340056111D01*
X293186111Y-340056111D02*
X293516111Y-340056111D01*
X293516111Y-333516111D02*
X293186111Y-333516111D01*
X295596111Y-333516111D02*
X295926111Y-333516111D01*
X295926111Y-333516111D02*
X295926111Y-340056111D01*
X295926111Y-340056111D02*
X295596111Y-340056111D01*
%TO.C,J11*%
X309336111Y-85916111D02*
X316076111Y-85916111D01*
X309336111Y-91736111D02*
X309336111Y-85916111D01*
X311056111Y-91736111D02*
X311056111Y-85916111D01*
X314156111Y-91736111D02*
X314156111Y-85916111D01*
X315156111Y-91736111D02*
X315156111Y-85916111D01*
X316076111Y-85916111D02*
X316076111Y-89796111D01*
X316076111Y-90396111D02*
X316076111Y-91736111D01*
X316076111Y-91736111D02*
X309336111Y-91736111D01*
X316686111Y-90536111D02*
X316076111Y-90096111D01*
X316686111Y-89656111D01*
X316686111Y-90536111D01*
G36*
X316686111Y-90536111D02*
G01*
X316076111Y-90096111D01*
X316686111Y-89656111D01*
X316686111Y-90536111D01*
G37*
%TO.C,J30*%
X307691721Y-64300039D02*
X309071721Y-64300039D01*
X307691721Y-65680039D02*
X307691721Y-64300039D01*
X307691721Y-66950039D02*
X307691721Y-77220039D01*
X307691721Y-66950039D02*
X310451721Y-66950039D01*
X307691721Y-77220039D02*
X310451721Y-77220039D01*
X310451721Y-66950039D02*
X310451721Y-77220039D01*
%TO.C,D18*%
X306436111Y-300566111D02*
X308676111Y-300566111D01*
X306436111Y-300686111D02*
X308676111Y-300686111D01*
X306436111Y-300806111D02*
X308676111Y-300806111D01*
X307556111Y-296516111D02*
X307556111Y-297166111D01*
X307556111Y-302056111D02*
X307556111Y-301406111D01*
X306436111Y-297166111D02*
X308676111Y-297166111D01*
X308676111Y-301406111D01*
X306436111Y-301406111D01*
X306436111Y-297166111D01*
%TO.C,J13*%
X275901111Y-348476111D02*
X275901111Y-347096111D01*
X277281111Y-348476111D02*
X275901111Y-348476111D01*
X278551111Y-345716111D02*
X281201111Y-345716111D01*
X278551111Y-348476111D02*
X278551111Y-345716111D01*
X278551111Y-348476111D02*
X281201111Y-348476111D01*
X281201111Y-348476111D02*
X281201111Y-345716111D01*
%TO.C,D17*%
X280056111Y-334136111D02*
X280056111Y-334786111D01*
X280056111Y-339676111D02*
X280056111Y-339026111D01*
X281176111Y-335386111D02*
X278936111Y-335386111D01*
X281176111Y-335506111D02*
X278936111Y-335506111D01*
X281176111Y-335626111D02*
X278936111Y-335626111D01*
X278936111Y-334786111D02*
X281176111Y-334786111D01*
X281176111Y-339026111D01*
X278936111Y-339026111D01*
X278936111Y-334786111D01*
%TO.C,J8*%
X243396111Y-267521041D02*
X269016111Y-267521041D01*
X243396111Y-270171041D02*
X243396111Y-267521041D01*
X243396111Y-272821041D02*
X243396111Y-271441041D01*
X244776111Y-272821041D02*
X243396111Y-272821041D01*
X246046111Y-270171041D02*
X243396111Y-270171041D01*
X246046111Y-272821041D02*
X246046111Y-270171041D01*
X246046111Y-272821041D02*
X269016111Y-272821041D01*
X269016111Y-272821041D02*
X269016111Y-267521041D01*
%TO.C,J12*%
X243421476Y-342809515D02*
X269041476Y-342809515D01*
X243421476Y-345459515D02*
X243421476Y-342809515D01*
X243421476Y-348109515D02*
X243421476Y-346729515D01*
X244801476Y-348109515D02*
X243421476Y-348109515D01*
X246071476Y-345459515D02*
X243421476Y-345459515D01*
X246071476Y-348109515D02*
X246071476Y-345459515D01*
X246071476Y-348109515D02*
X269041476Y-348109515D01*
X269041476Y-348109515D02*
X269041476Y-342809515D01*
%TO.C,J31*%
X288596111Y-348476111D02*
X288596111Y-347096111D01*
X289976111Y-348476111D02*
X288596111Y-348476111D01*
X291246111Y-345716111D02*
X296436111Y-345716111D01*
X291246111Y-348476111D02*
X291246111Y-345716111D01*
X291246111Y-348476111D02*
X296436111Y-348476111D01*
X296436111Y-348476111D02*
X296436111Y-345716111D01*
%TO.C,R30*%
X289686111Y-333516111D02*
X289686111Y-340056111D01*
X289686111Y-340056111D02*
X290016111Y-340056111D01*
X290016111Y-333516111D02*
X289686111Y-333516111D01*
X292096111Y-333516111D02*
X292426111Y-333516111D01*
X292426111Y-333516111D02*
X292426111Y-340056111D01*
X292426111Y-340056111D02*
X292096111Y-340056111D01*
%TD*%
M02*
