M48
; DRILL file KiCad 10.0.1 date 2026-09-22T21:29:45
; FORMAT={-:-/ absolute / metric / decimal}
; #@! TF.CreationDate,2026-09-22T21:29:45+02:00
; #@! TF.GenerationSoftware,Kicad,Pcbnew,10.0.1
; #@! TF.FileFunction,MixedPlating,1,2
FMAT,2
METRIC
; #@! TA.AperFunction,Plated,PTH,ViaDrill
T1C0.300
; #@! TA.AperFunction,Plated,PTH,ComponentDrill
T2C0.710
; #@! TA.AperFunction,Plated,PTH,ComponentDrill
T3C0.800
; #@! TA.AperFunction,Plated,PTH,ComponentDrill
T4C1.000
; #@! TA.AperFunction,Plated,PTH,ComponentDrill
T5C1.100
; #@! TA.AperFunction,Plated,PTH,ComponentDrill
T6C1.200
%
G90
G05
T1
X250.056Y-69.596
X251.0Y-198.0
X261.556Y-115.596
X262.5Y-197.5
X263.0Y-202.0
X268.786Y-313.596
X269.056Y-81.096
X270.056Y-336.596
X271.556Y-206.596
X272.556Y-108.096
X272.95Y-63.202
X273.556Y-110.096
X274.056Y-147.596
X276.556Y-132.096
X277.556Y-129.596
X279.056Y-127.596
X286.056Y-313.596
X289.5Y-212.0
X304.556Y-65.596
X306.056Y-118.596
X306.556Y-137.596
X308.556Y-128.096
T2
X313.056Y-112.096
X314.256Y-106.996
T3
X276.556Y-333.096
X276.556Y-340.716
X279.056Y-277.976
X279.056Y-285.596
X280.056Y-333.096
X280.056Y-340.716
X281.751Y-318.286
X281.751Y-320.826
X281.751Y-323.366
X281.751Y-325.906
X282.016Y-295.976
X282.016Y-303.596
X283.556Y-277.976
X283.556Y-285.596
X284.556Y-295.976
X284.556Y-303.596
X287.096Y-295.976
X287.096Y-303.596
X289.371Y-318.286
X289.371Y-320.826
X289.371Y-323.366
X289.371Y-325.906
X289.556Y-277.976
X289.556Y-285.596
X289.636Y-295.976
X289.636Y-303.596
X290.936Y-190.056
X290.936Y-192.596
X290.936Y-195.136
X290.936Y-197.676
X290.936Y-200.216
X290.936Y-202.756
X290.936Y-205.296
X291.056Y-332.976
X291.056Y-340.596
X292.176Y-295.976
X292.176Y-303.596
X293.556Y-277.976
X293.556Y-285.596
X293.666Y-102.706
X294.556Y-332.976
X294.556Y-340.596
X294.716Y-295.976
X294.716Y-303.596
X296.118Y-114.946
X296.118Y-116.946
X296.206Y-102.706
X297.056Y-319.596
X297.056Y-323.096
X297.256Y-295.976
X297.256Y-303.596
X298.118Y-114.946
X298.118Y-116.946
X298.556Y-190.056
X298.556Y-192.596
X298.556Y-195.136
X298.556Y-197.676
X298.556Y-200.216
X298.556Y-202.756
X298.556Y-205.296
X299.056Y-258.476
X299.056Y-266.096
X299.056Y-277.976
X299.056Y-285.596
X300.118Y-114.946
X300.118Y-116.946
X304.676Y-319.596
X304.676Y-323.096
X306.056Y-95.096
X306.056Y-100.096
X306.556Y-332.976
X306.556Y-340.596
X307.556Y-295.476
X307.556Y-303.096
X310.056Y-332.976
X310.056Y-340.596
X312.556Y-95.414
X312.556Y-97.914
T4
X244.776Y-61.812
X244.776Y-64.352
X244.776Y-91.288
X244.776Y-93.828
X244.776Y-120.864
X244.776Y-123.404
X244.776Y-150.38
X244.776Y-152.92
X244.776Y-180.114
X244.776Y-182.654
X244.776Y-209.65
X244.776Y-212.19
X244.776Y-239.306
X244.776Y-241.846
X244.776Y-268.901
X244.776Y-271.441
X244.776Y-298.556
X244.776Y-301.096
X244.776Y-328.171
X244.776Y-330.711
X244.801Y-344.19
X244.801Y-346.73
X247.316Y-61.812
X247.316Y-64.352
X247.316Y-91.288
X247.316Y-93.828
X247.316Y-120.864
X247.316Y-123.404
X247.316Y-150.38
X247.316Y-152.92
X247.316Y-180.114
X247.316Y-182.654
X247.316Y-209.65
X247.316Y-212.19
X247.316Y-239.306
X247.316Y-241.846
X247.316Y-268.901
X247.316Y-271.441
X247.316Y-298.556
X247.316Y-301.096
X247.316Y-328.171
X247.316Y-330.711
X247.341Y-344.19
X247.341Y-346.73
X249.856Y-61.812
X249.856Y-64.352
X249.856Y-91.288
X249.856Y-93.828
X249.856Y-120.864
X249.856Y-123.404
X249.856Y-150.38
X249.856Y-152.92
X249.856Y-180.114
X249.856Y-182.654
X249.856Y-209.65
X249.856Y-212.19
X249.856Y-239.306
X249.856Y-241.846
X249.856Y-268.901
X249.856Y-271.441
X249.856Y-298.556
X249.856Y-301.096
X249.856Y-328.171
X249.856Y-330.711
X249.881Y-344.19
X249.881Y-346.73
X252.396Y-61.812
X252.396Y-64.352
X252.396Y-91.288
X252.396Y-93.828
X252.396Y-120.864
X252.396Y-123.404
X252.396Y-150.38
X252.396Y-152.92
X252.396Y-180.114
X252.396Y-182.654
X252.396Y-209.65
X252.396Y-212.19
X252.396Y-239.306
X252.396Y-241.846
X252.396Y-268.901
X252.396Y-271.441
X252.396Y-298.556
X252.396Y-301.096
X252.396Y-328.171
X252.396Y-330.711
X252.421Y-344.19
X252.421Y-346.73
X254.936Y-61.812
X254.936Y-64.352
X254.936Y-91.288
X254.936Y-93.828
X254.936Y-120.864
X254.936Y-123.404
X254.936Y-150.38
X254.936Y-152.92
X254.936Y-180.114
X254.936Y-182.654
X254.936Y-209.65
X254.936Y-212.19
X254.936Y-239.306
X254.936Y-241.846
X254.936Y-268.901
X254.936Y-271.441
X254.936Y-298.556
X254.936Y-301.096
X254.936Y-328.171
X254.936Y-330.711
X254.961Y-344.19
X254.961Y-346.73
X257.476Y-61.812
X257.476Y-64.352
X257.476Y-91.288
X257.476Y-93.828
X257.476Y-120.864
X257.476Y-123.404
X257.476Y-150.38
X257.476Y-152.92
X257.476Y-180.114
X257.476Y-182.654
X257.476Y-209.65
X257.476Y-212.19
X257.476Y-239.306
X257.476Y-241.846
X257.476Y-268.901
X257.476Y-271.441
X257.476Y-298.556
X257.476Y-301.096
X257.476Y-328.171
X257.476Y-330.711
X257.501Y-344.19
X257.501Y-346.73
X260.016Y-61.812
X260.016Y-64.352
X260.016Y-91.288
X260.016Y-93.828
X260.016Y-120.864
X260.016Y-123.404
X260.016Y-150.38
X260.016Y-152.92
X260.016Y-180.114
X260.016Y-182.654
X260.016Y-209.65
X260.016Y-212.19
X260.016Y-239.306
X260.016Y-241.846
X260.016Y-268.901
X260.016Y-271.441
X260.016Y-298.556
X260.016Y-301.096
X260.016Y-328.171
X260.016Y-330.711
X260.041Y-344.19
X260.041Y-346.73
X262.556Y-61.812
X262.556Y-64.352
X262.556Y-91.288
X262.556Y-93.828
X262.556Y-120.864
X262.556Y-123.404
X262.556Y-150.38
X262.556Y-152.92
X262.556Y-180.114
X262.556Y-182.654
X262.556Y-209.65
X262.556Y-212.19
X262.556Y-239.306
X262.556Y-241.846
X262.556Y-268.901
X262.556Y-271.441
X262.556Y-298.556
X262.556Y-301.096
X262.556Y-328.171
X262.556Y-330.711
X262.581Y-344.19
X262.581Y-346.73
X265.096Y-61.812
X265.096Y-64.352
X265.096Y-91.288
X265.096Y-93.828
X265.096Y-120.864
X265.096Y-123.404
X265.096Y-150.38
X265.096Y-152.92
X265.096Y-180.114
X265.096Y-182.654
X265.096Y-209.65
X265.096Y-212.19
X265.096Y-239.306
X265.096Y-241.846
X265.096Y-268.901
X265.096Y-271.441
X265.096Y-298.556
X265.096Y-301.096
X265.096Y-328.171
X265.096Y-330.711
X265.121Y-344.19
X265.121Y-346.73
X267.636Y-61.812
X267.636Y-64.352
X267.636Y-91.288
X267.636Y-93.828
X267.636Y-120.864
X267.636Y-123.404
X267.636Y-150.38
X267.636Y-152.92
X267.636Y-180.114
X267.636Y-182.654
X267.636Y-209.65
X267.636Y-212.19
X267.636Y-239.306
X267.636Y-241.846
X267.636Y-268.901
X267.636Y-271.441
X267.636Y-298.556
X267.636Y-301.096
X267.636Y-328.171
X267.636Y-330.711
X267.661Y-344.19
X267.661Y-346.73
X277.281Y-347.096
X279.821Y-347.096
X289.976Y-347.096
X292.516Y-347.096
X295.056Y-347.096
X305.516Y-347.096
X307.516Y-262.596
X307.516Y-281.596
X307.516Y-307.596
X308.056Y-347.096
X309.072Y-65.68
X309.072Y-68.22
X309.072Y-70.76
X309.072Y-73.3
X309.072Y-75.84
X310.056Y-262.596
X310.056Y-281.596
X310.056Y-307.596
X310.596Y-347.096
X313.556Y-119.096
X313.556Y-121.636
X313.556Y-124.176
X313.556Y-126.716
T5
X287.316Y-101.976
X287.316Y-104.516
X287.316Y-107.056
X287.316Y-109.596
X287.316Y-112.136
X287.316Y-114.676
X287.316Y-117.216
X287.316Y-119.756
X287.316Y-122.296
X287.316Y-124.836
X287.316Y-127.376
X287.316Y-129.916
X287.316Y-132.456
X287.316Y-134.996
X287.316Y-137.536
X287.316Y-140.076
X287.316Y-142.616
X287.316Y-145.156
X287.316Y-147.696
X287.316Y-150.236
X287.316Y-152.776
X287.316Y-155.316
X287.316Y-157.856
X287.316Y-160.396
X289.856Y-147.696
X290.367Y-108.275
X290.367Y-110.815
X290.367Y-113.355
X290.367Y-115.895
X290.367Y-118.435
X292.396Y-147.696
X294.936Y-147.696
X297.476Y-147.696
X300.016Y-104.516
X300.016Y-147.696
X302.556Y-101.976
X302.556Y-104.516
X302.556Y-107.056
X302.556Y-109.596
X302.556Y-112.136
X302.556Y-114.676
X302.556Y-117.216
X302.556Y-119.756
X302.556Y-122.296
X302.556Y-124.836
X302.556Y-127.376
X302.556Y-129.916
X302.556Y-132.456
X302.556Y-134.996
X302.556Y-137.536
X302.556Y-140.076
X302.556Y-142.616
X302.556Y-145.156
X302.556Y-147.696
X302.556Y-150.236
X302.556Y-152.776
X302.556Y-155.316
X302.556Y-157.856
X302.556Y-160.396
T6
X312.556Y-87.556
X312.556Y-90.096
M30
