M48
; DRILL file KiCad 10.0.1 date 2026-09-22T20:13:20
; FORMAT={-:-/ absolute / metric / decimal}
; #@! TF.CreationDate,2026-09-22T20:13:20+02:00
; #@! TF.GenerationSoftware,Kicad,Pcbnew,10.0.1
; #@! TF.FileFunction,MixedPlating,1,2
FMAT,2
METRIC
; #@! TA.AperFunction,Plated,PTH,ViaDrill
T1C0.300
; #@! TA.AperFunction,Plated,PTH,ComponentDrill
T2C0.800
; #@! TA.AperFunction,Plated,PTH,ComponentDrill
T3C1.000
%
G90
G05
T1
X74.0Y-108.0
X76.5Y-109.0
X98.5Y-115.0
X101.0Y-114.0
X123.0Y-108.0
X124.0Y-138.0
X124.5Y-136.5
X125.5Y-109.0
X147.5Y-115.0
X150.0Y-114.0
X172.0Y-108.0
X174.5Y-109.0
X185.5Y-147.5
X196.5Y-115.0
X199.0Y-114.0
X200.0Y-144.0
X203.0Y-136.5
X213.5Y-145.5
X213.5Y-148.6
X215.0Y-144.0
X221.0Y-108.0
X223.5Y-109.0
X225.0Y-136.5
X226.4Y-149.0
X227.015Y-148.488
X227.5Y-136.5
X228.06Y-140.94
X228.5Y-139.5
X245.5Y-115.0
X248.0Y-114.0
X250.241Y-128.247
X250.921Y-136.079
X251.0Y-128.5
X251.0Y-130.0
X251.5Y-142.0
X252.0Y-130.9
X252.5Y-110.0
X253.0Y-114.0
X253.0Y-131.4
X256.0Y-141.4
X258.5Y-149.0
X265.5Y-131.5
X268.5Y-141.4
X270.0Y-108.0
X271.5Y-149.0
X272.5Y-109.0
X276.5Y-132.0
X279.0Y-128.5
X280.0Y-111.0
X281.5Y-128.0
X282.4Y-132.0
X283.0Y-128.5
X283.0Y-130.5
X284.0Y-113.351
X292.0Y-149.5
X294.5Y-115.0
X297.0Y-114.0
X297.0Y-149.0
X299.0Y-150.0
X319.0Y-108.0
X321.5Y-109.0
X343.5Y-115.0
X346.0Y-114.0
X367.5Y-108.4
X370.0Y-109.0
X391.5Y-114.6
X394.5Y-114.0
T2
X24.911Y-111.698
X25.5Y-125.5
X25.5Y-133.12
X26.181Y-111.698
X27.451Y-111.698
X28.721Y-111.698
X49.363Y-111.671
X49.88Y-125.5
X49.88Y-133.12
X50.633Y-111.671
X51.903Y-111.671
X53.173Y-111.671
X73.856Y-111.724
X74.0Y-125.5
X74.0Y-133.12
X75.126Y-111.724
X76.396Y-111.724
X77.666Y-111.724
X98.392Y-111.778
X98.5Y-125.5
X98.5Y-133.12
X99.662Y-111.778
X100.932Y-111.778
X101.72Y-137.88
X101.72Y-145.5
X102.202Y-111.778
X103.0Y-130.0
X103.0Y-135.0
X104.26Y-137.88
X104.26Y-145.5
X106.8Y-137.88
X106.8Y-145.5
X109.34Y-137.88
X109.34Y-145.5
X111.88Y-137.88
X111.88Y-145.5
X114.42Y-137.88
X114.42Y-145.5
X116.96Y-137.88
X116.96Y-145.5
X119.5Y-137.88
X119.5Y-145.5
X122.889Y-111.724
X123.0Y-125.5
X123.0Y-133.12
X124.159Y-111.724
X125.429Y-111.724
X126.699Y-111.724
X147.421Y-111.751
X148.0Y-125.5
X148.0Y-133.12
X148.691Y-111.751
X149.961Y-111.751
X151.231Y-111.751
X171.949Y-111.804
X172.0Y-125.5
X172.0Y-133.12
X173.219Y-111.804
X174.489Y-111.804
X175.759Y-111.804
X196.388Y-111.724
X196.5Y-125.5
X196.5Y-133.12
X197.658Y-111.724
X198.928Y-111.724
X200.198Y-111.724
X220.951Y-111.778
X221.5Y-125.5
X221.5Y-133.12
X222.221Y-111.778
X223.491Y-111.778
X224.761Y-111.778
X234.5Y-142.38
X234.5Y-147.38
X243.5Y-143.5
X243.5Y-146.0
X245.479Y-111.804
X245.5Y-125.5
X245.5Y-133.12
X246.749Y-111.804
X248.019Y-111.804
X249.289Y-111.804
X253.88Y-129.0
X261.5Y-129.0
X269.5Y-125.5
X269.5Y-133.12
X269.896Y-111.698
X271.166Y-111.698
X272.436Y-111.698
X273.706Y-111.698
X294.424Y-111.778
X295.0Y-125.5
X295.0Y-133.12
X295.694Y-111.778
X296.964Y-111.778
X297.8Y-136.88
X297.8Y-144.5
X298.234Y-111.778
X300.0Y-131.0
X300.34Y-136.88
X300.34Y-144.5
X302.88Y-136.88
X302.88Y-144.5
X305.0Y-131.0
X305.42Y-136.88
X305.42Y-144.5
X307.96Y-136.88
X307.96Y-144.5
X310.5Y-136.88
X310.5Y-144.5
X313.04Y-136.88
X313.04Y-144.5
X315.58Y-136.88
X315.58Y-144.5
X318.978Y-111.804
X319.0Y-125.5
X319.0Y-133.12
X320.248Y-111.804
X321.518Y-111.804
X322.788Y-111.804
X343.457Y-111.751
X344.5Y-125.5
X344.5Y-133.12
X344.727Y-111.751
X345.997Y-111.751
X347.267Y-111.751
X367.954Y-111.671
X368.5Y-125.5
X368.5Y-133.12
X369.224Y-111.671
X370.494Y-111.671
X371.764Y-111.671
X392.468Y-111.751
X392.5Y-125.5
X392.5Y-133.12
X393.738Y-111.751
X395.008Y-111.751
X396.278Y-111.751
T3
X25.5Y-121.0
X28.04Y-121.0
X50.0Y-121.0
X52.54Y-121.0
X74.5Y-121.0
X77.04Y-121.0
X98.725Y-121.0
X101.265Y-121.0
X123.5Y-121.0
X126.04Y-121.0
X148.5Y-121.0
X151.04Y-121.0
X172.0Y-121.0
X174.54Y-121.0
X196.5Y-121.0
X197.3Y-151.0
X197.3Y-153.54
X199.04Y-121.0
X199.84Y-151.0
X199.84Y-153.54
X202.38Y-151.0
X202.38Y-153.54
X204.92Y-151.0
X204.92Y-153.54
X207.46Y-151.0
X207.46Y-153.54
X210.0Y-151.0
X210.0Y-153.54
X212.54Y-151.0
X212.54Y-153.54
X215.08Y-151.0
X215.08Y-153.54
X217.62Y-151.0
X217.62Y-153.54
X220.16Y-151.0
X220.16Y-153.54
X221.725Y-121.0
X224.265Y-121.0
X245.96Y-121.0
X248.5Y-121.0
X270.0Y-121.0
X272.54Y-121.0
X295.225Y-121.0
X297.765Y-121.0
X319.5Y-121.0
X322.04Y-121.0
X344.5Y-121.0
X347.04Y-121.0
X368.5Y-121.0
X371.04Y-121.0
X393.0Y-121.0
X395.54Y-121.0
M30
