%TF.GenerationSoftware,KiCad,Pcbnew,10.0.1*%
%TF.CreationDate,2026-09-22T21:06:09+02:00*%
%TF.ProjectId,kosmo-16-channel-sequencer-row-board,6b6f736d-6f2d-4313-962d-6368616e6e65,rev?*%
%TF.SameCoordinates,Original*%
%TF.FileFunction,Copper,L2,Bot*%
%TF.FilePolarity,Positive*%
%FSLAX46Y46*%
G04 Gerber Fmt 4.6, Leading zero omitted, Abs format (unit mm)*
G04 Created by KiCad (PCBNEW 10.0.1) date 2026-09-22 21:06:09*
%MOMM*%
%LPD*%
G01*
G04 APERTURE LIST*
G04 Aperture macros list*
%AMRoundRect*
0 Rectangle with rounded corners*
0 $1 Rounding radius*
0 $2 $3 $4 $5 $6 $7 $8 $9 X,Y pos of 4 corners*
0 Add a 4 corners polygon primitive as box body*
4,1,4,$2,$3,$4,$5,$6,$7,$8,$9,$2,$3,0*
0 Add four circle primitives for the rounded corners*
1,1,$1+$1,$2,$3*
1,1,$1+$1,$4,$5*
1,1,$1+$1,$6,$7*
1,1,$1+$1,$8,$9*
0 Add four rect primitives between the rounded corners*
20,1,$1+$1,$2,$3,$4,$5,0*
20,1,$1+$1,$4,$5,$6,$7,0*
20,1,$1+$1,$6,$7,$8,$9,0*
20,1,$1+$1,$8,$9,$2,$3,0*%
G04 Aperture macros list end*
%TA.AperFunction,ComponentPad*%
%ADD10R,1.700000X1.700000*%
%TD*%
%TA.AperFunction,ComponentPad*%
%ADD11C,1.700000*%
%TD*%
%TA.AperFunction,ComponentPad*%
%ADD12R,1.070000X1.800000*%
%TD*%
%TA.AperFunction,ComponentPad*%
%ADD13O,1.070000X1.800000*%
%TD*%
%TA.AperFunction,ComponentPad*%
%ADD14C,1.600000*%
%TD*%
%TA.AperFunction,ComponentPad*%
%ADD15RoundRect,0.250000X-0.550000X0.550000X-0.550000X-0.550000X0.550000X-0.550000X0.550000X0.550000X0*%
%TD*%
%TA.AperFunction,ComponentPad*%
%ADD16RoundRect,0.250000X0.550000X-0.550000X0.550000X0.550000X-0.550000X0.550000X-0.550000X-0.550000X0*%
%TD*%
%TA.AperFunction,ViaPad*%
%ADD17C,0.600000*%
%TD*%
%TA.AperFunction,Conductor*%
%ADD18C,0.200000*%
%TD*%
G04 APERTURE END LIST*
D10*
%TO.P,SW6,1,1_1*%
%TO.N,/row-board/BTN_5*%
X148500000Y-121000000D03*
D11*
%TO.P,SW6,2,2_2*%
%TO.N,+3V3*%
X151040000Y-121000000D03*
%TD*%
D10*
%TO.P,SW16,1,1_1*%
%TO.N,/row-board/BTN_15*%
X393000000Y-121000000D03*
D11*
%TO.P,SW16,2,2_2*%
%TO.N,+3V3*%
X395540000Y-121000000D03*
%TD*%
D12*
%TO.P,D8,1,A_1*%
%TO.N,/row-board/SEG_D*%
X197658450Y-111724302D03*
D13*
%TO.P,D8,2,RK_2*%
%TO.N,/row-board/DIG_5*%
X196388450Y-111724302D03*
%TO.P,D8,3,GK_3*%
%TO.N,/row-board/DIG_4*%
X198928450Y-111724302D03*
%TO.P,D8,4,BK_4*%
%TO.N,/row-board/DIG_3*%
X200198450Y-111724302D03*
%TD*%
D14*
%TO.P,R6,1*%
%TO.N,/row-board/BTN_5*%
X148000000Y-125500000D03*
%TO.P,R6,2*%
%TO.N,GND*%
X148000000Y-133120000D03*
%TD*%
D12*
%TO.P,D2,1,A_1*%
%TO.N,/row-board/SEG_A*%
X50633232Y-111671039D03*
D13*
%TO.P,D2,2,RK_2*%
%TO.N,/row-board/DIG_5*%
X49363232Y-111671039D03*
%TO.P,D2,3,GK_3*%
%TO.N,/row-board/DIG_4*%
X51903232Y-111671039D03*
%TO.P,D2,4,BK_4*%
%TO.N,/row-board/DIG_3*%
X53173232Y-111671039D03*
%TD*%
D10*
%TO.P,SW9,1,1_1*%
%TO.N,/row-board/BTN_8*%
X221725000Y-121000000D03*
D11*
%TO.P,SW9,2,2_2*%
%TO.N,+3V3*%
X224265000Y-121000000D03*
%TD*%
D14*
%TO.P,R17,1*%
%TO.N,+5V*%
X253880000Y-129000000D03*
%TO.P,R17,2*%
%TO.N,Net-(U1-ISET)*%
X261500000Y-129000000D03*
%TD*%
D10*
%TO.P,SW11,1,1_1*%
%TO.N,/row-board/BTN_10*%
X270000000Y-121000000D03*
D11*
%TO.P,SW11,2,2_2*%
%TO.N,+3V3*%
X272540000Y-121000000D03*
%TD*%
D12*
%TO.P,D6,1,A_1*%
%TO.N,/row-board/SEG_C*%
X148691100Y-111750934D03*
D13*
%TO.P,D6,2,RK_2*%
%TO.N,/row-board/DIG_5*%
X147421100Y-111750934D03*
%TO.P,D6,3,GK_3*%
%TO.N,/row-board/DIG_4*%
X149961100Y-111750934D03*
%TO.P,D6,4,BK_4*%
%TO.N,/row-board/DIG_3*%
X151231100Y-111750934D03*
%TD*%
D14*
%TO.P,R1,1*%
%TO.N,/row-board/BTN_0*%
X25500000Y-125500000D03*
%TO.P,R1,2*%
%TO.N,GND*%
X25500000Y-133120000D03*
%TD*%
D15*
%TO.P,C1,1*%
%TO.N,+5V*%
X243500000Y-143500000D03*
D14*
%TO.P,C1,2*%
%TO.N,GND*%
X243500000Y-146000000D03*
%TD*%
%TO.P,R4,1*%
%TO.N,/row-board/BTN_3*%
X98500000Y-125500000D03*
%TO.P,R4,2*%
%TO.N,GND*%
X98500000Y-133120000D03*
%TD*%
%TO.P,R10,1*%
%TO.N,/row-board/BTN_9*%
X245500000Y-125500000D03*
%TO.P,R10,2*%
%TO.N,GND*%
X245500000Y-133120000D03*
%TD*%
D10*
%TO.P,SW15,1,1_1*%
%TO.N,/row-board/BTN_14*%
X368500000Y-121000000D03*
D11*
%TO.P,SW15,2,2_2*%
%TO.N,+3V3*%
X371040000Y-121000000D03*
%TD*%
D14*
%TO.P,R5,1*%
%TO.N,/row-board/BTN_4*%
X123000000Y-125500000D03*
%TO.P,R5,2*%
%TO.N,GND*%
X123000000Y-133120000D03*
%TD*%
%TO.P,C6,1*%
%TO.N,+3V3*%
X103000000Y-135000000D03*
%TO.P,C6,2*%
%TO.N,GND*%
X103000000Y-130000000D03*
%TD*%
D10*
%TO.P,SW10,1,1_1*%
%TO.N,/row-board/BTN_9*%
X245960000Y-121000000D03*
D11*
%TO.P,SW10,2,2_2*%
%TO.N,+3V3*%
X248500000Y-121000000D03*
%TD*%
D10*
%TO.P,SW2,1,1_1*%
%TO.N,/row-board/BTN_1*%
X50000000Y-121000000D03*
D11*
%TO.P,SW2,2,2_2*%
%TO.N,+3V3*%
X52540000Y-121000000D03*
%TD*%
D14*
%TO.P,R15,1*%
%TO.N,/row-board/BTN_14*%
X368500000Y-125500000D03*
%TO.P,R15,2*%
%TO.N,GND*%
X368500000Y-133120000D03*
%TD*%
%TO.P,R2,1*%
%TO.N,/row-board/BTN_1*%
X49880000Y-125500000D03*
%TO.P,R2,2*%
%TO.N,GND*%
X49880000Y-133120000D03*
%TD*%
D12*
%TO.P,D1,1,A_1*%
%TO.N,/row-board/SEG_A*%
X26181183Y-111697670D03*
D13*
%TO.P,D1,2,RK_2*%
%TO.N,/row-board/DIG_2*%
X24911183Y-111697670D03*
%TO.P,D1,3,GK_3*%
%TO.N,/row-board/DIG_1*%
X27451183Y-111697670D03*
%TO.P,D1,4,BK_4*%
%TO.N,/row-board/DIG_0*%
X28721183Y-111697670D03*
%TD*%
D12*
%TO.P,D15,1,A_1*%
%TO.N,/row-board/SEG_DP*%
X369223933Y-111671039D03*
D13*
%TO.P,D15,2,RK_2*%
%TO.N,/row-board/DIG_2*%
X367953933Y-111671039D03*
%TO.P,D15,3,GK_3*%
%TO.N,/row-board/DIG_1*%
X370493933Y-111671039D03*
%TO.P,D15,4,BK_4*%
%TO.N,/row-board/DIG_0*%
X371763933Y-111671039D03*
%TD*%
D10*
%TO.P,SW5,1,1_1*%
%TO.N,/row-board/BTN_4*%
X123500000Y-121000000D03*
D11*
%TO.P,SW5,2,2_2*%
%TO.N,+3V3*%
X126040000Y-121000000D03*
%TD*%
D10*
%TO.P,SW12,1,1_1*%
%TO.N,/row-board/BTN_11*%
X295225000Y-121000000D03*
D11*
%TO.P,SW12,2,2_2*%
%TO.N,+3V3*%
X297765000Y-121000000D03*
%TD*%
D10*
%TO.P,SW13,1,1_1*%
%TO.N,/row-board/BTN_12*%
X319500000Y-121000000D03*
D11*
%TO.P,SW13,2,2_2*%
%TO.N,+3V3*%
X322040000Y-121000000D03*
%TD*%
D10*
%TO.P,SW8,1,1_1*%
%TO.N,/row-board/BTN_7*%
X196500000Y-121000000D03*
D11*
%TO.P,SW8,2,2_2*%
%TO.N,+3V3*%
X199040000Y-121000000D03*
%TD*%
D12*
%TO.P,D11,1,A_1*%
%TO.N,/row-board/SEG_F*%
X271166064Y-111697670D03*
D13*
%TO.P,D11,2,RK_2*%
%TO.N,/row-board/DIG_2*%
X269896064Y-111697670D03*
%TO.P,D11,3,GK_3*%
%TO.N,/row-board/DIG_1*%
X272436064Y-111697670D03*
%TO.P,D11,4,BK_4*%
%TO.N,/row-board/DIG_0*%
X273706064Y-111697670D03*
%TD*%
D10*
%TO.P,J15,1,Pin_1_1*%
%TO.N,GND*%
X197300000Y-153540000D03*
D11*
%TO.P,J15,2,Pin_2_2*%
%TO.N,+5V*%
X197300000Y-151000000D03*
%TO.P,J15,3,Pin_3_3*%
%TO.N,GND*%
X199840000Y-153540000D03*
%TO.P,J15,4,Pin_4_4*%
%TO.N,+5V*%
X199840000Y-151000000D03*
%TO.P,J15,5,Pin_5_5*%
%TO.N,/row-board/MAX_DIN*%
X202380000Y-153540000D03*
%TO.P,J15,6,Pin_6_6*%
%TO.N,/row-board/MAX_DOUT*%
X202380000Y-151000000D03*
%TO.P,J15,7,Pin_7_7*%
%TO.N,/row-board/MAX_CLK*%
X204920000Y-153540000D03*
%TO.P,J15,8,Pin_8_8*%
%TO.N,/row-board/MAX_LOAD*%
X204920000Y-151000000D03*
%TO.P,J15,9,Pin_9_9*%
%TO.N,GND*%
X207460000Y-153540000D03*
%TO.P,J15,10,Pin_10_10*%
%TO.N,+5V*%
X207460000Y-151000000D03*
%TO.P,J15,11,Pin_11_11*%
%TO.N,GND*%
X210000000Y-153540000D03*
%TO.P,J15,12,Pin_12_12*%
%TO.N,+3V3*%
X210000000Y-151000000D03*
%TO.P,J15,13,Pin_13_13*%
%TO.N,/row-board/165_SER_IN*%
X212540000Y-153540000D03*
%TO.P,J15,14,Pin_14_14*%
%TO.N,/row-board/165_QH*%
X212540000Y-151000000D03*
%TO.P,J15,15,Pin_15_15*%
%TO.N,/row-board/165_CLK*%
X215080000Y-153540000D03*
%TO.P,J15,16,Pin_16_16*%
%TO.N,/row-board/165_SH{slash}LD*%
X215080000Y-151000000D03*
%TO.P,J15,17,Pin_17_17*%
%TO.N,GND*%
X217620000Y-153540000D03*
%TO.P,J15,18,Pin_18_18*%
%TO.N,+5V*%
X217620000Y-151000000D03*
%TO.P,J15,19,Pin_19_19*%
%TO.N,GND*%
X220160000Y-153540000D03*
%TO.P,J15,20,Pin_20_20*%
%TO.N,+5V*%
X220160000Y-151000000D03*
%TD*%
D10*
%TO.P,SW1,1,1_1*%
%TO.N,/row-board/BTN_0*%
X25500000Y-121000000D03*
D11*
%TO.P,SW1,2,2_2*%
%TO.N,+3V3*%
X28040000Y-121000000D03*
%TD*%
D14*
%TO.P,R7,1*%
%TO.N,/row-board/BTN_6*%
X172000000Y-125500000D03*
%TO.P,R7,2*%
%TO.N,GND*%
X172000000Y-133120000D03*
%TD*%
%TO.P,R13,1*%
%TO.N,/row-board/BTN_12*%
X319000000Y-125500000D03*
%TO.P,R13,2*%
%TO.N,GND*%
X319000000Y-133120000D03*
%TD*%
D10*
%TO.P,SW4,1,1_1*%
%TO.N,/row-board/BTN_3*%
X98725000Y-121000000D03*
D11*
%TO.P,SW4,2,2_2*%
%TO.N,+3V3*%
X101265000Y-121000000D03*
%TD*%
D14*
%TO.P,R11,1*%
%TO.N,/row-board/BTN_10*%
X269500000Y-125500000D03*
%TO.P,R11,2*%
%TO.N,GND*%
X269500000Y-133120000D03*
%TD*%
D10*
%TO.P,SW3,1,1_1*%
%TO.N,/row-board/BTN_2*%
X74500000Y-121000000D03*
D11*
%TO.P,SW3,2,2_2*%
%TO.N,+3V3*%
X77040000Y-121000000D03*
%TD*%
D12*
%TO.P,D10,1,A_1*%
%TO.N,/row-board/SEG_E*%
X246748969Y-111804197D03*
D13*
%TO.P,D10,2,RK_2*%
%TO.N,/row-board/DIG_5*%
X245478969Y-111804197D03*
%TO.P,D10,3,GK_3*%
%TO.N,/row-board/DIG_4*%
X248018969Y-111804197D03*
%TO.P,D10,4,BK_4*%
%TO.N,/row-board/DIG_3*%
X249288969Y-111804197D03*
%TD*%
D10*
%TO.P,SW7,1,1_1*%
%TO.N,/row-board/BTN_6*%
X172000000Y-121000000D03*
D11*
%TO.P,SW7,2,2_2*%
%TO.N,+3V3*%
X174540000Y-121000000D03*
%TD*%
D14*
%TO.P,C2,1*%
%TO.N,+5V*%
X234500000Y-142380000D03*
%TO.P,C2,2*%
%TO.N,GND*%
X234500000Y-147380000D03*
%TD*%
%TO.P,R16,1*%
%TO.N,/row-board/BTN_15*%
X392500000Y-125500000D03*
%TO.P,R16,2*%
%TO.N,GND*%
X392500000Y-133120000D03*
%TD*%
%TO.P,R3,1*%
%TO.N,/row-board/BTN_2*%
X74000000Y-125500000D03*
%TO.P,R3,2*%
%TO.N,GND*%
X74000000Y-133120000D03*
%TD*%
D16*
%TO.P,U4,1,~{PL}_1*%
%TO.N,/row-board/165_SH{slash}LD*%
X297800000Y-144500000D03*
D14*
%TO.P,U4,2,CP_2*%
%TO.N,/row-board/165_CLK*%
X300340000Y-144500000D03*
%TO.P,U4,3,D4_3*%
%TO.N,/row-board/BTN_12*%
X302880000Y-144500000D03*
%TO.P,U4,4,D5_4*%
%TO.N,/row-board/BTN_13*%
X305420000Y-144500000D03*
%TO.P,U4,5,D6_5*%
%TO.N,/row-board/BTN_14*%
X307960000Y-144500000D03*
%TO.P,U4,6,D7_6*%
%TO.N,/row-board/BTN_15*%
X310500000Y-144500000D03*
%TO.P,U4,7,~{Q7}_7*%
%TO.N,unconnected-(U4-~{Q7}-Pad7)*%
X313040000Y-144500000D03*
%TO.P,U4,8,GND_8*%
%TO.N,GND*%
X315580000Y-144500000D03*
%TO.P,U4,9,Q7_9*%
%TO.N,Net-(U3-DS)*%
X315580000Y-136880000D03*
%TO.P,U4,10,DS_10*%
%TO.N,/row-board/165_SER_IN*%
X313040000Y-136880000D03*
%TO.P,U4,11,D0_11*%
%TO.N,/row-board/BTN_8*%
X310500000Y-136880000D03*
%TO.P,U4,12,D1_12*%
%TO.N,/row-board/BTN_9*%
X307960000Y-136880000D03*
%TO.P,U4,13,D2_13*%
%TO.N,/row-board/BTN_10*%
X305420000Y-136880000D03*
%TO.P,U4,14,D3_14*%
%TO.N,/row-board/BTN_11*%
X302880000Y-136880000D03*
%TO.P,U4,15,~{CE}_15*%
%TO.N,GND*%
X300340000Y-136880000D03*
%TO.P,U4,16,VCC_16*%
%TO.N,+3V3*%
X297800000Y-136880000D03*
%TD*%
%TO.P,R14,1*%
%TO.N,/row-board/BTN_13*%
X344500000Y-125500000D03*
%TO.P,R14,2*%
%TO.N,GND*%
X344500000Y-133120000D03*
%TD*%
%TO.P,R12,1*%
%TO.N,/row-board/BTN_11*%
X295000000Y-125500000D03*
%TO.P,R12,2*%
%TO.N,GND*%
X295000000Y-133120000D03*
%TD*%
D12*
%TO.P,D7,1,A_1*%
%TO.N,/row-board/SEG_D*%
X173218883Y-111804197D03*
D13*
%TO.P,D7,2,RK_2*%
%TO.N,/row-board/DIG_2*%
X171948883Y-111804197D03*
%TO.P,D7,3,GK_3*%
%TO.N,/row-board/DIG_1*%
X174488883Y-111804197D03*
%TO.P,D7,4,BK_4*%
%TO.N,/row-board/DIG_0*%
X175758883Y-111804197D03*
%TD*%
D12*
%TO.P,D3,1,A_1*%
%TO.N,/row-board/SEG_B*%
X75126062Y-111724302D03*
D13*
%TO.P,D3,2,RK_2*%
%TO.N,/row-board/DIG_2*%
X73856062Y-111724302D03*
%TO.P,D3,3,GK_3*%
%TO.N,/row-board/DIG_1*%
X76396062Y-111724302D03*
%TO.P,D3,4,BK_4*%
%TO.N,/row-board/DIG_0*%
X77666062Y-111724302D03*
%TD*%
D12*
%TO.P,D13,1,A_1*%
%TO.N,/row-board/SEG_G*%
X320248262Y-111804197D03*
D13*
%TO.P,D13,2,RK_2*%
%TO.N,/row-board/DIG_2*%
X318978262Y-111804197D03*
%TO.P,D13,3,GK_3*%
%TO.N,/row-board/DIG_1*%
X321518262Y-111804197D03*
%TO.P,D13,4,BK_4*%
%TO.N,/row-board/DIG_0*%
X322788262Y-111804197D03*
%TD*%
D14*
%TO.P,R8,1*%
%TO.N,/row-board/BTN_7*%
X196500000Y-125500000D03*
%TO.P,R8,2*%
%TO.N,GND*%
X196500000Y-133120000D03*
%TD*%
D12*
%TO.P,D4,1,A_1*%
%TO.N,/row-board/SEG_B*%
X99662166Y-111777565D03*
D13*
%TO.P,D4,2,RK_2*%
%TO.N,/row-board/DIG_5*%
X98392166Y-111777565D03*
%TO.P,D4,3,GK_3*%
%TO.N,/row-board/DIG_4*%
X100932166Y-111777565D03*
%TO.P,D4,4,BK_4*%
%TO.N,/row-board/DIG_3*%
X102202166Y-111777565D03*
%TD*%
D12*
%TO.P,D5,1,A_1*%
%TO.N,/row-board/SEG_C*%
X124159157Y-111724302D03*
D13*
%TO.P,D5,2,RK_2*%
%TO.N,/row-board/DIG_2*%
X122889157Y-111724302D03*
%TO.P,D5,3,GK_3*%
%TO.N,/row-board/DIG_1*%
X125429157Y-111724302D03*
%TO.P,D5,4,BK_4*%
%TO.N,/row-board/DIG_0*%
X126699157Y-111724302D03*
%TD*%
D14*
%TO.P,C4,1*%
%TO.N,+3V3*%
X300000000Y-131000000D03*
%TO.P,C4,2*%
%TO.N,GND*%
X305000000Y-131000000D03*
%TD*%
D10*
%TO.P,SW14,1,1_1*%
%TO.N,/row-board/BTN_13*%
X344500000Y-121000000D03*
D11*
%TO.P,SW14,2,2_2*%
%TO.N,+3V3*%
X347040000Y-121000000D03*
%TD*%
D12*
%TO.P,D9,1,A_1*%
%TO.N,/row-board/SEG_E*%
X222221186Y-111777565D03*
D13*
%TO.P,D9,2,RK_2*%
%TO.N,/row-board/DIG_2*%
X220951186Y-111777565D03*
%TO.P,D9,3,GK_3*%
%TO.N,/row-board/DIG_1*%
X223491186Y-111777565D03*
%TO.P,D9,4,BK_4*%
%TO.N,/row-board/DIG_0*%
X224761186Y-111777565D03*
%TD*%
D12*
%TO.P,D12,1,A_1*%
%TO.N,/row-board/SEG_F*%
X295693847Y-111777565D03*
D13*
%TO.P,D12,2,RK_2*%
%TO.N,/row-board/DIG_5*%
X294423847Y-111777565D03*
%TO.P,D12,3,GK_3*%
%TO.N,/row-board/DIG_4*%
X296963847Y-111777565D03*
%TO.P,D12,4,BK_4*%
%TO.N,/row-board/DIG_3*%
X298233847Y-111777565D03*
%TD*%
D14*
%TO.P,R9,1*%
%TO.N,/row-board/BTN_8*%
X221500000Y-125500000D03*
%TO.P,R9,2*%
%TO.N,GND*%
X221500000Y-133120000D03*
%TD*%
D12*
%TO.P,D16,1,A_1*%
%TO.N,/row-board/SEG_DP*%
X393737565Y-111750934D03*
D13*
%TO.P,D16,2,RK_2*%
%TO.N,/row-board/DIG_5*%
X392467565Y-111750934D03*
%TO.P,D16,3,GK_3*%
%TO.N,/row-board/DIG_4*%
X395007565Y-111750934D03*
%TO.P,D16,4,BK_4*%
%TO.N,/row-board/DIG_3*%
X396277565Y-111750934D03*
%TD*%
D16*
%TO.P,U3,1,~{PL}_1*%
%TO.N,/row-board/165_SH{slash}LD*%
X101720000Y-145500000D03*
D14*
%TO.P,U3,2,CP_2*%
%TO.N,/row-board/165_CLK*%
X104260000Y-145500000D03*
%TO.P,U3,3,D4_3*%
%TO.N,/row-board/BTN_4*%
X106800000Y-145500000D03*
%TO.P,U3,4,D5_4*%
%TO.N,/row-board/BTN_5*%
X109340000Y-145500000D03*
%TO.P,U3,5,D6_5*%
%TO.N,/row-board/BTN_6*%
X111880000Y-145500000D03*
%TO.P,U3,6,D7_6*%
%TO.N,/row-board/BTN_7*%
X114420000Y-145500000D03*
%TO.P,U3,7,~{Q7}_7*%
%TO.N,unconnected-(U3-~{Q7}-Pad7)*%
X116960000Y-145500000D03*
%TO.P,U3,8,GND_8*%
%TO.N,GND*%
X119500000Y-145500000D03*
%TO.P,U3,9,Q7_9*%
%TO.N,/row-board/165_QH*%
X119500000Y-137880000D03*
%TO.P,U3,10,DS_10*%
%TO.N,Net-(U3-DS)*%
X116960000Y-137880000D03*
%TO.P,U3,11,D0_11*%
%TO.N,/row-board/BTN_0*%
X114420000Y-137880000D03*
%TO.P,U3,12,D1_12*%
%TO.N,/row-board/BTN_1*%
X111880000Y-137880000D03*
%TO.P,U3,13,D2_13*%
%TO.N,/row-board/BTN_2*%
X109340000Y-137880000D03*
%TO.P,U3,14,D3_14*%
%TO.N,/row-board/BTN_3*%
X106800000Y-137880000D03*
%TO.P,U3,15,~{CE}_15*%
%TO.N,GND*%
X104260000Y-137880000D03*
%TO.P,U3,16,VCC_16*%
%TO.N,+3V3*%
X101720000Y-137880000D03*
%TD*%
D12*
%TO.P,D14,1,A_1*%
%TO.N,/row-board/SEG_G*%
X344726942Y-111750934D03*
D13*
%TO.P,D14,2,RK_2*%
%TO.N,/row-board/DIG_5*%
X343456942Y-111750934D03*
%TO.P,D14,3,GK_3*%
%TO.N,/row-board/DIG_4*%
X345996942Y-111750934D03*
%TO.P,D14,4,BK_4*%
%TO.N,/row-board/DIG_3*%
X347266942Y-111750934D03*
%TD*%
D17*
%TO.N,+5V*%
X213500000Y-148600000D03*
X215000000Y-144000000D03*
X200000000Y-144000000D03*
%TO.N,GND*%
X271500000Y-149000000D03*
X258500000Y-149000000D03*
X228060000Y-140940000D03*
%TO.N,/row-board/SEG_D*%
X251000000Y-130000000D03*
%TO.N,/row-board/DIG_5*%
X196500000Y-115000000D03*
X245500000Y-115000000D03*
X282400000Y-132000000D03*
X294500000Y-115000000D03*
X98500000Y-115000000D03*
X391500000Y-114600000D03*
X343500000Y-115000000D03*
X147500000Y-115000000D03*
%TO.N,/row-board/DIG_4*%
X101000000Y-114000000D03*
X251000000Y-128500000D03*
X253000000Y-114000000D03*
X394500000Y-114000000D03*
X297000000Y-114000000D03*
X150000000Y-114000000D03*
X346000000Y-114000000D03*
X248000000Y-114000000D03*
X199000000Y-114000000D03*
%TO.N,/row-board/DIG_3*%
X284000000Y-113350934D03*
X283000000Y-128500000D03*
%TO.N,/row-board/SEG_A*%
X276500000Y-132000000D03*
%TO.N,/row-board/SEG_C*%
X252000000Y-130900000D03*
%TO.N,/row-board/DIG_2*%
X279000000Y-128500000D03*
X74000000Y-108000000D03*
X319000000Y-108000000D03*
X123000000Y-108000000D03*
X172000000Y-108000000D03*
X270000000Y-108000000D03*
X367500000Y-108400000D03*
X221000000Y-108000000D03*
%TO.N,/row-board/DIG_1*%
X321500000Y-109000000D03*
X283000000Y-130500000D03*
X76500000Y-109000000D03*
X174500000Y-109000000D03*
X125500000Y-109000000D03*
X223500000Y-109000000D03*
X272500000Y-109000000D03*
X370000000Y-109000000D03*
%TO.N,/row-board/DIG_0*%
X250241051Y-128247017D03*
X252500000Y-110000000D03*
%TO.N,/row-board/SEG_DP*%
X256000000Y-141400000D03*
%TO.N,/row-board/MAX_DIN*%
X227014579Y-148487851D03*
%TO.N,/row-board/MAX_LOAD*%
X226400000Y-149000000D03*
%TO.N,/row-board/MAX_CLK*%
X228500000Y-139500000D03*
X251500000Y-142000000D03*
%TO.N,/row-board/SEG_F*%
X280000000Y-111000000D03*
X281500000Y-128000000D03*
%TO.N,/row-board/SEG_B*%
X265500000Y-131500000D03*
%TO.N,/row-board/SEG_G*%
X268500000Y-141400000D03*
%TO.N,/row-board/SEG_E*%
X253000000Y-131400000D03*
%TO.N,/row-board/MAX_DOUT*%
X227500000Y-136500000D03*
X250920735Y-136079265D03*
%TO.N,/row-board/165_SER_IN*%
X292000000Y-149500000D03*
%TO.N,/row-board/165_QH*%
X124000000Y-138000000D03*
X213500000Y-145500000D03*
%TO.N,/row-board/165_CLK*%
X185500000Y-147500000D03*
X299000000Y-150000000D03*
%TO.N,/row-board/165_SH{slash}LD*%
X297000000Y-149000000D03*
%TO.N,Net-(U3-DS)*%
X225000000Y-136500000D03*
X124500000Y-136500000D03*
X203000000Y-136500000D03*
%TD*%
%TO.N,+3V3*%
D18*
X300000000Y-123235000D02*
X300000000Y-131000000D01*
X297765000Y-121000000D02*
X300000000Y-123235000D01*
%TO.N,+5V*%
X215000000Y-144000000D02*
X200000000Y-144000000D01*
X213500000Y-148600000D02*
X209860000Y-148600000D01*
X209860000Y-148600000D02*
X207460000Y-151000000D01*
%TO.N,GND*%
X221500000Y-133120000D02*
X221500000Y-134380000D01*
X74000000Y-133120000D02*
X98500000Y-133120000D01*
X254000000Y-146000000D02*
X257000000Y-149000000D01*
X295000000Y-133500000D02*
X295000000Y-133120000D01*
X234500000Y-147380000D02*
X242120000Y-147380000D01*
X217620000Y-153540000D02*
X220160000Y-153540000D01*
X319000000Y-133120000D02*
X344500000Y-133120000D01*
X199840000Y-153540000D02*
X197300000Y-153540000D01*
X221500000Y-133120000D02*
X245500000Y-133120000D01*
X196500000Y-133120000D02*
X221500000Y-133120000D01*
X172000000Y-133120000D02*
X196500000Y-133120000D01*
X148000000Y-133120000D02*
X172000000Y-133120000D01*
X243500000Y-146000000D02*
X254000000Y-146000000D01*
X104260000Y-137880000D02*
X105360000Y-138980000D01*
X105360000Y-138980000D02*
X112980000Y-138980000D01*
X270000000Y-149000000D02*
X267000000Y-146000000D01*
X123000000Y-133120000D02*
X148000000Y-133120000D01*
X295000000Y-133120000D02*
X305000000Y-133120000D01*
X305000000Y-133120000D02*
X319000000Y-133120000D01*
X267000000Y-146000000D02*
X254000000Y-146000000D01*
X99880000Y-133120000D02*
X103000000Y-130000000D01*
X99500000Y-133120000D02*
X104260000Y-137880000D01*
X228060000Y-140940000D02*
X234500000Y-147380000D01*
X296580000Y-133120000D02*
X295000000Y-133120000D01*
X25500000Y-133120000D02*
X49880000Y-133120000D01*
X245500000Y-133120000D02*
X269500000Y-133120000D01*
X315580000Y-144500000D02*
X319000000Y-141080000D01*
X210000000Y-153540000D02*
X207460000Y-153540000D01*
X242120000Y-147380000D02*
X243500000Y-146000000D01*
X271500000Y-149000000D02*
X270000000Y-149000000D01*
X305000000Y-131000000D02*
X305000000Y-133120000D01*
X257000000Y-149000000D02*
X258500000Y-149000000D01*
X392500000Y-133120000D02*
X368500000Y-133120000D01*
X49880000Y-133120000D02*
X74000000Y-133120000D01*
X344500000Y-133120000D02*
X368500000Y-133120000D01*
X319000000Y-141080000D02*
X319000000Y-133120000D01*
X119500000Y-143000000D02*
X123000000Y-139500000D01*
X99500000Y-133120000D02*
X99880000Y-133120000D01*
X112980000Y-138980000D02*
X119500000Y-145500000D01*
X300340000Y-136880000D02*
X296580000Y-133120000D01*
X221500000Y-134380000D02*
X228060000Y-140940000D01*
X119500000Y-145500000D02*
X119500000Y-143000000D01*
X269500000Y-133120000D02*
X295000000Y-133120000D01*
X123000000Y-139500000D02*
X123000000Y-133120000D01*
X98500000Y-133120000D02*
X99500000Y-133120000D01*
%TO.N,/row-board/SEG_D*%
X214651471Y-130500000D02*
X250500000Y-130500000D01*
X250500000Y-130500000D02*
X251000000Y-130000000D01*
X197650460Y-113498989D02*
X214651471Y-130500000D01*
X197650460Y-111724302D02*
X197650460Y-113498989D01*
%TO.N,/row-board/DIG_5*%
X147421100Y-114921100D02*
X147500000Y-115000000D01*
X343456942Y-114956942D02*
X343456942Y-111750934D01*
X245478969Y-114978969D02*
X245500000Y-115000000D01*
X196388450Y-114888450D02*
X196500000Y-115000000D01*
X343500000Y-115000000D02*
X343456942Y-114956942D01*
X147421100Y-111750934D02*
X147421100Y-114921100D01*
X284000000Y-131500000D02*
X284000000Y-125500000D01*
X98392166Y-111777565D02*
X98392166Y-114892166D01*
X294423847Y-114923847D02*
X294500000Y-115000000D01*
X294423847Y-111777565D02*
X294423847Y-114923847D01*
X98392166Y-114892166D02*
X98500000Y-115000000D01*
X284000000Y-125500000D02*
X294500000Y-115000000D01*
X196388450Y-111724302D02*
X196388450Y-114888450D01*
X391500000Y-114600000D02*
X392467565Y-113632435D01*
X392467565Y-113632435D02*
X392467565Y-111750934D01*
X283500000Y-132000000D02*
X284000000Y-131500000D01*
X245478969Y-111804197D02*
X245478969Y-114978969D01*
X282400000Y-132000000D02*
X283500000Y-132000000D01*
%TO.N,/row-board/DIG_4*%
X100932166Y-113932166D02*
X101000000Y-114000000D01*
X394500000Y-114000000D02*
X395007565Y-113492435D01*
X296963847Y-111777565D02*
X296963847Y-113963847D01*
X149961100Y-111750934D02*
X149961100Y-113961100D01*
X345996942Y-113496942D02*
X345996942Y-111750934D01*
X198928450Y-111724302D02*
X198928450Y-113928450D01*
X248018969Y-111804197D02*
X248018969Y-113981031D01*
X296963847Y-113963847D02*
X297000000Y-114000000D01*
X100932166Y-111777565D02*
X100932166Y-113932166D01*
X198928450Y-113928450D02*
X199000000Y-114000000D01*
X149961100Y-113961100D02*
X150000000Y-114000000D01*
X248018969Y-113981031D02*
X248000000Y-114000000D01*
X253000000Y-126500000D02*
X253000000Y-114000000D01*
X395007565Y-113492435D02*
X395007565Y-111750934D01*
X346000000Y-114000000D02*
X346000000Y-113500000D01*
X346000000Y-113500000D02*
X345996942Y-113496942D01*
X251000000Y-128500000D02*
X253000000Y-126500000D01*
%TO.N,/row-board/DIG_3*%
X347266942Y-111766942D02*
X347500000Y-112000000D01*
X284000000Y-113500000D02*
X284000000Y-113350934D01*
X283000000Y-114500000D02*
X284000000Y-113500000D01*
X283000000Y-128500000D02*
X283000000Y-114500000D01*
%TO.N,/row-board/SEG_A*%
X123455635Y-132020000D02*
X123935635Y-132500000D01*
X122544365Y-132020000D02*
X123455635Y-132020000D01*
X148455635Y-132020000D02*
X148935635Y-132500000D01*
X122064365Y-132500000D02*
X122544365Y-132020000D01*
X264851471Y-132500000D02*
X265251471Y-132100000D01*
X147544365Y-132020000D02*
X148455635Y-132020000D01*
X114485785Y-128900000D02*
X118085785Y-132500000D01*
X220564365Y-132500000D02*
X221044365Y-132020000D01*
X246435635Y-132500000D02*
X264851471Y-132500000D01*
X171064365Y-132500000D02*
X171544365Y-132020000D01*
X147064365Y-132500000D02*
X147544365Y-132020000D01*
X118085785Y-132500000D02*
X122064365Y-132500000D01*
X172935635Y-132500000D02*
X195564365Y-132500000D01*
X276000000Y-131500000D02*
X276500000Y-132000000D01*
X50625242Y-111671039D02*
X50625242Y-112125242D01*
X221955635Y-132020000D02*
X222435635Y-132500000D01*
X67400000Y-128900000D02*
X114485785Y-128900000D01*
X221044365Y-132020000D02*
X221955635Y-132020000D01*
X172455635Y-132020000D02*
X172935635Y-132500000D01*
X244564365Y-132500000D02*
X245044365Y-132020000D01*
X148935635Y-132500000D02*
X171064365Y-132500000D01*
X245955635Y-132020000D02*
X246435635Y-132500000D01*
X197435635Y-132500000D02*
X220564365Y-132500000D01*
X245044365Y-132020000D02*
X245955635Y-132020000D01*
X265251471Y-132100000D02*
X265748529Y-132100000D01*
X265748529Y-132100000D02*
X266348529Y-131500000D01*
X50625242Y-112125242D02*
X67400000Y-128900000D01*
X195564365Y-132500000D02*
X196044365Y-132020000D01*
X171544365Y-132020000D02*
X172455635Y-132020000D01*
X266348529Y-131500000D02*
X276000000Y-131500000D01*
X123935635Y-132500000D02*
X147064365Y-132500000D01*
X222435635Y-132500000D02*
X244564365Y-132500000D01*
X196955635Y-132020000D02*
X197435635Y-132500000D01*
X196044365Y-132020000D02*
X196955635Y-132020000D01*
%TO.N,/row-board/SEG_C*%
X252000000Y-130900000D02*
X252000000Y-131000000D01*
X252000000Y-131000000D02*
X251900000Y-131100000D01*
X166251471Y-131100000D02*
X148683110Y-113531639D01*
X148683110Y-113531639D02*
X148683110Y-111750934D01*
X251900000Y-131100000D02*
X166251471Y-131100000D01*
%TO.N,/row-board/DIG_2*%
X269896064Y-112797670D02*
X269896064Y-111697670D01*
X367500000Y-110000000D02*
X367953933Y-110453933D01*
X122889157Y-108110843D02*
X123000000Y-108000000D01*
X318978262Y-108021738D02*
X319000000Y-108000000D01*
X171948883Y-111804197D02*
X171948883Y-108051117D01*
X220951186Y-111777565D02*
X220951186Y-108048814D01*
X171948883Y-108051117D02*
X172000000Y-108000000D01*
X279000000Y-121901606D02*
X269896064Y-112797670D01*
X73856062Y-111724302D02*
X73856062Y-108143938D01*
X367953933Y-110453933D02*
X367953933Y-111671039D01*
X220951186Y-108048814D02*
X221000000Y-108000000D01*
X122889157Y-111724302D02*
X122889157Y-108110843D01*
X318978262Y-111804197D02*
X318978262Y-108021738D01*
X367500000Y-108400000D02*
X367500000Y-110000000D01*
X279000000Y-128500000D02*
X279000000Y-121901606D01*
X269896064Y-108103936D02*
X270000000Y-108000000D01*
X269896064Y-111697670D02*
X269896064Y-108103936D01*
X73856062Y-108143938D02*
X74000000Y-108000000D01*
%TO.N,/row-board/DIG_1*%
X282500000Y-130500000D02*
X280000000Y-128000000D01*
X223491186Y-109008814D02*
X223500000Y-109000000D01*
X321518262Y-109018262D02*
X321500000Y-109000000D01*
X272436064Y-111697670D02*
X272436064Y-109063936D01*
X125429157Y-111724302D02*
X125429157Y-109570843D01*
X370000000Y-110077106D02*
X370493933Y-110571039D01*
X280000000Y-128000000D02*
X280000000Y-119626606D01*
X272436064Y-109063936D02*
X272500000Y-109000000D01*
X321518262Y-111804197D02*
X321518262Y-109018262D01*
X280000000Y-119626606D02*
X272436064Y-112062670D01*
X272436064Y-112062670D02*
X272436064Y-111697670D01*
X125500000Y-109000000D02*
X125500000Y-109500000D01*
X76396062Y-111724302D02*
X76396062Y-109103938D01*
X370493933Y-110571039D02*
X370493933Y-111671039D01*
X174488883Y-109011117D02*
X174500000Y-109000000D01*
X125500000Y-109500000D02*
X125429157Y-109570843D01*
X283000000Y-130500000D02*
X282500000Y-130500000D01*
X76396062Y-109103938D02*
X76500000Y-109000000D01*
X223491186Y-111777565D02*
X223491186Y-109008814D01*
X174488883Y-111804197D02*
X174488883Y-109011117D01*
X370000000Y-109000000D02*
X370000000Y-110077106D01*
%TO.N,/row-board/DIG_0*%
X250252983Y-128247017D02*
X252400000Y-126100000D01*
X252400000Y-110100000D02*
X252500000Y-110000000D01*
X250241051Y-128247017D02*
X250252983Y-128247017D01*
X252400000Y-126100000D02*
X252400000Y-110100000D01*
%TO.N,/row-board/SEG_DP*%
X267165686Y-145600000D02*
X269065686Y-147500000D01*
X269065686Y-147500000D02*
X271500000Y-147500000D01*
X379675635Y-147500000D02*
X271465686Y-147500000D01*
X384179904Y-127000000D02*
X395500000Y-127000000D01*
X395500000Y-127000000D02*
X397000000Y-128500000D01*
X397000000Y-128500000D02*
X397000000Y-145500000D01*
X261600000Y-145600000D02*
X267165686Y-145600000D01*
X369215943Y-112036039D02*
X384179904Y-127000000D01*
X381675635Y-145500000D02*
X379675635Y-147500000D01*
X369215943Y-111671039D02*
X369215943Y-112036039D01*
X397000000Y-145500000D02*
X381675635Y-145500000D01*
X257400000Y-141400000D02*
X261600000Y-145600000D01*
X256000000Y-141400000D02*
X257400000Y-141400000D01*
%TO.N,/row-board/MAX_DIN*%
X203530000Y-150763654D02*
X203530000Y-152390000D01*
X225526728Y-147000000D02*
X207293654Y-147000000D01*
X207293654Y-147000000D02*
X203530000Y-150763654D01*
X203530000Y-152390000D02*
X202380000Y-153540000D01*
X227014579Y-148487851D02*
X225526728Y-147000000D01*
%TO.N,/row-board/MAX_LOAD*%
X226400000Y-149000000D02*
X225400000Y-148000000D01*
X207920000Y-148000000D02*
X204920000Y-151000000D01*
X225400000Y-148000000D02*
X207920000Y-148000000D01*
%TO.N,/row-board/MAX_CLK*%
X229500000Y-138500000D02*
X228500000Y-139500000D01*
X248000000Y-138500000D02*
X229500000Y-138500000D01*
X251500000Y-142000000D02*
X248000000Y-138500000D01*
%TO.N,/row-board/SEG_F*%
X281500000Y-112500000D02*
X280000000Y-111000000D01*
X281500000Y-128000000D02*
X281500000Y-112500000D01*
%TO.N,/row-board/SEG_B*%
X197121321Y-131620000D02*
X197501321Y-132000000D01*
X264785785Y-132000000D02*
X265085786Y-131700000D01*
X222121321Y-131620000D02*
X222501321Y-132000000D01*
X220498679Y-132000000D02*
X220878680Y-131620000D01*
X146998679Y-132000000D02*
X147378680Y-131620000D01*
X121998679Y-132000000D02*
X122378680Y-131620000D01*
X118151471Y-132000000D02*
X121998679Y-132000000D01*
X246121321Y-131620000D02*
X246501321Y-132000000D01*
X244498679Y-132000000D02*
X244878680Y-131620000D01*
X173001321Y-132000000D02*
X195498679Y-132000000D01*
X195878680Y-131620000D02*
X197121321Y-131620000D01*
X99654176Y-111777565D02*
X99654176Y-113502705D01*
X172621321Y-131620000D02*
X173001321Y-132000000D01*
X265300000Y-131700000D02*
X265500000Y-131500000D01*
X99654176Y-113502705D02*
X118151471Y-132000000D01*
X222501321Y-132000000D02*
X244498679Y-132000000D01*
X265085786Y-131700000D02*
X265300000Y-131700000D01*
X147378680Y-131620000D02*
X148621321Y-131620000D01*
X246501321Y-132000000D02*
X264785785Y-132000000D01*
X148621321Y-131620000D02*
X149001321Y-132000000D01*
X149001321Y-132000000D02*
X170998679Y-132000000D01*
X171378680Y-131620000D02*
X172621321Y-131620000D01*
X220878680Y-131620000D02*
X222121321Y-131620000D01*
X124001321Y-132000000D02*
X146998679Y-132000000D01*
X123621321Y-131620000D02*
X124001321Y-132000000D01*
X195498679Y-132000000D02*
X195878680Y-131620000D01*
X122378680Y-131620000D02*
X123621321Y-131620000D01*
X197501321Y-132000000D02*
X220498679Y-132000000D01*
X244878680Y-131620000D02*
X246121321Y-131620000D01*
X170998679Y-132000000D02*
X171378680Y-131620000D01*
%TO.N,/row-board/SEG_G*%
X268500000Y-141400000D02*
X269900000Y-141400000D01*
X396500000Y-128565686D02*
X395934314Y-128000000D01*
X269900000Y-141400000D02*
X275500000Y-147000000D01*
X393900000Y-145100000D02*
X396500000Y-142500000D01*
X275500000Y-147000000D02*
X379609949Y-147000000D01*
X395934314Y-128000000D02*
X359151471Y-128000000D01*
X379609949Y-147000000D02*
X381509949Y-145100000D01*
X344718952Y-113567481D02*
X344718952Y-111750934D01*
X381509949Y-145100000D02*
X393900000Y-145100000D01*
X396500000Y-142500000D02*
X396500000Y-128565686D01*
X359151471Y-128000000D02*
X344718952Y-113567481D01*
%TO.N,/row-board/SEG_E*%
X241600000Y-129100000D02*
X241500000Y-129000000D01*
X253000000Y-130500000D02*
X251600000Y-129100000D01*
X241500000Y-129000000D02*
X241500000Y-123000000D01*
X253000000Y-131400000D02*
X253000000Y-130500000D01*
X246740979Y-117759021D02*
X246740979Y-111804197D01*
X241500000Y-123000000D02*
X246740979Y-117759021D01*
X251600000Y-129100000D02*
X241600000Y-129100000D01*
%TO.N,/row-board/MAX_DOUT*%
X249841470Y-135000000D02*
X250920735Y-136079265D01*
X227500000Y-136500000D02*
X247500000Y-136500000D01*
X249000000Y-135000000D02*
X249841470Y-135000000D01*
X247500000Y-136500000D02*
X249000000Y-135000000D01*
%TO.N,/row-board/165_SER_IN*%
X213690000Y-149810000D02*
X213690000Y-152390000D01*
X213690000Y-152390000D02*
X212540000Y-153540000D01*
X292000000Y-149500000D02*
X291500000Y-150000000D01*
X222000000Y-149000000D02*
X214500000Y-149000000D01*
X291500000Y-150000000D02*
X223000000Y-150000000D01*
X223000000Y-150000000D02*
X222000000Y-149000000D01*
X214500000Y-149000000D02*
X213690000Y-149810000D01*
%TO.N,/row-board/165_QH*%
X131000000Y-145000000D02*
X213000000Y-145000000D01*
X213000000Y-145000000D02*
X213500000Y-145500000D01*
X124000000Y-138000000D02*
X131000000Y-145000000D01*
%TO.N,/row-board/165_CLK*%
X185500000Y-147500000D02*
X192690000Y-154690000D01*
X216540000Y-155000000D02*
X215080000Y-153540000D01*
X192690000Y-154690000D02*
X213930000Y-154690000D01*
X298000000Y-151000000D02*
X226000000Y-151000000D01*
X222000000Y-155000000D02*
X216540000Y-155000000D01*
X299000000Y-150000000D02*
X298000000Y-151000000D01*
X226000000Y-151000000D02*
X222000000Y-155000000D01*
X213930000Y-154690000D02*
X215080000Y-153540000D01*
%TO.N,/row-board/165_SH{slash}LD*%
X221852031Y-150500000D02*
X220802031Y-149450000D01*
X297000000Y-149000000D02*
X295500000Y-150500000D01*
X220802031Y-149450000D02*
X215550000Y-149450000D01*
X295500000Y-150500000D02*
X221852031Y-150500000D01*
X215080000Y-149920000D02*
X215080000Y-151000000D01*
X215550000Y-149450000D02*
X215080000Y-149920000D01*
%TO.N,Net-(U3-DS)*%
X312460000Y-140000000D02*
X250500000Y-140000000D01*
X226000000Y-137500000D02*
X225000000Y-136500000D01*
X248000000Y-137500000D02*
X226000000Y-137500000D01*
X203000000Y-136500000D02*
X124500000Y-136500000D01*
X315580000Y-136880000D02*
X312460000Y-140000000D01*
X250500000Y-140000000D02*
X248000000Y-137500000D01*
%TD*%
M02*
