%TF.GenerationSoftware,KiCad,Pcbnew,10.0.1*%
%TF.CreationDate,2026-09-22T21:36:06+02:00*%
%TF.ProjectId,kosmo-16-channel-sequencer-row-board,6b6f736d-6f2d-4313-962d-6368616e6e65,rev?*%
%TF.SameCoordinates,Original*%
%TF.FileFunction,Soldermask,Top*%
%TF.FilePolarity,Negative*%
%FSLAX46Y46*%
G04 Gerber Fmt 4.6, Leading zero omitted, Abs format (unit mm)*
G04 Created by KiCad (PCBNEW 10.0.1) date 2026-09-22 21:36:06*
%MOMM*%
%LPD*%
G01*
G04 APERTURE LIST*
G04 Aperture macros list*
%AMRoundRect*
0 Rectangle with rounded corners*
0 $1 Rounding radius*
0 $2 $3 $4 $5 $6 $7 $8 $9 X,Y pos of 4 corners*
0 Add a 4 corners polygon primitive as box body*
4,1,4,$2,$3,$4,$5,$6,$7,$8,$9,$2,$3,0*
0 Add four circle primitives for the rounded corners*
1,1,$1+$1,$2,$3*
1,1,$1+$1,$4,$5*
1,1,$1+$1,$6,$7*
1,1,$1+$1,$8,$9*
0 Add four rect primitives between the rounded corners*
20,1,$1+$1,$2,$3,$4,$5,0*
20,1,$1+$1,$4,$5,$6,$7,0*
20,1,$1+$1,$6,$7,$8,$9,0*
20,1,$1+$1,$8,$9,$2,$3,0*%
G04 Aperture macros list end*
%ADD10R,1.700000X1.700000*%
%ADD11C,1.700000*%
%ADD12R,1.070000X1.800000*%
%ADD13O,1.070000X1.800000*%
%ADD14C,1.600000*%
%ADD15RoundRect,0.250000X-0.550000X0.550000X-0.550000X-0.550000X0.550000X-0.550000X0.550000X0.550000X0*%
%ADD16RoundRect,0.249999X0.640001X-0.750001X0.640001X0.750001X-0.640001X0.750001X-0.640001X-0.750001X0*%
%ADD17RoundRect,0.250000X0.550000X-0.550000X0.550000X0.550000X-0.550000X0.550000X-0.550000X-0.550000X0*%
G04 APERTURE END LIST*
D10*
%TO.C,SW6*%
X148500000Y-121000000D03*
D11*
X151040000Y-121000000D03*
%TD*%
D10*
%TO.C,SW16*%
X393000000Y-121000000D03*
D11*
X395540000Y-121000000D03*
%TD*%
D12*
%TO.C,D8*%
X197658450Y-111724302D03*
D13*
X196388450Y-111724302D03*
X198928450Y-111724302D03*
X200198450Y-111724302D03*
%TD*%
D14*
%TO.C,R6*%
X148000000Y-125500000D03*
X148000000Y-133120000D03*
%TD*%
D12*
%TO.C,D2*%
X50633232Y-111671039D03*
D13*
X49363232Y-111671039D03*
X51903232Y-111671039D03*
X53173232Y-111671039D03*
%TD*%
D10*
%TO.C,SW9*%
X221725000Y-121000000D03*
D11*
X224265000Y-121000000D03*
%TD*%
D14*
%TO.C,R17*%
X253880000Y-129000000D03*
X261500000Y-129000000D03*
%TD*%
D10*
%TO.C,SW11*%
X270000000Y-121000000D03*
D11*
X272540000Y-121000000D03*
%TD*%
D12*
%TO.C,D6*%
X148691100Y-111750934D03*
D13*
X147421100Y-111750934D03*
X149961100Y-111750934D03*
X151231100Y-111750934D03*
%TD*%
D14*
%TO.C,R1*%
X25500000Y-125500000D03*
X25500000Y-133120000D03*
%TD*%
D15*
%TO.C,C1*%
X243500000Y-143500000D03*
D14*
X243500000Y-146000000D03*
%TD*%
%TO.C,R4*%
X98500000Y-125500000D03*
X98500000Y-133120000D03*
%TD*%
%TO.C,R10*%
X245500000Y-125500000D03*
X245500000Y-133120000D03*
%TD*%
D10*
%TO.C,SW15*%
X368500000Y-121000000D03*
D11*
X371040000Y-121000000D03*
%TD*%
D14*
%TO.C,R5*%
X123000000Y-125500000D03*
X123000000Y-133120000D03*
%TD*%
%TO.C,C6*%
X103000000Y-135000000D03*
X103000000Y-130000000D03*
%TD*%
D10*
%TO.C,SW10*%
X245960000Y-121000000D03*
D11*
X248500000Y-121000000D03*
%TD*%
D10*
%TO.C,SW2*%
X50000000Y-121000000D03*
D11*
X52540000Y-121000000D03*
%TD*%
D14*
%TO.C,R15*%
X368500000Y-125500000D03*
X368500000Y-133120000D03*
%TD*%
%TO.C,R2*%
X49880000Y-125500000D03*
X49880000Y-133120000D03*
%TD*%
D12*
%TO.C,D1*%
X26181183Y-111697670D03*
D13*
X24911183Y-111697670D03*
X27451183Y-111697670D03*
X28721183Y-111697670D03*
%TD*%
D12*
%TO.C,D15*%
X369223933Y-111671039D03*
D13*
X367953933Y-111671039D03*
X370493933Y-111671039D03*
X371763933Y-111671039D03*
%TD*%
D10*
%TO.C,SW5*%
X123500000Y-121000000D03*
D11*
X126040000Y-121000000D03*
%TD*%
D16*
%TO.C,U1*%
X251030000Y-153120000D03*
X253570000Y-153120000D03*
X256110000Y-153120000D03*
X258650000Y-153120000D03*
X261190000Y-153120000D03*
X263730000Y-153120000D03*
X266270000Y-153120000D03*
X268810000Y-153120000D03*
X271350000Y-153120000D03*
X273890000Y-153120000D03*
X276430000Y-153120000D03*
X278970000Y-153120000D03*
X278970000Y-137880000D03*
X276430000Y-137880000D03*
X273890000Y-137880000D03*
X271350000Y-137880000D03*
X268810000Y-137880000D03*
X266270000Y-137880000D03*
X263730000Y-137880000D03*
X261190000Y-137880000D03*
X258650000Y-137880000D03*
X256110000Y-137880000D03*
X253570000Y-137880000D03*
X251030000Y-137880000D03*
%TD*%
D10*
%TO.C,SW12*%
X295225000Y-121000000D03*
D11*
X297765000Y-121000000D03*
%TD*%
D10*
%TO.C,SW13*%
X319500000Y-121000000D03*
D11*
X322040000Y-121000000D03*
%TD*%
D10*
%TO.C,SW8*%
X196500000Y-121000000D03*
D11*
X199040000Y-121000000D03*
%TD*%
D12*
%TO.C,D11*%
X271166064Y-111697670D03*
D13*
X269896064Y-111697670D03*
X272436064Y-111697670D03*
X273706064Y-111697670D03*
%TD*%
D10*
%TO.C,J15*%
X197300000Y-153540000D03*
D11*
X197300000Y-151000000D03*
X199840000Y-153540000D03*
X199840000Y-151000000D03*
X202380000Y-153540000D03*
X202380000Y-151000000D03*
X204920000Y-153540000D03*
X204920000Y-151000000D03*
X207460000Y-153540000D03*
X207460000Y-151000000D03*
X210000000Y-153540000D03*
X210000000Y-151000000D03*
X212540000Y-153540000D03*
X212540000Y-151000000D03*
X215080000Y-153540000D03*
X215080000Y-151000000D03*
X217620000Y-153540000D03*
X217620000Y-151000000D03*
X220160000Y-153540000D03*
X220160000Y-151000000D03*
%TD*%
D10*
%TO.C,SW1*%
X25500000Y-121000000D03*
D11*
X28040000Y-121000000D03*
%TD*%
D14*
%TO.C,R7*%
X172000000Y-125500000D03*
X172000000Y-133120000D03*
%TD*%
%TO.C,R13*%
X319000000Y-125500000D03*
X319000000Y-133120000D03*
%TD*%
D10*
%TO.C,SW4*%
X98725000Y-121000000D03*
D11*
X101265000Y-121000000D03*
%TD*%
D14*
%TO.C,R11*%
X269500000Y-125500000D03*
X269500000Y-133120000D03*
%TD*%
D10*
%TO.C,SW3*%
X74500000Y-121000000D03*
D11*
X77040000Y-121000000D03*
%TD*%
D12*
%TO.C,D10*%
X246748969Y-111804197D03*
D13*
X245478969Y-111804197D03*
X248018969Y-111804197D03*
X249288969Y-111804197D03*
%TD*%
D10*
%TO.C,SW7*%
X172000000Y-121000000D03*
D11*
X174540000Y-121000000D03*
%TD*%
D14*
%TO.C,C2*%
X234500000Y-142380000D03*
X234500000Y-147380000D03*
%TD*%
%TO.C,R16*%
X392500000Y-125500000D03*
X392500000Y-133120000D03*
%TD*%
%TO.C,R3*%
X74000000Y-125500000D03*
X74000000Y-133120000D03*
%TD*%
D17*
%TO.C,U4*%
X297800000Y-144500000D03*
D14*
X300340000Y-144500000D03*
X302880000Y-144500000D03*
X305420000Y-144500000D03*
X307960000Y-144500000D03*
X310500000Y-144500000D03*
X313040000Y-144500000D03*
X315580000Y-144500000D03*
X315580000Y-136880000D03*
X313040000Y-136880000D03*
X310500000Y-136880000D03*
X307960000Y-136880000D03*
X305420000Y-136880000D03*
X302880000Y-136880000D03*
X300340000Y-136880000D03*
X297800000Y-136880000D03*
%TD*%
%TO.C,R14*%
X344500000Y-125500000D03*
X344500000Y-133120000D03*
%TD*%
%TO.C,R12*%
X295000000Y-125500000D03*
X295000000Y-133120000D03*
%TD*%
D12*
%TO.C,D7*%
X173218883Y-111804197D03*
D13*
X171948883Y-111804197D03*
X174488883Y-111804197D03*
X175758883Y-111804197D03*
%TD*%
D12*
%TO.C,D3*%
X75126062Y-111724302D03*
D13*
X73856062Y-111724302D03*
X76396062Y-111724302D03*
X77666062Y-111724302D03*
%TD*%
D12*
%TO.C,D13*%
X320248262Y-111804197D03*
D13*
X318978262Y-111804197D03*
X321518262Y-111804197D03*
X322788262Y-111804197D03*
%TD*%
D14*
%TO.C,R8*%
X196500000Y-125500000D03*
X196500000Y-133120000D03*
%TD*%
D12*
%TO.C,D4*%
X99662166Y-111777565D03*
D13*
X98392166Y-111777565D03*
X100932166Y-111777565D03*
X102202166Y-111777565D03*
%TD*%
D12*
%TO.C,D5*%
X124159157Y-111724302D03*
D13*
X122889157Y-111724302D03*
X125429157Y-111724302D03*
X126699157Y-111724302D03*
%TD*%
D14*
%TO.C,C4*%
X300000000Y-131000000D03*
X305000000Y-131000000D03*
%TD*%
D10*
%TO.C,SW14*%
X344500000Y-121000000D03*
D11*
X347040000Y-121000000D03*
%TD*%
D12*
%TO.C,D9*%
X222221186Y-111777565D03*
D13*
X220951186Y-111777565D03*
X223491186Y-111777565D03*
X224761186Y-111777565D03*
%TD*%
D12*
%TO.C,D12*%
X295693847Y-111777565D03*
D13*
X294423847Y-111777565D03*
X296963847Y-111777565D03*
X298233847Y-111777565D03*
%TD*%
D14*
%TO.C,R9*%
X221500000Y-125500000D03*
X221500000Y-133120000D03*
%TD*%
D12*
%TO.C,D16*%
X393737565Y-111750934D03*
D13*
X392467565Y-111750934D03*
X395007565Y-111750934D03*
X396277565Y-111750934D03*
%TD*%
D17*
%TO.C,U3*%
X101720000Y-145500000D03*
D14*
X104260000Y-145500000D03*
X106800000Y-145500000D03*
X109340000Y-145500000D03*
X111880000Y-145500000D03*
X114420000Y-145500000D03*
X116960000Y-145500000D03*
X119500000Y-145500000D03*
X119500000Y-137880000D03*
X116960000Y-137880000D03*
X114420000Y-137880000D03*
X111880000Y-137880000D03*
X109340000Y-137880000D03*
X106800000Y-137880000D03*
X104260000Y-137880000D03*
X101720000Y-137880000D03*
%TD*%
D12*
%TO.C,D14*%
X344726942Y-111750934D03*
D13*
X343456942Y-111750934D03*
X345996942Y-111750934D03*
X347266942Y-111750934D03*
%TD*%
M02*
