%TF.GenerationSoftware,KiCad,Pcbnew,10.0.1*%
%TF.CreationDate,2026-09-22T20:13:17+02:00*%
%TF.ProjectId,kosmo-16-channel-sequencer-row-board,6b6f736d-6f2d-4313-962d-6368616e6e65,rev?*%
%TF.SameCoordinates,Original*%
%TF.FileFunction,Copper,L1,Top*%
%TF.FilePolarity,Positive*%
%FSLAX46Y46*%
G04 Gerber Fmt 4.6, Leading zero omitted, Abs format (unit mm)*
G04 Created by KiCad (PCBNEW 10.0.1) date 2026-09-22 20:13:17*
%MOMM*%
%LPD*%
G01*
G04 APERTURE LIST*
G04 Aperture macros list*
%AMRoundRect*
0 Rectangle with rounded corners*
0 $1 Rounding radius*
0 $2 $3 $4 $5 $6 $7 $8 $9 X,Y pos of 4 corners*
0 Add a 4 corners polygon primitive as box body*
4,1,4,$2,$3,$4,$5,$6,$7,$8,$9,$2,$3,0*
0 Add four circle primitives for the rounded corners*
1,1,$1+$1,$2,$3*
1,1,$1+$1,$4,$5*
1,1,$1+$1,$6,$7*
1,1,$1+$1,$8,$9*
0 Add four rect primitives between the rounded corners*
20,1,$1+$1,$2,$3,$4,$5,0*
20,1,$1+$1,$4,$5,$6,$7,0*
20,1,$1+$1,$6,$7,$8,$9,0*
20,1,$1+$1,$8,$9,$2,$3,0*%
G04 Aperture macros list end*
%TA.AperFunction,ComponentPad*%
%ADD10R,1.700000X1.700000*%
%TD*%
%TA.AperFunction,ComponentPad*%
%ADD11C,1.700000*%
%TD*%
%TA.AperFunction,ComponentPad*%
%ADD12R,1.070000X1.800000*%
%TD*%
%TA.AperFunction,ComponentPad*%
%ADD13O,1.070000X1.800000*%
%TD*%
%TA.AperFunction,ComponentPad*%
%ADD14C,1.600000*%
%TD*%
%TA.AperFunction,ComponentPad*%
%ADD15RoundRect,0.250000X-0.550000X0.550000X-0.550000X-0.550000X0.550000X-0.550000X0.550000X0.550000X0*%
%TD*%
%TA.AperFunction,SMDPad,CuDef*%
%ADD16RoundRect,0.249999X0.640001X-0.750001X0.640001X0.750001X-0.640001X0.750001X-0.640001X-0.750001X0*%
%TD*%
%TA.AperFunction,ComponentPad*%
%ADD17RoundRect,0.250000X0.550000X-0.550000X0.550000X0.550000X-0.550000X0.550000X-0.550000X-0.550000X0*%
%TD*%
%TA.AperFunction,ViaPad*%
%ADD18C,0.600000*%
%TD*%
%TA.AperFunction,Conductor*%
%ADD19C,0.200000*%
%TD*%
G04 APERTURE END LIST*
D10*
%TO.P,SW6,1,1_1*%
%TO.N,/row-board/BTN_5*%
X148500000Y-121000000D03*
D11*
%TO.P,SW6,2,2_2*%
%TO.N,+3V3*%
X151040000Y-121000000D03*
%TD*%
D10*
%TO.P,SW16,1,1_1*%
%TO.N,/row-board/BTN_15*%
X393000000Y-121000000D03*
D11*
%TO.P,SW16,2,2_2*%
%TO.N,+3V3*%
X395540000Y-121000000D03*
%TD*%
D12*
%TO.P,D8,1,A_1*%
%TO.N,/row-board/SEG_D*%
X197658450Y-111724302D03*
D13*
%TO.P,D8,2,RK_2*%
%TO.N,/row-board/DIG_5*%
X196388450Y-111724302D03*
%TO.P,D8,3,GK_3*%
%TO.N,/row-board/DIG_4*%
X198928450Y-111724302D03*
%TO.P,D8,4,BK_4*%
%TO.N,/row-board/DIG_3*%
X200198450Y-111724302D03*
%TD*%
D14*
%TO.P,R6,1*%
%TO.N,/row-board/BTN_5*%
X148000000Y-125500000D03*
%TO.P,R6,2*%
%TO.N,GND*%
X148000000Y-133120000D03*
%TD*%
D12*
%TO.P,D2,1,A_1*%
%TO.N,/row-board/SEG_A*%
X50633232Y-111671039D03*
D13*
%TO.P,D2,2,RK_2*%
%TO.N,/row-board/DIG_5*%
X49363232Y-111671039D03*
%TO.P,D2,3,GK_3*%
%TO.N,/row-board/DIG_4*%
X51903232Y-111671039D03*
%TO.P,D2,4,BK_4*%
%TO.N,/row-board/DIG_3*%
X53173232Y-111671039D03*
%TD*%
D10*
%TO.P,SW9,1,1_1*%
%TO.N,/row-board/BTN_8*%
X221725000Y-121000000D03*
D11*
%TO.P,SW9,2,2_2*%
%TO.N,+3V3*%
X224265000Y-121000000D03*
%TD*%
D14*
%TO.P,R17,1*%
%TO.N,+5V*%
X253880000Y-129000000D03*
%TO.P,R17,2*%
%TO.N,Net-(U1-ISET)*%
X261500000Y-129000000D03*
%TD*%
D10*
%TO.P,SW11,1,1_1*%
%TO.N,/row-board/BTN_10*%
X270000000Y-121000000D03*
D11*
%TO.P,SW11,2,2_2*%
%TO.N,+3V3*%
X272540000Y-121000000D03*
%TD*%
D12*
%TO.P,D6,1,A_1*%
%TO.N,/row-board/SEG_C*%
X148691100Y-111750934D03*
D13*
%TO.P,D6,2,RK_2*%
%TO.N,/row-board/DIG_5*%
X147421100Y-111750934D03*
%TO.P,D6,3,GK_3*%
%TO.N,/row-board/DIG_4*%
X149961100Y-111750934D03*
%TO.P,D6,4,BK_4*%
%TO.N,/row-board/DIG_3*%
X151231100Y-111750934D03*
%TD*%
D14*
%TO.P,R1,1*%
%TO.N,/row-board/BTN_0*%
X25500000Y-125500000D03*
%TO.P,R1,2*%
%TO.N,GND*%
X25500000Y-133120000D03*
%TD*%
D15*
%TO.P,C1,1*%
%TO.N,+5V*%
X243500000Y-143500000D03*
D14*
%TO.P,C1,2*%
%TO.N,GND*%
X243500000Y-146000000D03*
%TD*%
%TO.P,R4,1*%
%TO.N,/row-board/BTN_3*%
X98500000Y-125500000D03*
%TO.P,R4,2*%
%TO.N,GND*%
X98500000Y-133120000D03*
%TD*%
%TO.P,R10,1*%
%TO.N,/row-board/BTN_9*%
X245500000Y-125500000D03*
%TO.P,R10,2*%
%TO.N,GND*%
X245500000Y-133120000D03*
%TD*%
D10*
%TO.P,SW15,1,1_1*%
%TO.N,/row-board/BTN_14*%
X368500000Y-121000000D03*
D11*
%TO.P,SW15,2,2_2*%
%TO.N,+3V3*%
X371040000Y-121000000D03*
%TD*%
D14*
%TO.P,R5,1*%
%TO.N,/row-board/BTN_4*%
X123000000Y-125500000D03*
%TO.P,R5,2*%
%TO.N,GND*%
X123000000Y-133120000D03*
%TD*%
%TO.P,C6,1*%
%TO.N,+3V3*%
X103000000Y-135000000D03*
%TO.P,C6,2*%
%TO.N,GND*%
X103000000Y-130000000D03*
%TD*%
D10*
%TO.P,SW10,1,1_1*%
%TO.N,/row-board/BTN_9*%
X245960000Y-121000000D03*
D11*
%TO.P,SW10,2,2_2*%
%TO.N,+3V3*%
X248500000Y-121000000D03*
%TD*%
D10*
%TO.P,SW2,1,1_1*%
%TO.N,/row-board/BTN_1*%
X50000000Y-121000000D03*
D11*
%TO.P,SW2,2,2_2*%
%TO.N,+3V3*%
X52540000Y-121000000D03*
%TD*%
D14*
%TO.P,R15,1*%
%TO.N,/row-board/BTN_14*%
X368500000Y-125500000D03*
%TO.P,R15,2*%
%TO.N,GND*%
X368500000Y-133120000D03*
%TD*%
%TO.P,R2,1*%
%TO.N,/row-board/BTN_1*%
X49880000Y-125500000D03*
%TO.P,R2,2*%
%TO.N,GND*%
X49880000Y-133120000D03*
%TD*%
D12*
%TO.P,D1,1,A_1*%
%TO.N,/row-board/SEG_A*%
X26181183Y-111697670D03*
D13*
%TO.P,D1,2,RK_2*%
%TO.N,/row-board/DIG_2*%
X24911183Y-111697670D03*
%TO.P,D1,3,GK_3*%
%TO.N,/row-board/DIG_1*%
X27451183Y-111697670D03*
%TO.P,D1,4,BK_4*%
%TO.N,/row-board/DIG_0*%
X28721183Y-111697670D03*
%TD*%
D12*
%TO.P,D15,1,A_1*%
%TO.N,/row-board/SEG_DP*%
X369223933Y-111671039D03*
D13*
%TO.P,D15,2,RK_2*%
%TO.N,/row-board/DIG_2*%
X367953933Y-111671039D03*
%TO.P,D15,3,GK_3*%
%TO.N,/row-board/DIG_1*%
X370493933Y-111671039D03*
%TO.P,D15,4,BK_4*%
%TO.N,/row-board/DIG_0*%
X371763933Y-111671039D03*
%TD*%
D10*
%TO.P,SW5,1,1_1*%
%TO.N,/row-board/BTN_4*%
X123500000Y-121000000D03*
D11*
%TO.P,SW5,2,2_2*%
%TO.N,+3V3*%
X126040000Y-121000000D03*
%TD*%
D16*
%TO.P,U1,1,DIN_1*%
%TO.N,/row-board/MAX_DIN*%
X251030000Y-153120000D03*
%TO.P,U1,2,DIG_0_2*%
%TO.N,/row-board/DIG_0*%
X253570000Y-153120000D03*
%TO.P,U1,3,DIG_4_3*%
%TO.N,/row-board/DIG_4*%
X256110000Y-153120000D03*
%TO.P,U1,4,GND_4*%
%TO.N,GND*%
X258650000Y-153120000D03*
%TO.P,U1,5,DIG_6_5*%
%TO.N,unconnected-(U1-DIG_6-Pad5)*%
X261190000Y-153120000D03*
%TO.P,U1,6,DIG_2_6*%
%TO.N,/row-board/DIG_2*%
X263730000Y-153120000D03*
%TO.P,U1,7,DIG_3_7*%
%TO.N,/row-board/DIG_3*%
X266270000Y-153120000D03*
%TO.P,U1,8,DIG_7_8*%
%TO.N,unconnected-(U1-DIG_7-Pad8)*%
X268810000Y-153120000D03*
%TO.P,U1,9,GND_9*%
%TO.N,GND*%
X271350000Y-153120000D03*
%TO.P,U1,10,DIG_5_10*%
%TO.N,/row-board/DIG_5*%
X273890000Y-153120000D03*
%TO.P,U1,11,DIG_1_11*%
%TO.N,/row-board/DIG_1*%
X276430000Y-153120000D03*
%TO.P,U1,12,LOAD_12*%
%TO.N,/row-board/MAX_LOAD*%
X278970000Y-153120000D03*
%TO.P,U1,13,CLK_13*%
%TO.N,/row-board/MAX_CLK*%
X278970000Y-137880000D03*
%TO.P,U1,14,SEG_A_14*%
%TO.N,/row-board/SEG_A*%
X276430000Y-137880000D03*
%TO.P,U1,15,SEG_F_15*%
%TO.N,/row-board/SEG_F*%
X273890000Y-137880000D03*
%TO.P,U1,16,SEG_B_16*%
%TO.N,/row-board/SEG_B*%
X271350000Y-137880000D03*
%TO.P,U1,17,SEG_G_17*%
%TO.N,/row-board/SEG_G*%
X268810000Y-137880000D03*
%TO.P,U1,18,ISET_18*%
%TO.N,Net-(U1-ISET)*%
X266270000Y-137880000D03*
%TO.P,U1,19,V+_19*%
%TO.N,+5V*%
X263730000Y-137880000D03*
%TO.P,U1,20,SEG_C_20*%
%TO.N,/row-board/SEG_C*%
X261190000Y-137880000D03*
%TO.P,U1,21,SEG_E_21*%
%TO.N,/row-board/SEG_E*%
X258650000Y-137880000D03*
%TO.P,U1,22,SEG_DP_22*%
%TO.N,/row-board/SEG_DP*%
X256110000Y-137880000D03*
%TO.P,U1,23,SEG_D_23*%
%TO.N,/row-board/SEG_D*%
X253570000Y-137880000D03*
%TO.P,U1,24,DOUT_24*%
%TO.N,/row-board/MAX_DOUT*%
X251030000Y-137880000D03*
%TD*%
D10*
%TO.P,SW12,1,1_1*%
%TO.N,/row-board/BTN_11*%
X295225000Y-121000000D03*
D11*
%TO.P,SW12,2,2_2*%
%TO.N,+3V3*%
X297765000Y-121000000D03*
%TD*%
D10*
%TO.P,SW13,1,1_1*%
%TO.N,/row-board/BTN_12*%
X319500000Y-121000000D03*
D11*
%TO.P,SW13,2,2_2*%
%TO.N,+3V3*%
X322040000Y-121000000D03*
%TD*%
D10*
%TO.P,SW8,1,1_1*%
%TO.N,/row-board/BTN_7*%
X196500000Y-121000000D03*
D11*
%TO.P,SW8,2,2_2*%
%TO.N,+3V3*%
X199040000Y-121000000D03*
%TD*%
D12*
%TO.P,D11,1,A_1*%
%TO.N,/row-board/SEG_F*%
X271166064Y-111697670D03*
D13*
%TO.P,D11,2,RK_2*%
%TO.N,/row-board/DIG_2*%
X269896064Y-111697670D03*
%TO.P,D11,3,GK_3*%
%TO.N,/row-board/DIG_1*%
X272436064Y-111697670D03*
%TO.P,D11,4,BK_4*%
%TO.N,/row-board/DIG_0*%
X273706064Y-111697670D03*
%TD*%
D10*
%TO.P,J15,1,Pin_1_1*%
%TO.N,GND*%
X197300000Y-153540000D03*
D11*
%TO.P,J15,2,Pin_2_2*%
%TO.N,+5V*%
X197300000Y-151000000D03*
%TO.P,J15,3,Pin_3_3*%
%TO.N,GND*%
X199840000Y-153540000D03*
%TO.P,J15,4,Pin_4_4*%
%TO.N,+5V*%
X199840000Y-151000000D03*
%TO.P,J15,5,Pin_5_5*%
%TO.N,/row-board/MAX_DIN*%
X202380000Y-153540000D03*
%TO.P,J15,6,Pin_6_6*%
%TO.N,/row-board/MAX_DOUT*%
X202380000Y-151000000D03*
%TO.P,J15,7,Pin_7_7*%
%TO.N,/row-board/MAX_CLK*%
X204920000Y-153540000D03*
%TO.P,J15,8,Pin_8_8*%
%TO.N,/row-board/MAX_LOAD*%
X204920000Y-151000000D03*
%TO.P,J15,9,Pin_9_9*%
%TO.N,GND*%
X207460000Y-153540000D03*
%TO.P,J15,10,Pin_10_10*%
%TO.N,+5V*%
X207460000Y-151000000D03*
%TO.P,J15,11,Pin_11_11*%
%TO.N,GND*%
X210000000Y-153540000D03*
%TO.P,J15,12,Pin_12_12*%
%TO.N,+3V3*%
X210000000Y-151000000D03*
%TO.P,J15,13,Pin_13_13*%
%TO.N,/row-board/165_SER_IN*%
X212540000Y-153540000D03*
%TO.P,J15,14,Pin_14_14*%
%TO.N,/row-board/165_QH*%
X212540000Y-151000000D03*
%TO.P,J15,15,Pin_15_15*%
%TO.N,/row-board/165_CLK*%
X215080000Y-153540000D03*
%TO.P,J15,16,Pin_16_16*%
%TO.N,/row-board/165_SH{slash}LD*%
X215080000Y-151000000D03*
%TO.P,J15,17,Pin_17_17*%
%TO.N,GND*%
X217620000Y-153540000D03*
%TO.P,J15,18,Pin_18_18*%
%TO.N,+5V*%
X217620000Y-151000000D03*
%TO.P,J15,19,Pin_19_19*%
%TO.N,GND*%
X220160000Y-153540000D03*
%TO.P,J15,20,Pin_20_20*%
%TO.N,+5V*%
X220160000Y-151000000D03*
%TD*%
D10*
%TO.P,SW1,1,1_1*%
%TO.N,/row-board/BTN_0*%
X25500000Y-121000000D03*
D11*
%TO.P,SW1,2,2_2*%
%TO.N,+3V3*%
X28040000Y-121000000D03*
%TD*%
D14*
%TO.P,R7,1*%
%TO.N,/row-board/BTN_6*%
X172000000Y-125500000D03*
%TO.P,R7,2*%
%TO.N,GND*%
X172000000Y-133120000D03*
%TD*%
%TO.P,R13,1*%
%TO.N,/row-board/BTN_12*%
X319000000Y-125500000D03*
%TO.P,R13,2*%
%TO.N,GND*%
X319000000Y-133120000D03*
%TD*%
D10*
%TO.P,SW4,1,1_1*%
%TO.N,/row-board/BTN_3*%
X98725000Y-121000000D03*
D11*
%TO.P,SW4,2,2_2*%
%TO.N,+3V3*%
X101265000Y-121000000D03*
%TD*%
D14*
%TO.P,R11,1*%
%TO.N,/row-board/BTN_10*%
X269500000Y-125500000D03*
%TO.P,R11,2*%
%TO.N,GND*%
X269500000Y-133120000D03*
%TD*%
D10*
%TO.P,SW3,1,1_1*%
%TO.N,/row-board/BTN_2*%
X74500000Y-121000000D03*
D11*
%TO.P,SW3,2,2_2*%
%TO.N,+3V3*%
X77040000Y-121000000D03*
%TD*%
D12*
%TO.P,D10,1,A_1*%
%TO.N,/row-board/SEG_E*%
X246748969Y-111804197D03*
D13*
%TO.P,D10,2,RK_2*%
%TO.N,/row-board/DIG_5*%
X245478969Y-111804197D03*
%TO.P,D10,3,GK_3*%
%TO.N,/row-board/DIG_4*%
X248018969Y-111804197D03*
%TO.P,D10,4,BK_4*%
%TO.N,/row-board/DIG_3*%
X249288969Y-111804197D03*
%TD*%
D10*
%TO.P,SW7,1,1_1*%
%TO.N,/row-board/BTN_6*%
X172000000Y-121000000D03*
D11*
%TO.P,SW7,2,2_2*%
%TO.N,+3V3*%
X174540000Y-121000000D03*
%TD*%
D14*
%TO.P,C2,1*%
%TO.N,+5V*%
X234500000Y-142380000D03*
%TO.P,C2,2*%
%TO.N,GND*%
X234500000Y-147380000D03*
%TD*%
%TO.P,R16,1*%
%TO.N,/row-board/BTN_15*%
X392500000Y-125500000D03*
%TO.P,R16,2*%
%TO.N,GND*%
X392500000Y-133120000D03*
%TD*%
%TO.P,R3,1*%
%TO.N,/row-board/BTN_2*%
X74000000Y-125500000D03*
%TO.P,R3,2*%
%TO.N,GND*%
X74000000Y-133120000D03*
%TD*%
D17*
%TO.P,U4,1,~{PL}_1*%
%TO.N,/row-board/165_SH{slash}LD*%
X297800000Y-144500000D03*
D14*
%TO.P,U4,2,CP_2*%
%TO.N,/row-board/165_CLK*%
X300340000Y-144500000D03*
%TO.P,U4,3,D4_3*%
%TO.N,/row-board/BTN_12*%
X302880000Y-144500000D03*
%TO.P,U4,4,D5_4*%
%TO.N,/row-board/BTN_13*%
X305420000Y-144500000D03*
%TO.P,U4,5,D6_5*%
%TO.N,/row-board/BTN_14*%
X307960000Y-144500000D03*
%TO.P,U4,6,D7_6*%
%TO.N,/row-board/BTN_15*%
X310500000Y-144500000D03*
%TO.P,U4,7,~{Q7}_7*%
%TO.N,unconnected-(U4-~{Q7}-Pad7)*%
X313040000Y-144500000D03*
%TO.P,U4,8,GND_8*%
%TO.N,GND*%
X315580000Y-144500000D03*
%TO.P,U4,9,Q7_9*%
%TO.N,Net-(U3-DS)*%
X315580000Y-136880000D03*
%TO.P,U4,10,DS_10*%
%TO.N,/row-board/165_SER_IN*%
X313040000Y-136880000D03*
%TO.P,U4,11,D0_11*%
%TO.N,/row-board/BTN_8*%
X310500000Y-136880000D03*
%TO.P,U4,12,D1_12*%
%TO.N,/row-board/BTN_9*%
X307960000Y-136880000D03*
%TO.P,U4,13,D2_13*%
%TO.N,/row-board/BTN_10*%
X305420000Y-136880000D03*
%TO.P,U4,14,D3_14*%
%TO.N,/row-board/BTN_11*%
X302880000Y-136880000D03*
%TO.P,U4,15,~{CE}_15*%
%TO.N,GND*%
X300340000Y-136880000D03*
%TO.P,U4,16,VCC_16*%
%TO.N,+3V3*%
X297800000Y-136880000D03*
%TD*%
%TO.P,R14,1*%
%TO.N,/row-board/BTN_13*%
X344500000Y-125500000D03*
%TO.P,R14,2*%
%TO.N,GND*%
X344500000Y-133120000D03*
%TD*%
%TO.P,R12,1*%
%TO.N,/row-board/BTN_11*%
X295000000Y-125500000D03*
%TO.P,R12,2*%
%TO.N,GND*%
X295000000Y-133120000D03*
%TD*%
D12*
%TO.P,D7,1,A_1*%
%TO.N,/row-board/SEG_D*%
X173218883Y-111804197D03*
D13*
%TO.P,D7,2,RK_2*%
%TO.N,/row-board/DIG_2*%
X171948883Y-111804197D03*
%TO.P,D7,3,GK_3*%
%TO.N,/row-board/DIG_1*%
X174488883Y-111804197D03*
%TO.P,D7,4,BK_4*%
%TO.N,/row-board/DIG_0*%
X175758883Y-111804197D03*
%TD*%
D12*
%TO.P,D3,1,A_1*%
%TO.N,/row-board/SEG_B*%
X75126062Y-111724302D03*
D13*
%TO.P,D3,2,RK_2*%
%TO.N,/row-board/DIG_2*%
X73856062Y-111724302D03*
%TO.P,D3,3,GK_3*%
%TO.N,/row-board/DIG_1*%
X76396062Y-111724302D03*
%TO.P,D3,4,BK_4*%
%TO.N,/row-board/DIG_0*%
X77666062Y-111724302D03*
%TD*%
D12*
%TO.P,D13,1,A_1*%
%TO.N,/row-board/SEG_G*%
X320248262Y-111804197D03*
D13*
%TO.P,D13,2,RK_2*%
%TO.N,/row-board/DIG_2*%
X318978262Y-111804197D03*
%TO.P,D13,3,GK_3*%
%TO.N,/row-board/DIG_1*%
X321518262Y-111804197D03*
%TO.P,D13,4,BK_4*%
%TO.N,/row-board/DIG_0*%
X322788262Y-111804197D03*
%TD*%
D14*
%TO.P,R8,1*%
%TO.N,/row-board/BTN_7*%
X196500000Y-125500000D03*
%TO.P,R8,2*%
%TO.N,GND*%
X196500000Y-133120000D03*
%TD*%
D12*
%TO.P,D4,1,A_1*%
%TO.N,/row-board/SEG_B*%
X99662166Y-111777565D03*
D13*
%TO.P,D4,2,RK_2*%
%TO.N,/row-board/DIG_5*%
X98392166Y-111777565D03*
%TO.P,D4,3,GK_3*%
%TO.N,/row-board/DIG_4*%
X100932166Y-111777565D03*
%TO.P,D4,4,BK_4*%
%TO.N,/row-board/DIG_3*%
X102202166Y-111777565D03*
%TD*%
D12*
%TO.P,D5,1,A_1*%
%TO.N,/row-board/SEG_C*%
X124159157Y-111724302D03*
D13*
%TO.P,D5,2,RK_2*%
%TO.N,/row-board/DIG_2*%
X122889157Y-111724302D03*
%TO.P,D5,3,GK_3*%
%TO.N,/row-board/DIG_1*%
X125429157Y-111724302D03*
%TO.P,D5,4,BK_4*%
%TO.N,/row-board/DIG_0*%
X126699157Y-111724302D03*
%TD*%
D14*
%TO.P,C4,1*%
%TO.N,+3V3*%
X300000000Y-131000000D03*
%TO.P,C4,2*%
%TO.N,GND*%
X305000000Y-131000000D03*
%TD*%
D10*
%TO.P,SW14,1,1_1*%
%TO.N,/row-board/BTN_13*%
X344500000Y-121000000D03*
D11*
%TO.P,SW14,2,2_2*%
%TO.N,+3V3*%
X347040000Y-121000000D03*
%TD*%
D12*
%TO.P,D9,1,A_1*%
%TO.N,/row-board/SEG_E*%
X222221186Y-111777565D03*
D13*
%TO.P,D9,2,RK_2*%
%TO.N,/row-board/DIG_2*%
X220951186Y-111777565D03*
%TO.P,D9,3,GK_3*%
%TO.N,/row-board/DIG_1*%
X223491186Y-111777565D03*
%TO.P,D9,4,BK_4*%
%TO.N,/row-board/DIG_0*%
X224761186Y-111777565D03*
%TD*%
D12*
%TO.P,D12,1,A_1*%
%TO.N,/row-board/SEG_F*%
X295693847Y-111777565D03*
D13*
%TO.P,D12,2,RK_2*%
%TO.N,/row-board/DIG_5*%
X294423847Y-111777565D03*
%TO.P,D12,3,GK_3*%
%TO.N,/row-board/DIG_4*%
X296963847Y-111777565D03*
%TO.P,D12,4,BK_4*%
%TO.N,/row-board/DIG_3*%
X298233847Y-111777565D03*
%TD*%
D14*
%TO.P,R9,1*%
%TO.N,/row-board/BTN_8*%
X221500000Y-125500000D03*
%TO.P,R9,2*%
%TO.N,GND*%
X221500000Y-133120000D03*
%TD*%
D12*
%TO.P,D16,1,A_1*%
%TO.N,/row-board/SEG_DP*%
X393737565Y-111750934D03*
D13*
%TO.P,D16,2,RK_2*%
%TO.N,/row-board/DIG_5*%
X392467565Y-111750934D03*
%TO.P,D16,3,GK_3*%
%TO.N,/row-board/DIG_4*%
X395007565Y-111750934D03*
%TO.P,D16,4,BK_4*%
%TO.N,/row-board/DIG_3*%
X396277565Y-111750934D03*
%TD*%
D17*
%TO.P,U3,1,~{PL}_1*%
%TO.N,/row-board/165_SH{slash}LD*%
X101720000Y-145500000D03*
D14*
%TO.P,U3,2,CP_2*%
%TO.N,/row-board/165_CLK*%
X104260000Y-145500000D03*
%TO.P,U3,3,D4_3*%
%TO.N,/row-board/BTN_4*%
X106800000Y-145500000D03*
%TO.P,U3,4,D5_4*%
%TO.N,/row-board/BTN_5*%
X109340000Y-145500000D03*
%TO.P,U3,5,D6_5*%
%TO.N,/row-board/BTN_6*%
X111880000Y-145500000D03*
%TO.P,U3,6,D7_6*%
%TO.N,/row-board/BTN_7*%
X114420000Y-145500000D03*
%TO.P,U3,7,~{Q7}_7*%
%TO.N,unconnected-(U3-~{Q7}-Pad7)*%
X116960000Y-145500000D03*
%TO.P,U3,8,GND_8*%
%TO.N,GND*%
X119500000Y-145500000D03*
%TO.P,U3,9,Q7_9*%
%TO.N,/row-board/165_QH*%
X119500000Y-137880000D03*
%TO.P,U3,10,DS_10*%
%TO.N,Net-(U3-DS)*%
X116960000Y-137880000D03*
%TO.P,U3,11,D0_11*%
%TO.N,/row-board/BTN_0*%
X114420000Y-137880000D03*
%TO.P,U3,12,D1_12*%
%TO.N,/row-board/BTN_1*%
X111880000Y-137880000D03*
%TO.P,U3,13,D2_13*%
%TO.N,/row-board/BTN_2*%
X109340000Y-137880000D03*
%TO.P,U3,14,D3_14*%
%TO.N,/row-board/BTN_3*%
X106800000Y-137880000D03*
%TO.P,U3,15,~{CE}_15*%
%TO.N,GND*%
X104260000Y-137880000D03*
%TO.P,U3,16,VCC_16*%
%TO.N,+3V3*%
X101720000Y-137880000D03*
%TD*%
D12*
%TO.P,D14,1,A_1*%
%TO.N,/row-board/SEG_G*%
X344726942Y-111750934D03*
D13*
%TO.P,D14,2,RK_2*%
%TO.N,/row-board/DIG_5*%
X343456942Y-111750934D03*
%TO.P,D14,3,GK_3*%
%TO.N,/row-board/DIG_4*%
X345996942Y-111750934D03*
%TO.P,D14,4,BK_4*%
%TO.N,/row-board/DIG_3*%
X347266942Y-111750934D03*
%TD*%
D18*
%TO.N,+5V*%
X213500000Y-148600000D03*
X215000000Y-144000000D03*
X200000000Y-144000000D03*
%TO.N,GND*%
X271500000Y-149000000D03*
X258500000Y-149000000D03*
X228060000Y-140940000D03*
%TO.N,/row-board/SEG_D*%
X251000000Y-130000000D03*
%TO.N,/row-board/DIG_5*%
X196500000Y-115000000D03*
X245500000Y-115000000D03*
X282400000Y-132000000D03*
X294500000Y-115000000D03*
X98500000Y-115000000D03*
X391500000Y-114600000D03*
X343500000Y-115000000D03*
X147500000Y-115000000D03*
%TO.N,/row-board/DIG_4*%
X101000000Y-114000000D03*
X251000000Y-128500000D03*
X253000000Y-114000000D03*
X394500000Y-114000000D03*
X297000000Y-114000000D03*
X150000000Y-114000000D03*
X346000000Y-114000000D03*
X248000000Y-114000000D03*
X199000000Y-114000000D03*
%TO.N,/row-board/DIG_3*%
X284000000Y-113350934D03*
X283000000Y-128500000D03*
%TO.N,/row-board/SEG_A*%
X276500000Y-132000000D03*
%TO.N,/row-board/SEG_C*%
X252000000Y-130900000D03*
%TO.N,/row-board/DIG_2*%
X279000000Y-128500000D03*
X74000000Y-108000000D03*
X319000000Y-108000000D03*
X123000000Y-108000000D03*
X172000000Y-108000000D03*
X270000000Y-108000000D03*
X367500000Y-108400000D03*
X221000000Y-108000000D03*
%TO.N,/row-board/DIG_1*%
X321500000Y-109000000D03*
X283000000Y-130500000D03*
X76500000Y-109000000D03*
X174500000Y-109000000D03*
X125500000Y-109000000D03*
X223500000Y-109000000D03*
X272500000Y-109000000D03*
X370000000Y-109000000D03*
%TO.N,/row-board/DIG_0*%
X250241051Y-128247017D03*
X252500000Y-110000000D03*
%TO.N,/row-board/SEG_DP*%
X256000000Y-141400000D03*
%TO.N,/row-board/MAX_DIN*%
X227014579Y-148487851D03*
%TO.N,/row-board/MAX_LOAD*%
X226400000Y-149000000D03*
%TO.N,/row-board/MAX_CLK*%
X228500000Y-139500000D03*
X251500000Y-142000000D03*
%TO.N,/row-board/SEG_F*%
X280000000Y-111000000D03*
X281500000Y-128000000D03*
%TO.N,/row-board/SEG_B*%
X265500000Y-131500000D03*
%TO.N,/row-board/SEG_G*%
X268500000Y-141400000D03*
%TO.N,/row-board/SEG_E*%
X253000000Y-131400000D03*
%TO.N,/row-board/MAX_DOUT*%
X227500000Y-136500000D03*
X250920735Y-136079265D03*
%TO.N,/row-board/165_SER_IN*%
X292000000Y-149500000D03*
%TO.N,/row-board/165_QH*%
X124000000Y-138000000D03*
X213500000Y-145500000D03*
%TO.N,/row-board/165_CLK*%
X185500000Y-147500000D03*
X299000000Y-150000000D03*
%TO.N,/row-board/165_SH{slash}LD*%
X297000000Y-149000000D03*
%TO.N,Net-(U3-DS)*%
X225000000Y-136500000D03*
X124500000Y-136500000D03*
X203000000Y-136500000D03*
%TD*%
%TO.N,+3V3*%
D19*
X273690000Y-119850000D02*
X272540000Y-121000000D01*
X103000000Y-137000000D02*
X103000000Y-135000000D01*
X345890000Y-119850000D02*
X323190000Y-119850000D01*
X348190000Y-119850000D02*
X347040000Y-121000000D01*
X174540000Y-121000000D02*
X173390000Y-119850000D01*
X206310000Y-154690000D02*
X206310000Y-153063654D01*
X298915000Y-119850000D02*
X297765000Y-121000000D01*
X77040000Y-121000000D02*
X75890000Y-119850000D01*
X102000000Y-138000000D02*
X103000000Y-137000000D01*
X29190000Y-119850000D02*
X28040000Y-121000000D01*
X206983654Y-152390000D02*
X208610000Y-152390000D01*
X173390000Y-119850000D02*
X152190000Y-119850000D01*
X394390000Y-119850000D02*
X372190000Y-119850000D01*
X52540000Y-121000000D02*
X51390000Y-119850000D01*
X300000000Y-131500000D02*
X300000000Y-131000000D01*
X201690000Y-154690000D02*
X206310000Y-154690000D01*
X127190000Y-119850000D02*
X126040000Y-121000000D01*
X322040000Y-121000000D02*
X320890000Y-119850000D01*
X199040000Y-121000000D02*
X201230000Y-123190000D01*
X199040000Y-121000000D02*
X197890000Y-119850000D01*
X75890000Y-119850000D02*
X53690000Y-119850000D01*
X93000000Y-125000000D02*
X93000000Y-119850000D01*
X297765000Y-121000000D02*
X296615000Y-119850000D01*
X223115000Y-119850000D02*
X200190000Y-119850000D01*
X53690000Y-119850000D02*
X52540000Y-121000000D01*
X51390000Y-119850000D02*
X29190000Y-119850000D01*
X78190000Y-119850000D02*
X77040000Y-121000000D01*
X248500000Y-121000000D02*
X247350000Y-119850000D01*
X101265000Y-121000000D02*
X100115000Y-119850000D01*
X371040000Y-121000000D02*
X369890000Y-119850000D01*
X224265000Y-121000000D02*
X223115000Y-119850000D01*
X197890000Y-119850000D02*
X175690000Y-119850000D01*
X151040000Y-121000000D02*
X149890000Y-119850000D01*
X201230000Y-154230000D02*
X201690000Y-154690000D01*
X320890000Y-119850000D02*
X298915000Y-119850000D01*
X200190000Y-119850000D02*
X199040000Y-121000000D01*
X271390000Y-119850000D02*
X249650000Y-119850000D01*
X347040000Y-121000000D02*
X345890000Y-119850000D01*
X296615000Y-119850000D02*
X273690000Y-119850000D01*
X124890000Y-119850000D02*
X102415000Y-119850000D01*
X102415000Y-119850000D02*
X101265000Y-121000000D01*
X126040000Y-121000000D02*
X124890000Y-119850000D01*
X175690000Y-119850000D02*
X174540000Y-121000000D01*
X201230000Y-123190000D02*
X201230000Y-154230000D01*
X100115000Y-119850000D02*
X93000000Y-119850000D01*
X208610000Y-152390000D02*
X210000000Y-151000000D01*
X395540000Y-121000000D02*
X394390000Y-119850000D01*
X369890000Y-119850000D02*
X348190000Y-119850000D01*
X93000000Y-119850000D02*
X78190000Y-119850000D01*
X152190000Y-119850000D02*
X151040000Y-121000000D01*
X323190000Y-119850000D02*
X322040000Y-121000000D01*
X103000000Y-135000000D02*
X93000000Y-125000000D01*
X297800000Y-133200000D02*
X300000000Y-131000000D01*
X297800000Y-136880000D02*
X297800000Y-133200000D01*
X272540000Y-121000000D02*
X271390000Y-119850000D01*
X101720000Y-137880000D02*
X101880000Y-137880000D01*
X247350000Y-119850000D02*
X225415000Y-119850000D01*
X372190000Y-119850000D02*
X371040000Y-121000000D01*
X206310000Y-153063654D02*
X206983654Y-152390000D01*
X149890000Y-119850000D02*
X127190000Y-119850000D01*
X249650000Y-119850000D02*
X248500000Y-121000000D01*
X101880000Y-137880000D02*
X102000000Y-138000000D01*
X225415000Y-119850000D02*
X224265000Y-121000000D01*
%TO.N,/row-board/BTN_5*%
X148500000Y-121500000D02*
X148000000Y-122000000D01*
X148000000Y-122000000D02*
X148000000Y-125500000D01*
X111000000Y-142500000D02*
X111000000Y-143840000D01*
X148500000Y-121000000D02*
X148500000Y-121500000D01*
X131000000Y-142500000D02*
X111000000Y-142500000D01*
X111000000Y-143840000D02*
X109340000Y-145500000D01*
X148000000Y-125500000D02*
X131000000Y-142500000D01*
%TO.N,+5V*%
X215120000Y-148500000D02*
X213500000Y-148500000D01*
X243500000Y-127500000D02*
X243500000Y-143500000D01*
X200000000Y-144000000D02*
X200000000Y-144500000D01*
X199840000Y-151000000D02*
X197300000Y-151000000D01*
X253880000Y-129000000D02*
X252380000Y-127500000D01*
X199840000Y-144660000D02*
X199840000Y-151000000D01*
X252380000Y-127500000D02*
X243500000Y-127500000D01*
X234500000Y-142380000D02*
X228780000Y-142380000D01*
X254850000Y-129000000D02*
X263730000Y-137880000D01*
X253880000Y-129000000D02*
X254850000Y-129000000D01*
X242380000Y-142380000D02*
X243500000Y-143500000D01*
X234500000Y-142380000D02*
X242380000Y-142380000D01*
X213500000Y-148500000D02*
X213500000Y-148600000D01*
X215120000Y-144120000D02*
X215000000Y-144000000D01*
X217620000Y-151000000D02*
X220160000Y-151000000D01*
X215120000Y-148500000D02*
X215120000Y-144120000D01*
X217620000Y-151000000D02*
X215120000Y-148500000D01*
X228780000Y-142380000D02*
X220160000Y-151000000D01*
X200000000Y-144500000D02*
X199840000Y-144660000D01*
%TO.N,GND*%
X195700001Y-133919999D02*
X196500000Y-133120000D01*
X226320000Y-147380000D02*
X234500000Y-147380000D01*
X211390000Y-146610000D02*
X217000000Y-141000000D01*
X271500000Y-149000000D02*
X271350000Y-149150000D01*
X258500000Y-150500000D02*
X258650000Y-150650000D01*
X220160000Y-153540000D02*
X226320000Y-147380000D01*
X258500000Y-149000000D02*
X258500000Y-150500000D01*
X217000000Y-141000000D02*
X228000000Y-141000000D01*
X197300000Y-153540000D02*
X195700001Y-151940001D01*
X211390000Y-152150000D02*
X211390000Y-146610000D01*
X210000000Y-153540000D02*
X211390000Y-152150000D01*
X195700001Y-151940001D02*
X195700001Y-133919999D01*
X271350000Y-149150000D02*
X271350000Y-153120000D01*
X258650000Y-150650000D02*
X258650000Y-153120000D01*
%TO.N,/row-board/BTN_15*%
X393000000Y-125000000D02*
X392500000Y-125500000D01*
X392500000Y-125500000D02*
X372400000Y-145600000D01*
X393000000Y-121000000D02*
X393000000Y-125000000D01*
X372400000Y-145600000D02*
X311600000Y-145600000D01*
X311600000Y-145600000D02*
X310500000Y-144500000D01*
%TO.N,/row-board/SEG_D*%
X176495803Y-113004197D02*
X174045893Y-113004197D01*
X197650460Y-111724302D02*
X197650460Y-111359302D01*
X251000000Y-130000000D02*
X251000000Y-135310000D01*
X196791158Y-110500000D02*
X179000000Y-110500000D01*
X173210893Y-112169197D02*
X173210893Y-111804197D01*
X174045893Y-113004197D02*
X173210893Y-112169197D01*
X179000000Y-110500000D02*
X176495803Y-113004197D01*
X251000000Y-135310000D02*
X253570000Y-137880000D01*
X197650460Y-111359302D02*
X196791158Y-110500000D01*
%TO.N,/row-board/DIG_5*%
X51592193Y-115000000D02*
X98500000Y-115000000D01*
X275190000Y-151820000D02*
X273890000Y-153120000D01*
X196500000Y-115000000D02*
X245500000Y-115000000D01*
X282400000Y-132000000D02*
X282400000Y-145665685D01*
X245500000Y-115000000D02*
X294500000Y-115000000D01*
X147500000Y-115000000D02*
X196500000Y-115000000D01*
X49363232Y-111671039D02*
X49363232Y-112771039D01*
X282400000Y-145665685D02*
X276245685Y-151820000D01*
X294500000Y-115000000D02*
X343500000Y-115000000D01*
X391500000Y-115000000D02*
X391500000Y-114600000D01*
X276245685Y-151820000D02*
X275190000Y-151820000D01*
X49363232Y-112771039D02*
X51592193Y-115000000D01*
X98500000Y-115000000D02*
X147500000Y-115000000D01*
X343500000Y-115000000D02*
X391500000Y-115000000D01*
%TO.N,/row-board/DIG_4*%
X297000000Y-114000000D02*
X253000000Y-114000000D01*
X199000000Y-114000000D02*
X150000000Y-114000000D01*
X253000000Y-114000000D02*
X248000000Y-114000000D01*
X346000000Y-114000000D02*
X394500000Y-114000000D01*
X256110000Y-153110000D02*
X256110000Y-153120000D01*
X249000000Y-146000000D02*
X256110000Y-153110000D01*
X51903232Y-111946907D02*
X51903232Y-111671039D01*
X101000000Y-114000000D02*
X53956325Y-114000000D01*
X53956325Y-114000000D02*
X51903232Y-111946907D01*
X251000000Y-128500000D02*
X249000000Y-130500000D01*
X150000000Y-114000000D02*
X101000000Y-114000000D01*
X297000000Y-114000000D02*
X346000000Y-114000000D01*
X249000000Y-130500000D02*
X249000000Y-146000000D01*
X248000000Y-114000000D02*
X199000000Y-114000000D01*
%TO.N,/row-board/DIG_3*%
X396277565Y-111750934D02*
X396277565Y-112115934D01*
X200198450Y-111724302D02*
X200198450Y-112549384D01*
X151231100Y-111750934D02*
X151231100Y-113082034D01*
X247751471Y-113400000D02*
X247551471Y-113600000D01*
X198651471Y-113500000D02*
X151649066Y-113500000D01*
X151649066Y-113500000D02*
X151500000Y-113350934D01*
X281500000Y-146000000D02*
X281500000Y-129000000D01*
X249250934Y-113600000D02*
X248448529Y-113600000D01*
X272890000Y-146500000D02*
X281000000Y-146500000D01*
X298233847Y-113117087D02*
X298000000Y-113350934D01*
X201000000Y-113350934D02*
X200850934Y-113500000D01*
X249288969Y-113139903D02*
X249500000Y-113350934D01*
X200198450Y-112549384D02*
X201000000Y-113350934D01*
X151231100Y-113082034D02*
X151500000Y-113350934D01*
X298000000Y-113350934D02*
X284000000Y-113350934D01*
X346248529Y-113400000D02*
X345751471Y-113400000D01*
X201249066Y-113600000D02*
X201000000Y-113350934D01*
X345551471Y-113600000D02*
X298249066Y-113600000D01*
X249500000Y-113350934D02*
X249250934Y-113600000D01*
X281000000Y-146500000D02*
X281500000Y-146000000D01*
X347266942Y-113083992D02*
X347000000Y-113350934D01*
X396277565Y-112115934D02*
X395042565Y-113350934D01*
X266270000Y-153120000D02*
X272890000Y-146500000D01*
X248448529Y-113600000D02*
X248248529Y-113400000D01*
X247551471Y-113600000D02*
X201249066Y-113600000D01*
X345751471Y-113400000D02*
X345551471Y-113600000D01*
X347000000Y-113350934D02*
X346750934Y-113600000D01*
X151500000Y-113350934D02*
X102500000Y-113350934D01*
X395042565Y-113350934D02*
X347000000Y-113350934D01*
X346448529Y-113600000D02*
X346248529Y-113400000D01*
X102202166Y-113053100D02*
X102500000Y-113350934D01*
X346750934Y-113600000D02*
X346448529Y-113600000D01*
X102500000Y-113350934D02*
X54853127Y-113350934D01*
X298233847Y-111777565D02*
X298233847Y-113117087D01*
X199248529Y-113400000D02*
X198751471Y-113400000D01*
X198751471Y-113400000D02*
X198651471Y-113500000D01*
X248248529Y-113400000D02*
X247751471Y-113400000D01*
X249288969Y-111804197D02*
X249288969Y-113139903D01*
X282500000Y-129000000D02*
X283000000Y-128500000D01*
X298249066Y-113600000D02*
X298000000Y-113350934D01*
X200850934Y-113500000D02*
X199348529Y-113500000D01*
X281500000Y-129000000D02*
X282500000Y-129000000D01*
X54853127Y-113350934D02*
X53173232Y-111671039D01*
X347266942Y-111750934D02*
X347266942Y-113083992D01*
X284000000Y-113350934D02*
X249500000Y-113350934D01*
X199348529Y-113500000D02*
X199248529Y-113400000D01*
X102202166Y-111777565D02*
X102202166Y-113053100D01*
%TO.N,/row-board/SEG_A*%
X49790242Y-110471039D02*
X31493682Y-110471039D01*
X276430000Y-132570000D02*
X276430000Y-137880000D01*
X50625242Y-111306039D02*
X49790242Y-110471039D01*
X31493682Y-110471039D02*
X29067051Y-112897670D01*
X26173193Y-112062670D02*
X26173193Y-111697670D01*
X276500000Y-132000000D02*
X276500000Y-132500000D01*
X27008193Y-112897670D02*
X26173193Y-112062670D01*
X276430000Y-138070000D02*
X276430000Y-137880000D01*
X29067051Y-112897670D02*
X27008193Y-112897670D01*
X276500000Y-132500000D02*
X276430000Y-132570000D01*
X50625242Y-111671039D02*
X50625242Y-111306039D01*
%TO.N,/row-board/BTN_8*%
X304651372Y-138780000D02*
X304931372Y-138500000D01*
X245044365Y-126600000D02*
X245955635Y-126600000D01*
X246555635Y-126000000D02*
X265989949Y-126000000D01*
X308880000Y-138500000D02*
X310500000Y-136880000D01*
X285268628Y-127400000D02*
X296648628Y-138780000D01*
X222500000Y-126500000D02*
X244944365Y-126500000D01*
X221725000Y-121000000D02*
X221725000Y-125275000D01*
X221725000Y-125275000D02*
X221500000Y-125500000D01*
X267100000Y-127165685D02*
X267334315Y-127400000D01*
X245955635Y-126600000D02*
X246555635Y-126000000D01*
X267100000Y-127110051D02*
X267100000Y-127165685D01*
X265989949Y-126000000D02*
X267100000Y-127110051D01*
X221500000Y-125500000D02*
X222500000Y-126500000D01*
X267334315Y-127400000D02*
X285268628Y-127400000D01*
X244944365Y-126500000D02*
X245044365Y-126600000D01*
X304931372Y-138500000D02*
X308880000Y-138500000D01*
X296648628Y-138780000D02*
X304651372Y-138780000D01*
%TO.N,Net-(U1-ISET)*%
X261500000Y-133110000D02*
X266270000Y-137880000D01*
X261500000Y-129000000D02*
X261500000Y-133110000D01*
%TO.N,/row-board/BTN_10*%
X304320000Y-137980000D02*
X305420000Y-136880000D01*
X296980000Y-137980000D02*
X304320000Y-137980000D01*
X270000000Y-121000000D02*
X270000000Y-125000000D01*
X284500000Y-125500000D02*
X296980000Y-137980000D01*
X269500000Y-125500000D02*
X284500000Y-125500000D01*
X270000000Y-125000000D02*
X269500000Y-125500000D01*
%TO.N,/row-board/SEG_C*%
X129949066Y-110550934D02*
X127575698Y-112924302D01*
X148683110Y-111750934D02*
X148683110Y-111385934D01*
X252000000Y-130900000D02*
X252400000Y-130500000D01*
X148683110Y-111385934D02*
X147848110Y-110550934D01*
X147848110Y-110550934D02*
X129949066Y-110550934D01*
X253624365Y-130500000D02*
X254155000Y-130500000D01*
X124986167Y-112924302D02*
X124151167Y-112089302D01*
X261190000Y-137535000D02*
X261190000Y-137880000D01*
X127575698Y-112924302D02*
X124986167Y-112924302D01*
X252400000Y-130500000D02*
X253624365Y-130500000D01*
X124151167Y-112089302D02*
X124151167Y-111724302D01*
X254155000Y-130500000D02*
X261190000Y-137535000D01*
%TO.N,/row-board/BTN_0*%
X90934315Y-133565685D02*
X98268629Y-140900000D01*
X25500000Y-125500000D02*
X27532843Y-127532843D01*
X27532843Y-127532843D02*
X88467157Y-127532843D01*
X98268629Y-140900000D02*
X111400000Y-140900000D01*
X90600000Y-129665686D02*
X90600000Y-133231371D01*
X111400000Y-140900000D02*
X114420000Y-137880000D01*
X90600000Y-133231371D02*
X90934315Y-133565685D01*
X25500000Y-125500000D02*
X25500000Y-121000000D01*
X88467157Y-127532843D02*
X90600000Y-129665686D01*
%TO.N,/row-board/BTN_3*%
X98725000Y-125275000D02*
X98500000Y-125500000D01*
X106800000Y-129800000D02*
X106800000Y-137880000D01*
X98725000Y-121000000D02*
X98725000Y-125275000D01*
X98500000Y-125500000D02*
X102500000Y-125500000D01*
X102500000Y-125500000D02*
X106800000Y-129800000D01*
%TO.N,/row-board/BTN_9*%
X266055635Y-125500000D02*
X245500000Y-125500000D01*
X245960000Y-125040000D02*
X245500000Y-125500000D01*
X285434314Y-127000000D02*
X267500000Y-127000000D01*
X267500000Y-126944365D02*
X266055635Y-125500000D01*
X267500000Y-127000000D02*
X267500000Y-126944365D01*
X307960000Y-136880000D02*
X306840000Y-138000000D01*
X245960000Y-121000000D02*
X245960000Y-125040000D01*
X304865686Y-138000000D02*
X304485685Y-138380000D01*
X304485685Y-138380000D02*
X296814314Y-138380000D01*
X306840000Y-138000000D02*
X304865686Y-138000000D01*
X296814314Y-138380000D02*
X285434314Y-127000000D01*
%TO.N,/row-board/BTN_14*%
X309960000Y-142500000D02*
X307960000Y-144500000D01*
X368500000Y-125500000D02*
X351500000Y-142500000D01*
X368500000Y-121000000D02*
X368500000Y-125500000D01*
X351500000Y-142500000D02*
X309960000Y-142500000D01*
%TO.N,/row-board/BTN_4*%
X122000000Y-142000000D02*
X110300000Y-142000000D01*
X123500000Y-121000000D02*
X123500000Y-121500000D01*
X110300000Y-142000000D02*
X106800000Y-145500000D01*
X125500000Y-138500000D02*
X122000000Y-142000000D01*
X123000000Y-122000000D02*
X123000000Y-125500000D01*
X123500000Y-121500000D02*
X123000000Y-122000000D01*
X125500000Y-129500000D02*
X125500000Y-138500000D01*
X123000000Y-127000000D02*
X125500000Y-129500000D01*
X123000000Y-125500000D02*
X123000000Y-127000000D01*
%TO.N,/row-board/BTN_1*%
X98434315Y-140500000D02*
X91000000Y-133065685D01*
X112000000Y-138000000D02*
X109500000Y-140500000D01*
X91000000Y-129500000D02*
X88500000Y-127000000D01*
X91000000Y-133065685D02*
X91000000Y-129500000D01*
X111880000Y-137880000D02*
X112000000Y-138000000D01*
X88500000Y-127000000D02*
X51380000Y-127000000D01*
X49880000Y-125500000D02*
X49880000Y-121120000D01*
X49880000Y-121120000D02*
X50000000Y-121000000D01*
X51380000Y-127000000D02*
X49880000Y-125500000D01*
X109500000Y-140500000D02*
X98434315Y-140500000D01*
%TO.N,/row-board/DIG_2*%
X123000000Y-108000000D02*
X172000000Y-108000000D01*
X280500000Y-128500000D02*
X281000000Y-129000000D01*
X367500000Y-108400000D02*
X367100000Y-108000000D01*
X280834314Y-146100000D02*
X270750000Y-146100000D01*
X74000000Y-108000000D02*
X123000000Y-108000000D01*
X221000000Y-108000000D02*
X270000000Y-108000000D01*
X281000000Y-145934314D02*
X280834314Y-146100000D01*
X270000000Y-108000000D02*
X319000000Y-108000000D01*
X24911183Y-111697670D02*
X24911183Y-110597670D01*
X281000000Y-129000000D02*
X281000000Y-145934314D01*
X24911183Y-110597670D02*
X27508853Y-108000000D01*
X279000000Y-128500000D02*
X280500000Y-128500000D01*
X27508853Y-108000000D02*
X74000000Y-108000000D01*
X172000000Y-108000000D02*
X221000000Y-108000000D01*
X270750000Y-146100000D02*
X263730000Y-153120000D01*
X367100000Y-108000000D02*
X319000000Y-108000000D01*
X73856062Y-111724302D02*
X73856062Y-110951312D01*
%TO.N,/row-board/DIG_1*%
X223500000Y-109000000D02*
X174500000Y-109000000D01*
X283000000Y-130500000D02*
X283000000Y-131400000D01*
X370000000Y-109000000D02*
X321500000Y-109000000D01*
X174500000Y-109000000D02*
X125500000Y-109000000D01*
X321500000Y-109000000D02*
X272500000Y-109000000D01*
X27451183Y-111057010D02*
X27451183Y-111697670D01*
X125500000Y-109000000D02*
X76500000Y-109000000D01*
X283000000Y-131400000D02*
X283000000Y-146550000D01*
X29508193Y-109000000D02*
X27451183Y-111057010D01*
X272500000Y-109000000D02*
X223500000Y-109000000D01*
X76500000Y-109000000D02*
X29508193Y-109000000D01*
X283000000Y-146550000D02*
X276430000Y-153120000D01*
%TO.N,/row-board/DIG_0*%
X77666062Y-111724302D02*
X77666062Y-110333938D01*
X224761186Y-111777565D02*
X224761186Y-110238814D01*
X176000000Y-110000000D02*
X127000000Y-110000000D01*
X175758883Y-110241117D02*
X176000000Y-110000000D01*
X77666062Y-110333938D02*
X78000000Y-110000000D01*
X371763933Y-111671039D02*
X371671039Y-111671039D01*
X224761186Y-110238814D02*
X225000000Y-110000000D01*
X371500000Y-111500000D02*
X371500000Y-111131238D01*
X250241051Y-128693263D02*
X248500000Y-130434314D01*
X225000000Y-110000000D02*
X176000000Y-110000000D01*
X126699157Y-110300843D02*
X127000000Y-110000000D01*
X248400000Y-147950000D02*
X253570000Y-153120000D01*
X370368762Y-110000000D02*
X323000000Y-110000000D01*
X371500000Y-111131238D02*
X370368762Y-110000000D01*
X248500000Y-130434314D02*
X248500000Y-130800000D01*
X322788262Y-111804197D02*
X322788262Y-110211738D01*
X273706064Y-110206064D02*
X273500000Y-110000000D01*
X248500000Y-130800000D02*
X248400000Y-130900000D01*
X250241051Y-128247017D02*
X250241051Y-128693263D01*
X273706064Y-111697670D02*
X273706064Y-110206064D01*
X371671039Y-111671039D02*
X371500000Y-111500000D01*
X175758883Y-111804197D02*
X175758883Y-110241117D01*
X28721183Y-110352696D02*
X28721183Y-111697670D01*
X127000000Y-110000000D02*
X78000000Y-110000000D01*
X322788262Y-110211738D02*
X323000000Y-110000000D01*
X248400000Y-130900000D02*
X248400000Y-147950000D01*
X273500000Y-110000000D02*
X225000000Y-110000000D01*
X323000000Y-110000000D02*
X273500000Y-110000000D01*
X126699157Y-111724302D02*
X126699157Y-110300843D01*
X78000000Y-110000000D02*
X76500000Y-110000000D01*
X76500000Y-110000000D02*
X29073879Y-110000000D01*
X29073879Y-110000000D02*
X28721183Y-110352696D01*
%TO.N,/row-board/SEG_DP*%
X393500000Y-112264367D02*
X392813433Y-112950934D01*
X370130838Y-112950934D02*
X369215943Y-112036039D01*
X392813433Y-112950934D02*
X370130838Y-112950934D01*
X256000000Y-139500000D02*
X256110000Y-139390000D01*
X369215943Y-112036039D02*
X369215943Y-111671039D01*
X256110000Y-139390000D02*
X256110000Y-137880000D01*
X393729575Y-111750934D02*
X393729575Y-111770425D01*
X393729575Y-111770425D02*
X393500000Y-112000000D01*
X393500000Y-112000000D02*
X393500000Y-112264367D01*
X256000000Y-141400000D02*
X256000000Y-139500000D01*
%TO.N,/row-board/MAX_DIN*%
X227014579Y-148487851D02*
X227000000Y-148502430D01*
X227000000Y-149651471D02*
X230468529Y-153120000D01*
X230468529Y-153120000D02*
X251030000Y-153120000D01*
X227000000Y-148502430D02*
X227000000Y-149651471D01*
%TO.N,/row-board/MAX_LOAD*%
X226400000Y-149900000D02*
X231190000Y-154690000D01*
X226400000Y-149000000D02*
X226400000Y-149900000D01*
X231190000Y-154690000D02*
X277400000Y-154690000D01*
X277400000Y-154690000D02*
X278970000Y-153120000D01*
%TO.N,/row-board/MAX_CLK*%
X274850000Y-142000000D02*
X251500000Y-142000000D01*
X206070000Y-150763654D02*
X206070000Y-152390000D01*
X228500000Y-139500000D02*
X217333654Y-139500000D01*
X278970000Y-137880000D02*
X274850000Y-142000000D01*
X206070000Y-152390000D02*
X204920000Y-153540000D01*
X217333654Y-139500000D02*
X206070000Y-150763654D01*
%TO.N,/row-board/SEG_F*%
X272419328Y-112950934D02*
X272366064Y-112897670D01*
X274000000Y-138000000D02*
X274000000Y-131500000D01*
X271601064Y-112408538D02*
X271601064Y-112132670D01*
X295722435Y-111777565D02*
X296000000Y-111500000D01*
X273890000Y-137890000D02*
X274000000Y-138000000D01*
X295192150Y-111000000D02*
X294769715Y-110577565D01*
X271166064Y-111697670D02*
X271158074Y-111697670D01*
X274000000Y-131500000D02*
X277600000Y-127900000D01*
X295500000Y-111000000D02*
X295192150Y-111000000D01*
X294077979Y-110577565D02*
X293655544Y-111000000D01*
X273890000Y-137880000D02*
X273890000Y-137890000D01*
X274549066Y-112950934D02*
X272419328Y-112950934D01*
X296000000Y-111500000D02*
X295500000Y-111000000D01*
X281400000Y-127900000D02*
X281500000Y-128000000D01*
X271601064Y-112132670D02*
X271166064Y-111697670D01*
X276500000Y-111000000D02*
X274549066Y-112950934D01*
X293655544Y-111000000D02*
X276500000Y-111000000D01*
X295685857Y-111777565D02*
X295722435Y-111777565D01*
X277600000Y-127900000D02*
X281400000Y-127900000D01*
X272090196Y-112897670D02*
X271601064Y-112408538D01*
X294769715Y-110577565D02*
X294077979Y-110577565D01*
X272366064Y-112897670D02*
X272090196Y-112897670D01*
%TO.N,/row-board/SEG_B*%
X75118072Y-112089302D02*
X75118072Y-111724302D01*
X99654176Y-111493707D02*
X98738034Y-110577565D01*
X265500000Y-132030000D02*
X265500000Y-131500000D01*
X98738034Y-110577565D02*
X80922435Y-110577565D01*
X80922435Y-110577565D02*
X78575698Y-112924302D01*
X75953072Y-112924302D02*
X75118072Y-112089302D01*
X99654176Y-111777565D02*
X99654176Y-111493707D01*
X271350000Y-137880000D02*
X265500000Y-132030000D01*
X78575698Y-112924302D02*
X75953072Y-112924302D01*
%TO.N,/row-board/SEG_G*%
X268500000Y-139500000D02*
X268810000Y-139190000D01*
X343995803Y-113004197D02*
X321004197Y-113004197D01*
X268810000Y-139190000D02*
X268810000Y-137880000D01*
X345000000Y-112000000D02*
X343995803Y-113004197D01*
X344718952Y-111750934D02*
X344750934Y-111750934D01*
X344750934Y-111750934D02*
X345000000Y-112000000D01*
X320240272Y-112240272D02*
X320240272Y-111804197D01*
X321004197Y-113004197D02*
X320240272Y-112240272D01*
X268500000Y-141400000D02*
X268500000Y-139500000D01*
%TO.N,/row-board/SEG_E*%
X225107054Y-112977565D02*
X223048196Y-112977565D01*
X223048196Y-112977565D02*
X222213196Y-112142565D01*
X246740979Y-111804197D02*
X246740979Y-111520339D01*
X227480422Y-110604197D02*
X225107054Y-112977565D01*
X253000000Y-131400000D02*
X253900000Y-131400000D01*
X222213196Y-112142565D02*
X222213196Y-111777565D01*
X245824837Y-110604197D02*
X227480422Y-110604197D01*
X258650000Y-136150000D02*
X258650000Y-137880000D01*
X246740979Y-111520339D02*
X245824837Y-110604197D01*
X253900000Y-131400000D02*
X258650000Y-136150000D01*
%TO.N,/row-board/MAX_DOUT*%
X250920735Y-137770735D02*
X251030000Y-137880000D01*
X227500000Y-136500000D02*
X225500000Y-138500000D01*
X250920735Y-136079265D02*
X250920735Y-137770735D01*
X214880000Y-138500000D02*
X202380000Y-151000000D01*
X225500000Y-138500000D02*
X214880000Y-138500000D01*
%TO.N,/row-board/BTN_11*%
X295225000Y-121000000D02*
X295225000Y-125275000D01*
X302880000Y-130380000D02*
X302880000Y-136880000D01*
X295000000Y-125500000D02*
X298000000Y-125500000D01*
X295225000Y-125275000D02*
X295000000Y-125500000D01*
X298000000Y-125500000D02*
X302880000Y-130380000D01*
%TO.N,/row-board/BTN_12*%
X319500000Y-125000000D02*
X319000000Y-125500000D01*
X313900000Y-141600000D02*
X305780000Y-141600000D01*
X319000000Y-125500000D02*
X323000000Y-129500000D01*
X323000000Y-129500000D02*
X323000000Y-132500000D01*
X319500000Y-121000000D02*
X319500000Y-125000000D01*
X323000000Y-132500000D02*
X313900000Y-141600000D01*
X305780000Y-141600000D02*
X302880000Y-144500000D01*
%TO.N,/row-board/BTN_7*%
X116000000Y-143500000D02*
X116000000Y-143920000D01*
X178500000Y-143500000D02*
X116000000Y-143500000D01*
X196500000Y-121000000D02*
X196500000Y-125500000D01*
X196500000Y-125500000D02*
X178500000Y-143500000D01*
X116000000Y-143920000D02*
X114420000Y-145500000D01*
%TO.N,/row-board/165_SER_IN*%
X309120000Y-140800000D02*
X295200000Y-140800000D01*
X295200000Y-140800000D02*
X292500000Y-143500000D01*
X313040000Y-136880000D02*
X309120000Y-140800000D01*
X292500000Y-143500000D02*
X292500000Y-149000000D01*
X292500000Y-149000000D02*
X292000000Y-149500000D01*
%TO.N,/row-board/165_QH*%
X212500000Y-146500000D02*
X213500000Y-145500000D01*
X119500000Y-137880000D02*
X123880000Y-137880000D01*
X212540000Y-151000000D02*
X212500000Y-150960000D01*
X212500000Y-150960000D02*
X212500000Y-146500000D01*
X123880000Y-137880000D02*
X124000000Y-138000000D01*
%TO.N,/row-board/165_CLK*%
X300340000Y-148660000D02*
X299000000Y-150000000D01*
X106260000Y-147500000D02*
X104260000Y-145500000D01*
X300340000Y-144500000D02*
X300340000Y-148660000D01*
X185500000Y-147500000D02*
X106260000Y-147500000D01*
%TO.N,/row-board/165_SH{slash}LD*%
X104720000Y-148500000D02*
X187500000Y-148500000D01*
X213930000Y-152150000D02*
X215080000Y-151000000D01*
X101720000Y-145500000D02*
X104720000Y-148500000D01*
X213930000Y-154016346D02*
X213930000Y-152150000D01*
X297800000Y-148200000D02*
X297000000Y-149000000D01*
X187500000Y-148500000D02*
X194090000Y-155090000D01*
X194090000Y-155090000D02*
X212910000Y-155090000D01*
X297800000Y-144500000D02*
X297800000Y-148200000D01*
X212910000Y-155090000D02*
X213930000Y-154070000D01*
%TO.N,/row-board/BTN_6*%
X111880000Y-143620000D02*
X111880000Y-145500000D01*
X172000000Y-125500000D02*
X154500000Y-143000000D01*
X112000000Y-143500000D02*
X111880000Y-143620000D01*
X172000000Y-121000000D02*
X172000000Y-125500000D01*
X112000000Y-143000000D02*
X112000000Y-143500000D01*
X154500000Y-143000000D02*
X112000000Y-143000000D01*
%TO.N,/row-board/BTN_2*%
X91400000Y-129334315D02*
X91400000Y-132899999D01*
X98500000Y-140000000D02*
X107220000Y-140000000D01*
X85100000Y-126600000D02*
X88665686Y-126600000D01*
X91400000Y-132899999D02*
X98500000Y-140000000D01*
X84000000Y-125500000D02*
X85100000Y-126600000D01*
X74500000Y-121000000D02*
X74500000Y-125000000D01*
X107220000Y-140000000D02*
X109340000Y-137880000D01*
X74500000Y-125000000D02*
X74000000Y-125500000D01*
X74000000Y-125500000D02*
X84000000Y-125500000D01*
X88665686Y-126600000D02*
X91400000Y-129334315D01*
%TO.N,/row-board/BTN_13*%
X344500000Y-125500000D02*
X328000000Y-142000000D01*
X344500000Y-121000000D02*
X344500000Y-125500000D01*
X307920000Y-142000000D02*
X305420000Y-144500000D01*
X328000000Y-142000000D02*
X307920000Y-142000000D01*
%TO.N,Net-(U3-DS)*%
X124500000Y-136500000D02*
X117500000Y-136500000D01*
X117500000Y-136500000D02*
X117500000Y-137340000D01*
X117500000Y-137340000D02*
X116960000Y-137880000D01*
X225000000Y-136500000D02*
X203000000Y-136500000D01*
%TD*%
M02*
